<svg width="73" height="100" viewBox="0 0 73 100" fill="none" xmlns="http://www.w3.org/2000/svg">
<path d="M31.2407 76.2812C30.1997 76.2812 29.526 76.3732 29.1282 76.466V89.9836C29.5258 90.0755 30.1701 90.0755 30.7514 90.0755C34.9798 90.1064 37.7406 87.777 37.7406 82.8416C37.7705 78.5494 35.2576 76.2812 31.2407 76.2812Z" fill="#AEB1CF"/>
<path d="M72.9218 23.9636C72.9162 23.505 72.7706 23.0522 72.4556 22.6942L53.1745 0.670629C53.1706 0.664975 53.1648 0.662604 53.1591 0.65695C53.0442 0.528551 52.9122 0.422768 52.7703 0.329387C52.7283 0.302212 52.686 0.277772 52.6421 0.252968C52.5175 0.186397 52.3891 0.131317 52.2552 0.0910101C52.2188 0.0804317 52.1865 0.0656586 52.15 0.0561745C52.0026 0.0215214 51.8531 0 51.7001 0H4.31373C2.15192 0 0.39209 1.75983 0.39209 3.92164V96.0785C0.39209 98.2413 2.15192 100 4.31373 100H69.0193C71.183 100 72.9411 98.2413 72.9411 96.0785V24.1833C72.9413 24.1096 72.9295 24.0374 72.9218 23.9636ZM12.4335 94.2997C9.74515 94.2997 7.47282 93.5939 6.25668 92.8272L7.25013 89.1773C8.11354 89.6263 10.097 90.4583 12.0831 90.4583C14.6117 90.4583 15.8912 89.2426 15.8912 87.6742C15.8912 85.6253 13.8422 84.6985 11.6992 84.6985H9.71451V81.2087H11.6029C13.2362 81.177 15.3157 80.5702 15.3157 78.8087C15.3157 77.5601 14.2909 76.6332 12.242 76.6332C10.5469 76.6332 8.75462 77.3684 7.89103 77.88L6.89922 74.3603C8.14728 73.5598 10.6421 72.7911 13.3327 72.7911C17.7801 72.7911 20.2452 75.128 20.2452 77.9756C20.2452 80.1841 18.9981 81.9134 16.4365 82.8075V82.8717C18.9335 83.3196 20.9489 85.2088 20.9489 87.9288C20.9469 91.6094 17.7135 94.2997 12.4335 94.2997ZM39.2736 91.0549C37.0972 92.8655 33.7862 93.7232 29.7402 93.7232C27.3176 93.7232 25.6008 93.5682 24.4361 93.4159V73.1227C26.1536 72.8476 28.3913 72.6944 30.7506 72.6944C34.6742 72.6944 37.2198 73.3992 39.2114 74.9004C41.357 76.4955 42.7039 79.0392 42.7039 82.686C42.705 86.6412 41.2662 89.3699 39.2736 91.0549ZM63.5491 93.5078L63.2425 85.6005C63.1505 83.1181 63.0586 80.1127 63.0586 77.1083H62.9669C62.3223 79.7441 61.4646 82.6871 60.667 85.1083L58.1528 93.1708H54.5053L52.2992 85.1717C51.6242 82.7495 50.9213 79.8063 50.4283 77.1083H50.3672C50.2444 79.8983 50.1525 83.0862 49.9995 85.6618L49.6318 93.5085H45.3118L46.6281 72.8495H52.8516L54.8745 79.7449C55.5177 82.1348 56.1614 84.711 56.6228 87.1335H56.7136C57.2967 84.7428 58.0016 82.0141 58.6755 79.7162L60.8831 72.8496H66.983L68.1174 93.5087H63.5487V93.5078H63.5491ZM4.31373 66.5853V3.92164H49.7391V23.986C49.7391 25.0684 50.6163 25.9468 51.7001 25.9468H69.0195L69.0215 66.5851H4.31373V66.5853Z" fill="#AEB1CF"/>
<path d="M57.6951 43.0593C54.4876 43.6298 51.9565 46.935 48.5919 44.7018C49.98 42.4603 51.1693 40.5418 52.6514 38.1517C51.4393 38.1517 51.0355 38.0674 50.6811 38.1655C42.9759 40.3014 42.7366 40.2642 39.0324 33.4312C37.9639 31.4592 36.8868 30.8302 34.9657 32.2263C34.3037 32.7073 33.5311 33.0363 32.8105 33.4332C37.4153 28.4481 37.5397 27.8821 34.656 21.9342C33.8977 20.3693 32.9969 18.8263 31.902 17.4851C30.4008 15.6459 28.6521 14.0086 26.3566 11.6008C25.6439 15.484 25.5567 18.4342 24.5293 21.0097C22.8681 25.1702 20.6919 29.1429 18.4712 33.046C18.1174 33.6672 16.3935 33.5098 15.3026 33.7128C15.2333 32.6932 14.9034 31.6028 15.1595 30.6726C15.4505 29.6223 16.2968 28.7333 16.8516 27.7466C19.6027 22.8499 20.8499 17.6354 20.1351 12.0115C19.8281 9.59876 18.5347 8.49114 16.1004 9.08918C13.4091 9.74886 10.7355 10.4841 8.06633 11.2295C6.38565 11.698 6.29555 12.5333 6.88666 14.2224C7.88668 17.0822 8.77198 20.1185 8.90366 23.1149C9.14149 28.6268 8.67093 28.8944 3.14194 29.4401C3.14194 31.3511 2.95572 33.3219 3.23204 35.2238C3.34493 35.9931 4.39474 37.1061 5.14872 37.2242C10.9084 38.1343 15.1651 41.3804 18.7349 45.6884C20.3186 47.5979 21.6416 49.7233 23.4018 52.1973C23.5995 51.0913 23.8818 50.4873 23.7722 49.9655C23.2045 47.2733 22.7808 44.5116 21.8331 41.9502C20.9104 39.455 21.3308 38.049 23.9063 37.2587C25.6641 36.7188 27.3665 35.992 29.0926 35.3491C27.9514 36.0207 26.6497 36.5204 25.7026 37.4026C24.0624 38.931 24.5426 41.0585 26.5762 41.8349C27.3309 42.1231 28.1608 42.2126 28.9567 42.3912C28.7719 42.6372 28.591 42.8833 28.4066 43.1293C29.8879 44.4372 31.3704 45.7412 32.8477 47.0519C35.4859 49.3917 36.1023 44.845 38.2384 45.4731C37.551 46.6703 36.6818 47.8006 36.2156 49.0773C35.5596 50.8747 35.2696 52.8068 32.5703 52.1061C28.5036 51.0519 26.9946 49.5163 27.1394 46.6929C27.206 45.3712 26.9599 44.0341 26.856 42.7047C25.9597 44.2663 25.9824 45.7303 25.6055 47.082C24.8076 49.9408 25.8056 51.5411 28.3391 53.0903C33.0678 55.9814 37.4956 59.3632 42.0587 62.5265C43.0009 63.1772 43.991 63.7651 44.9579 64.3828C45.2136 64.1886 45.4694 63.9912 45.7257 63.795C45.3266 62.7563 44.7063 61.7432 44.5856 60.6718C44.445 59.4387 44.6633 58.1365 44.9332 56.9101C44.9828 56.6823 46.3349 56.3816 46.5244 56.6019C47.338 57.5363 47.9873 58.6289 48.5875 59.7251C48.7361 59.9979 48.4748 60.4947 48.4451 60.6549C47.545 60.1865 46.6699 59.7327 45.1536 58.9439C46.9995 63.1659 48.2499 63.437 50.3533 60.7264C51.0942 59.7719 51.4551 58.5339 52.0707 57.4722C53.0818 55.7307 53.7825 53.5245 55.281 52.4054C58.8304 49.7574 57.9143 46.4764 57.6951 43.0593ZM32.933 45.8124L30.448 43.4908C34.4379 46.3548 35.5979 45.8124 35.5979 45.8124C34.5242 46.9733 32.933 45.8124 32.933 45.8124Z" fill="#AEB1CF"/>
</svg>
