<svg width="74" height="100" viewBox="0 0 74 100" fill="none" xmlns="http://www.w3.org/2000/svg">
<path d="M36.9287 73.7148C35.7023 73.7148 34.9071 73.823 34.4385 73.9322V89.8512C34.908 89.9583 35.666 89.9583 36.3515 89.9583C41.333 89.9948 44.5833 87.2518 44.5833 81.4392C44.6177 76.3869 41.6583 73.7148 36.9287 73.7148Z" fill="#AEB1CF"/>
<path d="M73.4707 23.9636C73.4649 23.505 73.3195 23.0521 73.0045 22.694L53.723 0.67066C53.7191 0.664487 53.7133 0.66249 53.7077 0.656862C53.5928 0.528503 53.4608 0.422657 53.319 0.329339C53.2769 0.302105 53.2346 0.277596 53.1906 0.252723C53.0661 0.186274 52.9377 0.131082 52.8037 0.0907769C52.7674 0.0802468 52.7349 0.0653594 52.6984 0.0559186C52.5512 0.0216049 52.4018 0 52.2486 0H4.86248C2.70054 0 0.940918 1.7598 0.940918 3.92174V96.0784C0.940918 98.2413 2.70054 100 4.86248 100H69.5682C71.732 100 73.49 98.2413 73.49 96.0784V24.1833C73.4898 24.1096 73.4784 24.0374 73.4707 23.9636ZM4.86248 3.92174H50.2878V23.9862C50.2878 25.0684 51.1649 25.9469 52.2486 25.9469H69.5682L69.5702 66.5852H4.86248V3.92174ZM14.7564 95.165C11.5324 95.165 8.80855 94.3206 7.35086 93.3976L8.53985 89.0242C9.57634 89.5623 11.9545 90.5588 14.3341 90.5588C17.3654 90.5588 18.8986 89.1008 18.8986 87.2202C18.8986 84.7636 16.4438 83.6511 13.8721 83.6511H11.4939V79.4692H13.7586C15.7141 79.4309 18.2092 78.7014 18.2092 76.5912C18.2092 75.0957 16.9808 73.9832 14.5251 73.9832C12.4921 73.9832 10.3427 74.8641 9.30782 75.4786L8.11719 71.2584C9.61356 70.298 12.6074 69.3761 15.8301 69.3761C21.1633 69.3761 24.1184 72.1785 24.1184 75.5935C24.1184 78.2417 22.6235 80.3136 19.5516 81.3878V81.4644C22.5451 82.0024 24.9625 84.2658 24.9625 87.5285C24.9625 91.9403 21.0878 95.165 14.7564 95.165ZM46.3875 91.1151C43.8245 93.2444 39.9249 94.2554 35.1604 94.2554C32.3087 94.2554 30.2871 94.0744 28.9156 93.8954V69.9964C30.9381 69.6729 33.5725 69.4921 36.3519 69.4921C40.9723 69.4921 43.969 70.3219 46.3147 72.0905C48.8422 73.9681 50.4296 76.9637 50.4296 81.2597C50.4296 85.9165 48.7331 89.1295 46.3875 91.1151ZM59.994 94.3637C57.2139 94.3637 54.4717 93.6427 53.0997 92.8835L54.219 88.3348C55.699 89.0921 57.9729 89.8515 60.3195 89.8515C62.8471 89.8515 64.1817 88.8048 64.1817 87.2155C64.1817 85.699 63.0261 84.8326 60.1031 83.7862C56.0608 82.3777 53.4243 80.1402 53.4243 76.6026C53.4243 72.4514 56.8902 69.2747 62.6298 69.2747C65.3727 69.2747 67.3947 69.853 68.8386 70.5022L67.6111 74.9427C66.6365 74.4724 64.9036 73.7862 62.5214 73.7862C60.1385 73.7862 58.9849 74.869 58.9849 76.1337C58.9849 77.6847 60.356 78.3722 63.498 79.5632C67.793 81.1505 69.8141 83.3891 69.8141 86.8176C69.8133 90.8987 66.6719 94.3637 59.994 94.3637Z" fill="#AEB1CF"/>
<path d="M17.2197 32.3926C17.2019 32.3964 17.1834 32.4011 17.1665 32.4075L17.2727 32.5131C17.2569 32.473 17.2373 32.4329 17.2197 32.3926Z" fill="#AEB1CF"/>
<path d="M53.1518 20.4158C48.0648 24.3508 42.7609 23.2133 37.2731 22.949C37.2731 22.949 37.2921 22.9604 37.3036 22.9691C36.7704 22.9379 36.238 22.9232 35.7066 22.949C30.2184 23.2133 24.9156 24.3508 19.8276 20.4158C17.1411 18.3372 13.5469 20.7311 13.9844 24.0802C14.3579 26.943 16.0707 29.6314 17.2205 32.393C17.2243 32.3921 17.2281 32.3911 17.2315 32.3892C16.3813 29.8431 15.2324 27.339 14.863 24.7242C14.6949 23.5303 16.2502 20.9454 16.8305 20.9998C18.8913 21.1981 21 22.0468 22.7831 23.1478C23.2273 23.4216 22.7224 25.6371 22.292 26.8304C21.7027 28.4604 20.943 30.0989 19.9038 31.4651C19.4285 32.0908 18.1647 32.1153 17.2306 32.3891C17.2441 32.4312 17.2588 32.4724 17.2737 32.5136C17.2737 32.5136 17.1654 32.4068 17.1654 32.4079H17.1673L17.1654 32.4068C17.5039 34.5334 17.8236 36.6636 18.186 38.7852C18.4134 40.1127 18.6057 41.4597 18.9932 42.7422C19.6696 44.9883 20.7275 47.1439 21.1823 49.4255C21.7969 52.494 22.989 54.7803 26.1767 55.8411C27.9412 56.4299 29.4606 57.7893 31.2342 58.3084C33.4646 58.9594 36.2277 60.046 38.085 59.2908C43.9539 56.9019 51.4466 55.8391 51.4217 46.8587C51.4179 45.6127 52.5706 44.3992 53.0091 43.11C53.4475 41.8228 53.7997 40.549 53.978 39.2803C54.5141 37.7498 55.596 33.7665 55.8124 32.4079L55.7051 32.5136C55.7206 32.4724 55.7358 32.4314 55.7493 32.3891C54.8157 32.1153 53.551 32.09 53.0752 31.4651C52.0352 30.0989 51.2761 28.4619 50.6874 26.8304C50.2565 25.6371 49.752 23.4216 50.1963 23.1478C51.9789 22.0468 54.0889 21.1981 56.1494 20.9998C56.7295 20.9437 58.2845 23.5303 58.116 24.7242C57.7463 27.3388 56.5975 29.844 55.7473 32.3892C55.7511 32.3912 55.7549 32.3921 55.7587 32.393C56.9085 29.6323 58.6203 26.943 58.9947 24.0802C59.4332 20.7322 55.8391 18.3372 53.1518 20.4158ZM35.3352 25.7596C35.8134 25.7596 36.293 25.7596 36.7722 25.7596C36.7722 28.1776 36.7722 30.594 36.7722 33.0105C36.293 33.0105 35.8134 33.0105 35.3352 33.0105C35.3352 30.5931 35.3352 28.1765 35.3352 25.7596ZM29.9559 42.1241C28.3312 45.5535 27.3628 48.8839 28.7351 52.6049C28.8711 52.9745 28.5734 53.5039 28.2584 54.9927C23.5901 48.736 27.4723 43.8095 29.073 38.4793C26.3909 37.4352 23.9045 36.4644 20.9882 35.3284C21.3937 32.8215 23.8361 31.7941 26.6694 31.7157C29.5652 31.6372 31.0543 33.5314 30.984 36.307C30.9354 38.2658 30.7725 40.4017 29.9559 42.1241ZM39.7803 55.0234C37.0018 55.0234 35.179 55.0234 32.9196 55.0234C35.3706 52.4086 34.6683 50.4326 32.1694 48.6172C31.5116 48.141 30.8755 46.8302 31.0852 46.1782C31.3174 45.4567 32.4715 44.7396 33.3314 44.5749C34.7909 44.2959 36.3793 44.2164 37.8292 44.4945C39.0499 44.7291 40.1509 45.5898 41.3054 46.1742C40.6861 47.1503 40.1977 48.2485 39.4223 49.0782C37.7288 50.8883 36.6634 52.627 39.7803 55.0234ZM42.9926 38.4234C44.2487 43.659 48.7322 48.6844 43.4848 53.9587C43.4561 53.279 43.2012 52.5083 43.4321 51.9357C44.7331 48.7078 43.6974 45.8732 42.3838 42.9282C41.5892 41.1479 41.0721 39.1222 40.9784 37.1799C40.851 34.5613 41.5365 31.9372 44.8117 31.7409C47.864 31.5586 50.3341 32.7084 51.1 35.3547C48.1109 36.486 45.7079 37.3969 42.9926 38.4234Z" fill="#AEB1CF"/>
<path d="M55.8143 32.4073V32.4062L55.8123 32.4073H55.8143Z" fill="#AEB1CF"/>
</svg>
