<svg width="73" height="100" viewBox="0 0 73 100" fill="none" xmlns="http://www.w3.org/2000/svg">
<path d="M72.5298 23.9646C72.524 23.5056 72.3786 23.0526 72.0636 22.6951L52.782 0.670115C52.7782 0.664487 52.7724 0.66249 52.7668 0.656862C52.6519 0.528503 52.5199 0.422294 52.3781 0.329339C52.336 0.301561 52.2937 0.277233 52.2497 0.252723C52.1252 0.186274 51.9968 0.131082 51.8628 0.0907769C51.8265 0.0802468 51.794 0.0653594 51.7575 0.0553739C51.6103 0.0216049 51.4609 0 51.3076 0H3.92156C1.75962 0 0 1.7598 0 3.92174V96.0784C0 98.2413 1.75962 100 3.92156 100H68.6273C70.7911 100 72.5491 98.2413 72.5491 96.0784V24.1833C72.5489 24.1096 72.5374 24.037 72.5298 23.9646ZM14.7374 94.1847C11.9882 94.1847 9.66356 93.4657 8.42046 92.6796L9.43426 88.9475C10.3184 89.4052 12.3491 90.2564 14.3783 90.2564C16.9638 90.2564 18.2727 89.0125 18.2727 87.41C18.2727 85.315 16.1783 84.3653 13.9844 84.3653H11.9566V80.796H13.8872C15.557 80.7644 17.6844 80.1413 17.6844 78.3412C17.6844 77.0659 16.6374 76.1151 14.5421 76.1151C12.8068 76.1151 10.9733 76.8686 10.0902 77.3913L9.07533 73.7914C10.3529 72.9728 12.905 72.1878 15.6561 72.1878C20.2058 72.1878 22.7265 74.5765 22.7265 77.4899C22.7265 79.7484 21.4488 81.5158 18.8293 82.433V82.4982C21.3832 82.9559 23.446 84.8878 23.446 87.669C23.4451 91.4348 20.1392 94.1847 14.7374 94.1847ZM45.9309 92.8097C44.3933 93.3324 41.4809 94.0543 38.5666 94.0543C34.5402 94.0543 31.6254 93.0394 29.5982 91.0748C27.5689 89.1763 26.4549 86.2954 26.4885 83.0554C26.5206 75.7235 31.8572 71.5329 39.0905 71.5329C41.9369 71.5329 44.1314 72.0892 45.2112 72.6139L44.1639 76.6062C42.9516 76.0836 41.4465 75.6565 39.0243 75.6565C34.8676 75.6565 31.7254 78.0137 31.7254 82.7932C31.7254 87.343 34.5727 90.0274 38.6642 90.0274C39.8111 90.0274 40.7274 89.8953 41.119 89.6999V85.0852H37.7143V81.1885H45.9309V92.8097V92.8097ZM64.1284 93.8246H49.0386V90.8136L51.7875 88.3252C56.4358 84.1681 58.6952 81.7784 58.7602 79.29C58.7602 77.5561 57.7119 76.1812 55.2561 76.1812C53.4246 76.1812 51.8189 77.0975 50.7063 77.9487L49.2989 74.3795C50.9026 73.1693 53.391 72.188 56.2708 72.188C61.0827 72.188 63.733 75.0028 63.733 78.8659C63.733 82.4341 61.148 85.2805 58.0707 88.0322L56.1061 89.6683V89.7326H64.1273V93.8246H64.1284ZM3.92156 66.5852V3.92174H49.3469V23.9862C49.3469 25.0684 50.2239 25.9469 51.3076 25.9469H68.6273L68.6293 66.5852H3.92156Z" fill="#AEB1CF"/>
<path d="M53.0568 35.6518C53.0568 35.6518 27.9477 35.6518 21.0314 35.6518L22.1018 34.8911C30.0488 30.3007 47.6406 19.2657 47.6406 19.2657C48.3721 18.8419 48.621 17.9065 48.2018 17.1751L46.6719 13.4078C46.2467 12.6743 45.314 12.4274 44.5789 12.8492L15.6422 30.4345C14.9118 30.8586 14.6656 31.7959 15.0855 32.5274L17.8558 35.5303L17.8774 58.5949C17.8774 59.4422 18.561 60.124 19.4059 60.124H53.0571C53.9006 60.124 54.5862 59.4431 54.5862 58.5949V37.1832C54.5858 36.3382 53.9003 35.6518 53.0568 35.6518ZM41.9615 36.746L37.2394 41.3341H31.1225L35.7138 36.746H41.9615ZM39.97 17.0316L45.3985 13.5462L44.6067 18.6587L39.0508 22.2255L39.97 17.0316ZM30.2908 22.9861L35.8142 19.5438L34.8242 24.7262L29.3077 28.1676L30.2908 22.9861ZM19.283 34.4412L20.2084 29.244L25.6892 25.7422L24.7614 30.9305L19.283 34.4412ZM25.0045 36.746H31.1214L26.533 41.3341H20.4167L25.0045 36.746ZM51.9509 58.2614H20.4822V43.7231H51.9509V58.2614ZM48.0457 41.3331H41.8282L46.419 36.7453H52.4918L48.0457 41.3331Z" fill="#AEB1CF"/>
</svg>
