<svg width="74" height="100" viewBox="0 0 74 100" fill="none" xmlns="http://www.w3.org/2000/svg">
<path d="M57.9631 75.2441C56.9328 75.2441 56.2358 75.3447 55.8701 75.4442V82.0522C56.302 82.1519 56.8334 82.1844 57.5647 82.1844C60.2532 82.1844 61.9142 80.8231 61.9142 78.531C61.9133 76.4734 60.4867 75.2441 57.9631 75.2441Z" fill="#AEB1CF"/>
<path d="M73.0786 23.9646C73.0728 23.5056 72.9274 23.0526 72.6124 22.6951L53.3309 0.670115C53.3271 0.664487 53.3212 0.66249 53.3156 0.656862C53.2007 0.528503 53.0687 0.422294 52.9269 0.329339C52.8848 0.301561 52.8425 0.277233 52.7985 0.252723C52.674 0.186274 52.5456 0.131082 52.4117 0.0907769C52.3753 0.0802468 52.3428 0.0653594 52.3064 0.0553739C52.1591 0.0216049 52.0097 0 51.8565 0H4.47039C2.30845 0 0.548828 1.7598 0.548828 3.92174V96.0784C0.548828 98.2413 2.30845 100 4.47039 100H69.1762C71.3399 100 73.0979 98.2413 73.0979 96.0784V24.1833C73.0977 24.1096 73.0863 24.037 73.0786 23.9646ZM15.2632 94.3386C12.4733 94.3386 10.1153 93.6082 8.85473 92.8106L9.88396 89.026C10.7801 89.4911 12.84 90.353 14.8979 90.353C17.5212 90.353 18.8487 89.0921 18.8487 87.4655C18.8487 85.3401 16.7242 84.3767 14.4978 84.3767H12.4408V80.7569H14.3996C16.0938 80.7233 18.2518 80.0915 18.2518 78.2667C18.2518 76.9712 17.189 76.0073 15.0635 76.0073C13.3033 76.0073 11.4444 76.7713 10.5479 77.3027L9.51813 73.6502C10.8135 72.8192 13.4034 72.0226 16.1939 72.0226C20.8095 72.0226 23.3663 74.4468 23.3663 77.4013C23.3663 79.6934 22.0715 81.4855 19.4146 82.4162V82.4822C22.0045 82.9485 24.0969 84.9073 24.0969 87.7297C24.0969 91.5498 20.7431 94.3386 15.2632 94.3386ZM46.9066 92.9446C45.3459 93.4751 42.3915 94.2064 39.436 94.2064C35.3509 94.2064 32.3948 93.1763 30.3367 91.1839C28.2774 89.2578 27.1485 86.3357 27.182 83.048C27.2156 75.6099 32.6292 71.3599 39.9672 71.3599C42.8549 71.3599 45.0798 71.9229 46.176 72.4552L45.1132 76.5051C43.8848 75.9746 42.3568 75.5429 39.9001 75.5429C35.6837 75.5429 32.4954 77.9334 32.4954 82.7838C32.4954 87.3985 35.3839 90.1213 39.5342 90.1213C40.6974 90.1213 41.6272 89.9891 42.0255 89.7892V85.1075H38.5734V81.1562H46.9077V92.9448H46.9066V92.9446ZM64.8697 83.7124C63.1426 85.3401 60.5843 86.0705 57.5972 86.0705C56.9327 86.0705 56.3354 86.0369 55.869 85.9699V93.973H50.855V71.8904C52.4157 71.624 54.6081 71.4251 57.6967 71.4251C60.8178 71.4251 63.0429 72.0226 64.5385 73.2183C65.965 74.3472 66.9281 76.2065 66.9281 78.3989C66.9272 80.5912 66.1976 82.4506 64.8697 83.7124ZM4.47039 66.5852V3.92174H49.8957V23.9862C49.8957 25.0684 50.7728 25.9469 51.8565 25.9469H69.1762L69.1781 66.5852H4.47039Z" fill="#AEB1CF"/>
<path d="M59.8957 55.1074C59.211 55.4769 58.6195 55.5038 58.0411 55.1937C54.3848 53.2356 52.448 40.5681 52.0124 35.8515L51.8735 35.8644C50.5934 27.1534 43.1101 20.459 34.0446 20.459C24.0807 20.459 16.0027 28.5367 16.0027 38.5C16.0027 48.4638 24.0809 56.5424 34.0446 56.5424C42.0916 56.5424 48.9037 51.2699 51.2281 43.9936C52.2661 49.212 54.0909 55.3026 57.1143 56.9206C57.6697 57.2194 58.2517 57.3678 58.8483 57.3678C59.5003 57.3678 60.1666 57.1888 60.8271 56.8316L59.8957 55.1074ZM22.9339 42.5308C20.4399 42.37 18.5475 40.2158 18.7084 37.7237C18.8692 35.2277 21.0219 33.3359 23.5194 33.4967C26.0116 33.657 27.9043 35.8123 27.7396 38.3081C27.5822 40.8004 25.4281 42.6926 22.9339 42.5308ZM32.7799 53.7755C30.2868 53.6147 28.3934 51.4615 28.5544 48.966C28.7162 46.4738 30.8703 44.5817 33.3636 44.7443C35.8538 44.9052 37.7537 47.0552 37.5891 49.5524C37.428 52.0446 35.2768 53.9364 32.7799 53.7755ZM31.5199 38.6242C31.5199 37.2727 32.6161 36.1717 33.97 36.1717C35.3233 36.1717 36.4228 37.2727 36.4228 38.6242C36.4228 39.976 35.3233 41.0751 33.97 41.0751C32.6163 41.0751 31.5199 39.976 31.5199 38.6242ZM34.0662 32.2603C31.5733 32.1004 29.6799 29.9466 29.8369 27.4508C30.0005 24.9563 32.1514 23.0645 34.6488 23.228C37.1439 23.3889 39.0348 25.5389 38.8737 28.0338C38.7111 30.5287 36.5575 32.4192 34.0662 32.2603ZM43.6878 43.8703C41.1938 43.7095 39.3009 41.5563 39.4598 39.0623C39.6225 36.5663 41.7719 34.6768 44.2719 34.8395C46.7648 34.9974 48.6568 37.1494 48.4968 39.6476C48.3331 42.1407 46.18 44.0316 43.6878 43.8703Z" fill="#AEB1CF"/>
</svg>
