<svg width="73" height="100" viewBox="0 0 73 100" fill="none" xmlns="http://www.w3.org/2000/svg">
<path d="M72.628 23.9646C72.6222 23.5059 72.4767 23.053 72.1617 22.6951L52.8802 0.67066C52.8764 0.665031 52.8706 0.663034 52.8649 0.656862C52.75 0.528503 52.618 0.422657 52.4762 0.329339C52.4341 0.302105 52.3918 0.277596 52.3479 0.252723C52.2233 0.186274 52.095 0.131626 51.961 0.0913215C51.9247 0.0802468 51.8922 0.0653594 51.8557 0.0559186C51.7084 0.0216049 51.559 0 51.4058 0H4.01971C1.85776 0 0.0981445 1.7598 0.0981445 3.92174V96.0784C0.0981445 98.2413 1.85776 100 4.01971 100H68.7255C70.8892 100 72.6472 98.2413 72.6472 96.0784V24.1833C72.647 24.1102 72.6356 24.0374 72.628 23.9646ZM36.0678 75.2201L26.969 94.0312H21.5022L30.6034 76.2722V76.2063H20.4835V71.961H36.0679V75.2201H36.0678ZM55.7985 94.0314H38.3964V91.3085L49.0563 75.965V75.8328H39.3922V71.6478H55.6318V74.569L45.2028 89.7133V89.8455H55.7985V94.0314ZM4.01971 66.5852V3.92174H49.445V23.9862C49.445 25.0684 50.3221 25.9469 51.4058 25.9469H68.7255L68.7275 66.5852H4.01971Z" fill="#F57C1F"/>
<path d="M43.5056 27.0225H14.9746V30.801H43.5056V27.0225Z" fill="#F57C1F"/>
<path d="M57.771 35.6393V30.7998H43.5056V35.6393H48.3326V36.8842V38.3009V39.9125V41.3343V42.9826V44.4018V46.3186H43.5056V50.9401H14.9746V54.7161H43.5056V51.1545H57.771V46.3186H49.7993V44.4018H52.9473V42.9826H49.7993V41.3343H52.9473V39.9125H49.7993V38.3009H52.9473V36.8842H49.7993V35.6393H57.771Z" fill="#F57C1F"/>
<path d="M39.8368 32.7441H18.6453V49.216H39.8368V32.7441Z" fill="#F57C1F"/>
</svg>
