<svg width="74" height="100" viewBox="0 0 74 100" fill="none" xmlns="http://www.w3.org/2000/svg">
<path d="M53.8831 78.6934C53.1386 78.6934 52.6342 78.7656 52.3699 78.8372V83.617C52.6822 83.6892 53.0664 83.7132 53.5951 83.7132C55.5405 83.7132 56.7418 82.7284 56.7418 81.0713C56.7415 79.5817 55.7087 78.6934 53.8831 78.6934Z" fill="#F57C1F"/>
<path d="M72.5508 22.2555L54.0477 1.15457C53.4041 0.420819 52.4757 0 51.4997 0H4.76421C2.59861 0 0.842773 1.75583 0.842773 3.92144V96.0786C0.842773 98.2445 2.59861 100 4.76421 100H69.47C71.6359 100 73.3918 98.2442 73.3918 96.0782V24.4898C73.3918 23.6677 73.093 22.8737 72.5508 22.2555ZM25.3235 78.9329L18.8863 92.2395H15.0194L21.4563 79.6774V79.6294H14.2986V76.6269H25.3235V78.9329ZM39.5912 92.2395H27.0052V90.2701L34.7152 79.1729V79.0767H27.7257V76.0502H39.471V78.1638L31.9291 89.1168V89.213H39.5912V92.2395V92.2395ZM45.5723 92.2395H41.8975V76.0505H45.5723V92.2395ZM58.8792 84.8177C57.63 85.9944 55.7808 86.5228 53.619 86.5228C53.1385 86.5228 52.706 86.4988 52.3697 86.4508V92.2395H48.7429V76.2666C49.8716 76.0745 51.4571 75.9304 53.6909 75.9304C55.9489 75.9304 57.5581 76.3628 58.6391 77.2275C59.6719 78.0439 60.3685 79.3893 60.3685 80.9745C60.3685 82.5597 59.8397 83.9048 58.8792 84.8177ZM4.76421 66.5843V3.92175H50.1896V23.9851C50.1896 25.0674 51.0666 25.946 52.1505 25.946H69.4703L69.4722 66.5843H4.76421Z" fill="#F57C1F"/>
<path d="M25.9575 13.215V10.0535C25.9575 9.35854 25.394 8.79513 24.6991 8.79513H20.5865C19.8915 8.79513 19.3281 8.23173 19.3281 7.53678V4.47906C19.3281 3.78411 18.7647 3.2207 18.0698 3.2207H11.3963C10.7013 3.2207 10.1379 3.78411 10.1379 4.47906V7.64056C10.1379 8.33551 10.7013 8.89892 11.3963 8.89892H15.5089C16.2039 8.89892 16.7673 9.46232 16.7673 10.1573V12.9327C16.7673 13.6276 16.2039 14.191 15.5089 14.191H11.3963C10.7013 14.191 10.1379 14.7544 10.1379 15.4494V18.6109C10.1379 19.3058 10.7013 19.8692 11.3963 19.8692H15.5089C16.2039 19.8692 16.7673 20.4326 16.7673 21.1276V24.0506C16.7673 24.7456 16.2039 25.309 15.5089 25.309H11.3963C10.7013 25.309 10.1379 25.8724 10.1379 26.5673V29.7288C10.1379 30.4238 10.7013 30.9872 11.3963 30.9872H18.0701C18.765 30.9872 19.3285 30.4238 19.3285 29.7288V26.702C19.3285 26.0071 19.8919 25.4437 20.5868 25.4437H24.6994C25.3944 25.4437 25.9578 24.8803 25.9578 24.1853V21.0235C25.9578 20.3285 25.3944 19.7651 24.6994 19.7651H20.5868C19.8919 19.7651 19.3285 19.2017 19.3285 18.5068V15.7314C19.3285 15.0364 19.8919 14.473 20.5868 14.473H24.6994C25.3944 14.4733 25.9575 13.9099 25.9575 13.215Z" fill="#F57C1F"/>
<path d="M11.3963 46.9705H12.6035C13.2985 46.9705 13.8619 47.5339 13.8619 48.2288V55.2768C13.8619 55.9717 14.4253 56.5351 15.1203 56.5351H20.9758C21.6707 56.5351 22.2341 55.9717 22.2341 55.2768V48.2288C22.2341 47.5339 22.7975 46.9705 23.4925 46.9705H24.6997C25.3947 46.9705 25.9581 46.4071 25.9581 45.7121V35.3658C25.9581 34.6708 25.3947 34.1074 24.6997 34.1074H11.3963C10.7013 34.1074 10.1379 34.6708 10.1379 35.3658V45.7121C10.1379 46.4074 10.7013 46.9705 11.3963 46.9705Z" fill="#F57C1F"/>
</svg>
