<svg width="74" height="100" viewBox="0 0 74 100" fill="none" xmlns="http://www.w3.org/2000/svg">
<path d="M38.1302 74.6055H38.0652C37.7436 75.8932 37.4217 77.5379 37.0657 78.7961L35.7769 83.4068H40.5811L39.2275 78.7961C38.8406 77.5063 38.4539 75.894 38.1302 74.6055Z" fill="#AEB1CF"/>
<path d="M73.1753 23.9636C73.1715 23.5041 73.025 23.0521 72.7101 22.694L53.4295 0.669752C53.4239 0.663397 53.4182 0.661582 53.4142 0.655772C53.2993 0.527595 53.1653 0.420842 53.0237 0.328431C52.9816 0.300108 52.9395 0.276688 52.8954 0.251815C52.7728 0.185185 52.6426 0.129266 52.5087 0.0891429C52.4722 0.0795205 52.4397 0.0648147 52.4034 0.0551923C52.2577 0.0206971 52.1065 0 51.9533 0H4.56902C2.40526 0 0.647461 1.7598 0.647461 3.92174V96.0784C0.647461 98.2402 2.40526 100 4.56902 100H69.2748C71.4367 100 73.1965 98.2404 73.1965 96.0784V24.1824C73.1963 24.1087 73.1849 24.0364 73.1753 23.9636ZM21.8081 92.6643L20.1325 87.0846H13.9071L12.3599 92.6643H7.2651L13.9072 70.9291H20.3562L27.0984 92.6643H21.8081ZM42.9689 92.6643L41.2915 87.0846H35.0661L33.5189 92.6643H28.4221L35.0661 70.9291H41.5176L48.2558 92.6643H42.9689ZM61.4834 88.9227C62.9654 88.9227 64.6105 88.601 65.5774 88.2143L66.3184 92.0516C65.4164 92.5035 63.3859 92.9878 60.7414 92.9878C53.2276 92.9878 49.3569 88.3108 49.3569 82.1184C49.3569 74.7012 54.6466 70.5729 61.226 70.5729C63.7735 70.5729 65.7076 71.089 66.5796 71.5418L65.5791 75.4432C64.5785 75.0229 63.1924 74.6371 61.4525 74.6371C57.5502 74.6371 54.5172 76.9904 54.5172 81.8274C54.5154 86.1825 57.0963 88.9227 61.4834 88.9227ZM4.56902 66.5843V3.92174H49.9923V23.9852C49.9923 25.0686 50.8714 25.946 51.9533 25.946H69.2748V66.5845H4.56902V66.5843Z" fill="#AEB1CF"/>
<path d="M16.9711 74.6055H16.9065C16.5849 75.8932 16.2636 77.5379 15.9065 78.7961L14.6182 83.4068H19.4221L18.0682 78.7961C17.6819 77.5063 17.2946 75.894 16.9711 74.6055Z" fill="#AEB1CF"/>
<path d="M35.819 22.917C25.7062 22.917 17.5085 31.1163 17.5085 41.2289C17.5085 51.3416 25.7062 59.5391 35.819 59.5391C45.9293 59.5391 54.1276 51.3418 54.1276 41.2289C54.1276 31.1165 45.9293 22.917 35.819 22.917ZM44.1523 47.6562C44.1523 49.2679 42.9518 50.5547 41.0753 51.0268C39.0188 51.5371 37.033 50.6753 36.6378 49.0985C36.2438 47.517 37.5904 45.8242 39.6488 45.3089C40.5795 45.0796 41.4927 45.127 42.2587 45.3957V33.6708L31.7358 35.5938L31.6888 50.1815H31.687C31.677 51.562 30.4308 52.9197 28.6409 53.3621C26.6084 53.8732 24.4753 52.9053 24.2496 51.4589C23.858 49.8959 25.1917 48.2183 27.2286 47.7096C28.1443 47.4812 29.0425 47.5253 29.7945 47.7909V30.5212L44.1534 28.1948V47.6566H44.1523V47.6562Z" fill="#AEB1CF"/>
</svg>
