<svg width="74" height="100" viewBox="0 0 74 100" fill="none" xmlns="http://www.w3.org/2000/svg">
<path d="M32.3991 74.4385H32.3264C31.9663 75.8831 31.605 77.7232 31.2076 79.1316L29.7637 84.2929H35.142L33.6255 79.1316C33.1943 77.6868 32.7604 75.8831 32.3991 74.4385Z" fill="#FCC02A"/>
<path d="M73.2748 23.9636C73.2692 23.505 73.1247 23.0516 72.8098 22.6942L53.5273 0.670629C53.5235 0.664428 53.5178 0.662604 53.5122 0.65695C53.3971 0.528551 53.265 0.422221 53.1233 0.329387C53.0812 0.301665 53.0391 0.277225 52.9949 0.252968C52.8703 0.186397 52.7421 0.131317 52.6081 0.0910101C52.572 0.0804317 52.5393 0.0656586 52.5028 0.0556274C52.3555 0.0215214 52.2059 0 52.0529 0H4.66676C2.50495 0 0.745117 1.75983 0.745117 3.92164V96.0785C0.745117 98.2413 2.50495 100 4.66676 100H69.3725C71.536 100 73.2942 98.2413 73.2942 96.0785V24.1833C73.2942 24.1096 73.2829 24.0374 73.2748 23.9636ZM37.8147 94.6528L35.9363 88.4076H28.9706L27.2372 94.6528H21.5354L28.9706 70.324H36.1891L43.7331 94.6528H37.8147ZM52.5049 94.6528H46.9808V70.3241H52.5049V94.6528ZM4.66676 66.5853V3.92164H50.0921V23.986C50.0921 25.0684 50.9692 25.9468 52.0529 25.9468H69.3725L69.3744 66.5851H4.66676V66.5853Z" fill="#FCC02A"/>
<path d="M26.5442 47.9696L24.5215 55.2604H17.8638L26.5442 26.8574H34.9726L43.7806 55.2604H36.8695L34.678 47.9696H26.5442ZM33.7511 43.1659L31.9813 37.1394C31.4753 35.4543 30.9699 33.3472 30.549 31.6613H30.4647C30.0431 33.3472 29.6216 35.4966 29.1579 37.1394L27.4723 43.1659H33.7511Z" fill="#FCC02A"/>
<path d="M53.7294 28.9219C53.7294 30.6922 52.3812 32.125 50.2741 32.125C48.2511 32.125 46.9033 30.6923 46.9443 28.9219C46.9024 27.0678 48.2511 25.6768 50.3144 25.6768C52.3803 25.6777 53.6871 27.0678 53.7294 28.9219ZM47.1128 55.2603V34.6519H53.5187V55.2603H47.1128Z" fill="#FCC02A"/>
</svg>
