<svg width="73" height="100" viewBox="0 0 73 100" fill="none" xmlns="http://www.w3.org/2000/svg">
<path d="M21.1129 73.9785H21.0354C20.6512 75.5131 20.268 77.4721 19.8452 78.9713L18.3101 84.4629H24.0317L22.4188 78.9713C21.9568 77.4356 21.4972 75.5149 21.1129 73.9785Z" fill="#AEB1CF"/>
<path d="M72.726 23.9646C72.7204 23.5061 72.5748 23.0533 72.2598 22.6952L52.9787 0.670629C52.9748 0.664975 52.969 0.662969 52.9633 0.65695C52.8484 0.528551 52.7164 0.422768 52.5745 0.329387C52.5325 0.302212 52.4902 0.277772 52.4463 0.25315C52.3217 0.186397 52.1933 0.131682 52.0594 0.0913748C52.023 0.0804317 51.9907 0.0654762 51.9542 0.0559922C51.8068 0.0215214 51.6573 0 51.5043 0H4.11793C1.95612 0 0.196289 1.75983 0.196289 3.92164V96.0785C0.196289 98.2413 1.95612 100 4.11793 100H68.8235C70.9872 100 72.7453 98.2413 72.7453 96.0785V24.1833C72.7455 24.1102 72.7337 24.0374 72.726 23.9646ZM26.8728 95.4829L24.8755 88.8404H17.4638L15.6209 95.4829H9.55409L17.4649 69.6012H25.1458L33.1707 95.4829H26.8728ZM42.4988 95.4829H36.6238V69.6012H42.4988V95.4829ZM63.3886 74.4006H53.4419V80.3156H62.7355V85.076H53.4419V95.4831H47.5673V69.6003H63.3886V74.4006V74.4006ZM4.11793 66.5853V3.92164H49.5433V23.9867C49.5433 25.069 50.4205 25.9474 51.5043 25.9474H68.8237L68.8257 66.5851H4.11793V66.5853Z" fill="#AEB1CF"/>
<path d="M43.62 22.7628C34.0365 16.0628 34.0628 14.4902 34.0628 14.4902C32.2366 14.7067 32.0493 16.0901 32.0493 16.0901V47.646C30.6774 47.1698 29.0394 47.085 27.3598 47.4981C23.6413 48.4253 21.2089 51.497 21.9198 54.3521C22.3373 56.9888 26.2287 58.7602 29.9482 57.8234C33.2167 57.0147 35.4958 54.5454 35.5108 52.0199H35.5217L35.6051 22.0519C35.6051 22.0519 42.1268 21.7039 48.5166 31.7156C48.519 31.7156 48.5321 26.547 43.62 22.7628Z" fill="#AEB1CF"/>
</svg>
