<svg width="73" height="100" viewBox="0 0 73 100" fill="none" xmlns="http://www.w3.org/2000/svg">
<path d="M36.569 74.8789C35.5201 74.8789 34.8093 74.9812 34.4358 75.0815V81.8172C34.8759 81.9186 35.4181 81.9531 36.1632 81.9531C38.9051 81.9531 40.596 80.5649 40.596 78.2288C40.5958 76.1304 39.1406 74.8789 36.569 74.8789Z" fill="#1998A7"/>
<path d="M15.6496 75.0137H15.583C15.2436 76.3673 14.9051 78.0954 14.5338 79.4137L13.1799 84.2544H18.2221L16.8012 79.4137C16.3943 78.0602 15.9885 76.3673 15.6496 75.0137Z" fill="#1998A7"/>
<path d="M72.8242 23.9626C72.8185 23.5041 72.6711 23.0522 72.3562 22.6932L53.0768 0.668805C53.0711 0.663516 53.0655 0.66078 53.0615 0.656038C52.9466 0.526728 52.8125 0.421856 52.6708 0.328658C52.6287 0.301482 52.5864 0.275766 52.5424 0.252056C52.4199 0.184574 52.2915 0.130405 52.1556 0.0900981C52.1191 0.0795198 52.0868 0.0638347 52.0503 0.0561745C51.905 0.0206095 51.7534 0 51.6004 0H4.21607C2.05427 0 0.294434 1.75892 0.294434 3.92164V96.0785C0.294434 98.2405 2.05427 100 4.21607 100H68.9217C71.0835 100 72.8435 98.2405 72.8435 96.0785V24.1824C72.8437 24.1087 72.8318 24.0365 72.8242 23.9626ZM20.7257 93.9682L18.9661 88.1129H12.4345L10.8111 93.9682H5.46304L12.4345 71.1549H19.2036L26.2768 93.9682H20.7257ZM43.6097 83.5095C41.8483 85.1677 39.2424 85.9124 36.1954 85.9124C35.5202 85.9124 34.9105 85.8781 34.436 85.811V93.9662H29.325V71.4593C30.9163 71.1903 33.1509 70.9875 36.2968 70.9875C39.4789 70.9875 41.7472 71.5952 43.2703 72.8133C44.7245 73.964 45.705 75.8599 45.705 78.0954C45.7064 80.3272 44.9616 82.2228 43.6097 83.5095ZM61.6513 93.9682L56.0657 84.1183L54.1029 86.5216V93.9682H48.9923V71.1549H54.1029V81.2413H54.2045C54.7126 80.3615 55.2536 79.5497 55.7622 78.7359L60.9411 71.1551H67.2693L59.7218 80.8693L67.6751 93.9665H61.6513V93.9682ZM36.7258 66.5843L36.8369 66.4735C38.1599 65.1473 38.1599 62.979 36.8351 61.6527C35.5089 60.3278 33.3402 60.3284 32.0148 61.6527L27.0828 66.5843H24.672L30.8089 60.4475L9.11785 38.7562L4.21589 43.6582V41.2493L7.91192 37.5509C9.23932 36.2249 9.23932 34.0558 7.91192 32.7302C6.91373 31.7337 5.44899 31.5083 4.21589 32.0126V3.92164H49.6396V23.9851C49.6396 25.0675 50.5185 25.9459 51.6004 25.9459H68.9218V66.5842H36.7258V66.5843Z" fill="#1998A7"/>
<path d="M39.7205 40.7589L35.1985 42.185C34.4531 40.5037 33.3923 38.9274 32.014 37.5497C30.6378 36.1714 29.0609 35.1126 27.3778 34.3678L28.8044 29.8439C28.8748 29.6203 28.7503 29.3801 28.5268 29.3097C28.3023 29.2391 28.0634 29.3648 27.9926 29.5882L26.5866 34.0429C21.6292 32.174 15.8987 32.9636 11.5935 36.4116L33.1527 57.9693C36.6018 53.6646 37.3895 47.9341 35.5213 42.9762L39.9775 41.5703C40.1997 41.4999 40.3251 41.2596 40.2524 41.0361C40.1862 40.8145 39.9427 40.6881 39.7205 40.7589ZM22.9161 40.5028C21.951 41.4666 20.3866 41.4666 19.4216 40.5019C18.457 39.5373 18.457 37.9715 19.4216 37.0067C20.3848 36.0421 21.9511 36.0421 22.9181 37.0067C23.8819 37.9735 23.8819 39.5373 22.9161 40.5028ZM32.5572 50.1435C31.5902 51.1074 30.0277 51.1074 29.0609 50.1435C28.0962 49.1774 28.0982 47.6127 29.0609 46.649C30.0279 45.6844 31.5904 45.6844 32.5572 46.649C33.5229 47.6137 33.5229 49.1794 32.5572 50.1435Z" fill="#1998A7"/>
</svg>
