<svg width="74" height="100" viewBox="0 0 74 100" fill="none" xmlns="http://www.w3.org/2000/svg">
<path d="M59.3168 74.4473C58.1977 74.4473 57.4403 74.5555 57.0439 74.6635V81.8479C57.5131 81.9551 58.0895 81.9905 58.8842 81.9905C61.8079 81.9905 63.6138 80.5113 63.6138 78.0201C63.6138 75.7817 62.0608 74.4473 59.3168 74.4473Z" fill="#AEB1CF"/>
<path d="M38.3458 74.4473C37.227 74.4473 36.4692 74.5555 36.0732 74.6635V81.8479C36.5427 81.9551 37.1183 81.9905 37.9135 81.9905C40.837 81.9905 42.6426 80.5113 42.6426 78.0201C42.6417 75.7817 41.0888 74.4473 38.3458 74.4473Z" fill="#AEB1CF"/>
<path d="M73.3736 23.9646C73.3679 23.5059 73.2223 23.0526 72.9073 22.6951L53.6249 0.67066C53.6211 0.664487 53.6153 0.66249 53.6087 0.656862C53.4947 0.528503 53.3616 0.422294 53.2209 0.329339C53.1788 0.302105 53.1365 0.277233 53.0926 0.252723C52.968 0.186274 52.8397 0.131082 52.7048 0.0907769C52.6685 0.0802468 52.6369 0.0653594 52.6004 0.0559186C52.454 0.0216049 52.3028 0 52.1505 0H4.76531C2.60355 0 0.84375 1.7598 0.84375 3.92174V96.0784C0.84375 98.2413 2.60337 100 4.76531 100H69.4711C71.6348 100 73.3926 98.2413 73.3926 96.0784V24.1842C73.3926 24.1096 73.3812 24.0374 73.3736 23.9646ZM21.4526 94.805L19.5761 88.5607H12.6104L10.877 94.805H5.17326L12.6104 70.4763H19.8288L27.3733 94.805H21.4526ZM45.8538 83.6511C43.9773 85.4203 41.197 86.215 37.9488 86.215C37.2269 86.215 36.5759 86.1787 36.0724 86.1059V94.8048H30.6204V70.7998C32.3165 70.5117 34.6984 70.2953 38.0557 70.2953C41.4486 70.2953 43.8673 70.9443 45.4929 72.2446C47.0439 73.4701 48.0904 75.4921 48.0904 77.8742C48.0922 80.258 47.2965 82.2791 45.8538 83.6511ZM66.824 83.6511C64.9475 85.4203 62.1672 86.215 58.9186 86.215C58.1977 86.215 57.5466 86.1787 57.0421 86.1059V94.8048H51.5906V70.7998C53.2872 70.5117 55.6692 70.2953 59.0259 70.2953C62.4188 70.2953 64.8375 70.9443 66.4631 72.2446C68.0141 73.4701 69.0615 75.4921 69.0615 77.8742C69.0633 80.258 68.2686 82.2791 66.824 83.6511ZM4.76531 66.5863V3.92247H50.1908V23.9871C50.1908 25.0695 51.0677 25.9478 52.1516 25.9478H69.4711L69.4731 66.5863H4.76531V66.5863Z" fill="#AEB1CF"/>
<path d="M16.0398 74.5918H15.967C15.6057 76.0355 15.2455 77.8766 14.8465 79.2841L13.4026 84.4465H18.7809L17.2662 79.2841C16.8321 77.8402 16.3993 76.0346 16.0398 74.5918Z" fill="#AEB1CF"/>
<path d="M34.2615 38.9805L35.1378 41.96L36.9301 40.5718L34.2615 38.9805Z" fill="#AEB1CF"/>
<path d="M48.2874 40.1029L47.6307 22.7607L20.445 23.7914L20.5293 25.9939L10.3132 28.2736L17.9979 62.6955L36.9789 58.4598L37.4094 58.4426C36.967 59.2037 36.7066 59.6566 36.7066 59.6566L36.1699 60.503C35.9172 60.9052 36.0378 61.4384 36.4399 61.6922L38.5296 63.0134C38.9336 63.2679 39.4659 63.1474 39.7206 62.7443L40.6761 61.2307C41.1033 60.594 41.8154 59.5323 42.677 58.2416L45.3386 58.141L45.6852 58.5871C46.0949 59.1167 46.722 59.3186 47.084 59.039L48.388 58.0272L48.9664 58.0061L48.9481 57.5926L50.4953 56.3919C50.8571 56.1125 50.8168 55.4557 50.4072 54.9272L49.4651 53.714L44.7451 57.3743L44.8399 57.4949C44.6389 57.3302 44.4521 57.1465 44.3113 56.9742C44.2347 56.8801 44.1668 56.7903 44.0969 56.6982L43.7024 56.7137C43.7847 56.5911 43.8651 56.4724 43.9493 56.3478L44.0298 56.4511L45.4945 55.3146L47.1202 54.0528L47.9435 53.4161L48.3477 53.104L48.7373 52.7995C48.7469 52.7957 48.7574 52.7888 48.766 52.785L48.6358 49.3389C50.5909 46.4127 52.1648 44.0541 52.3371 43.7803C52.8253 43.0111 53.1721 40.9176 53.1721 40.9176L49.9168 38.862C49.9188 38.8617 48.9922 39.4648 48.2874 40.1029ZM19.128 60.9166L12.093 29.4029L20.5848 27.5058L21.782 59.0343L28.7371 58.7701L19.128 60.9166ZM40.5764 59.9037C40.5581 59.8903 40.5419 59.8751 40.5227 59.8616L39.6265 59.2968L42.6835 54.7148L43.4112 55.653L40.5764 59.9037ZM45.2678 44.8738L43.3586 45.1552L43.4524 45.7992L44.8484 45.5942C44.6167 45.9911 44.3773 46.4079 44.1303 46.8326L41.778 43.797L41.5127 44.0011L40.9709 44.4246L40.1476 45.0619L38.5218 46.3217L37.0566 47.4588L40.8981 52.4117C39.9274 54.0891 39.016 55.6641 38.2921 56.9183L23.2144 57.4909L21.9908 25.2235L46.1975 24.3058L46.77 39.4421L46.0214 34.3586L38.8206 35.4185L39.8355 42.3028L37.4448 40.8771L35.3056 42.5319L36.5752 46.836L41.2948 43.1739L40.799 42.8771L39.807 36.1516L45.2874 35.3446L45.5535 37.1445L42.2485 37.6309L42.3442 38.2752L45.6472 37.7889L45.9078 39.5626L43.5181 39.9145L43.612 40.5585L46.0036 40.2066L46.2803 42.087L43.8896 42.4388L43.9853 43.0831L46.3749 42.7313L46.4036 42.9167C46.071 43.4884 45.689 44.149 45.2678 44.8738ZM51.9515 42.8598L46.907 50.4147L46.1803 49.4755L50.9953 42.2571L51.9515 42.8598Z" fill="#AEB1CF"/>
<path d="M57.6027 28.6992C57.0944 30.5943 53.7271 31.4441 53.7271 31.4441C49.8822 32.3559 50.3638 38.0805 50.3638 38.0805L53.6171 40.1366C57.1327 40.2217 59.3807 36.5768 59.3807 36.5768C62.4887 31.0238 57.6027 28.6992 57.6027 28.6992ZM54.5143 39.4107L53.4248 38.9757C53.4248 38.9757 55.171 39.7072 59.2057 34.4806C59.2057 34.4806 58.8111 37.7277 54.5143 39.4107Z" fill="#AEB1CF"/>
</svg>
