<svg width="73" height="100" viewBox="0 0 73 100" fill="none" xmlns="http://www.w3.org/2000/svg">
<path d="M19.7425 75.0176H19.6788C19.3562 76.3064 19.035 77.9491 18.6788 79.2053L17.3916 83.8113H22.1915L20.8388 79.2053C20.4515 77.9168 20.0652 76.3064 19.7425 75.0176Z" fill="#AEB1CF"/>
<path d="M72.9224 23.9646C72.9166 23.5056 72.7712 23.0526 72.4562 22.6951L53.1746 0.670115C53.1708 0.664487 53.165 0.66249 53.1594 0.656862C53.0444 0.528503 52.9125 0.422294 52.7707 0.329339C52.7285 0.301561 52.6862 0.277233 52.6423 0.252723C52.5178 0.186274 52.3894 0.131082 52.2554 0.0907769C52.2191 0.0802468 52.1866 0.0653594 52.1501 0.0553739C52.0029 0.0216049 51.8534 0 51.7002 0H4.31414C2.1522 0 0.392578 1.7598 0.392578 3.92174V96.0784C0.392578 98.2413 2.1522 100 4.31414 100H69.0199C71.1837 100 72.9416 98.2413 72.9416 96.0784V24.1833C72.9415 24.1096 72.93 24.037 72.9224 23.9646ZM24.5748 93.0576L22.8993 87.4846H16.6829L15.1357 93.0576H10.0476L16.6839 71.3463H23.1258L29.8584 93.0576H24.5748ZM38.0706 93.3795C35.5895 93.3795 33.1414 92.7349 31.9168 92.0592L32.9168 87.9989C34.2375 88.6758 36.2667 89.3517 38.3616 89.3517C40.6153 89.3517 41.8083 88.4172 41.8083 87.0002C41.8083 85.6485 40.7759 84.8748 38.1681 83.9403C34.5601 82.6852 32.2091 80.6879 32.2091 77.5304C32.2091 73.8261 35.3012 70.9904 40.4237 70.9904C42.8718 70.9904 44.6757 71.5064 45.9635 72.0856L44.8682 76.0472C43.9989 75.6289 42.4515 75.0171 40.3261 75.0171C38.2006 75.0171 37.1685 75.9832 37.1685 77.1119C37.1685 78.4964 38.392 79.1091 41.1955 80.1718C45.0288 81.5888 46.8328 83.5859 46.8328 86.6456C46.8319 90.287 44.0296 93.3795 38.0706 93.3795ZM63.419 75.3722H55.0762V80.3346H62.8716V84.327H55.0762V93.0576H50.1474V71.3465H63.419V75.3722ZM4.31414 66.5852V3.92174H49.7394V23.9862C49.7394 25.0684 50.6165 25.9469 51.7002 25.9469H69.0199L69.0219 66.5852H4.31414Z" fill="#AEB1CF"/>
<path d="M35.7181 25.7323V20.708C25.4251 20.708 17.0505 29.0825 17.0505 39.3752H22.075C22.0749 31.8516 28.1941 25.7323 35.7181 25.7323Z" fill="#AEB1CF"/>
<path d="M36.672 20.708H36.4211V25.8963H36.672C43.4649 25.8963 49.6488 32.2606 49.6488 39.2497V39.501H54.838V39.2497C54.8378 29.3725 46.3494 20.708 36.672 20.708ZM50.1484 38.9999C50.0057 31.9331 43.796 25.5497 36.9237 25.3979V21.2125C46.1455 21.3585 54.1925 29.5793 54.3332 38.9999H50.1484Z" fill="#AEB1CF"/>
<path d="M36.0698 53.6947V58.7183C46.3634 58.7183 54.7368 50.3438 54.7368 40.0508H49.7143C49.7145 47.5746 43.5927 53.6947 36.0698 53.6947Z" fill="#AEB1CF"/>
<path d="M22.1397 40.1771V39.9258H16.9514V40.1771C16.9514 50.0541 25.4394 58.7188 35.1159 58.7188H35.3668V53.5307H35.1159C28.3239 53.5307 22.1397 47.1662 22.1397 40.1771ZM34.8651 58.2142C25.6424 58.0668 17.5963 49.8475 17.4541 40.4271H21.6386C21.7826 47.4937 27.9904 53.8762 34.8653 54.0294V58.2142H34.8651Z" fill="#AEB1CF"/>
<path d="M31.5669 32.6156C31.4534 32.6686 31.3806 32.7874 31.3806 32.9119V46.9404C31.3806 47.0649 31.4534 47.1826 31.5669 47.2361L31.712 47.2697C31.7857 47.2697 31.8559 47.2443 31.9167 47.1978L42.8998 40.1853C42.9783 40.1216 43.0244 40.0245 43.0244 39.9242C43.0244 39.8242 42.9783 39.7305 42.8998 39.6639L31.9167 32.6527C31.8173 32.5724 31.6816 32.559 31.5669 32.6156Z" fill="#AEB1CF"/>
</svg>
