<svg width="73" height="100" viewBox="0 0 73 100" fill="none" xmlns="http://www.w3.org/2000/svg">
<path d="M72.5298 23.9651C72.5242 23.5059 72.3795 23.0532 72.0647 22.6951L52.7822 0.67066C52.7784 0.665031 52.7726 0.663034 52.7668 0.657225C52.6519 0.528503 52.5199 0.422657 52.3781 0.329883C52.336 0.302105 52.2938 0.277596 52.2497 0.253268C52.1252 0.186274 51.997 0.131626 51.863 0.0913215C51.8267 0.0802468 51.794 0.065904 51.7577 0.0559186C51.6103 0.0216049 51.4611 0 51.3078 0H3.92156C1.7598 0 0 1.76016 0 3.92174V96.0784C0 98.2413 1.75962 100 3.92156 100H68.6273C70.7911 100 72.5489 98.2413 72.5489 96.0784V24.1848C72.5489 24.1111 72.5375 24.0374 72.5298 23.9651ZM23.4399 93.5278L21.795 88.0561H15.6881L14.1697 93.5278H9.17064L15.6881 72.2043H22.0165L28.6283 93.5278H23.4399ZM36.6929 93.8455C34.2577 93.8455 31.8527 93.2119 30.6512 92.5474L31.6316 88.5617C32.9273 89.2271 34.9217 89.8896 36.9781 89.8896C39.1926 89.8896 40.3634 88.9722 40.3634 87.5803C40.3634 86.2531 39.3505 85.492 36.789 84.5759C33.2452 83.3408 30.935 81.3798 30.935 78.2798C30.935 74.6417 33.9732 71.8555 39.003 71.8555C41.4081 71.8555 43.1793 72.363 44.4451 72.9318L43.3688 76.8245C42.5148 76.4138 40.9965 75.8125 38.9093 75.8125C36.8207 75.8125 35.8078 76.7615 35.8078 77.868C35.8078 79.2295 37.0099 79.8308 39.7635 80.8735C43.5279 82.2675 45.3002 84.2282 45.3002 87.2335C45.3 90.8088 42.5475 93.8455 36.6929 93.8455ZM61.9084 83.7528C60.2626 85.3038 57.826 85.9988 54.9796 85.9988C54.3467 85.9988 53.776 85.9681 53.3338 85.9031V93.528H48.5564V72.4895C50.0424 72.235 52.1304 72.0471 55.0734 72.0471C58.0482 72.0471 60.1678 72.6159 61.5905 73.7531C62.952 74.8294 63.8692 76.6006 63.8692 78.6894C63.8692 80.7789 63.1738 82.5501 61.9084 83.7528ZM3.92156 66.5863V3.92247H49.347V23.9876C49.347 25.0699 50.2239 25.9484 51.3078 25.9484H68.6273L68.6293 66.5863H3.92156V66.5863Z" fill="#AEB1CF"/>
<path d="M18.6941 75.8115H18.6304C18.3139 77.0773 17.998 78.6895 17.65 79.9244L16.3833 84.4473H21.0981L19.7687 79.9244C19.39 78.657 19.01 77.0773 18.6941 75.8115Z" fill="#AEB1CF"/>
<path d="M55.327 75.6846C54.3466 75.6846 53.6812 75.7792 53.3337 75.875V82.1691C53.7455 82.2668 54.251 82.2975 54.947 82.2975C57.51 82.2975 59.0917 81.0001 59.0917 78.8182C59.0916 76.8554 57.731 75.6846 55.327 75.6846Z" fill="#AEB1CF"/>
<path d="M10.1418 39.9781L28.0144 30.7554V35.1399L14.498 41.7163V41.7987L28.0144 48.3742V52.7579L10.1418 43.5351V39.9781Z" fill="#AEB1CF"/>
<path d="M30.7793 54.4129L38.7501 24.4287H42.5089L34.5407 54.4129H30.7793Z" fill="#AEB1CF"/>
<path d="M62.546 43.6575L44.6731 52.7577V48.3733L58.4886 41.7978V41.7154L44.6731 35.1399V30.7554L62.546 39.8547V43.6575Z" fill="#AEB1CF"/>
</svg>
