<svg width="74" height="100" viewBox="0 0 74 100" fill="none" xmlns="http://www.w3.org/2000/svg">
<path d="M44.8639 75.856C44.0175 75.856 43.445 75.938 43.144 76.0194V81.4519C43.5002 81.5323 43.9371 81.56 44.5362 81.56C46.748 81.56 48.1113 80.4398 48.1113 78.5576C48.1104 76.8649 46.9377 75.856 44.8639 75.856Z" fill="#AEB1CF"/>
<path d="M13.2461 75.9653H13.1939C12.9204 77.058 12.6457 78.4491 12.348 79.5135L11.2546 83.4152H15.3213L14.1741 79.5135C13.8469 78.4222 13.5195 77.0585 13.2461 75.9653Z" fill="#AEB1CF"/>
<path d="M73.0785 23.9636C73.0729 23.505 72.9275 23.0516 72.6124 22.6942L53.3301 0.670629C53.3263 0.664428 53.3206 0.662604 53.3139 0.65695C53.1999 0.528551 53.0667 0.422221 52.9259 0.329387C52.884 0.301665 52.8417 0.277225 52.7977 0.252968C52.6731 0.186397 52.5448 0.131317 52.4098 0.0910101C52.3735 0.0804317 52.3421 0.0656586 52.3056 0.0556274C52.1592 0.0215214 52.0078 0 51.8557 0H4.47047C2.30866 0 0.548828 1.75983 0.548828 3.92164V96.0785C0.548828 98.2413 2.30866 100 4.47047 100H69.1762C71.3397 100 73.0979 98.2413 73.0979 96.0785V24.1833C73.0979 24.1096 73.0866 24.0374 73.0785 23.9636ZM17.3399 91.2514L15.9215 86.5301H10.6557L9.34361 91.2514H5.03203L10.6557 72.8535H16.1125L21.8162 91.2514H17.3399ZM28.7838 91.5231C26.68 91.5231 24.6058 90.9761 23.5702 90.4029L24.4161 86.9657C25.5348 87.5384 27.2523 88.109 29.029 88.109C30.938 88.109 31.9495 87.3201 31.9495 86.1194C31.9495 84.9724 31.0759 84.3185 28.8652 83.5248C25.8077 82.4619 23.8182 80.7691 23.8182 78.0945C23.8182 74.9567 26.4376 72.5558 30.7771 72.5558C32.8521 72.5558 34.3809 72.9915 35.4722 73.4794L34.5415 76.8393C33.8062 76.4851 32.4945 75.965 30.6947 75.965C28.8927 75.965 28.0191 76.7844 28.0191 77.7401C28.0191 78.9119 29.0576 79.4328 31.431 80.3329C34.6789 81.5332 36.2065 83.2259 36.2065 85.8196C36.2067 88.9044 33.8319 91.5231 28.7838 91.5231ZM50.5413 82.8153C49.1223 84.1538 47.0198 84.7541 44.563 84.7541C44.0164 84.7541 43.5262 84.7275 43.1441 84.674V91.2523H39.0215V73.1006C40.3065 72.8805 42.1083 72.7178 44.6455 72.7178C47.2102 72.7178 49.041 73.2095 50.2662 74.1918C51.4421 75.1187 52.2327 76.6496 52.2327 78.4509C52.2329 80.2525 51.6347 81.7785 50.5413 82.8153ZM63.8108 91.2514L62.1469 87.9192C61.4634 86.6392 61.0286 85.681 60.5095 84.6162H60.4559C60.0721 85.681 59.6094 86.6394 59.0351 87.9192L57.5071 91.2514H52.7574L58.0816 81.9433L52.9478 72.8535H57.7274L59.3357 76.2123C59.8814 77.3334 60.2914 78.2324 60.7278 79.2683H60.7833C61.2201 78.0945 61.5752 77.2767 62.0375 76.2123L63.5923 72.8535H68.3411L63.1559 81.833L68.6152 91.2514H63.8108ZM4.47047 66.5853V3.92164H49.8958V23.986C49.8958 25.0684 50.7729 25.9468 51.8566 25.9468H69.1762L69.1781 66.5851H4.47047V66.5853Z" fill="#AEB1CF"/>
<path d="M10.6045 40.5412L28.4769 31.3184V35.7029L14.9602 42.2793V42.3618L28.4769 48.9373V53.3222L10.6045 44.099V40.5412Z" fill="#AEB1CF"/>
<path d="M31.241 54.9744L39.2128 24.9907H42.9716L35.0036 54.9744H31.241Z" fill="#AEB1CF"/>
<path d="M63.0083 44.2203L45.1355 53.3209V48.936L58.951 42.3605V42.2781L45.1355 35.7014V31.3169L63.0083 40.4157V44.2203Z" fill="#AEB1CF"/>
</svg>
