<svg width="73" height="100" viewBox="0 0 73 100" fill="none" xmlns="http://www.w3.org/2000/svg">
<path d="M16.5623 75.4292H16.4947C16.1572 76.7792 15.8202 78.5005 15.4488 79.817L14.0984 84.6443H19.1272L17.7102 79.817C17.3052 78.467 16.9007 76.7791 16.5623 75.4292Z" fill="#AEB1CF"/>
<path d="M72.6275 23.9636C72.6217 23.505 72.4762 23.0521 72.1612 22.694L52.8797 0.67066C52.8759 0.664487 52.8701 0.66249 52.8644 0.656862C52.7495 0.528503 52.6175 0.422657 52.4757 0.329339C52.4336 0.302105 52.3913 0.277596 52.3474 0.252723C52.2228 0.186274 52.0945 0.131082 51.9605 0.0907769C51.9242 0.0802468 51.8917 0.0653594 51.8552 0.0559186C51.7079 0.0206971 51.5585 0 51.4053 0H4.01922C1.85728 0 0.0976562 1.7598 0.0976562 3.92174V96.0784C0.0976562 98.2413 1.85728 100 4.01922 100H68.725C70.8887 100 72.6467 98.2413 72.6467 96.0784V24.1833C72.6465 24.1096 72.6351 24.0374 72.6275 23.9636ZM21.625 94.3283L19.87 88.4909H13.3553L11.7358 94.3283H6.40338L13.3553 71.5801H20.1054L27.1592 94.3283H21.625ZM35.7643 94.6672C33.1653 94.6672 30.5994 93.9922 29.3175 93.2827L30.3634 89.0298C31.7477 89.7393 33.8734 90.4479 36.0673 90.4479C38.4307 90.4479 39.6782 89.4693 39.6782 87.9835C39.6782 86.5665 38.5992 85.7575 35.8643 84.7773C32.0849 83.4608 29.621 81.3679 29.621 78.0599C29.621 74.1796 32.8614 71.2077 38.2278 71.2077C40.7926 71.2077 42.6835 71.7486 44.0335 72.3577L42.8862 76.5068C41.9739 76.0683 40.353 75.4269 38.127 75.4269C35.8995 75.4269 34.8191 76.4389 34.8191 77.6213C34.8191 79.0727 36.1014 79.7141 39.0393 80.8266C43.0547 82.3134 44.9445 84.4045 44.9445 87.6119C44.9447 91.4272 42.0083 94.6672 35.7643 94.6672ZM60.3993 94.3283L58.3408 90.2113C57.4964 88.626 56.9565 87.4445 56.3151 86.1271H56.2481C55.7758 87.4445 55.2014 88.626 54.4921 90.2113L52.6041 94.3283H46.7296L53.3107 82.8221L46.967 71.5801H52.8733L54.8637 75.7324C55.5398 77.1159 56.0473 78.2302 56.5861 79.5113H56.654C57.1941 78.0609 57.6326 77.0469 58.207 75.7324L60.1295 71.5801H66.0024L59.5897 82.6841L66.3395 94.3283H60.3993ZM4.01922 66.5852V3.92174H49.4445V23.9862C49.4445 25.0684 50.3216 25.9469 51.4053 25.9469H68.725L68.727 66.5852H4.01922Z" fill="#AEB1CF"/>
<path d="M37.8072 54.8466H20.5278V38.7764H44.3455V46.5491C44.669 46.4939 44.9925 46.4518 45.3144 46.4321V25.5008C45.3144 25.3912 45.3209 25.2817 45.3353 25.1724C45.5259 23.765 46.7494 22.1297 48.9889 21.867C49.6552 21.7951 50.3177 21.9963 50.8309 22.4208V17.1689H14.6516V57.736H39.6252C38.7013 56.9624 38.0512 55.9782 37.8072 54.8466ZM20.5278 20.3797H44.3455V36.1277H20.5278V20.3797ZM19.3631 50.6397H16.1505V47.1629H19.3631V50.6397ZM19.3631 42.7737H16.1505V39.2964H19.3631V42.7737ZM19.3631 35.0128H16.1505V31.5355H19.3631V35.0128ZM19.3631 27.1453H16.1505V23.6698H19.3631V27.1453Z" fill="#AEB1CF"/>
<path d="M55.7501 30.7881C48.5598 25.7625 48.5799 24.5815 48.5799 24.5815C47.2099 24.742 47.0701 25.7813 47.0701 25.7813V49.4548C46.042 49.098 44.8107 49.0354 43.5527 49.3451C40.7628 50.0403 38.938 52.3457 39.4712 54.4884C39.7844 56.4655 42.7036 57.7943 45.4944 57.0906C47.9474 56.4837 49.6573 54.632 49.6667 52.7364H49.6744L49.7377 30.254C49.7377 30.254 54.631 29.9922 59.4247 37.5049C59.4245 37.5049 59.4341 33.6264 55.7501 30.7881Z" fill="#AEB1CF"/>
</svg>
