<svg width="74" height="100" viewBox="0 0 74 100" fill="none" xmlns="http://www.w3.org/2000/svg">
<path d="M21.6813 75.2656H21.6105C21.2586 76.6759 20.9059 78.4759 20.5175 79.8537L19.1067 84.8992H24.3643L22.8823 79.8537C22.4585 78.4423 22.035 76.677 21.6813 75.2656Z" fill="#0B7A6A"/>
<path d="M73.1748 23.9636C73.171 23.505 73.0245 23.0521 72.7097 22.694L53.429 0.67066C53.4234 0.664487 53.4178 0.66249 53.4138 0.656862C53.2988 0.528503 53.1648 0.422657 53.0232 0.329339C52.9811 0.302105 52.939 0.277596 52.8949 0.252723C52.7723 0.186274 52.6422 0.131082 52.5082 0.0907769C52.4717 0.0802468 52.4392 0.0653594 52.4029 0.0559186C52.2573 0.0206971 52.106 0 51.9528 0H4.56853C2.40478 0 0.646973 1.7598 0.646973 3.92174V96.0784C0.646973 98.2413 2.40478 100 4.56853 100H69.2743C71.4362 100 73.196 98.2413 73.196 96.0784V24.1833C73.1959 24.1096 73.1844 24.0374 73.1748 23.9636ZM26.9754 95.0291L25.1389 88.9236H18.3285L16.6353 95.0291H11.0589L18.3276 71.243H25.3851L32.7606 95.0291H26.9754ZM45.7526 95.0291H39.4701L31.8483 71.243H37.742L40.6355 81.3005C41.4474 84.124 42.1885 86.8412 42.7533 89.8052H42.8595C43.459 86.9465 44.1999 84.124 45.0118 81.4078L48.0468 71.2441H53.7625L45.7526 95.0291ZM61.705 95.0291H56.3052V71.243H61.705V95.0291ZM4.56853 66.5852V3.92174H49.9918V23.9862C49.9918 25.0684 50.8709 25.9469 51.9528 25.9469H69.2743V66.5852H4.56853Z" fill="#0B7A6A"/>
<path d="M18.3882 17.4727V58.0401H54.5684V17.4727H18.3882ZM48.0818 20.6834V36.4314H24.2644V20.6834H48.0818ZM19.8871 23.9736H23.0997V27.4499H19.8871V23.9736ZM19.8871 31.8401H23.0997V35.3165H19.8871V31.8401ZM23.0997 50.9448H19.8871V47.4675H23.0997V50.9448ZM23.0997 43.0774H19.8871V39.6012H23.0997V43.0774ZM24.2644 55.1498V39.0801H48.0818V55.1498H24.2644ZM52.9246 50.9448H49.7095V47.4675H52.9246V50.9448ZM52.9246 43.0774H49.7095V39.6012H52.9246V43.0774ZM52.9246 35.3165H49.7095V31.8401H52.9246V35.3165ZM52.9246 27.4499H49.7095V23.9736H52.9246V27.4499Z" fill="#0B7A6A"/>
</svg>
