<svg width="73" height="100" viewBox="0 0 73 100" fill="none" xmlns="http://www.w3.org/2000/svg">
<path d="M13.1874 84.0098H11.4597V90.3211C11.9581 90.3861 12.5559 90.3861 13.4194 90.3861C15.711 90.3861 17.7364 89.5225 17.7364 87.1654C17.7375 84.9077 15.7112 84.0098 13.1874 84.0098Z" fill="#15499F"/>
<path d="M34.743 75.3086H34.6775C34.3452 76.6363 34.013 78.332 33.6482 79.6254L32.3198 84.3752H37.2671L35.8726 79.6254C35.4736 78.2986 35.0758 76.6374 34.743 75.3086Z" fill="#15499F"/>
<path d="M72.7261 23.9636C72.7203 23.505 72.5749 23.0521 72.2599 22.694L52.9783 0.67066C52.9745 0.665031 52.9687 0.66249 52.9631 0.656862C52.8481 0.528503 52.7162 0.422657 52.5744 0.329339C52.5322 0.302105 52.4899 0.277596 52.446 0.252723C52.3215 0.186274 52.1931 0.131082 52.0591 0.0907769C52.0228 0.0802468 51.9903 0.0653594 51.9538 0.0559186C51.8066 0.0216049 51.6572 0 51.5039 0H4.11785C1.95591 0 0.196289 1.7598 0.196289 3.92174V96.0784C0.196289 98.2413 1.95591 100 4.11785 100H68.8236C70.9874 100 72.7454 98.2413 72.7454 96.0784V24.1833C72.7452 24.1096 72.7337 24.0374 72.7261 23.9636ZM20.7257 92.1137C19.098 93.4091 16.3747 94.1385 11.9247 94.1385C9.43338 94.1385 7.57373 93.9719 6.44537 93.8072V71.8223C7.7738 71.5571 10.4642 71.3572 12.9875 71.3572C16.0755 71.3572 17.9689 71.656 19.5964 72.619C21.157 73.449 22.2867 74.977 22.2867 77.0029C22.2867 78.9953 21.1238 80.8555 18.6002 81.7853V81.8512C21.157 82.5492 23.0503 84.4755 23.0503 87.3639C23.0512 89.3898 22.1205 90.9849 20.7257 92.1137ZM39.724 93.9069L37.9987 88.1614H31.5882L29.9942 93.9069H24.7462L31.5884 71.5235H38.2305L45.1717 93.9069H39.724ZM60.5842 93.9069L55.1049 84.2428L53.1786 86.601V93.9069H48.1646V71.5235H53.1786V81.4203H53.2792C53.777 80.5567 54.3075 79.7602 54.8062 78.9626L59.8872 71.5235H66.0969L58.6913 81.0545L66.4952 93.9069H60.5842ZM4.11785 66.5852V3.92174H49.5431V23.9862C49.5431 25.0684 50.4202 25.9469 51.5039 25.9469H68.8236L68.8256 66.5852H4.11785Z" fill="#15499F"/>
<path d="M17.2061 77.6349C17.2061 75.9403 15.9107 75.0439 13.6197 75.0439C12.524 75.0439 11.8926 75.1089 11.4612 75.1761V80.3903H13.1217C15.7776 80.3903 17.2061 79.295 17.2061 77.6349Z" fill="#15499F"/>
<path d="M44.0361 28.2824V26.2664H45.9165C46.0754 27.095 46.8012 27.7232 47.6743 27.7232C48.6623 27.7232 49.4657 26.9186 49.4657 25.9304C49.4657 24.9418 48.6623 24.1401 47.6743 24.1401C46.8012 24.1401 46.0754 24.7677 45.9165 25.5949H44.0361V23.0213H42.3722V25.5949H38.4305C38.4305 25.5791 38.4305 25.5627 38.4316 25.5469L38.4468 24.995C38.5053 23.1252 38.5772 21.1372 38.6671 18.9106C39.8677 17.9244 40.6346 16.4289 40.6346 14.7579C40.6346 11.7951 38.2239 9.38428 35.2611 9.38428C32.2983 9.38428 29.8866 11.7949 29.8866 14.7579C29.8866 16.472 30.697 17.9995 31.9512 18.9843C32.0402 21.182 32.1111 23.1466 32.1674 24.9948L32.1832 25.5478C32.2233 26.9509 32.2646 28.4004 32.2498 29.8105C32.2823 30.2027 31.951 30.869 31.6576 31.4572L31.6246 31.5228C31.2517 32.2384 30.8276 32.9583 30.4628 33.5649C29.9492 34.4113 29.4245 35.258 28.8969 36.1045C27.7332 37.979 26.5293 39.9149 25.4439 41.8973C24.4931 43.6335 23.8341 45.0122 23.3045 46.3641C22.9675 47.2277 22.7166 48.0162 22.5362 48.7758C22.3098 49.7553 22.2212 50.5719 22.2575 51.3426C22.2332 51.6816 22.2537 51.965 22.2958 52.3107C22.335 52.6179 22.3996 52.9339 22.495 53.2756C22.6743 53.894 22.9272 54.4877 23.2446 55.0429C23.8185 56.0521 24.6102 56.9777 25.6674 57.8776C27.3252 59.2622 29.3448 60.347 32.0213 61.291C32.0587 61.3052 32.097 61.3119 32.1342 61.3119C32.2702 61.3119 32.3969 61.2286 32.4468 61.0937C32.5115 60.9252 32.429 60.7346 32.2607 60.6649C29.7656 59.6424 27.8314 58.4762 26.3495 57.106C25.4487 56.2607 24.7628 55.3722 24.3089 54.4703C24.0629 53.9839 23.8742 53.4726 23.7517 52.9536C23.689 52.6701 23.6496 52.4156 23.6291 52.1696C23.6075 51.9024 23.6104 51.6335 23.642 51.4256C23.644 51.4083 23.6458 51.3519 23.6458 51.3355C23.6478 49.7961 24.2232 48.2676 24.7851 46.9784C25.3408 45.7275 26.0509 44.4011 27.0202 42.8051C28.1643 40.9218 29.439 39.0598 30.6721 37.2588C31.238 36.4345 31.8049 35.6059 32.3664 34.7675C32.8007 34.1128 33.2626 33.4018 33.6948 32.6549C33.8996 32.2969 34.1166 31.9058 34.3085 31.4716C34.4152 31.2341 34.5038 31.001 34.575 30.7617C34.6133 30.6439 34.6636 30.4175 34.6829 30.2686L34.7164 29.9009C34.8054 28.6658 34.851 27.4529 34.8911 26.2657H35.7266C35.7669 27.4529 35.8118 28.666 35.9009 29.8982L35.9352 30.2688C35.9548 30.4158 36.0046 30.6422 36.0411 30.7552C36.1148 31.0003 36.2019 31.2354 36.3078 31.4699C36.5069 31.918 36.729 32.3158 36.9234 32.6551C37.3571 33.408 37.8186 34.1148 38.2513 34.7688C38.8143 35.6059 39.3811 36.4356 39.9468 37.2617C41.179 39.0616 42.4544 40.922 43.5973 42.8051C44.5663 44.4011 45.2767 45.7257 45.831 46.9757C46.3942 48.2677 46.9686 49.7981 46.9713 51.374C46.9713 51.3924 46.976 51.4334 46.9789 51.4506C47.0056 51.6337 47.0096 51.9007 46.9886 52.1687C46.9686 52.4147 46.9292 52.6705 46.866 52.9481C46.7435 53.4719 46.5548 53.984 46.3088 54.4704C45.855 55.3724 45.1676 56.2589 44.2687 57.1053C42.7856 58.4764 40.8508 59.6425 38.3548 60.6649C38.1861 60.7339 38.1039 60.9254 38.169 61.0937C38.2188 61.2286 38.3472 61.3119 38.4822 61.3119C38.5196 61.3119 38.5568 61.3052 38.5952 61.291C41.2711 60.347 43.2903 59.2622 44.9515 57.8749C46.0067 56.9779 46.7974 56.053 47.3709 55.0429C47.6897 54.4868 47.9423 53.8902 48.1215 53.2716C48.2162 52.9329 48.2814 52.6169 48.3206 52.3085C48.362 51.9628 48.3829 51.6803 48.358 51.3424C48.3954 50.5717 48.3074 49.7551 48.0795 48.7738C47.9005 48.016 47.6496 47.2275 47.3106 46.3641C46.7823 45.0122 46.1235 43.6346 45.1719 41.8973C44.0862 39.9151 42.8809 37.9766 41.7157 36.1016C41.191 35.2551 40.6645 34.4104 40.1533 33.5649C39.7865 32.9583 39.3633 32.2384 38.9938 31.5289L38.9584 31.4563C38.6654 30.8679 38.3323 30.2036 38.3668 29.7778C38.3533 28.6337 38.382 27.4427 38.4147 26.2671H42.3746V28.2829H44.0365V28.2824H44.0361ZM47.6763 24.8118C48.2929 24.8118 48.7965 25.3158 48.7965 25.9315C48.7965 26.5489 48.293 27.0542 47.6763 27.0542C47.1756 27.0542 46.7564 26.7205 46.6135 26.2677H47.6763V25.5961H46.6135C46.7564 25.1421 47.1756 24.8118 47.6763 24.8118ZM36.1199 14.9462C36.2631 14.5627 36.6298 14.2884 37.0607 14.2884C37.5031 14.2884 37.8764 14.5747 38.0104 14.9716L36.1199 14.9462ZM30.5583 14.7581C30.5583 12.165 32.668 10.0557 35.26 10.0557C37.8522 10.0557 39.9615 12.165 39.9615 14.7581C39.9615 15.9892 39.4828 17.107 38.7054 17.9482C38.7141 17.7236 38.7244 17.493 38.734 17.2646C38.734 17.2421 38.7399 17.2216 38.7399 17.1991V17.1081C38.7647 16.5293 38.7905 15.9435 38.8165 15.3307C38.8203 15.2383 38.7878 15.1512 38.7244 15.0842C38.7235 15.0823 38.7206 15.0813 38.7188 15.0803C38.6115 14.2559 37.9127 13.6159 37.0605 13.6159C36.1346 13.6159 35.3817 14.3699 35.3817 15.2962V17.1982C35.3817 17.4208 35.4267 17.6294 35.5053 17.8238C35.5158 18.3786 35.5267 18.9186 35.5383 19.4451C35.4454 19.4509 35.353 19.4609 35.2593 19.4609C35.1976 19.4609 35.1356 19.4527 35.075 19.4509C35.0874 18.8794 35.0984 18.2913 35.111 17.6853C35.1583 17.5311 35.1914 17.3694 35.1914 17.198V15.296C35.1914 14.3697 34.4385 13.6158 33.512 13.6158C32.6355 13.6158 31.9227 14.2922 31.8475 15.149C31.815 15.2034 31.7934 15.2643 31.7963 15.3305C31.8083 15.6177 31.8197 15.8959 31.8326 16.1744V17.1978C31.8326 17.3467 31.8581 17.4879 31.8944 17.6263C31.9002 17.7684 31.9073 17.9144 31.9131 18.0556C31.0757 17.2058 30.5583 16.0409 30.5583 14.7581ZM32.563 14.9736C32.6981 14.5758 33.0708 14.2886 33.5127 14.2886C33.9461 14.2886 34.3127 14.5638 34.4548 14.9464L32.563 14.9736ZM35.26 20.1324C35.3591 20.1324 35.4559 20.1225 35.553 20.1166C35.5932 21.8643 35.6333 23.4705 35.6803 24.997L35.6999 25.5949H34.9129L34.9325 24.997C34.9793 23.4723 35.0205 21.8677 35.0588 20.1205C35.1266 20.1234 35.1921 20.1324 35.26 20.1324Z" fill="#15499F"/>
</svg>
