<svg width="74" height="100" viewBox="0 0 74 100" fill="none" xmlns="http://www.w3.org/2000/svg">
<path d="M38.68 74.3579H38.6072C38.2474 75.8016 37.8853 77.6439 37.4885 79.0513L36.0442 84.2136H41.422L39.9055 79.0513C39.4736 77.6074 39.0418 75.8018 38.68 74.3579Z" fill="#15499F"/>
<path d="M19.6205 76.8851C19.6205 75.0451 18.2126 74.0703 15.7213 74.0703C14.5303 74.0703 13.8447 74.1422 13.3752 74.213V79.881H15.1815C18.0695 79.883 19.6205 78.692 19.6205 76.8851Z" fill="#15499F"/>
<path d="M15.253 83.8154H13.3765V90.6744C13.9188 90.747 14.5678 90.747 15.5061 90.747C17.9974 90.747 20.1989 89.8087 20.1989 87.2448C20.1989 84.79 17.9974 83.8154 15.253 83.8154Z" fill="#15499F"/>
<path d="M73.2749 23.9646C73.2693 23.5059 73.1237 23.053 72.8087 22.6951L53.5262 0.67066C53.5224 0.664487 53.5166 0.66249 53.5101 0.656862C53.3961 0.528503 53.263 0.422657 53.1223 0.329339C53.0802 0.302105 53.0379 0.277233 52.9939 0.252723C52.8694 0.186274 52.741 0.131082 52.6061 0.0907769C52.5698 0.0802468 52.5382 0.0653594 52.5017 0.0559186C52.3554 0.0216049 52.2042 0 52.0519 0H4.66668C2.50492 0 0.745117 1.7598 0.745117 3.92174V96.0784C0.745117 98.2413 2.50474 100 4.66668 100H69.3724C71.5362 100 73.294 98.2413 73.294 96.0784V24.1842C73.294 24.1096 73.2826 24.0374 73.2749 23.9646ZM23.4488 92.624C21.6794 94.0323 18.7197 94.8261 13.8824 94.8261C11.1743 94.8261 9.15324 94.6451 7.92521 94.4662V70.569C9.37146 70.2798 12.293 70.0634 15.0374 70.0634C18.3941 70.0634 20.4521 70.388 22.2213 71.4345C23.9174 72.3365 25.1449 73.9966 25.1449 76.1987C25.1449 78.3642 23.8816 80.3862 21.1371 81.3975V81.4701C23.9174 82.2284 25.9744 84.3212 25.9744 87.4615C25.9744 89.6647 24.9638 91.3965 23.4488 92.624ZM44.094 94.5732L42.2155 88.3281H35.2498L33.5165 94.5732H27.8146L35.2498 70.2435H42.4693L50.0126 94.5732H44.094ZM67.1246 74.8641H60.4819V94.5743H54.9596V74.8641H48.4264V70.2437H67.1246V74.8641V74.8641ZM4.66668 66.5863V3.92247H50.0922V23.9871C50.0922 25.0695 50.9691 25.9478 52.0529 25.9478H69.3724L69.3744 66.5863H4.66668V66.5863Z" fill="#15499F"/>
<path d="M51.6831 19.0942H20.4036C18.4429 19.0942 16.8479 20.6883 16.8479 22.6482V51.9034C16.8479 53.8641 18.443 55.4593 20.4036 55.4593H51.6831C53.6441 55.4593 55.2391 53.8641 55.2391 51.9034V22.6482C55.2391 20.6883 53.6441 19.0942 51.6831 19.0942ZM52.8685 51.9034C52.8685 52.5582 52.338 53.0885 51.6831 53.0885H20.4036C19.7506 53.0885 19.2184 52.5582 19.2184 51.9034V28.8097H52.8676V51.9034H52.8685Z" fill="#15499F"/>
<path d="M22.6999 44.5726C23.642 44.7795 24.4672 45.3687 24.9725 46.1873C25.4726 47.0088 25.6215 48.017 25.3746 48.948C25.3541 49.0348 25.386 49.1276 25.4588 49.1797L27.6527 50.7795C27.7753 50.8665 27.8461 50.8207 27.8996 50.7841C28.3138 50.519 28.7753 50.3427 29.2635 50.2661C29.7293 50.1935 30.1941 50.2106 30.6498 50.3244C31.5861 50.5495 32.4018 51.1555 32.8882 51.9874C32.9303 52.0622 33.0222 52.1062 33.1104 52.0909L35.7912 51.6697C35.8813 51.6543 35.9521 51.5873 35.9717 51.501C36.1803 50.5591 36.7664 49.7323 37.5892 49.23C38.3885 48.7418 39.3631 48.5918 40.2671 48.8055C40.2613 48.692 40.2709 48.5753 40.3014 48.4584C40.3455 48.2946 40.3216 48.1185 40.2344 47.9811C40.1502 47.8447 40.0075 47.7427 39.8477 47.7076C39.3651 47.5967 39.0089 47.2174 38.9343 46.7369L38.7333 45.4664C38.6567 44.9867 38.8789 44.5152 39.2981 44.2654C39.4456 44.1782 39.5527 44.037 39.5893 43.879C39.6277 43.7234 39.599 43.5488 39.5107 43.4134C39.2484 43.0025 39.2675 42.4675 39.549 42.0773L40.3074 41.0372C40.4978 40.7761 40.7707 40.6098 41.0743 40.5619L41.2858 40.5283L41.5405 40.5844C41.7415 40.637 41.8985 40.6049 42.0307 40.5225C42.1723 40.4359 42.2758 40.2923 42.3083 40.1343C42.4105 39.6804 42.7584 39.3467 43.2024 39.2458L43.0695 38.4085C43.0532 38.3204 42.9851 38.2476 42.8991 38.2262C41.9572 38.0194 41.1289 37.4315 40.6291 36.6114C40.1264 35.7892 39.9781 34.7834 40.2231 33.8518C40.2453 33.7676 40.2126 33.6723 40.1409 33.6207L37.9459 32.0237C37.8234 31.9342 37.7531 31.9807 37.697 32.0147C36.8953 32.5317 35.8853 32.704 34.9488 32.4767C34.0147 32.255 33.201 31.6461 32.7128 30.8142C32.6689 30.7394 32.5806 30.6964 32.4902 30.7107L29.81 31.1334C29.7219 31.1463 29.6491 31.2158 29.6295 31.301C29.4227 32.2422 28.8345 33.0717 28.0138 33.5715C27.1961 34.0755 26.1832 34.2235 25.2531 33.9755C25.1952 33.9629 25.111 33.94 25.0215 34.0597L23.4225 36.255C23.3708 36.3273 23.369 36.4282 23.4169 36.504C23.9352 37.3139 24.1063 38.315 23.8808 39.2532C23.6553 40.1873 23.0493 41.001 22.2148 41.4883C22.1382 41.5334 22.0961 41.6205 22.1101 41.7129L22.5336 44.3952C22.5449 44.4836 22.6115 44.553 22.6999 44.5726ZM31.9793 36.1853C34.8559 35.7323 37.5625 37.7071 38.0173 40.5798C38.4692 43.4558 36.4978 46.163 33.6202 46.6158C30.746 47.0677 28.0391 45.0973 27.5872 42.2227C27.1333 39.3489 29.1026 36.6385 31.9793 36.1853Z" fill="#15499F"/>
<path d="M43.0108 40.1945C42.9122 40.6402 42.6317 41.0327 42.2468 41.2707C41.8581 41.5089 41.3776 41.5785 40.9371 41.4623C40.9104 41.4561 40.8681 41.4445 40.8278 41.5024L40.0695 42.5427C40.0455 42.5766 40.0437 42.6258 40.0657 42.6612C40.3126 43.0452 40.3912 43.5193 40.2848 43.9619C40.1806 44.4051 39.8934 44.7914 39.4969 45.0209C39.4605 45.0416 39.4395 45.0846 39.4453 45.1277L39.6463 46.3982C39.6519 46.4403 39.6846 46.4739 39.7265 46.4828C40.1728 46.5814 40.5653 46.86 40.8008 47.2484C41.0401 47.6365 41.1129 48.1148 40.9941 48.5561C40.9845 48.5964 40.9998 48.6404 41.0344 48.6649L42.0742 49.4227C42.1345 49.4652 42.1671 49.4428 42.1911 49.425C42.3883 49.3001 42.6047 49.2159 42.8382 49.1799C43.0564 49.1456 43.2786 49.1551 43.493 49.2064C43.9371 49.3132 44.3249 49.6004 44.5538 49.9953C44.5749 50.0312 44.617 50.0514 44.6592 50.0445L45.9286 49.8444C45.9707 49.8377 46.0052 49.8061 46.0148 49.7658C46.1125 49.3201 46.3921 48.9287 46.7808 48.6896C47.1697 48.4503 47.6482 48.3829 48.0887 48.4971C48.1174 48.5053 48.1577 48.5138 48.1996 48.4588L48.954 47.4167C48.979 47.3836 48.9809 47.3363 48.9578 47.3012C48.7109 46.916 48.6323 46.441 48.7396 45.9982C48.8449 45.5539 49.1321 45.1687 49.5266 44.9383C49.5629 44.9169 49.584 44.8757 49.5782 44.8335L49.3772 43.5621C49.3716 43.5218 49.3389 43.4864 49.2969 43.4779C48.8507 43.3787 48.4602 43.0993 48.2207 42.711C47.9832 42.3217 47.9142 41.8455 48.0291 41.4042C48.0415 41.365 48.0235 41.3199 47.9908 41.2941L46.9511 40.5378C46.8937 40.4957 46.857 40.5178 46.8324 40.5336C46.4533 40.7787 45.9727 40.8621 45.5302 40.7542C45.086 40.6484 44.7013 40.3602 44.4694 39.9654C44.4504 39.929 44.4072 39.9093 44.367 39.9151L43.0945 40.1153C43.0531 40.1217 43.0185 40.1542 43.0108 40.1945ZM46.9821 44.5913C47.1967 45.9541 46.2641 47.2357 44.9008 47.4501C43.5393 47.6656 42.2565 46.7315 42.0419 45.3677C41.8295 44.0067 42.7581 42.7233 44.1234 42.5078C45.4838 42.2945 46.7679 43.2275 46.9821 44.5913Z" fill="#15499F"/>
</svg>
