<svg width="73" height="100" viewBox="0 0 73 100" fill="none" xmlns="http://www.w3.org/2000/svg">
<path d="M24.3861 77.3842C24.3861 75.6895 23.0906 74.7925 20.7997 74.7925C19.7036 74.7925 19.0721 74.8583 18.6406 74.9254V80.1395H20.3018C22.9586 80.1395 24.3861 79.0433 24.3861 77.3842Z" fill="#69A042"/>
<path d="M20.3685 83.7603H18.6406V90.0707C19.1391 90.1368 19.7369 90.1368 20.6005 90.1368C22.8916 90.1368 24.9174 89.2734 24.9174 86.9151C24.9176 84.6565 22.8916 83.7603 20.3685 83.7603Z" fill="#69A042"/>
<path d="M72.8237 23.9636C72.818 23.505 72.6725 23.0522 72.3575 22.6942L53.0763 0.670629C53.0725 0.664975 53.0666 0.662969 53.061 0.65695C52.9461 0.528551 52.814 0.422768 52.6721 0.329387C52.6302 0.302212 52.5879 0.277772 52.5439 0.252968C52.4194 0.186397 52.291 0.131682 52.1571 0.0915572C52.1206 0.0806141 52.0883 0.0656586 52.0519 0.0561745C51.9045 0.0215214 51.7549 0 51.6019 0H4.21559C2.05378 0 0.293945 1.75983 0.293945 3.92164V96.0785C0.293945 98.2413 2.05378 100 4.21559 100H68.9212C71.0848 100 72.843 98.2413 72.843 96.0785V24.1833C72.8432 24.1096 72.8313 24.0374 72.8237 23.9636ZM27.9067 91.8627C26.2792 93.1582 23.5559 93.8879 19.1057 93.8879C16.6147 93.8879 14.7549 93.7214 13.6265 93.5567V71.5715C14.955 71.3063 17.6453 71.106 20.1686 71.106C23.2567 71.106 25.1499 71.4048 26.7775 72.367C28.3382 73.1989 29.4673 74.726 29.4673 76.7521C29.4673 78.7443 28.3046 80.6046 25.7813 81.5344V81.6003C28.3382 82.2983 30.2311 84.2248 30.2311 87.113C30.2311 89.1403 29.3017 90.7332 27.9067 91.8627ZM38.7695 93.6563H33.6881V71.2727H38.7695V93.6563ZM61.6852 93.6563H56.3718L51.5884 85.02C50.2605 82.6304 48.7983 79.74 47.7031 77.1167L47.6037 77.1483C47.7355 80.1047 47.8027 83.2594 47.8027 86.9121V93.655H43.1535V71.2727H49.0655L53.7147 79.4749C55.0426 81.8323 56.3716 84.6224 57.3671 87.1459H57.4667C57.1357 84.1905 57.0357 81.1678 57.0357 77.814V71.272H61.6851V93.6563H61.6852ZM4.21559 66.5853V3.92164H49.6409V23.986C49.6409 25.069 50.5182 25.9468 51.6019 25.9468H68.9214L68.9234 66.5851H4.21559V66.5853Z" fill="#69A042"/>
<path d="M22.0123 36.097C22.0123 31.7829 25.5115 28.2849 29.8262 28.2849C32.2773 28.2849 34.4615 29.4133 35.894 31.1783H49.0474C46.8559 22.5945 39.0959 16.2417 29.8273 16.2417C18.8596 16.2417 9.96777 25.1291 9.96777 36.097C9.96777 47.066 18.8596 55.9596 29.8273 55.9596C30.0418 55.9596 30.251 55.9354 30.4636 55.9268V43.8814C30.2528 43.8991 30.0409 43.9133 29.8264 43.9133C25.5115 43.9133 22.0123 40.4155 22.0123 36.097ZM35.8079 18.6665L31.4932 27.4711C30.6544 27.1467 29.8282 27.3205 29.8282 27.3205L27.3323 18.0732C27.3323 18.0732 30.6411 16.5897 35.8079 18.6665Z" fill="#69A042"/>
<path d="M23.5996 36.1003C23.5996 32.666 26.3938 29.8695 29.8279 29.8695C31.2611 29.8695 32.581 30.3619 33.6348 31.1797H34.5085C33.2877 30.0177 31.6419 29.2993 29.8279 29.2993C26.0797 29.2993 23.03 32.3501 23.03 36.1012C23.03 39.8499 26.0799 42.8998 29.8279 42.8998C30.0429 42.8998 30.2545 42.8875 30.4642 42.8678V42.299C30.2554 42.3196 30.0429 42.3316 29.8279 42.3316C26.3938 42.3307 23.5996 39.5346 23.5996 36.1003Z" fill="#69A042"/>
<path d="M26.6372 36.097C26.6372 37.8586 28.0686 39.2889 29.8273 39.2889C30.0451 39.2889 30.2577 39.2663 30.4636 39.2254V38.633C30.2586 38.6848 30.048 38.7202 29.8273 38.7202C28.3821 38.7202 27.2068 37.5435 27.2068 36.0979C27.2068 34.6527 28.3821 33.477 29.8273 33.477C30.048 33.477 30.2586 33.5124 30.4636 33.5645V32.9709C30.2577 32.9288 30.0453 32.9072 29.8273 32.9072C28.0686 32.9054 26.6372 34.3368 26.6372 36.097Z" fill="#69A042"/>
<path d="M32.1418 32.6602V57.4501H58.3303V32.6602H32.1418ZM55.931 51.4527H54.9715C54.0592 49.1425 52.943 46.7222 51.3794 47.122C49.9147 47.4959 48.9399 49.8837 48.4478 51.4527H47.7279C47.1926 49.536 45.9872 46.0713 43.8256 43.9075C41.3764 41.4584 38.9869 48.381 38.0774 51.4527H34.542V35.0603H55.9312V51.4527H55.931Z" fill="#69A042"/>
<path d="M37.6904 37.2705C38.757 37.2705 39.6204 38.1346 39.6204 39.2007C39.6204 40.2667 38.757 41.1312 37.6904 41.1312C36.6248 41.1312 35.7603 40.2665 35.7603 39.2007C35.7604 38.1346 36.6249 37.2705 37.6904 37.2705Z" fill="#69A042"/>
<path d="M49.4015 42.3733C49.792 42.3733 50.1578 42.333 50.4814 42.2673C50.8595 42.4291 51.3193 42.5258 51.8181 42.5258C53.0931 42.5258 54.1291 41.9026 54.1291 41.1318C54.1291 40.3609 53.0931 39.7358 51.8181 39.7358C51.3373 39.7358 50.8948 39.8258 50.5235 39.9748C50.374 39.8278 50.1693 39.7358 49.9432 39.7358H49.6079C49.1792 39.7358 48.8401 40.0623 48.7905 40.4789C47.7545 40.5847 46.9878 40.9584 46.9878 41.4059C46.988 41.939 48.0688 42.3733 49.4015 42.3733Z" fill="#69A042"/>
</svg>
