<svg width="74" height="100" viewBox="0 0 74 100" fill="none" xmlns="http://www.w3.org/2000/svg">
<path d="M15.6874 83.79H14.1077V89.5644C14.5628 89.6246 15.1097 89.6246 15.9 89.6246C17.9971 89.6246 19.8479 88.8347 19.8479 86.6778C19.8479 84.6105 17.9962 83.79 15.6874 83.79Z" fill="#69A042"/>
<path d="M60.0707 75.7085C59.1288 75.7085 58.4901 75.8004 58.157 75.8933V81.9385C58.5504 82.0295 59.0368 82.0591 59.7049 82.0591C62.1666 82.0591 63.686 80.8136 63.686 78.7178C63.686 76.8323 62.3801 75.7085 60.0707 75.7085Z" fill="#69A042"/>
<path d="M73.3731 23.9636C73.3673 23.505 73.2218 23.0521 72.9069 22.694L53.6253 0.67066C53.6215 0.665031 53.6157 0.66249 53.61 0.656862C53.4951 0.528503 53.3631 0.422657 53.2213 0.329339C53.1792 0.302105 53.1369 0.277596 53.093 0.252723C52.9684 0.186274 52.8401 0.131082 52.7061 0.0907769C52.6698 0.0802468 52.6373 0.0653594 52.6008 0.0559186C52.4535 0.0216049 52.3041 0 52.1509 0H4.76482C2.60288 0 0.843262 1.7598 0.843262 3.92174V96.0784C0.843262 98.2413 2.60288 100 4.76482 100H69.4706C71.6343 100 73.3923 98.2413 73.3923 96.0784V24.1833C73.3921 24.1096 73.3807 24.0374 73.3731 23.9636ZM22.5832 91.2032C21.0939 92.3885 18.6034 93.0568 14.5313 93.0568C12.2541 93.0568 10.5518 92.9056 9.51972 92.7524V72.6407C10.735 72.3976 13.1953 72.2157 15.5039 72.2157C18.3292 72.2157 20.0607 72.4875 21.55 73.3693C22.9776 74.1286 24.0106 75.5264 24.0106 77.3799C24.0106 79.2028 22.9469 80.9051 20.6392 81.7553V81.8167C22.9787 82.4543 24.71 84.2159 24.71 86.8602C24.7101 88.7121 23.859 90.171 22.5832 91.2032ZM45.4884 92.8442L45.1849 85.0058C45.093 82.5452 45.002 79.5678 45.002 76.5901H44.912C44.2733 79.203 43.4212 82.1191 42.6324 84.5195L40.1411 92.5091H36.5264L34.3392 84.5797C33.6704 82.1805 32.9716 79.2642 32.4852 76.5901H32.4244C32.3027 79.3542 32.2109 82.5146 32.0596 85.0661L31.6954 92.8451H27.4118L28.7178 72.3671H34.8853L36.89 79.2039C37.5282 81.5736 38.1667 84.126 38.6224 86.5262H38.7134C39.2909 84.1556 39.9897 81.4519 40.658 79.1743L42.8446 72.3691H48.8907L50.014 92.8462H45.4882V92.8442H45.4884ZM66.3896 83.4568C64.8099 84.9456 62.4701 85.6139 59.7357 85.6139C59.1287 85.6139 58.5812 85.5832 58.1571 85.522V92.8442H53.5681V72.6409C54.9966 72.3978 57.0015 72.2159 59.8268 72.2159C62.6827 72.2159 64.7182 72.7626 66.0855 73.8568C67.3914 74.8889 68.2723 76.5903 68.2723 78.5952C68.272 80.6008 67.6055 82.3021 66.3896 83.4568ZM4.76482 66.5852V3.92174H50.1901V23.9862C50.1901 25.0684 51.0672 25.9469 52.1509 25.9469H69.4706L69.4726 66.5852H4.76482Z" fill="#69A042"/>
<path d="M19.3628 77.9586C19.3628 76.4096 18.1786 75.5879 16.0814 75.5879C15.0795 75.5879 14.5021 75.6493 14.1067 75.7086V80.4793H15.6257C18.0571 80.4793 19.3628 79.477 19.3628 77.9586Z" fill="#69A042"/>
<path d="M45.4299 31.0996C44.708 31.0996 44.0417 31.2318 43.4826 31.4582C43.2565 31.2389 42.9484 31.0996 42.6093 31.0996H42.1027C41.4584 31.0996 40.9482 31.5898 40.8744 32.2131C39.3148 32.3768 38.1572 32.9398 38.1572 33.6152C38.1572 34.418 39.7849 35.0673 41.7934 35.0673C42.3812 35.0673 42.929 35.0056 43.4181 34.9102C43.9858 35.1533 44.6779 35.2995 45.4295 35.2995C47.3522 35.2995 48.9088 34.3574 48.9088 33.2C48.911 32.0408 47.3542 31.0996 45.4299 31.0996Z" fill="#69A042"/>
<path d="M24.1628 27.3848C22.5521 27.3848 21.25 28.6863 21.25 30.2914C21.25 31.8995 22.5521 33.2005 24.1628 33.2005C25.7685 33.2005 27.0706 31.8993 27.0706 30.2914C27.0706 28.6863 25.7685 27.3848 24.1628 27.3848Z" fill="#69A042"/>
<path d="M16.9775 18.8579V56.7747H54.8854V18.8579H16.9775ZM51.7547 45.3293C51.7547 46.7716 51.1993 48.0777 50.3014 49.0403C48.9054 45.4735 47.1935 41.5993 44.7712 42.2197C41.6999 43.0053 40.055 49.6746 39.8214 50.6894H39.7602C39.5274 49.5844 37.7515 41.7375 33.3991 37.3775C29.0362 33.0164 24.8001 48.4012 24.2284 50.5717C21.8757 50.0595 20.1095 47.9072 20.1095 45.3293V28.0892C20.1095 25.1313 22.437 22.7315 25.3107 22.7315H46.553C49.4261 22.7315 51.7545 25.1313 51.7545 28.0892V45.3293H51.7547Z" fill="#69A042"/>
</svg>
