<svg width="73" height="100" viewBox="0 0 73 100" fill="none" xmlns="http://www.w3.org/2000/svg">
<path d="M36.3833 73.9849H36.3126C35.9604 75.396 35.6075 77.1961 35.2193 78.5709L33.8086 83.6184H39.0669L37.5836 78.5709C37.1586 77.1596 36.7353 75.396 36.3833 73.9849Z" fill="#AEB1CF"/>
<path d="M57.8063 83.23H55.9719V89.9359C56.5003 90.0069 57.137 90.0069 58.0535 90.0069C60.4891 90.0069 62.6421 89.0876 62.6421 86.5831C62.6414 84.1839 60.489 83.23 57.8063 83.23Z" fill="#AEB1CF"/>
<path d="M62.0765 76.4554C62.0765 74.6555 60.6997 73.7007 58.266 73.7007C57.1009 73.7007 56.4299 73.7716 55.9719 73.8435V79.3818H57.7356C60.56 79.3831 62.0765 78.2187 62.0765 76.4554Z" fill="#AEB1CF"/>
<path d="M72.9218 23.9636C72.9162 23.505 72.7688 23.0522 72.4538 22.6942L53.1745 0.670629C53.1688 0.664428 53.1631 0.662604 53.1591 0.65695C53.0442 0.528551 52.9102 0.422768 52.7685 0.329387C52.7263 0.302212 52.684 0.277772 52.6401 0.252968C52.5175 0.186397 52.3891 0.131317 52.2532 0.0910101C52.2168 0.0804317 52.1845 0.0656586 52.148 0.0561745C52.0026 0.0215214 51.8511 0 51.6981 0H4.31373C2.15192 0 0.39209 1.75983 0.39209 3.92164V96.0785C0.39209 98.2413 2.15192 100 4.31373 100H69.0193C71.1811 100 72.9411 98.2413 72.9411 96.0785V24.1833C72.9413 24.1096 72.9295 24.0374 72.9218 23.9636ZM18.3125 89.6522C19.9363 89.6522 21.7362 89.2998 22.7952 88.8769L23.6046 93.0758C22.6166 93.57 20.3939 94.0982 17.5002 94.0982C9.27734 94.0982 5.04218 88.9808 5.04218 82.2074C5.04218 74.0902 10.8303 69.5724 18.0305 69.5724C20.8165 69.5724 22.9343 70.1374 23.8878 70.6313L22.795 74.9004C21.6998 74.4408 20.1832 74.0187 18.2784 74.0187C14.0088 74.0187 10.6899 76.594 10.6899 81.8875C10.6899 86.6536 13.5145 89.6522 18.3125 89.6522ZM41.6758 93.7462L39.8414 87.6416H33.0302L31.337 93.7462H25.7606L33.0293 69.9621H40.0863L47.4623 93.7462H41.6758ZM65.8177 91.8408C64.0889 93.2178 61.1936 93.9932 56.4658 93.9932C53.8195 93.9932 51.8434 93.817 50.6428 93.6408V70.2782C52.0542 69.9968 54.9131 69.7841 57.5958 69.7841C60.8777 69.7841 62.8883 70.102 64.6175 71.1263C66.2757 72.0072 67.4763 73.6308 67.4763 75.7831C67.4763 77.9008 66.2412 79.8771 63.5585 80.8651V80.9359C66.2757 81.6771 68.2883 83.7242 68.2883 86.7942C68.2881 88.9475 67.3002 90.6402 65.8177 91.8408ZM69.0195 66.5853H4.31373V3.92164H49.7372V23.986C49.7372 25.0684 50.6161 25.9468 51.6981 25.9468H69.0195V66.5853V66.5853Z" fill="#AEB1CF"/>
<path d="M49.7287 36.6919V25.668H21.6765V36.6929H20.0728L19.2911 27.9647L15.1785 36.6929L15.2766 59.2353H56.1806V36.6919L52.1003 28.0423L51.339 36.6919H49.7287ZM41.6912 44.8138H31.0295V40.0342H41.6912V44.8138ZM47.8319 36.6919H23.5747V27.2405H47.8319V36.6919Z" fill="#AEB1CF"/>
<path d="M47.5668 22.3438H24.0928V23.9163H47.5668V22.3438Z" fill="#AEB1CF"/>
<path d="M45.314 19.2471H26.2854V20.8198H45.314V19.2471Z" fill="#AEB1CF"/>
<path d="M40.8334 41.0552H31.9688V42.4501H40.8334V41.0552Z" fill="#AEB1CF"/>
</svg>
