<svg width="73" height="100" viewBox="0 0 73 100" fill="none" xmlns="http://www.w3.org/2000/svg">
<path d="M34.3695 75.1255H34.3025C33.9637 76.4861 33.6253 78.2179 33.2499 79.5431L31.8918 84.4047H36.9543L35.5264 79.5431C35.1173 78.1845 34.7094 76.4861 34.3695 75.1255Z" fill="#7A5648"/>
<path d="M55.6526 75.0576C54.4979 75.0576 53.7501 75.16 53.3069 75.2624V90.2518C53.7491 90.3533 54.4634 90.3533 55.1086 90.3533C59.8 90.3878 62.858 87.8047 62.858 82.3321C62.8924 77.5736 60.1062 75.0576 55.6526 75.0576Z" fill="#7A5648"/>
<path d="M72.5298 23.9636C72.524 23.5059 72.3786 23.0521 72.0636 22.694L52.782 0.669752C52.7782 0.663397 52.7724 0.661582 52.7668 0.655772C52.6519 0.527595 52.5199 0.422657 52.3781 0.328431C52.336 0.302105 52.2937 0.276688 52.2497 0.251815C52.1252 0.185185 51.9968 0.131082 51.8628 0.0909584C51.8265 0.0795205 51.794 0.0646331 51.7575 0.0551923C51.6103 0.0206971 51.4591 0 51.3076 0H3.92156C1.75962 0 0 1.7598 0 3.92174V96.0784C0 98.2402 1.75962 100 3.92156 100H68.6273C70.7893 100 72.5491 98.2404 72.5491 96.0784V24.1833C72.5489 24.1087 72.5374 24.0364 72.5298 23.9636ZM16.9638 90.217C18.5303 90.217 20.2627 89.8771 21.2834 89.4693L22.0646 93.5153C21.1129 93.9902 18.9726 94.5006 16.1841 94.5006C8.26288 94.5006 4.18427 89.5719 4.18427 83.0451C4.18427 75.2259 9.75888 70.8764 16.6939 70.8764C19.3785 70.8764 21.4197 71.4213 22.3373 71.8951L21.2841 76.0071C20.2289 75.5656 18.7685 75.1598 16.9332 75.1598C12.8186 75.1598 9.62235 77.6384 9.62235 82.7377C9.62162 87.3275 12.3429 90.217 16.9638 90.217ZM39.4703 94.1607L37.7011 88.2783H31.1414L29.5119 94.1607H24.1403L31.1414 71.2499H37.9415L45.0446 94.1607H39.4703ZM64.5583 91.4406C62.1439 93.4474 58.473 94.3991 53.9866 94.3991C51.3029 94.3991 49.3986 94.2286 48.1061 94.0581V71.5571C50.0093 71.2499 52.4919 71.0803 55.1096 71.0803C59.461 71.0803 62.2795 71.8617 64.4894 73.5275C66.8702 75.2967 68.365 78.1171 68.365 82.1632C68.365 86.5463 66.768 89.5717 64.5583 91.4406ZM3.92156 66.5852V3.92174H49.3469V23.9872C49.3469 25.0697 50.2239 25.948 51.3076 25.948H68.6273L68.6293 66.5865H3.92156V66.5852Z" fill="#7A5648"/>
<path d="M45.324 48.7091L41.3164 37.8099H43.5415V39.5677H44.627V34.9647H43.5415V36.7245H40.9162L38.3196 29.6646C38.5972 29.0385 38.7561 28.3511 38.7561 27.6234C38.7561 25.0619 36.8453 22.9666 34.3765 22.6314V16.6274H33.0165V22.6303C30.5448 22.9655 28.6354 25.0608 28.6354 27.6223C28.6354 28.649 28.9431 29.6027 29.4725 30.4007L27.1441 36.7234H24.4155V34.9638H23.3302V39.5666H24.4155V37.8088H26.7458L22.7382 48.708L22.9932 51.7752L21.502 58.4197L24.8569 52.5411L27.2676 50.2817L34.0303 32.9698L40.7971 50.2817L43.2062 52.5411L46.5609 58.4197L45.0693 51.7752L45.324 48.7091ZM33.7757 31.1305C31.8413 31.1305 30.2754 29.5642 30.2754 27.6345C30.2754 25.7019 31.8422 24.1365 33.7757 24.1365C35.7078 24.1365 37.2741 25.703 37.2741 27.6345C37.2741 29.5651 35.7078 31.1305 33.7757 31.1305Z" fill="#7A5648"/>
<path d="M33.7755 29.408C34.7285 29.408 35.501 28.6355 35.501 27.6825C35.501 26.7296 34.7285 25.957 33.7755 25.957C32.8226 25.957 32.05 26.7296 32.05 27.6825C32.05 28.6355 32.8226 29.408 33.7755 29.408Z" fill="#7A5648"/>
</svg>
