<svg width="74" height="100" viewBox="0 0 74 100" fill="none" xmlns="http://www.w3.org/2000/svg">
<path d="M34.5492 74.2471C33.4042 74.2471 32.6625 74.3487 32.2246 74.45V89.3033C32.6625 89.4048 33.3715 89.4048 34.0106 89.4048C38.6578 89.4375 41.6888 86.8783 41.6888 81.4555C41.7237 76.7403 38.9624 74.2471 34.5492 74.2471Z" fill="#AEB1CF"/>
<path d="M57.9286 74.1157C56.6821 74.1157 55.9755 74.2181 55.604 74.2844V80.5516H57.6251C60.1853 80.5516 61.6999 79.2688 61.6999 77.2829C61.7009 75.1918 60.2859 74.1482 57.9286 74.1157Z" fill="#AEB1CF"/>
<path d="M73.0789 23.9626C73.0731 23.5041 72.9257 23.0521 72.6098 22.6931L53.3311 0.668844C53.3255 0.663579 53.3199 0.660674 53.3159 0.655954C53.2009 0.526687 53.0669 0.421931 52.9253 0.328612C52.8832 0.301379 52.8411 0.275962 52.797 0.251997C52.6744 0.184459 52.5461 0.130537 52.4103 0.0902322C52.3738 0.0797021 52.3413 0.0639069 52.305 0.0561001C52.1594 0.0206971 52.0081 0 51.8549 0H4.47063C2.30869 0 0.549072 1.75889 0.549072 3.92174V96.0784C0.549072 98.2402 2.30869 100 4.47063 100H69.1764C71.3383 100 73.0981 98.2404 73.0981 96.0784V24.1824C73.098 24.1087 73.0865 24.0364 73.0789 23.9626ZM18.648 89.2731C20.197 89.2731 21.9165 88.9361 22.9258 88.5302L23.7012 92.5398C22.7567 93.0109 20.6351 93.5163 17.8744 93.5163C10.0255 93.5163 5.98334 88.6316 5.98334 82.1652C5.98334 74.416 11.508 70.1057 18.3804 70.1057C21.04 70.1057 23.0616 70.6438 23.9717 71.1157L22.9267 75.1914C21.8835 74.7548 20.4356 74.3508 18.6169 74.3508C14.5401 74.3508 11.3746 76.8094 11.3746 81.8606C11.3737 86.4083 14.0677 89.2731 18.648 89.2731ZM43.374 90.4833C40.9844 92.4728 37.3462 93.4147 32.898 93.4147C30.2384 93.4147 28.3517 93.2462 27.0717 93.0779V70.7796C28.9579 70.4741 31.4165 70.3085 34.0105 70.3085C38.3208 70.3085 41.1164 71.083 43.307 72.7328C45.6641 74.4848 47.1461 77.2824 47.1461 81.2902C47.1463 85.6349 45.5628 88.6316 43.374 90.4833ZM62.4073 93.1792C62.0379 92.5398 61.4998 90.6861 60.8258 87.8904C60.2187 85.0583 59.2441 84.284 57.1532 84.2522H55.6062V93.1772H50.5203V70.7796C52.171 70.5115 54.6285 70.3085 57.3582 70.3085C60.7272 70.3085 63.0844 70.812 64.7015 72.093C66.0475 73.1711 66.7886 74.7546 66.7886 76.8417C66.7886 79.739 64.733 81.7264 62.7808 82.435V82.5347C64.3636 83.1741 65.2396 84.6897 65.812 86.7798C66.5214 89.3401 67.2271 92.3041 67.6666 93.1792H62.4073ZM4.47063 66.5843V3.92174H49.8939V23.9852C49.8939 25.0677 50.773 25.946 51.8549 25.946H69.1764V66.5845H4.47063V66.5843Z" fill="#AEB1CF"/>
<path d="M31.9291 50.5557L24.3177 42.9415L41.6967 25.5624L40.4731 24.3398L21.8725 42.9422L21.8845 42.9542C21.6911 43.1365 21.547 43.3696 21.488 43.6258L19.0428 54.2243C18.9399 54.6762 19.0715 55.1443 19.4009 55.4727C19.7302 55.8011 20.1979 55.9362 20.6488 55.8309L31.248 53.3846C31.4931 53.328 31.7175 53.2056 31.895 53.0264C31.9046 53.0159 31.9146 53.0045 31.9233 52.9928L31.9291 53.0006L50.5317 34.3981L49.3082 33.1755L31.9291 50.5557ZM30.9531 52.1087L24.2685 53.6521L21.2224 50.6056L22.7658 43.921C22.7658 43.9162 22.7696 43.9104 22.7734 43.9066L22.7874 43.8985C22.797 43.8965 22.8079 43.8994 22.8155 43.9066L30.9684 52.0589C30.9765 52.0666 30.9803 52.078 30.9765 52.0876L31.0363 52.1067L31.0608 52.1316L30.9531 52.1087ZM45.5034 29.372L29.8999 44.9749L27.3881 42.4633L42.991 26.8593L45.5034 29.372Z" fill="#AEB1CF"/>
</svg>
