<svg width="73" height="100" viewBox="0 0 73 100" fill="none" xmlns="http://www.w3.org/2000/svg">
<path d="M53.6405 75.1206C52.4687 75.1206 51.8043 75.2162 51.4548 75.2796V81.1675H53.3555C55.762 81.1675 57.1868 79.9649 57.1868 78.0973C57.1868 76.1347 55.856 75.1523 53.6405 75.1206Z" fill="#AEB1CF"/>
<path d="M72.6279 23.9652C72.6222 23.5059 72.4769 23.0533 72.1617 22.6951L52.8794 0.670629C52.8756 0.664975 52.8699 0.662969 52.8632 0.657315C52.7492 0.528369 52.6161 0.422586 52.4752 0.329934C52.4333 0.302212 52.391 0.277772 52.347 0.25315C52.2225 0.186397 52.0941 0.131682 51.9591 0.0913748C51.9228 0.0804317 51.8914 0.0660233 51.855 0.0559922C51.7085 0.0215214 51.5571 0 51.405 0H4.01979C1.85798 0 0.0981445 1.7602 0.0981445 3.92164V96.0785C0.0981445 98.2413 1.85798 100 4.01979 100H68.7256C70.889 100 72.6472 98.2413 72.6472 96.0785V24.1848C72.6472 24.1111 72.6359 24.0374 72.6279 23.9652ZM21.8598 89.3671C23.3168 89.3671 24.9315 89.0503 25.8813 88.6701L26.6091 92.4383C25.7225 92.8817 23.7277 93.3575 21.1326 93.3575C13.7571 93.3575 9.95623 88.7667 9.95623 82.688C9.95623 75.4061 15.1493 71.3533 21.6081 71.3533C24.1087 71.3533 26.0079 71.8617 26.8619 72.303L25.8815 76.1348C24.8992 75.7222 23.5372 75.3428 21.8299 75.3428C17.9981 75.3428 15.0231 77.6533 15.0231 82.403C15.0218 86.6768 17.5529 89.3671 21.8598 89.3671ZM43.3848 93.0406H29.7718V71.7028H42.9425V75.6605H34.6148V80.0923H42.4676V84.0171H34.6148V89.0824H43.3848V93.0406V93.0406ZM57.8512 93.0406C57.5027 92.4381 56.9971 90.6975 56.3635 88.0697C55.7928 85.4108 54.8749 84.6813 52.9121 84.6507H51.4548V93.0415H46.6754V71.988C48.2264 71.7334 50.5369 71.5436 53.1025 71.5436C56.2678 71.5436 58.4821 72.0185 60.0036 73.2212C61.2709 74.2358 61.9664 75.7229 61.9664 77.6861C61.9664 80.4073 60.0353 82.2762 58.1999 82.9388V83.0373C59.6877 83.6379 60.51 85.0623 61.0483 87.025C61.7134 89.4301 62.376 92.216 62.7877 93.0413H57.8512V93.0406ZM4.01979 66.586V3.92255H49.4451V23.9876C49.4451 25.0701 50.3222 25.9483 51.4059 25.9483H68.7256L68.7274 66.586H4.01979Z" fill="#AEB1CF"/>
<path d="M51.8645 27.548C51.8645 26.3795 51.2518 25.3598 50.3337 24.7743C50.8745 23.889 50.9934 22.7666 50.5473 21.744L49.9987 20.4861C49.6521 19.69 49.0238 19.1078 48.2828 18.7872C48.2483 17.996 47.9379 17.2137 47.3331 16.6088L46.3623 15.6383C45.5831 14.859 44.5089 14.5589 43.4977 14.7245C43.2931 13.6503 42.567 12.699 41.4747 12.2696L40.1964 11.7655C39.2947 11.4137 38.3392 11.4941 37.533 11.8925C36.9609 11.409 36.2334 11.1069 35.425 11.1069H34.0508C33.0363 11.1069 32.1403 11.5766 31.5353 12.2985C30.6296 11.6765 29.4381 11.5138 28.3591 11.9864L27.1012 12.5326C26.1489 12.9492 25.5079 13.763 25.2529 14.6926C24.4735 14.7368 23.7081 15.0446 23.1139 15.6387L22.1432 16.6091C21.4677 17.2841 21.1571 18.1787 21.1892 19.0633C20.1767 19.3031 19.2935 20.0161 18.8836 21.06L18.3797 22.3367C17.998 23.3114 18.1244 24.3506 18.6108 25.1907C17.996 25.7867 17.6099 26.6221 17.6099 27.5484V28.9199C17.6099 29.8908 18.0354 30.7534 18.7033 31.3542C18.2666 32.2045 18.1862 33.2308 18.6004 34.1748L19.1485 35.4327C19.5462 36.3505 20.3179 36.979 21.205 37.2505C21.1246 38.1849 21.4275 39.1446 22.1434 39.8585L23.1141 40.8288C23.8494 41.5669 24.8494 41.8673 25.8121 41.7586C26.1312 42.5919 26.7767 43.2957 27.6728 43.6484L27.8719 43.7281L18.9285 58.7278L25.7353 54.9957C25.7353 54.9957 27.4931 66.0845 27.4931 65.7562C27.4931 65.491 31.5616 50.8712 33.1385 45.2268C33.4275 45.3131 33.7336 45.3628 34.0519 45.3628H34.6244L41.3263 63.2315V53.8988L47.804 58.2903L41.938 43.4347L42.0474 43.3878C42.8085 43.054 43.3704 42.462 43.7007 41.7649C44.6504 41.8632 45.6366 41.5619 46.3643 40.8313L47.3351 39.861C48.1719 39.0248 48.4553 37.8524 48.2024 36.7787C49.1121 36.4858 49.8894 35.819 50.2648 34.862L50.7685 33.5846C51.0632 32.8308 51.0481 32.0396 50.8088 31.3287C51.4541 30.727 51.8657 29.8749 51.8657 28.9207V27.5482H51.8645V27.548ZM34.7393 39.9551C28.2646 39.9551 23.0187 34.7072 23.0187 28.2356C23.0187 21.7619 28.2657 16.5159 34.7393 16.5159C41.2112 16.5159 46.4579 21.763 46.4579 28.2356C46.4579 34.7072 41.2114 39.9551 34.7393 39.9551Z" fill="#AEB1CF"/>
</svg>
