<svg width="74" height="100" viewBox="0 0 74 100" fill="none" xmlns="http://www.w3.org/2000/svg">
<path d="M73.1773 23.9646C73.1715 23.5059 73.026 23.053 72.7111 22.6951L53.4295 0.67066C53.4257 0.665031 53.4199 0.663034 53.4142 0.656862C53.2993 0.528503 53.1673 0.422657 53.0255 0.329339C52.9834 0.302105 52.9411 0.277596 52.8972 0.252723C52.7726 0.186274 52.6443 0.131626 52.5103 0.0913215C52.474 0.0802468 52.4415 0.0653594 52.405 0.0559186C52.2577 0.0216049 52.1083 0 51.9551 0H4.56902C2.40708 0 0.647461 1.7598 0.647461 3.92174V96.0784C0.647461 98.2413 2.40708 100 4.56902 100H69.2748C71.4385 100 73.1965 98.2413 73.1965 96.0784V24.1833C73.1963 24.1102 73.1849 24.0374 73.1773 23.9646ZM20.9139 89.4857C22.4406 89.4857 24.1347 89.1543 25.1309 88.756L25.8945 92.7083C24.9662 93.1736 22.8729 93.6705 20.1505 93.6705C12.4121 93.6705 8.42613 88.8548 8.42613 82.4784C8.42613 74.8403 13.8742 70.5894 20.6483 70.5894C23.2721 70.5894 25.2651 71.1208 26.161 71.5859L25.1309 75.6053C24.102 75.1745 22.6737 74.7742 20.88 74.7742C16.8622 74.7742 13.7397 77.1994 13.7397 82.1809C13.7397 86.6632 16.3965 89.4857 20.9139 89.4857ZM42.8999 75.1072H34.2995V80.2206H42.3371V84.3384H34.2995V93.3391H29.2191V70.9558H42.8999V75.1072ZM65.4202 92.3099C63.8596 92.8402 60.9032 93.5717 57.9467 93.5717C53.8623 93.5717 50.9077 92.5416 48.8474 90.5483C46.789 88.622 45.6592 85.701 45.6937 82.4123C45.7264 74.9732 51.1396 70.7223 58.4791 70.7223C61.3685 70.7223 63.5936 71.286 64.6887 71.8185L63.6259 75.8693C62.3986 75.3388 60.8696 74.9062 58.4119 74.9062C54.1953 74.9062 51.0072 77.2978 51.0072 82.1471C51.0072 86.7638 53.8968 89.4857 58.048 89.4857C59.2104 89.4857 60.1392 89.3535 60.5373 89.1543V84.4717H57.0849V80.5204H65.42V92.3099H65.4202ZM4.56902 66.5852V3.92174H49.9943V23.9862C49.9943 25.0684 50.8714 25.9469 51.9551 25.9469H69.2748L69.2768 66.5852H4.56902Z" fill="#AEB1CF"/>
<path d="M52.2578 43.9961L54.3259 37.0894C54.3967 36.851 54.4101 36.6112 54.3774 36.3784L54.9118 34.7374C54.994 34.4665 54.8831 34.2223 54.6848 34.0197C54.7108 33.9674 54.7471 33.9255 54.7671 33.8675C54.8974 33.4531 54.6647 33.0115 54.2482 32.8813L53.5492 32.6617C53.1358 32.5353 52.6914 32.7644 52.563 33.1796C52.5486 33.2208 52.5545 33.263 52.5486 33.3042C52.2921 33.3434 52.0835 33.4531 52.0029 33.7087L51.5185 35.4138C51.3252 35.6048 51.1719 35.8405 51.0897 36.1199L49.0198 43.0266C48.9125 43.3842 48.9355 43.7481 49.0525 44.0754L46.2376 53.9548C46.0519 54.5647 45.6957 57.2733 46.3065 57.4601C46.9174 57.6449 48.2616 55.2408 48.4473 54.6299L51.6144 44.8791C51.9112 44.6725 52.1449 44.3717 52.2578 43.9961Z" fill="#AEB1CF"/>
<path d="M15.8555 24.3061L40.7534 15.0298L48.9144 36.9335C49.0253 36.65 49.1613 36.3776 49.3414 36.1287L49.7131 34.8275C49.7857 34.5926 49.891 34.3794 50.0155 34.1837L41.9253 12.4683L13.2925 23.1358L27.1806 60.4103L44.2354 54.0559L44.9124 51.6759L28.3493 57.8473L15.8555 24.3061Z" fill="#AEB1CF"/>
<path d="M54.109 45.1685L53.7913 46.2313C53.6286 46.7727 53.3489 47.258 52.9716 47.6648L52.9429 47.7491L53.2494 48.5695L52.5994 48.8128L51.8113 51.2322L55.8133 49.7409L54.109 45.1685Z" fill="#AEB1CF"/>
<path d="M38.4078 35.0757C38.5765 34.8865 38.8023 34.7741 39.0436 34.7574L39.2139 34.7463L39.4093 34.808C39.5625 34.8641 39.6889 34.85 39.798 34.7941C39.9149 34.7367 40.0066 34.6294 40.0449 34.5092C40.1549 34.1603 40.4529 33.921 40.808 33.874L40.764 33.2071C40.7582 33.1372 40.7074 33.0746 40.6415 33.0521C39.9167 32.8237 39.3096 32.3033 38.9736 31.6236C38.6366 30.9424 38.5907 30.1407 38.8472 29.4268C38.8721 29.3618 38.8539 29.2846 38.8013 29.2392L37.188 27.8298C37.0979 27.7512 37.0415 27.7825 36.9937 27.8068C36.3269 28.1563 35.5229 28.2209 34.8031 27.9749C34.0836 27.7336 33.4875 27.1984 33.162 26.5101C33.1337 26.4484 33.0658 26.4081 32.9935 26.413L30.8599 26.5561C30.7895 26.559 30.7277 26.6093 30.7052 26.6737C30.4779 27.399 29.9561 28.0079 29.2768 28.3435C28.5994 28.6813 27.7924 28.7269 27.0785 28.466C27.0346 28.4522 26.9698 28.4286 26.8913 28.5167L25.4805 30.1285C25.4345 30.1826 25.4246 30.261 25.46 30.3229C25.8098 30.9963 25.8717 31.7944 25.6284 32.5139C25.3852 33.2325 24.853 33.8295 24.1637 34.153C24.099 34.1828 24.0607 34.2492 24.0636 34.3215L24.2072 36.4589C24.2111 36.5288 24.259 36.5882 24.3254 36.6112C25.0513 36.8394 25.658 37.3609 25.9972 38.0406C26.3327 38.7198 26.3768 39.5235 26.1177 40.2374C26.0952 40.303 26.1139 40.3796 26.168 40.4246L27.7802 41.8362C27.8688 41.9128 27.9276 41.8817 27.9736 41.8567C28.3169 41.6777 28.6913 41.5724 29.0803 41.546C29.4518 41.5226 29.8156 41.5677 30.1657 41.6891C30.8852 41.9324 31.4817 42.4645 31.8053 43.153C31.8354 43.2156 31.9029 43.255 31.9737 43.251L34.1088 43.1089C34.1816 43.1036 34.2414 43.0558 34.2621 42.9901C34.4914 42.2645 35.0108 41.6564 35.6923 41.3204C36.3568 40.993 37.1304 40.9433 37.8274 41.1764C37.8312 41.0873 37.8485 40.9949 37.8791 40.9079C37.9251 40.7815 37.9175 40.6421 37.8601 40.5263C37.8043 40.4148 37.699 40.3233 37.5747 40.285C37.2052 40.1639 36.9523 39.8404 36.9276 39.4567L36.8612 38.4447C36.8347 38.0628 37.0416 37.7085 37.3871 37.5419C37.5097 37.4831 37.6034 37.3801 37.6437 37.2594C37.684 37.1388 37.6724 36.9994 37.6161 36.8879C37.4389 36.5457 37.4915 36.1281 37.7406 35.8409L38.4078 35.0757ZM32.761 38.9849C30.4708 39.1366 28.4837 37.3975 28.3316 35.1074C28.1769 32.8184 29.9153 30.8278 32.2072 30.6752C34.4993 30.5219 36.4868 32.2636 36.6397 34.5535C36.7927 36.8436 35.0536 38.8316 32.761 38.9849Z" fill="#AEB1CF"/>
<path d="M45.2952 37.6252C44.9525 37.5165 44.6652 37.2696 44.5062 36.9479C44.3453 36.6242 44.3234 36.246 44.4459 35.9067C44.4583 35.8765 44.4479 35.8402 44.424 35.8177L43.662 35.1488C43.6179 35.1114 43.5892 35.1283 43.5679 35.1369C43.254 35.303 42.8689 35.3342 42.5302 35.2182C42.1883 35.1029 41.9051 34.8496 41.7518 34.5232C41.7384 34.494 41.7057 34.4744 41.6741 34.4762L40.6613 34.5446C40.6286 34.5475 40.5981 34.5695 40.5903 34.6006C40.4811 34.9439 40.2342 35.234 39.9125 35.3929C39.591 35.5528 39.2099 35.5742 38.8728 35.4508C38.8497 35.4435 38.819 35.4321 38.7827 35.4742L38.1117 36.2358C38.0915 36.2612 38.0857 36.3004 38.1002 36.3302C38.2687 36.6485 38.2945 37.0272 38.1825 37.3685C38.0658 37.7093 37.815 37.9918 37.4895 38.1448C37.4588 38.1583 37.4368 38.1908 37.4388 38.2247L37.5077 39.2367C37.5097 39.2703 37.5327 39.2984 37.5661 39.3086C37.9089 39.4174 38.1979 39.6643 38.355 39.9858C38.516 40.3072 38.54 40.6877 38.4172 41.027C38.406 41.0581 38.4154 41.0926 38.4374 41.116L39.2034 41.7855C39.2453 41.822 39.2713 41.8062 39.2932 41.7952C39.4559 41.7109 39.6351 41.6603 39.8197 41.6483C39.994 41.6369 40.1674 41.6612 40.3303 41.7164C40.672 41.8298 40.9574 42.0849 41.1075 42.4105C41.1219 42.4406 41.1554 42.4584 41.1879 42.4564L42.1988 42.3885C42.2315 42.3865 42.2622 42.3649 42.2716 42.3338C42.3807 41.9887 42.6258 41.7006 42.9494 41.5415C43.2709 41.3818 43.6522 41.3611 43.991 41.4827C44.012 41.4903 44.0427 41.5005 44.079 41.4613L44.7473 40.6968C44.7684 40.6719 44.7724 40.6345 44.7597 40.6044C44.5932 40.2855 44.5625 39.9063 44.6794 39.565C44.7932 39.2227 45.0452 38.9417 45.3724 38.7886C45.4022 38.7728 45.4221 38.7427 45.4203 38.7091L45.3544 37.6975C45.3508 37.6645 45.3279 37.6354 45.2952 37.6252ZM41.5614 40.4362C40.4775 40.5096 39.5356 39.6842 39.4619 38.5991C39.392 37.5158 40.2135 36.5717 41.3001 36.498C42.3829 36.4281 43.3259 37.252 43.3996 38.3371C43.4722 39.4224 42.6489 40.3634 41.5614 40.4362Z" fill="#AEB1CF"/>
</svg>
