<svg width="73" height="100" viewBox="0 0 73 100" fill="none" xmlns="http://www.w3.org/2000/svg">
<path d="M72.7261 23.9651C72.7205 23.5059 72.5749 23.0532 72.2599 22.6951L52.9774 0.67066C52.9736 0.665031 52.9678 0.663034 52.9613 0.657225C52.8472 0.528503 52.7142 0.422657 52.5735 0.329883C52.5313 0.302105 52.489 0.277596 52.4451 0.253268C52.3206 0.186274 52.1922 0.131626 52.0573 0.0913215C52.021 0.0802468 51.9894 0.0653594 51.9529 0.0559186C51.8066 0.0216049 51.6553 0 51.503 0H4.11785C1.95609 0 0.196289 1.76016 0.196289 3.92174V96.0784C0.196289 98.2413 1.95591 100 4.11785 100H68.8236C70.9874 100 72.7452 98.2413 72.7452 96.0784V24.1842C72.7452 24.1111 72.7337 24.0374 72.7261 23.9651ZM19.6619 89.026C21.0483 89.026 22.5855 88.7233 23.4873 88.3635L24.1805 91.947C23.3384 92.3693 21.4384 92.821 18.9708 92.821C11.951 92.821 8.33353 88.4534 8.33353 82.6696C8.33353 75.739 13.2756 71.8824 19.4208 71.8824C21.8034 71.8824 23.608 72.365 24.4228 72.7882L23.4875 76.432C22.5555 76.0414 21.2591 75.6794 19.6325 75.6794C15.9866 75.6794 13.1552 77.8775 13.1552 82.3985C13.1551 86.465 15.5637 89.026 19.6619 89.026ZM39.6034 75.9803H31.8001V80.62H39.0922V84.3568H31.8001V92.5207H27.1915V72.2159H39.6034V75.9803ZM60.1188 92.5205L59.8164 84.7464C59.7254 82.3078 59.6354 79.3542 59.6354 76.4015H59.5464C58.9126 78.9942 58.07 81.8856 57.287 84.2656L54.8158 92.1892H51.2292L49.0599 84.3252C48.3974 81.9461 47.706 79.0536 47.2234 76.4035H47.1612C47.0406 79.1456 46.9506 82.2782 46.802 84.8096L46.4402 92.5207H42.1913L43.4867 72.2159H49.6027L51.5903 78.9944C52.2242 81.3437 52.8561 83.8753 53.3079 86.2533H53.3979C53.9703 83.904 54.6637 81.2212 55.3262 78.9626L57.4956 72.2148H63.4908L64.6052 92.5196H60.1188V92.5205V92.5205ZM4.11785 66.5863V3.92247H49.5433V23.9876C49.5433 25.0699 50.4202 25.9484 51.5041 25.9484H68.8236L68.8256 66.5863H4.11785V66.5863Z" fill="#AEB1CF"/>
<path d="M19.863 39.715C22.6995 39.6747 23.025 38.1344 23.025 36.8373C23.025 35.7832 22.9024 34.6894 22.7819 33.5942C22.6192 32.4597 22.4985 31.3658 22.4985 30.3117C22.4985 26.5022 24.9298 24.8818 28.5353 24.8818H29.7111V27.7999H28.9816C26.8739 27.7999 26.1433 28.9748 26.1433 30.9608C26.1433 31.7718 26.2659 32.6224 26.4287 33.5138C26.5092 34.4052 26.6718 35.3775 26.6718 36.4316C26.7122 39.2689 25.4967 40.4842 23.4277 40.9706V41.0519C25.4957 41.5383 26.7122 42.7939 26.6718 45.6313C26.6718 46.7257 26.5092 47.6984 26.4287 48.5902C26.2661 49.4816 26.1433 50.3322 26.1433 51.1432C26.1433 53.1681 26.9553 54.3438 28.9816 54.3438H29.7111V57.2227H28.5353C25.0101 57.2227 22.4985 55.7647 22.4985 51.6708C22.4985 50.6577 22.6192 49.5229 22.7819 48.4285C22.9024 47.3346 23.025 46.2805 23.025 45.2269C23.025 44.0512 22.6995 42.3896 19.863 42.3486V39.715Z" fill="#AEB1CF"/>
<path d="M50.2594 42.3476C47.4609 42.3888 47.0971 44.0493 47.0971 45.226C47.0971 46.2786 47.2597 47.3327 47.3805 48.4275C47.503 49.5208 47.6639 50.6559 47.6639 51.6698C47.6639 55.7637 45.1506 57.2218 41.6265 57.2218H40.4517V54.3429H41.1804C43.2062 54.3027 43.9769 53.1691 43.9769 51.1423C43.9769 50.3313 43.8563 49.4807 43.7336 48.5892C43.6131 47.6984 43.4905 46.7256 43.4905 45.6303C43.4502 42.7931 44.6662 41.5373 46.692 41.0509V40.9696C44.6662 40.4832 43.4504 39.2679 43.4905 36.4306C43.4905 35.3774 43.6131 34.4052 43.7336 33.5128C43.8563 32.6216 43.9769 31.7708 43.9769 30.9598C43.9769 28.9745 43.2472 27.8393 41.1804 27.799H40.4517V24.8809H41.6265C45.2331 24.8809 47.6639 26.5012 47.6639 30.3108C47.6639 31.364 47.503 32.4578 47.3805 33.5933C47.2599 34.6875 47.0971 35.7813 47.0971 36.8364C47.0971 38.1323 47.4609 39.6737 50.2594 39.714V42.3476Z" fill="#AEB1CF"/>
</svg>
