<svg width="74" height="100" viewBox="0 0 74 100" fill="none" xmlns="http://www.w3.org/2000/svg">
<path d="M73.2749 23.9646C73.2693 23.5059 73.1237 23.053 72.8087 22.6951L53.5262 0.67066C53.5224 0.664487 53.5166 0.66249 53.5101 0.656862C53.3961 0.528503 53.263 0.422657 53.1223 0.329339C53.0802 0.302105 53.0379 0.277233 52.9939 0.252723C52.8694 0.186274 52.741 0.131082 52.6061 0.0907769C52.5698 0.0802468 52.5382 0.0653594 52.5017 0.0559186C52.3554 0.0216049 52.2042 0 52.0519 0H4.66668C2.50492 0 0.745117 1.7598 0.745117 3.92174V96.0784C0.745117 98.2413 2.50474 100 4.66668 100H69.3724C71.5362 100 73.294 98.2413 73.294 96.0784V24.1842C73.294 24.1096 73.2826 24.0374 73.2749 23.9646ZM24.7667 89.7469C26.4264 89.7469 28.2683 89.386 29.3507 88.9532L30.1822 93.2482C29.1717 93.7536 26.8959 94.2956 23.9379 94.2956C15.5265 94.2956 11.1948 89.0605 11.1948 82.1308C11.1948 73.8272 17.1155 69.2065 24.4786 69.2065C27.3317 69.2065 29.4972 69.7856 30.4715 70.2894L29.3507 74.6573C28.2325 74.1881 26.6795 73.7553 24.7302 73.7553C20.3626 73.7553 16.9693 76.3902 16.9693 81.8052C16.9686 86.6794 19.8571 89.7469 24.7667 89.7469ZM53.0295 92.8146C51.3329 93.392 48.1218 94.1866 44.9088 94.1866C40.4684 94.1866 37.2549 93.0665 35.0168 90.9007C32.7805 88.8068 31.553 85.6302 31.5893 82.0561C31.6238 73.9697 37.5081 69.3494 45.4852 69.3494C48.6256 69.3494 51.0459 69.9641 52.2369 70.5405L51.0802 74.9447C49.7456 74.3682 48.0854 73.8991 45.4142 73.8991C40.8302 73.8991 37.3649 76.4975 37.3649 81.7671C37.3649 86.786 40.5047 89.7451 45.0161 89.7451C46.2799 89.7451 47.2908 89.6026 47.7245 89.3842V84.2947H43.9713V79.9999H53.0302V92.8148H53.0295V92.8146ZM62.8458 93.9337H57.3214V69.605H62.8458V93.9337ZM4.66668 66.5863V3.92247H50.0922V23.9871C50.0922 25.0695 50.9691 25.9478 52.0529 25.9478H69.3724L69.3744 66.5863H4.66668V66.5863Z" fill="#AEB1CF"/>
<path d="M50.7902 45.4716L52.8574 38.5648C52.9282 38.3266 52.9416 38.0866 52.91 37.854L53.4442 36.2129C53.5264 35.9421 53.4164 35.6984 53.2172 35.4954C53.2432 35.4433 53.2795 35.401 53.2997 35.3431C53.4298 34.9286 53.1962 34.4873 52.7808 34.3569L52.0818 34.1372C51.6682 34.0109 51.2238 34.2402 51.0956 34.6552C51.0812 34.6964 51.088 34.7384 51.0812 34.7797C50.8247 34.819 50.6159 34.9286 50.5355 35.1843L50.0509 36.8894C49.8578 37.0806 49.7034 37.3161 49.6212 37.5956L47.5522 44.5023C47.4451 44.8598 47.4671 45.2236 47.584 45.5512L44.7692 55.4308C44.5842 56.0397 44.2272 58.749 44.838 58.9369C45.4489 59.1207 46.7931 56.7158 46.9789 56.1067L50.1459 46.3551C50.4447 46.1481 50.6782 45.8474 50.7902 45.4716Z" fill="#AEB1CF"/>
<path d="M14.3884 25.7812L39.2869 16.5049L47.4468 38.4086C47.5579 38.1252 47.6939 37.8529 47.8748 37.604L48.2462 36.3028C48.319 36.0677 48.4243 35.8547 48.5489 35.6588L40.4577 13.9419L11.8254 24.6109L25.7138 61.8855L42.7682 55.5301L43.4459 53.151L26.8828 59.3225L14.3884 25.7812Z" fill="#AEB1CF"/>
<path d="M52.6427 46.6436L52.3248 47.7064C52.1621 48.2478 51.8825 48.7332 51.5053 49.1401L51.4766 49.2243L51.7831 50.045L51.132 50.2881L50.345 52.7075L54.3469 51.2158L52.6427 46.6436Z" fill="#AEB1CF"/>
<path d="M36.9413 36.5512C37.1098 36.3621 37.3353 36.2497 37.5766 36.233L37.7469 36.2219L37.9423 36.2836C38.096 36.3397 38.2222 36.3258 38.3306 36.2698C38.4473 36.2125 38.5392 36.1052 38.5775 35.985C38.6884 35.636 38.9853 35.3967 39.3415 35.3497L39.2965 34.6829C39.2908 34.6135 39.2409 34.5503 39.1739 34.5278C38.4492 34.2996 37.8422 33.7791 37.5071 33.0994C37.1696 32.4182 37.1236 31.6162 37.3807 30.9026C37.4052 30.8379 37.3863 30.7604 37.3342 30.7154L35.7215 29.3054C35.6314 29.227 35.5746 29.258 35.5267 29.2826C34.8598 29.632 34.0559 29.6965 33.3366 29.4505C32.6167 29.2092 32.0207 28.6742 31.6952 27.9857C31.6668 27.924 31.5989 27.8837 31.5267 27.8886L29.3931 28.0318C29.3228 28.0347 29.2609 28.0848 29.2384 28.1497C29.0111 28.8748 28.4893 29.4839 27.8099 29.8192C27.1325 30.1573 26.3253 30.2027 25.6117 29.9418C25.5677 29.9278 25.5031 29.9044 25.4245 29.9926L24.0138 31.6044C23.9679 31.6585 23.9577 31.737 23.9931 31.7987C24.343 32.4723 24.4049 33.2702 24.1616 33.9897C23.9185 34.7083 23.3862 35.3051 22.6974 35.6288C22.6322 35.6585 22.5944 35.725 22.5973 35.7973L22.7406 37.9347C22.7444 38.0046 22.7921 38.064 22.8591 38.0868C23.5844 38.3152 24.1914 38.8365 24.5303 39.5162C24.866 40.1956 24.91 40.9993 24.6511 41.713C24.6285 41.7785 24.6472 41.8552 24.7014 41.9002L26.3141 43.3119C26.4021 43.3886 26.4612 43.3573 26.5069 43.3326C26.8502 43.1536 27.2246 43.0483 27.6138 43.0218C27.9857 42.9984 28.3491 43.0434 28.699 43.1651C29.419 43.4082 30.0151 43.9405 30.3386 44.6288C30.3687 44.6916 30.4368 44.7308 30.5071 44.727L32.6425 44.5848C32.7148 44.5796 32.7747 44.5316 32.7952 44.4661C33.0245 43.7404 33.5443 43.1324 34.2255 42.7965C34.8905 42.469 35.6636 42.4192 36.3611 42.6524C36.3649 42.5634 36.3816 42.471 36.4128 42.3838C36.4588 42.2575 36.4512 42.1182 36.3932 42.0022C36.3371 41.8907 36.2324 41.7992 36.1078 41.7609C35.7382 41.6398 35.4855 41.3161 35.4611 40.9327L35.3941 39.9207C35.3676 39.5387 35.5746 39.1843 35.9207 39.0178C36.0432 38.959 36.1374 38.8561 36.1777 38.7353C36.2179 38.6146 36.2059 38.4754 36.149 38.3639C35.9728 38.0216 36.0245 37.6043 36.2736 37.317L36.9413 36.5512ZM31.2945 40.4605C29.0038 40.6121 27.0167 38.873 26.8651 36.583C26.7101 34.2938 28.4483 32.3034 30.7402 32.1506C33.0327 31.9973 35.0198 33.739 35.1727 36.0291C35.3257 38.319 33.5866 40.3072 31.2945 40.4605Z" fill="#AEB1CF"/>
<path d="M43.8288 39.1005C43.4849 38.9919 43.1977 38.7448 43.0398 38.4233C42.8789 38.0998 42.8569 37.7216 42.9795 37.3821C42.9909 37.3519 42.9815 37.3156 42.9575 37.2931L42.1953 36.6243C42.1514 36.5871 42.1227 36.6038 42.1015 36.6125C41.7876 36.7786 41.4018 36.8096 41.0626 36.6938C40.7208 36.5783 40.4375 36.3253 40.2852 35.9986C40.2709 35.9696 40.2384 35.9498 40.2068 35.9518L39.1937 36.0202C39.1621 36.0231 39.1314 36.0451 39.1238 36.0763C39.0147 36.4197 38.7676 36.7096 38.4461 36.8685C38.1246 37.0284 37.7429 37.05 37.406 36.9264C37.3835 36.9191 37.3519 36.9077 37.3156 36.9498L36.6453 37.7114C36.6247 37.7368 36.6186 37.776 36.6333 37.8058C36.8018 38.1241 36.8286 38.5028 36.7157 38.8441C36.599 39.1849 36.3481 39.4674 36.0225 39.6206C35.9924 39.6341 35.9708 39.6666 35.9728 39.7005L36.0412 40.7125C36.0432 40.7461 36.0657 40.7742 36.0991 40.7844C36.4425 40.8931 36.7315 41.1401 36.888 41.4618C37.0488 41.7829 37.0723 42.1635 36.9497 42.5028C36.9383 42.534 36.9477 42.5683 36.9702 42.5919L37.7362 43.2617C37.7783 43.298 37.8047 43.2822 37.8263 43.2713C37.9889 43.1871 38.1676 43.1362 38.3522 43.1243C38.5274 43.1128 38.6997 43.1372 38.8633 43.1922C39.2043 43.3056 39.4895 43.5607 39.6407 43.8862C39.6541 43.9164 39.6886 43.9342 39.7211 43.9322L40.732 43.8641C40.7647 43.8621 40.7954 43.8407 40.8048 43.8094C40.9139 43.4643 41.159 43.1762 41.4817 43.0173C41.8034 42.8574 42.1854 42.8369 42.5243 42.9585C42.5443 42.9661 42.5761 42.9761 42.6124 42.9369L43.2807 42.1724C43.3017 42.1475 43.3055 42.1101 43.2921 42.08C43.1254 41.7617 43.0948 41.3821 43.2117 41.0408C43.3266 40.6985 43.5775 40.4175 43.9049 40.2642C43.9355 40.2484 43.9546 40.2183 43.9528 40.1847L43.8867 39.1733C43.8843 39.1399 43.8613 39.1107 43.8288 39.1005ZM40.0939 41.9117C39.0111 41.9848 38.069 41.1595 37.9953 40.0743C37.9243 38.991 38.7458 38.0471 39.8335 37.9734C40.9163 37.9039 41.8584 38.7272 41.9321 39.8125C42.0058 40.8977 41.1825 41.8387 40.0939 41.9117Z" fill="#AEB1CF"/>
</svg>
