<svg width="73" height="100" viewBox="0 0 73 100" fill="none" xmlns="http://www.w3.org/2000/svg">
<path d="M36.7271 76.4526H36.6832C36.4552 77.4416 36.2288 78.7026 35.9799 79.6647L35.0723 83.1984H38.4497L37.498 79.6647C37.2251 78.6777 36.955 77.4417 36.7271 76.4526Z" fill="#AEB1CF"/>
<path d="M72.8238 23.9626C72.818 23.5041 72.6725 23.0521 72.3575 22.6931L53.076 0.668844C53.0722 0.663579 53.0664 0.660674 53.0607 0.655954C52.9458 0.526687 52.8138 0.421931 52.672 0.328612C52.6299 0.301379 52.5876 0.275962 52.5437 0.251997C52.4191 0.184459 52.2908 0.130537 52.1568 0.0902322C52.1205 0.0797021 52.088 0.0639069 52.0515 0.0561001C51.9042 0.0206971 51.7548 0 51.6016 0H4.21551C2.05356 0 0.293945 1.75889 0.293945 3.92174V96.0784C0.293945 98.2402 2.05356 100 4.21551 100H68.9213C71.085 100 72.843 98.2404 72.843 96.0784V24.1824C72.8428 24.1087 72.8314 24.0364 72.8238 23.9626ZM13.6293 87.4252C14.6714 87.4252 15.8275 87.1783 16.5078 86.8815L17.0299 89.8226C16.3947 90.169 14.9662 90.5387 13.1084 90.5387C7.82716 90.5387 5.10675 86.9561 5.10675 82.2112C5.10675 76.5278 8.82534 73.3655 13.4477 73.3655C15.238 73.3655 16.5995 73.7609 17.2104 74.1066L16.5076 77.0966C15.8043 76.7749 14.8302 76.4792 13.6066 76.4792C10.8645 76.4792 8.73293 78.2838 8.73293 81.9891C8.73202 85.3246 10.5459 87.4252 13.6293 87.4252ZM28.8402 90.2918H19.2966V73.6366H22.7645V87.1284H28.8402V90.2918ZM40.1281 90.2918L38.9486 86.0178H34.5751L33.488 90.2918H29.9059L34.5762 73.6384H39.1087L43.846 90.2918H40.1281ZM49.6256 90.5387C47.8812 90.5387 46.1577 90.0445 45.298 89.5258L45.9988 86.4123C46.9293 86.9312 48.3558 87.4512 49.8303 87.4512C51.4159 87.4512 52.2546 86.7351 52.2546 85.6465C52.2546 84.6086 51.531 84.0151 49.6945 83.2989C47.1555 82.3357 45.501 80.804 45.501 78.3817C45.501 75.54 47.6771 73.3657 51.2808 73.3657C53.0052 73.3657 54.2746 73.7611 55.1804 74.2054L54.4106 77.244C53.7978 76.9243 52.7103 76.4534 51.2147 76.4534C49.7183 76.4534 48.9925 77.1954 48.9925 78.0599C48.9925 79.1228 49.8541 79.5919 51.8274 80.4076C54.5235 81.4951 55.7931 83.0271 55.7931 85.3746C55.7913 88.1663 53.8191 90.5387 49.6256 90.5387ZM61.867 90.5387C60.1208 90.5387 58.3991 90.0445 57.5375 89.5258L58.2403 86.4123C59.1689 86.9312 60.5974 87.4512 62.0718 87.4512C63.6571 87.4512 64.4961 86.7351 64.4961 85.6465C64.4961 84.6086 63.7713 84.0151 61.9351 83.2989C59.3979 82.3357 57.7425 80.804 57.7425 78.3817C57.7425 75.54 59.9197 73.3657 63.5224 73.3657C65.2457 73.3657 66.5133 73.7611 67.422 74.2054L66.6504 77.244C66.0395 76.9243 64.952 76.4534 63.4536 76.4534C61.9592 76.4534 61.2343 77.1954 61.2343 78.0599C61.2343 79.1228 62.0939 79.5919 64.0663 80.4076C66.7642 81.4951 68.032 83.0271 68.032 85.3746C68.0307 88.1663 66.0605 90.5387 61.867 90.5387ZM4.21551 66.5843V3.92174H49.6408V23.9852C49.6408 25.0677 50.5179 25.946 51.6016 25.946H68.9213L68.9233 66.5845H4.21551V66.5843Z" fill="#AEB1CF"/>
<path d="M33.3341 41.2099C33.3341 41.2099 31.2043 37.1061 31.2829 34.1068C31.3408 31.9647 36.1734 29.8457 38.0716 26.7706C39.9634 23.6929 37.8339 20.6958 37.8339 20.6958C37.8339 20.6958 38.3089 22.9059 37.0471 25.1918C35.7833 27.4805 31.1239 28.8232 29.3107 32.7664C27.5015 36.7116 33.3341 41.2099 33.3341 41.2099Z" fill="#AEB1CF"/>
<path d="M41.3075 28.7427C41.3075 28.7427 34.0488 31.5043 34.0488 34.6584C34.0488 37.8165 36.0212 38.8409 36.3371 39.8663C36.6525 40.8937 35.785 42.629 35.785 42.629C35.785 42.629 38.6249 40.6562 38.1498 38.3661C37.675 36.0789 35.4653 35.3676 36.7311 33.0813C37.5753 31.5497 41.3075 28.7427 41.3075 28.7427Z" fill="#AEB1CF"/>
<path d="M32.5488 45.3797C40.0381 45.112 40.9208 43.7023 41.702 43.0244C37.3633 44.2057 25.8429 44.1297 25.7607 43.2618C25.6841 42.3944 29.3108 41.6836 29.3108 41.6836C29.3108 41.6836 23.6314 41.6836 23.1585 43.1039C22.6841 44.5227 25.8469 45.6137 32.5488 45.3797Z" fill="#AEB1CF"/>
<path d="M42.8049 41.8421C42.8049 41.8421 46.0409 41.8421 46.355 43.8125C46.6709 45.7853 42.2524 48.7034 42.2524 48.7034C42.2524 48.7034 49.21 47.3038 48.5609 43.7377C47.7739 39.3979 42.8049 41.8421 42.8049 41.8421Z" fill="#AEB1CF"/>
<path d="M34.9122 47.5214C31.6259 47.8911 27.6555 47.5995 27.3367 47.0456C27.027 46.4937 27.8915 46.1792 27.8915 46.1792C23.9437 47.1271 26.1018 48.7811 30.728 49.0999C34.6916 49.3704 39.1246 47.9156 39.1246 47.9156L40.4879 46.8126C40.4877 46.8116 37.3628 47.2447 34.9122 47.5214Z" fill="#AEB1CF"/>
<path d="M28.84 50.2603C28.84 50.2603 27.0497 50.31 26.9457 51.2568C26.8428 52.198 27.5005 52.6765 31.9281 52.5723C37.1982 52.4469 38.0762 51.8189 38.618 51.3632L39.9058 50.3962C36.4604 50.8423 36.193 50.9649 34.2436 51.0204C32.279 51.0778 28.84 51.2023 28.683 50.8367C28.5241 50.467 28.84 50.2603 28.84 50.2603Z" fill="#AEB1CF"/>
<path d="M46.039 54.5193C46.7228 53.782 45.8266 53.2038 45.8266 53.2038C45.8266 53.2038 46.1425 53.5714 45.726 53.9908C45.3028 54.4111 41.4617 55.4616 35.3074 55.7775C29.1535 56.0952 22.4723 55.201 22.2617 54.4113C22.0569 53.6233 25.6811 52.9932 25.6811 52.9932C25.2613 53.0449 20.2123 53.1502 20.0514 54.5193C19.8967 55.8855 22.2617 56.9903 31.7319 56.9903C41.2005 56.9893 45.3577 55.2526 46.039 54.5193Z" fill="#AEB1CF"/>
<path d="M42.3568 57.6208C38.2016 58.4614 25.5811 57.932 25.5811 57.932C25.5811 57.932 33.7842 59.8784 43.1476 58.2488C47.6226 57.4696 47.8831 55.3027 47.8831 55.3027C47.8831 55.3027 46.514 56.7771 42.3568 57.6208Z" fill="#AEB1CF"/>
</svg>
