<svg width="74" height="100" viewBox="0 0 74 100" fill="none" xmlns="http://www.w3.org/2000/svg">
<path d="M73.3731 23.9646C73.3675 23.5059 73.2219 23.053 72.9069 22.6951L53.6244 0.67066C53.6206 0.664487 53.6148 0.66249 53.6082 0.656862C53.4942 0.528503 53.3611 0.422657 53.2204 0.329339C53.1783 0.302105 53.136 0.277233 53.0921 0.252723C52.9675 0.186274 52.8392 0.131082 52.7043 0.0907769C52.668 0.0802468 52.6364 0.0653594 52.5999 0.0559186C52.4536 0.0216049 52.3023 0 52.15 0H4.76482C2.60306 0 0.843262 1.7598 0.843262 3.92174V96.0784C0.843262 98.2413 2.60288 100 4.76482 100H69.4706C71.6343 100 73.3922 98.2413 73.3922 96.0784V24.1842C73.3922 24.1096 73.3807 24.0374 73.3731 23.9646ZM4.76482 3.92247H50.1903V23.9871C50.1903 25.0695 51.0672 25.9478 52.1511 25.9478H69.4706L69.4726 66.5863H4.76482V3.92247ZM18.0805 89.5536C19.5008 89.5536 21.0776 89.2464 22.0021 88.8749L22.7129 92.5494C21.8489 92.9822 19.9021 93.4455 17.3725 93.4455C10.1766 93.4455 6.46943 88.9688 6.46943 83.0385C6.46943 75.9356 11.5341 71.9832 17.8343 71.9832C20.2733 71.9832 22.1274 72.4783 22.9618 72.9091L22.0021 76.6469C21.046 76.2448 19.7176 75.8751 18.0498 75.8751C14.3116 75.8751 11.4097 78.1289 11.4097 82.7609C11.4088 86.9301 13.8805 89.5536 18.0805 89.5536ZM33.7052 93.476C27.5293 93.476 23.9171 88.8134 23.9171 82.8842C23.9171 76.6456 27.9004 71.9821 34.046 71.9821C40.4381 71.9821 43.9271 76.7682 43.9271 82.5127C43.9269 89.3392 39.7889 93.476 33.7052 93.476ZM64.9248 93.1382L64.6166 85.1705C64.5227 82.6669 64.4308 79.6415 64.4308 76.6161H64.339C63.6899 79.27 62.8243 82.2351 62.022 84.6736L59.4906 92.7963H55.8141L53.593 84.7368C52.9132 82.2972 52.2028 79.3321 51.7088 76.6161H51.6456C51.5229 79.4269 51.4292 82.6373 51.276 85.2308L50.9065 93.1371H46.5531L47.8809 72.3229H54.15L56.1874 79.27C56.8364 81.6789 57.4857 84.2744 57.949 86.7128H58.0391C58.6267 84.3039 59.3372 81.5563 60.0171 79.2413L62.2411 72.323H68.3887L69.5301 93.1371H64.925V93.1382H64.9248Z" fill="#15499F"/>
<path d="M33.9195 75.7197C30.7414 75.7197 28.8894 78.7451 28.8894 82.7911C28.8894 86.8677 30.8023 89.7399 33.9522 89.7399C37.1347 89.7399 38.9562 86.7124 38.9562 82.6665C38.956 78.93 37.1648 75.7197 33.9195 75.7197Z" fill="#15499F"/>
<path d="M15.3088 22.1401V58.7029H56.039V22.1401H15.3088ZM54.2688 56.9316H17.0804V28.4558H54.2688V56.9316Z" fill="#15499F"/>
<path d="M31.0987 30.9941H18.5566V54.4578H31.0987V30.9941Z" fill="#15499F"/>
<path d="M39.4269 36.186L35.0008 34.2483V34.2234L39.4269 32.2857V30.9941L33.5762 33.7118V34.7601L39.4269 37.4778V36.186Z" fill="#15499F"/>
<path d="M49.1543 33.6757L43.3047 30.9941V32.2857L47.8265 34.2234V34.2483L43.3047 36.186V37.4778L49.1543 34.7959V33.6757Z" fill="#15499F"/>
</svg>
