<svg width="73" height="100" viewBox="0 0 73 100" fill="none" xmlns="http://www.w3.org/2000/svg">
<path d="M38.543 74.3491C37.5123 74.3491 36.8154 74.4486 36.4497 74.5483V81.1572C36.882 81.2569 37.4125 81.2903 38.1449 81.2903C40.8351 81.2903 42.4953 79.9288 42.4953 77.6367C42.4953 75.5782 41.0668 74.3491 38.543 74.3491Z" fill="#AEB1CF"/>
<path d="M72.9219 23.9636C72.9163 23.505 72.7707 23.0521 72.4557 22.694L53.1732 0.67066C53.1694 0.665031 53.1636 0.66249 53.1571 0.656862C53.0431 0.528503 52.91 0.422657 52.7693 0.329339C52.7271 0.302105 52.6848 0.277596 52.6409 0.252723C52.5164 0.186274 52.388 0.131082 52.2531 0.0907769C52.2168 0.0802468 52.1852 0.0653594 52.1487 0.0559186C52.0024 0.0216049 51.8511 0 51.6988 0H4.31365C2.15189 0 0.39209 1.7598 0.39209 3.92174V96.0784C0.39209 98.2413 2.15171 100 4.31365 100H69.0194C71.1832 100 72.941 98.2413 72.941 96.0784V24.1833C72.941 24.1096 72.9295 24.0374 72.9219 23.9636ZM23.1302 89.2271C24.6587 89.2271 26.3528 88.8949 27.349 88.4975L28.1126 92.4488C27.1823 92.915 25.0908 93.412 22.3686 93.412C14.6284 93.412 10.6441 88.5962 10.6441 82.2199C10.6441 74.5817 16.0923 70.3299 22.8665 70.3299C25.4903 70.3299 27.4812 70.8623 28.3792 71.3274L27.349 75.3468C26.3183 74.9149 24.8919 74.5157 23.0981 74.5157C19.0783 74.5157 15.9578 76.9399 15.9578 81.9223C15.9578 86.4047 18.6146 89.2271 23.1302 89.2271ZM45.4517 82.8181C43.7246 84.4448 41.1663 85.1752 38.1774 85.1752C37.5126 85.1752 36.9156 85.1425 36.4498 85.0755V93.0795H31.4372V70.9951C32.9979 70.7299 35.188 70.5289 38.2771 70.5289C41.4011 70.5289 43.6251 71.1273 45.1197 72.323C46.548 73.4519 47.5102 75.3121 47.5102 77.5046C47.5102 79.6961 46.7789 81.5563 45.4517 82.8181ZM64.7168 93.0797H50.7348V70.6954H55.8147V88.8288H64.7166V93.0797H64.7168ZM4.31365 66.5852V3.92174H49.7391V23.9862C49.7391 25.0684 50.616 25.9469 51.6999 25.9469H69.0194L69.0214 66.5852H4.31365Z" fill="#AEB1CF"/>
<path d="M50.8821 18.3735L20.2771 18.4166L20.2833 58.1932L50.888 58.1748L50.8821 18.3735ZM22.2967 56.1981L22.2742 20.4055L48.8181 20.3926L48.8237 56.1847L22.2967 56.1981Z" fill="#AEB1CF"/>
<path d="M37.3401 43.4977C37.4683 43.059 37.8499 42.7504 38.3029 42.7065C38.4638 42.6907 38.6121 42.6151 38.7069 42.4968C38.8025 42.3791 38.8476 42.221 38.8276 42.0701C38.7729 41.6162 39.0037 41.1701 39.402 40.9514L40.4648 40.3751C40.7301 40.233 41.0286 40.2023 41.3063 40.2827L41.4997 40.3406L41.6912 40.4904C41.8407 40.6182 41.9881 40.6542 42.1317 40.6369C42.2867 40.6202 42.4343 40.538 42.5262 40.4192C42.7951 40.075 43.227 39.9329 43.6444 40.0282L43.8704 39.2651C43.8924 39.1838 43.8617 39.0928 43.7994 39.0411C43.0834 38.4857 42.6199 37.6529 42.526 36.7548C42.4312 35.8548 42.7127 34.9401 43.2947 34.2488C43.3494 34.186 43.3597 34.0928 43.3214 34.0204L42.1055 31.778C42.0396 31.6535 41.961 31.6631 41.8969 31.6713C41.0084 31.7847 40.0827 31.5229 39.3817 30.9503C38.678 30.385 38.2348 29.5385 38.1562 28.6348C38.1506 28.5543 38.0912 28.4815 38.0088 28.457L35.5674 27.7328C35.485 27.7061 35.397 27.7366 35.3467 27.8004C34.79 28.5159 33.9565 28.9808 33.0565 29.0732C32.1604 29.1709 31.2408 28.8866 30.552 28.2996C30.5093 28.266 30.4447 28.2121 30.3222 28.2777L28.0798 29.4924C28.0037 29.5346 27.9616 29.617 27.973 29.7003C28.086 30.5983 27.8242 31.5151 27.2535 32.2194C26.6867 32.9213 25.8427 33.3644 24.9389 33.4425C24.8547 33.4467 24.7839 33.5053 24.7585 33.5885L24.0346 36.0336C24.0083 36.1132 24.037 36.1992 24.1036 36.2533C24.8193 36.81 25.2806 37.6435 25.377 38.5416C25.4694 39.4398 25.1878 40.3573 24.6016 41.0467C24.5498 41.1104 24.5388 41.2032 24.5791 41.276L25.7949 43.5211C25.8614 43.6445 25.942 43.6326 26.0017 43.6231C26.4594 43.5652 26.9222 43.6035 27.3674 43.7357C27.7924 43.8626 28.1807 44.0656 28.5221 44.3455C29.2229 44.9152 29.6689 45.7573 29.7456 46.6582C29.7532 46.7429 29.8122 46.8141 29.8926 46.8386L32.334 47.5643C32.4182 47.5888 32.5043 47.5605 32.5565 47.4958C33.1132 46.7807 33.9467 46.3172 34.8467 46.2239C35.7223 46.1329 36.6083 46.3985 37.2877 46.9454C37.3296 46.8477 37.3877 46.7533 37.4567 46.6672C37.5614 46.5458 37.6114 46.3876 37.5965 46.235C37.5792 46.0866 37.4988 45.9416 37.3762 45.8468C37.0144 45.5561 36.8655 45.0908 36.9946 44.6533L37.3401 43.4977ZM32.5402 42.4025C29.9184 41.6242 28.4213 38.8573 29.1989 36.2368C29.9763 33.6155 32.7432 32.1141 35.3646 32.8935C37.9879 33.6732 39.4854 36.4416 38.7079 39.0612C37.9285 41.683 35.1606 43.1818 32.5402 42.4025Z" fill="#AEB1CF"/>
<path d="M46.4992 44.9946C46.4552 44.5682 46.5892 44.1377 46.865 43.8093C46.889 43.78 46.8937 43.7337 46.8764 43.7005L46.302 42.637C46.2693 42.5771 46.231 42.5829 46.2043 42.5858C45.782 42.6408 45.338 42.5164 45.0064 42.2465C44.6753 41.977 44.4647 41.5763 44.4282 41.1477C44.4244 41.1105 44.3975 41.0751 44.3601 41.0645L43.2007 40.7212C43.1624 40.7101 43.1203 40.723 43.0983 40.7523C42.8371 41.0907 42.4396 41.3133 42.0144 41.3565C41.5894 41.4024 41.1548 41.267 40.8273 40.9888C40.8064 40.973 40.7777 40.9467 40.7201 40.9769L39.6555 41.5524C39.621 41.5723 39.5982 41.6147 39.6038 41.6515C39.6575 42.078 39.533 42.5135 39.265 42.8467C38.995 43.178 38.5956 43.3895 38.1677 43.4258C38.1294 43.4276 38.0931 43.4563 38.0815 43.4957L37.736 44.6522C37.7245 44.6914 37.738 44.7327 37.7703 44.757C38.1101 45.0208 38.3284 45.4162 38.3725 45.8414C38.4144 46.267 38.2844 46.7016 38.0076 47.0291C37.9809 47.0584 37.9789 47.1014 37.9952 47.1359L38.5716 48.2005C38.6043 48.2604 38.6406 48.2532 38.6702 48.2484C38.8876 48.2221 39.1058 48.2388 39.3175 48.3025C39.5175 48.3632 39.7004 48.4605 39.8632 48.5907C40.1973 48.8592 40.4099 49.2622 40.4442 49.6878C40.4462 49.7281 40.476 49.7601 40.5123 49.772L41.6697 50.1152C41.708 50.1277 41.7501 50.1152 41.7741 50.0856C42.0393 49.7457 42.4327 49.526 42.8569 49.483C43.283 49.4354 43.7167 49.572 44.046 49.8487C44.0671 49.8663 44.0967 49.8899 44.1533 49.8612L45.2161 49.2828C45.2524 49.2631 45.2717 49.2248 45.2679 49.1856C45.2141 48.759 45.3349 48.3231 45.6096 47.9917C45.8768 47.6562 46.276 47.4465 46.704 47.4111C46.7441 47.4073 46.7786 47.381 46.7929 47.3418L47.1357 46.1838C47.1462 46.1455 47.1319 46.1036 47.1021 46.0791C46.7624 45.8162 46.5451 45.4193 46.4992 44.9946ZM44.6876 46.0876C44.3202 47.3309 43.0094 48.0397 41.7666 47.6691C40.5248 47.3035 39.8155 45.9917 40.1829 44.7486C40.5526 43.5092 41.8623 42.7944 43.1041 43.1649C44.3469 43.536 45.0573 44.8459 44.6876 46.0876Z" fill="#AEB1CF"/>
</svg>
