<svg width="74" height="100" viewBox="0 0 74 100" fill="none" xmlns="http://www.w3.org/2000/svg">
<path d="M57.3689 75.4243C56.352 75.4243 55.6629 75.526 55.3018 75.6237V82.1502C55.7297 82.2489 56.2535 82.2814 56.9744 82.2814C59.6349 82.2814 61.2741 80.939 61.2741 78.672C61.2732 76.6385 59.862 75.4243 57.3689 75.4243Z" fill="#913E98"/>
<path d="M38.2972 75.4243C37.2803 75.4243 36.5905 75.526 36.23 75.6237V82.1502C36.6594 82.2489 37.1826 82.2814 37.9046 82.2814C40.5642 82.2814 42.2024 80.939 42.2024 78.672C42.2015 76.6385 40.7902 75.4243 38.2972 75.4243Z" fill="#913E98"/>
<path d="M73.4707 23.9651C73.4649 23.5059 73.3195 23.0532 73.0045 22.6955L53.723 0.67066C53.7191 0.665031 53.7133 0.663034 53.7077 0.656862C53.5928 0.528503 53.4608 0.422657 53.319 0.329339C53.2769 0.302105 53.2346 0.277596 53.1906 0.253268C53.0661 0.186274 52.9377 0.131626 52.8037 0.0913215C52.7674 0.0802468 52.7349 0.065904 52.6984 0.0559186C52.5512 0.0216049 52.4018 0 52.2486 0H4.86248C2.70054 0 0.940918 1.7598 0.940918 3.92174V96.0784C0.940918 98.2413 2.70054 100 4.86248 100H69.5682C71.732 100 73.49 98.2413 73.49 96.0784V24.1842C73.4898 24.1111 73.4784 24.0374 73.4707 23.9651ZM23.0652 90.1271C24.5732 90.1271 26.2477 89.7996 27.231 89.4051L27.9868 93.3094C27.0681 93.7709 24.9997 94.2631 22.3083 94.2631C14.6653 94.2631 10.7261 89.5047 10.7261 83.2059C10.7261 75.6567 16.1086 71.4576 22.8025 71.4576C25.3948 71.4576 27.3637 71.9841 28.2488 72.4398L27.2319 76.4111C26.2176 75.9833 24.8054 75.5935 23.0322 75.5935C19.0603 75.5935 15.977 77.9851 15.977 82.9091C15.9761 87.3372 18.6028 90.1271 23.0652 90.1271ZM45.1237 83.7947C43.4176 85.4031 40.8909 86.1251 37.9352 86.1251C37.2785 86.1251 36.6898 86.0924 36.2292 86.0265V93.9337H31.2749V72.1122C32.8183 71.8501 34.9841 71.6518 38.0347 71.6518C41.1195 71.6518 43.3196 72.2426 44.796 73.4258C46.2063 74.5393 47.1589 76.3786 47.1589 78.5442C47.1591 80.7099 46.4334 82.5481 45.1237 83.7947ZM64.1953 83.7947C62.4893 85.4031 59.9626 86.1251 57.0089 86.1251C56.3522 86.1251 55.7623 86.0924 55.3019 86.0265V93.9337H50.3473V72.1122C51.8896 71.8501 54.0545 71.6518 57.1075 71.6518C60.1914 71.6518 62.3914 72.2426 63.866 73.4258C65.2781 74.5393 66.2307 76.3786 66.2307 78.5442C66.2307 80.7099 65.5069 82.5481 64.1953 83.7947ZM4.86248 66.5863V3.92247H50.2878V23.9876C50.2878 25.0699 51.1649 25.9484 52.2486 25.9484H69.5682L69.5702 66.5863H4.86248V66.5863Z" fill="#913E98"/>
<path d="M33.671 53.5883C32.2113 54.2385 29.4497 54.7795 26.3114 54.7795C17.7575 54.7795 12.292 49.5825 12.292 41.2474C12.292 33.5072 17.5964 27.1748 27.4479 27.1748C29.6126 27.1748 31.9946 27.553 33.726 28.2031L32.4274 34.3186C31.4537 33.8863 29.9917 33.5072 27.827 33.5072C23.4966 33.5072 20.6823 36.5924 20.7359 40.9228C20.7359 45.7942 23.9839 48.3374 27.9897 48.3374C29.9379 48.3374 31.4537 48.0139 32.6988 47.5255L33.671 53.5883Z" fill="#913E98"/>
<path d="M43.7834 34.9131V39.8826H48.5474V42.0267H43.7834V47.0425H41.5487V42.0267H36.7842V39.8826H41.5487V34.9131H43.7834V34.9131Z" fill="#913E98"/>
<path d="M57.3746 34.9131V39.8826H62.1386V42.0267H57.3746V47.0425H55.141V42.0267H50.375V39.8826H55.141V34.9131H57.3746V34.9131Z" fill="#913E98"/>
</svg>
