<svg width="73" height="100" viewBox="0 0 73 100" fill="none" xmlns="http://www.w3.org/2000/svg">
<path d="M33.7354 75.2603C32.5065 75.2603 31.8088 75.3608 31.4438 75.4267V81.604H33.4371C35.9609 81.604 37.456 80.3421 37.456 78.3823C37.4549 76.3231 36.0597 75.2938 33.7354 75.2603Z" fill="#AEB1CF"/>
<path d="M72.5298 23.9636C72.5242 23.505 72.3795 23.0521 72.0647 22.694L52.7822 0.67066C52.7784 0.665031 52.7726 0.66249 52.7668 0.656862C52.6519 0.528503 52.5199 0.422657 52.3781 0.329339C52.336 0.302105 52.2938 0.277596 52.2497 0.252723C52.1252 0.186274 51.997 0.131082 51.863 0.0907769C51.8267 0.0802468 51.794 0.0653594 51.7577 0.0559186C51.6103 0.0216049 51.4611 0 51.3078 0H3.92156C1.7598 0 0 1.7598 0 3.92174V96.0784C0 98.2413 1.75962 100 3.92156 100H68.6273C70.7911 100 72.5489 98.2413 72.5489 96.0784V24.1833C72.5489 24.1096 72.5375 24.0374 72.5298 23.9636ZM18.1243 90.2046C19.6519 90.2046 21.346 89.8724 22.3422 89.4742L23.1058 93.4265C22.1766 93.8918 20.0833 94.3898 17.3607 94.3898C9.62235 94.3898 5.63725 89.5741 5.63725 83.1977C5.63725 75.5594 11.0844 71.3085 17.8585 71.3085C20.4824 71.3085 22.4742 71.839 23.3712 72.3052L22.342 76.3236C21.3124 75.8927 19.884 75.4935 18.0911 75.4935C14.0724 75.4935 10.9508 77.9185 10.9508 82.8991C10.951 87.3822 13.6078 90.2046 18.1243 90.2046ZM38.153 94.0561C37.7872 93.4252 37.2559 91.5995 36.5918 88.843C35.9949 86.0521 35.0312 85.2901 32.9723 85.2566H31.4438V94.0581H26.4295V71.9726C28.0571 71.7065 30.4812 71.5075 33.1706 71.5075C36.4909 71.5075 38.8166 72.0053 40.4106 73.2671C41.7394 74.3299 42.4691 75.8913 42.4691 77.9497C42.4691 80.8056 40.4442 82.7647 38.5177 83.4624V83.563C40.0784 84.1941 40.942 85.6885 41.5068 87.7469C42.2038 90.2716 42.9019 93.1946 43.3327 94.0583H38.1532V94.0561H38.153ZM58.1811 94.0561L56.1562 90.0046C55.3252 88.4439 54.7949 87.2816 54.1638 85.9862H54.0969C53.6324 87.2816 53.0676 88.4439 52.3696 90.0046L50.5094 94.0561H44.7312L51.2062 82.7319L44.9638 71.6738H50.7753L52.7352 75.7582C53.3997 77.1195 53.8984 78.2157 54.4289 79.4766H54.4959C55.0273 78.0501 55.459 77.0523 56.0239 75.7582L57.9158 71.6738H63.6947L57.3853 82.5999L64.0278 94.0581H58.1809V94.0561H58.1811ZM3.92156 66.5852V3.92174H49.347V23.9862C49.347 25.0684 50.2239 25.9469 51.3078 25.9469H68.6273L68.6293 66.5852H3.92156Z" fill="#AEB1CF"/>
<path d="M25.1863 31.806C27.2939 26.802 31.815 24.1913 37.2306 24.3583C43.3691 24.5455 49.5185 24.3981 55.6621 24.3779C51.6657 17.8541 44.47 13.4912 36.2754 13.4912C29.0134 13.4912 22.5423 16.9197 18.3804 22.2376C20.3363 25.8474 22.4216 29.3904 24.5968 33.1746C24.89 32.4925 25.0412 32.15 25.1863 31.806Z" fill="#AEB1CF"/>
<path d="M38.1647 47.9489C32.4197 48.5516 28.2699 46.3478 25.4393 41.294C22.554 36.1421 19.6025 31.0292 16.669 25.9055C16.5718 25.7362 16.454 25.5771 16.3042 25.3872C14.5522 28.6071 13.5564 32.295 13.5564 36.2098C13.5564 47.6742 22.0921 57.1776 33.1426 58.7085C35.2973 55.2139 37.302 51.6237 39.4572 47.8783C38.8062 47.9126 38.4834 47.9146 38.1647 47.9489Z" fill="#AEB1CF"/>
<path d="M56.1382 27.5176C53.422 27.6961 50.6885 27.565 47.9619 27.565C46.9815 27.565 46.0012 27.565 44.7439 27.565C49.0868 33.0461 49.1135 38.2353 45.7148 43.762C42.6702 48.7129 39.9206 53.846 37.0598 58.9097C49.2246 58.4943 58.995 48.4744 58.995 36.21C58.995 33.1668 58.3889 30.2631 57.2994 27.6071C56.9759 27.5185 56.5966 27.4873 56.1382 27.5176Z" fill="#AEB1CF"/>
<path d="M36.209 27.6346C31.5551 27.674 27.6617 31.6275 27.7 36.2767C27.7383 40.9298 31.6924 44.8226 36.3421 44.7849C40.9984 44.7466 44.8884 40.7963 44.8501 36.1438C44.812 31.4877 40.8597 27.5954 36.209 27.6346Z" fill="#AEB1CF"/>
</svg>
