<svg width="74" height="101" viewBox="0 0 74 101" fill="none" xmlns="http://www.w3.org/2000/svg">
<path d="M33.2203 53.5883C31.7606 54.2385 28.999 54.7795 25.8607 54.7795C17.3068 54.7795 11.8413 49.5825 11.8413 41.2474C11.8413 33.5072 17.1458 27.1748 26.9972 27.1748C29.1619 27.1748 31.5439 27.553 33.2753 28.2031L31.9767 34.3186C31.003 33.8863 29.541 33.5072 27.3763 33.5072C23.0459 33.5072 20.2316 36.5924 20.2852 40.9228C20.2852 45.7942 23.5332 48.3374 27.539 48.3374C29.4872 48.3374 31.003 48.0139 32.2481 47.5255L33.2203 53.5883Z" fill="#913E98"/>
<path d="M45.0532 30.2939V35.2634H49.8172V37.4076H45.0532V42.4234H42.8185V37.4076H38.054V35.2634H42.8185V30.2939H45.0532V30.2939Z" fill="#913E98"/>
<path d="M53.0419 30.2939V35.2634H57.8058V37.4076H53.0419V42.4234H50.8082V37.4076H46.0422V35.2634H50.8082V30.2939H53.0419V30.2939Z" fill="#913E98"/>
<path d="M53.0419 39.3716V44.3411H57.8058V46.4852H53.0419V51.501H50.8082V46.4852H46.0422V44.3411H50.8082V39.3716H53.0419V39.3716Z" fill="#913E98"/>
<path d="M45.0536 39.3716V44.3411H49.8176V46.4852H45.0536V51.501H42.8199V46.4852H38.054V44.3411H42.8199V39.3716H45.0536V39.3716Z" fill="#913E98"/>
<path d="M29.903 67.3311C19.1765 67.3311 11.901 67.8156 8.09766 68.2811V99.3852C12.6269 99.8559 18.1462 100.011 25.7625 100.011C53.8169 100.011 71.0968 93.6131 71.0968 82.8087C71.0872 73.1179 56.2012 67.3311 29.903 67.3311Z" fill="#913E98"/>
<path d="M73.0201 23.9651C73.0142 23.5059 72.8688 23.0532 72.5538 22.6955L53.2723 0.67066C53.2685 0.665031 53.2626 0.663034 53.257 0.656862C53.1421 0.528503 53.0101 0.422657 52.8683 0.329339C52.8262 0.302105 52.7839 0.277596 52.74 0.253268C52.6154 0.186274 52.487 0.131626 52.3531 0.0913215C52.3168 0.0802468 52.2843 0.065904 52.2478 0.0559186C52.1005 0.0216049 51.9511 0 51.7979 0H4.4118C2.24985 0 0.490234 1.7598 0.490234 3.92174V96.0784C0.490234 98.2413 2.24985 100 4.4118 100H69.1176C71.2813 100 73.0393 98.2413 73.0393 96.0784V24.1842C73.0391 24.1111 73.0277 24.0374 73.0201 23.9651ZM22.6146 90.1271C24.1225 90.1271 25.797 89.7996 26.7803 89.4051L27.5361 93.3094C26.6175 93.7709 24.549 94.2631 21.8577 94.2631C14.2146 94.2631 10.2754 89.5047 10.2754 83.2059C10.2754 75.6567 15.658 71.4576 22.3519 71.4576C24.9441 71.4576 26.913 71.9841 27.7981 72.4398L26.7812 76.4111C25.7669 75.9833 24.3548 75.5935 22.5815 75.5935C18.6097 75.5935 15.5263 77.9851 15.5263 82.9091C15.5254 87.3372 18.1521 90.1271 22.6146 90.1271ZM44.673 83.7947C42.9669 85.4031 40.4402 86.1251 37.4845 86.1251C36.8279 86.1251 36.2391 86.0924 35.7785 86.0265V93.9337H30.8242V72.1122C32.3676 71.8501 34.5334 71.6518 37.584 71.6518C40.6688 71.6518 42.8689 72.2426 44.3453 73.4258C45.7556 74.5393 46.7082 76.3786 46.7082 78.5442C46.7084 80.7099 45.9827 82.5481 44.673 83.7947ZM63.7447 83.7947C62.0386 85.4031 59.5119 86.1251 56.5582 86.1251C55.9015 86.1251 55.3117 86.0924 54.8512 86.0265V93.9337H49.8966V72.1122C51.4389 71.8501 53.6038 71.6518 56.6568 71.6518C59.7407 71.6518 61.9407 72.2426 63.4153 73.4258C64.8274 74.5393 65.7801 76.3786 65.7801 78.5442C65.7801 80.7099 65.0562 82.5481 63.7447 83.7947ZM4.4118 66.5863V3.92247H49.8371V23.9876C49.8371 25.0699 50.7142 25.9484 51.7979 25.9484H69.1176L69.1196 66.5863H4.4118V66.5863Z" fill="#913E98"/>
<path d="M35.6323 86.7778C35.564 88.2622 35.1636 89.5757 34.4312 90.7183C33.6987 91.8511 32.6685 92.73 31.3403 93.355C30.022 93.98 28.5132 94.2925 26.814 94.2925C24.0112 94.2925 21.8042 93.3794 20.1929 91.5532C18.5815 89.7271 17.7759 87.1489 17.7759 83.8188V82.7642C17.7759 80.6743 18.1372 78.8481 18.8599 77.2856C19.5923 75.7134 20.6421 74.5024 22.0093 73.6528C23.3765 72.7935 24.9585 72.3638 26.7554 72.3638C29.3433 72.3638 31.4233 73.0474 32.9956 74.4146C34.5679 75.772 35.4614 77.647 35.6763 80.0396H30.5493C30.5103 78.7407 30.1831 77.8081 29.5679 77.2417C28.9526 76.6753 28.0151 76.3921 26.7554 76.3921C25.4761 76.3921 24.5386 76.8706 23.9429 77.8276C23.3472 78.7847 23.0347 80.313 23.0054 82.4126V83.9214C23.0054 86.1968 23.2886 87.8228 23.855 88.7993C24.4312 89.7759 25.4175 90.2642 26.814 90.2642C27.9956 90.2642 28.8989 89.9858 29.5239 89.4292C30.1489 88.8726 30.481 87.9888 30.52 86.7778H35.6323ZM49.0649 88.3306C49.0649 87.5786 48.7964 86.9927 48.2593 86.5728C47.7319 86.1528 46.7993 85.7183 45.4614 85.269C44.1235 84.8198 43.0298 84.3853 42.1802 83.9653C39.4165 82.6079 38.0347 80.7427 38.0347 78.3696C38.0347 77.188 38.3765 76.1479 39.0601 75.2495C39.7534 74.3413 40.73 73.6382 41.9897 73.1401C43.2495 72.6323 44.6655 72.3784 46.2378 72.3784C47.771 72.3784 49.1431 72.6519 50.354 73.1987C51.5747 73.7456 52.522 74.5269 53.1958 75.5425C53.8696 76.5483 54.2065 77.7007 54.2065 78.9995H49.0796C49.0796 78.1304 48.811 77.4565 48.2739 76.978C47.7466 76.4995 47.0288 76.2603 46.1206 76.2603C45.2026 76.2603 44.4751 76.4653 43.938 76.8755C43.4106 77.2759 43.147 77.7886 43.147 78.4136C43.147 78.9604 43.4399 79.4585 44.0259 79.9077C44.6118 80.3472 45.6421 80.8062 47.1167 81.2847C48.5913 81.7534 49.8022 82.2612 50.7495 82.8081C53.0542 84.1362 54.2065 85.9673 54.2065 88.3013C54.2065 90.1665 53.5034 91.6313 52.0972 92.6958C50.6909 93.7603 48.7622 94.2925 46.311 94.2925C44.5825 94.2925 43.0151 93.9849 41.6089 93.3696C40.2124 92.7446 39.1577 91.895 38.4448 90.8208C37.7417 89.7368 37.3901 88.4917 37.3901 87.0854H42.5464C42.5464 88.228 42.8394 89.0728 43.4253 89.6196C44.021 90.1567 44.9829 90.4253 46.311 90.4253C47.1606 90.4253 47.8296 90.2446 48.3179 89.8833C48.8159 89.5122 49.0649 88.9946 49.0649 88.3306Z" fill="white"/>
</svg>
