<svg width="74" height="100" viewBox="0 0 74 100" fill="none" xmlns="http://www.w3.org/2000/svg">
<path d="M73.0785 23.9652C73.0729 23.5059 72.9275 23.0533 72.6124 22.6951L53.3301 0.670629C53.3263 0.664975 53.3206 0.662969 53.3139 0.657315C53.1999 0.528369 53.0667 0.422586 52.9259 0.329934C52.884 0.302212 52.8417 0.277772 52.7977 0.25315C52.6731 0.186397 52.5448 0.131682 52.4098 0.0913748C52.3735 0.0804317 52.3421 0.0660233 52.3056 0.0559922C52.1592 0.0215214 52.0078 0 51.8557 0H4.47047C2.30866 0 0.548828 1.7602 0.548828 3.92164V96.0785C0.548828 98.2413 2.30866 100 4.47047 100H69.1762C71.3397 100 73.0979 98.2413 73.0979 96.0785V24.1848C73.0979 24.1111 73.0866 24.0374 73.0785 23.9652ZM22.1923 89.4065C23.578 89.4065 25.1157 89.1049 26.0176 88.7428L26.7108 92.3272C25.8688 92.7504 23.9683 93.2003 21.501 93.2003C14.4812 93.2003 10.8636 88.8338 10.8636 83.0499C10.8636 76.1203 15.8057 72.2636 21.951 72.2636C24.3331 72.2636 26.1382 72.7453 26.9531 73.1675L26.0185 76.8132C25.086 76.4216 23.7901 76.0596 22.1636 76.0596C18.5178 76.0596 15.686 78.2579 15.686 82.7778C15.6851 86.8451 18.0941 89.4065 22.1923 89.4065ZM34.6922 93.2003C32.3733 93.2003 30.0831 92.5992 28.9381 91.9654L29.8727 88.1683C31.1076 88.8021 33.0048 89.4337 34.9638 89.4337C37.0714 89.4337 38.1867 88.5608 38.1867 87.2356C38.1867 85.97 37.2233 85.2469 34.7834 84.3747C31.408 83.1991 29.2088 81.3311 29.2088 78.3794C29.2088 74.9146 32.1003 72.2634 36.8912 72.2634C39.1809 72.2634 40.8666 72.7451 42.0722 73.2877L41.0478 76.9921C40.234 76.6006 38.7884 76.0302 36.8013 76.0302C34.8118 76.0302 33.8483 76.934 33.8483 77.9871C33.8483 79.2825 34.9933 79.855 37.6151 80.8496C41.1991 82.1757 42.886 84.0439 42.886 86.9064C42.8875 90.3092 40.2653 93.2003 34.6922 93.2003ZM56.6229 92.8996C56.2915 92.3292 55.8087 90.6719 55.2056 88.1701C54.6637 85.6406 53.7904 84.9476 51.9215 84.9179H50.5374V92.9018H45.9876V72.866C47.4641 72.6246 49.6612 72.4436 52.1025 72.4436C55.1136 72.4436 57.2257 72.8956 58.6694 74.0408C59.8748 75.0036 60.5363 76.4209 60.5363 78.2878C60.5363 80.8797 58.6982 82.6556 56.9519 83.2895V83.3814C58.3668 83.954 59.1502 85.3094 59.664 87.1767C60.2972 89.4669 60.9299 92.1168 61.3195 92.8998H56.6229V92.8996ZM4.47047 66.586V3.92255H49.8958V23.9876C49.8958 25.0701 50.7729 25.9483 51.8566 25.9483H69.1762L69.1781 66.586H4.47047Z" fill="#AEB1CF"/>
<path d="M52.615 75.8491C51.4997 75.8491 50.8688 75.939 50.5376 75.9978V81.6032H52.345C54.6332 81.6032 55.9889 80.4571 55.9889 78.6805C55.9878 76.8114 54.7241 75.877 52.615 75.8491Z" fill="#AEB1CF"/>
<path d="M29.3703 28.3537C23.7087 26.4082 16.3819 29.4269 18.7812 36.4447C19.9948 39.9966 24.0428 42.2653 26.8827 44.3505C32.5487 48.512 22.3007 50.4291 19.0856 49.9625C19.6141 49.4369 20.1425 48.9113 20.671 48.3865C21.5131 48.7418 22.3287 49.1506 23.1181 49.614C23.9454 50.0731 24.7515 50.5308 25.6095 50.9301C26.6837 51.4298 28.474 51.8845 29.6396 51.4076C31.259 50.747 32.4064 49.8682 33.6191 48.5915C34.7417 47.409 36.1466 43.7642 37.7818 45.7266C38.5329 46.6269 39.9296 46.754 40.9725 46.4677C41.814 46.2366 42.553 45.6464 43.2483 45.1543C44.6164 44.1849 45.5595 44.5986 47.2808 44.6414C52.1423 44.764 55.7331 42.9985 59.4313 39.9622C60.898 38.7573 58.8043 36.6896 57.3519 37.8826C54.0777 40.571 50.6292 42.3543 46.2622 41.4672C43.9412 40.9961 42.6242 42.0063 40.8078 43.2916C40.1204 43.778 37.8302 41.7003 36.822 41.7003C35.1159 41.7003 33.7659 43.6752 32.8584 44.8122C30.9172 47.2415 28.6976 49.3173 25.4935 47.5819C23.8562 46.6947 22.0678 45.4211 20.1554 45.2397C17.0111 44.9437 14.9356 47.435 15.3496 50.4905C16.1552 56.4208 29.3819 51.3332 31.3475 49.2525C34.0614 46.3827 30.5601 43.3611 28.366 41.8099C25.6503 39.8912 21.614 37.6218 21.1963 33.9601C20.6999 29.6222 26.5196 30.4782 28.5876 31.1885C30.3869 31.8076 31.1523 28.9665 29.3703 28.3537Z" fill="#AEB1CF"/>
</svg>
