<svg width="73" height="100" viewBox="0 0 73 100" fill="none" xmlns="http://www.w3.org/2000/svg">
<path d="M72.6255 23.9636C72.6217 23.5041 72.4752 23.0521 72.1603 22.694L52.8797 0.67066C52.8741 0.665031 52.8684 0.66249 52.8644 0.656862C52.7495 0.528503 52.6155 0.421749 52.4739 0.329339C52.4318 0.301198 52.3897 0.277596 52.3456 0.252723C52.223 0.186274 52.0928 0.130174 51.9589 0.0900507C51.9224 0.0804283 51.8899 0.0655409 51.8535 0.0559186C51.7079 0.0216049 51.5567 0 51.4035 0H4.01922C1.85546 0 0.0976562 1.7598 0.0976562 3.92174V96.0784C0.0976562 98.2402 1.85546 100 4.01922 100H68.725C70.8869 100 72.6467 98.2404 72.6467 96.0784V24.1824C72.6465 24.1096 72.6351 24.0374 72.6255 23.9636ZM20.6514 91.1839C22.2741 91.1839 24.0742 90.8317 25.133 90.4067L25.9435 94.6079C24.9555 95.1019 22.7327 95.6304 19.8391 95.6304C11.6163 95.6304 7.38123 90.5138 7.38123 83.7373C7.38123 75.6204 13.1692 71.1034 20.368 71.1034C23.1555 71.1034 25.2734 71.6682 26.2269 72.1622L25.133 76.4314C24.0388 75.9737 22.5221 75.5514 20.6165 75.5514C16.3469 75.5514 13.029 78.1269 13.029 83.4185C13.0279 88.1836 15.8514 91.1839 20.6514 91.1839ZM35.2973 95.6302C32.5807 95.6302 29.8984 94.9236 28.5571 94.1825L29.6513 89.7364C31.0985 90.4773 33.3211 91.2184 35.6152 91.2184C38.0858 91.2184 39.3917 90.1959 39.3917 88.6429C39.3917 87.1609 38.2619 86.3145 35.4046 85.29C31.4524 83.9132 28.8759 81.7264 28.8759 78.2682C28.8759 74.2088 32.2634 71.103 37.8761 71.103C40.556 71.103 42.5329 71.6678 43.9453 72.3034L42.7446 76.6444C41.7911 76.1849 40.0983 75.5146 37.7681 75.5146C35.4396 75.5146 34.3104 76.5734 34.3104 77.8096C34.3104 79.3279 35.6517 79.9973 38.7216 81.1625C42.9209 82.7154 44.897 84.9013 44.897 88.254C44.8968 92.2429 41.8274 95.6302 35.2973 95.6302ZM54.3581 95.6302C51.641 95.6302 48.9583 94.9236 47.6179 94.1825L48.7112 89.7364C50.1569 90.4773 52.381 91.2184 54.674 91.2184C57.146 91.2184 58.4501 90.1959 58.4501 88.6429C58.4501 87.1609 57.3221 86.3145 54.4643 85.29C50.5121 83.9132 47.9347 81.7264 47.9347 78.2682C47.9347 74.2088 51.323 71.103 56.9354 71.103C59.6162 71.103 61.5921 71.6678 63.0044 72.3034L61.8029 76.6444C60.8503 76.1849 59.1576 75.5146 56.8283 75.5146C54.4979 75.5146 53.3701 76.5734 53.3701 77.8096C53.3701 79.3279 54.7116 79.9973 57.7809 81.1625C61.9801 82.7154 63.9572 84.9013 63.9572 88.254C63.957 92.2429 60.8857 95.6302 54.3581 95.6302ZM68.725 66.5843H4.01922V3.92174H49.4425V23.9852C49.4425 25.0691 50.3216 25.946 51.4035 25.946H68.725V66.5843Z" fill="#2B74B9"/>
<path d="M22.8375 28.1531C22.8375 29.3541 23.0104 30.5084 23.1817 31.707C23.3535 32.9024 23.524 34.1006 23.524 35.2993C23.524 36.7987 23.0966 38.4659 20.0581 38.4659V40.6493C23.0975 40.6493 23.524 42.4893 23.524 43.8159C23.524 44.975 23.3537 46.1267 23.1817 47.2838C23.0104 48.4408 22.8375 49.6347 22.8375 50.7921C22.8375 55.1129 25.4915 56.6563 29.0445 56.6563H29.9433V54.3021H29.1741C26.7767 54.3021 25.7916 52.9742 25.7916 50.5786C25.7916 49.5523 25.9208 48.5661 26.0917 47.4948C26.2631 46.4699 26.3912 45.4014 26.3912 44.2453C26.4359 41.5051 25.2357 40.0505 23.3088 39.5788V39.4966C25.2357 38.9801 26.4343 37.6104 26.3912 34.8722C26.3912 33.7172 26.2631 32.6883 26.0917 31.6208C25.9208 30.5925 25.7916 29.5642 25.7916 28.582C25.7916 26.2708 26.6465 24.9013 29.1741 24.9013H29.9433V22.5464H29.0445C25.4072 22.5464 22.8375 24.2163 22.8375 28.1531Z" fill="#2B74B9"/>
<path d="M47.5853 35.2993C47.5853 34.1006 47.7576 32.9024 47.9291 31.707C48.1005 30.5084 48.273 29.3543 48.273 28.1531C48.273 24.2161 45.661 22.5464 42.0228 22.5464H41.167V24.9013H41.9366C44.4203 24.9433 45.3182 26.2699 45.3182 28.582C45.3182 29.5642 45.1459 30.5925 45.0194 31.6208C44.8453 32.6898 44.6739 33.7179 44.6739 34.8722C44.6739 37.6104 45.8734 38.9786 47.7576 39.4966V39.5788C45.8734 40.0494 44.6739 41.5051 44.6739 44.2453C44.6739 45.4023 44.8453 46.4708 45.0194 47.4948C45.1457 48.567 45.3182 49.5532 45.3182 50.5786C45.3182 52.974 44.2901 54.2598 41.8947 54.3021H41.167V56.6563H42.065C45.5748 56.6563 48.271 55.1129 48.271 50.7921C48.271 49.6347 48.0996 48.4408 47.9282 47.2838C47.7578 46.1267 47.5853 44.975 47.5853 43.8159C47.5853 42.4884 48.0143 40.6493 51.0531 40.6493V38.4659C48.0143 38.4659 47.5853 36.7985 47.5853 35.2993Z" fill="#2B74B9"/>
</svg>
