<svg width="73" height="100" viewBox="0 0 73 100" fill="none" xmlns="http://www.w3.org/2000/svg">
<path d="M72.7241 23.9636C72.7203 23.5059 72.5738 23.0521 72.259 22.694L52.9783 0.669752C52.9727 0.663397 52.9671 0.661582 52.9631 0.655772C52.8481 0.527595 52.7142 0.422657 52.5726 0.328431C52.5304 0.302105 52.4883 0.276688 52.4442 0.251815C52.3216 0.185185 52.1915 0.131082 52.0575 0.0909584C52.021 0.0795205 51.9885 0.0646331 51.9522 0.0551923C51.8066 0.0206971 51.6553 0 51.5021 0H4.11785C1.95409 0 0.196289 1.7598 0.196289 3.92174V96.0784C0.196289 98.2402 1.95409 100 4.11785 100H68.8236C70.9856 100 72.7454 98.2404 72.7454 96.0784V24.1833C72.7452 24.1087 72.7337 24.0364 72.7241 23.9636ZM19.3504 89.9911C20.9718 89.9911 22.7718 89.6389 23.8306 89.2157L24.6425 93.4149C23.6541 93.9091 21.4319 94.4394 18.5376 94.4394C10.3148 94.4394 6.07972 89.3212 6.07972 82.5465C6.07972 74.4294 11.8677 69.9124 19.0661 69.9124C21.854 69.9124 23.9718 70.4763 24.9259 70.9714L23.8306 75.2404C22.7376 74.782 21.2188 74.3606 19.3141 74.3606C15.0445 74.3606 11.728 76.9361 11.728 82.2275C11.7279 86.9924 14.5503 89.9911 19.3504 89.9911ZM33.9972 94.4392C31.2805 94.4392 28.5975 93.7326 27.2571 92.9917L28.35 88.5454C29.7981 89.2865 32.0207 90.0274 34.3148 90.0274C36.7848 90.0274 38.0907 89.0029 38.0907 87.4501C38.0907 85.9681 36.962 85.1218 34.1033 84.0992C30.1516 82.7224 27.5755 80.5358 27.5755 77.0776C27.5755 73.0182 30.9629 69.9122 36.5742 69.9122C39.2559 69.9122 41.2329 70.4761 42.6432 71.1128L41.4446 75.4536C40.49 74.9941 38.7983 74.3238 36.4678 74.3238C34.1394 74.3238 33.0101 75.3828 33.0101 76.6179C33.0101 78.1373 34.35 78.8065 37.4224 79.9708C41.6207 81.5247 43.5978 83.7104 43.5978 87.0632C43.5958 91.0499 40.5263 94.4392 33.9972 94.4392ZM59.125 94.0841H52.8443L45.2216 70.3H51.1154L54.0088 80.3586C54.8207 83.181 55.5618 85.8982 56.1267 88.8633H56.2319C56.8313 86.0044 57.5724 83.181 58.3841 80.4648L61.4191 70.3011H67.1368L59.125 94.0841ZM4.11785 66.5852V3.92174H49.5411V23.9872C49.5411 25.0697 50.4202 25.948 51.5021 25.948H68.8236V66.5865H4.11785V66.5852Z" fill="#AEB1CF"/>
<path d="M54.9507 30.875H42.9411H42.5217H30.5119H18.7109V36.1806V36.5787V41.4865V41.9062V46.7944V47.2123V52.5184H31.1405H54.973V35.6905H54.9509V30.875H54.9507ZM30.7205 52.101H19.1305V47.2123H30.7204V52.101H30.7205ZM30.7205 46.7944H19.1305V41.9062H30.7204V46.7944H30.7205ZM30.7205 41.4865H19.1305V36.6003H30.5117H30.7204V41.4865H30.7205ZM30.9317 36.1806V31.2944H42.5217V36.1806H31.1403H30.9317ZM54.4816 52.028H49.9051V38.0306H46.763V52.028H44.1453V40.9296H41.003V52.028H38.6976V43.7924H35.5549V52.028H31.1394V47.2123V46.7944V41.9062V41.4865V36.6003H42.5206H42.9409H54.4814V52.028H54.4816ZM54.5313 35.6904H54.4816V36.1806H42.9411V31.2944H54.5315V35.6904H54.5313Z" fill="#AEB1CF"/>
</svg>
