<svg width="74" height="100" viewBox="0 0 74 100" fill="none" xmlns="http://www.w3.org/2000/svg">
<path d="M73.2749 23.9636C73.2691 23.505 73.1237 23.0521 72.8087 22.694L53.5272 0.67066C53.5233 0.665031 53.5175 0.663034 53.5119 0.656862C53.397 0.528503 53.265 0.422657 53.1232 0.329339C53.0811 0.302105 53.0388 0.277596 52.9948 0.252723C52.8703 0.186274 52.7419 0.131626 52.6079 0.0913215C52.5716 0.0802468 52.5391 0.0653594 52.5026 0.0559186C52.3554 0.0216049 52.206 0 52.0528 0H4.66668C2.50474 0 0.745117 1.7598 0.745117 3.92174V96.0784C0.745117 98.2413 2.50474 100 4.66668 100H69.3724C71.5362 100 73.2942 98.2413 73.2942 96.0784V24.1833C73.294 24.1096 73.2826 24.0374 73.2749 23.9636ZM20.6185 90.8537C22.147 90.8537 23.8411 90.5216 24.8373 90.1233L25.6009 94.0755C24.6705 94.5409 22.5793 95.0389 19.8569 95.0389C12.1167 95.0389 8.13254 90.2231 8.13254 83.8468C8.13254 76.2086 13.5802 71.9577 20.3547 71.9577C22.9786 71.9577 24.9695 72.4881 25.8676 72.9543L24.8375 76.9726C23.8068 76.5418 22.3803 76.1426 20.586 76.1426C16.5668 76.1426 13.4463 78.5676 13.4463 83.5481C13.4463 88.0312 16.1038 90.8537 20.6185 90.8537ZM47.1911 84.8766C47.1911 91.7834 43.7042 95.071 37.8583 95.071C32.2129 95.071 28.8912 91.949 28.8912 84.8087V72.323H33.9736V85.2081C33.9736 89.0607 35.434 91.0205 38.025 91.0205C40.6808 91.0205 42.1419 89.1612 42.1419 85.2081V72.323H47.1913V84.8766H47.1911ZM65.8586 94.7072H51.578V72.3229H65.3935V76.4732H56.6591V81.1224H64.8957V85.2402H56.6591V90.5539H65.8599V94.7072H65.8586ZM4.66668 66.5852V3.92174H50.092V23.9862C50.092 25.0689 50.9691 25.9469 52.0528 25.9469H69.3724L69.3744 66.5852H4.66668Z" fill="#AEB1CF"/>
<path d="M48.8438 31.9264C47.49 22.8567 39.689 15.8931 30.2393 15.8931C19.8384 15.8931 11.4031 24.3255 11.4031 34.7255C11.4031 45.1307 19.8384 53.5655 30.2393 53.5655C32.3972 53.5655 34.4619 53.1842 36.391 52.5179C35.6218 50.7276 35.1924 48.7567 35.1924 46.6893C35.1935 38.9097 41.2189 32.5267 48.8438 31.9264ZM35.913 18.1943L31.8186 26.5454C31.0216 26.2385 30.2395 26.4021 30.2395 26.4021L27.8727 17.6322C27.8727 17.6313 31.0111 16.2233 35.913 18.1943ZM30.2395 42.1383C26.1456 42.1383 22.8266 38.8209 22.8266 34.7245C22.8266 30.6336 26.1456 27.315 30.2395 27.315C34.3333 27.315 37.6498 30.6334 37.6498 34.7245C37.6498 38.8217 34.3333 42.1383 30.2395 42.1383Z" fill="#AEB1CF"/>
<path d="M30.2395 28.3506C26.7239 28.3506 23.865 31.2124 23.865 34.7289C23.865 38.244 26.7239 41.1038 30.2395 41.1038C33.7571 41.1038 36.6179 38.244 36.6179 34.7289C36.6179 31.2124 33.7569 28.3506 30.2395 28.3506ZM30.2395 40.7086C26.9427 40.7086 24.2591 38.0254 24.2591 34.728C24.2591 31.4283 26.9418 28.7442 30.2395 28.7442C33.5387 28.7442 36.2219 31.4274 36.2219 34.728C36.2219 38.0252 33.5387 40.7086 30.2395 40.7086Z" fill="#AEB1CF"/>
<path d="M30.2393 31.772C28.6117 31.772 27.2861 33.0977 27.2861 34.7257C27.2861 36.3553 28.6117 37.6808 30.2393 37.6808C31.8687 37.6808 33.1943 36.3553 33.1943 34.7257C33.1943 33.0977 31.8687 31.772 30.2393 31.772ZM30.2393 37.2858C28.8284 37.2858 27.6816 36.1374 27.6816 34.7255C27.6816 33.3148 28.8284 32.1669 30.2393 32.1669C31.6501 32.1669 32.799 33.3148 32.799 34.7255C32.7988 36.1374 31.65 37.2858 30.2393 37.2858Z" fill="#AEB1CF"/>
<path d="M49.29 34.0146C42.2912 34.0146 36.6177 39.6878 36.6177 46.6878C36.6177 53.6876 42.2912 59.3612 49.29 59.3612C56.2887 59.3612 61.9642 53.6876 61.9642 46.6878C61.9642 39.6878 56.2887 34.0146 49.29 34.0146ZM51.5093 56.7514H47.0439V42.3959H51.5093V56.7514V56.7514ZM49.246 40.6341C47.8366 40.6341 46.8983 39.635 46.929 38.4043C46.8993 37.1112 47.8375 36.1448 49.2776 36.1448C50.7166 36.1448 51.6262 37.1103 51.654 38.4043C51.6529 39.6361 50.7146 40.6341 49.246 40.6341Z" fill="#AEB1CF"/>
</svg>
