<svg width="73" height="100" viewBox="0 0 73 100" fill="none" xmlns="http://www.w3.org/2000/svg">
<path d="M72.8237 23.9636C72.818 23.505 72.6727 23.0522 72.3575 22.6942L53.0752 0.670629C53.0714 0.664975 53.0657 0.662604 53.059 0.65695C52.945 0.528551 52.8119 0.422768 52.671 0.329387C52.6291 0.302212 52.5868 0.277772 52.5428 0.252968C52.4183 0.186397 52.2899 0.131317 52.1549 0.0910101C52.1186 0.0804317 52.0872 0.0656586 52.0508 0.0561745C51.9043 0.0215214 51.7529 0 51.6008 0H4.21559C2.05378 0 0.293945 1.75983 0.293945 3.92164V96.0785C0.293945 98.2413 2.05378 100 4.21559 100H68.9214C71.0848 100 72.843 98.2413 72.843 96.0785V24.1833C72.843 24.1096 72.8317 24.0374 72.8237 23.9636ZM18.8812 91.2357C20.4097 91.2357 22.1019 90.9046 23.0995 90.5063L23.8635 94.4584C22.9328 94.9239 20.84 95.4207 18.1177 95.4207C10.3793 95.4207 6.39508 90.6048 6.39508 84.2286C6.39508 76.5902 11.8409 72.3393 18.6154 72.3393C21.2409 72.3393 23.2321 72.8706 24.1284 73.3359L23.0995 77.3551C22.0694 76.9232 20.641 76.524 18.8487 76.524C14.8293 76.524 11.7089 78.9484 11.7089 83.9306C11.7078 88.4133 14.3637 91.2357 18.8812 91.2357ZM45.4515 85.2576C45.4515 92.1664 41.9638 95.4542 36.1194 95.4542C30.4721 95.4542 27.1527 92.3311 27.1527 85.1905V72.705H32.235V85.5898C32.235 89.4434 33.6955 91.4022 36.2849 91.4022C38.9426 91.4022 40.4038 89.5431 40.4038 85.5898V72.705H45.4513V85.2576H45.4515ZM61.5629 95.0887C61.1968 94.4564 60.6668 92.6298 60.0022 89.8744C59.4047 87.0842 58.4415 86.3208 56.3811 86.2879H54.8531V95.0893H49.8403V73.0039C51.4659 72.7386 53.8899 72.5383 56.5803 72.5383C59.9024 72.5383 62.2269 73.0373 63.8202 74.2992C65.1491 75.3616 65.8805 76.9223 65.8805 78.9807C65.8805 81.8377 63.8556 83.7966 61.9295 84.4938V84.5943C63.4901 85.2252 64.3535 86.7196 64.9186 88.7789C65.6153 91.303 66.3125 94.2248 66.7441 95.0893H61.5629V95.0887V95.0887ZM4.21559 66.5853V3.92164H49.6409V23.986C49.6409 25.0684 50.518 25.9468 51.6017 25.9468H68.9214L68.9232 66.5851H4.21559V66.5853Z" fill="#AEB1CF"/>
<path d="M57.1453 76.2905C55.9158 76.2905 55.219 76.3908 54.8533 76.457V82.6342H56.8466C59.3695 82.6342 60.8658 81.3725 60.8658 79.4135C60.8656 77.3535 59.4698 76.325 57.1453 76.2905Z" fill="#AEB1CF"/>
<path d="M35.8753 36.9573L48.1588 33.8768L21.592 25.7412L29.7262 52.3074L32.8076 40.025L48.4767 55.6966L51.5464 52.6291L35.8753 36.9573Z" fill="#AEB1CF"/>
</svg>
