<svg width="74" height="100" viewBox="0 0 74 100" fill="none" xmlns="http://www.w3.org/2000/svg">
<path d="M17.1697 75.4673C16.0805 75.4673 15.3759 75.565 14.96 75.6597V89.7846C15.3768 89.8803 16.0489 89.8803 16.6569 89.8803C21.078 89.9128 23.9601 87.4789 23.9601 82.3215C23.9914 77.8377 21.3661 75.4673 17.1697 75.4673Z" fill="#15499F"/>
<path d="M39.9153 75.5312H39.8512C39.5304 76.8132 39.2107 78.4466 38.8583 79.695L37.5762 84.2754H42.3489L41.0037 79.695C40.6181 78.414 40.235 76.8132 39.9153 75.5312Z" fill="#15499F"/>
<path d="M73.3731 23.9636C73.3673 23.505 73.2218 23.0521 72.9069 22.694L53.6253 0.67066C53.6215 0.664487 53.6157 0.66249 53.61 0.656862C53.4951 0.528503 53.3631 0.422657 53.2213 0.329339C53.1792 0.302105 53.1369 0.277596 53.093 0.252723C52.9684 0.186274 52.8401 0.131082 52.7061 0.0907769C52.6698 0.0802468 52.6373 0.0653594 52.6008 0.0559186C52.4535 0.0206971 52.3041 0 52.1509 0H4.76482C2.60288 0 0.843262 1.7598 0.843262 3.92174V96.0784C0.843262 98.2413 2.60288 100 4.76482 100H69.4706C71.6343 100 73.3923 98.2413 73.3923 96.0784V24.1833C73.3921 24.1096 73.3807 24.0374 73.3731 23.9636ZM25.5607 90.9063C23.2875 92.7943 19.8272 93.6925 15.5998 93.6925C13.0698 93.6925 11.2757 93.5316 10.0587 93.3727V72.168C11.853 71.8808 14.19 71.7197 16.6559 71.7197C20.7559 71.7197 23.4148 72.457 25.4961 74.0262C27.7383 75.6921 29.1471 78.3497 29.1471 82.1614C29.1482 86.2936 27.6422 89.1438 25.5607 90.9063ZM44.7186 93.4673L43.0538 87.9269H36.8717L35.3345 93.4673H30.2737L36.8717 71.8808H43.2776L49.9719 93.4673H44.7186ZM65.1565 75.9803H59.2636V93.4673H54.3626V75.9803H48.5654V71.8808H65.1565V75.9803ZM4.76482 66.5852V3.92174H50.1901V23.9862C50.1901 25.0684 51.0672 25.9469 52.1509 25.9469H69.4706L69.4726 66.5852H4.76482Z" fill="#15499F"/>
<path d="M41.2384 41.6022C41.7555 40.3542 42.7742 39.358 44.036 38.8649C44.148 38.8184 44.2294 38.7081 44.2294 38.5815V34.7725C44.2294 34.648 44.148 34.5292 44.036 34.4824C42.7742 33.9902 41.7553 32.9931 41.2384 31.7471C40.7254 30.4991 40.7368 29.0717 41.2797 27.8355C41.3294 27.7235 41.3018 27.5823 41.2174 27.4933L38.5233 24.8001C38.375 24.6542 38.261 24.6992 38.1776 24.7335C36.9521 25.2743 35.5137 25.2961 34.2701 24.7756C33.0188 24.2609 32.0231 23.2404 31.5304 21.9804C31.4854 21.8669 31.3719 21.7876 31.2466 21.7876H27.4385C27.3131 21.7876 27.1944 21.8671 27.1513 21.9804C26.662 23.2395 25.6611 24.26 24.4169 24.7756C23.1709 25.2959 21.7367 25.2787 20.5012 24.7335C20.4231 24.7034 20.3122 24.654 20.1613 24.8001L17.4653 27.4933C17.379 27.5823 17.3512 27.7226 17.4006 27.8384C17.9484 29.075 17.9574 30.4991 17.4418 31.7471C16.9259 32.9931 15.9086 33.9902 14.6495 34.4824C14.5308 34.5292 14.4495 34.6403 14.4495 34.7725V38.5815C14.4495 38.7079 14.5308 38.8184 14.6495 38.8649C15.9075 39.358 16.9248 40.3542 17.4418 41.6022C17.9574 42.8491 17.9484 44.2776 17.4006 45.5174C17.3514 45.6285 17.3792 45.7649 17.4653 45.8549L20.1613 48.5519C20.3122 48.6988 20.4199 48.6509 20.5012 48.6136C21.1361 48.336 21.808 48.1924 22.5055 48.1924C23.1633 48.1924 23.8042 48.3217 24.4113 48.5735C25.6602 49.0915 26.6613 50.1073 27.1504 51.3673C27.1934 51.4842 27.3131 51.5615 27.4376 51.5615H31.2454C31.3703 51.5615 31.4837 51.486 31.5297 51.3673C32.0217 50.1093 33.0179 49.0926 34.2693 48.5735C35.5164 48.0559 36.9476 48.0737 38.1827 48.6138C38.2641 48.651 38.3724 48.6961 38.5237 48.5521L41.2159 45.8551C41.3022 45.7651 41.3298 45.6296 41.2791 45.5176C40.7368 44.2776 40.7234 42.8491 41.2384 41.6022ZM29.3403 44.0822C25.2521 44.0822 21.9357 40.76 21.9357 36.6728C21.9357 32.5915 25.2523 29.2631 29.3403 29.2631C33.4266 29.2631 36.7494 32.5915 36.7494 36.6728C36.7492 40.76 33.4264 44.0822 29.3403 44.0822Z" fill="#15499F"/>
<path d="M56.7944 46.7966C56.1607 46.5497 55.6493 46.0484 55.389 45.424C55.1304 44.7966 55.1371 44.0818 55.41 43.4595C55.4349 43.4024 55.4215 43.334 55.3773 43.2866L54.0257 41.9357C53.9509 41.8614 53.8933 41.8848 53.8514 41.9026C53.2366 42.1741 52.5139 42.1846 51.8906 41.9231C51.2624 41.6642 50.7617 41.1515 50.5148 40.5201C50.4928 40.4613 50.4344 40.4219 50.3721 40.4219H48.4592C48.397 40.4219 48.3367 40.4611 48.3156 40.5201C48.0696 41.1515 47.568 41.6642 46.9427 41.9231C46.3167 42.1846 45.5967 42.176 44.9783 41.9026C44.938 41.8859 44.8826 41.8614 44.8069 41.9357L43.4531 43.2866C43.41 43.334 43.3948 43.4024 43.4215 43.4624C43.6964 44.0818 43.7002 44.7966 43.4416 45.424C43.182 46.0497 42.6718 46.5495 42.0408 46.7966C41.9805 46.82 41.9402 46.877 41.9402 46.9427V48.8556C41.9402 48.9184 41.9805 48.9743 42.0408 48.9977C42.6718 49.2438 43.182 49.745 43.4416 50.3719C43.7011 50.9972 43.6962 51.7143 43.4215 52.3365C43.3966 52.3932 43.41 52.4611 43.4531 52.5079L44.8069 53.8618C44.8835 53.9344 44.9382 53.9106 44.9783 53.8904C45.296 53.7514 45.633 53.6798 45.9836 53.6798C46.3138 53.6798 46.6364 53.743 46.9409 53.8714C47.568 54.1299 48.0696 54.641 48.3156 55.273C48.3367 55.3323 48.397 55.3706 48.4592 55.3706H50.3721C50.4344 55.3706 50.4928 55.3323 50.5148 55.273C50.7617 54.6412 51.2624 54.1299 51.8906 53.8714C52.5166 53.6108 53.2346 53.6185 53.855 53.8904C53.8953 53.9104 53.9507 53.9324 54.0255 53.8618L55.3772 52.5079C55.4213 52.4609 55.4345 52.393 55.4098 52.3365C55.137 51.7142 55.1302 50.9972 55.3888 50.3719C55.6493 49.7439 56.1595 49.2438 56.7942 48.9977C56.8508 48.9752 56.891 48.9191 56.891 48.8556V46.9427C56.8902 46.8808 56.8501 46.8211 56.7944 46.7966ZM49.4158 51.6176C47.363 51.6176 45.698 49.9489 45.698 47.8966C45.698 45.8467 47.363 44.176 49.4158 44.176C51.4676 44.176 53.1342 45.8467 53.1342 47.8966C53.1353 49.9489 51.4674 51.6176 49.4158 51.6176Z" fill="#15499F"/>
</svg>
