<svg width="74" height="100" viewBox="0 0 74 100" fill="none" xmlns="http://www.w3.org/2000/svg">
<path d="M47.4086 83.6587H45.5742V90.3646C46.1025 90.4355 46.7383 90.4355 47.6555 90.4355C50.0902 90.4355 52.2436 89.5182 52.2436 87.0118C52.2436 84.6124 50.0913 83.6587 47.4086 83.6587Z" fill="#14988B"/>
<path d="M51.6786 76.8848C51.6786 75.0849 50.3019 74.1313 47.8682 74.1313C46.702 74.1313 46.0319 74.2022 45.5742 74.273V79.8125H47.3377C50.1601 79.8123 51.6786 78.6482 51.6786 76.8848Z" fill="#14988B"/>
<path d="M23.513 74.3428C22.3139 74.3428 21.5364 74.4481 21.0798 74.5534V90.1173C21.5375 90.2226 22.279 90.2226 22.9506 90.2226C27.82 90.2589 30.9943 87.5762 30.9943 81.895C31.0306 76.9548 28.1377 74.3428 23.513 74.3428Z" fill="#14988B"/>
<path d="M73.4712 23.9626C73.4654 23.5041 73.32 23.0521 73.005 22.6931L53.7234 0.668844C53.7196 0.663579 53.7138 0.660674 53.7082 0.655954C53.5933 0.526687 53.4613 0.421931 53.3195 0.328612C53.2774 0.301379 53.2351 0.275962 53.1911 0.251997C53.0666 0.184459 52.9382 0.130537 52.8042 0.0902322C52.7679 0.0797021 52.7354 0.0639069 52.6989 0.0561001C52.5517 0.0206971 52.4023 0 52.249 0H4.86297C2.70103 0 0.941406 1.75889 0.941406 3.92174V96.0784C0.941406 98.2402 2.70103 100 4.86297 100H69.5687C71.7325 100 73.4905 98.2404 73.4905 96.0784V24.1824C73.4903 24.1087 73.4789 24.0364 73.4712 23.9626ZM32.76 91.3526C30.2529 93.4339 26.4434 94.4219 21.7841 94.4219C18.9962 94.4219 17.0205 94.2458 15.6796 94.0704V70.7088C17.6556 70.3909 20.2311 70.213 22.9501 70.213C27.4666 70.213 30.3949 71.0249 32.689 72.7539C35.1596 74.5903 36.7126 77.518 36.7126 81.7192C36.7117 86.2707 35.0541 89.4111 32.76 91.3526ZM55.4201 92.2698C53.6882 93.6465 50.7957 94.4219 46.068 94.4219C43.4199 94.4219 41.4437 94.2447 40.2451 94.0697V70.7088C41.6563 70.4254 44.5152 70.213 47.1959 70.213C50.4778 70.213 52.4903 70.5309 54.2196 71.5554C55.8778 72.437 57.0784 74.06 57.0784 76.2141C57.0784 78.3299 55.8433 80.3061 53.1606 81.294V81.365C55.8778 82.1061 57.8903 84.1529 57.8903 87.2242C57.8901 89.3764 56.9021 91.069 55.4201 92.2698ZM4.86297 66.5843V3.92174H50.2883V23.9852C50.2883 25.0677 51.1654 25.946 52.249 25.946H69.5687L69.5707 66.5845H4.86297V66.5843Z" fill="#14988B"/>
<path d="M47.0657 25.4834H23.8824C23.3603 25.4834 22.9365 25.9066 22.9365 26.4284V33.2595C22.9365 33.7813 23.3603 34.2051 23.8824 34.2051H47.0647C47.5875 34.2051 48.0116 33.7815 48.0116 33.2595V26.4284C48.0116 25.9066 47.5884 25.4834 47.0657 25.4834Z" fill="#14988B"/>
<path d="M47.0657 36.3472H23.8824C23.3603 36.3472 22.9365 36.7704 22.9365 37.2931V44.1233C22.9365 44.646 23.3603 45.0697 23.8824 45.0697H47.0647C47.5875 45.0697 48.0116 44.646 48.0116 44.1233V37.2931C48.0116 36.7693 47.5884 36.3472 47.0657 36.3472Z" fill="#14988B"/>
<path d="M47.0657 47.1421H23.8824C23.3603 47.1421 22.9365 47.5657 22.9365 48.0871V54.9191C22.9365 55.44 23.3603 55.8632 23.8824 55.8632H47.0647C47.5875 55.8632 48.0116 55.44 48.0116 54.9191V48.0871C48.0116 47.5658 47.5884 47.1421 47.0657 47.1421Z" fill="#14988B"/>
</svg>
