<svg width="73" height="100" viewBox="0 0 73 100" fill="none" xmlns="http://www.w3.org/2000/svg">
<path d="M38.2189 83.6646H36.3425V90.5233C36.8848 90.5943 37.5335 90.5943 38.4718 90.5943C40.9631 90.5943 43.1651 89.656 43.1651 87.0941C43.165 84.64 40.9629 83.6646 38.2189 83.6646Z" fill="#14988B"/>
<path d="M42.5868 76.7347C42.5868 74.8945 41.1785 73.9199 38.6872 73.9199C37.4961 73.9199 36.8112 73.9907 36.3416 74.0624V79.7295H38.1471C41.0358 79.7315 42.5868 78.5405 42.5868 76.7347Z" fill="#14988B"/>
<path d="M13.7815 74.1367C12.556 74.1367 11.761 74.244 11.2927 74.353V90.271C11.7622 90.3801 12.52 90.3801 13.205 90.3801C18.1856 90.4166 21.4354 87.6726 21.4354 81.8611C21.4719 76.807 18.512 74.1367 13.7815 74.1367Z" fill="#14988B"/>
<path d="M72.9224 23.9646C72.9168 23.5059 72.7721 23.053 72.4573 22.6951L53.1748 0.67066C53.171 0.664487 53.1652 0.66249 53.1594 0.656862C53.0444 0.528503 52.9125 0.422657 52.7707 0.329339C52.7285 0.302105 52.6864 0.277233 52.6423 0.252723C52.5178 0.186274 52.3896 0.131082 52.2556 0.0907769C52.2193 0.0802468 52.1866 0.0653594 52.1503 0.0559186C52.0029 0.0216049 51.8536 0 51.7004 0H4.31414C2.15238 0 0.392578 1.7598 0.392578 3.92174V96.0784C0.392578 98.2413 2.1522 100 4.31414 100H69.0199C71.1837 100 72.9415 98.2413 72.9415 96.0784V24.1842C72.9415 24.1096 72.93 24.0374 72.9224 23.9646ZM23.2418 91.5345C20.6778 93.6647 16.7789 94.6748 12.0153 94.6748C9.16217 94.6748 7.14166 94.4938 5.76911 94.3148V70.4176C7.79162 70.0921 10.426 69.9122 13.2063 69.9122C17.8266 69.9122 20.8239 70.7432 23.169 72.5106C25.6966 74.388 27.2836 77.3838 27.2836 81.6807C27.2834 86.3377 25.5864 89.5487 23.2418 91.5345ZM46.4136 92.4728C44.6443 93.8811 41.6848 94.6748 36.8477 94.6748C34.1396 94.6748 32.118 94.4938 30.8905 94.3148V70.4176C32.3368 70.1286 35.2583 69.9122 38.0018 69.9122C41.3593 69.9122 43.4168 70.2377 45.1861 71.2833C46.8827 72.1861 48.11 73.8452 48.11 76.0472C48.11 78.213 46.8462 80.235 44.1022 81.246V81.3188C46.8825 82.0761 48.9391 84.17 48.9391 87.3103C48.9411 89.5124 47.9283 91.2453 46.4136 92.4728ZM67.5668 74.6055H58.2165V80.1642H66.952V84.6391H58.2165V94.4219H52.6942V70.0921H67.5668V74.6055ZM4.31414 66.5863V3.92247H49.7396V23.9871C49.7396 25.0695 50.6165 25.9478 51.7004 25.9478H69.0199L69.0219 66.5863H4.31414V66.5863Z" fill="#14988B"/>
<path d="M34.0572 54.4243C33.6542 54.2587 33.3296 53.9905 33.0964 53.6632C32.8806 53.667 32.6689 53.6775 32.4492 53.6775C25.315 53.6775 20.3437 51.1806 20.3437 48.9403V45.2658C22.5701 47.305 27.1504 48.6071 32.4492 48.6071C32.7718 48.6071 33.0826 48.5866 33.3995 48.5773C33.5828 48.4108 33.7858 48.2658 34.0251 48.1667C34.3123 48.0541 34.5258 47.8459 34.6297 47.596C34.7335 47.3462 34.7297 47.045 34.6209 46.7961C34.553 46.6481 34.5209 46.4884 34.4913 46.3284C33.8317 46.3744 33.1553 46.405 32.4501 46.405C25.316 46.405 20.3445 43.9076 20.3445 41.6678V37.9931C22.571 40.0323 27.1513 41.3341 32.4501 41.3341C37.7566 41.3341 42.3368 40.0325 44.5617 37.9913V40.435H44.6854C45.1881 40.435 45.6436 40.6198 46.0153 40.9167V37.7611C46.0153 37.2057 45.8542 36.6423 45.5307 36.0875L45.4887 36.0165C45.8239 35.4708 46.0153 34.8931 46.0153 34.2914V30.3851C46.0153 29.857 45.8678 29.3185 45.5766 28.7862L45.5423 28.7244C45.6285 28.4875 45.6897 28.2442 45.6897 27.9853C45.6897 24.8292 38.8691 23.1255 32.4501 23.1255C26.0373 23.1255 19.2192 24.8292 19.2192 27.9853C19.2192 28.2444 19.2791 28.4877 19.3661 28.7244L19.3318 28.7862C19.0387 29.3185 18.8937 29.857 18.8937 30.3851V34.2914C18.8937 34.8922 19.0829 35.4686 19.4178 36.0147L19.3737 36.0895C19.0543 36.6443 18.8935 37.2057 18.8935 37.7611V41.6667C18.8935 42.2489 19.0716 42.8059 19.3893 43.3384L19.3735 43.3627C19.0542 43.9156 18.8933 44.4791 18.8933 45.0325V48.9383C18.8933 52.4079 24.8479 55.128 32.4497 55.128C33.1997 55.128 33.9274 55.0937 34.6411 55.0437C34.634 55.0227 34.6373 54.9978 34.6282 54.9787C34.5249 54.7296 34.3161 54.5247 34.0572 54.4243ZM20.3447 31.04C22.5198 32.8844 27.565 33.8395 32.4503 33.8395C37.3426 33.8395 42.3849 32.8835 44.5619 31.04V34.2914C44.5619 36.5312 39.5912 39.0269 32.4503 39.0269C25.3161 39.0269 20.3447 36.5314 20.3447 34.2914V31.04V31.04Z" fill="#14988B"/>
<path d="M48.5543 53.8303C48.6874 53.7768 48.7947 53.6733 48.8462 53.5487C48.8971 53.4242 48.8971 53.2769 48.8424 53.1533C48.6787 52.7789 48.7629 52.3387 49.0483 52.0524L49.8103 51.2893C50.0018 51.1006 50.2487 50.9964 50.5084 50.9964H50.6874L50.8913 51.075C51.0501 51.1449 51.1852 51.1382 51.3057 51.0883C51.4341 51.0347 51.5374 50.9294 51.5853 50.8031C51.7309 50.4412 52.0601 50.2103 52.4412 50.1827V49.4732C52.4412 49.3995 52.3932 49.33 52.3235 49.3004C51.5719 49.0064 50.9632 48.4122 50.6549 47.6669C50.3457 46.9202 50.3533 46.0671 50.6788 45.3291C50.7084 45.2624 50.6932 45.1802 50.6405 45.1261L49.0312 43.5171C48.9432 43.4282 48.8769 43.4563 48.8263 43.4768C48.093 43.8015 47.2369 43.8125 46.4902 43.5019C45.7453 43.1951 45.1498 42.5841 44.855 41.8321C44.8283 41.7646 44.7611 41.7163 44.6847 41.7163H42.4098C42.3352 41.7163 42.2653 41.7646 42.2395 41.8321C41.9456 42.585 41.3492 43.1951 40.6042 43.5019C39.8622 43.8116 39.0053 43.8035 38.2662 43.4768C38.2203 43.4581 38.1533 43.428 38.0632 43.5171L36.4534 45.1261C36.4016 45.1802 36.3858 45.2624 36.4165 45.33C36.7397 46.0691 36.7488 46.9202 36.441 47.6671C36.1322 48.4124 35.5233 49.0064 34.7704 49.3005C34.701 49.3292 34.6545 49.3957 34.6545 49.4734V51.7492C34.6545 51.824 34.701 51.891 34.7704 51.9196C35.5244 52.2134 36.1313 52.8082 36.441 53.5529C36.7488 54.2996 36.7399 55.1518 36.4151 55.8919C36.3858 55.9579 36.4016 56.0402 36.4534 56.0939L38.0632 57.7041C38.1533 57.7942 38.2175 57.7644 38.2671 57.7406C38.6453 57.576 39.0474 57.4897 39.463 57.4897C39.8575 57.4897 40.2404 57.5663 40.6042 57.7176C41.3492 58.0258 41.9456 58.6348 42.2395 59.3873C42.2655 59.4543 42.3352 59.5022 42.4098 59.5022H44.6847C44.7622 59.5022 44.8283 59.4561 44.855 59.3873C45.1498 58.6346 45.7442 58.0258 46.4902 57.7176C47.217 57.4169 48.0412 57.4207 48.764 57.7165C48.7745 57.6199 48.7983 57.5249 48.8386 57.4331C48.8971 57.3038 48.8971 57.1546 48.8453 57.0289C48.7947 56.9055 48.6874 56.8022 48.561 56.7524C48.1752 56.5974 47.9301 56.2374 47.9301 55.8294V54.7513C47.9303 54.3425 48.1752 53.9815 48.5543 53.8303ZM43.547 55.0338C41.1075 55.0338 39.1229 53.0509 39.1229 50.6077C39.1229 48.1711 41.1057 46.1829 43.547 46.1829C45.9875 46.1829 47.9742 48.17 47.9742 50.6077C47.9722 53.0509 45.9875 55.0338 43.547 55.0338Z" fill="#14988B"/>
<path d="M57.3185 54.667C56.9623 54.5282 56.6731 54.2458 56.5279 53.8943C56.3823 53.5401 56.3861 53.136 56.5391 52.7865C56.5546 52.7549 56.5469 52.7146 56.5219 52.6879L55.7599 51.9269C55.7178 51.8856 55.6853 51.8993 55.6622 51.9087C55.3156 52.0619 54.9079 52.0676 54.5564 51.9199C54.2022 51.7745 53.9197 51.4853 53.781 51.1293C53.7686 51.0966 53.737 51.0737 53.7005 51.0737H52.6234C52.5871 51.0737 52.5535 51.0948 52.5411 51.1293C52.4032 51.4855 52.1199 51.7747 51.7675 51.9199C51.416 52.0674 51.0101 52.0636 50.6606 51.9087C50.6386 51.8991 50.6061 51.8856 50.564 51.9269L49.8009 52.6879C49.777 52.7146 49.7684 52.7529 49.7828 52.7865C49.9387 53.136 49.9407 53.54 49.7951 53.8943C49.6477 54.2458 49.3603 54.5282 49.0043 54.667C48.9707 54.6814 48.9487 54.7121 48.9487 54.7493V55.8283C48.9487 55.8628 48.9707 55.8943 49.0043 55.9087C49.3605 56.0485 49.6477 56.3299 49.7951 56.6823C49.9407 57.0345 49.9377 57.4395 49.7828 57.7909C49.7684 57.8215 49.777 57.8598 49.8009 57.8865L50.564 58.6487C50.6061 58.6906 50.6377 58.6774 50.6606 58.6669C50.8396 58.5882 51.0302 58.5472 51.2274 58.5472C51.4131 58.5472 51.5951 58.5835 51.7655 58.6554C52.1197 58.8021 52.4032 59.0893 52.541 59.4463C52.5544 59.4788 52.5869 59.5009 52.6232 59.5009H53.7004C53.7368 59.5009 53.7684 59.4808 53.7808 59.4463C53.9197 59.091 54.202 58.8019 54.5562 58.6554C54.9095 58.5089 55.3135 58.5149 55.6629 58.6669C55.6851 58.6776 55.7176 58.6888 55.7597 58.6487L56.5208 57.8865C56.5448 57.8617 56.5533 57.8234 56.5389 57.7909C56.3839 57.4405 56.3821 57.0345 56.5266 56.6823C56.6731 56.3301 56.9603 56.0485 57.3184 55.9087C57.351 55.8943 57.373 55.8628 57.373 55.8283V54.7493C57.3741 54.7141 57.3512 54.6816 57.3185 54.667ZM53.1615 57.3853C52.005 57.3853 51.0667 56.445 51.0667 55.2885C51.0667 54.1329 52.005 53.1906 53.1615 53.1906C54.3171 53.1906 55.2574 54.1327 55.2574 55.2885C55.2574 56.445 54.3171 57.3853 53.1615 57.3853Z" fill="#14988B"/>
</svg>
