<svg width="74" height="100" viewBox="0 0 74 100" fill="none" xmlns="http://www.w3.org/2000/svg">
<path d="M14.841 75.4312C13.7577 75.4312 13.055 75.5268 12.6404 75.6216V89.6907C13.055 89.7864 13.7246 89.7864 14.3316 89.7864C18.7333 89.8171 21.6049 87.3939 21.6049 82.2574C21.6362 77.7912 19.0205 75.4312 14.841 75.4312Z" fill="#AEB1CF"/>
<path d="M37.0431 75.4312C35.9598 75.4312 35.257 75.5268 34.8425 75.6216V89.6907C35.257 89.7864 35.9268 89.7864 36.5337 89.7864C40.9353 89.8171 43.8074 87.3939 43.8074 82.2574C43.8381 77.7912 41.2225 75.4312 37.0431 75.4312Z" fill="#AEB1CF"/>
<path d="M73.02 23.9636C73.0144 23.5045 72.8697 23.0517 72.5549 22.694L53.2724 0.67066C53.2686 0.664487 53.2628 0.66249 53.257 0.656862C53.1421 0.528503 53.0101 0.422294 52.8683 0.329339C52.8262 0.301561 52.7841 0.277233 52.74 0.252723C52.6154 0.186274 52.4872 0.131082 52.3532 0.0907769C52.3169 0.0802468 52.2843 0.0653594 52.2479 0.0553739C52.1005 0.0216049 51.9513 0 51.7981 0H4.4118C2.25003 0 0.490234 1.7598 0.490234 3.92174V96.0784C0.490234 98.2413 2.24985 100 4.4118 100H69.1176C71.2813 100 73.0391 98.2413 73.0391 96.0784V24.1833C73.0391 24.1096 73.0277 24.0374 73.02 23.9636ZM23.2002 90.8068C20.9346 92.6881 17.4893 93.5813 13.2785 93.5813C10.7582 93.5813 8.9717 93.4214 7.76001 93.2625V72.1429C9.54704 71.8568 11.8755 71.6978 14.3317 71.6978C18.4147 71.6978 21.0628 72.4312 23.1367 73.9937C25.3698 75.6531 26.7729 78.3012 26.7729 82.0982C26.7727 86.2132 25.2725 89.0509 23.2002 90.8068ZM45.4026 90.8068C43.1365 92.6881 39.6906 93.5813 35.4805 93.5813C32.9602 93.5813 31.1735 93.4214 29.9611 93.2625V72.1429C31.7482 71.8568 34.0766 71.6978 36.5337 71.6978C40.6165 71.6978 43.2648 72.4312 45.3376 73.9937C47.5722 75.6531 48.9738 78.3012 48.9738 82.0982C48.9745 86.2132 47.4743 89.0509 45.4026 90.8068ZM57.4277 93.6772C54.9709 93.6772 52.5468 93.0396 51.3345 92.3695L52.3235 88.3501C53.6314 89.0194 55.6408 89.6887 57.7156 89.6887C59.9475 89.6887 61.1288 88.7647 61.1288 87.3602C61.1288 86.0198 60.1063 85.2547 57.5233 84.329C53.9502 83.0854 51.6198 81.1084 51.6198 77.9804C51.6198 74.3116 54.6835 71.5055 59.7559 71.5055C62.18 71.5055 63.9665 72.0158 65.2428 72.5894L64.158 76.5137C63.2984 76.0992 61.7654 75.4921 59.6602 75.4921C57.5548 75.4921 56.5342 76.4494 56.5342 77.5659C56.5342 78.937 57.7454 79.5449 60.5219 80.597C64.3171 82.0006 66.1038 83.9766 66.1038 87.0087C66.1047 90.6153 63.3282 93.6772 57.4277 93.6772ZM4.4118 66.5852V3.92174H49.8373V23.9862C49.8373 25.0684 50.7142 25.9469 51.7981 25.9469H69.1176L69.1195 66.5852H4.4118Z" fill="#AEB1CF"/>
<path d="M49.77 26.0681C49.768 25.8789 49.7086 25.6929 49.5785 25.5454L41.6395 16.4759C41.6375 16.4739 41.6348 16.473 41.6328 16.4712C41.5858 16.4176 41.5304 16.373 41.4728 16.3361C41.4556 16.3241 41.4385 16.314 41.4202 16.3045C41.3695 16.2773 41.316 16.2539 41.2613 16.2381C41.245 16.2343 41.2335 16.227 41.2183 16.2232C41.1569 16.2085 41.0957 16.2007 41.0326 16.2007H21.5206C20.6303 16.2007 19.9055 16.9249 19.9055 17.8154V55.7614C19.9055 56.6517 20.6303 57.3758 21.5206 57.3758H48.1645C49.0558 57.3758 49.7796 56.6519 49.7796 55.7614V26.1582C49.7776 26.128 49.7738 26.0979 49.77 26.0681ZM21.5206 55.5259V17.8152H40.2246V26.0767C40.2246 26.5229 40.5865 26.8837 41.0326 26.8837H48.1644V55.5258H21.5206V55.5259Z" fill="#AEB1CF"/>
<path d="M42.8883 34.2349L35.2364 37.3144C35.1803 37.3358 35.1445 37.3904 35.1445 37.4513V46.6415C35.1445 46.6907 35.1689 46.7368 35.2092 46.7641C35.2337 46.7808 35.2618 46.7884 35.2916 46.7884C35.3103 46.7884 35.329 46.7846 35.3461 46.7779L42.9978 43.6984C43.0545 43.6758 43.0908 43.6223 43.0908 43.5609V34.3712C43.0908 34.322 43.0657 34.2761 43.0258 34.2487C42.9851 34.2209 42.9325 34.2162 42.8883 34.2349ZM35.951 45.662V41.0023L41.7117 43.3456L35.951 45.662ZM42.2823 42.8837L35.9519 40.3113V37.8966L42.2823 35.3485V42.8837Z" fill="#AEB1CF"/>
<path d="M34.4476 37.3143L26.7959 34.2348C26.7519 34.2161 26.6997 34.2208 26.6584 34.2497C26.6172 34.278 26.594 34.3228 26.594 34.3722V43.5625C26.594 43.6233 26.6314 43.6759 26.6859 43.6994L34.338 46.7789C34.3556 46.7856 34.3743 46.7899 34.393 46.7899C34.4222 46.7899 34.4509 46.7809 34.4754 46.7651C34.5166 46.7378 34.54 46.6919 34.54 46.6425V37.4528C34.5409 37.3904 34.5035 37.3357 34.4476 37.3143ZM33.7329 45.662L28.1957 43.4345L33.7329 40.9975V45.662ZM33.7329 40.2976L27.403 43.0837V35.3492L33.7329 37.8973V40.2976Z" fill="#AEB1CF"/>
<path d="M42.8782 33.5878C42.8782 33.526 42.8418 33.4734 42.7843 33.45L34.9268 30.383C34.8923 30.3686 34.8531 30.3695 34.8192 30.383L27.168 33.4625C27.1119 33.4839 27.0761 33.5391 27.0745 33.5999C27.0745 33.6597 27.111 33.7134 27.1669 33.7372L34.7219 36.8047C34.7406 36.8114 34.7593 36.8152 34.778 36.8152C34.7952 36.8152 34.8137 36.8114 34.8306 36.8056L42.7843 33.7261C42.8418 33.7027 42.8782 33.6486 42.8782 33.5878ZM34.3865 35.7946L28.9859 33.6027L34.3865 31.4287V35.7946ZM35.0289 35.8615V31.2898L40.9098 33.5849L35.0289 35.8615Z" fill="#AEB1CF"/>
</svg>
