<svg width="73" height="100" viewBox="0 0 73 100" fill="none" xmlns="http://www.w3.org/2000/svg">
<path d="M32.4913 40.8893C32.7484 40.6887 32.9816 40.4856 33.1894 40.2881C32.61 40.43 32.02 40.4332 31.426 40.3789C30.7134 40.3887 31.5611 40.7461 32.4913 40.8893Z" fill="#AEB1CF"/>
<path d="M35.252 39.4252C35.6763 38.8394 35.9858 38.1981 36.0949 37.5347C35.9996 38.0075 35.7432 38.4157 35.5015 38.8463C34.169 39.6851 35.3763 38.3482 35.5009 37.84C34.0678 39.6435 35.3037 38.9214 35.252 39.4252Z" fill="#AEB1CF"/>
<path d="M36.6639 35.7507C36.75 34.4671 36.4112 34.8728 36.2974 35.3627C36.4302 35.4318 36.5352 36.2674 36.6639 35.7507Z" fill="#AEB1CF"/>
<path d="M28.7234 18.2065C29.1038 18.2747 29.5452 18.327 29.4833 18.4179C29.8994 18.3267 29.994 18.2428 28.7234 18.2065Z" fill="#AEB1CF"/>
<path d="M29.4645 18.4516L29.4831 18.4185L29.2144 18.474L29.4645 18.4516Z" fill="#AEB1CF"/>
<path d="M28.4939 44.9758C27.4681 44.4953 26.529 43.7704 25.7567 42.8827C26.1665 43.4824 26.6088 44.0657 27.1804 44.5237C26.2135 44.1959 24.9214 42.1802 24.5444 42.0981C26.2116 45.083 31.3081 47.3329 33.9769 46.2164C32.7422 46.2622 31.1734 46.2417 29.7857 45.7291C29.252 45.4543 28.5444 44.9114 28.5378 44.7325C28.5113 44.8019 28.4665 44.8713 28.4939 44.9758Z" fill="#AEB1CF"/>
<path d="M43.5848 27.7878C44.5384 29.1692 45.0823 31.3105 45.3318 32.1973C45.1413 31.1159 44.8337 30.0686 44.458 29.055C44.7476 29.1768 43.9914 26.8301 44.8343 28.3843C43.934 25.0714 40.981 21.9762 38.2643 20.5235C38.5968 20.8276 39.0164 21.2096 38.8656 21.2695C37.5145 20.4651 37.7523 20.4023 37.5586 20.0626C36.458 19.6146 36.3858 20.0986 35.6567 20.0635C33.5823 18.9632 33.1823 19.0803 31.2735 18.391L31.3602 18.7967C29.9858 18.3389 29.759 18.9705 28.2735 18.7982C28.183 18.7276 28.7495 18.5427 29.2154 18.4749C27.8867 18.6503 27.9489 18.2131 26.6489 18.5232C26.9694 18.2982 27.3082 18.1497 27.6501 17.9585C26.5666 18.0244 25.0631 18.5891 25.5274 18.0755C23.7599 18.8642 20.6208 19.9711 18.8593 21.6228L18.8038 21.2528C17.9965 22.2219 15.2839 24.1468 15.0679 25.4017L14.8521 25.4522C14.4319 26.1632 14.1603 26.9695 13.8272 27.7011C13.278 28.637 13.0221 28.0613 13.1 28.208C12.0196 30.3988 11.483 32.2395 11.0193 33.7493C11.3496 34.243 11.0272 36.7222 11.1521 38.7064C10.6095 48.5054 18.0294 58.0193 26.1394 60.2161C27.3281 60.6414 29.0962 60.625 30.5997 60.6688C28.8255 60.1615 28.5962 60.4 26.8681 59.7975C25.6214 59.2104 25.3483 58.5401 24.4653 57.7739L24.8148 58.3915C23.083 57.7786 23.8076 57.6332 22.3987 57.1868L22.7719 56.6994C22.2107 56.6568 21.2852 55.7534 21.0322 55.2534L20.4183 55.2776C19.6805 54.3672 19.2874 53.7114 19.3161 53.2032L19.1177 53.5565C18.8928 53.1707 16.4035 50.1426 17.695 50.8474C17.4549 50.6281 17.136 50.4903 16.7902 49.8622L17.0533 49.5616C16.4319 48.7619 15.9095 47.737 15.9489 47.3953C16.2805 47.8433 16.5104 47.9269 16.7382 48.0035C15.1688 44.1092 15.0805 47.789 13.8918 44.0395L14.1433 44.0193C13.9505 43.7291 13.8335 43.4136 13.6783 43.1042L13.7877 42.0133C12.6578 40.7067 13.4716 36.4578 13.6347 34.1275C13.7477 33.1799 14.5779 32.1714 15.2095 30.5894L14.825 30.5231C15.5603 29.2405 19.024 25.3714 20.6281 25.5705C21.4051 24.5944 20.4738 25.567 20.3218 25.3209C22.0284 23.5547 22.5653 24.073 23.717 23.7553C24.9593 23.0181 22.6508 24.043 23.2398 23.4743C25.3874 22.9257 24.7618 22.2273 27.5634 21.9487C27.859 22.1168 26.8776 22.2086 26.6312 22.4266C28.4205 21.5512 32.2933 21.7503 34.8091 22.9124C37.728 24.2765 41.0075 28.3089 41.1369 32.1029L41.2839 32.1427C41.2094 33.6509 41.5148 35.3947 40.9854 36.9969L41.3457 36.2386C41.3883 37.3913 41.0085 37.9506 40.6662 38.9405L40.0501 39.2483C39.546 40.2272 40.099 39.8698 39.7378 40.6487C38.9507 41.3483 37.3495 42.8382 36.8372 42.9742C36.4631 42.966 37.0905 42.5329 37.1728 42.3629C36.1192 43.0862 36.3277 43.449 34.7164 43.8884L34.6691 43.7837C30.6952 45.6531 25.1757 41.9483 25.2483 36.8935C25.2057 37.2143 25.1278 37.1342 25.0397 37.2638C24.8347 34.6629 26.2407 32.0506 28.6123 30.984C30.9318 29.8358 33.6514 30.307 35.3129 31.8553C34.4003 30.6597 32.5836 29.3925 30.4306 29.5111C28.3214 29.5446 26.3486 30.8846 25.6902 32.3395C24.6098 33.0197 24.4845 34.9619 24.0136 35.3171C23.3801 39.9726 25.205 41.984 28.2921 44.3499C28.541 44.5177 28.5706 44.6124 28.5492 44.6985C28.5508 44.6966 28.5508 44.6941 28.5527 44.6925C32.1946 46.0531 35.9571 45.7231 39.1082 43.1966C39.9097 42.5723 40.7858 41.5102 41.0387 41.4953C40.6577 42.0685 41.1037 41.7711 40.811 42.277C41.6097 40.9887 40.464 41.7528 41.6369 40.0521L42.07 40.6487C41.9091 39.5793 43.398 38.2805 43.2469 36.5894C43.5886 36.072 43.628 37.1458 43.2656 38.3357C43.7684 37.0155 43.398 36.8036 43.5274 35.7143C43.6671 36.0805 43.8504 36.4695 43.9444 36.8559C43.6167 35.5802 44.2807 34.7077 44.445 33.9663C44.2832 33.8944 43.9394 34.5304 43.8608 33.0234C43.8722 32.3689 44.0428 32.6802 44.1088 32.5193C43.9804 32.4455 43.6432 31.9439 43.4381 30.9815C43.587 30.7553 43.8356 31.5676 44.0378 31.601C43.9078 30.8358 43.6835 30.2525 43.6744 29.6654C43.0832 28.4301 43.4652 29.8301 42.9857 29.1351C42.3558 27.1724 43.5069 28.6793 43.5848 27.7878Z" fill="#AEB1CF"/>
<path d="M28.5374 44.733C28.5418 44.7216 28.5456 44.7099 28.5484 44.6982C28.5402 44.7071 28.5371 44.7191 28.5374 44.733Z" fill="#AEB1CF"/>
<path d="M23.5464 41.8566C24.0148 42.4929 24.3864 43.1822 24.9845 43.6796C24.5543 42.8396 24.2344 42.4926 23.6464 41.3569L23.5464 41.8566Z" fill="#AEB1CF"/>
<path d="M24.7536 41.3132C24.5056 41.039 24.3589 40.7091 24.1946 40.3804C24.3517 40.9583 24.6734 41.4548 24.9728 41.9599L24.7536 41.3132Z" fill="#AEB1CF"/>
<path d="M43.0032 41.281C43.7054 39.9608 44.1593 38.5173 44.3498 37.0542L44.2451 37.3167C44.0533 38.6807 43.6388 40.0302 43.0032 41.281Z" fill="#AEB1CF"/>
<path d="M30.5602 17.6519C29.894 17.7077 29.2306 17.7411 28.5757 17.8257L28.864 17.8651C29.346 17.6884 30.0489 17.7683 30.5602 17.6519Z" fill="#AEB1CF"/>
<path d="M12.141 27.6105C12.6605 26.4399 11.9378 27.2872 11.9451 26.8613C12.0561 27.8894 11.1716 28.2885 12.141 27.6105Z" fill="#AEB1CF"/>
<path d="M11.1549 30.126C10.5375 30.9149 10.8709 31.0831 10.8056 31.6197C11.029 30.9342 11.0697 30.5225 11.1549 30.126Z" fill="#AEB1CF"/>
<path d="M53.1606 78.3659C53.1606 77.1409 52.2237 76.4927 50.5663 76.4927C49.7736 76.4927 49.3174 76.5406 49.0051 76.5889V80.3599H50.2064C52.1275 80.3599 53.1606 79.5671 53.1606 78.3659Z" fill="#AEB1CF"/>
<path d="M21.1657 76.6367C20.349 76.6367 19.8206 76.7086 19.5083 76.7806V87.3733C19.8206 87.4452 20.325 87.4452 20.7815 87.4452C24.096 87.4692 26.2575 85.644 26.2575 81.7768C26.2818 78.414 24.3121 76.6367 21.1657 76.6367Z" fill="#AEB1CF"/>
<path d="M50.2543 82.9775H49.0051V87.5412C49.3657 87.5892 49.7979 87.5892 50.4221 87.5892C52.0795 87.5892 53.5445 86.9649 53.5445 85.2592C53.5445 83.6258 52.0795 82.9775 50.2543 82.9775Z" fill="#AEB1CF"/>
<path d="M71.7083 22.2555L53.2049 1.15457C52.5613 0.420819 51.633 0 50.6569 0H3.92144C1.75583 0 0 1.75583 0 3.92144V96.0786C0 98.2445 1.75583 100 3.92144 100H68.6269C70.7928 100 72.5487 98.2442 72.5487 96.0782V24.4898C72.549 23.6677 72.2502 22.8737 71.7083 22.2555ZM27.4589 88.2136C25.7535 89.6306 23.1592 90.3032 19.9889 90.3032C18.0911 90.3032 16.7463 90.183 15.8334 90.0628V74.1622C17.1785 73.9458 18.9318 73.826 20.7816 73.826C23.8561 73.826 25.8494 74.3786 27.411 75.5553C29.0923 76.8042 30.1491 78.7979 30.1491 81.6562C30.1488 84.7546 29.0201 86.8925 27.4589 88.2136ZM42.8797 90.135H32.5516V73.9461H42.5437V76.9487H36.2267V80.3114H42.1835V83.2896H36.2267V87.1329H42.88V90.135H42.8797ZM55.7068 88.8382C54.5298 89.7748 52.5601 90.3035 49.3415 90.3035C47.5399 90.3035 46.1948 90.1833 45.3784 90.0631V74.1625C46.3393 73.9704 48.2847 73.8263 50.1103 73.8263C52.344 73.8263 53.7131 74.0427 54.89 74.7392C56.0188 75.3395 56.8355 76.4446 56.8355 77.9099C56.8355 79.3509 55.9948 80.696 54.1695 81.3685V81.4165C56.0188 81.9212 57.3878 83.3142 57.3878 85.4038C57.3878 86.8685 56.7153 88.0215 55.7068 88.8382ZM3.92144 66.5843V3.92175H49.3469V23.9851C49.3469 25.0674 50.2241 25.946 51.3077 25.946H68.6272L68.6291 66.5843H3.92144Z" fill="#AEB1CF"/>
</svg>
