<svg width="74" height="100" viewBox="0 0 74 100" fill="none" xmlns="http://www.w3.org/2000/svg">
<path d="M14.2515 75.2964C13.2281 75.2964 12.5651 75.3863 12.1731 75.4772V88.7624C12.5651 88.8543 13.1976 88.8543 13.77 88.8543C17.928 88.883 20.6386 86.5928 20.6386 81.7435C20.6691 77.5253 18.1985 75.2964 14.2515 75.2964Z" fill="#AEB1CF"/>
<path d="M73.0784 23.9651C73.0728 23.5059 72.9281 23.0532 72.6133 22.6951L53.3308 0.67066C53.327 0.665031 53.3212 0.663034 53.3154 0.656862C53.2004 0.528503 53.0685 0.422657 52.9267 0.329339C52.8845 0.302105 52.8424 0.277596 52.7983 0.252723C52.6738 0.186274 52.5456 0.131626 52.4116 0.0913215C52.3753 0.0802468 52.3426 0.0653594 52.3063 0.0559186C52.1589 0.0216049 52.0096 0 51.8564 0H4.47015C2.30838 0 0.548584 1.7598 0.548584 3.92174V96.0784C0.548584 98.2413 2.3082 100 4.47015 100H69.1759C71.3397 100 73.0975 98.2413 73.0975 96.0784V24.1842C73.0975 24.1111 73.086 24.0374 73.0784 23.9651ZM22.1446 89.8168C20.0052 91.5939 16.7524 92.4374 12.7762 92.4374C10.3957 92.4374 8.70925 92.289 7.5631 92.1358V72.1929C9.25046 71.9229 11.4496 71.7707 13.7701 71.7707C17.6261 71.7707 20.1268 72.4628 22.0847 73.9401C24.1938 75.5055 25.5189 78.0062 25.5189 81.5926C25.5189 85.4777 24.1034 88.1596 22.1446 89.8168ZM41.4837 92.2266H28.5298V71.9218H41.0623V75.6872H33.1397V79.9045H40.6102V83.6393H33.1397V88.461H41.4846V92.2264H41.4837V92.2266ZM62.0873 92.2266L61.7867 84.4534C61.6966 82.0138 61.6048 79.0614 61.6048 76.1086H61.5167C60.8829 78.6994 60.0403 81.5906 59.2562 83.971L56.7852 91.8963H53.2006L51.0322 84.0322C50.3688 81.6522 49.6774 78.7598 49.1939 76.1095H49.1336C49.0131 78.8508 48.923 81.9833 48.7738 84.5138L48.412 92.2266H44.1629L45.4594 71.9218H51.5745L53.563 78.6992C54.1948 81.0487 54.8268 83.5803 55.2785 85.9583H55.3695C55.9421 83.6097 56.6353 80.927 57.2978 78.6687L59.4682 71.9207H65.4617L66.5761 92.2257H62.0877V92.2266H62.0873ZM4.47015 66.5863V3.92247H49.8956V23.9876C49.8956 25.0699 50.7725 25.9484 51.8564 25.9484H69.1759L69.1779 66.5863H4.47015V66.5863Z" fill="#AEB1CF"/>
<path d="M51.2907 30.5164H37.2469L34.5547 30.4863C34.3526 29.9812 34.2693 29.503 34.2555 29.0971C34.1534 26.2392 36.8965 23.7666 38.0813 22.836C39.6505 21.6029 40.469 20.3429 40.9067 18.488C41.1948 17.2634 40.5094 15.8843 39.7251 14.5746L39.0062 13.3821C37.1781 10.3649 35.4517 7.51358 34.5705 3.78301C34.4977 3.47618 34.3526 3.16064 33.827 3.16064C33.4526 3.16064 33.0587 3.3422 32.8446 3.61162C32.6734 3.82931 32.6291 4.08221 32.7063 4.41046C33.3722 7.22436 34.5369 9.98688 36.3731 13.1018L36.6035 13.4901C37.8898 15.6497 40.0419 19.2634 35.8644 22.003C34.9878 22.5775 34.1592 23.1203 33.5995 23.8527C32.5603 25.2103 32.1543 27.1557 32.4855 29.1896C32.5603 29.645 32.675 30.086 32.8121 30.5152H21.5151C14.3154 30.5152 8.479 36.3516 8.479 43.5513C8.479 50.7519 14.3154 56.5885 21.5151 56.5885C28.5162 56.5885 34.2271 51.069 34.5378 44.1449H38.2689C38.5792 51.069 44.291 56.5885 51.2916 56.5885C58.4913 56.5885 64.3277 50.7521 64.3277 43.5513C64.3269 36.3527 58.4914 30.5164 51.2907 30.5164ZM22.3586 36.8937C23.6899 36.4059 25.1652 37.089 25.6534 38.4204C26.1416 39.7515 25.4581 41.2274 24.1268 41.7158C22.7954 42.2036 21.3201 41.5204 20.8319 40.1882C20.3437 38.8568 21.0269 37.3819 22.3586 36.8937ZM14.526 42.5008C14.0378 41.1695 14.7214 39.6942 16.0527 39.2058C17.384 38.7176 18.8593 39.4006 19.3475 40.7328C19.8357 42.0647 19.1527 43.54 17.8214 44.0282C16.4897 44.5146 15.0144 43.8312 14.526 42.5008ZM20.0892 50.2123C18.7575 50.7005 17.282 50.0169 16.7938 48.6852C16.3056 47.3548 16.9901 45.879 18.3214 45.3908C19.6527 44.9029 21.128 45.5861 21.6162 46.9184C22.1044 48.2486 21.4212 49.7245 20.0892 50.2123ZM26.3945 47.8997C25.0632 48.3879 23.5879 47.7049 23.0997 46.3735C22.6115 45.0422 23.2951 43.5665 24.6273 43.0781C25.9595 42.5898 27.4339 43.2733 27.9221 44.6056C28.4103 45.938 27.7259 47.4118 26.3945 47.8997ZM58.0032 45.2744H53.5023V49.7753H50.0604V45.2744H45.5597V41.8321H50.0604V37.3305H53.5023V41.8321H58.0032V45.2744Z" fill="#AEB1CF"/>
</svg>
