<svg width="73" height="100" viewBox="0 0 73 100" fill="none" xmlns="http://www.w3.org/2000/svg">
<path d="M17.4976 74.4478C16.2985 74.4478 15.5211 74.5531 15.0645 74.6584V90.2222C15.5221 90.3275 16.2633 90.3275 16.9348 90.3275C21.8046 90.3629 24.9789 87.6812 24.9789 82C25.0154 77.0598 22.122 74.4478 17.4976 74.4478Z" fill="#AC6BAD"/>
<path d="M72.6275 23.9636C72.6217 23.505 72.4762 23.0521 72.1612 22.694L52.8797 0.67066C52.8759 0.664487 52.8701 0.66249 52.8644 0.656862C52.7495 0.528503 52.6175 0.422657 52.4757 0.329339C52.4336 0.302105 52.3913 0.277596 52.3474 0.252723C52.2228 0.186274 52.0945 0.131082 51.9605 0.0907769C51.9242 0.0802468 51.8917 0.0653594 51.8552 0.0559186C51.7079 0.0206971 51.5585 0 51.4053 0H4.01922C1.85728 0 0.0976562 1.7598 0.0976562 3.92174V96.0784C0.0976562 98.2413 1.85728 100 4.01922 100H68.725C70.8887 100 72.6467 98.2413 72.6467 96.0784V24.1833C72.6465 24.1096 72.6351 24.0374 72.6275 23.9636ZM26.7448 91.4579C24.2378 93.5392 20.4279 94.5272 15.769 94.5272C12.9811 94.5272 11.0054 94.3511 9.66409 94.175V70.8121C11.6407 70.4962 14.2162 70.3181 16.9348 70.3181C21.4513 70.3181 24.3801 71.13 26.674 72.859C29.1446 74.6954 30.6976 77.6231 30.6976 81.8234C30.6965 86.376 29.0388 89.5164 26.7448 91.4579ZM49.0867 94.2803H34.229V70.4962H39.6274V89.7633H49.0856V94.2803H49.0867ZM67.1204 94.2803H52.2633V70.4962H57.6631V89.7633H67.1204V94.2803ZM4.01922 66.5852V3.92174H49.4445V23.9862C49.4445 25.0684 50.3216 25.9469 51.4053 25.9469H68.725L68.727 66.5852H4.01922Z" fill="#AC6BAD"/>
<path d="M41.1517 44.4833C41.4026 44.3842 41.6026 44.1894 41.7012 43.9548C41.7989 43.7203 41.796 43.4412 41.6936 43.2099C41.3853 42.5059 41.5442 41.6762 42.0823 41.1371L43.5164 39.703C43.8784 39.3448 44.3437 39.1511 44.8299 39.1511H45.1669L45.5518 39.2989C45.8506 39.4291 46.1032 39.4185 46.3301 39.3243C46.5703 39.2243 46.7657 39.0247 46.8575 38.7873C47.1295 38.105 47.7519 37.6694 48.4679 37.6206V36.284C48.4679 36.1451 48.377 36.0135 48.2457 35.9599C46.8318 35.4069 45.6865 34.2873 45.1054 32.8851C44.5233 31.4801 44.5396 29.8755 45.1515 28.4854C45.207 28.3595 45.1763 28.2029 45.0796 28.1028L42.0494 25.0756C41.8828 24.908 41.7591 24.9607 41.6646 25.0008C40.2867 25.6106 38.6716 25.6322 37.269 25.0467C35.8668 24.4694 34.7454 23.3214 34.1914 21.9053C34.1408 21.7771 34.013 21.688 33.8712 21.688H29.5905C29.4473 21.688 29.3182 21.7771 29.2668 21.9053C28.7149 23.3214 27.5943 24.4694 26.1916 25.0467C24.7933 25.6322 23.1815 25.6145 21.7904 25.0008C21.7033 24.9654 21.5787 24.908 21.409 25.0756L18.3788 28.1028C18.2806 28.2029 18.2514 28.3595 18.3104 28.4883C18.9188 29.8793 18.9366 31.4801 18.3563 32.8851C17.7746 34.2873 16.6296 35.406 15.2122 35.9599C15.08 36.0135 14.9934 36.1379 14.9934 36.284V40.5674C14.9934 40.7096 15.0802 40.8341 15.2122 40.8882C16.6298 41.4412 17.7719 42.5609 18.3563 43.9625C18.9364 45.3675 18.9188 46.9726 18.3075 48.3637C18.2514 48.4911 18.2815 48.6453 18.3788 48.7453L21.409 51.7751C21.5789 51.9436 21.6985 51.886 21.7933 51.8439C22.5041 51.5338 23.263 51.3729 24.044 51.3729C24.7866 51.3729 25.507 51.5155 26.1891 51.8007C27.5941 52.3818 28.7147 53.5271 29.2666 54.9421C29.3178 55.0703 29.4482 55.1603 29.5903 55.1603H33.871C34.015 55.1603 34.1404 55.0741 34.1913 54.9421C34.7441 53.5271 35.8639 52.3818 37.2688 51.8007C38.637 51.2359 40.188 51.2406 41.5475 51.7978C41.5665 51.6179 41.6124 51.4379 41.6872 51.2655C41.7956 51.0222 41.7984 50.7426 41.7007 50.5051C41.603 50.2735 41.4029 50.0772 41.1646 49.9839C40.4389 49.6927 39.9794 49.0135 39.9794 48.2477V46.2194C39.9779 45.4497 40.4374 44.7696 41.1517 44.4833ZM31.7274 46.75C27.1361 46.75 23.4026 43.0157 23.4026 38.4234C23.4026 33.8341 27.137 30.093 31.7274 30.093C36.3225 30.093 40.0583 33.8332 40.0583 38.4234C40.0583 43.0157 36.3214 46.75 31.7274 46.75Z" fill="#AC6BAD"/>
<path d="M56.1582 44.6072C55.8844 43.9413 55.892 43.1815 56.1801 42.523C56.2061 42.4631 56.1925 42.3896 56.1465 42.3416L54.7124 40.9074C54.6329 40.8278 54.5726 40.8533 54.5285 40.872C53.8755 41.1601 53.1097 41.1721 52.4472 40.8945C51.7798 40.6201 51.2493 40.0769 50.988 39.4052C50.9641 39.3444 50.9038 39.3022 50.8368 39.3022H48.809C48.743 39.3022 48.6787 39.3444 48.6558 39.4052C48.3953 40.0768 47.863 40.6201 47.2005 40.8945C46.5369 41.1721 45.7729 41.1621 45.1152 40.872C45.0739 40.8551 45.0137 40.8289 44.9332 40.9074L43.4971 42.3416C43.4512 42.3896 43.4369 42.4642 43.4628 42.525C43.7557 43.1837 43.7606 43.9415 43.4848 44.6074C43.2099 45.2708 42.6682 45.8013 41.9981 46.064C41.9349 46.0884 41.8918 46.1483 41.8918 46.2182V48.2465C41.8918 48.3131 41.9349 48.3719 41.9981 48.3977C42.6682 48.6601 43.2101 49.1895 43.4848 49.8545C43.7597 50.5203 43.7539 51.2815 43.4628 51.9402C43.438 52.0005 43.4514 52.0733 43.4971 52.1203L44.9332 53.5564C45.0137 53.6359 45.0721 53.6099 45.1152 53.5889C45.4541 53.4415 45.8112 53.365 46.1827 53.365C46.5322 53.365 46.875 53.4329 47.1976 53.5678C47.863 53.8438 48.3973 54.3855 48.6558 55.0566C48.6787 55.1179 48.7428 55.159 48.809 55.159H50.8368C50.9038 55.159 50.9641 55.1178 50.988 55.0566C51.2504 54.3855 51.7807 53.8436 52.4472 53.5678C53.1115 53.292 53.8737 53.3017 54.5305 53.5889C54.5745 53.6099 54.6329 53.633 54.7124 53.5564L56.1465 52.1203C56.1925 52.0733 56.2079 52.0005 56.1801 51.9402C55.8909 51.2815 55.8844 50.5204 56.1582 49.8545C56.4339 49.1895 56.9759 48.6601 57.6489 48.3977C57.7092 48.3719 57.7513 48.3131 57.7513 48.2465V46.2182C57.7513 46.1517 57.7092 46.0885 57.6489 46.064C56.9759 45.8011 56.4338 45.2708 56.1582 44.6072ZM49.8219 51.176C47.6447 51.176 45.8793 49.4073 45.8793 47.2307C45.8793 45.0562 47.6456 43.2848 49.8219 43.2848C51.9989 43.2848 53.7673 45.0575 53.7673 47.2307C53.7675 49.4073 51.9973 51.176 49.8219 51.176Z" fill="#AC6BAD"/>
</svg>
