<svg width="74" height="100" viewBox="0 0 74 100" fill="none" xmlns="http://www.w3.org/2000/svg">
<path d="M73.1763 23.9636C73.1705 23.505 73.0251 23.0521 72.7101 22.694L53.4285 0.67066C53.4247 0.665031 53.4189 0.66249 53.4133 0.656862C53.2983 0.528503 53.1664 0.422657 53.0246 0.329339C52.9824 0.302105 52.9401 0.277596 52.8962 0.252723C52.7717 0.186274 52.6433 0.131082 52.5093 0.0907769C52.473 0.0802468 52.4405 0.0653594 52.404 0.0559186C52.2568 0.0216049 52.1074 0 51.9541 0H4.56805C2.4061 0 0.646484 1.7598 0.646484 3.92174V96.0784C0.646484 98.2413 2.4061 100 4.56805 100H69.2738C71.4376 100 73.1955 98.2413 73.1955 96.0784V24.1833C73.1954 24.1096 73.1839 24.0374 73.1763 23.9636ZM19.9092 90.4659C17.7855 92.2315 14.5553 93.0683 10.6054 93.0683C8.24251 93.0683 6.56713 92.9189 5.43152 92.7694V72.9655C7.10508 72.6965 9.29026 72.5462 11.5934 72.5462C15.4226 72.5462 17.9063 73.2335 19.8502 74.6992C21.9455 76.2549 23.261 78.7375 23.261 82.2974C23.2601 86.1585 21.8551 88.8212 19.9092 90.4659ZM43.6074 92.8595L43.3085 85.1427C43.2176 82.7177 43.1277 79.786 43.1277 76.8535H43.0387C42.4106 79.427 41.574 82.2992 40.7964 84.6641L38.3416 92.5303H34.7815L32.6279 84.7226C31.9692 82.3597 31.2817 79.4875 30.8031 76.8535H30.7437C30.625 79.5765 30.5346 82.6881 30.3837 85.2021L30.0257 92.8606H25.8073L27.0945 72.6965H33.1659L35.1424 79.427C35.771 81.7613 36.3981 84.2745 36.8461 86.6384H36.9362C37.505 84.3043 38.1923 81.6407 38.851 79.3984L41.0052 72.6965H46.9583L48.0652 92.8597H43.6074V92.8595ZM68.4122 91.9327C67.0067 92.4105 64.3452 93.0683 61.6816 93.0683C58.0013 93.0683 55.3397 92.1414 53.4844 90.3453C51.6308 88.6104 50.6139 85.9786 50.6438 83.0173C50.6734 76.3154 55.5487 72.4857 62.1605 72.4857C64.7629 72.4857 66.7676 72.9951 67.7557 73.4719L66.7983 77.1226C65.6916 76.6447 64.3147 76.2551 62.1013 76.2551C58.3021 76.2551 55.43 78.4084 55.43 82.7762C55.43 86.935 58.0324 89.388 61.772 89.388C62.8196 89.388 63.6562 89.2693 64.0162 89.0892V84.8709H60.9042V81.3114H68.4122V91.9327ZM4.56805 66.5852V3.92174H49.9933V23.9862C49.9933 25.0689 50.8704 25.9469 51.9541 25.9469H69.2738L69.2758 66.5852H4.56805Z" fill="#AEB1CF"/>
<path d="M12.0718 76.0449C11.0536 76.0449 10.3962 76.1359 10.0081 76.2258V89.4189C10.3962 89.509 11.0249 89.509 11.5936 89.509C15.7219 89.5386 18.4142 87.2659 18.4142 82.448C18.4445 78.2595 15.9915 76.0449 12.0718 76.0449Z" fill="#AEB1CF"/>
<path d="M60.724 43.4557L57.5129 22.9725C57.4898 22.8245 57.3635 22.7134 57.2122 22.7134H15.0024C14.8512 22.7134 14.7229 22.8234 14.6994 22.9725L11.4848 43.482C11.4623 43.5262 11.4465 43.5783 11.4465 43.6309V56.6289C11.4465 56.7974 11.5825 56.9343 11.7534 56.9343H60.4913C60.6599 56.9343 60.7968 56.7974 60.7968 56.6289V43.632C60.7948 43.5665 60.7681 43.5056 60.724 43.4557ZM36.7682 26.9692C44.0267 26.9692 49.9112 30.0066 49.9112 33.7518C49.9112 37.4968 44.0269 40.5332 36.7682 40.5332C29.5091 40.5332 23.6248 37.4968 23.6248 33.7518C23.6248 30.0066 29.508 26.9692 36.7682 26.9692ZM58.5585 54.6986H13.6825V45.5626H58.5585V54.6986Z" fill="#AEB1CF"/>
<path d="M52.4882 51.8566H56.3484C56.5171 51.8566 56.654 51.7206 56.654 51.5511V47.6912C56.654 47.5228 56.5171 47.3862 56.3484 47.3862H52.4882C52.3196 47.3862 52.1836 47.5228 52.1836 47.6912V51.5511C52.1838 51.7216 52.3198 51.8566 52.4882 51.8566Z" fill="#AEB1CF"/>
<path d="M17.562 51.8566H21.4207C21.5894 51.8566 21.7257 51.7206 21.7257 51.5511V47.6912C21.7257 47.5228 21.5894 47.3862 21.4207 47.3862H17.562C17.3935 47.3862 17.2551 47.5228 17.2551 47.6912V51.5511C17.2551 51.7216 17.3935 51.8566 17.562 51.8566Z" fill="#AEB1CF"/>
<path d="M23.9286 51.8566H27.7837C27.9522 51.8566 28.0885 51.7206 28.0885 51.5511V47.6912C28.0885 47.5228 27.9522 47.3862 27.7837 47.3862H23.9286C23.7601 47.3862 23.6238 47.5228 23.6238 47.6912V51.5511C23.6247 51.7216 23.7601 51.8566 23.9286 51.8566Z" fill="#AEB1CF"/>
<path d="M30.6951 51.8566H34.5559C34.7244 51.8566 34.8609 51.7206 34.8609 51.5511V47.6912C34.8609 47.5228 34.7246 47.3862 34.5559 47.3862H30.6951C30.5267 47.3862 30.3901 47.5228 30.3901 47.6912V51.5511C30.3912 51.7216 30.5278 51.8566 30.6951 51.8566Z" fill="#AEB1CF"/>
<path d="M36.7178 28.0908C42.6288 28.0908 47.4216 30.5529 47.4216 33.5903C47.4216 36.6271 42.6288 39.0892 36.7178 39.0892C30.8062 39.0892 26.0139 36.6271 26.0139 33.5903C26.0139 30.5527 30.8062 28.0908 36.7178 28.0908Z" fill="#AEB1CF"/>
</svg>
