<svg width="73" height="100" viewBox="0 0 73 100" fill="none" xmlns="http://www.w3.org/2000/svg">
<path d="M57.7265 76.8628C56.84 76.8628 56.2398 76.947 55.9248 77.0342V82.7268C56.2963 82.8139 56.7538 82.8417 57.3838 82.8417C59.7008 82.8417 61.1312 81.6689 61.1312 79.6938C61.1312 77.9218 59.8999 76.8628 57.7265 76.8628Z" fill="#AEB1CF"/>
<path d="M13.8408 76.9209C12.8682 76.9209 12.2391 77.0062 11.8662 77.0932V89.7072C12.238 89.7925 12.8388 89.7925 13.3831 89.7925C17.3301 89.8221 19.9045 87.648 19.9045 83.0416C19.9337 79.0378 17.5881 76.9209 13.8408 76.9209Z" fill="#AEB1CF"/>
<path d="M72.7256 23.9646C72.7198 23.5059 72.5744 23.053 72.2594 22.6951L52.9778 0.67066C52.974 0.665031 52.9682 0.663034 52.9626 0.656862C52.8477 0.528503 52.7157 0.422657 52.5739 0.329339C52.5318 0.302105 52.4895 0.277596 52.4455 0.252723C52.321 0.186274 52.1926 0.131082 52.0586 0.0913215C52.0223 0.0802468 51.9898 0.0653594 51.9533 0.0559186C51.8061 0.0216049 51.6567 0 51.5034 0H4.11736C1.95542 0 0.195801 1.7598 0.195801 3.92174V96.0784C0.195801 98.2413 1.95542 100 4.11736 100H68.8231C70.9869 100 72.7449 98.2413 72.7449 96.0784V24.1833C72.7447 24.1096 72.7332 24.0374 72.7256 23.9646ZM21.3359 90.7072C19.3058 92.3951 16.2152 93.1965 12.4396 93.1965C10.1802 93.1965 8.57796 93.0519 7.49172 92.9092V73.9744C9.09393 73.717 11.1822 73.5734 13.3842 73.5734C17.0449 73.5734 19.4193 74.2321 21.2791 75.6338C23.2809 77.1215 24.54 79.4951 24.54 82.8987C24.5391 86.5884 23.1947 89.1342 21.3359 90.7072ZM43.9926 92.9955L43.7064 85.6166C43.6211 83.2996 43.535 80.4955 43.535 77.6923H43.4499C42.8486 80.1518 42.0481 82.8987 41.3054 85.1582L38.9586 92.6807H35.5545L33.4946 85.2166C32.864 82.9563 32.2074 80.2105 31.7497 77.6925H31.6918C31.5768 80.2967 31.4917 83.2704 31.3475 85.6754L31.0042 92.9976H26.9721L28.2014 73.7192H34.008L35.8956 80.1531C36.4969 82.3838 37.0981 84.7887 37.5269 87.0483H37.6131C38.1569 84.8157 38.8137 82.2709 39.4437 80.1262L41.5031 73.7194H47.195L48.254 92.9978H43.9924V92.9955H43.9926ZM63.6761 84.1565C62.1882 85.5583 59.9862 86.1874 57.4107 86.1874C56.8382 86.1874 56.3251 86.1596 55.9239 86.1002V92.9955H51.6051V73.9744C52.9492 73.7457 54.8373 73.5734 57.4969 73.5734C60.1855 73.5734 62.102 74.0885 63.3889 75.1177C64.6182 76.0895 65.4493 77.6923 65.4493 79.5812C65.4493 81.4683 64.8202 83.069 63.6761 84.1565ZM4.11736 66.5852V3.92174H49.5427V23.9862C49.5427 25.0684 50.4197 25.9469 51.5034 25.9469H68.8231L68.8251 66.5852H4.11736Z" fill="#AEB1CF"/>
<path d="M55.7114 35.7773H53.0719V17.3438H13.0146V49.0016H26.6898V51.9089H22.8131V54.7082H40.9126V61.7193H59.9258V39.8319L55.7114 35.7773ZM56.1605 37.685L58.2134 39.6605H56.1605V37.685ZM16.4604 45.5554V20.79H49.6261V35.7774H40.9127V45.5568H16.4604V45.5554ZM38.2109 51.9089V49.0016H40.9107V51.9089H38.2109ZM58.8631 60.6585H41.9736V36.841H55.0977V40.7224H58.8622V60.6587H58.8631V60.6585Z" fill="#AEB1CF"/>
<path d="M55.3424 43.4878H43.823V44.4682H55.3424V43.4878Z" fill="#AEB1CF"/>
<path d="M55.3424 48.5532H43.823V49.5336H55.3424V48.5532Z" fill="#AEB1CF"/>
<path d="M55.3424 53.9038H43.823V54.8842H55.3424V53.9038Z" fill="#AEB1CF"/>
</svg>
