<svg width="74" height="100" viewBox="0 0 74 100" fill="none" xmlns="http://www.w3.org/2000/svg">
<path d="M38.0365 75.0859C34.663 75.0859 32.696 78.2971 32.696 82.5881C32.696 86.9136 34.7276 89.9601 38.0691 89.9601C41.4449 89.9601 43.377 86.7489 43.377 82.4579C43.377 78.4924 41.4774 75.0859 38.0365 75.0859Z" fill="#15499F"/>
<path d="M12.9035 75.1514C11.789 75.1514 11.0671 75.249 10.6421 75.3467V89.7959C11.0671 89.8955 11.7565 89.8955 12.3783 89.8955C16.8986 89.9282 19.8476 87.4369 19.8476 82.1635C19.8821 77.5755 17.1947 75.1514 12.9035 75.1514Z" fill="#15499F"/>
<path d="M73.2749 23.9636C73.2691 23.505 73.1237 23.0521 72.8087 22.694L53.5272 0.67066C53.5233 0.664487 53.5175 0.66249 53.5119 0.656862C53.397 0.528503 53.265 0.422657 53.1232 0.329339C53.0811 0.302105 53.0388 0.277596 52.9948 0.252723C52.8703 0.186274 52.7419 0.131082 52.6079 0.0907769C52.5716 0.0802468 52.5391 0.0653594 52.5026 0.0559186C52.3554 0.0206971 52.206 0 52.0528 0H4.66668C2.50474 0 0.745117 1.7598 0.745117 3.92174V96.0784C0.745117 98.2413 2.50474 100 4.66668 100H69.3724C71.5362 100 73.2942 98.2413 73.2942 96.0784V24.1833C73.294 24.1096 73.2826 24.0374 73.2749 23.9636ZM21.4884 90.9428C19.1619 92.8767 15.6233 93.7939 11.2972 93.7939C8.70788 93.7939 6.87346 93.6293 5.62928 93.4664V71.7773C7.4637 71.4824 9.85585 71.3178 12.3794 71.3178C16.5724 71.3178 19.2919 72.0723 21.4214 73.6769C23.7158 75.3811 25.1576 78.1001 25.1576 81.9988C25.1568 86.2257 23.6178 89.1409 21.4884 90.9428ZM37.8064 93.9261C31.254 93.9261 27.4205 88.9782 27.4205 82.687C27.4205 76.0685 31.647 71.1215 38.1664 71.1215C44.9486 71.1215 48.6521 76.2007 48.6521 82.2936C48.6523 89.5354 44.2614 93.9261 37.8064 93.9261ZM63.2336 89.7653C64.7405 89.7653 66.4122 89.4359 67.3944 89.0441L68.1488 92.9428C67.2316 93.4034 65.1675 93.8934 62.4808 93.8934C54.8465 93.8934 50.9153 89.1418 50.9153 82.8517C50.9153 75.3169 56.2884 71.1226 62.971 71.1226C65.56 71.1226 67.5264 71.6464 68.4111 72.1059L67.3942 76.0696C66.3803 75.6444 64.9699 75.2499 63.2016 75.2499C59.2379 75.2499 56.156 77.6426 56.156 82.5569C56.1564 86.9791 58.7777 89.7653 63.2336 89.7653ZM4.66668 66.5852V3.92174H50.092V23.9862C50.092 25.0684 50.9691 25.9469 52.0528 25.9469H69.3724L69.3744 66.5852H4.66668Z" fill="#15499F"/>
<path d="M32.0493 27.0695H46.318C47.0342 27.0695 47.6163 26.4884 47.6163 25.7709C47.6163 25.0534 47.0342 24.4717 46.318 24.4717H32.0493C31.3317 24.4717 30.752 25.0534 30.752 25.7709C30.751 26.4884 31.3302 27.0695 32.0493 27.0695Z" fill="#15499F"/>
<path d="M53.2977 34.8623H17.8001C17.0826 34.8623 16.5 35.4435 16.5 36.161C16.5 36.879 17.0826 37.4593 17.8001 37.4593H53.2977C54.0157 37.4593 54.598 36.879 54.598 36.161C54.598 35.4436 54.0168 34.8623 53.2977 34.8623Z" fill="#15499F"/>
<path d="M21.51 29.6714L22.7129 24.7809C23.0207 23.5938 23.2222 22.591 23.4081 21.4803H23.4382C23.5608 22.6057 23.746 23.5938 24.008 24.7809L25.0893 29.6714H27.1267L29.9166 19.2744H27.9884L26.9088 23.9792C26.6312 25.2448 26.3831 26.4311 26.199 27.5743H26.1668C26.0136 26.448 25.7972 25.2909 25.5354 24.0567L24.5018 19.2755H22.512L21.3874 23.9803C21.092 25.2911 20.7972 26.5266 20.6296 27.6204H20.6009C20.4314 26.5874 20.1835 25.2599 19.9206 23.9952L18.9332 19.2755H16.9121L19.4579 29.6725H21.51V29.6714V29.6714Z" fill="#15499F"/>
<path d="M53.2977 45.1797H17.8001C17.0826 45.1797 16.5 45.7608 16.5 46.4789C16.5 47.1964 17.0826 47.7775 17.8001 47.7775H53.2977C54.0157 47.7775 54.598 47.1964 54.598 46.4789C54.598 45.7608 54.0168 45.1797 53.2977 45.1797Z" fill="#15499F"/>
<path d="M53.2977 55.7422H17.8001C17.0826 55.7422 16.5 56.3243 16.5 57.0423C16.5 57.7594 17.0826 58.3406 17.8001 58.3406H53.2977C54.0157 58.3406 54.598 57.7594 54.598 57.0423C54.598 56.3243 54.0168 55.7422 53.2977 55.7422Z" fill="#15499F"/>
</svg>
