<svg width="73" height="100" viewBox="0 0 73 100" fill="none" xmlns="http://www.w3.org/2000/svg">
<path d="M72.8237 23.9626C72.818 23.5041 72.6706 23.0522 72.3557 22.6932L53.0763 0.668805C53.0707 0.663516 53.065 0.66078 53.061 0.656038C52.9461 0.526728 52.812 0.421856 52.6703 0.328658C52.6282 0.301482 52.5859 0.275766 52.5419 0.252056C52.4194 0.184574 52.291 0.130405 52.1551 0.0900981C52.1186 0.0795198 52.0863 0.0638347 52.0499 0.0561745C51.9045 0.0206095 51.7529 0 51.5999 0H4.21559C2.05378 0 0.293945 1.75892 0.293945 3.92164V96.0785C0.293945 98.2405 2.05378 100 4.21559 100H68.9212C71.083 100 72.843 98.2405 72.843 96.0785V24.1824C72.8432 24.1087 72.8313 24.0365 72.8237 23.9626ZM16.8177 88.4171C15.0235 89.909 12.2952 90.6157 8.95869 90.6157C6.96376 90.6157 5.54791 90.4894 4.58893 90.3628V73.6366C6.00405 73.4099 7.84815 73.2843 9.79401 73.2843C13.0281 73.2843 15.1253 73.8646 16.7653 75.1035C18.5354 76.4169 19.6472 78.5138 19.6472 81.52C19.6472 84.7789 18.4593 87.0288 16.8177 88.4171ZM29.4007 90.717C24.3481 90.717 21.391 86.9004 21.391 82.0502C21.391 76.9473 24.6496 73.1301 29.6783 73.1301C34.9097 73.1301 37.7624 77.0478 37.7624 81.7467C37.7635 87.3315 34.3784 90.717 29.4007 90.717ZM49.0091 87.5075C50.1715 87.5075 51.46 87.2546 52.2175 86.9524L52.7987 89.9586C52.0913 90.311 50.4999 90.6918 48.429 90.6918C42.5399 90.6918 39.5089 87.0288 39.5089 82.1766C39.5089 76.3651 43.6534 73.13 48.8063 73.13C50.8014 73.13 52.3181 73.535 52.9997 73.8883L52.2167 76.9453C51.4334 76.6159 50.3478 76.3133 48.9825 76.3133C45.9245 76.3133 43.5502 78.1572 43.5502 81.9468C43.5518 85.3592 45.5739 87.5075 49.0091 87.5075ZM64.3716 90.4394L62.8303 87.3567C62.1985 86.1692 61.7943 85.2846 61.3137 84.2983H61.2641C60.9099 85.2845 60.4808 86.1692 59.9508 87.3567L58.5355 90.4394H54.1393L59.066 81.8226L54.3171 73.4099H58.7381L60.228 76.5185C60.7334 77.5528 61.1126 78.3874 61.5164 79.3469H61.5663C61.9705 78.2619 62.2997 77.5028 62.7287 76.5185L64.1686 73.4099H68.565L63.7655 81.7212L68.8178 90.4401H64.3714V90.4394H64.3716ZM4.21559 66.5843V3.92164H49.6391V23.9851C49.6391 25.0675 50.518 25.9459 51.5999 25.9459H68.9214V66.5842H4.21559V66.5843Z" fill="#15499F"/>
<path d="M10.1981 76.2393C9.33848 76.2393 8.78367 76.3159 8.4541 76.3912V87.533C8.78349 87.6075 9.31368 87.6075 9.79408 87.6075C13.2815 87.6335 15.5538 85.7129 15.5538 81.6466C15.5782 78.11 13.5069 76.2393 10.1981 76.2393Z" fill="#15499F"/>
<path d="M29.5772 76.189C26.975 76.189 25.4604 78.6646 25.4604 81.9746C25.4604 85.3093 27.0271 87.6588 29.6048 87.6588C32.2065 87.6588 33.6966 85.1831 33.6966 81.8741C33.6957 78.8162 32.2313 76.189 29.5772 76.189Z" fill="#15499F"/>
<path d="M48.6471 32.7852V21.6489H10.4114V48.7732H21.5487V59.9091H59.7837V32.7852H48.6471ZM21.5487 46.8126H12.372V23.6097H46.6863V32.7852H21.5487V46.8126ZM57.8229 57.9482H23.5095V34.7458H57.8229V57.9482Z" fill="#15499F"/>
<path d="M29.088 40.2189C29.8098 40.2189 30.3949 39.6338 30.3949 38.912C30.3949 38.1901 29.8098 37.605 29.088 37.605C28.3662 37.605 27.781 38.1901 27.781 38.912C27.781 39.6338 28.3662 40.2189 29.088 40.2189Z" fill="#15499F"/>
<path d="M52.3366 38.4224H32.4016V39.4027H52.3366V38.4224Z" fill="#15499F"/>
<path d="M29.088 44.9577C29.8098 44.9577 30.3949 44.3725 30.3949 43.6507C30.3949 42.9289 29.8098 42.3438 29.088 42.3438C28.3662 42.3438 27.781 42.9289 27.781 43.6507C27.781 44.3725 28.3662 44.9577 29.088 44.9577Z" fill="#15499F"/>
<path d="M52.3366 43.1602H32.4016V44.1405H52.3366V43.1602Z" fill="#15499F"/>
<path d="M29.0879 50.0577C29.8098 50.0577 30.3951 49.4724 30.3951 48.7505C30.3951 48.0286 29.8098 47.4434 29.0879 47.4434C28.366 47.4434 27.7808 48.0286 27.7808 48.7505C27.7808 49.4724 28.366 50.0577 29.0879 50.0577Z" fill="#15499F"/>
<path d="M52.3366 48.2593H32.4016V49.2396H52.3366V48.2593Z" fill="#15499F"/>
<path d="M29.0878 52.2627C29.8093 52.2627 30.3948 52.8485 30.3948 53.5708C30.3948 54.2915 29.8093 54.8764 29.0878 54.8764C28.3659 54.8764 27.781 54.2915 27.781 53.5708C27.781 52.8485 28.3659 52.2627 29.0878 52.2627Z" fill="#15499F"/>
<path d="M52.3366 53.0811H32.4016V54.0614H52.3366V53.0811Z" fill="#15499F"/>
</svg>
