<svg width="74" height="100" viewBox="0 0 74 100" fill="none" xmlns="http://www.w3.org/2000/svg">
<path d="M14.6704 74.6528C13.5412 74.6528 12.8106 74.7534 12.3794 74.852V89.4967C12.8106 89.5972 13.5087 89.5972 14.139 89.5972C18.7222 89.6308 21.7116 87.1069 21.7116 81.7608C21.7437 77.1114 19.0214 74.6528 14.6704 74.6528Z" fill="#AEB1CF"/>
<path d="M37.7215 74.52C36.4926 74.52 35.7958 74.6206 35.4299 74.6858V80.8628H37.4238C39.9474 80.8628 41.4419 79.601 41.4419 77.6422C41.441 75.5828 40.047 74.5545 37.7215 74.52Z" fill="#AEB1CF"/>
<path d="M73.3726 23.9646C73.3668 23.5059 73.2214 23.0526 72.9064 22.6951L53.6248 0.67066C53.621 0.664487 53.6152 0.66249 53.6096 0.656862C53.4946 0.52814 53.3626 0.422294 53.2209 0.329339C53.1787 0.302105 53.1364 0.277233 53.0925 0.252723C52.9679 0.186274 52.8396 0.131082 52.7056 0.0907769C52.6693 0.0802468 52.6368 0.0653594 52.6003 0.0553739C52.4531 0.0216049 52.3036 0 52.1504 0H4.76433C2.60239 0 0.842773 1.7598 0.842773 3.92174V96.0784C0.842773 98.2413 2.60239 100 4.76433 100H69.4701C71.6339 100 73.3918 98.2413 73.3918 96.0784V24.1842C73.3917 24.1096 73.3802 24.0374 73.3726 23.9646ZM23.3712 90.6612C21.0136 92.62 17.4272 93.5498 13.0426 93.5498C10.4194 93.5498 8.55954 93.3831 7.29755 93.2175V71.2333C9.15739 70.9345 11.582 70.7682 14.1389 70.7682C18.3898 70.7682 21.1457 71.5313 23.3055 73.1578C25.6301 74.8851 27.0907 77.6404 27.0907 81.5946C27.0907 85.8782 25.5301 88.8346 23.3712 90.6612ZM42.139 93.3172C41.7732 92.6861 41.2419 90.8595 40.5773 88.103C39.98 85.3132 39.0166 84.551 36.9582 84.5175H35.4297V93.319H30.4152V71.2333C32.0428 70.9672 34.466 70.7682 37.1562 70.7682C40.4765 70.7682 42.8022 71.266 44.3963 72.5278C45.7241 73.5906 46.4556 75.1511 46.4556 77.2105C46.4556 80.0665 44.4298 82.0254 42.5034 82.7233V82.8239C44.064 83.4548 44.9277 84.9494 45.4925 87.0078C46.1895 89.5314 46.8875 92.4544 47.3193 93.319H42.139V93.3172ZM61.1043 93.3172H55.1933L48.0192 70.9347H53.5656L56.2884 80.3987C57.0524 83.0556 57.7495 85.6119 58.2809 88.4018H58.3815C58.9463 85.7124 59.6433 83.0556 60.4064 80.4975L63.2622 70.9329H68.6429L61.1043 93.3172ZM4.76433 66.5863V3.92247H50.1896V23.9871C50.1896 25.0695 51.0667 25.9478 52.1504 25.9478H69.4701L69.4721 66.5863H4.76433V66.5863Z" fill="#AEB1CF"/>
<path d="M53.4756 42.3066H22.6507C21.0546 42.3066 19.7612 43.5997 19.7612 45.1972V49.7961C19.7612 51.3921 21.0548 52.6846 22.6507 52.6846H53.4756C55.0725 52.6846 56.367 51.3921 56.367 49.7961V45.1972C56.367 43.5997 55.0725 42.3066 53.4756 42.3066ZM54.2472 49.3872H46.7334V45.6069H54.2472V49.3872Z" fill="#AEB1CF"/>
<path d="M57.628 39.9953L54.167 31.2451L34.6142 31.2513C34.6338 31.3092 34.6449 31.3686 34.6694 31.4236C35.0332 32.2177 34.8713 33.1747 34.2456 33.8343L32.0283 36.0559C31.5782 36.4882 31.0369 36.7117 30.4764 36.7117C30.1527 36.7117 29.845 36.6413 29.5363 36.4962C29.1193 36.3175 28.4501 36.2889 27.947 36.4991C27.4232 36.7153 27.0067 37.14 26.801 37.6658C26.4904 38.4947 25.6598 39.0688 24.744 39.0688H21.6598C21.0216 39.0688 20.4305 38.7772 20.0178 38.3177L19.2538 39.8822C18.1805 40.5265 17.4519 41.752 17.4519 43.1559V51.8382C17.4519 53.9101 19.0345 55.5951 20.9795 55.5951H55.7316C57.6772 55.5951 59.2598 53.9101 59.2598 51.8382V43.1559C59.2565 41.8273 58.6054 40.663 57.628 39.9953ZM57.5216 51.8384C57.5216 52.9529 56.7173 53.8605 55.7294 53.8605H20.9762C19.9877 53.8605 19.183 52.9519 19.183 51.8384V43.1561C19.183 42.0403 19.9877 41.1336 20.9762 41.1336H55.7294C56.7173 41.1336 57.5216 42.0414 57.5216 43.1561V51.8384Z" fill="#AEB1CF"/>
<path d="M19.0977 34.8069C20.1102 35.2263 20.9221 36.052 21.317 37.0727C21.3533 37.1645 21.4486 37.2274 21.5516 37.2274H24.6358C24.7378 37.2274 24.8297 37.1675 24.866 37.0727C25.2652 36.052 26.0719 35.2263 27.0868 34.8069C28.0973 34.3871 29.2563 34.4038 30.2572 34.839C30.3228 34.8697 30.4123 34.9051 30.533 34.7893L32.7149 32.6039C32.7848 32.5302 32.8074 32.4196 32.7661 32.3305C32.3257 31.3272 32.3161 30.1667 32.7326 29.1558C33.1523 28.1471 33.9767 27.3401 34.9993 26.9403C35.0917 26.902 35.1572 26.8107 35.1572 26.7096V23.6214C35.1572 23.5193 35.0917 23.4247 34.9993 23.3864C33.9767 22.9892 33.1523 22.1806 32.7326 21.1704C32.3161 20.1599 32.3248 19.0019 32.7661 18.0019C32.8074 17.908 32.7857 17.796 32.7149 17.7223L30.533 15.5395C30.4123 15.4219 30.3199 15.46 30.2525 15.4874C29.2583 15.9253 28.0935 15.9422 27.0859 15.5195C26.071 15.102 25.2643 14.275 24.8653 13.2541C24.8288 13.1608 24.7378 13.0981 24.6349 13.0981H21.5507C21.4477 13.0981 21.3515 13.161 21.3161 13.2541C20.9212 14.2748 20.1102 15.102 19.1006 15.5195C18.0919 15.9422 16.9292 15.9273 15.9281 15.4874C15.8655 15.4629 15.7749 15.4219 15.6523 15.5395L13.4671 17.7223C13.3976 17.796 13.3753 17.908 13.413 18.0019C13.8591 19.0046 13.8653 20.1599 13.4474 21.1704C13.0289 22.1796 12.2032 22.9881 11.1836 23.3864C11.0879 23.4247 11.0227 23.5148 11.0227 23.6214V26.7096C11.0227 26.8116 11.087 26.902 11.1836 26.9403C12.2032 27.3401 13.0289 28.1462 13.4474 29.1558C13.8653 30.1667 13.8582 31.3272 13.413 32.3305C13.3753 32.4205 13.3967 32.5302 13.4671 32.6039L15.6523 34.7893C15.7749 34.908 15.862 34.8697 15.9281 34.839C16.4417 34.6146 16.9866 34.4963 17.5514 34.4963C18.0868 34.4963 18.6066 34.601 19.0977 34.8069ZM23.0915 19.159C26.4023 19.159 29.0944 21.8568 29.0944 25.1638C29.0944 28.4765 26.4021 31.1687 23.0915 31.1687C19.778 31.1687 17.091 28.4765 17.091 25.1638C17.0921 21.857 19.7781 19.159 23.0915 19.159Z" fill="#AEB1CF"/>
</svg>
