<svg width="73" height="100" viewBox="0 0 73 100" fill="none" xmlns="http://www.w3.org/2000/svg">
<path d="M14.5863 74.8579C13.4871 74.8579 12.7782 74.9565 12.3599 75.0511V89.2849C12.7793 89.3817 13.457 89.3817 14.0697 89.3817C18.5236 89.4153 21.4265 86.9612 21.4265 81.7664C21.4586 77.2475 18.8128 74.8579 14.5863 74.8579Z" fill="#AEB1CF"/>
<path d="M53.8408 74.8579C52.7436 74.8579 52.0341 74.9565 51.6147 75.0511V89.2849C52.0341 89.3817 52.711 89.3817 53.3237 89.3817C57.7785 89.4153 60.6814 86.9612 60.6814 81.7664C60.715 77.2475 58.0688 74.8579 53.8408 74.8579Z" fill="#AEB1CF"/>
<path d="M72.9219 23.9651C72.9163 23.5059 72.7707 23.0532 72.4557 22.6951L53.1732 0.67066C53.1694 0.665031 53.1636 0.663034 53.1571 0.657225C53.0431 0.528503 52.91 0.422657 52.7693 0.329883C52.7271 0.302105 52.6848 0.277596 52.6409 0.253268C52.5164 0.186274 52.388 0.131626 52.2531 0.0913215C52.2168 0.0802468 52.1852 0.065904 52.1487 0.0559186C52.0024 0.0216049 51.8511 0 51.6988 0H4.31365C2.15189 0 0.39209 1.76016 0.39209 3.92174V96.0784C0.39209 98.2413 2.15171 100 4.31365 100H69.0194C71.1832 100 72.941 98.2413 72.941 96.0784V24.1848C72.941 24.1111 72.9295 24.0374 72.9219 23.9651ZM23.0402 90.4143C20.7501 92.3185 17.2646 93.2233 13.0046 93.2233C10.4536 93.2233 8.64879 93.0606 7.42149 92.8998V71.536C9.22958 71.2448 11.5823 71.0841 14.0698 71.0841C18.2002 71.0841 20.8784 71.827 22.9776 73.4067C25.2352 75.0861 26.6558 77.764 26.6558 81.605C26.6558 85.7669 25.1388 88.6393 23.0402 90.4143ZM44.0598 75.3771H38.1199V92.9975H33.1811V75.3771H27.3408V71.245H44.0598V75.3771V75.3771ZM62.2965 90.4143C60.0064 92.3185 56.5205 93.2233 52.2589 93.2233C49.7094 93.2233 47.9027 93.0606 46.6772 92.8998V71.536C48.485 71.2448 50.8383 71.0841 53.3255 71.0841C57.4559 71.0841 60.1347 71.827 62.2333 73.4067C64.4889 75.0861 65.9116 77.764 65.9116 81.605C65.9116 85.7669 64.3952 88.6393 62.2965 90.4143ZM4.31365 66.5863V3.92247H49.7391V23.9876C49.7391 25.0699 50.616 25.9484 51.6999 25.9484H69.0194L69.0214 66.5863H4.31365V66.5863Z" fill="#AEB1CF"/>
<path d="M29.6879 39.4646L16.5331 32.8791V32.7966L29.6879 26.2124V21.8223L12.2942 31.0574V34.6182L29.6879 43.8533V39.4646Z" fill="#AEB1CF"/>
<path d="M38.7147 35.5766L39.5141 20.3218H33.752L34.5853 35.5766H38.7147Z" fill="#AEB1CF"/>
<path d="M36.6506 45.1862C38.6079 45.1862 39.8757 43.5715 39.8757 41.4174C39.8394 39.2235 38.5716 37.6479 36.6506 37.6479C34.7281 37.6479 33.3877 39.2224 33.3877 41.4174C33.3879 43.5701 34.6936 45.1862 36.6506 45.1862Z" fill="#AEB1CF"/>
<path d="M43.6101 21.8223V26.2124L57.054 32.7966V32.8791L43.6101 39.4646V43.8533L61.0062 34.7425V30.933L43.6101 21.8223Z" fill="#AEB1CF"/>
<path d="M58.4804 49.7866H14.853V52.7276H58.4804V49.7866Z" fill="#AEB1CF"/>
<path d="M58.4804 58.2017H14.853V61.1428H58.4804V58.2017Z" fill="#AEB1CF"/>
</svg>
