<svg width="73" height="100" viewBox="0 0 73 100" fill="none" xmlns="http://www.w3.org/2000/svg">
<path d="M72.5298 23.9651C72.5242 23.5059 72.3786 23.0532 72.0636 22.6951L52.7811 0.67066C52.7773 0.665031 52.7715 0.663034 52.765 0.656862C52.651 0.528503 52.5179 0.422657 52.3772 0.329339C52.3351 0.302105 52.2928 0.277596 52.2488 0.252723C52.1243 0.186274 51.9959 0.131626 51.861 0.0913215C51.8247 0.0802468 51.7931 0.0653594 51.7566 0.0559186C51.6103 0.0216049 51.4591 0 51.3067 0H3.92156C1.7598 0 0 1.7598 0 3.92174V96.0784C0 98.2413 1.75962 100 3.92156 100H68.6273C70.7911 100 72.5489 98.2413 72.5489 96.0784V24.1842C72.5489 24.1111 72.5375 24.0374 72.5298 23.9651ZM19.9401 90.4392C17.895 92.1396 14.7854 92.9457 10.9826 92.9457C8.70786 92.9457 7.09313 92.8021 6.00017 92.6585V73.5906C7.61291 73.3301 9.7144 73.1865 11.9323 73.1865C15.6207 73.1865 18.01 73.8499 19.8821 75.2622C21.8988 76.7577 23.1646 79.1493 23.1646 82.5768C23.1646 86.2936 21.8137 88.8575 19.9401 90.4392ZM44.133 92.7446H39.3794L37.7354 84.3922C37.3619 82.4332 37.0451 80.618 36.8155 78.4007H36.7581C36.4112 80.5912 36.0951 82.4332 35.6356 84.3922L33.7911 92.7446H28.9814L24.3725 73.3312H29.0677L30.5363 81.3388C30.9685 83.6433 31.3716 86.1478 31.6891 88.1057H31.747C32.0648 86.0042 32.5245 83.672 33.0146 81.2803L34.6561 73.331H39.3231L40.8777 81.5102C41.3097 83.786 41.6265 85.8606 41.9157 88.0214H41.9731C42.2603 85.8606 42.6911 83.5877 43.0961 81.2813L44.6807 73.3319H49.1452L44.133 92.7446ZM67.4 91.8504C66.0462 92.3108 63.4843 92.9437 60.9204 92.9437C57.3779 92.9437 54.814 92.0514 53.0293 90.3241C51.2428 88.6525 50.2624 86.1191 50.2931 83.268C50.3218 76.817 55.0151 73.129 61.3819 73.129C63.8873 73.129 65.8165 73.6171 66.7682 74.0787L65.8463 77.5924C64.7817 77.1329 63.4556 76.7575 61.3254 76.7575C57.6689 76.7575 54.9011 78.8314 54.9011 83.0372C54.9011 87.0401 57.4088 89.4013 61.0086 89.4013C62.0168 89.4013 62.8238 89.2872 63.1684 89.114V85.0516H60.1724V81.624H67.4007V91.8502H67.4V91.8504ZM3.92156 66.5863V3.92247H49.347V23.9876C49.347 25.0699 50.2239 25.9484 51.3078 25.9484H68.6273L68.6293 66.5863H3.92156V66.5863Z" fill="#AEB1CF"/>
<path d="M12.3941 76.5581C11.4158 76.5581 10.7814 76.6451 10.4065 76.7313V89.4323C10.7823 89.5185 11.3869 89.5185 11.9332 89.5185C15.9088 89.5472 18.4991 87.3587 18.4991 82.721C18.5292 78.6901 16.1681 76.5581 12.3941 76.5581Z" fill="#AEB1CF"/>
<path d="M69.4374 25.2539H29.4119V17.483H21.641V2.87158H19.6802V17.483H11.9117V25.2539H2.94116V27.2147H11.9117V34.9832H19.6802V69.1106H21.641V34.983H29.4119V27.2145H69.4374V25.2539ZM27.4509 33.0222H13.8725V19.4436H27.4509V33.0222Z" fill="#AEB1CF"/>
<path d="M20.6606 29.3456C22.3797 29.3456 23.7733 27.952 23.7733 26.2329C23.7733 24.5137 22.3797 23.1201 20.6606 23.1201C18.9415 23.1201 17.5479 24.5137 17.5479 26.2329C17.5479 27.952 18.9415 29.3456 20.6606 29.3456Z" fill="#AEB1CF"/>
</svg>
