<svg width="74" height="100" viewBox="0 0 74 100" fill="none" xmlns="http://www.w3.org/2000/svg">
<path d="M16.4145 75.8311C15.2958 75.8311 14.571 75.9296 14.1426 76.0302V90.5522C14.5709 90.6498 15.2631 90.6498 15.8879 90.6498C20.4327 90.6843 23.3955 88.1798 23.3955 82.8784C23.4291 78.2686 20.7292 75.8311 16.4145 75.8311Z" fill="#AEB1CF"/>
<path d="M73.0787 23.9651C73.073 23.5059 72.9283 23.0532 72.6135 22.6951L53.3311 0.67066C53.3272 0.665031 53.3214 0.663034 53.3156 0.657225C53.2007 0.528503 53.0687 0.422657 52.9269 0.329883C52.8848 0.302105 52.8427 0.277596 52.7986 0.253268C52.674 0.186274 52.5458 0.131626 52.4118 0.0913215C52.3755 0.0802468 52.3429 0.0653594 52.3065 0.0559186C52.1591 0.0216049 52.0099 0 51.8567 0H4.47039C2.30863 0 0.548828 1.76016 0.548828 3.92174V96.0784C0.548828 98.2413 2.30845 100 4.47039 100H69.1762C71.3399 100 73.0977 98.2413 73.0977 96.0784V24.1842C73.0977 24.1111 73.0863 24.0374 73.0787 23.9651ZM25.043 91.7039C22.7058 93.6483 19.149 94.5694 14.8019 94.5694C12.1997 94.5694 10.3567 94.4067 9.10382 94.24V72.4398C10.9479 72.1429 13.3518 71.9783 15.887 71.9783C20.1025 71.9783 22.836 72.7346 24.9773 74.3508C27.2821 76.0616 28.7312 78.7951 28.7312 82.7137C28.7321 86.9617 27.1842 89.8914 25.043 91.7039ZM42.6272 94.3397L40.6187 90.3223C39.7953 88.7733 39.2686 87.6195 38.6424 86.3377H38.5764C38.1159 87.6206 37.5549 88.7733 36.8636 90.3223L35.0206 94.3397H29.2892L35.7105 83.1111L29.5194 72.142H35.2821L37.2241 76.1928C37.8834 77.5429 38.3774 78.6295 38.9039 79.8808H38.97C39.4965 78.4677 39.9246 77.4777 40.4847 76.1928L42.3612 72.142H48.0921L41.8345 82.9772L48.4204 94.3397H42.6272ZM64.688 76.2598H56.1591V81.3321H64.1286V85.4145H56.1591V94.3395H51.1194V72.1428H64.6867V76.2597H64.688V76.2598ZM4.47039 66.5863V3.92247H49.8959V23.9876C49.8959 25.0699 50.7728 25.9484 51.8567 25.9484H69.1762L69.1782 66.5863H4.47039V66.5863Z" fill="#AEB1CF"/>
<path d="M58.8668 57.4886C56.3439 51.5017 53.8174 45.5148 51.2879 39.5304C49.8997 36.247 48.4999 32.9716 47.1136 29.6873C45.6029 26.1118 44.0949 22.5344 42.6041 18.9498C42.2786 18.1657 41.7904 17.6243 40.9249 17.4865C40.8846 17.4792 28.0352 17.5334 28.0094 17.5334C27.1971 17.5234 26.7333 17.9949 26.4368 18.6822C26.0308 19.6281 25.6387 20.5793 25.242 21.5272C23.7641 25.0606 22.287 28.5911 20.8115 32.1234C18.9675 36.536 17.124 40.9478 15.281 45.3604C15.1174 45.7497 14.9292 46.1331 14.7957 46.5344C14.7244 46.7479 14.6775 46.9518 14.6498 47.148L14.6196 47.1155C14.6196 47.1155 14.6234 47.1831 14.6311 47.3071C14.6056 47.5952 14.6253 47.8637 14.6861 48.109L17.732 56.5926C18.6498 59.5685 20.0332 58.6206 21.6134 57.9732C23.1951 57.3261 40.5439 49.9343 40.5439 49.9343L17.7939 49.7039L25.9693 49.0473L33.6559 30.5108L30.2323 19.5882L34.7666 29.2964C35.8108 31.7728 36.8482 34.251 37.8932 36.7268C39.7706 41.1698 41.6539 45.6088 43.5275 50.0554C45.0833 53.7453 45.2241 54.0709 46.7732 57.7646C50.8354 57.7646 54.8957 57.7646 58.957 57.7646C58.4589 56.5485 59.3761 58.7006 58.8668 57.4886Z" fill="#AEB1CF"/>
</svg>
