<svg width="73" height="100" viewBox="0 0 73 100" fill="none" xmlns="http://www.w3.org/2000/svg">
<path d="M72.6275 23.9626C72.6217 23.5041 72.4762 23.0521 72.1612 22.6931L52.8797 0.668844C52.8759 0.663579 52.8701 0.660674 52.8644 0.655954C52.7495 0.526687 52.6175 0.421931 52.4757 0.328612C52.4336 0.301379 52.3913 0.275962 52.3474 0.251997C52.2228 0.184459 52.0945 0.130537 51.9605 0.0902322C51.9242 0.0797021 51.8917 0.0639069 51.8552 0.0561001C51.7079 0.0206971 51.5585 0 51.4053 0H4.01922C1.85728 0 0.0976562 1.75889 0.0976562 3.92174V96.0784C0.0976562 98.2402 1.85728 100 4.01922 100H68.725C70.8887 100 72.6467 98.2404 72.6467 96.0784V24.1824C72.6465 24.1087 72.6351 24.0364 72.6275 23.9626ZM25.8367 93.8168H10.6612V70.0309H25.3427V74.4427H16.0615V79.3829H24.8142V83.7584H16.0615V89.4052H25.8367V93.8168V93.8168ZM44.3666 93.8168H29.5094V70.0309H34.9091V89.2998H44.3665V93.8168H44.3666ZM62.0843 74.4427H52.9429V79.8769H61.483V84.2524H52.9429V93.817H47.5431V70.0309H62.0843V74.4427ZM4.01922 66.5843V3.92174H49.4445V23.9852C49.4445 25.0677 50.3216 25.946 51.4053 25.946H68.725L68.727 66.5845H4.01922V66.5843Z" fill="#AEB1CF"/>
<path d="M37.2625 55.9552C36.4898 55.4612 35.8642 54.8829 35.4415 54.0883C35.0642 53.3778 34.62 53.3147 34.62 54.1199C34.62 54.9519 35.1241 55.5396 36.1604 56.118C36.4889 56.2999 36.9275 56.4138 36.9388 56.8764C36.9495 57.2745 36.596 57.4681 36.2812 57.5772C34.4918 58.1937 32.9025 59.1358 31.3533 60.2233C30.212 61.0238 28.9386 60.4149 28.9085 59.1378C28.8593 57.2259 29.0041 55.3099 28.6748 53.4067C28.6111 53.0449 28.6405 52.5757 29.1091 52.4494C29.5346 52.3335 29.6779 52.7424 29.8467 53.0238C30.4168 53.9871 31.265 54.2063 32.267 53.8971C33.6485 53.4719 35.1737 51.2794 35.0023 49.8319C34.6835 47.1171 33.876 44.522 32.0237 42.4732C31.4972 41.8906 30.9974 41.2573 30.5935 40.5828C30.48 40.3908 30.38 40.1945 30.2779 39.9993C29.7757 39.0683 29.2679 37.7299 29.1396 36.7887C29.0123 36.0476 29.0319 33.5153 28.5728 32.1179C28.1349 30.8752 27.3081 29.6486 26.1291 29.0082C25.2885 28.5516 24.3023 28.2346 23.3424 28.1945C22.8053 28.172 22.2256 28.2243 21.7033 28.3543C19.815 28.824 18.6416 30.3552 18.4152 32.7259C18.3515 33.4013 18.3506 34.0945 18.433 34.7671C18.8159 37.918 18.4847 40.7384 16.1327 43.278C14.4954 45.0463 14.1409 47.6653 13.1605 49.878C12.8072 50.6783 12.8466 51.6262 14.2496 51.5057C14.6904 51.4663 15.0318 51.8301 15.3163 52.1471C16.831 53.8417 18.0702 55.7268 19.0637 57.7651C19.4185 58.4948 19.6654 59.3352 19.0497 60.0628C18.4762 60.7406 17.6467 60.6536 16.9018 60.4898C14.9869 60.0725 13.0879 59.5881 11.1841 59.1266C10.3357 58.9216 10.0654 58.4352 10.4439 57.6119C10.6641 57.1351 10.7632 56.6209 10.5263 56.124C9.98965 55.0058 10.3386 54.4984 11.5585 54.3472C12.1369 54.2745 12.6006 54.0619 12.8596 53.6157C13.2645 52.9207 12.7213 52.7961 12.039 53.2252C11.5594 53.5247 11.0338 53.654 10.4526 53.7057C9.61147 53.7823 9.34113 54.372 9.50145 55.1907C9.66521 56.0207 9.80918 56.823 9.49092 57.6963C9.00072 59.028 9.32897 59.5988 10.7398 59.8954C11.4537 60.0467 17.4978 61.634 17.6102 61.6819C18.683 62.1482 20.9553 59.165 21.7859 59.165C21.8467 59.165 21.9056 59.165 21.9655 59.165C23.4644 59.165 25.0866 59.6523 26.5194 59.6418C27.0613 59.638 27.4793 60.1002 27.8674 60.4996C29.2006 61.8591 30.8173 62.0603 32.271 60.8195C33.2839 59.9539 34.3681 59.2829 35.5798 58.7268C35.6367 58.7017 35.6928 58.6827 35.7485 58.6643C35.8409 58.6318 36.466 58.2384 37.0317 57.6658C37.6875 57.0027 37.9344 56.386 37.2625 55.9552ZM26.9854 56.2731C25.232 58.0835 23.2095 58.4118 20.9326 57.4018C20.7465 57.3196 19.6091 56.9931 19.9944 56.5363C20.6512 55.7549 20.4248 55.0322 19.7445 54.3925C19.2749 53.9501 18.0877 52.9125 17.2868 51.9922C16.7583 51.3842 16.1886 50.1914 16.0417 49.4011C15.7565 47.8688 15.968 46.1028 15.968 46.1028C15.9964 45.9296 16.0572 45.8472 16.126 45.8147C16.2965 45.7342 16.2681 46.5394 16.3219 47.3423C16.3281 47.4227 16.3348 47.504 16.3433 47.5826C16.4357 48.3815 16.7957 48.3492 17.0151 47.5736C17.3517 46.3873 17.838 45.2441 18.4544 44.1072C18.9542 43.1841 18.8221 41.8949 19.4172 40.8639C19.7643 40.2608 19.9807 40.0587 20.4593 40.7012C21.165 41.6491 21.9907 41.6237 22.9027 40.9832C23.5661 40.5197 24.2641 40.109 24.9404 39.662C25.206 39.4883 25.6828 39.3374 25.4317 38.9305C25.2071 38.5676 24.817 38.8443 24.514 38.9794C23.986 39.2177 23.48 39.5356 22.8858 39.7246C22.1189 39.9697 22.0524 39.6226 22.8026 39.3278C23.6327 39.0013 24.3996 38.6992 25.163 38.3904C25.4344 38.2804 25.8199 38.1099 25.6418 37.7733C25.437 37.3895 25.1329 37.7364 24.886 37.8546C23.7983 38.3717 22.6737 38.7499 21.4526 38.735C20.681 38.7254 20.0759 38.3176 19.882 37.6402C19.6942 36.979 20.476 36.8421 20.8522 36.4745C20.9867 36.3428 21.1218 36.2265 21.2563 36.1293C21.4956 35.9574 21.714 35.831 21.7091 35.7702C21.7062 35.7085 21.7091 35.6615 21.7091 35.6615C21.7729 35.1843 21.758 34.8343 21.6995 34.5781C21.5641 33.9917 20.419 33.7691 20.0653 34.2067C19.7551 34.5892 19.7551 35.1618 19.7551 35.1618C19.7719 35.3801 19.7182 35.497 19.6398 35.5567C19.4517 35.6989 19.2004 34.8919 19.4426 34.1253C19.7102 33.278 20.1861 33.1469 20.7055 33.1469C22.6102 33.146 22.4475 35.7878 22.3867 35.8392C22.3811 35.845 22.3752 35.8479 22.3689 35.8517C22.3593 35.8579 22.5584 35.9173 22.773 36.06C22.9898 36.2027 23.2097 36.0509 23.2407 35.6616C23.2585 35.4262 23.2661 35.1872 23.2828 34.9561C23.2977 33.408 24.1714 33.0574 24.832 33.1471C26.7852 33.4089 26.5439 35.788 26.4831 35.8394C26.2701 36.0166 26.1251 36.0792 26.023 36.0783C25.732 36.0774 25.834 35.5451 25.8536 35.3962C25.8685 35.3018 25.8762 35.2128 25.8852 35.1277C25.8852 34.9641 25.8789 34.7945 25.8593 34.6246C25.8262 34.3492 25.6672 33.9797 25.4989 33.8657C25.328 33.7508 24.5515 33.6542 24.193 34.138C23.8331 34.6233 23.8388 35.4383 23.8703 35.7748C23.8909 36.0041 23.947 36.2214 24.0996 36.3205C24.4194 36.5273 24.7645 36.7187 25.1249 36.8332C25.8506 37.064 26.1877 37.4559 25.9836 38.2579C25.821 38.8997 25.9713 39.5177 26.3082 40.099C27.4437 42.0783 28.7262 45.6812 29.2801 48.2451C29.4515 49.0325 29.72 49.5002 29.8838 49.2188C30.0455 48.9363 30.2543 48.0383 30.2944 47.2355C30.3436 46.2963 30.2848 45.0492 29.823 43.9726C29.5056 43.2335 29.5995 43.1168 30.0555 43.7807C30.5662 44.5266 31.0474 45.7333 30.8909 47.5596C30.822 48.363 30.9248 49.2553 31.2541 49.5707C31.5858 49.886 31.3279 49.8421 30.6487 49.9263C29.9704 50.0106 29.5524 50.632 29.5016 50.837C29.4633 50.9939 29.4016 51.1051 29.3141 51.1605C27.6759 52.1467 27.8976 53.5972 28.0248 55.0879C28.0612 55.5013 27.1285 56.1237 26.9854 56.2731ZM21.4435 34.5872C21.6407 34.9995 21.4613 35.0598 21.2917 34.6729C21.1218 34.2857 21.2463 34.1754 21.4435 34.5872ZM25.3182 34.4082C25.0731 34.0727 25.2378 33.9042 25.525 34.2561C25.8102 34.6068 25.5632 34.7423 25.3182 34.4082Z" fill="#AEB1CF"/>
<path d="M48.466 23.0205C47.5757 22.6754 46.8424 21.9615 46.4766 21.0697C46.1071 20.1821 46.1185 19.1645 46.5043 18.2814C46.5387 18.201 46.5225 18.1037 46.4573 18.0401L44.5388 16.1215C44.4755 16.0577 44.3769 16.0401 44.2965 16.0746C43.4148 16.4619 42.398 16.4733 41.5094 16.1037C40.6209 15.738 39.9049 15.008 39.5583 14.11C39.5352 14.0548 39.5027 13.9735 39.3533 13.9726L36.6382 13.9717C36.5481 13.9726 36.4659 14.0307 36.4332 14.1138C36.0837 15.0109 35.3738 15.7362 34.4829 16.1057C33.5953 16.4733 32.5805 16.4619 31.6954 16.0755C31.6131 16.0401 31.5169 16.0568 31.4523 16.1225L29.5316 18.043C29.469 18.1058 29.4514 18.201 29.4866 18.2843C29.8748 19.1674 29.8835 20.1814 29.5176 21.0719C29.148 21.9608 28.4209 22.6735 27.5229 23.0227C27.4407 23.0563 27.3846 23.1376 27.3846 23.2267L27.3826 25.9433C27.3846 26.0937 27.463 26.1238 27.5247 26.1463C27.9824 26.3259 28.3964 26.5944 28.7455 26.9444C29.0786 27.277 29.3377 27.6639 29.5147 28.0986C29.8833 28.9885 29.8738 30.0043 29.4875 30.8865C29.4521 30.9669 29.4697 31.066 29.5343 31.1287L31.4521 33.0473C31.5165 33.112 31.613 33.1298 31.6934 33.0944C32.5775 32.708 33.5924 32.6966 34.4828 33.0651C35.3491 33.4246 36.0423 34.123 36.4023 34.982C36.4915 34.9092 36.5921 34.8494 36.703 34.8053C36.8609 34.7447 36.9882 34.621 37.0496 34.4702C37.1118 34.3228 37.1099 34.1447 37.0438 33.9963C36.8486 33.5406 36.9463 33.0288 37.2909 32.6857L38.2014 31.777C38.5441 31.4328 39.0543 31.3338 39.5025 31.5263C39.6594 31.5938 39.8386 31.5967 39.9869 31.5348C40.1344 31.4731 40.2589 31.3476 40.3163 31.1975C40.4951 30.7436 40.9386 30.4426 41.421 30.4426H42.7068C43.0294 30.4444 43.3253 30.566 43.5445 30.7839L43.6959 30.9361L43.8001 31.1739C43.8758 31.3672 43.9927 31.4751 44.138 31.5348C44.2903 31.5976 44.4682 31.5965 44.6158 31.5301C45.0437 31.3467 45.5167 31.4301 45.8613 31.7304L46.4588 31.1309C46.5201 31.0691 46.5392 30.9691 46.5047 30.8858C46.118 30.0036 46.1084 28.9876 46.476 28.1005C46.8457 27.2093 47.5703 26.4974 48.4686 26.1474C48.5488 26.1163 48.6075 26.0339 48.6075 25.9444V23.2287C48.6058 23.0755 48.5274 23.0439 48.466 23.0205ZM41.7297 28.3164C39.6712 30.3752 36.3223 30.3743 34.2624 28.3144C32.2054 26.2569 32.2054 22.9097 34.2642 20.8509C36.3208 18.793 39.6721 18.7901 41.7297 20.8491C43.7881 22.9079 43.7861 26.2589 41.7297 28.3164Z" fill="#AEB1CF"/>
<path d="M46.0122 37.8221C46.1874 37.4003 46.5304 37.0634 46.9563 36.8982C46.9946 36.8838 47.0204 36.8426 47.0222 36.8014V35.5153C47.0222 35.4443 46.983 35.4276 46.9563 35.417C46.534 35.2544 46.1845 34.9149 46.0122 34.4946C45.837 34.0728 45.8427 33.5917 46.0266 33.1729C46.0438 33.1346 46.0342 33.0897 46.0055 33.059L45.0959 32.1494C45.0654 32.1188 45.0193 32.1102 44.981 32.1269C44.5636 32.3112 44.0811 32.315 43.6617 32.1427C43.2396 31.969 42.9015 31.6229 42.7368 31.1974C42.7254 31.172 42.7102 31.1327 42.6392 31.1318H41.3514C41.3093 31.1318 41.2692 31.1594 41.2528 31.1988C41.0881 31.6238 40.751 31.9663 40.3309 32.1418C39.9086 32.3159 39.4289 32.3112 39.0106 32.1278C38.9723 32.1111 38.9244 32.1179 38.8937 32.1484L37.9841 33.0579C37.9534 33.0884 37.9458 33.1346 37.9642 33.1738C38.147 33.5917 38.1528 34.0728 37.9785 34.4937C37.8033 34.9149 37.4596 35.2542 37.0335 35.419C36.9952 35.4339 36.9692 35.4741 36.9692 35.5153V36.8034C36.9692 36.8749 37.0056 36.8887 37.0353 36.8996C37.2526 36.9849 37.4478 37.1113 37.6145 37.2778C37.7704 37.4348 37.893 37.6182 37.9783 37.823C38.1526 38.2453 38.1486 38.727 37.964 39.1442C37.9456 39.1825 37.9563 39.23 37.9859 39.2602L38.8955 40.1692C38.9242 40.1994 38.9701 40.2084 39.0084 40.1908C39.4278 40.0075 39.9084 40.0022 40.3307 40.1768C40.7519 40.3526 41.088 40.6972 41.2546 41.1209C41.267 41.1496 41.2813 41.1865 41.3512 41.1874L42.639 41.1865C42.6811 41.1865 42.7194 41.1601 42.7347 41.1209C42.9013 40.6952 43.2381 40.3517 43.6595 40.1768C44.0807 40.0011 44.5615 40.0075 44.9807 40.1917C45.019 40.207 45.0651 40.2003 45.0956 40.1701L46.0052 39.2611C46.0339 39.2309 46.0435 39.1836 46.0262 39.1453C45.8427 38.725 45.837 38.2435 46.0122 37.8221ZM40.2267 37.9268C39.2521 36.9503 39.2521 35.3662 40.2287 34.3905C41.2023 33.416 42.7879 33.4131 43.7644 34.3896C44.739 35.3653 44.739 36.9521 43.7635 37.9267C42.7877 38.9025 41.2023 38.9016 40.2267 37.9268Z" fill="#AEB1CF"/>
</svg>
