<svg width="74" height="100" viewBox="0 0 74 100" fill="none" xmlns="http://www.w3.org/2000/svg">
<path d="M72.355 22.2555L53.8519 1.15457C53.2083 0.420819 52.2799 0 51.3039 0H4.56841C2.4028 0 0.646973 1.75583 0.646973 3.92144V96.0786C0.646973 98.2445 2.4028 100 4.56841 100H69.2742C71.4401 100 73.196 98.2442 73.196 96.0782V24.4898C73.196 23.6677 72.8972 22.8737 72.355 22.2555ZM26.2863 90.913H16.1135V74.9673H25.9551V77.9247H19.733V81.2367H25.6002V84.1704H19.733V87.9556H26.286V90.913H26.2863ZM42.4692 90.913L42.2327 84.8089C42.1614 82.8928 42.0907 80.5742 42.0907 78.2559H42.0197C41.5229 80.2903 40.8604 82.5616 40.2453 84.4306L38.3055 90.6527H35.4901L33.7866 84.478C33.2664 82.6089 32.722 80.3379 32.3437 78.2559H32.2964C32.2018 80.4086 32.1311 82.8691 32.0128 84.8565L31.7289 90.913H28.3933L29.4106 74.9673H34.2134L35.7746 80.2903C36.2715 82.1357 36.7683 84.1228 37.1232 85.9918H37.1942C37.6437 84.1464 38.1879 82.0411 38.7084 80.2666L40.4115 74.9673H45.1197L45.9951 90.913H42.4692V90.913ZM58.7231 90.913H48.7632V74.9673H52.3831V87.8846H58.7235V90.913H58.7231ZM4.56841 66.5843V3.92175H49.9938V23.9851C49.9938 25.0674 50.8708 25.946 51.9547 25.946H69.2745L69.2764 66.5843H4.56841Z" fill="#AEB1CF"/>
<path d="M53.1949 31.7812H20.6483C18.7114 31.7812 17.136 33.3566 17.136 35.2935V55.2563C17.136 57.1932 18.7114 58.7685 20.6483 58.7685H53.1949C55.1318 58.7685 56.7071 57.1932 56.7071 55.2563V35.2935C56.7071 33.3566 55.1318 31.7812 53.1949 31.7812ZM20.6483 34.645H53.1949C53.3144 34.645 53.4283 34.6775 53.527 34.7368L36.7356 46.0503L20.3057 34.7431C20.4066 34.68 20.5243 34.645 20.6483 34.645ZM19.9994 53.1351V38.0093L31.0741 45.6307L19.9994 53.1351ZM53.1949 55.9048H21.018L33.6072 47.3739L36.7183 49.5149L40.4081 47.0288L53.4687 55.843C53.3844 55.8831 53.2908 55.9048 53.1949 55.9048ZM53.8434 52.6411L42.97 45.303L53.8434 37.9765V52.6411Z" fill="#AEB1CF"/>
</svg>
