<svg width="73" height="100" viewBox="0 0 73 100" fill="none" xmlns="http://www.w3.org/2000/svg">
<path d="M36.3977 75.0474C35.3047 75.0474 34.5638 75.1527 34.1746 75.26V82.2816C34.6341 82.3869 35.1991 82.4243 35.9745 82.4243C38.8334 82.4243 40.5988 80.9756 40.5988 78.5419C40.5988 76.3533 39.0803 75.0474 36.3977 75.0474Z" fill="#AEB1CF"/>
<path d="M72.7256 23.9636C72.7198 23.505 72.5724 23.0521 72.2574 22.694L52.9778 0.67066C52.9722 0.664487 52.9666 0.66249 52.9626 0.656862C52.8477 0.528503 52.7137 0.422657 52.5721 0.329339C52.5299 0.302105 52.4878 0.277596 52.4437 0.252723C52.3212 0.186274 52.1928 0.131082 52.057 0.0907769C52.0205 0.0802468 51.988 0.0653594 51.9517 0.0559186C51.8061 0.0206971 51.6549 0 51.5016 0H4.11736C1.95542 0 0.195801 1.7598 0.195801 3.92174V96.0784C0.195801 98.2413 1.95542 100 4.11736 100H68.8231C70.9851 100 72.7449 98.2413 72.7449 96.0784V24.1833C72.7447 24.1096 72.7332 24.0374 72.7256 23.9636ZM25.1752 94.9504H9.99971V71.1664H24.6812V75.5763H15.3995V80.5175H24.1507V84.8936H15.3995V90.5407H25.1751V94.9504H25.1752ZM43.7389 84.0476C41.9027 85.7765 39.1856 86.5532 36.0104 86.5532C35.3038 86.5532 34.6685 86.5178 34.1745 86.4479V94.9526H28.845V71.4833C30.5047 71.2008 32.8332 70.9892 36.1157 70.9892C39.4327 70.9892 41.7974 71.6239 43.3867 72.8955C44.9034 74.0941 45.9257 76.0692 45.9257 78.3995C45.9256 80.729 45.1501 82.7052 43.7389 84.0476ZM55.1743 95.3039C52.4571 95.3039 49.7765 94.5982 48.4341 93.8571L49.5294 89.4111C50.9751 90.152 53.1981 90.8931 55.4922 90.8931C57.9622 90.8931 59.2681 89.8686 59.2681 88.3166C59.2681 86.8337 58.1383 85.9873 55.2816 84.9648C51.3302 83.5881 48.752 81.3993 48.752 77.9412C48.752 73.8835 52.1392 70.7778 57.7525 70.7778C60.4324 70.7778 62.4094 71.3426 63.8217 71.9774L62.6211 76.3172C61.6675 75.8595 59.9749 75.1894 57.6445 75.1894C55.3161 75.1894 54.1863 76.2482 54.1863 77.4833C54.1863 79.0008 55.5287 79.6702 58.598 80.8354C62.7974 82.3884 64.7745 84.5761 64.7745 87.9287C64.7732 91.9154 61.7039 95.3039 55.1743 95.3039ZM4.11736 66.5852V3.92174H49.5407V23.9862C49.5407 25.0684 50.4197 25.9469 51.5016 25.9469H68.8231V66.5852H4.11736Z" fill="#AEB1CF"/>
<path d="M39.2487 52.3621C33.1753 51.4018 32.4684 44.7951 32.3961 42.7902H34.3507V32.9705H32.1109V22.6345C32.8558 22.411 33.4028 21.7278 33.4028 20.9101C33.4008 19.9112 32.5929 19.1011 31.5927 19.1011C30.5947 19.1011 29.7832 19.9121 29.7832 20.9101C29.7832 21.7278 30.3309 22.411 31.0771 22.6345V29.3042C29.3614 24.3788 25.47 23.4941 23.4949 23.3772V19.3787H17.9822V29.1975H23.4949V24.7176C28.8224 25.3529 30.2231 30.192 30.5831 32.9705H28.8367V42.7893H31.0782V53.5042C30.3309 53.7265 29.7843 54.4098 29.7843 55.2295C29.7843 56.229 30.5956 57.0391 31.5938 57.0391C32.5938 57.0391 33.4017 56.229 33.4037 55.2295C33.4037 54.4109 32.8576 53.7274 32.1116 53.5051V48.0776C33.7694 52.5066 37.2343 53.5213 39.2496 53.7168V57.7455H44.7643V47.9233H39.2496V52.3619H39.2487V52.3621Z" fill="#AEB1CF"/>
</svg>
