<svg width="74" height="100" viewBox="0 0 74 100" fill="none" xmlns="http://www.w3.org/2000/svg">
<path d="M73.2749 23.9636C73.2691 23.505 73.1237 23.0521 72.8087 22.694L53.5272 0.67066C53.5233 0.664487 53.5175 0.66249 53.5119 0.656862C53.397 0.528503 53.265 0.422657 53.1232 0.329339C53.0811 0.302105 53.0388 0.277596 52.9948 0.252723C52.8703 0.186274 52.7419 0.131082 52.6079 0.0907769C52.5716 0.0802468 52.5391 0.0653594 52.5026 0.0559186C52.3554 0.0206971 52.206 0 52.0528 0H4.66668C2.50474 0 0.745117 1.7598 0.745117 3.92174V96.0784C0.745117 98.2413 2.50474 100 4.66668 100H69.3724C71.5362 100 73.2942 98.2413 73.2942 96.0784V24.1833C73.294 24.1096 73.2826 24.0374 73.2749 23.9636ZM49.8507 42.4039C49.8794 42.3892 49.9081 42.3714 49.9369 42.3579C50.1323 42.2579 50.3373 42.1757 50.5382 42.0885C50.6837 42.0268 50.8264 41.9569 50.9729 41.9024C51.0331 41.8794 51.0974 41.863 51.1568 41.8411C54.4188 40.6788 58.1775 41.0647 61.2096 43.2189C66.1382 46.723 67.2987 53.5789 63.7966 58.5115C62.0195 61.0084 59.381 62.5366 56.5662 62.9835C56.2446 63.0344 55.9208 63.0756 55.6012 63.0976C55.5916 63.0976 55.584 63.0976 55.5782 63.0976C50.0453 63.4518 45.017 59.5656 44.072 53.981C43.2561 49.1666 45.7281 44.5393 49.8507 42.4039ZM4.66668 3.92174H50.092V23.9862C50.092 25.0684 50.9691 25.9469 52.0528 25.9469H69.3724V35.4019L65.3552 32.5493C65.1023 32.3679 64.9531 32.4636 64.841 32.5355C64.8401 32.5364 64.8381 32.5375 64.8381 32.5375C64.8305 32.5413 64.8209 32.5393 64.8151 32.5442C64.1871 32.9564 63.5034 33.2661 62.7902 33.4682C62.7434 33.4816 62.6956 33.4887 62.6477 33.5012C62.4658 33.5491 62.2839 33.5956 62.0972 33.6285C61.1245 33.8042 60.1143 33.7873 59.1397 33.5609C57.1924 33.121 55.4834 31.8759 54.4524 30.1579C54.3585 30.0023 54.1737 29.9143 53.9888 29.9453L48.4282 30.8865C48.2434 30.9181 48.094 31.0622 48.0557 31.2398C47.6499 33.2006 46.4473 34.9373 44.7536 35.9952C43.0637 37.0617 40.966 37.3944 39.0254 36.9033C38.9046 36.8756 38.7303 36.8285 38.5475 37.0847L36.2881 40.2599C36.2814 40.257 36.2732 40.2552 36.2676 40.2514L35.2469 41.6846C35.1419 41.8343 35.1401 42.0449 35.2383 42.2011C36.3355 43.8756 36.7107 45.9513 36.2656 47.8992C35.8166 49.8512 34.5762 51.5645 32.8585 52.589C32.7031 52.6809 32.6143 52.8725 32.6441 53.0551L33.5862 58.6168C33.6379 58.9233 33.8108 58.9614 33.941 58.9892C35.8874 59.3866 37.637 60.5948 38.6968 62.2953C39.5048 63.5763 39.887 65.0841 39.8151 66.5854H4.66668V3.92174ZM24.612 94.8059H9.43664V71.0209H24.1176V75.4309H14.8364V80.3731H23.5891V84.7486H14.8364V90.3954H24.612V94.8059ZM40.8128 94.8059L38.6586 90.5004C37.7777 88.8421 37.2129 87.607 36.5433 86.2302H36.4725C35.9783 87.607 35.3776 88.8421 34.6361 90.5004L32.6601 94.8059H26.5207L33.401 82.7722L26.7676 71.0207H32.943L35.0243 75.3626C35.7314 76.8083 36.2599 77.9735 36.8242 79.3139H36.8952C37.46 77.7974 37.9177 76.7384 38.5188 75.3626L40.5294 71.0207H46.6702L39.9644 82.6313L47.0224 94.8066H40.8126V94.8059H40.8128ZM65.0947 94.8059H49.9197V71.0209H64.5988V75.4309H55.3176V80.3731H64.0703V84.7486H55.3176V90.3954H65.0949V94.8059H65.0947Z" fill="#15499F"/>
<path d="M31.444 45.5924C30.7599 45.0003 30.3411 44.1443 30.2931 43.2425C30.2458 42.3388 30.5765 41.4417 31.196 40.7839C31.2539 40.7231 31.2674 40.6307 31.2323 40.5565L30.4794 38.9739C30.4832 38.9709 30.487 38.9671 30.4908 38.9662L30.149 38.2487C30.1361 38.2209 30.1136 38.2041 30.0902 38.1868C30.0882 38.1839 30.0849 38.1806 30.0811 38.1777C30.0706 38.1692 30.0615 38.161 30.0499 38.1552C30.0232 38.1429 29.9958 38.1347 29.9714 38.1365C29.9614 38.1356 29.9536 38.1318 29.9471 38.1307C29.0451 38.1954 28.1428 37.8856 27.4736 37.2805C26.802 36.675 26.399 35.809 26.3727 34.9052C26.3707 34.8239 26.3147 34.7464 26.2343 34.7181L23.8331 33.866C23.7009 33.8192 23.6488 33.88 23.6085 33.9239C23.6076 33.9248 23.6076 33.9248 23.6076 33.9268C23.6038 33.9277 23.6009 33.9288 23.5969 33.9316C23.3752 34.1877 23.1172 34.4074 22.832 34.5826C22.8133 34.5946 22.7942 34.6042 22.7746 34.6153C22.7018 34.6592 22.6272 34.6995 22.55 34.7378C22.149 34.9336 21.7085 35.0514 21.2556 35.073C20.3547 35.1222 19.4586 34.7914 18.7988 34.1721C18.7391 34.116 18.6481 34.1017 18.5715 34.1367L16.2703 35.2318C16.1937 35.2692 16.1466 35.3506 16.1525 35.431C16.2176 36.3339 15.9094 37.2377 15.3048 37.9063C14.7017 38.579 13.8304 38.9815 12.9261 39.0073C12.8696 39.012 12.7883 39.012 12.7409 39.1452L12.1506 40.8045C12.1488 40.8045 12.1439 40.8045 12.141 40.8025L11.8745 41.5521C11.8473 41.6307 11.8734 41.7222 11.9351 41.779C12.6183 42.3707 13.0381 43.2267 13.084 44.1276C13.13 45.0319 12.8026 45.929 12.1822 46.5868C12.1261 46.6467 12.1118 46.7395 12.1468 46.8143L13.244 49.1173C13.3046 49.2447 13.3832 49.238 13.444 49.2345C14.3382 49.1681 15.2478 49.4776 15.9175 50.0857C16.5902 50.6888 16.9898 51.5555 17.0194 52.4591C17.0214 52.5415 17.0764 52.6171 17.1545 52.6468L19.5557 53.4971C19.5715 53.5027 19.5858 53.4991 19.6016 53.4991C19.7098 53.5248 19.7587 53.4749 19.7932 53.4321C19.944 53.2587 20.1105 53.1007 20.293 52.9629C20.3021 52.9571 20.3108 52.9515 20.3173 52.9455C20.3959 52.8843 20.4782 52.8306 20.5604 52.779C20.6232 52.7407 20.6902 52.7053 20.7558 52.6717C20.7859 52.6545 20.8175 52.6374 20.8496 52.622C21.2479 52.4286 21.6849 52.3137 22.1319 52.2908C23.031 52.2418 23.9329 52.5722 24.592 53.1928C24.6341 53.23 24.6915 53.2866 24.8193 53.2271L27.121 52.1318C27.1243 52.1309 27.1252 52.13 27.1272 52.1289L27.1328 52.126C27.2114 52.0886 27.2554 52.01 27.2507 51.9257C27.1851 51.0238 27.4948 50.122 28.1003 49.4504C28.4525 49.0621 28.8944 48.7654 29.3788 48.5777C29.4023 48.5692 29.4286 48.5572 29.4536 48.5485C29.4948 48.5336 29.5379 48.523 29.58 48.5081C29.6493 48.4865 29.7203 48.4651 29.7888 48.4464C29.8006 48.4444 29.8093 48.4426 29.8213 48.4397C30.0299 48.3923 30.2454 48.3622 30.4623 48.3564C30.5466 48.3522 30.6203 48.3003 30.6495 48.218L31.5036 45.8159C31.5312 45.7366 31.5077 45.6496 31.444 45.5924ZM26.3607 45.3435C25.8959 46.6485 24.9369 47.6385 23.7694 48.1799C23.6354 48.2416 23.5008 48.3005 23.3645 48.3484C23.3607 48.3495 23.3569 48.3513 23.3531 48.3522C20.9921 49.1884 18.3266 48.12 17.2256 45.8094C16.2788 43.8179 16.7834 41.5005 18.31 40.0644C18.3206 40.0554 18.3306 40.0423 18.3425 40.0329C18.4139 39.9662 18.4923 39.9045 18.5698 39.8419C18.6263 39.7965 18.6775 39.7485 18.7354 39.7064C18.7579 39.6897 18.7843 39.6748 18.8077 39.6576C20.0815 38.7504 21.7636 38.4535 23.3482 39.0171C25.9235 39.9308 27.2746 42.7672 26.3607 45.3435Z" fill="#15499F"/>
<path d="M28.2165 24.2889C28.2615 25.1918 27.9351 26.0897 27.3147 26.7479C27.2586 26.8072 27.2439 26.9005 27.2782 26.9763L28.3755 29.2769C28.4362 29.4047 28.5157 29.3995 28.5765 29.3955C29.4701 29.3279 30.3802 29.6376 31.05 30.2457C31.7227 30.8493 32.1222 31.7163 32.1509 32.62C32.1538 32.7025 32.2083 32.778 32.2869 32.8072L34.6881 33.6592C34.7039 33.6631 34.7185 33.6592 34.7341 33.6612C34.8417 33.6867 34.89 33.6358 34.9251 33.5937C35.0763 33.419 35.243 33.2611 35.4253 33.1242C35.4329 33.1184 35.443 33.1131 35.4496 33.1075C35.5282 33.0476 35.6086 32.9917 35.6929 32.9399C35.7555 32.9016 35.823 32.8662 35.8882 32.8332C35.9184 32.8154 35.949 32.7978 35.9821 32.7829C36.3802 32.589 36.8154 32.475 37.2637 32.4526C38.1636 32.4024 39.0665 32.7331 39.7232 33.3544C39.7644 33.3918 39.8249 33.4497 39.9521 33.3889L42.2537 32.2936C42.2557 32.2936 42.2575 32.2907 42.2584 32.2907L42.2662 32.2878C42.3428 32.2504 42.3887 32.1718 42.3829 32.0886C42.3179 31.1858 42.6282 30.284 43.2333 29.6133C43.5856 29.2241 44.028 28.9269 44.5124 28.7397C44.5354 28.7301 44.5621 28.7192 44.5861 28.7115C44.6273 28.6957 44.6712 28.6849 44.7134 28.6703C44.7813 28.6498 44.8513 28.6273 44.922 28.6095C44.9316 28.6075 44.9421 28.6066 44.9536 28.6022C45.1633 28.5543 45.3779 28.5253 45.595 28.5191C45.6803 28.5153 45.7529 28.4626 45.7816 28.3813L46.6357 25.9792C46.6623 25.8996 46.6395 25.8116 46.5754 25.7557C45.89 25.1634 45.4724 24.3067 45.4245 23.4047C45.3795 22.5008 45.707 21.6048 46.3274 20.9461C46.3847 20.8862 46.3984 20.794 46.3619 20.7183L45.6111 19.1371C45.615 19.1342 45.617 19.1304 45.6226 19.1295L45.2798 18.412C45.2675 18.3851 45.2435 18.3675 45.2224 18.3497C45.2195 18.3468 45.2166 18.3439 45.2128 18.341C45.2014 18.3334 45.1927 18.3243 45.1812 18.3185C45.1544 18.3047 45.1266 18.2989 45.1026 18.2989C45.0919 18.298 45.0843 18.2931 45.0787 18.2931C44.1758 18.3568 43.274 18.048 42.6046 17.4438C41.9325 16.8377 41.5304 15.9723 41.5028 15.0676C41.5017 14.9852 41.4461 14.9096 41.3659 14.8799L38.9645 14.0284C38.8305 13.981 38.7789 14.0422 38.7386 14.0863C38.7386 14.0872 38.7386 14.0872 38.7386 14.0872C38.7348 14.0892 38.7319 14.0901 38.7281 14.0928C38.5068 14.3476 38.2475 14.5683 37.963 14.7439C37.9439 14.7546 37.9238 14.7655 37.9056 14.7766C37.8319 14.8205 37.7582 14.8608 37.6807 14.8991C37.2795 15.095 36.8387 15.2128 36.3877 15.2352C35.4859 15.2831 34.5897 14.9527 33.93 14.3334C33.8692 14.2773 33.7787 14.2615 33.7027 14.298L31.4006 15.3942C31.324 15.4305 31.278 15.5119 31.2837 15.5919C31.3483 16.4953 31.0404 17.3991 30.4349 18.0689C29.8327 18.7413 28.9614 19.144 28.0571 19.1685C28.0001 19.1727 27.9187 19.1727 27.8717 19.3078L27.2815 20.9665C27.2795 20.9656 27.2748 20.9665 27.2719 20.9656L27.0042 21.7146C26.9776 21.7942 27.0024 21.8846 27.066 21.941C27.7517 22.5311 28.1716 23.3869 28.2165 24.2889ZM33.444 20.2232C33.4559 20.2146 33.4647 20.2027 33.4752 20.193C33.5478 20.126 33.6264 20.0643 33.7039 20.0006C33.7604 19.9567 33.8125 19.9087 33.8695 19.8657C33.8929 19.8499 33.9184 19.8341 33.9418 19.8163C35.2157 18.9085 36.8967 18.6124 38.4813 19.1753C41.0569 20.0901 42.4067 22.9269 41.4924 25.5029C41.028 26.8083 40.0698 27.798 38.9016 28.3392C38.7668 28.4005 38.6335 28.4594 38.4968 28.5078C38.493 28.5078 38.4892 28.5097 38.4853 28.5107C36.1244 29.3479 33.4588 28.2782 32.3599 25.9674C31.4115 23.9772 31.9164 21.6613 33.444 20.2232Z" fill="#15499F"/>
</svg>
