<svg width="74" height="100" viewBox="0 0 74 100" fill="none" xmlns="http://www.w3.org/2000/svg">
<path d="M73.1767 23.9636C73.171 23.505 73.0255 23.0522 72.7105 22.6942L53.4293 0.670629C53.4255 0.664975 53.4197 0.662604 53.414 0.65695C53.2991 0.528551 53.1671 0.422768 53.0252 0.329387C52.9832 0.302212 52.9409 0.277772 52.897 0.252968C52.7724 0.186397 52.644 0.131317 52.5101 0.0910101C52.4736 0.0804317 52.4414 0.0656586 52.4049 0.0561745C52.2575 0.0215214 52.108 0 51.9549 0H4.56861C2.40681 0 0.646973 1.75983 0.646973 3.92164V96.0785C0.646973 98.2413 2.40681 100 4.56861 100H69.2742C71.4378 100 73.196 98.2413 73.196 96.0785V24.1833C73.1962 24.1096 73.1844 24.0374 73.1767 23.9636ZM23.0117 76.4457H17.2549V93.5279H12.4688V76.4457H6.80611V72.4416H23.0126V76.4457H23.0117ZM43.5676 93.5279L43.2565 85.4557C43.1625 82.9217 43.0679 79.8559 43.0679 76.7895H42.9741C42.3174 79.4784 41.4425 82.4832 40.6266 84.9551L38.0616 93.1832H34.3393L32.0861 85.018C31.3972 82.547 30.6781 79.5426 30.1775 76.7895H30.1147C29.9894 79.6356 29.8951 82.8899 29.739 85.5181L29.3637 93.5277H24.9519L26.297 72.4396H32.6491L34.7137 79.4784C35.3705 81.92 36.0284 84.5491 36.4969 87.0193H36.591C37.186 84.5799 37.9049 81.7954 38.5932 79.448L40.8462 72.4396H47.0723L48.2299 93.5277H43.5676V93.5279ZM65.0992 83.8609C63.4713 85.3937 61.0625 86.0811 58.247 86.0811C57.6209 86.0811 57.0577 86.0507 56.6192 85.9872V93.5279H51.8957V72.7221C53.3661 72.4715 55.4314 72.285 58.341 72.285C61.2819 72.285 63.3786 72.8478 64.7863 73.9746C66.1313 75.0383 67.0398 76.7902 67.0398 78.8568C67.0398 80.9216 66.3504 82.6709 65.0992 83.8609ZM4.56861 66.5853V3.92164H49.9939V23.986C49.9939 25.0684 50.8712 25.9468 51.9549 25.9468H69.2744L69.2764 66.5851H4.56861V66.5853Z" fill="#AEB1CF"/>
<path d="M58.5913 75.8809C57.6208 75.8809 56.9638 75.9757 56.6191 76.0684V82.2957C57.0259 82.3896 57.5267 82.4201 58.2163 82.4201C60.7494 82.4201 62.3137 81.1383 62.3137 78.979C62.3137 77.0405 60.9677 75.8809 58.5913 75.8809Z" fill="#AEB1CF"/>
<rect x="4" y="69.998" width="66" height="25" fill="#AEB1CF"/>
<path d="M21.5366 84.918H14.6274V91.998H10.3428V74.2246H22.2324V77.5327H14.6274V81.6221H21.5366V84.918ZM31.0801 91.998H26.8076V74.2246H31.0801V91.998ZM40.8433 88.7021H48.3018V91.998H36.5586V74.2246H40.8433V88.7021ZM63.6313 84.4663H56.8931V88.7021H64.8521V91.998H52.6084V74.2246H64.8765V77.5327H56.8931V81.2803H63.6313V84.4663Z" fill="white"/>
<path d="M51.374 28.7029C51.372 28.5176 51.3129 28.3332 51.1865 28.1893L43.3757 19.2685C43.3757 19.2676 43.3719 19.2656 43.37 19.2638C43.3241 19.2109 43.2706 19.1689 43.2134 19.1316C43.1948 19.1186 43.1789 19.11 43.1618 19.0998C43.1098 19.0736 43.0582 19.0509 43.0045 19.0353C42.9894 19.0305 42.9757 19.0234 42.9626 19.0196C42.9024 19.0061 42.8419 18.998 42.7797 18.998H23.5878C22.7128 18.998 22 19.711 22 20.5864V57.9079C22 58.7848 22.7128 59.4961 23.5878 59.4961H49.7924C50.6693 59.4961 51.3817 58.7828 51.3817 57.9079V28.7925C51.3817 28.7617 51.376 28.7327 51.374 28.7029ZM23.5878 57.676V20.5864H41.9854V28.713C41.9854 29.1501 42.3396 29.5063 42.7793 29.5063H49.7944V57.6762H23.5878V57.676Z" fill="#AEB1CF"/>
</svg>
