<svg width="73" height="100" viewBox="0 0 73 100" fill="none" xmlns="http://www.w3.org/2000/svg">
<path d="M54.3876 75.0093H54.3168C53.9653 76.4203 53.612 78.2204 53.2235 79.5973L51.8132 84.6429H57.0713L55.5882 79.5973C55.1641 78.1841 54.7409 76.4205 54.3876 75.0093Z" fill="#B72025"/>
<path d="M72.8218 23.9636C72.818 23.5041 72.6714 23.0521 72.3566 22.694L53.076 0.67066C53.0704 0.665031 53.0647 0.66249 53.0607 0.656862C52.9458 0.528503 52.8118 0.421749 52.6702 0.329339C52.6281 0.301198 52.586 0.277596 52.5418 0.252723C52.4193 0.186274 52.2891 0.130174 52.1551 0.0900507C52.1187 0.0804283 52.0861 0.0655409 52.0498 0.0559186C51.9042 0.0216049 51.753 0 51.5998 0H4.21551C2.05175 0 0.293945 1.7598 0.293945 3.92174V96.0784C0.293945 98.2402 2.05175 100 4.21551 100H68.9213C71.0832 100 72.843 98.2404 72.843 96.0784V24.1824C72.8428 24.1096 72.8314 24.0374 72.8218 23.9636ZM23.189 75.3962H14.0486V80.8325H22.5893V85.2079H14.0486V94.7705H8.64887V70.9864H23.189V75.3962ZM42.106 94.7705H27.2489V70.9864H32.6477V90.2535H42.106V94.7705ZM59.6813 94.7705L57.8459 88.666H51.035L49.3421 94.7705H43.7652L51.0339 70.9864H58.0919L65.4668 94.7705H59.6813ZM68.9213 66.5843H4.21551V3.92174H49.6388V23.9852C49.6388 25.0691 50.5179 25.946 51.5998 25.946H68.9213V66.5843Z" fill="#B72025"/>
<path d="M21.585 25.0713H37.7901V29.4927H26.598V37.635H37.0568V42.0564H26.598V54.5769H21.585V25.0713V25.0713Z" fill="#B72025"/>
<path d="M41.4723 25.2568H46.5257C46.5257 25.2568 46.5257 45.3262 46.5257 47.6163C46.5257 49.9068 47.0522 50.33 49.5912 50.33C49.5912 54.4267 49.576 55.1055 49.576 55.1055C45.578 55.2138 41.4714 54.6212 41.4714 49.8202C41.4723 45.0173 41.4723 25.2568 41.4723 25.2568Z" fill="#B72025"/>
</svg>
