<svg width="74" height="100" viewBox="0 0 74 100" fill="none" xmlns="http://www.w3.org/2000/svg">
<path d="M35.124 77.686H35.08C34.8573 78.6514 34.6361 79.8827 34.3911 80.8229L33.5007 84.2743H36.8156L35.8834 80.8229C35.614 79.8577 35.3476 78.6514 35.124 77.686Z" fill="#B72025"/>
<path d="M73.3725 23.9626C73.3668 23.5041 73.2195 23.0522 72.9045 22.6932L53.6251 0.668805C53.6195 0.663516 53.6138 0.66078 53.6098 0.656038C53.4949 0.526728 53.3609 0.421856 53.2191 0.328658C53.177 0.301482 53.1347 0.275766 53.0908 0.252056C52.9682 0.184574 52.8398 0.130405 52.7039 0.0900981C52.6674 0.0795198 52.6352 0.0638347 52.5987 0.0561745C52.4533 0.0206095 52.3018 0 52.1487 0H4.76441C2.60261 0 0.842773 1.75892 0.842773 3.92164V96.0785C0.842773 98.2405 2.60261 100 4.76441 100H69.47C71.6318 100 73.3918 98.2405 73.3918 96.0785V24.1824C73.392 24.1087 73.3802 24.0365 73.3725 23.9626ZM15.4606 77.9506H9.70066V81.6683H15.0828V84.6622H9.70066V91.2014H6.29754V74.9348H15.4606V77.9506ZM27.3838 91.2014H18.0203V74.9348H21.4234V88.1116H27.384V91.2014H27.3838ZM38.4615 91.2014L37.3048 87.0251H33.0113L31.9447 91.2014H28.4309L33.0113 74.9348H37.4596L42.1079 91.2014H38.4615ZM47.781 91.4427C46.0691 91.4427 44.3784 90.9601 43.5338 90.4527L44.2234 87.412C45.1346 87.9183 46.5362 88.4248 47.982 88.4248C49.5384 88.4248 50.3621 87.724 50.3621 86.6613C50.3621 85.6481 49.6499 85.0701 47.8481 84.3694C45.3567 83.4292 43.7359 81.9317 43.7359 79.5669C43.7359 76.7915 45.869 74.668 49.4055 74.668C51.0964 74.668 52.3401 75.0558 53.2306 75.4893L52.475 78.4567C51.8768 78.1435 50.8073 77.6859 49.3387 77.6859C47.8729 77.6859 47.1596 78.4087 47.1596 79.2539C47.1596 80.2929 48.0031 80.7494 49.9399 81.5461C52.5855 82.6089 53.8331 84.1052 53.8331 86.3983C53.8318 89.1255 51.8958 91.4427 47.781 91.4427ZM68.4899 91.2014H65.1081V84.3953H59.5266V91.2014H56.122V74.9348H59.5266V81.1852H65.1081V74.9348H68.4899V91.2014ZM4.76441 66.5843V3.92164H50.1879V23.9851C50.1879 25.0675 51.0668 25.9459 52.1487 25.9459H69.4702V66.5842H4.76441V66.5843Z" fill="#B72025"/>
<path d="M38.226 28.2181C33.8984 31.4618 31.1582 40.2628 28.8505 45.0944C26.5417 49.9256 22.2888 49.3511 22.2888 49.3511V55.0437C22.2888 55.0437 24.9566 55.1184 27.1888 54.1859C29.4292 53.2475 32.0242 51.1519 33.5418 48.5613C34.132 47.5465 35.035 45.4612 36.0171 43.1496H42.8454V37.3051H38.514C39.1813 35.8212 39.7845 34.564 40.2424 33.8474C41.9034 31.2532 46.0155 31.3199 46.0155 31.3199V25.7654C46.0155 25.765 42.5534 24.9719 38.226 28.2181Z" fill="#B72025"/>
</svg>
