<svg width="73" height="100" viewBox="0 0 73 100" fill="none" xmlns="http://www.w3.org/2000/svg">
<path d="M72.5298 23.9636C72.524 23.5041 72.3786 23.0521 72.0636 22.694L52.782 0.67066C52.7782 0.665031 52.7708 0.66249 52.7668 0.656862C52.6519 0.528503 52.5199 0.421749 52.3781 0.329339C52.336 0.301198 52.2918 0.277596 52.2477 0.252723C52.1252 0.186274 51.9968 0.130174 51.861 0.0900507C51.8265 0.0804283 51.792 0.0655409 51.7557 0.0559186C51.6103 0.0216049 51.4609 0 51.3076 0H3.92156C1.75962 0 0 1.7598 0 3.92174V96.0784C0 98.2402 1.75962 100 3.92156 100H68.6273C70.7893 100 72.5491 98.2404 72.5491 96.0784V24.1824C72.5489 24.1096 72.5374 24.0374 72.5298 23.9636ZM24.0177 75.3962H14.8772V80.8306H23.4179V85.2061H14.8772V94.7707H9.47838V70.9844H24.0177V75.3962ZM42.9342 94.7705H28.0775V70.9844H33.4772V90.2535H42.934V94.7705H42.9342ZM55.7118 94.7705H49.4302L41.8084 70.9844H47.7022L50.5956 81.0431C51.4075 83.8655 52.1486 86.5826 52.7134 89.5467H52.8187C53.418 86.6879 54.1591 83.8655 54.9708 81.1484L58.0059 70.9853H63.7225L55.7118 94.7705ZM3.92156 66.5843V3.92174H49.3469V23.9852C49.3469 25.0691 50.2239 25.946 51.3076 25.946H68.6273L68.6293 66.5845H3.92156V66.5843Z" fill="#AEB1CF"/>
<path d="M39.2751 28.6468C34.5255 32.2064 31.5186 41.8663 28.9863 47.1693C26.452 52.4705 21.7837 51.8414 21.7837 51.8414V58.0914C21.7837 58.0914 24.7111 58.1718 27.162 57.1475C29.6206 56.1192 32.468 53.8185 34.1344 50.9741C34.7815 49.861 35.7735 47.5709 36.851 45.0357H44.3458V38.621H39.5921C40.3234 36.9916 40.9852 35.6114 41.4886 34.826C43.3116 31.979 47.8247 32.0513 47.8247 32.0513V25.9544C47.8249 25.9545 44.0239 25.0847 39.2751 28.6468Z" fill="#AEB1CF"/>
</svg>
