<svg width="74" height="100" viewBox="0 0 74 100" fill="none" xmlns="http://www.w3.org/2000/svg">
<path d="M73.0788 23.9636C73.0731 23.505 72.9287 23.0522 72.6137 22.6942L53.3313 0.670629C53.3274 0.664975 53.3218 0.662604 53.3161 0.65695C53.201 0.528551 53.069 0.422768 52.9273 0.329387C52.8851 0.302212 52.843 0.277772 52.7989 0.252968C52.6743 0.186397 52.5461 0.131317 52.412 0.0910101C52.3759 0.0804317 52.3433 0.0656586 52.3068 0.0561745C52.1594 0.0215214 52.0099 0 51.8569 0H4.47071C2.30891 0 0.549072 1.75983 0.549072 3.92164V96.0785C0.549072 98.2413 2.30891 100 4.47071 100H69.1765C71.3399 100 73.0981 98.2413 73.0981 96.0785V24.1833C73.0981 24.1096 73.0868 24.0374 73.0788 23.9636ZM22.5403 76.4705H13.939V81.5842H21.9766V85.703H13.939V94.7037H8.85816V72.3191H22.5405V76.4705H22.5403ZM44.8943 94.7035H39.5809L34.798 86.0676C33.4697 83.6776 32.0077 80.7865 30.9125 78.1631L30.8129 78.1957C30.9452 81.1522 31.0115 84.3071 31.0115 87.9593V94.7015H26.3629V72.3191H32.2746L36.9237 80.5215C38.2522 82.8797 39.5811 85.6696 40.5767 88.1929H40.6763C40.3453 85.2365 40.2453 82.2153 40.2453 78.8603V72.3191H44.8945V94.7035H44.8943ZM64.7896 76.5703H58.6782V94.7037H53.5975V76.5703H47.5869V72.3191H64.7896V76.5703ZM4.47071 66.5853V3.92164H49.896V23.986C49.896 25.0684 50.7731 25.9468 51.8569 25.9468H69.1765L69.1783 66.5851H4.47071V66.5853Z" fill="#AEB1CF"/>
<path d="M40.1192 38.374L35.0361 54.9997H38.9339L40.1192 50.7326H44.8794L46.1625 54.9997H50.2084L45.0538 38.374H40.1192ZM40.662 47.9197L41.648 44.3927C41.919 43.4306 42.1659 42.172 42.4129 41.1853H42.4627C42.7089 42.1729 43.0064 43.4062 43.3015 44.3927L44.3374 47.9197H40.662V47.9197Z" fill="#AEB1CF"/>
<path d="M62.3646 52.0646V47.871C62.3646 45.0337 61.0826 42.665 57.0614 42.665C54.8671 42.665 53.2125 43.2574 52.3739 43.726L53.0653 46.1435C53.8552 45.6503 55.1629 45.2306 56.3951 45.2306C58.2451 45.2306 58.5903 46.1435 58.5903 46.7849V46.9573C54.3232 46.9339 51.5105 48.4381 51.5105 51.5707C51.5105 53.495 52.9657 55.2702 55.4081 55.2702C56.8394 55.2702 58.0725 54.753 58.8617 53.7898H58.9352L59.1583 54.9979H62.538C62.4153 54.3336 62.3646 53.2242 62.3646 52.0646ZM58.7138 50.6094C58.7138 50.8315 58.689 51.0536 58.6403 51.2512C58.3933 52.015 57.6282 52.6313 56.6919 52.6313C55.8529 52.6313 55.2107 52.1624 55.2107 51.2008C55.2107 49.7458 56.7417 49.2758 58.7138 49.3006V50.6094Z" fill="#AEB1CF"/>
<path d="M14.8872 47.7218L28.695 49.4297V38.9805H14.8872V47.7218Z" fill="#AEB1CF"/>
<path d="M14.8872 36.1203H28.695V25.9478L14.8872 27.8692V36.1203Z" fill="#AEB1CF"/>
<path d="M45.362 23.4575L31.5549 25.3797V36.1203H45.362V23.4575Z" fill="#AEB1CF"/>
<path d="M31.5549 38.9805V49.9358L34.4215 50.2904L37.8789 38.9805H31.5549Z" fill="#AEB1CF"/>
</svg>
