<svg width="73" height="100" viewBox="0 0 73 100" fill="none" xmlns="http://www.w3.org/2000/svg">
<path d="M72.628 23.9636C72.6223 23.505 72.4776 23.0521 72.1628 22.694L52.8804 0.67066C52.8766 0.665031 52.8707 0.66249 52.8649 0.656862C52.75 0.528503 52.618 0.422657 52.4762 0.329339C52.4341 0.302105 52.392 0.277596 52.3479 0.252723C52.2233 0.186274 52.0951 0.131082 51.9612 0.0907769C51.9248 0.0802468 51.8922 0.0653594 51.8559 0.0559186C51.7084 0.0216049 51.5592 0 51.406 0H4.01971C1.85795 0 0.0981445 1.7598 0.0981445 3.92174V96.0784C0.0981445 98.2413 1.85776 100 4.01971 100H68.7255C70.8892 100 72.647 98.2413 72.647 96.0784V24.1833C72.647 24.1096 72.6356 24.0374 72.628 23.9636ZM20.1297 75.9171H11.5284V81.0296H19.566V85.1485H11.5284V94.1491H6.44744V71.7648H20.1297V75.9171V75.9171ZM33.4501 94.514C26.8082 94.514 22.9224 89.4989 22.9224 83.1226C22.9224 76.4131 27.2068 71.3991 33.8158 71.3991C40.6905 71.3991 44.4436 76.5471 44.4436 82.7244C44.4417 90.0628 39.9917 94.514 33.4501 94.514ZM66.2976 94.1481H60.9838L56.2026 85.5124C54.8738 83.1226 53.4127 80.2322 52.3176 77.609L52.217 77.6406C52.3499 80.5981 52.415 83.7517 52.415 87.4042V94.1473H47.7667V71.7648H53.677L58.3281 79.967C59.656 82.3241 60.9838 85.114 61.9806 87.6378H62.0811C61.7489 84.6823 61.6483 81.6607 61.6483 78.306V71.764H66.2994V94.1483H66.2976V94.1481ZM4.01971 66.5852V3.92174H49.4452V23.9862C49.4452 25.0684 50.3221 25.9469 51.406 25.9469H68.7255L68.7275 66.5852H4.01971Z" fill="#AEB1CF"/>
<path d="M33.6824 75.417C30.2621 75.417 28.2698 78.6723 28.2698 83.0228C28.2698 87.4066 30.3288 90.4943 33.716 90.4943C37.1363 90.4943 39.0958 87.241 39.0958 82.8896C39.0956 78.8714 37.1699 75.417 33.6824 75.417Z" fill="#AEB1CF"/>
<path d="M37.809 51.0207V49.6033C40.999 49.1982 41.4547 48.7932 40.7961 46.8175C40.1383 44.8424 39.1263 42.1082 38.0119 39.0194H27.2256C26.4157 41.2981 25.6559 43.4246 24.9982 45.5519C23.8843 48.742 24.3404 49.2491 28.1376 49.6033V51.0207H17.1494V49.6033C20.3395 49.147 21.0485 48.8444 22.8206 44.3872L33.3033 17.8034L34.8725 17.3472C38.0128 26.0574 41.4048 35.6779 44.6468 44.4895C46.2668 48.8447 46.9244 49.3004 50.2171 49.6044V51.0209H37.809V51.0207ZM32.8471 23.9299H32.7451C31.1247 28.2838 29.5041 32.6903 27.9853 36.8426H37.3028L32.8471 23.9299Z" fill="#AEB1CF"/>
</svg>
