<svg width="74" height="100" viewBox="0 0 74 100" fill="none" xmlns="http://www.w3.org/2000/svg">
<path d="M33.505 76.0918H33.4432C33.142 77.2973 32.8419 78.834 32.5106 80.0086L31.3047 84.3169H35.7949L34.5291 80.0086C34.1674 78.8033 33.8076 77.2973 33.505 76.0918Z" fill="#AEB1CF"/>
<path d="M73.1768 23.9651C73.1712 23.5059 73.0256 23.0532 72.7106 22.6951L53.4281 0.67066C53.4243 0.665031 53.4185 0.663034 53.4119 0.656862C53.2979 0.528503 53.1649 0.422657 53.0241 0.329339C52.982 0.302105 52.9397 0.277596 52.8958 0.252723C52.7712 0.186274 52.6429 0.131626 52.508 0.0913215C52.4717 0.0802468 52.4401 0.0653594 52.4036 0.0559186C52.2573 0.0216049 52.106 0 51.9537 0H4.56853C2.40677 0 0.646973 1.7598 0.646973 3.92174V96.0784C0.646973 98.2413 2.40659 100 4.56853 100H69.2743C71.4381 100 73.1959 98.2413 73.1959 96.0784V24.1842C73.1959 24.1111 73.1844 24.0374 73.1768 23.9651ZM22.3299 92.0303C20.9155 92.5118 18.2341 93.1745 15.552 93.1745C11.8468 93.1745 9.16548 92.2402 7.2991 90.4323C5.43019 88.6861 4.40568 86.0349 4.43582 83.0518C4.4665 76.3029 9.37608 72.4474 16.034 72.4474C18.6558 72.4474 20.6731 72.9586 21.6675 73.4421L20.7049 77.1177C19.5899 76.6351 18.2036 76.2444 15.9752 76.2444C12.1499 76.2444 9.25553 78.4118 9.25553 82.8103C9.25553 86.9989 11.8773 89.4701 15.6439 89.4701C16.6971 89.4701 17.542 89.3475 17.9038 89.1676V84.9205H14.7693V81.335H22.3314V92.0302H22.3299V92.0303ZM38.0245 92.9639L36.4577 87.7517H30.6418L29.1961 92.9639H24.4363L30.6418 72.658H36.6672L42.9637 92.9639H38.0245ZM63.147 92.9639L62.8464 85.1907C62.7565 82.7504 62.6656 79.7967 62.6656 76.845H62.5735C61.9408 79.4365 61.0962 82.3279 60.3132 84.709L57.8431 92.6327H54.2585L52.0891 84.7685C51.4267 82.3886 50.7333 79.496 50.2509 76.845H50.1935C50.0728 79.5879 49.9809 82.7195 49.8317 85.2511L49.4697 92.9632H45.2226L46.5171 72.6573H52.6331L54.6216 79.4349C55.2544 81.7842 55.8854 84.3167 56.3402 86.6957H56.4301C57.0027 84.3453 57.6939 81.6645 58.3584 79.4042L60.5278 72.6564H66.5212L67.6358 92.9621H63.1474V92.9639H63.147ZM4.56853 66.5863V3.92247H49.994V23.9876C49.994 25.0699 50.8709 25.9484 51.9548 25.9484H69.2743L69.2763 66.5863H4.56853V66.5863Z" fill="#AEB1CF"/>
<path d="M41.2594 35.6853H35.0636L33.8764 35.6729C33.788 35.4494 33.7518 35.2396 33.7438 35.0591C33.6997 33.8 34.9094 32.7102 35.4312 32.2995C36.1244 31.7552 36.4864 31.1993 36.6772 30.3817C36.8056 29.8403 36.5026 29.2314 36.1563 28.6541L35.8408 28.1276C35.0327 26.7973 34.272 25.5397 33.882 23.8944C33.8517 23.7581 33.7876 23.6201 33.5545 23.6201C33.3898 23.6201 33.2175 23.6991 33.1222 23.8187C33.0456 23.915 33.026 24.0264 33.0605 24.172C33.3555 25.4139 33.868 26.6306 34.6781 28.005L34.7802 28.1768C35.347 29.1305 36.2985 30.7234 34.4546 31.9318C34.0674 32.1855 33.7017 32.4258 33.4546 32.7485C32.9969 33.3465 32.8176 34.2052 32.9626 35.1014C32.9951 35.3033 33.0469 35.4974 33.1077 35.6855H28.1244C24.9481 35.6855 22.3748 38.2622 22.3748 41.4376C22.3748 44.613 24.9483 47.1883 28.1244 47.1883C31.2126 47.1883 33.7335 44.7542 33.8684 41.6996H35.5156C35.652 44.7532 38.1719 47.1883 41.2596 47.1883C44.4365 47.1883 47.01 44.6128 47.01 41.4376C47.01 38.2624 44.4372 35.6853 41.2594 35.6853ZM28.4957 38.499C29.0841 38.2846 29.7351 38.587 29.9486 39.1735C30.1654 39.7617 29.8624 40.4118 29.2765 40.6253C28.6883 40.8421 28.0372 40.5411 27.8232 39.9518C27.6079 39.365 27.9098 38.7149 28.4957 38.499ZM25.0409 40.9736C24.8265 40.3842 25.1271 39.7356 25.7153 39.5197C26.3036 39.3038 26.9546 39.6067 27.1681 40.1942C27.3831 40.7815 27.0801 41.4325 26.4937 41.646C25.9069 41.8619 25.2578 41.5609 25.0409 40.9736ZM27.4957 44.3757C26.9078 44.5901 26.2567 44.2895 26.0429 43.703C25.8265 43.1148 26.1291 42.4627 26.7155 42.2492C27.3038 42.0333 27.9568 42.3363 28.1703 42.9227C28.3842 43.5086 28.0821 44.1597 27.4957 44.3757ZM30.2765 43.355C29.6903 43.5718 29.0392 43.2708 28.8232 42.6825C28.6077 42.0941 28.91 41.4442 29.4977 41.2287C30.0861 41.0137 30.7371 41.3156 30.951 41.9031C31.1665 42.489 30.8644 43.1401 30.2765 43.355ZM44.2208 42.1962H42.2349V44.1823H40.7182V42.1962H38.7308V40.6787H40.7182V38.6936H42.2349V40.6787H44.2208V42.1962Z" fill="#AEB1CF"/>
<path d="M44.0781 15.9492H18.7786V58.9232H50.6069V23.5344L44.0781 15.9492ZM44.7531 19.4031L47.8359 22.9857H44.7531V19.4031ZM20.5186 57.1806V17.6921H43.0096V24.7286H48.866V57.1815H20.5186V57.1806Z" fill="#AEB1CF"/>
</svg>
