<svg width="73" height="100" viewBox="0 0 73 100" fill="none" xmlns="http://www.w3.org/2000/svg">
<path d="M36.5679 83.9238H34.9016V90.0091C35.3822 90.0731 35.9585 90.0731 36.7911 90.0731C39.0005 90.0731 40.9548 89.2394 40.9548 86.9666C40.9548 84.7872 39.0016 83.9238 36.5679 83.9238Z" fill="#AEB1CF"/>
<path d="M40.4416 77.7733C40.4416 76.1397 39.193 75.2754 36.983 75.2754C35.9258 75.2754 35.3173 75.3385 34.9004 75.4023V80.4318H36.5017C39.0648 80.4318 40.4416 79.3749 40.4416 77.7733Z" fill="#AEB1CF"/>
<path d="M56.4612 75.3408C55.2757 75.3408 54.6027 75.4364 54.2512 75.4999V81.4567H56.1717C58.6068 81.4567 60.0476 80.2399 60.0476 78.3498C60.0476 76.3653 58.7025 75.3715 56.4612 75.3408Z" fill="#AEB1CF"/>
<path d="M72.7255 23.9636C72.7199 23.505 72.5743 23.0522 72.2593 22.6942L52.9782 0.670629C52.9743 0.664428 52.9685 0.662604 52.9628 0.65695C52.8479 0.528551 52.7159 0.422768 52.574 0.329387C52.5321 0.302212 52.4897 0.277772 52.4458 0.252968C52.3212 0.186397 52.1928 0.131317 52.0589 0.0910101C52.0225 0.0804317 51.9902 0.0656586 51.9537 0.0561745C51.8063 0.0206095 51.6568 0 51.5038 0H4.11744C1.95563 0 0.195801 1.75983 0.195801 3.92164V96.0785C0.195801 98.2413 1.95563 100 4.11744 100H68.823C70.9867 100 72.7449 98.2413 72.7449 96.0785V24.1833C72.745 24.1096 72.7332 24.0374 72.7255 23.9636ZM26.2498 92.4748C24.7439 92.9858 21.8936 93.6906 19.0429 93.6906C15.1036 93.6906 12.2524 92.6978 10.2671 90.7762C8.28202 88.9188 7.193 86.0999 7.224 82.9295C7.25665 75.7543 12.4758 71.655 19.5556 71.655C22.3415 71.655 24.4876 72.2007 25.5446 72.7117L24.5201 76.6203C23.3359 76.107 21.8624 75.6914 19.4919 75.6914C15.4244 75.6914 12.3496 77.9967 12.3496 82.6727C12.3496 87.1249 15.1357 89.7509 19.1401 89.7509C20.2611 89.7509 21.1573 89.6236 21.5416 89.4322V84.916H18.2114V81.1047H26.2508V92.475H26.2498V92.4748ZM43.8369 91.7387C42.2674 92.9858 39.6415 93.6906 35.3498 93.6906C32.9481 93.6906 31.1549 93.5319 30.0652 93.3718V72.1679C31.3468 71.9113 33.9408 71.7199 36.3751 71.7199C39.354 71.7199 41.179 72.0083 42.7489 72.9377C44.2542 73.7371 45.3426 75.2106 45.3426 77.1649C45.3426 79.0874 44.2217 80.8806 41.7879 81.7776V81.8418C44.2541 82.5138 46.08 84.3713 46.08 87.1574C46.0791 89.1123 45.183 90.6488 43.8369 91.7387ZM60.7197 93.4675C60.3682 92.8587 59.8563 91.0969 59.2145 88.4393C58.6381 85.749 57.7096 85.0116 55.7238 84.9802H54.2512V93.4675H49.4144V72.1679C50.9843 71.9113 53.3209 71.7199 55.916 71.7199C59.1187 71.7199 61.3609 72.2007 62.8986 73.4165C64.1793 74.4429 64.8843 75.9471 64.8843 77.9327C64.8843 80.6874 62.9311 82.5771 61.0737 83.2492V83.3468C62.5776 83.9538 63.4115 85.3955 63.9554 87.3811C64.6276 89.8153 65.3006 92.6338 65.7172 93.4664H60.7195V93.4675H60.7197ZM4.11744 66.5853V3.92164H49.5428V23.986C49.5428 25.0684 50.42 25.9468 51.5038 25.9468H68.8232L68.8252 66.5851H4.11744V66.5853Z" fill="#AEB1CF"/>
<path d="M58.8558 52.1242C56.8578 52.1242 55.2271 53.6229 54.9832 55.5556H34.3462V44.1418H48.7504C48.9937 46.0743 50.625 47.5731 52.6223 47.5731C54.7877 47.5731 56.5439 45.8173 56.5439 43.6515C56.5439 41.4859 54.7877 39.7301 52.6223 39.7301C50.625 39.7301 48.9935 41.2294 48.7504 43.1614H34.3462V33.0066H51.0616C51.3056 34.9392 52.9362 36.4378 54.9344 36.4378C57.1 36.4378 58.8558 34.6818 58.8558 32.5164C58.8558 30.3507 57.1 28.5947 54.9344 28.5947C52.9362 28.5947 51.3056 30.0936 51.0616 32.0261H33.3657V55.5554V56.8835V65.6858H34.346V56.8839V56.5363H54.9831C55.2271 58.4692 56.8576 59.9677 58.8556 59.9677C61.0215 59.9677 62.7773 58.2115 62.7773 56.046C62.7774 53.88 61.0216 52.1242 58.8558 52.1242Z" fill="#AEB1CF"/>
<path d="M11.3067 44.2812C9.14089 44.2812 7.38525 46.0371 7.38525 48.2027C7.38525 50.3683 9.14107 52.1242 11.3067 52.1242C13.3047 52.1242 14.9353 50.6261 15.1795 48.693H26.4213V65.5638H27.4018V47.7126H15.1795C14.9353 45.7801 13.3047 44.2812 11.3067 44.2812Z" fill="#AEB1CF"/>
<path d="M15.0656 15.6366C16.9972 15.3935 18.497 13.7631 18.497 11.7647C18.497 9.59908 16.7411 7.84326 14.5755 7.84326C12.4097 7.84326 10.6541 9.59908 10.6541 11.7647C10.6541 13.7629 12.1538 15.3933 14.0853 15.6366V25.8571L29.3441 41.1148V65.5641H30.3244V40.709L15.0656 25.4512V15.6366V15.6366Z" fill="#AEB1CF"/>
</svg>
