<svg width="74" height="100" viewBox="0 0 74 100" fill="none" xmlns="http://www.w3.org/2000/svg">
<path d="M73.2749 23.9651C73.2691 23.5059 73.1237 23.0532 72.8087 22.6955L53.5272 0.67066C53.5233 0.665031 53.5175 0.663034 53.5119 0.656862C53.397 0.528503 53.265 0.422657 53.1232 0.329339C53.0811 0.302105 53.0388 0.277596 52.9948 0.253268C52.8703 0.186274 52.7419 0.131626 52.6079 0.0913215C52.5716 0.0802468 52.5391 0.065904 52.5026 0.0559186C52.3554 0.0216049 52.206 0 52.0528 0H4.66668C2.50474 0 0.745117 1.7598 0.745117 3.92174V96.0784C0.745117 98.2413 2.50474 100 4.66668 100H69.3724C71.5362 100 73.2942 98.2413 73.2942 96.0784V24.1842C73.294 24.1111 73.2826 24.0374 73.2749 23.9651ZM26.7365 93.4493C25.2305 93.9604 22.3803 94.6652 19.5296 94.6652C15.5902 94.6652 12.7391 93.6723 10.754 91.7507C8.76871 89.8934 7.67975 87.0748 7.71079 83.9038C7.74347 76.7288 12.9628 72.6291 20.0423 72.6291C22.8284 72.6291 24.9744 73.1749 26.0314 73.6861L25.0069 77.5943C23.8226 77.081 22.3491 76.6656 19.9786 76.6656C15.911 76.6656 12.8362 78.971 12.8362 83.6471C12.8362 88.099 15.6224 90.7251 19.6262 90.7251C20.7478 90.7251 21.6438 90.5979 22.0283 90.4063V85.8902H18.6979V82.0786H26.7373V93.449H26.7365V93.4493ZM44.3247 94.4421H30.5519V72.8553H43.8758V76.8573H35.452V81.3417H43.3952V85.3132H35.452V90.4383H44.3238V94.4423H44.3247V94.4421ZM63.1608 91.8811C60.8879 93.7689 57.4278 94.6672 53.2 94.6672C50.6695 94.6672 48.8754 94.5062 47.6584 94.3473V73.1426C49.4527 72.8553 51.7908 72.6945 54.2561 72.6945C58.3567 72.6945 61.0144 73.4318 63.0958 75.0008C65.3381 76.6667 66.7474 79.3245 66.7474 83.136C66.7483 87.2682 65.2423 90.1184 63.1608 91.8811ZM4.66668 66.5863V3.92247H50.092V23.9876C50.092 25.0699 50.9691 25.9484 52.0528 25.9484H69.3724L69.3744 66.5863H4.66668V66.5863Z" fill="#AEB1CF"/>
<path d="M54.768 76.4414C53.6794 76.4414 52.9737 76.5391 52.5583 76.634V90.7587C52.9757 90.8544 53.6479 90.8544 54.2559 90.8544C58.6764 90.8869 61.5582 88.4532 61.5582 83.2956C61.5905 78.8121 58.9643 76.4414 54.768 76.4414Z" fill="#AEB1CF"/>
<path d="M36.7147 9.79834H22.7441V16.6611H36.7147V9.79834Z" fill="#AEB1CF"/>
<path d="M39.7157 35.3701H25.7451V42.2328H39.7157V35.3701Z" fill="#AEB1CF"/>
<path d="M39.7157 52.4043H25.7451V59.267H39.7157V52.4043Z" fill="#AEB1CF"/>
<path d="M62.2394 52.4043H48.269V59.267H62.2394V52.4043Z" fill="#AEB1CF"/>
<path d="M21.7325 43.8262H7.76196V50.6889H21.7325V43.8262Z" fill="#AEB1CF"/>
<path d="M62.2394 35.3701H48.269V42.2328H62.2394V35.3701Z" fill="#AEB1CF"/>
<path d="M14.2255 27.7718H29.2391V32.6737V33.1639V34.3081H30.2195V33.1639H53.2937V34.3081H54.2741V32.1835H30.2195V27.7718V27.2816V18.2954H29.2391V26.7914H13.2451V42.9678H14.2255V27.7718Z" fill="#AEB1CF"/>
<path d="M30.2194 43.8262H29.239V50.6889H30.2194V43.8262Z" fill="#AEB1CF"/>
<path d="M54.2739 43.8262H53.2937V50.6889H54.2739V43.8262Z" fill="#AEB1CF"/>
</svg>
