<svg width="73" height="100" viewBox="0 0 73 100" fill="none" xmlns="http://www.w3.org/2000/svg">
<path d="M72.8237 23.9626C72.818 23.5041 72.6725 23.0522 72.3575 22.6932L53.0763 0.668805C53.0725 0.663516 53.065 0.66078 53.061 0.656038C52.9461 0.526728 52.814 0.421856 52.6721 0.328658C52.6302 0.301482 52.5859 0.275766 52.5419 0.252056C52.4194 0.184574 52.291 0.130405 52.1551 0.0900981C52.1206 0.0795198 52.0863 0.0638347 52.0499 0.0561745C51.9045 0.0206095 51.7529 0 51.6019 0H4.21559C2.05378 0 0.293945 1.75892 0.293945 3.92164V96.0785C0.293945 98.2405 2.05378 100 4.21559 100H68.9212C71.083 100 72.843 98.2405 72.843 96.0785V24.1824C72.8432 24.1087 72.8313 24.0365 72.8237 23.9626ZM31.1783 93.2519C29.5206 93.817 26.3783 94.5923 23.2371 94.5923C18.8961 94.5923 15.7556 93.4992 13.5676 91.3816C11.3793 89.3345 10.1801 86.2285 10.2166 82.736C10.2505 74.8316 16.0028 70.3147 23.8017 70.3147C26.8713 70.3147 29.2361 70.914 30.3997 71.4799L29.2703 75.7844C27.9665 75.2205 26.3427 74.7619 23.7289 74.7619C19.2507 74.7619 15.8612 77.304 15.8612 82.4549C15.8612 87.3607 18.9331 90.2539 23.345 90.2539C24.58 90.2539 25.5679 90.1133 25.9907 89.9019V84.927H22.32V80.7257H31.1779V93.2519H31.1783ZM40.7792 94.3457H35.3795V70.5613H40.7792V94.3457ZM59.979 74.9713H50.8377V80.4075H59.3779V84.7829H50.8377V94.3457H45.4378V70.5613H59.9792V74.9713H59.979ZM4.21559 66.5843V3.92164H49.6409V23.9851C49.6409 25.0675 50.5182 25.9459 51.6019 25.9459H68.9214L68.9234 66.5842H4.21559V66.5843Z" fill="#69A042"/>
<path d="M53.4039 53.3002L43.2015 41.2432H48.8695L39.4659 30.1304H45.3254L37.5931 20.9981H41.1967L35.2531 13.9746L29.85 20.9981H33.4939L26.4689 30.1304H32.2186L23.6693 41.2432H29.0108L19.7344 53.3002H35.2852V67.8892H37.8518V53.3002H53.4039Z" fill="#69A042"/>
</svg>
