<svg width="74" height="100" viewBox="0 0 74 100" fill="none" xmlns="http://www.w3.org/2000/svg">
<path d="M38.0498 75.3066C37.0358 75.3066 36.3484 75.4052 35.9888 75.5038V82.0123C36.414 82.112 36.9367 82.1447 37.6562 82.1447C40.3054 82.1447 41.9416 80.8023 41.9416 78.5467C41.9417 76.5187 40.5352 75.3066 38.0498 75.3066Z" fill="#AEB1CF"/>
<path d="M73.3726 23.9636C73.367 23.505 73.2223 23.0521 72.9075 22.694L53.625 0.67066C53.6212 0.665031 53.6154 0.663034 53.6096 0.656862C53.4946 0.528503 53.3626 0.422657 53.2209 0.329339C53.1787 0.302105 53.1366 0.277596 53.0925 0.253268C52.968 0.186274 52.8398 0.131626 52.7058 0.0913215C52.6695 0.0802468 52.6368 0.0653594 52.6005 0.0559186C52.4531 0.0216049 52.3038 0 52.1506 0H4.76433C2.60257 0 0.842773 1.7598 0.842773 3.92174V96.0784C0.842773 98.2413 2.60239 100 4.76433 100H69.4701C71.6339 100 73.3917 98.2413 73.3917 96.0784V24.1833C73.3917 24.1102 73.3802 24.0374 73.3726 23.9636ZM27.1612 92.7407C25.6241 93.2645 22.7135 93.9835 19.8024 93.9835C15.7788 93.9835 12.8693 92.9715 10.8406 91.0078C8.81244 89.1102 7.70079 86.2331 7.73292 82.9962C7.76651 75.6682 13.0978 71.4823 20.3262 71.4823C23.1712 71.4823 25.3631 72.0356 26.4417 72.5603L25.3957 76.5516C24.1851 76.0269 22.681 75.601 20.2607 75.601C16.1064 75.601 12.9671 77.9563 12.9671 82.7337C12.9671 87.2794 15.8124 89.9603 19.9016 89.9603C21.0466 89.9603 21.9615 89.8301 22.3545 89.6347V85.022H18.9513V81.1293H27.1621V92.7407H27.1612V92.7407ZM44.8532 83.6473C43.153 85.2518 40.6339 85.9699 37.6898 85.9699C37.0359 85.9699 36.4466 85.9372 35.99 85.8713V93.7545H31.0506V72.0033C32.5876 71.7428 34.7467 71.5456 37.7888 71.5456C40.8627 71.5456 43.0551 72.1353 44.5255 73.3129C45.9329 74.4243 46.8808 76.256 46.8808 78.414C46.881 80.5741 46.161 82.4065 44.8532 83.6473ZM60.7463 93.7556L58.751 89.7653C57.9334 88.2286 57.4106 87.0835 56.7902 85.8072H56.7243C56.2657 87.0834 55.7103 88.2286 55.023 89.7653L53.1924 93.7556H47.5005L53.8777 82.6008L47.7294 71.7103H53.4536L55.3828 75.7344C56.0368 77.0757 56.528 78.1556 57.0515 79.3965H57.1157C57.6404 77.991 58.0654 77.0078 58.6208 75.7344L60.485 71.7103H66.1769L59.9614 82.4726L66.5024 93.7565H60.7464V93.7556H60.7463ZM4.76433 66.5852V3.92174H50.1898V23.9867C50.1898 25.0686 51.0667 25.9475 52.1506 25.9475H69.4701L69.4721 66.5852H4.76433Z" fill="#AEB1CF"/>
<path d="M56.6907 44.5797L55.7493 41.0186C53.2667 41.6146 50.1264 42.6863 46.6702 44.5797H56.6907Z" fill="#AEB1CF"/>
<path d="M57.1215 46.2119H43.955C39.9607 48.8147 35.6811 52.536 31.5662 57.9081H60.2119L57.1215 46.2119Z" fill="#AEB1CF"/>
<path d="M36.0771 31.1398C35.6018 29.8535 35.08 28.4456 34.5653 27.0405H18.2233L16.2739 34.4218H32.1828C32.7759 32.9966 34.2025 31.8161 36.0771 31.1398Z" fill="#AEB1CF"/>
<path d="M39.6956 46.2119H13.1604L10.0713 57.9081H28.4493C30.6762 54.6338 34.3752 50.087 39.6956 46.2119Z" fill="#AEB1CF"/>
<path d="M55.2929 39.2863L52.0587 27.0405H45.0696C44.501 28.4005 43.9111 29.7916 43.3338 31.1482C45.8298 32.0445 47.5455 33.8188 47.5455 35.8846C47.5455 38.8462 44.0317 41.2522 39.6984 41.2522C35.9467 41.2522 32.8171 39.4441 32.0435 37.0405H15.5831L13.5898 44.5788H42.1245C45.8298 42.2553 50.1974 40.3161 55.2929 39.2863Z" fill="#AEB1CF"/>
<path d="M38.5782 32.863C36.7066 33.1885 35.3211 34.2924 35.3211 35.613C35.3211 37.1894 37.2808 38.4638 39.6966 38.4638C42.1131 38.4638 44.0709 37.1893 44.0709 35.613C44.0709 34.2855 42.6742 33.1789 40.7899 32.8599C42.5248 28.8196 45.623 21.562 46.2434 19.7209C46.5152 18.995 46.6713 18.212 46.6713 17.3925C46.6713 13.7216 43.6946 10.7441 40.023 10.7441C36.3495 10.7441 33.3752 13.7216 33.3752 17.3925C33.3752 18.108 33.4916 18.7984 33.7017 19.4451C34.0426 20.6492 36.9809 28.5774 38.5782 32.863ZM42.3573 35.613C42.3573 36.5709 41.1663 37.3485 39.6968 37.3485C38.2273 37.3485 37.0361 36.5711 37.0361 35.613C37.0361 34.816 37.8614 34.1521 38.9805 33.9491C39.3598 34.9581 39.6029 35.613 39.6029 35.613C39.6029 35.613 39.8892 34.952 40.3306 33.9295C41.4918 34.1181 42.3573 34.7964 42.3573 35.613ZM40.0221 13.1757C42.3638 13.1757 44.2634 15.0746 44.2634 17.419C44.2634 19.7599 42.3638 21.6561 40.0221 21.6561C37.6779 21.6561 35.7806 19.759 35.7806 17.419C35.7817 15.0746 37.6788 13.1757 40.0221 13.1757Z" fill="#AEB1CF"/>
</svg>
