<svg width="73" height="100" viewBox="0 0 73 100" fill="none" xmlns="http://www.w3.org/2000/svg">
<path d="M72.9219 23.9636C72.9161 23.505 72.7707 23.0521 72.4557 22.694L53.1741 0.67066C53.1703 0.665031 53.1645 0.66249 53.1589 0.656862C53.044 0.528503 52.912 0.422657 52.7702 0.329339C52.728 0.302105 52.6857 0.277596 52.6418 0.252723C52.5173 0.186274 52.3889 0.131082 52.2549 0.0913215C52.2186 0.0802468 52.1861 0.0653594 52.1496 0.0559186C52.0024 0.0216049 51.853 0 51.6997 0H4.31365C2.15171 0 0.39209 1.7598 0.39209 3.92174V96.0784C0.39209 98.2413 2.15171 100 4.31365 100H69.0194C71.1832 100 72.9412 98.2413 72.9412 96.0784V24.1833C72.941 24.1096 72.9295 24.0374 72.9219 23.9636ZM32.2811 93.8168C30.7205 94.3493 27.7646 95.0788 24.8085 95.0788C20.7232 95.0788 17.7677 94.0505 15.7087 92.057C13.6499 90.1307 12.5204 87.2088 12.5537 83.9211C12.5872 76.4819 18.0008 72.2301 25.3399 72.2301C28.2294 72.2301 30.4539 72.7949 31.5496 73.3252L30.4868 77.3769C29.2584 76.8455 27.7299 76.4147 25.2733 76.4147C21.056 76.4147 17.8677 78.8054 17.8677 83.6547C17.8677 88.2714 20.7568 90.9942 24.9086 90.9942C26.0714 90.9942 27.001 90.862 27.3998 90.6611V85.9793H23.946V82.028H32.2813V93.8168H32.2811ZM52.2092 94.8471H34.8078V92.1242L45.469 76.7807V76.6486H35.8049V72.4636H52.0445V75.3848L41.6164 90.5291V90.6612H52.211V94.8471H52.2092ZM4.31365 66.5852V3.92174H49.7389V23.9862C49.7389 25.0689 50.616 25.9469 51.6997 25.9469H69.0194L69.0214 66.5852H4.31365Z" fill="#AEB1CF"/>
<path d="M31.3949 42.548L20.9624 39.5991V49.9999L36.4597 54.7677V31.2236L34.2678 36.2118L31.3949 42.548Z" fill="#AEB1CF"/>
<path d="M39.2361 36.3063L37.3557 31.5205V54.7668L52.8524 49.999V38.1528L41.5282 41.356L39.2361 36.3063Z" fill="#AEB1CF"/>
<path d="M37.806 29.1836L42.3383 39.1821L55.5391 35.4494L51.7172 28.4659L51.719 28.4285L51.6941 28.4267L51.6711 28.3837L51.361 28.4022L37.0609 27.3013L19.887 28.4033L19.548 28.3837L19.5237 28.4267L19.4921 28.4285L19.4939 28.4783L15.2263 36.2813L29.9761 40.4541L35.0453 29.2778L27.2902 28.8307L37.0552 28.2012L44.6551 28.7886L37.806 29.1836Z" fill="#AEB1CF"/>
</svg>
