<svg width="74" height="100" viewBox="0 0 74 100" fill="none" xmlns="http://www.w3.org/2000/svg">
<path d="M73.4707 23.9626C73.4649 23.5041 73.3175 23.0521 73.0025 22.6931L53.723 0.668844C53.7173 0.663579 53.7117 0.660674 53.7077 0.655954C53.5928 0.526687 53.4588 0.421931 53.3172 0.328612C53.2751 0.301379 53.2329 0.275962 53.1888 0.251997C53.0663 0.184459 52.9379 0.130537 52.8021 0.0902322C52.7656 0.0797021 52.7331 0.0639069 52.6968 0.0561001C52.5512 0.0206971 52.4 0 52.2467 0H4.86248C2.70054 0 0.940918 1.75889 0.940918 3.92174V96.0784C0.940918 98.2402 2.70054 100 4.86248 100H69.5682C71.7302 100 73.49 98.2404 73.49 96.0784V24.1824C73.4898 24.1087 73.4784 24.0364 73.4707 23.9626ZM24.1046 91.4599C22.6967 91.9386 20.0304 92.5973 17.3625 92.5973C13.6764 92.5973 11.0095 91.6696 9.15169 89.8706C7.29385 88.1338 6.27515 85.4969 6.30474 82.5309C6.33488 75.8174 11.2201 71.9821 17.8416 71.9821C20.4496 71.9821 22.4587 72.4915 23.4467 72.9701L22.487 76.6264C21.3782 76.1476 19.9995 75.7582 17.7822 75.7582C13.977 75.7582 11.0994 77.9162 11.0994 82.2896C11.0994 86.4543 13.7074 88.9131 17.4523 88.9131C18.5015 88.9131 19.3407 88.7923 19.7003 88.6124V84.3882H16.583V80.821H24.1045V91.4599H24.1046ZM42.0866 92.3885H26.3851V89.9318L36.0037 76.0876V75.967H27.2831V72.192H41.9372V74.8277L32.5269 88.492V88.6106H42.0855V92.3887H42.0866V92.3885ZM49.5507 92.3885H44.9666V72.192H49.5507V92.3885ZM66.1521 83.1293C64.5935 84.597 62.289 85.2567 59.591 85.2567C58.9916 85.2567 58.4517 85.2271 58.0312 85.1678V92.3885H53.5074V72.4608C54.9179 72.2215 56.8949 72.0414 59.681 72.0414C62.4976 72.0414 64.5043 72.5814 65.8544 73.6595C67.1421 74.6771 68.0123 76.3546 68.0123 78.3354C68.0114 80.3116 67.3509 81.99 66.1521 83.1293ZM4.86248 66.5843V3.92174H50.2858V23.9852C50.2858 25.0677 51.1649 25.946 52.2467 25.946H69.5682V66.5845H4.86248V66.5843Z" fill="#AEB1CF"/>
<path d="M59.9192 75.4883C58.9906 75.4883 58.3606 75.5772 58.0312 75.6682V81.631C58.419 81.721 58.9007 81.7517 59.5614 81.7517C61.9873 81.7517 63.4848 80.5224 63.4848 78.4543C63.4848 76.5969 62.1959 75.4883 59.9192 75.4883Z" fill="#AEB1CF"/>
<path d="M31.0919 43.7243L20.6594 40.7739V51.1753L36.1565 55.9432V32.3984L33.9646 37.3866L31.0919 43.7243Z" fill="#AEB1CF"/>
<path d="M38.9329 37.4833L37.0527 32.6982V55.9436L52.5493 51.1757V39.3297L41.225 42.5323L38.9329 37.4833Z" fill="#AEB1CF"/>
<path d="M51.4155 29.6064L51.3908 29.604L51.3677 29.5599L51.0576 29.5777L36.7575 28.4766L19.584 29.5795L19.2445 29.5599L19.2202 29.6031L19.1886 29.6053L19.1909 29.6552L14.9233 37.458L29.6731 41.6296L34.7418 30.454L26.9858 30.0071L36.7514 29.3776L44.3518 29.9649L37.5025 30.3598L42.0348 40.36L55.2355 36.6256L51.4137 29.6423L51.4155 29.6064Z" fill="#AEB1CF"/>
</svg>
