<svg width="73" height="100" viewBox="0 0 73 100" fill="none" xmlns="http://www.w3.org/2000/svg">
<path d="M72.5297 23.9646C72.5241 23.5061 72.3785 23.0533 72.0635 22.6952L52.7824 0.670629C52.7785 0.664975 52.7727 0.662604 52.767 0.65695C52.6521 0.528551 52.5201 0.422768 52.3782 0.329387C52.3363 0.302212 52.2939 0.277225 52.25 0.252968C52.1254 0.186397 51.997 0.131317 51.8631 0.0910101C51.8267 0.0804317 51.7944 0.0656586 51.7579 0.0561745C51.6105 0.0215214 51.461 0 51.308 0H3.92164C1.75983 0 0 1.75983 0 3.92164V96.0785C0 98.2413 1.75983 100 3.92164 100H68.6272C70.7909 100 72.5491 98.2413 72.5491 96.0785V24.1842C72.5492 24.1096 72.5374 24.0374 72.5297 23.9646ZM23.4029 93.5738H18.3561V84.2082H10.0208V93.5738H4.93825V71.1912H10.0208V79.7928H18.3561V71.1912H23.4029V93.5738ZM46.9537 97.4275C43.7653 96.4977 41.1075 95.5345 38.1186 94.2707C37.6209 94.0727 37.0885 93.9718 36.558 93.9395C31.511 93.6083 26.7942 89.8877 26.7942 82.581C26.7942 75.8732 31.0452 70.8257 37.7201 70.8257C44.5628 70.8257 48.3159 76.0053 48.3159 82.1177C48.3159 87.1993 45.9568 90.7857 43.0012 92.1139V92.2468C44.7295 92.7445 46.6539 93.1431 48.4146 93.5087L46.9537 97.4275ZM67.6124 93.5738H50.2106V90.8519L60.8704 75.5093V75.3753H51.2064V71.1914H67.445V74.1136L57.017 89.2568V89.3898H67.6114V93.5737H67.6124V93.5738ZM3.92164 66.586V3.92255H49.347V23.9869C49.347 25.0694 50.2242 25.9477 51.308 25.9477H68.6274L68.6294 66.5858H3.92164V66.586Z" fill="#F58020"/>
<path d="M37.5877 74.8428C34.1339 74.8428 32.1403 78.2302 32.1403 82.4158C32.1078 86.6668 34.1655 89.9202 37.5535 89.9202C40.9744 89.9202 42.9657 86.6994 42.9657 82.3154C42.9665 78.2302 41.0403 74.8428 37.5877 74.8428Z" fill="#F58020"/>
<path d="M39.5115 4.85449H33.5647V7.30738H39.5115V4.85449Z" fill="#F58020"/>
<path d="M33.5645 1.52832H27.6177V3.36658H33.5645V1.52832Z" fill="#F58020"/>
<path d="M33.5645 8.52637H27.6177V10.9804H33.5645V8.52637Z" fill="#F58020"/>
<path d="M39.5115 12.543H33.5647V14.9977H39.5115V12.543Z" fill="#F58020"/>
<path d="M39.7082 19.8086H33.761V22.2633H39.7082V19.8086Z" fill="#F58020"/>
<path d="M33.5645 16.3574H27.6177V18.8121H33.5645V16.3574Z" fill="#F58020"/>
<path d="M33.7598 24.5684H27.813V27.0211H33.7598V24.5684Z" fill="#F58020"/>
<path d="M39.7082 28.2402H33.761V30.694H39.7082V28.2402Z" fill="#F58020"/>
<path d="M33.7598 32.2578H27.813V34.7127H33.7598V32.2578Z" fill="#F58020"/>
<path d="M33.5664 36.7656C30.6448 36.7656 29.2546 39.1332 29.2546 42.0557L28.2761 50.917C28.2761 53.8392 30.6448 56.2077 33.5664 56.2077C36.4871 56.2077 38.8534 53.8394 38.8534 50.917L37.8791 42.0557C37.8792 39.1343 36.4871 36.7656 33.5664 36.7656ZM35.3184 53.8843H31.8166V46.4862H35.3184V53.8843Z" fill="#F58020"/>
</svg>
