<svg width="74" height="100" viewBox="0 0 74 100" fill="none" xmlns="http://www.w3.org/2000/svg">
<path d="M73.0789 23.9626C73.0731 23.5041 72.9257 23.0521 72.6127 22.6931L53.3311 0.668844C53.3273 0.663579 53.3215 0.660674 53.3159 0.655954C53.2009 0.526687 53.0689 0.421931 52.9272 0.328612C52.885 0.301379 52.8427 0.275962 52.7988 0.251997C52.6742 0.184459 52.5459 0.130537 52.4119 0.0902322C52.3756 0.0797021 52.3431 0.0639069 52.3048 0.0561001C52.1594 0.0206971 52.0081 0 51.8567 0H4.47063C2.30869 0 0.549072 1.75889 0.549072 3.92174V96.0784C0.549072 98.2402 2.30869 100 4.47063 100H69.1764C71.3383 100 73.0981 98.2404 73.0981 96.0784V24.1824C73.098 24.1087 73.0865 24.0364 73.0789 23.9626ZM4.47063 3.92174H49.8959V23.9852C49.8959 25.0677 50.773 25.946 51.8567 25.946H69.1764L69.1784 66.5845H4.47063V3.92174ZM19.5863 90.6518H15.6571V83.1609H9.16761V90.6518H5.21537V72.7482H9.16761V79.6282H15.6571V72.7482H19.5863V90.6518ZM35.094 76.1489H30.3395V90.6518H26.3854V76.1489H21.7081V72.7482H35.094V76.1489ZM52.0769 90.6518L51.8184 83.7987C51.7418 81.6473 51.6634 79.0442 51.6634 76.4399H51.5867C51.0428 78.7244 50.3191 81.2749 49.6468 83.3735L47.529 90.3589H44.4542L42.5929 83.4272C42.0241 81.3285 41.4288 78.778 41.0152 76.4399H40.9635C40.8611 78.8584 40.7816 81.6206 40.6563 83.8522L40.344 90.6527H36.7002L37.8108 72.7491H43.0583L44.7643 78.7253C45.3081 80.7972 45.8491 83.0289 46.2387 85.1277H46.3153C46.8075 83.0549 47.4001 80.6928 47.9696 78.6996L49.8309 72.7493H54.9742L55.9297 90.6529H52.0769V90.6518ZM69.8369 90.6518H58.9549V72.7482H62.909V87.2511H69.8358V90.6518H69.8369Z" fill="#2B74B9"/>
<path d="M14.8069 45.2221L29.8286 52.2005V48.8837L18.4676 43.9086V43.8457L29.8286 38.8692V35.5527L14.8069 42.5308V45.2221Z" fill="#2B74B9"/>
<path d="M32.147 53.4523H35.3069L42.0032 30.7646H38.8436L32.147 53.4523Z" fill="#2B74B9"/>
<path d="M43.8203 38.8692L55.4319 43.8457V43.9086L43.8203 48.8837V52.2005L58.8403 45.3163V42.4369L43.8203 35.5527V38.8692Z" fill="#2B74B9"/>
</svg>
