<svg width="74" height="100" viewBox="0 0 74 100" fill="none" xmlns="http://www.w3.org/2000/svg">
<path d="M73.1772 23.9646C73.1715 23.5061 73.026 23.0533 72.711 22.6952L53.4298 0.670629C53.426 0.664975 53.4202 0.662969 53.4145 0.65695C53.2996 0.528551 53.1676 0.422768 53.0257 0.329387C52.9837 0.302212 52.9414 0.277772 52.8974 0.252968C52.7729 0.186397 52.6445 0.131682 52.5106 0.0915572C52.4741 0.0806141 52.4418 0.0656586 52.4054 0.0561745C52.258 0.0215214 52.1084 0 51.9554 0H4.5691C2.40729 0 0.647461 1.75983 0.647461 3.92164V96.0785C0.647461 98.2413 2.40729 100 4.5691 100H69.2747C71.4383 100 73.1965 98.2413 73.1965 96.0785V24.1833C73.1967 24.1102 73.1848 24.0374 73.1772 23.9646ZM11.6338 92.624H6.91512V71.8368H11.6338V92.624V92.624ZM26.3455 89.0461C27.7643 89.0461 29.337 88.739 30.2622 88.3673L30.9722 92.038C30.1081 92.469 28.165 92.9322 25.6366 92.9322C18.4508 92.9322 14.7495 88.4592 14.7495 82.5386C14.7495 75.445 19.8074 71.4976 26.0995 71.4976C28.5356 71.4976 30.3868 71.9897 31.2192 72.4227L30.2631 76.1544C29.3071 75.7525 27.9806 75.383 26.3161 75.383C22.5836 75.383 19.6846 77.6347 19.6846 82.2611C19.6837 86.424 22.1514 89.0461 26.3455 89.0461ZM51.2667 92.624H46.3332L41.8909 84.6036C40.6576 82.3836 39.3021 79.7009 38.2833 77.2652L38.1905 77.2949C38.3141 80.0398 38.3752 82.9696 38.3752 86.3614V92.624H34.0575V71.8368H39.5474L43.8643 79.4551C45.0976 81.6446 46.3314 84.2354 47.2565 86.5792H47.3484C47.0402 83.8352 46.9482 81.028 46.9482 77.9128V71.8389H51.2651V92.6242H51.2667V92.624ZM60.4303 92.9324C58.0558 92.9324 55.7124 92.3147 54.5404 91.6676L55.4959 87.7813C56.7613 88.4288 58.7033 89.0759 60.7077 89.0759C62.867 89.0759 64.0082 88.1816 64.0082 86.826C64.0082 85.5305 63.0211 84.7885 60.5222 83.8943C57.0688 82.6937 54.8172 80.781 54.8172 77.7574C54.8172 74.2113 57.7782 71.4978 62.6824 71.4978C65.026 71.4978 66.7523 71.9899 67.9863 72.5454L66.9391 76.3385C66.1059 75.9383 64.6257 75.3525 62.5905 75.3525C60.5549 75.3525 59.5669 76.2774 59.5669 77.3573C59.5669 78.6825 60.7387 79.2685 63.4232 80.2871C67.0941 81.6428 68.8204 83.5556 68.8204 86.4844C68.8193 89.9701 66.1357 92.9324 60.4303 92.9324ZM4.5691 66.5853V3.92164H49.9944V23.986C49.9944 25.0684 50.8717 25.9468 51.9554 25.9468H69.2749L69.2769 66.5851H4.5691V66.5853Z" fill="#69A042"/>
<path d="M43.3252 19.1465H10.8516V49.8862H43.3252V19.1465ZM40.3503 42.4496H39.1623C38.0307 39.5842 36.6453 36.5828 34.7066 37.078C32.8919 37.5416 31.683 40.5027 31.0711 42.4496H30.178C29.5141 40.0713 28.02 35.7756 25.3388 33.0918C22.3013 30.0553 19.3387 38.639 18.2104 42.4496H13.8259V22.1214H40.35V42.4496H40.3503Z" fill="#69A042"/>
<path d="M17.7325 29.65C19.0548 29.65 20.1268 28.578 20.1268 27.2557C20.1268 25.9333 19.0548 24.8613 17.7325 24.8613C16.4101 24.8613 15.3381 25.9333 15.3381 27.2557C15.3381 28.578 16.4101 29.65 17.7325 29.65Z" fill="#69A042"/>
<path d="M32.2539 31.1897C32.7374 31.1897 33.1903 31.1399 33.5924 31.0574C34.0612 31.258 34.6298 31.3786 35.2492 31.3786C36.832 31.3786 38.1149 30.6055 38.1149 29.6496C38.1149 28.6935 36.832 27.9189 35.2492 27.9189C34.6541 27.9189 34.1042 28.0286 33.6446 28.2157C33.458 28.0329 33.2043 27.9189 32.9236 27.9189H32.5091C31.9778 27.9189 31.557 28.3229 31.4963 28.8387C30.211 28.9708 29.2603 29.4337 29.2603 29.9894C29.2601 30.6525 30.6001 31.1897 32.2539 31.1897Z" fill="#69A042"/>
<path d="M44.3477 27.5938V30.6301L58.0395 33.4113L53.9924 53.3323L43.7913 51.2595H24.3113L23.6033 54.7456L55.4267 61.2116L61.5475 31.0895L44.3477 27.5938Z" fill="#69A042"/>
<path d="M45.9388 44.1798L48.3 44.712L45.4269 39.2013L47.8674 39.7514L45.5044 35.2198L47.0054 35.5612L45.1903 32.0771L44.3479 32.776V49.0975L49.0553 50.1602L45.9388 44.1798Z" fill="#69A042"/>
</svg>
