<svg width="73" height="100" viewBox="0 0 73 100" fill="none" xmlns="http://www.w3.org/2000/svg">
<path d="M52.4251 74.3955C48.5477 74.3955 46.2881 78.0854 46.2881 83.0199C46.2881 87.9868 48.6221 91.4901 52.4634 91.4901C56.3409 91.4901 58.5602 87.8013 58.5602 82.8666C58.5622 78.3122 56.3794 74.3955 52.4251 74.3955Z" fill="#69A042"/>
<path d="M72.7261 23.964C72.7205 23.505 72.5758 23.0522 72.261 22.694L52.9785 0.67066C52.9747 0.665031 52.9689 0.663034 52.9631 0.656862C52.8482 0.528503 52.7162 0.422657 52.5744 0.329339C52.5323 0.302105 52.4901 0.277596 52.446 0.253268C52.3215 0.186274 52.1933 0.131626 52.0593 0.0913215C52.023 0.0802468 51.9903 0.0653594 51.954 0.0559186C51.8066 0.0216049 51.6573 0 51.5041 0H4.11785C1.95609 0 0.196289 1.7598 0.196289 3.92174V96.0784C0.196289 98.2413 1.95591 100 4.11785 100H68.8236C70.9874 100 72.7452 98.2413 72.7452 96.0784V24.1833C72.7452 24.1102 72.7337 24.0364 72.7261 23.964ZM15.1407 95.6295H9.38091V70.255H15.1407V95.6295ZM33.1031 91.2625C34.8355 91.2625 36.7552 90.8855 37.8839 90.4343L38.7496 94.9121C37.6964 95.4426 35.324 96.0055 32.2378 96.0055C23.4651 96.0055 18.9475 90.5463 18.9475 83.3177C18.9475 74.6589 25.1209 69.8403 32.8023 69.8403C35.775 69.8403 38.0355 70.4407 39.0522 70.9692L37.8841 75.5236C36.718 75.0354 35.0996 74.5843 33.0661 74.5843C28.5101 74.5843 24.972 77.3301 24.972 82.9788C24.9717 88.0619 27.9833 91.2625 33.1031 91.2625ZM52.1608 96.0439C44.6299 96.0439 40.2276 90.3589 40.2276 83.1304C40.2276 75.5246 45.0835 69.8405 52.5753 69.8405C60.3687 69.8405 64.6234 75.674 64.6234 82.6794C64.6226 90.9964 59.5789 96.0439 52.1608 96.0439ZM4.11785 66.5852V3.92174H49.5433V23.9862C49.5433 25.0689 50.4202 25.9469 51.5041 25.9469H68.8236L68.8256 66.5852H4.11785Z" fill="#69A042"/>
<path d="M44.3272 24.9562C45.4102 24.9562 46.2882 24.0777 46.2882 22.9955V19.3836C46.2882 18.3012 45.4102 17.4229 44.3272 17.4229H26.4356C25.3532 17.4229 24.4749 18.3012 24.4749 19.3836V22.9955C24.4749 24.0777 25.3532 24.9562 26.4356 24.9562H31.3136V49.1902H26.4356C25.3532 49.1902 24.4749 50.0691 24.4749 51.151V54.7625C24.4749 55.8453 25.3532 56.7233 26.4356 56.7233H44.3272C45.4102 56.7233 46.2882 55.8453 46.2882 54.7625V51.151C46.2882 50.0691 45.4102 49.1902 44.3272 49.1902H39.9394V24.9562H44.3272Z" fill="#69A042"/>
</svg>
