<svg width="74" height="100" viewBox="0 0 74 100" fill="none" xmlns="http://www.w3.org/2000/svg">
<path d="M73.2749 23.9636C73.2691 23.505 73.1237 23.0521 72.8087 22.694L53.5272 0.67066C53.5233 0.664487 53.5175 0.66249 53.5119 0.656862C53.397 0.528503 53.265 0.422657 53.1232 0.329339C53.0811 0.302105 53.0388 0.277596 52.9948 0.252723C52.8703 0.186274 52.7419 0.131082 52.6079 0.0907769C52.5716 0.0802468 52.5391 0.0653594 52.5026 0.0559186C52.3554 0.0206971 52.206 0 52.0528 0H4.66668C2.50474 0 0.745117 1.7598 0.745117 3.92174V96.0784C0.745117 98.2413 2.50474 100 4.66668 100H69.3724C71.5362 100 73.2942 98.2413 73.2942 96.0784V24.1833C73.294 24.1096 73.2826 24.0374 73.2749 23.9636ZM19.5697 94.5924H13.9766V69.9525H19.5697V94.5924ZM37.0101 90.351C38.6913 90.351 40.5562 89.9853 41.6535 89.5467L42.493 93.8972C41.4696 94.4094 39.1661 94.9581 36.1684 94.9581C27.6499 94.9581 23.2625 89.6569 23.2625 82.6382C23.2625 74.2293 29.2587 69.5483 36.7164 69.5483C39.6045 69.5483 41.7988 70.1344 42.785 70.6457L41.6515 75.0707C40.5179 74.595 38.9458 74.1555 36.9727 74.1555C32.549 74.1555 29.1118 76.8247 29.1118 82.3078C29.1136 87.2442 32.0381 90.351 37.0101 90.351ZM52.1851 94.9581C49.3703 94.9581 46.5918 94.2268 45.2016 93.4588L46.3353 88.8517C47.8345 89.6204 50.137 90.3875 52.5143 90.3875C55.0725 90.3875 56.4253 89.3275 56.4253 87.7181C56.4253 86.1834 55.2565 85.3045 52.2951 84.2446C48.2002 82.8199 45.531 80.5518 45.531 76.9694C45.531 72.7653 49.0408 69.5483 54.8543 69.5483C57.6328 69.5483 59.6796 70.1335 61.1426 70.7911L59.8999 75.2891C58.9126 74.8141 57.1577 74.1191 54.745 74.1191C52.3324 74.1191 51.1624 75.2163 51.1624 76.4955C51.1624 78.0674 52.5517 78.7626 55.7323 79.969C60.0838 81.5774 62.1306 83.8446 62.1306 87.3161C62.1286 91.4483 58.9491 94.9581 52.1851 94.9581ZM4.66668 66.5852V3.92174H50.092V23.9862C50.092 25.0684 50.9691 25.9469 52.0528 25.9469H69.3724L69.3744 66.5852H4.66668Z" fill="#AEB1CF"/>
<path d="M54.5422 22.5263H49.4088V19.0078H46.8409V22.5263H41.958V19.0078H39.4859V22.5263H34.7697V19.0078H32.2982V22.5263H27.2062V19.0078H27.1109H24.6374V22.5263H19.9647V19.0078H17.4931V22.9332C16.2392 23.5556 15.3667 24.837 15.3667 26.3301V53.9039C15.3667 56.0016 17.0733 57.7087 19.1695 57.7087H54.542C56.6388 57.7087 58.3459 56.0016 58.3459 53.9039V26.3291C58.345 24.232 56.639 22.5263 54.5422 22.5263ZM55.3025 53.9041C55.3025 54.3235 54.9607 54.6644 54.5415 54.6644H19.1688C18.749 54.6644 18.4092 54.3225 18.4092 53.9041V28.7988H55.3025V53.9041Z" fill="#AEB1CF"/>
<path d="M38.9958 30.9414H33.4807V36.4572H38.9958V30.9414Z" fill="#AEB1CF"/>
<path d="M48.409 30.9414H42.8943V36.4572H48.409V30.9414Z" fill="#AEB1CF"/>
<path d="M29.867 38.834H24.3523V44.3487H29.867V38.834Z" fill="#AEB1CF"/>
<path d="M38.9958 38.834H33.4807V44.3487H38.9958V38.834Z" fill="#AEB1CF"/>
<path d="M48.409 38.834H42.8943V44.3487H48.409V38.834Z" fill="#AEB1CF"/>
<path d="M29.867 46.7363H24.3523V52.251H29.867V46.7363Z" fill="#AEB1CF"/>
<path d="M38.9958 46.7363H33.4807V52.251H38.9958V46.7363Z" fill="#AEB1CF"/>
<path d="M48.409 46.7363H42.8943V52.251H48.409V46.7363Z" fill="#AEB1CF"/>
</svg>
