<svg width="73" height="100" viewBox="0 0 73 100" fill="none" xmlns="http://www.w3.org/2000/svg">
<path d="M72.8237 23.9646C72.818 23.5061 72.6725 23.0533 72.3575 22.6952L53.0763 0.670629C53.0725 0.664975 53.0666 0.662969 53.061 0.65695C52.9461 0.528551 52.814 0.422768 52.6721 0.329387C52.6302 0.302212 52.5879 0.277772 52.5439 0.25315C52.4194 0.186397 52.291 0.131682 52.1571 0.0913748C52.1206 0.0804317 52.0883 0.0654762 52.0519 0.0559922C51.9045 0.0215214 51.7549 0 51.6019 0H4.21559C2.05378 0 0.293945 1.75983 0.293945 3.92164V96.0785C0.293945 98.2413 2.05378 100 4.21559 100H68.9212C71.0848 100 72.843 98.2413 72.843 96.0785V24.1833C72.8432 24.1102 72.8313 24.0374 72.8237 23.9646ZM22.204 95.9328H16.3283V70.0511H22.204V95.9328ZM43.0924 74.8506H33.1458V80.7655H42.4394V85.5261H33.1458V95.933H27.2707V70.0504H43.0926V74.8506H43.0924ZM63.3273 74.8506H53.3807V80.7655H62.6741V85.5261H53.3807V95.933H47.5059V70.0504H63.3273V74.8506ZM4.21559 66.5853V3.92164H49.6409V23.9867C49.6409 25.069 50.5182 25.9474 51.6019 25.9474H68.9214L68.9234 66.5851H4.21559V66.5853Z" fill="#AEB1CF"/>
<path d="M40.2947 37.8934C35.0232 34.2074 35.0369 33.3418 35.0369 33.3418C34.0321 33.46 33.9293 34.2211 33.9293 34.2211V51.5819C33.1742 51.3197 32.2734 51.2737 31.3493 51.5004C29.3035 52.0111 27.9653 53.6998 28.3565 55.272C28.5858 56.7214 30.7271 57.6962 32.773 57.181C34.5709 56.7358 35.8252 55.3772 35.8339 53.9871H35.8396L35.8859 37.5011C35.8859 37.5011 39.4738 37.3103 42.9894 42.8182C42.9896 42.8183 42.9985 39.9748 40.2947 37.8934Z" fill="#AEB1CF"/>
<path d="M53.8748 35.2685C53.2142 25.7743 45.2984 18.2471 35.6389 18.2471C25.9796 18.2471 18.0636 25.7752 17.4031 35.2685C15.8253 35.3225 14.561 36.609 14.561 38.2002V52.9066C14.561 54.5302 15.8775 55.8475 17.502 55.8475H20.1167C21.741 55.8475 23.0578 54.5302 23.0578 52.9066V38.2002C23.0578 36.653 21.8595 35.3998 20.3439 35.2816C20.9906 27.403 27.597 21.1877 35.6385 21.1877C43.681 21.1877 50.2868 27.4032 50.9331 35.2816C49.4184 35.3989 48.2198 36.6523 48.2198 38.2002V52.9066C48.2198 54.5302 49.5373 55.8475 51.1611 55.8475H53.7756C55.4005 55.8475 56.7169 54.5302 56.7169 52.9066V38.2002C56.7182 36.609 55.4524 35.3227 53.8748 35.2685Z" fill="#AEB1CF"/>
</svg>
