<svg width="74" height="100" viewBox="0 0 74 100" fill="none" xmlns="http://www.w3.org/2000/svg">
<path d="M40.1833 76.7959C39.2853 76.7959 38.7049 76.8754 38.3623 76.9549V88.598C38.7062 88.6775 39.2603 88.6775 39.7601 88.6775C43.405 88.7042 45.7813 86.6967 45.7813 82.4468C45.8071 78.7491 43.6415 76.7959 40.1833 76.7959Z" fill="#AEB1CF"/>
<path d="M58.5583 76.7959C57.662 76.7959 57.0799 76.8754 56.7373 76.9549V88.598C57.0801 88.6775 57.6353 88.6775 58.1371 88.6775C61.7791 88.7042 64.1581 86.6967 64.1581 82.4468C64.1839 78.7491 62.0183 76.7959 58.5583 76.7959Z" fill="#AEB1CF"/>
<path d="M73.3731 23.9646C73.3675 23.5056 73.2219 23.0526 72.9069 22.6951L53.6244 0.670115C53.6206 0.664487 53.6148 0.66249 53.6082 0.656862C53.4942 0.528503 53.3611 0.422294 53.2204 0.329339C53.1783 0.301561 53.136 0.277233 53.0921 0.252723C52.9675 0.186274 52.8392 0.131082 52.7043 0.0907769C52.668 0.0802468 52.6364 0.0653594 52.5999 0.0553739C52.4536 0.0216049 52.3023 0 52.15 0H4.76482C2.60306 0 0.843262 1.7598 0.843262 3.92174V96.0784C0.843262 98.2413 2.60288 100 4.76482 100H69.4706C71.6343 100 73.3922 98.2413 73.3922 96.0784V24.1833C73.3922 24.1096 73.3807 24.0374 73.3731 23.9646ZM12.6205 91.6351H8.57872V73.8396H12.6205V91.6351ZM30.8361 91.6351H26.6116L22.8087 84.7704C21.7541 82.8699 20.5914 80.5721 19.7207 78.4859L19.6422 78.5126C19.747 80.8613 19.8011 83.3706 19.8011 86.2744V91.6349H16.1041V73.8394H20.8031L24.5003 80.3602C25.5553 82.2359 26.6117 84.4532 27.4051 86.4601H27.4837C27.219 84.1115 27.1386 81.7074 27.1386 79.0422V73.8396H30.8356V91.6351H30.8361ZM47.1017 89.524C45.2252 91.0806 42.3741 91.8199 38.8891 91.8199C36.8029 91.8199 35.3247 91.6877 34.32 91.5558V74.0772C35.8002 73.8397 37.7268 73.7077 39.7604 73.7077C43.14 73.7077 45.3325 74.3147 47.0483 75.6082C48.898 76.9821 50.0583 79.1727 50.0583 82.3148C50.0581 85.721 48.8174 88.0706 47.1017 89.524ZM65.4755 89.524C63.6008 91.0806 60.7507 91.8199 57.2645 91.8199C55.1774 91.8199 53.6992 91.6877 52.6968 91.5558V74.0772C54.175 73.8397 56.1033 73.7077 58.1369 73.7077C61.5154 73.7077 63.709 74.3147 65.4247 75.6082C67.2725 76.9821 68.4328 79.1727 68.4328 82.3148C68.4328 85.721 67.191 88.0706 65.4755 89.524ZM4.76482 66.5852V3.92174H50.1903V23.9862C50.1903 25.0684 51.0672 25.9469 52.1511 25.9469H69.4706L69.4726 66.5852H4.76482Z" fill="#AEB1CF"/>
<path d="M27.6938 28.4951V54.5784H21.7737V28.4951H27.6938Z" fill="#AEB1CF"/>
<path d="M50.8371 27.1006V48.9277C50.8371 51.0573 50.9137 53.3006 50.9903 54.5787H45.7668L45.4949 51.7926H45.4183C44.2195 53.921 41.9352 55.0048 39.4974 55.0048C35.0078 55.0048 31.4092 51.1733 31.4092 45.2904C31.3714 38.9039 35.3556 35.2275 39.8843 35.2275C42.2069 35.2275 44.0252 36.0405 44.8772 37.3564H44.9558V27.1006H50.8371V27.1006ZM44.9546 43.6643C44.9546 43.3551 44.9144 42.929 44.8761 42.6198C44.5276 41.0328 43.2503 39.7169 41.4312 39.7169C38.761 39.7169 37.3669 42.1162 37.3669 45.0965C37.3669 48.3082 38.9544 50.3211 41.391 50.3211C43.0933 50.3211 44.4489 49.1593 44.7984 47.4954C44.9134 47.0689 44.9535 46.6446 44.9535 46.1407V43.6643H44.9546V43.6643Z" fill="#AEB1CF"/>
</svg>
