<svg width="73" height="100" viewBox="0 0 73 100" fill="none" xmlns="http://www.w3.org/2000/svg">
<path d="M37.875 12.8936H19.3479C16.5091 12.8936 14.2 15.203 14.2 18.0415V55.1865C14.2 58.0253 16.5094 60.3344 19.3479 60.3344H37.8746C40.7134 60.3344 43.0226 58.025 43.0226 55.1865V18.0418C43.0229 15.203 40.7134 12.8936 37.875 12.8936ZM28.6113 55.6149C27.3693 55.6149 26.3624 54.6079 26.3624 53.366C26.3624 52.124 27.3693 51.1171 28.6113 51.1171C29.8532 51.1171 30.8602 52.124 30.8602 53.366C30.8602 54.6079 29.8535 55.6149 28.6113 55.6149ZM39.2895 48.4133H17.9334V18.992H39.2891V48.4133H39.2895Z" fill="#AEB1CF"/>
<path d="M45.9641 77.1299H45.9171C45.6805 78.0763 45.4439 79.2826 45.1837 80.2053L44.2373 83.5886H47.7625L46.7688 80.2053C46.4849 79.2589 46.2007 78.0763 45.9641 77.1299Z" fill="#AEB1CF"/>
<path d="M32.7386 77.0352C32.0051 77.0352 31.5086 77.1061 31.248 77.1768V81.885C31.5556 81.956 31.9342 81.9797 32.4547 81.9797C34.3708 81.9797 35.5537 81.0096 35.5537 79.3771C35.554 77.9102 34.537 77.0352 32.7386 77.0352Z" fill="#AEB1CF"/>
<path d="M72.1004 22.2555L53.597 1.15457C52.9534 0.420819 52.0251 0 51.049 0H4.31353C2.14792 0 0.39209 1.75583 0.39209 3.92144V96.0786C0.39209 98.2445 2.14792 100 4.31353 100H69.0193C71.1852 100 72.9411 98.2442 72.9411 96.0782V24.4898C72.9411 23.6677 72.6423 22.8737 72.1004 22.2555ZM24.5532 90.3786H20.9333V74.4329H24.5532V90.3786ZM32.4784 84.7477C32.0052 84.7477 31.5794 84.7243 31.2485 84.6767V90.3783H27.6762V74.6455C28.7879 74.4562 30.3497 74.3143 32.5497 74.3143C34.7737 74.3143 36.3585 74.7401 37.4232 75.5919C38.4406 76.3963 39.1264 77.7212 39.1264 79.2824C39.1264 80.8439 38.6062 82.1685 37.6598 83.0679C36.4295 84.2275 34.6078 84.7477 32.4784 84.7477ZM49.5131 90.3786L48.2831 86.2855H43.7169L42.5809 90.3786H38.8431L43.7166 74.4329H48.4481L53.3929 90.3786H49.5131ZM4.31353 66.5843V3.92175H49.7389V23.9851C49.7389 25.0674 50.6159 25.946 51.6998 25.946H69.0196L69.0215 66.5843H4.31353Z" fill="#AEB1CF"/>
</svg>
