<svg width="74" height="100" viewBox="0 0 74 100" fill="none" xmlns="http://www.w3.org/2000/svg">
<path d="M73.4711 23.9636C73.4655 23.505 73.3199 23.0522 73.005 22.6942L53.7238 0.670629C53.7199 0.664975 53.7141 0.662969 53.7084 0.65695C53.5935 0.528551 53.4615 0.422768 53.3196 0.329387C53.2777 0.302212 53.2353 0.277772 53.1914 0.252968C53.0668 0.186397 52.9384 0.131682 52.8046 0.0915572C52.7681 0.0806141 52.7358 0.0656586 52.6993 0.0561745C52.5519 0.0215214 52.4024 0 52.2494 0H4.86305C2.70124 0 0.941406 1.75983 0.941406 3.92164V96.0785C0.941406 98.2413 2.70124 100 4.86305 100H69.5686C71.7323 100 73.4905 98.2413 73.4905 96.0785V24.1833C73.4906 24.1096 73.4788 24.0374 73.4711 23.9636ZM20.2545 93.4608H15.1738V71.0774H20.2545V93.4608ZM30.1201 93.7933C27.5618 93.7933 25.0376 93.1286 23.7756 92.4316L24.8057 88.2466C26.1676 88.9436 28.2599 89.6409 30.4186 89.6409C32.7433 89.6409 33.9726 88.6786 33.9726 87.2168C33.9726 85.8218 32.9098 85.0242 30.2195 84.061C26.499 82.7664 24.0747 80.7071 24.0747 77.4528C24.0747 73.633 27.263 70.711 32.5441 70.711C35.068 70.711 36.9276 71.2423 38.2555 71.8389L37.1269 75.9248C36.2309 75.4931 34.6376 74.8621 32.4451 74.8621C30.2532 74.8621 29.1905 75.859 29.1905 77.0204C29.1905 78.4488 30.4522 79.0797 33.3412 80.1758C37.2936 81.6371 39.1536 83.6964 39.1536 86.851C39.1518 90.6048 36.2619 93.7933 30.1201 93.7933ZM52.073 93.8265C45.4324 93.8265 41.5454 88.8116 41.5454 82.4354C41.5454 75.7268 45.8305 70.7119 52.4387 70.7119C59.313 70.7119 63.0663 75.8601 63.0663 82.0373C63.0661 89.3757 58.6159 93.8265 52.073 93.8265ZM4.86305 66.5853V3.92164H50.2884V23.986C50.2884 25.069 51.1656 25.9468 52.2494 25.9468H69.5688L69.5708 66.5851H4.86305V66.5853Z" fill="#F04438"/>
<path d="M52.3065 74.7295C48.8848 74.7295 46.894 77.9849 46.894 82.3353C46.894 86.7193 48.9535 89.8069 52.3399 89.8069C55.7616 89.8069 57.7204 86.5539 57.7204 82.2034C57.7197 78.184 55.7934 74.7295 52.3065 74.7295Z" fill="#F04438"/>
<path d="M35.285 13.7041C22.7894 13.7041 12.658 23.8325 12.658 36.3248C12.658 48.8205 22.7893 58.9527 35.285 58.9527C47.7818 58.9527 57.9091 48.8205 57.9091 36.3248C57.9091 23.8336 47.7818 13.7041 35.285 13.7041ZM42.0967 16.4667L37.1812 26.4986C36.2277 26.1285 35.2852 26.3257 35.2852 26.3257L32.44 15.792C32.44 15.792 36.2128 14.099 42.0967 16.4667ZM35.2832 45.2297C30.3659 45.2297 26.3815 41.2455 26.3815 36.3258C26.3815 31.4091 30.3657 27.4267 35.2832 27.4267C40.201 27.4267 44.1857 31.41 44.1857 36.3258C44.1857 41.2446 40.201 45.2297 35.2832 45.2297Z" fill="#F04438"/>
<path d="M35.2851 28.4502C30.9423 28.4502 27.4099 31.9845 27.4099 36.3287C27.4099 40.6705 30.9433 44.2039 35.2851 44.2039C39.6277 44.2039 43.1616 40.6705 43.1616 36.3287C43.1616 31.9855 39.6286 28.4502 35.2851 28.4502ZM35.2851 43.2954C31.4441 43.2954 28.3176 40.1699 28.3176 36.3298C28.3176 32.4849 31.4441 29.3594 35.2851 29.3594C39.1269 29.3594 42.2517 32.4849 42.2517 36.3298C42.2517 40.1708 39.1271 43.2954 35.2851 43.2954Z" fill="#F04438"/>
<path d="M35.285 32.5625C33.208 32.5625 31.5186 34.2517 31.5186 36.3266C31.5186 38.4017 33.208 40.0921 35.285 40.0921C37.3612 40.0921 39.0519 38.4017 39.0519 36.3266C39.0519 34.2508 37.3612 32.5625 35.285 32.5625ZM35.285 39.184C33.7095 39.184 32.4287 37.9029 32.4287 36.3266C32.4287 34.7522 33.7095 33.4717 35.285 33.4717C36.859 33.4717 38.1446 34.7522 38.1446 36.3266C38.1446 37.9027 36.8599 39.184 35.285 39.184Z" fill="#F04438"/>
</svg>
