<svg width="73" height="100" viewBox="0 0 73 100" fill="none" xmlns="http://www.w3.org/2000/svg">
<path d="M55.0685 72.7939C53.7626 72.7939 53.0214 72.8994 52.6348 72.9701V79.5342H54.7508C57.4333 79.5342 59.0206 78.192 59.0206 76.1104C59.0206 73.9216 57.5386 72.8284 55.0685 72.7939Z" fill="#FDB64E"/>
<path d="M72.5277 23.9626C72.5239 23.5041 72.3776 23.0522 72.0626 22.6932L52.7824 0.668805C52.7767 0.663516 52.7711 0.66078 52.767 0.656038C52.6521 0.526728 52.5181 0.421856 52.3764 0.328658C52.3342 0.301482 52.2919 0.275766 52.248 0.252056C52.1254 0.184574 51.995 0.130405 51.8611 0.0900981C51.8247 0.0795198 51.7924 0.0638347 51.7559 0.0561745C51.6105 0.0206095 51.459 0 51.306 0H3.92164C1.75783 0 0 1.75892 0 3.92164V96.0785C0 98.2405 1.75783 100 3.92164 100H68.6272C70.789 100 72.5491 98.2405 72.5491 96.0785V24.1824C72.5492 24.1087 72.5374 24.0365 72.5277 23.9626ZM19.6695 84.0151C19.6695 90.7914 16.4216 93.1544 11.1999 93.1544C9.96496 93.1544 8.34101 92.9426 7.28263 92.5915L7.8834 88.2506C8.62443 88.4975 9.57648 88.6735 10.6356 88.6735C12.895 88.6735 14.3059 87.6491 14.3059 83.9437V68.9816H19.6697V84.0151H19.6695ZM38.3386 92.7677L36.5041 86.6613H29.6932L27.9981 92.7677H22.4215L29.6923 68.9816H36.7495L44.1251 92.7677H38.3386V92.7677ZM59.7617 92.7677C59.3748 92.0976 58.8102 90.1558 58.1034 87.2261C57.4689 84.2627 56.4463 83.45 54.2566 83.4154H52.6346V92.7675H47.3053V69.2995C49.0345 69.0181 51.6104 68.8054 54.4691 68.8054C57.9988 68.8054 60.4682 69.334 62.1635 70.6763C63.5739 71.806 64.3492 73.4643 64.3492 75.6509C64.3492 78.6861 62.1971 80.769 60.1502 81.5104V81.6154C61.8086 82.2857 62.7276 83.8733 63.3271 86.062C64.068 88.7447 64.8092 91.8503 65.2677 92.7677H59.7617ZM3.92164 66.5843V3.92164H49.3451V23.9851C49.3451 25.0675 50.2241 25.9459 51.306 25.9459H68.6274V66.5842H3.92164V66.5843Z" fill="#FDB64E"/>
<path d="M33.0459 73.0049H32.9751C32.6233 74.4158 32.2685 76.216 31.8822 77.5926L30.4695 82.6383H35.7271L34.245 77.5926C33.8215 76.1817 33.3979 74.4158 33.0459 73.0049Z" fill="#FDB64E"/>
<path d="M33.121 40.022C33.121 40.022 31.1425 36.212 31.2158 33.4279C31.2698 31.4382 35.7564 29.4719 37.5176 26.6167C39.2734 23.7596 37.2972 20.9775 37.2972 20.9775C37.2972 20.9775 37.7377 23.0288 36.5655 25.1511C35.3942 27.2753 31.0686 28.5224 29.3856 32.1827C27.7038 35.8465 33.121 40.022 33.121 40.022Z" fill="#FDB64E"/>
<path d="M40.5218 28.4482C40.5218 28.4482 33.7834 31.0117 33.7834 33.9404C33.7834 36.8715 35.614 37.8226 35.9071 38.7743C36.1999 39.7282 35.3965 41.339 35.3965 41.339C35.3965 41.339 38.0327 39.5075 37.5902 37.382C37.1497 35.2576 35.099 34.5988 36.2728 32.4764C37.0558 31.0527 40.5218 28.4482 40.5218 28.4482Z" fill="#FDB64E"/>
<path d="M32.3911 43.8921C39.344 43.6443 40.1614 42.3346 40.8873 41.7059C36.8604 42.8033 26.1655 42.7313 26.0889 41.9268C26.0185 41.1206 29.3845 40.4609 29.3845 40.4609C29.3845 40.4609 24.113 40.4609 23.6725 41.7798C23.2321 43.096 26.1674 44.1099 32.3911 43.8921Z" fill="#FDB64E"/>
<path d="M41.9118 40.6078C41.9118 40.6078 44.9162 40.6078 45.2069 42.4373C45.5 44.2684 41.4004 46.9774 41.4004 46.9774C41.4004 46.9774 47.8573 45.6772 47.2558 42.3665C46.5247 38.3382 41.9118 40.6078 41.9118 40.6078Z" fill="#FDB64E"/>
<path d="M34.5833 45.8808C31.5334 46.2243 27.8469 45.9536 27.5521 45.4389C27.2649 44.9262 28.0668 44.6348 28.0668 44.6348C24.4022 45.5151 26.4053 47.051 30.7001 47.3467C34.3803 47.5974 38.4936 46.2467 38.4936 46.2467L39.7614 45.2222C39.7614 45.2222 36.8605 45.6253 34.5833 45.8808Z" fill="#FDB64E"/>
<path d="M28.9479 48.4229C28.9479 48.4229 27.2864 48.4688 27.1901 49.3481C27.0918 50.2222 27.7048 50.6665 31.8148 50.5695C36.7073 50.453 37.5231 49.8717 38.0267 49.4471L39.2196 48.5482C36.0217 48.9616 35.7749 49.0765 33.964 49.1272C32.1415 49.1805 28.949 49.2963 28.8031 48.9569C28.6539 48.6156 28.9479 48.4229 28.9479 48.4229Z" fill="#FDB64E"/>
<path d="M44.9142 52.377C45.5479 51.6925 44.717 51.1544 44.717 51.1544C44.717 51.1544 45.0106 51.497 44.6231 51.8869C44.2333 52.2767 40.6649 53.2528 34.9517 53.5451C29.2402 53.8397 23.0382 53.0099 22.8399 52.2767C22.651 51.5449 26.0165 50.9609 26.0165 50.9609C25.6284 51.0089 20.938 51.1056 20.7892 52.3772C20.646 53.6447 22.8399 54.6701 31.6332 54.6701C40.422 54.6699 44.2822 53.0585 44.9142 52.377Z" fill="#FDB64E"/>
<path d="M41.4962 55.2556C37.6377 56.0372 25.9224 55.5451 25.9224 55.5451C25.9224 55.5451 33.5362 57.3514 42.2296 55.8387C46.3847 55.1148 46.6258 53.1035 46.6258 53.1035C46.6258 53.1035 45.3544 54.4727 41.4962 55.2556Z" fill="#FDB64E"/>
</svg>
