<svg width="74" height="100" viewBox="0 0 74 100" fill="none" xmlns="http://www.w3.org/2000/svg">
<path d="M73.0789 23.9636C73.0731 23.505 72.9257 23.0521 72.6107 22.694L53.3311 0.67066C53.3255 0.664487 53.3199 0.66249 53.3159 0.656862C53.2009 0.528503 53.0669 0.422657 52.9253 0.329339C52.8832 0.302105 52.8411 0.277596 52.797 0.252723C52.6744 0.186274 52.5461 0.131082 52.4103 0.0907769C52.3738 0.0802468 52.3413 0.0653594 52.305 0.0559186C52.1594 0.0206971 52.0081 0 51.8549 0H4.47063C2.30869 0 0.549072 1.7598 0.549072 3.92174V96.0784C0.549072 98.2413 2.30869 100 4.47063 100H69.1764C71.3383 100 73.0981 98.2413 73.0981 96.0784V24.1833C73.098 24.1096 73.0865 24.0374 73.0789 23.9636ZM20.0971 85.9316C20.0971 92.7061 16.8492 95.071 11.6275 95.071C10.3924 95.071 8.76856 94.8595 7.71028 94.5062L8.31104 90.1654C9.05214 90.4123 10.0042 90.5904 11.0632 90.5904C13.3226 90.5904 14.7335 89.5659 14.7335 85.8608V70.8984H20.0973V85.9316H20.0971ZM39.4737 83.7794C37.6374 85.5084 34.9197 86.284 31.7449 86.284C31.0383 86.284 30.403 86.2497 29.9087 86.1787V94.6845H24.5797V71.2163C26.2393 70.9329 28.5677 70.7223 31.8497 70.7223C35.1667 70.7223 37.5319 71.357 39.1202 72.6275C40.6376 73.8279 41.6601 75.8021 41.6601 78.1326C41.6603 80.461 40.8849 82.4379 39.4737 83.7794ZM64.9542 93.589C63.296 94.1538 60.1546 94.9305 57.0125 94.9305C52.6737 94.9305 49.5314 93.8361 47.3456 91.7201C45.1568 89.6723 43.9564 86.5674 43.9927 83.0728C44.027 75.1683 49.7783 70.6513 57.5773 70.6513C60.6497 70.6513 63.0136 71.2506 64.1769 71.8165L63.048 76.122C61.7421 75.5572 60.1192 75.0994 57.5074 75.0994C53.0266 75.0994 49.6394 77.6404 49.6394 82.7932C49.6394 87.6981 52.7087 90.5922 57.1207 90.5922C58.3558 90.5922 59.3436 90.4497 59.7668 90.238V85.2635H56.0962V81.0641H64.954V93.589H64.9542ZM4.47063 66.5852V3.92174H49.8939V23.9862C49.8939 25.0684 50.773 25.9469 51.8549 25.9469H69.1764V66.5852H4.47063Z" fill="#69A042"/>
<path d="M32.1324 74.7803C31.0394 74.7803 30.2985 74.8856 29.9087 74.9929V82.0145C30.3687 82.1198 30.9337 82.1561 31.7092 82.1561C34.5679 82.1561 36.3335 80.7085 36.3335 78.2748C36.3335 76.086 34.815 74.7803 32.1324 74.7803Z" fill="#69A042"/>
<path d="M31.493 44.1989C23.6618 36.3654 16.0676 66.6666 16.0676 66.6666H42.1676C42.1676 66.6666 39.3279 52.0374 31.493 44.1989Z" fill="#69A042"/>
<path d="M50.4894 52.2836C44.9384 53.7034 42.1675 66.6668 42.1675 66.6668H60.8849C58.3441 60.1718 55.2305 51.0705 50.4894 52.2836Z" fill="#69A042"/>
<path d="M16.0698 37.2163C18.7519 37.2163 20.9258 35.044 20.9258 32.3603C20.9258 29.6773 18.7521 27.5068 16.0698 27.5068C13.3833 27.5068 11.21 29.6773 11.21 32.3603C11.21 35.044 13.3833 37.2163 16.0698 37.2163Z" fill="#69A042"/>
<path d="M45.5186 40.3386C46.4989 40.3386 47.4162 40.2375 48.2319 40.0728C49.1816 40.4808 50.3363 40.725 51.5924 40.725C54.8007 40.725 57.4049 39.1544 57.4049 37.2188C57.4049 35.2814 54.8018 33.7119 51.5924 33.7119C50.386 33.7119 49.2698 33.9325 48.3392 34.3112C47.9599 33.9445 47.4468 33.7119 46.8791 33.7119H46.0374C44.9594 33.7119 44.1053 34.5285 43.983 35.573C41.3769 35.8435 39.4485 36.7838 39.4485 37.9102C39.4476 39.2524 42.1647 40.3386 45.5186 40.3386Z" fill="#69A042"/>
</svg>
