<svg width="73" height="100" viewBox="0 0 73 100" fill="none" xmlns="http://www.w3.org/2000/svg">
<path d="M72.626 23.9646C72.6222 23.505 72.4747 23.053 72.1599 22.6951L52.8804 0.67066C52.8746 0.664487 52.8689 0.66249 52.8649 0.656862C52.75 0.528503 52.616 0.421749 52.4744 0.329339C52.4325 0.301198 52.3902 0.277596 52.3462 0.252723C52.2235 0.186274 52.0933 0.130174 51.9593 0.0900507C51.923 0.0804283 51.8904 0.0655409 51.854 0.0559186C51.7084 0.0216049 51.5572 0 51.404 0H4.01971C1.85595 0 0.0981445 1.7598 0.0981445 3.92174V96.0784C0.0981445 98.2402 1.85595 100 4.01971 100H68.7255C70.8872 100 72.647 98.2404 72.647 96.0784V24.1833C72.647 24.1096 72.6356 24.0374 72.626 23.9646ZM32.0514 85.2998C32.0514 92.2066 28.7426 94.6155 23.4189 94.6155C22.1589 94.6155 20.5041 94.4009 19.4251 94.041L20.0378 89.6158C20.7927 89.8688 21.7631 90.0487 22.8425 90.0487C25.1446 90.0487 26.5818 89.0031 26.5818 85.2271V69.9774H32.0505V85.2998H32.0514V85.2998ZM42.5536 94.579C39.7849 94.579 37.0532 93.8589 35.6856 93.1046L36.8 88.5721C38.2738 89.3284 40.5411 90.0828 42.8789 90.0828C45.3969 90.0828 46.7259 89.0412 46.7259 87.4577C46.7259 85.9468 45.575 85.0834 42.6625 84.0416C38.6338 82.6382 36.0091 80.4093 36.0091 76.884C36.0091 72.748 39.461 69.5828 45.1798 69.5828C47.9132 69.5828 49.9285 70.1573 51.3664 70.8063L50.1456 75.2295C49.173 74.7624 47.4477 74.0787 45.0725 74.0787C42.7001 74.0787 41.5472 75.1596 41.5472 76.4167C41.5472 77.9619 42.9154 78.6475 46.045 79.8326C50.3237 81.4163 52.3392 83.6451 52.3392 87.061C52.3384 91.1266 49.2077 94.579 42.5536 94.579ZM68.7257 66.5843H4.01971V3.92174H49.4432V23.9852C49.4432 25.0686 50.3221 25.946 51.404 25.946H68.7255V66.5843H68.7257Z" fill="#FDB64E"/>
<path d="M18.0349 23.013C18.0349 24.708 19.2399 26.0863 20.7201 26.0863C21.1384 26.0863 21.4788 25.6971 21.4788 25.2169C21.4788 24.7363 21.1375 24.3481 20.7201 24.3481C20.0781 24.3481 19.5534 23.7492 19.5534 23.013C19.5534 22.2757 20.0781 21.6775 20.7201 21.6775H20.7268C20.8719 21.6775 22.174 21.6444 22.184 22.8679V56.2117C22.184 57.6498 23.2056 58.8197 24.4612 58.8197H28.5135C28.512 58.8121 28.512 58.8043 28.5111 58.7987H49.2137C50.8642 58.7987 52.2046 57.264 52.2046 55.3731C52.2046 53.803 51.2741 52.4779 50.0103 52.0777C50.0122 52.0701 50.0142 52.0663 50.0142 52.0605H50.0218V22.5464C50.0218 21.1083 49.0013 19.9395 47.7451 19.9395H20.6983C20.6974 19.9395 20.6974 19.9395 20.6974 19.9395C19.2397 19.9382 18.0349 21.318 18.0349 23.013ZM28.4002 55.3924C28.4002 54.7183 28.1992 54.1534 27.9111 53.6863H47.199C48.0109 53.6863 48.6714 54.4427 48.6714 55.3733C48.6714 56.3058 48.0107 57.0612 47.199 57.0612H27.9307C28.2074 56.6062 28.4002 56.0529 28.4002 55.3924ZM27.6649 39.3795H45.4345V40.9725H27.6649V39.3795ZM27.6649 33.6197H45.4345V35.2128H27.6649V33.6197ZM27.6649 27.7374H45.4345V29.3303H27.6649V27.7374Z" fill="#FDB64E"/>
</svg>
