<svg width="74" height="100" viewBox="0 0 74 100" fill="none" xmlns="http://www.w3.org/2000/svg">
<path d="M54.7122 75.7637C53.6839 75.7637 52.986 75.8623 52.623 75.9617V82.5621C53.053 82.6636 53.5833 82.6961 54.3137 82.6961C57.0003 82.6961 58.6603 81.3346 58.6603 79.0483C58.6595 76.9919 57.2329 75.7637 54.7122 75.7637Z" fill="#FDB64E"/>
<path d="M73.1768 23.9651C73.1712 23.5059 73.0256 23.0532 72.7106 22.6951L53.4281 0.67066C53.4243 0.665031 53.4185 0.663034 53.4119 0.657225C53.2979 0.528503 53.1649 0.422657 53.0241 0.329883C52.982 0.302105 52.9397 0.277596 52.8958 0.253268C52.7712 0.186274 52.6429 0.131626 52.508 0.0913215C52.4717 0.0802468 52.4401 0.065904 52.4036 0.0559186C52.2573 0.0216049 52.106 0 51.9537 0H4.56853C2.40677 0 0.646973 1.76016 0.646973 3.92174V96.0784C0.646973 98.2413 2.40659 100 4.56853 100H69.2743C71.4381 100 73.1959 98.2413 73.1959 96.0784V24.1848C73.1959 24.1111 73.1844 24.0374 73.1768 23.9651ZM25.491 86.2457C25.491 92.6144 22.4392 94.8375 17.5291 94.8375C16.3686 94.8375 14.843 94.6383 13.8468 94.307L14.4117 90.2275C15.1086 90.4583 16.003 90.6247 16.9986 90.6247C19.1221 90.6247 20.4496 89.6634 20.4496 86.1805V72.1141H25.4917V86.2455H25.491V86.2457ZM35.1741 94.8041C32.6202 94.8041 30.0999 94.1407 28.8399 93.4435L29.8688 89.2636C31.2283 89.9606 33.3174 90.6576 35.4735 90.6576C37.7961 90.6576 39.024 89.6954 39.024 88.2344C39.024 86.8413 37.9632 86.0467 35.2762 85.0837C31.5594 83.7912 29.1391 81.7337 29.1391 78.4833C29.1391 74.668 32.3236 71.7488 37.5988 71.7488C40.1184 71.7488 41.9748 72.2793 43.3027 72.8768L42.1758 76.9563C41.2796 76.5264 39.6885 75.8955 37.4979 75.8955C35.3096 75.8955 34.2488 76.8902 34.2488 78.0505C34.2488 79.477 35.5086 80.109 38.3949 81.2014C42.3403 82.6614 44.2006 84.7199 44.2006 87.8715C44.1986 91.6187 41.3141 94.8041 35.1741 94.8041ZM61.6131 84.2219C59.8849 85.8475 57.3335 86.5772 54.3482 86.5772C53.6837 86.5772 53.0864 86.5445 52.6229 86.4766V94.471H47.6137V72.4122C49.1705 72.1469 51.3629 71.9478 54.4459 71.9478C57.5652 71.9478 59.7883 72.5431 61.2799 73.7381C62.7084 74.8648 63.6696 76.7232 63.6696 78.9118C63.6696 81.1006 62.9401 82.9608 61.6131 84.2219ZM4.56853 66.5863V3.92247H49.994V23.9876C49.994 25.0699 50.8709 25.9484 51.9548 25.9484H69.2743L69.2763 66.5863H4.56853V66.5863Z" fill="#FDB64E"/>
<path d="M33.6313 37.1234C33.6313 37.1234 30.9949 32.0457 31.0917 28.3371C31.1625 25.687 37.1391 23.0666 39.4882 19.2623C41.8262 15.4557 39.1924 11.75 39.1924 11.75C39.1924 11.75 39.7792 14.482 38.2179 17.3117C36.6576 20.1412 30.894 21.8028 28.6518 26.6795C26.4125 31.5584 33.6313 37.1234 33.6313 37.1234Z" fill="#FDB64E"/>
<path d="M43.4912 21.7041C43.4912 21.7041 34.5125 25.1188 34.5125 29.0205C34.5125 32.9252 36.9514 34.1935 37.3431 35.461C37.733 36.7315 36.6613 38.8775 36.6613 38.8775C36.6613 38.8775 40.1746 36.4394 39.5849 33.606C38.9988 30.7754 36.2664 29.898 37.8289 27.0688C38.8725 25.1736 43.4912 21.7041 43.4912 21.7041Z" fill="#FDB64E"/>
<path d="M32.6586 42.2788C41.9211 41.9474 43.0106 40.2036 43.9776 39.3654C38.6121 40.8269 24.3656 40.733 24.2625 39.6582C24.1681 38.5845 28.6537 37.7051 28.6537 37.7051C28.6537 37.7051 21.6301 37.7051 21.0437 39.462C20.456 41.2214 24.3674 42.5694 32.6586 42.2788Z" fill="#FDB64E"/>
<path d="M45.342 37.9029C45.342 37.9029 49.344 37.9029 49.7336 40.3419C50.1214 42.7803 44.6614 46.3904 44.6614 46.3904C44.6614 46.3904 53.2617 44.658 52.4624 40.2471C51.4878 34.8802 45.342 37.9029 45.342 37.9029Z" fill="#FDB64E"/>
<path d="M35.5781 44.9282C31.5144 45.3856 26.6037 45.0245 26.2103 44.3389C25.8274 43.6557 26.8979 43.2676 26.8979 43.2676C22.0135 44.4408 24.6824 46.4849 30.4038 46.8803C35.3076 47.2144 40.7874 45.4144 40.7874 45.4144L42.4773 44.0497C42.4783 44.0499 38.6121 44.5869 35.5781 44.9282Z" fill="#FDB64E"/>
<path d="M28.0707 48.3135C28.0707 48.3135 25.8567 48.3752 25.7283 49.5475C25.5976 50.7118 26.4153 51.3035 31.8903 51.1742C38.4073 51.0192 39.4941 50.2436 40.1651 49.6793L41.7524 48.4829C37.4939 49.035 37.1646 49.1851 34.7501 49.2536C32.3216 49.324 28.0693 49.4781 27.8754 49.0282C27.6782 48.5715 28.0707 48.3135 28.0707 48.3135Z" fill="#FDB64E"/>
<path d="M49.3431 53.5844C50.1873 52.671 49.0807 51.9557 49.0807 51.9557C49.0807 51.9557 49.4703 52.4125 48.9544 52.9314C48.4337 53.4503 43.6829 54.7506 36.0686 55.14C28.4591 55.5336 20.1952 54.4269 19.9324 53.4503C19.6815 52.4737 24.1656 51.6963 24.1656 51.6963C23.6472 51.7613 17.399 51.8915 17.1999 53.5843C17.0107 55.2749 19.9323 56.6384 31.6472 56.6384C43.3592 56.6385 48.5007 54.49 49.3431 53.5844Z" fill="#FDB64E"/>
<path d="M44.7896 57.419C39.6484 58.4617 24.042 57.805 24.042 57.805C24.042 57.805 34.1854 60.2109 45.7662 58.1955C51.301 57.2324 51.6237 54.5518 51.6237 54.5518C51.6237 54.5518 49.929 56.3764 44.7896 57.419Z" fill="#FDB64E"/>
</svg>
