<svg width="73" height="100" viewBox="0 0 73 100" fill="none" xmlns="http://www.w3.org/2000/svg">
<path d="M72.7256 23.9651C72.7198 23.5059 72.5744 23.0532 72.2594 22.6955L52.9778 0.67066C52.974 0.665031 52.9682 0.663034 52.9626 0.656862C52.8477 0.528503 52.7157 0.422657 52.5739 0.329339C52.5318 0.302105 52.4895 0.277596 52.4455 0.253268C52.321 0.186274 52.1926 0.131626 52.0586 0.0913215C52.0223 0.0802468 51.9898 0.065904 51.9533 0.0559186C51.8061 0.0216049 51.6567 0 51.5034 0H4.11736C1.95542 0 0.195801 1.7598 0.195801 3.92174V96.0784C0.195801 98.2413 1.95542 100 4.11736 100H68.8231C70.9869 100 72.7449 98.2413 72.7449 96.0784V24.1842C72.7447 24.1111 72.7332 24.0374 72.7256 23.9651ZM22.6538 92.9802L17.3684 83.6598L15.5106 85.9336V92.98H10.6742V71.3933H15.5106V80.9378H15.6068C16.087 80.1037 16.5995 79.335 17.0803 78.567L21.9813 71.3931H27.9704L20.8281 80.5852L28.3548 92.98H22.6538V92.9802ZM44.1162 92.9802H30.3448V71.3935H43.6681V75.3964H35.2448V79.8809H43.1875V83.8522H35.2448V88.9764H44.1162V92.9802V92.9802ZM57.317 83.9804V92.98H52.4477V84.1404L45.6262 71.3933H51.1992L53.4088 76.5816C54.082 78.1507 54.531 79.3043 55.0748 80.7128H55.1391C55.6196 79.3677 56.132 78.1191 56.7734 76.5816L58.9506 71.3933H64.427L57.317 83.9804ZM4.11736 66.5863V3.92247H49.5427V23.9876C49.5427 25.0699 50.4197 25.9484 51.5034 25.9484H68.8231L68.8251 66.5863H4.11736V66.5863Z" fill="#FDB64E"/>
<path d="M52.5529 40.1973C49.4585 37.1045 44.8724 36.0101 40.7288 37.3356L23.3875 19.9934C23.186 19.7925 22.9327 19.6474 22.6557 19.5808L15.9839 17.921C15.4416 17.7865 14.8643 17.9521 14.4759 18.3515C14.0878 18.7511 13.9389 19.3348 14.0896 19.8709L15.8494 26.1692C15.9231 26.4277 16.0614 26.667 16.2524 26.8562L17.6526 28.2554C17.8053 28.4101 18.0111 28.4987 18.2281 28.5052L20.6321 28.5877V30.7289C20.6321 30.9649 20.7259 31.1808 20.881 31.3335C21.0289 31.4809 21.2319 31.5748 21.4563 31.5838L23.7025 31.6581V33.5571C23.7025 33.7935 23.7987 34.0079 23.9523 34.1612C24.1012 34.311 24.3024 34.4034 24.5278 34.411L26.522 34.4785V36.4221C26.5387 36.8856 26.479 37.0827 26.7148 37.3186L26.7728 37.3774C26.9287 37.499 27.2423 37.5844 27.6306 37.5804L29.6943 37.6503V39.9444C29.6943 40.1708 29.7847 40.3885 29.9447 40.5484L33.4679 44.0717C31.723 48.3843 32.7206 53.395 36.0376 56.7114C40.5905 61.2639 47.998 61.2639 52.5505 56.7114C57.1044 52.1584 57.1044 44.7496 52.5529 40.1973ZM36.4665 39.015L19.8505 22.4007L20.4173 21.8329L37.0313 38.4489L36.4665 39.015ZM37.825 37.6554L21.2107 21.0406L21.4754 20.7763L38.0903 37.3908L37.825 37.6554ZM49.5294 53.6884C47.4345 55.7831 44.6101 56.4992 43.3637 55.2508C42.116 54.0043 42.8312 51.1818 44.9252 49.0869C47.0211 46.9898 49.8435 46.2761 51.0919 47.523C52.3384 48.7701 51.6242 51.5936 49.5294 53.6884Z" fill="#FDB64E"/>
</svg>
