<svg width="74" height="100" viewBox="0 0 74 100" fill="none" xmlns="http://www.w3.org/2000/svg">
<path d="M73.2749 23.9651C73.2693 23.5059 73.1246 23.0532 72.8098 22.6951L53.5273 0.67066C53.5235 0.665031 53.5177 0.663034 53.5119 0.657225C53.397 0.528503 53.265 0.422657 53.1232 0.329883C53.0811 0.302105 53.039 0.277596 52.9948 0.253268C52.8703 0.186274 52.7421 0.131626 52.6081 0.0913215C52.5718 0.0802468 52.5391 0.065904 52.5028 0.0559186C52.3554 0.0216049 52.2062 0 52.0529 0H4.66668C2.50492 0 0.745117 1.76016 0.745117 3.92174V96.0784C0.745117 98.2413 2.50474 100 4.66668 100H69.3724C71.5362 100 73.294 98.2413 73.294 96.0784V24.1848C73.294 24.1111 73.2826 24.0374 73.2749 23.9651ZM19.7264 93.0864L14.7551 84.3194L13.0078 86.4603V93.0875H8.45916V72.7816H13.0078V81.7573H13.0993C13.5512 80.9743 14.0323 80.2522 14.4857 79.5294L19.0942 72.7816H24.7284L18.0096 81.428L25.0893 93.0864H19.7264ZM44.428 93.0864L44.1276 85.3134C44.0375 82.8737 43.9457 79.9212 43.9457 76.9684H43.8556C43.2229 79.5601 42.3803 82.4525 41.5971 84.8317L39.1261 92.7555H35.5412L33.3727 84.8922C32.7102 82.512 32.0179 79.6186 31.5345 76.9684H31.4736C31.3529 79.7106 31.263 82.8423 31.1133 85.3737L30.7512 93.0857H26.5032L27.799 72.7809H33.915L35.903 79.5594C36.5354 81.9087 37.1677 84.4403 37.6196 86.8183H37.71C38.2826 84.4697 38.9758 81.7862 39.6383 79.5276L41.8068 72.7798H47.802L48.9164 93.0846H44.428V93.0864ZM65.1225 93.0864H52.4378V72.7816H57.0478V89.231H65.1226V93.0864H65.1225ZM4.66668 66.5863V3.92247H50.0922V23.9876C50.0922 25.0699 50.9691 25.9484 52.0529 25.9484H69.3724L69.3744 66.5863H4.66668V66.5863Z" fill="#AEB1CF"/>
<path d="M36.4068 11.7111C49.5607 11.661 60.5336 22.429 60.5077 35.8432C60.4817 48.9334 49.6976 59.9982 36.2058 59.8956C22.9816 59.7941 12.3021 48.7108 12.3451 35.6924C12.3892 22.5375 23.2352 11.6737 36.4068 11.7111ZM15.0628 29.2657C15.1414 29.3218 15.2198 29.3757 15.2979 29.4313C15.5363 29.2871 15.7943 29.1657 16.0078 28.9923C16.4831 28.6041 16.9282 28.1757 17.4008 27.7837C20.2362 25.4293 23.3224 24.7414 26.7274 26.4553C27.8792 27.0344 29.0324 27.6383 30.1047 28.3501C34.8449 31.4961 39.4858 34.7991 44.3036 37.8209C48.1161 40.2139 52.2684 41.9258 56.7328 42.7922C57.4222 42.9267 57.7314 42.7463 57.8626 42.1306C58.0425 41.2924 58.1469 40.4354 58.3739 39.6112C58.5251 39.0689 58.3241 38.8677 57.8634 38.7601C55.4901 38.2005 53.312 37.1482 51.4191 35.6718C47.9572 32.9701 44.5927 30.1384 41.237 27.3013C38.9153 25.3358 36.7091 23.2329 34.3948 21.2552C31.253 18.5738 27.5704 18.0786 23.6517 18.8631C22.6842 19.0559 21.5479 19.2719 20.8694 19.8914C18.5361 22.025 16.6861 24.5602 15.5802 27.5678C15.3763 28.1217 15.2331 28.7 15.0628 29.2657ZM54.8323 48.402C54.7433 48.306 54.6551 48.2121 54.5651 48.1159C54.2798 48.1878 53.9944 48.2533 53.7112 48.3308C50.6838 49.16 47.6114 49.8857 44.4703 49.7286C41.7581 49.5923 39.0379 49.2226 36.3687 48.7157C31.753 47.8387 27.4767 45.9173 23.153 44.1413C21.7844 43.5798 20.3019 43.0952 18.8433 42.9961C16.8921 42.8632 15.8208 44.8363 16.748 46.5218C18.9284 50.4835 22.0219 53.5273 26.0205 55.6411C26.3413 55.8096 26.7078 55.89 27.2354 56.0767C27.1296 55.5509 27.0831 55.256 27.0108 54.9697C26.4812 52.8664 27.3402 51.9855 29.4958 52.4298C29.7959 52.4921 30.0971 52.5523 30.3948 52.6308C35.582 53.9692 40.8214 54.5954 46.1667 53.7893C48.9921 53.3622 51.7561 52.8136 53.5244 50.2085C53.9418 49.5921 54.3966 49.0019 54.8323 48.402ZM30.0353 14.4785C30.0511 14.6069 30.0664 14.7336 30.0822 14.862C30.3068 14.8994 30.5293 14.9611 30.7539 14.9716C31.9186 15.0366 33.0833 15.0778 34.247 15.1483C38.5057 15.4063 42.2624 16.9368 45.1501 20.0698C47.3931 22.5003 49.2793 25.259 51.3924 27.8138C52.3249 28.944 53.3559 30.0177 54.4705 30.9689C55.3082 31.6836 56.3172 31.5816 57.0257 31.0037C57.7994 30.3723 57.9238 29.7715 57.5284 28.6001C56.1317 24.4598 53.6883 21.0294 50.2415 18.3874C45.2439 14.553 39.5798 12.9321 33.2882 13.7679C32.1933 13.9126 31.1196 14.2373 30.0353 14.4785Z" fill="#AEB1CF"/>
</svg>
