<svg width="73" height="100" viewBox="0 0 73 100" fill="none" xmlns="http://www.w3.org/2000/svg">
<path d="M72.8238 23.9651C72.8181 23.5059 72.6734 23.0532 72.3586 22.6951L53.0762 0.67066C53.0724 0.665031 53.0665 0.663034 53.0607 0.657225C52.9458 0.528503 52.8138 0.422657 52.672 0.329883C52.6299 0.302105 52.5878 0.277596 52.5437 0.253268C52.4191 0.186274 52.2909 0.131626 52.157 0.0913215C52.1206 0.0802468 52.088 0.065904 52.0517 0.0559186C51.9042 0.0216049 51.755 0 51.6018 0H4.21551C2.05375 0 0.293945 1.76016 0.293945 3.92174V96.0784C0.293945 98.2413 2.05356 100 4.21551 100H68.9213C71.085 100 72.8428 98.2413 72.8428 96.0784V24.1848C72.8428 24.1111 72.8314 24.0374 72.8238 23.9651ZM17.3408 93.1275L12.3693 84.3615L10.6225 86.5004V93.1285H6.07335V72.8218H10.6225V81.7994H10.7135C11.1654 81.0162 11.647 80.2923 12.0998 79.5705L16.709 72.8218H22.3427L15.6242 81.4681L22.7039 93.1275H17.3408ZM42.043 93.1275L41.7425 85.3533C41.6524 82.9149 41.5606 79.9614 41.5606 77.0106H41.4703C40.8365 79.6004 39.995 82.4908 39.2109 84.8729L36.7409 92.7965H33.1559L30.9874 84.9323C30.3244 82.5523 29.6321 79.6609 29.1492 77.0107H29.0884C28.9676 79.7509 28.8772 82.8826 28.7274 85.414L28.3656 93.1267H24.1176L25.4139 72.8209H31.5294L33.5174 79.5993C34.1497 81.9488 34.7821 84.4804 35.2345 86.8584H35.3246C35.897 84.5098 36.5902 81.8283 37.2527 79.5688L39.4217 72.8199H45.417L46.5313 93.1258H42.043V93.1275ZM64.544 93.1275H48.7583V90.6556L58.4282 76.7386V76.618H49.662V72.8219H64.3939V75.473L54.9338 89.211V89.3315H64.5444V93.1275H64.544ZM4.21551 66.5863V3.92247H49.641V23.9876C49.641 25.0699 50.5179 25.9484 51.6018 25.9484H68.9213L68.9233 66.5863H4.21551V66.5863Z" fill="#AEB1CF"/>
<path d="M36.5489 11.7111C49.7023 11.661 60.6754 22.429 60.6494 35.8432C60.6244 48.9334 49.8402 59.9982 36.3477 59.8976C23.1237 59.7952 12.4442 48.7108 12.4872 35.6934C12.5313 22.5375 23.3773 11.6737 36.5489 11.7111ZM15.204 29.2657C15.2826 29.3218 15.361 29.3757 15.4391 29.4313C15.6773 29.2871 15.9354 29.1657 16.1489 28.9923C16.6243 28.6041 17.0694 28.1757 17.542 27.7837C20.3773 25.4293 23.4636 24.7414 26.8686 26.4553C28.0204 27.0344 29.1736 27.6383 30.2459 28.3501C34.9861 31.4961 39.6275 34.7991 44.4443 37.8209C48.2567 40.2139 52.41 41.9258 56.8735 42.7922C57.5628 42.9267 57.8731 42.7463 58.0033 42.1306C58.1832 41.2924 58.2885 40.4354 58.5154 39.6112C58.6658 39.0689 58.4657 38.8677 58.0051 38.7601C55.6307 38.2005 53.4535 37.1482 51.5608 35.6718C48.0979 32.9701 44.7335 30.1384 41.3787 27.3013C39.0559 25.3358 36.8503 23.2329 34.5362 21.2552C31.3944 18.5738 27.7117 18.0786 23.7931 18.8631C22.8256 19.0559 21.6892 19.2719 21.0108 19.8914C18.6774 22.025 16.8274 24.5602 15.7216 27.5678C15.5184 28.1217 15.3743 28.7 15.204 29.2657ZM54.9739 48.402C54.8838 48.306 54.7958 48.2121 54.7057 48.1159C54.4214 48.1878 54.1349 48.2533 53.8526 48.3309C50.8252 49.16 47.7529 49.8857 44.6108 49.7286C41.8993 49.5923 39.1794 49.2226 36.5097 48.7157C31.894 47.8387 27.6177 45.9173 23.294 44.1413C21.9254 43.5798 20.4429 43.0952 18.9843 42.9961C17.0331 42.8632 15.9618 44.8363 16.889 46.5219C19.0694 50.4835 22.1629 53.5273 26.1615 55.6411C26.4823 55.8096 26.8488 55.89 27.3764 56.0767C27.2706 55.5509 27.2243 55.256 27.1518 54.9697C26.6224 52.8664 27.4812 51.9855 29.6369 52.4298C29.937 52.4921 30.2382 52.5523 30.5364 52.6308C35.7232 53.9692 40.9632 54.5954 46.3074 53.7893C49.1336 53.3622 51.8967 52.8136 53.6659 50.2085C54.0835 49.5921 54.5372 49.0019 54.9739 48.402ZM30.1772 14.4785C30.193 14.6069 30.2085 14.7336 30.2243 14.862C30.4487 14.8994 30.6714 14.9611 30.8958 14.9716C32.0605 15.0366 33.2252 15.0778 34.3889 15.1483C38.6469 15.4063 42.4038 16.9368 45.2925 20.0698C47.5349 22.5003 49.4209 25.259 51.5349 27.8138C52.4673 28.944 53.4976 30.0177 54.6118 30.9689C55.4506 31.6837 56.4588 31.5816 57.1672 31.0037C57.9419 30.3723 58.0663 29.7715 57.6699 28.6001C56.2742 24.4598 53.8308 21.0294 50.3831 18.3874C45.3855 14.553 39.7212 12.9321 33.4301 13.7679C32.3354 13.9126 31.2608 14.2373 30.1772 14.4785Z" fill="#AEB1CF"/>
</svg>
