<svg width="74" height="100" viewBox="0 0 74 100" fill="none" xmlns="http://www.w3.org/2000/svg">
<path d="M73.3726 23.9646C73.3668 23.5059 73.2214 23.053 72.9064 22.6951L53.6248 0.67066C53.621 0.665031 53.6152 0.663034 53.6096 0.656862C53.4946 0.528503 53.3626 0.422657 53.2209 0.329339C53.1787 0.302105 53.1364 0.277596 53.0925 0.252723C52.9679 0.186274 52.8396 0.131626 52.7056 0.0913215C52.6693 0.0802468 52.6368 0.0653594 52.6003 0.0559186C52.4531 0.0216049 52.3036 0 52.1504 0H4.76433C2.60239 0 0.842773 1.7598 0.842773 3.92174V96.0784C0.842773 98.2413 2.60239 100 4.76433 100H69.4701C71.6339 100 73.3918 98.2413 73.3918 96.0784V24.1833C73.3917 24.1102 73.3802 24.0374 73.3726 23.9646ZM22.3309 93.7193H8.32406V71.2947H13.4146V89.4606H22.3309V93.7193ZM43.8899 93.7193H38.5667L33.7748 85.0699C32.4446 82.6745 30.9802 79.7793 29.8828 77.1502L29.7828 77.1847C29.9159 80.146 29.9829 83.3063 29.9829 86.9664V93.721H25.3253V71.2947H31.2479L35.9057 79.5131C37.2359 81.8762 38.5667 84.6698 39.5653 87.1994H39.6659C39.3327 84.2371 39.2332 81.2108 39.2332 77.8492V71.2947H43.891V93.7193H43.8899V93.7193ZM60.7232 93.7193L55.2334 84.038L53.3033 86.4V93.7193H48.2788V71.2947H53.3033V81.2095H53.4029C53.9026 80.3441 54.4351 79.5456 54.9338 78.7471L60.0244 71.2947H66.2457L58.8258 80.843L66.6449 93.7193H60.7232ZM4.76433 66.5852V3.92174H50.1896V23.9862C50.1896 25.0684 51.0667 25.9469 52.1504 25.9469H69.4701L69.4721 66.5852H4.76433Z" fill="#AEB1CF"/>
<path d="M51.9486 47.1796L45.3337 38.0867C43.4123 35.4453 39.9828 34.5453 37.0752 35.6923L36.8038 35.3198C38.7898 32.9051 38.99 29.367 37.0685 26.725L32.0732 19.8581C29.7934 16.726 25.3919 16.0308 22.2582 18.308L21.5478 18.826C18.4142 21.1041 17.721 25.5083 19.9997 28.6404L24.9935 35.5059C26.8523 38.0633 30.1262 38.9934 32.9712 38.0148L33.3321 38.5088C31.522 40.9129 31.3995 44.314 33.2593 46.8699L39.8748 55.9628C42.1534 59.0936 46.5565 59.7887 49.6892 57.51L50.3985 56.9948C53.533 54.7145 54.2273 50.3085 51.9486 47.1796ZM30.481 30.6101C29.436 31.3688 29.2047 32.8365 29.9654 33.8806L31.4848 35.9678C29.7791 36.2661 27.9721 35.6206 26.8877 34.1304L21.8939 27.2621C20.373 25.1758 20.8368 22.2394 22.926 20.7185L23.637 20.2011C25.725 18.6837 28.6615 19.145 30.18 21.2354L35.1754 28.0992C36.3281 29.6851 36.3343 31.7561 35.3588 33.3296L33.7555 31.1255C32.9928 30.0769 31.5269 29.847 30.481 30.6101ZM49.0218 55.1003L48.3114 55.6163C46.2233 57.1348 43.2869 56.6733 41.7685 54.5861L35.1536 45.4921C34.0676 43.9981 34.0115 42.0823 34.8181 40.5509L36.3372 42.6384C37.0977 43.6854 38.5632 43.9186 39.6086 43.156C40.6542 42.3944 40.8858 40.9295 40.1238 39.8844L38.5211 37.6787C40.3172 37.2336 42.2856 37.8754 43.4403 39.4638L50.0541 48.5549C51.5743 50.6435 51.1109 53.5809 49.0218 55.1003Z" fill="#AEB1CF"/>
</svg>
