<svg width="73" height="100" viewBox="0 0 73 100" fill="none" xmlns="http://www.w3.org/2000/svg">
<path d="M33.3712 76.0781C30.0718 76.0781 28.1504 79.2168 28.1504 83.4118C28.1504 87.6401 30.1357 90.6197 33.4022 90.6197C36.7015 90.6197 38.5905 87.481 38.5905 83.2849C38.5914 79.4092 36.7347 76.0781 33.3712 76.0781Z" fill="#14988B"/>
<path d="M72.9213 23.9636C72.9157 23.505 72.7701 23.0522 72.4551 22.6942L53.174 0.670629C53.1701 0.664428 53.1643 0.662604 53.1586 0.65695C53.0437 0.528551 52.9117 0.422768 52.7698 0.329387C52.7279 0.302212 52.6855 0.277772 52.6416 0.252968C52.517 0.186397 52.3886 0.131317 52.2547 0.0910101C52.2183 0.0804317 52.186 0.0656586 52.1495 0.0561745C52.0021 0.0206095 51.8526 0 51.6996 0H4.31324C2.15143 0 0.391602 1.75983 0.391602 3.92164V96.0785C0.391602 98.2413 2.15143 100 4.31324 100H69.0188C71.1825 100 72.9407 98.2413 72.9407 96.0785V24.1833C72.9408 24.1096 72.929 24.0374 72.9213 23.9636ZM22.3183 94.1405H8.83456V72.5549H13.7347V90.042H22.3183V94.1405V94.1405ZM33.1476 94.4938C26.7415 94.4938 22.9947 89.6579 22.9947 83.5095C22.9947 77.0383 27.1259 72.2023 33.4994 72.2023C40.13 72.2023 43.749 77.1667 43.749 83.1247C43.749 90.2017 39.4579 94.4938 33.1476 94.4938ZM64.9883 93.1487C63.4813 93.6608 60.6322 94.3656 57.7808 94.3656C53.842 94.3656 50.9908 93.3729 49.0054 91.4513C47.0194 89.5931 45.9311 86.7744 45.9627 83.6036C45.9949 76.4295 51.2139 72.3291 58.2939 72.3291C61.08 72.3291 63.2257 72.8748 64.2825 73.3858L63.258 77.2944C62.074 76.7811 60.6005 76.3655 58.2299 76.3655C54.1618 76.3655 51.0875 78.6721 51.0875 83.347C51.0875 87.7986 53.8747 90.4259 57.8784 90.4259C58.9986 90.4259 59.8948 90.2975 60.2797 90.1062V85.5899H56.9497V81.7787H64.9881V93.1487H64.9883ZM4.31324 66.5853V3.92164H49.7386V23.986C49.7386 25.0684 50.6158 25.9468 51.6996 25.9468H69.019L69.021 66.5851H4.31324V66.5853Z" fill="#14988B"/>
<path d="M51.4533 16.666H48.6758V21.4053C48.6758 22.2623 47.9809 22.9572 47.1241 22.9572C46.2659 22.9572 45.572 22.2621 45.572 21.4053V16.666H40.6698V21.4053C40.6698 22.2623 39.9749 22.9572 39.1181 22.9572C38.2603 22.9572 37.566 22.2621 37.566 21.4053V16.666H31.519V21.4053C31.519 22.2623 30.824 22.9572 29.9669 22.9572C29.1092 22.9572 28.415 22.2621 28.415 21.4053V16.666H23.5131V21.4053C23.5131 22.2623 22.818 22.9572 21.961 22.9572C21.1032 22.9572 20.4091 22.2621 20.4091 21.4053V16.666H19.1023C17.478 16.666 16.1611 17.9825 16.1611 19.6073V57.8427C16.1611 59.4672 17.4781 60.7838 19.1023 60.7838H51.455C53.0798 60.7838 54.3963 59.4672 54.3963 57.8427V19.6073C54.3947 17.9827 53.0782 16.666 51.4533 16.666ZM51.9447 57.8436H17.9574V28.4318H51.9447V57.8436V57.8436Z" fill="#14988B"/>
<path d="M23.5122 16.1759C23.5122 15.3191 22.8171 14.624 21.9601 14.624C21.1024 14.624 20.4082 15.3191 20.4082 16.1759V16.6662H23.5131V16.1759H23.5122Z" fill="#14988B"/>
<path d="M31.5193 16.1759C31.5193 15.3191 30.8242 14.624 29.9672 14.624C29.1094 14.624 28.4153 15.3191 28.4153 16.1759V16.6662H31.5202V16.1759H31.5193Z" fill="#14988B"/>
<path d="M40.6692 16.1759C40.6692 15.3191 39.9741 14.624 39.1175 14.624C38.2593 14.624 37.5652 15.3191 37.5652 16.1759V16.6662H40.6699V16.1759H40.6692Z" fill="#14988B"/>
<path d="M48.6761 16.1759C48.6761 15.3191 47.9812 14.624 47.1244 14.624C46.2662 14.624 45.5723 15.3191 45.5723 16.1759V16.6662H48.677V16.1759H48.6761Z" fill="#14988B"/>
<path d="M21.9605 34.0684H47.1243C47.3951 34.0684 47.6146 33.8486 47.6146 33.5781C47.6146 33.3077 47.3953 33.0879 47.1243 33.0879H21.9605C21.69 33.0879 21.4702 33.3077 21.4702 33.5781C21.4702 33.8486 21.69 34.0684 21.9605 34.0684Z" fill="#14988B"/>
<path d="M21.9605 39.7881H47.1243C47.3951 39.7881 47.6146 39.5683 47.6146 39.2979C47.6146 39.0274 47.3953 38.8076 47.1243 38.8076H21.9605C21.69 38.8076 21.4702 39.0274 21.4702 39.2979C21.4702 39.5683 21.69 39.7881 21.9605 39.7881Z" fill="#14988B"/>
<path d="M21.9605 46.4873H47.1243C47.3951 46.4873 47.6146 46.2677 47.6146 45.9971C47.6146 45.7264 47.3953 45.5068 47.1243 45.5068H21.9605C21.69 45.5068 21.4702 45.7266 21.4702 45.9971C21.4702 46.2676 21.69 46.4873 21.9605 46.4873Z" fill="#14988B"/>
<path d="M21.9605 52.2071H47.1243C47.3951 52.2071 47.6146 51.9867 47.6146 51.7168C47.6146 51.4469 47.3953 51.2266 47.1243 51.2266H21.9605C21.69 51.2266 21.4702 51.4467 21.4702 51.7168C21.4702 51.9869 21.69 52.2071 21.9605 52.2071Z" fill="#14988B"/>
</svg>
