<svg width="73" height="100" viewBox="0 0 73 100" fill="none" xmlns="http://www.w3.org/2000/svg">
<path d="M72.5298 23.9636C72.5242 23.505 72.3786 23.0521 72.0636 22.694L52.7811 0.67066C52.7773 0.665031 52.7715 0.66249 52.765 0.656862C52.651 0.528503 52.5179 0.422657 52.3772 0.329339C52.3351 0.302105 52.2928 0.277596 52.2488 0.252723C52.1243 0.186274 51.9959 0.131082 51.861 0.0907769C51.8247 0.0802468 51.7931 0.0653594 51.7566 0.0559186C51.6103 0.0216049 51.4591 0 51.3067 0H3.92156C1.7598 0 0 1.7598 0 3.92174V96.0784C0 98.2413 1.75962 100 3.92156 100H68.6273C70.7911 100 72.5489 98.2413 72.5489 96.0784V24.1833C72.5489 24.1096 72.5375 24.0374 72.5298 23.9636ZM22.334 94.1224H8.19897V71.4919H13.3344V89.8245H22.334V94.1224V94.1224ZM42.7801 84.1836C42.7801 91.1669 39.2548 94.4909 33.3458 94.4909C27.6381 94.4909 24.2815 91.3353 24.2815 84.1164V71.4919H29.4166V84.5195C29.4166 88.4152 30.8948 90.3951 33.5148 90.3951C36.1989 90.3951 37.6753 88.5147 37.6753 84.5195V71.4919H42.7802V84.1836H42.7801ZM59.7043 94.1224L57.958 88.3137H51.4774L49.8659 94.1224H44.5582L51.4774 71.4921H58.1936L65.2085 94.1224H59.7043ZM3.92156 66.5852V3.92174H49.347V23.9862C49.347 25.0684 50.2239 25.9469 51.3078 25.9469H68.6273L68.6293 66.5852H3.92156Z" fill="#AEB1CF"/>
<path d="M54.6673 75.3203H54.6014C54.2644 76.6616 53.9284 78.3733 53.5587 79.6832L52.2163 84.4846H57.2188L55.8085 79.6832C55.4046 78.341 55.0035 76.6616 54.6673 75.3203Z" fill="#AEB1CF"/>
<path d="M49.1594 44.0435L51.2265 37.1369C51.2964 36.8988 51.3108 36.6587 51.2781 36.4264L51.8133 34.785C51.8956 34.5145 51.7846 34.2703 51.5855 34.0673C51.6122 34.0156 51.6487 33.9731 51.6677 33.9152C51.7981 33.5007 51.5644 33.0597 51.1488 32.929L50.4498 32.7097C50.0365 32.583 49.592 32.8121 49.4636 33.2273C49.4504 33.2685 49.456 33.3106 49.4504 33.3518C49.1928 33.391 48.9842 33.5007 48.9036 33.7567L48.4201 35.4615C48.2269 35.653 48.0726 35.8881 47.9892 36.1676L45.9203 43.0742C45.8141 43.4319 45.836 43.7957 45.9529 44.1231L43.1381 54.0025C42.9531 54.6123 42.5953 57.3209 43.206 57.5087C43.8168 57.6935 45.1612 55.2884 45.3478 54.6775L48.5139 44.9273C48.8128 44.7195 49.0464 44.4194 49.1594 44.0435Z" fill="#AEB1CF"/>
<path d="M12.7556 24.3535L37.6532 15.0772L45.8142 36.9813C45.9251 36.6979 46.0611 36.425 46.242 36.1761L46.6136 34.8754C46.6862 34.6399 46.7924 34.4273 46.917 34.2311L38.8269 12.5156L10.1941 23.1821L24.0824 60.4567L41.1372 54.1014L41.814 51.7222L25.2518 57.8937L12.7556 24.3535Z" fill="#AEB1CF"/>
<path d="M51.0109 45.2148L50.693 46.2777C50.5303 46.8185 50.2505 47.304 49.8734 47.711L49.8448 47.7953L50.1512 48.6159L49.5002 48.859L48.7131 51.2784L52.7151 49.7878L51.0109 45.2148Z" fill="#AEB1CF"/>
<path d="M35.3089 35.1221C35.4774 34.9326 35.7029 34.8202 35.9442 34.8033L36.1145 34.7928L36.3098 34.8539C36.4625 34.91 36.5889 34.8966 36.6982 34.8407C36.8146 34.7828 36.9068 34.676 36.9451 34.5553C37.0555 34.2063 37.3523 33.9669 37.7085 33.92L37.6646 33.2532C37.6588 33.1838 37.609 33.121 37.542 33.0981C36.8162 32.8697 36.2098 32.3494 35.8741 31.6702C35.5372 30.9885 35.4912 30.1866 35.7478 29.4729C35.7723 29.4082 35.7536 29.3307 35.7018 29.2857L34.0891 27.8759C33.9985 27.7975 33.942 27.8285 33.8937 27.8534C33.2274 28.2024 32.4231 28.267 31.7036 28.021C30.9842 27.7797 30.3881 27.2445 30.0626 26.5562C30.0339 26.4945 29.9664 26.4542 29.8936 26.4594L27.7603 26.6021C27.6899 26.6056 27.6281 26.6552 27.6053 26.7198C27.3778 27.4455 26.8565 28.0544 26.1772 28.3895C25.4994 28.728 24.6928 28.773 23.9789 28.5121C23.935 28.4981 23.8702 28.4747 23.7917 28.5627L22.3809 30.1746C22.3346 30.2287 22.3249 30.3071 22.3603 30.3688C22.7102 31.0424 22.7721 31.8403 22.5288 32.5598C22.2855 33.2784 21.7534 33.8757 21.0641 34.1989C20.9994 34.2285 20.9611 34.2951 20.964 34.3679L21.1073 36.505C21.1111 36.5749 21.1594 36.6346 21.226 36.6571C21.9519 36.8855 22.5582 37.4073 22.8977 38.0867C23.2329 38.7661 23.2774 39.5696 23.0183 40.2835C22.9958 40.3494 23.0145 40.4256 23.068 40.471L24.6808 41.8828C24.7694 41.9589 24.8277 41.9278 24.8741 41.9033C25.2175 41.7238 25.5918 41.619 25.9809 41.5921C26.3524 41.5687 26.7162 41.6143 27.0662 41.7357C27.7857 41.9785 28.3818 42.5108 28.7053 43.1992C28.736 43.2619 28.8035 43.3013 28.8743 43.2975L31.0094 43.1553C31.0822 43.1506 31.1419 43.1021 31.1626 43.0366C31.3919 42.3113 31.9113 41.7034 32.5929 41.3668C33.2574 41.0393 34.031 40.9896 34.728 41.2227C34.7318 41.1337 34.7485 41.0417 34.7801 40.9542C34.826 40.8278 34.8184 40.6885 34.7605 40.5725C34.7045 40.4611 34.5996 40.3701 34.4752 40.3318C34.1056 40.2103 33.8525 39.8866 33.828 39.5032L33.7616 38.4901C33.7351 38.1081 33.942 37.7539 34.2881 37.5872C34.4106 37.529 34.5043 37.4255 34.5446 37.3047C34.5849 37.1847 34.5733 37.0453 34.5163 36.9333C34.3396 36.5914 34.3917 36.1735 34.6408 35.8863L35.3089 35.1221ZM29.6617 39.0308C27.3716 39.1826 25.3845 37.4434 25.2323 35.1533C25.0777 32.8641 26.816 30.8741 29.108 30.7209C31.4001 30.5682 33.3876 32.3093 33.5404 34.5994C33.6933 36.8895 31.9538 38.8781 29.6617 39.0308Z" fill="#AEB1CF"/>
<path d="M42.197 37.6726C41.8543 37.5639 41.567 37.3169 41.4082 36.9952C41.2473 36.6721 41.2252 36.2933 41.3479 35.954C41.3603 35.9239 41.3497 35.8876 41.3258 35.8651L40.5638 35.1962C40.5198 35.1594 40.4912 35.1757 40.4699 35.1848C40.156 35.3503 39.7709 35.3816 39.4311 35.2661C39.0901 35.1503 38.8069 34.8976 38.6536 34.5711C38.6402 34.5413 38.6077 34.5217 38.5761 34.5236L37.5631 34.5925C37.5306 34.5954 37.4999 34.6171 37.4922 34.6481C37.3829 34.9914 37.136 35.2819 36.8145 35.4404C36.4931 35.6003 36.1117 35.6218 35.7742 35.4983C35.7517 35.4916 35.7206 35.4796 35.6841 35.5217L35.0135 36.2834C34.993 36.3091 34.9872 36.3485 35.002 36.3778C35.1705 36.6966 35.1969 37.0747 35.0845 37.4161C34.9676 37.7574 34.7168 38.0393 34.3913 38.1924C34.3608 38.2064 34.3392 38.2383 34.3412 38.2728L34.41 39.2843C34.4118 39.3178 34.4343 39.346 34.4674 39.3562C34.8107 39.4649 35.0997 39.7118 35.2568 40.0333C35.4176 40.3551 35.441 40.7352 35.3185 41.0746C35.3065 41.1061 35.3165 41.1401 35.339 41.1641L36.105 41.8333C36.1471 41.8698 36.1734 41.854 36.195 41.8434C36.3577 41.7592 36.5364 41.708 36.7215 41.6964C36.8958 41.6846 37.0685 41.7087 37.2323 41.7639C37.5725 41.8774 37.8579 42.1325 38.0091 42.458C38.0224 42.4881 38.0571 42.5059 38.0894 42.5039L39.1004 42.4364C39.1329 42.4346 39.1636 42.413 39.1731 42.3814C39.2824 42.0362 39.5273 41.7481 39.8508 41.5891C40.1725 41.4293 40.5536 41.4092 40.8926 41.5303C40.9134 41.5384 40.9441 41.548 40.9804 41.5088L41.6489 40.7443C41.6698 40.7198 41.6738 40.6826 41.6613 40.6519C41.4937 40.3335 41.4639 39.9538 41.5808 39.613C41.6949 39.2706 41.9467 38.9892 42.274 38.8365C42.3036 38.8207 42.3238 38.7902 42.3219 38.757L42.2559 37.745C42.2528 37.7118 42.2297 37.6828 42.197 37.6726ZM38.4632 40.4825C37.3795 40.5562 36.4374 39.7303 36.3637 38.6452C36.2933 37.5619 37.1148 36.618 38.2019 36.5442C39.2849 36.4749 40.2268 37.2982 40.3014 38.3834C40.3742 39.4685 39.5498 40.4113 38.4632 40.4825Z" fill="#AEB1CF"/>
</svg>
