<svg width="74" height="100" viewBox="0 0 74 100" fill="none" xmlns="http://www.w3.org/2000/svg">
<path d="M73.0785 23.9646C73.0729 23.5056 72.9274 23.0527 72.6124 22.6952L53.3312 0.670264C53.3274 0.664611 53.3215 0.662604 53.3159 0.65695C53.201 0.528551 53.0689 0.422221 52.927 0.329387C52.8851 0.301665 52.8428 0.277225 52.7988 0.252968C52.6742 0.186397 52.5458 0.131317 52.412 0.0910101C52.3755 0.0804317 52.3432 0.0656586 52.3067 0.0556274C52.1594 0.0215214 52.0098 0 51.8568 0H4.47047C2.30866 0 0.548828 1.75983 0.548828 3.92164V96.0785C0.548828 98.2413 2.30866 100 4.47047 100H69.1761C71.3397 100 73.0979 98.2413 73.0979 96.0785V24.1833C73.0981 24.1096 73.0862 24.0369 73.0785 23.9646ZM24.7967 93.5067L24.487 85.5084C24.3936 82.9963 24.3019 79.9583 24.3019 76.9203H24.2085C23.558 79.5869 22.6891 82.5624 21.8833 85.0114L19.3409 93.1657H15.6514L13.4192 85.074C12.7371 82.6247 12.0241 79.6471 11.5282 76.9203H11.4664C11.3425 79.7421 11.2495 82.9667 11.0945 85.5699L10.7221 93.5067H6.35159L7.68464 72.6124H13.9778L16.0242 79.5871C16.6751 82.0044 17.3257 84.6094 17.7915 87.0587H17.8849C18.4743 84.6403 19.1869 81.8808 19.8692 79.5572L22.1005 72.6124H28.2701L29.4173 93.5067H24.7967ZM38.1562 93.8478C35.552 93.8478 33.3507 93.1659 32.1724 92.4212L33.1332 88.8884C33.9703 89.3208 35.8919 90.1282 37.8153 90.1282C40.2635 90.1282 41.5032 88.9515 41.5032 87.4311C41.5032 85.4473 39.5195 84.5474 37.442 84.5474H35.5204V81.1695H37.3501C38.9315 81.1392 40.946 80.5492 40.946 78.8441C40.946 77.6367 39.9542 76.7366 37.9696 76.7366C36.3267 76.7366 34.5904 77.4499 33.754 77.946L32.7934 74.5347C34.002 73.7594 36.4196 73.0163 39.0247 73.0163C43.3339 73.0163 45.721 75.2797 45.721 78.0368C45.721 80.1777 44.5118 81.8514 42.0319 82.7187V82.7799C44.4503 83.2147 46.4035 85.0433 46.4035 87.6781C46.4031 91.2437 43.2716 93.8478 38.1562 93.8478ZM67.2949 84.33C67.2949 90.7781 64.0405 93.848 58.5831 93.848C53.3135 93.848 50.2126 90.9336 50.2126 84.2682V72.6125H54.9555V84.6414C54.9555 88.2374 56.3199 90.066 58.7384 90.066C61.2181 90.066 62.5814 88.3301 62.5814 84.6414V72.6125H67.2948V84.33H67.2949ZM4.47047 66.5853V3.92164H49.8958V23.986C49.8958 25.0684 50.7731 25.9468 51.8568 25.9468H69.1762L69.1783 66.5851H4.47047V66.5853Z" fill="#AEB1CF"/>
<path d="M35.1205 20.2188C24.9026 20.2188 16.5906 28.5311 16.5906 38.75C16.5906 48.9674 24.9033 57.279 35.1205 57.279C45.3403 57.279 53.6516 48.9664 53.6516 38.75C53.6526 28.532 45.3403 20.2188 35.1205 20.2188ZM47.1586 39.4547L30.1243 50.3312C30.0309 50.4042 29.9213 50.4425 29.8064 50.4425L29.5819 50.3905C29.4048 50.3084 29.2928 50.1255 29.2928 49.9311V28.1764C29.2928 27.9825 29.4048 27.7992 29.5819 27.7168C29.7604 27.6281 29.97 27.6508 30.1252 27.7733L47.1586 38.6471C47.2803 38.7491 47.3527 38.8979 47.3527 39.0511C47.3527 39.2048 47.2803 39.3557 47.1586 39.4547Z" fill="#AEB1CF"/>
</svg>
