<svg width="73" height="100" viewBox="0 0 73 100" fill="none" xmlns="http://www.w3.org/2000/svg">
<path d="M58.4442 76.5625H58.383C58.0728 77.8012 57.7625 79.3829 57.4217 80.5912L56.1819 85.024H60.8004L59.4983 80.5912C59.126 79.3523 58.7545 77.8012 58.4442 76.5625Z" fill="#AEB1CF"/>
<path d="M39.1945 81.1183L36.4976 85.5205V85.5828H41.0242V81.1183C41.0242 79.9101 41.0865 78.6694 41.1786 77.3682H41.054C40.403 78.6694 39.8772 79.8487 39.1945 81.1183Z" fill="#AEB1CF"/>
<path d="M72.6275 23.9646C72.6217 23.5056 72.4762 23.0526 72.1612 22.6951L52.8797 0.670115C52.8759 0.664487 52.8701 0.66249 52.8644 0.656862C52.7495 0.528503 52.6175 0.422294 52.4757 0.329339C52.4336 0.301561 52.3913 0.277233 52.3474 0.252723C52.2228 0.186274 52.0945 0.131082 51.9605 0.0907769C51.9242 0.0802468 51.8917 0.0653594 51.8552 0.0553739C51.7079 0.0216049 51.5585 0 51.4053 0H4.01922C1.85728 0 0.0976562 1.7598 0.0976562 3.92174V96.0784C0.0976562 98.2413 1.85728 100 4.01922 100H68.725C70.8887 100 72.6467 98.2413 72.6467 96.0784V24.1833C72.6465 24.1096 72.6351 24.037 72.6275 23.9646ZM25.1848 93.9221L24.875 85.9239C24.7821 83.4127 24.6897 80.3748 24.6897 77.3359H24.5962C23.9456 80.0031 23.0767 82.9788 22.2712 85.4279L19.7289 93.5812H16.0399L13.8073 85.4891C13.125 83.0402 12.4123 80.0645 11.9164 77.3359H11.8547C11.7313 80.1574 11.6378 83.382 11.4827 85.9862L11.1103 93.9221H6.7398L8.07295 73.0276H14.3665L16.4126 80.0024C17.0637 82.4198 17.7142 85.024 18.18 87.473H18.2734C18.8627 85.0556 19.5755 82.2972 20.2576 79.9708L22.4889 73.0276H28.6584L29.8053 93.9221H25.1848V93.9221ZM47.9071 89.1178H45.4886V93.9221H41.0242V89.1178H32.096V86.0485L39.7221 73.7726H45.4886V85.5843H47.9071V89.1178V89.1178ZM63.0945 93.9221L61.4832 88.5588H55.4993L54.0115 93.9221H49.1134L55.4993 73.0276H61.7005L68.1792 93.9221H63.0945ZM4.01922 66.5852V3.92174H49.4445V23.9862C49.4445 25.0684 50.3216 25.9469 51.4053 25.9469H68.725L68.727 66.5852H4.01922Z" fill="#AEB1CF"/>
<path d="M35.3231 18.7266C33.9192 18.7266 32.5486 18.8713 31.2249 19.1445C32.0143 20.0621 32.5543 21.0023 32.9134 21.8564C33.7033 21.7453 34.5036 21.6686 35.3231 21.6686C44.8787 21.6686 52.6517 29.4433 52.6517 38.9994C52.6517 48.5544 44.8776 56.3289 35.3231 56.3289C27.5777 56.3289 21.0054 51.2192 18.7914 44.1966C18.6053 44.2109 18.419 44.2305 18.2309 44.2305C17.2927 44.2305 16.4199 44.0471 15.6367 43.7465C17.7818 52.6361 25.7828 59.2699 35.3231 59.2699C46.5003 59.2699 55.5929 50.1764 55.5929 38.9992C55.5931 27.8202 46.5005 18.7266 35.3231 18.7266Z" fill="#AEB1CF"/>
<path d="M35.3231 44.4488C38.3289 44.4488 40.775 42.0036 40.775 38.9969C40.775 35.99 38.3288 33.5439 35.3231 33.5439C32.3168 33.5439 29.8711 35.9902 29.8711 38.9969C29.8711 42.0036 32.3168 44.4488 35.3231 44.4488ZM35.3231 36.486C36.7071 36.486 37.8339 37.6126 37.8339 38.9978C37.8339 40.3833 36.7071 41.5087 35.3231 41.5087C33.9388 41.5087 32.8123 40.3833 32.8123 38.9978C32.8123 37.6124 33.9388 36.486 35.3231 36.486Z" fill="#AEB1CF"/>
<path d="M25.2073 24.9542L27.8966 23.3625C26.9478 22.375 26.0751 21.7556 25.3494 21.3701C25.3044 21.3946 25.2614 21.4253 25.2164 21.4505L25.2073 24.9542Z" fill="#AEB1CF"/>
<path d="M18.9829 33.2379L18.9887 27.0449C17.4462 29.147 16.3041 31.5496 15.6621 34.1546C16.2084 33.8645 16.7867 33.6185 17.4103 33.4634C17.9337 33.333 18.4602 33.2584 18.9829 33.2379Z" fill="#AEB1CF"/>
<path d="M19.8193 41.2855C21.9524 40.757 23.4397 39.1461 23.4484 37.4985H23.4564L23.51 17.9434C23.51 17.9434 27.7661 17.716 31.9366 24.2493C31.9366 24.2493 31.9453 20.8778 28.7404 18.4081C22.4865 14.0365 22.5023 13.0078 22.5023 13.0078C21.3113 13.148 21.1897 14.0514 21.1897 14.0514V34.6445C20.2945 34.3338 19.2246 34.2796 18.1289 34.5483C15.7013 35.1525 14.1151 37.1572 14.5799 39.0217C14.8513 40.7403 17.3916 41.8983 19.8193 41.2855Z" fill="#AEB1CF"/>
</svg>
