<svg width="74" height="100" viewBox="0 0 74 100" fill="none" xmlns="http://www.w3.org/2000/svg">
<path d="M38.6839 79.9368L35.9917 84.3304V84.3926H40.5098V79.9368C40.5098 78.7303 40.571 77.4916 40.6649 76.1924H40.5403C39.8913 77.4925 39.3657 78.6673 38.6839 79.9368Z" fill="#AEB1CF"/>
<path d="M73.1768 23.9646C73.171 23.5056 73.0256 23.0526 72.7106 22.6951L53.429 0.670115C53.4252 0.664487 53.4194 0.66249 53.4138 0.656862C53.2988 0.528503 53.1668 0.422294 53.0251 0.329339C52.9829 0.301561 52.9406 0.277233 52.8967 0.252723C52.7721 0.186274 52.6438 0.131082 52.5098 0.0907769C52.4735 0.0802468 52.441 0.0653594 52.4045 0.0553739C52.2573 0.0216049 52.1078 0 51.9546 0H4.56853C2.40659 0 0.646973 1.7598 0.646973 3.92174V96.0784C0.646973 98.2413 2.40659 100 4.56853 100H69.2743C71.4381 100 73.196 98.2413 73.196 96.0784V24.1833C73.1959 24.1096 73.1844 24.037 73.1768 23.9646ZM24.701 92.7159L24.3922 84.733C24.2989 82.2264 24.2065 79.1934 24.2065 76.1604H24.1135C23.4634 78.8219 22.5979 81.7927 21.7927 84.237L19.2555 92.3758H15.5732L13.3458 84.3001C12.664 81.855 11.9538 78.8851 11.4583 76.1604H11.3966C11.2731 78.977 11.1802 82.1948 11.026 84.7943L10.6546 92.7159H6.29075L7.62118 71.8606H13.9028L15.9449 78.8239C16.595 81.2366 17.2452 83.8359 17.7085 86.2803H17.8018C18.3902 83.8677 19.1021 81.1121 19.7822 78.7914L22.0097 71.8606H28.1674L29.3125 92.7159H24.701V92.7159ZM47.3802 87.9203H44.9666V92.7179H40.5107V87.9203H31.5986V84.8566L39.2106 72.6037H44.9666V84.3933H47.3802V87.9203ZM60.5294 92.7159H55.0214L48.3375 71.8606H53.5047L56.0419 80.6794C56.7533 83.1553 57.4043 85.5383 57.8985 88.1376H57.9913C58.5171 85.63 59.1679 83.1553 59.8792 80.7722L62.5399 71.8597H67.5539L60.5294 92.7159ZM4.56853 66.5852V3.92174H49.9938V23.9862C49.9938 25.0684 50.8709 25.9469 51.9546 25.9469H69.2743L69.2763 66.5852H4.56853Z" fill="#AEB1CF"/>
<path d="M25.429 28.1748H22.9841V30.82H25.429V28.1748Z" fill="#AEB1CF"/>
<path d="M25.429 40.0684H22.9841V42.7141H25.429V40.0684Z" fill="#AEB1CF"/>
<path d="M25.429 34.1621H22.9841V36.8084H25.429V34.1621Z" fill="#AEB1CF"/>
<path d="M25.429 46.0566H22.9841V48.7033H25.429V46.0566Z" fill="#AEB1CF"/>
<path d="M54.1412 38.7855C54.1412 34.0333 52.3279 29.7087 49.3782 26.4268V51.1444C52.329 47.8608 54.1412 43.5353 54.1412 38.7855Z" fill="#AEB1CF"/>
<path d="M25.1987 54.1035C28.168 56.1275 31.7528 57.3148 35.6096 57.3148C39.4679 57.3148 43.0516 56.1277 46.0224 54.1035" fill="#AEB1CF"/>
<path d="M17.0803 38.7855C17.0803 43.5362 18.8926 47.8609 21.8428 51.1443V26.4248C18.8917 29.7087 17.0803 34.0334 17.0803 38.7855Z" fill="#AEB1CF"/>
<path d="M35.6096 20.2529C31.9115 20.2529 28.4711 21.3539 25.5764 23.2277H45.6434C42.7481 21.3539 39.3091 20.2529 35.6096 20.2529Z" fill="#AEB1CF"/>
<path d="M44.4418 25.6729H26.3154V37.6578H44.4418V25.6729Z" fill="#AEB1CF"/>
<path d="M44.4418 39.6738H26.3154V51.9038H44.4418V39.6738Z" fill="#AEB1CF"/>
<path d="M48.1286 28.1748H45.6814V30.82H48.1286V28.1748Z" fill="#AEB1CF"/>
<path d="M48.1286 40.0684H45.6814V42.7141H48.1286V40.0684Z" fill="#AEB1CF"/>
<path d="M48.1286 34.1621H45.6814V36.8084H48.1286V34.1621Z" fill="#AEB1CF"/>
<path d="M48.1286 46.0566H45.6814V48.7033H48.1286V46.0566Z" fill="#AEB1CF"/>
</svg>
