<svg width="73" height="100" viewBox="0 0 73 100" fill="none" xmlns="http://www.w3.org/2000/svg">
<path d="M23.6451 80.2402H23.6099C23.4328 80.9495 23.2561 81.8516 23.0607 82.5408L22.3533 85.0743H24.9915L24.2475 82.5408C24.0345 81.8323 23.8227 80.9493 23.6451 80.2402Z" fill="#AEB1CF"/>
<path d="M72.724 23.9636C72.7202 23.5059 72.5739 23.0522 72.2589 22.6942L52.9787 0.669717C52.973 0.663516 52.9673 0.661692 52.9633 0.655856C52.8484 0.527457 52.7144 0.422586 52.5727 0.328475C52.5305 0.302029 52.4882 0.276678 52.4443 0.251874C52.3217 0.185303 52.1913 0.131135 52.0574 0.0910101C52.021 0.0795198 51.9887 0.0645642 51.9522 0.0550802C51.8068 0.0206095 51.6553 0 51.5022 0H4.11793C1.95412 0 0.196289 1.75983 0.196289 3.92164V96.0785C0.196289 98.2405 1.95412 100 4.11793 100H68.8235C70.9853 100 72.7453 98.2405 72.7453 96.0785V24.1833C72.7455 24.1087 72.7337 24.0365 72.724 23.9636ZM4.11793 3.92164H49.5414V23.9869C49.5414 25.0694 50.4203 25.9477 51.5022 25.9477H68.8237V66.5858H4.11793V3.92164ZM14.525 90.1538L14.3473 85.587C14.2941 84.1546 14.2416 82.4179 14.2416 80.6832H14.1876C13.8161 82.2056 13.3202 83.906 12.86 85.3047L11.408 89.9604H9.30222L8.02735 85.3388C7.63832 83.9401 7.23033 82.2397 6.94745 80.6832H6.91188C6.84112 82.2955 6.7875 84.1358 6.69813 85.6215L6.48638 90.1538H3.99062L4.75135 78.2225H8.34452L9.51306 82.2056C9.88439 83.5859 10.2565 85.0742 10.5222 86.4745H10.5749C10.9125 85.092 11.3183 83.5171 11.7086 82.1881L12.9829 78.2238H16.5051L17.1606 90.1549H14.5254V90.1538H14.525ZM26.3012 90.1538L25.3807 87.0923H21.965L21.1147 90.1538H18.3168L21.965 78.2225H25.5051L29.2041 90.1538H26.3012ZM36.4652 88.101C37.279 88.101 38.1827 87.9248 38.7131 87.7104L39.1198 89.818C38.6248 90.0657 37.5086 90.3301 36.0572 90.3301C31.9325 90.3301 29.8081 87.7643 29.8081 84.3645C29.8081 80.2946 32.712 78.0274 36.3238 78.0274C37.7231 78.0274 38.784 78.3097 39.2624 78.5586L38.7129 80.7004C38.1633 80.4708 37.4032 80.2581 36.4462 80.2581C34.3039 80.2581 32.6398 81.5507 32.6398 84.2062C32.6416 86.5953 34.0571 88.101 36.4652 88.101ZM50.7364 90.1538H48.0461V85.1621H43.6015V90.1538H40.8942V78.2225H43.6015V82.8088H48.0461V78.2225H50.7364V90.1538V90.1538ZM57.0934 86.4008H52.4556V84.6142H57.0934V86.4008ZM64.0693 90.3493C60.5298 90.3493 58.4575 87.6762 58.4575 84.2764C58.4575 80.7022 60.7411 78.0281 64.2644 78.0281C67.9284 78.0281 69.9295 80.7713 69.9295 84.0647C69.9306 87.9766 67.5581 90.3493 64.0693 90.3493Z" fill="#AEB1CF"/>
<path d="M64.1934 80.1699C62.3708 80.1699 61.3079 81.9049 61.3079 84.2238C61.3079 86.5607 62.4062 88.2067 64.2118 88.2067C66.0358 88.2067 67.0792 86.4728 67.0792 84.1538C67.079 82.01 66.0528 80.1699 64.1934 80.1699Z" fill="#AEB1CF"/>
<path d="M13.7787 26.7344C14.1718 26.7344 14.4964 26.6439 14.7563 26.4648C15.0164 26.2863 15.2053 26.0246 15.3261 25.6811L14.3915 25.5226C14.3383 25.7008 14.2622 25.8305 14.163 25.9109C14.064 25.9908 13.9387 26.0309 13.7884 26.0309C13.5739 26.0309 13.3943 25.9549 13.2484 25.7977C13.1043 25.643 13.0277 25.4263 13.0229 25.1487H15.3876C15.3876 24.4291 15.2362 23.8939 14.9338 23.5432C14.6316 23.1923 14.2157 23.0176 13.6863 23.0176C13.2166 23.0176 12.8276 23.1843 12.5206 23.5197C12.2137 23.8547 12.0603 24.3176 12.0603 24.9054C12.0603 25.3982 12.177 25.8079 12.4101 26.1311C12.7049 26.5332 13.1623 26.7344 13.7787 26.7344ZM13.2363 23.9618C13.3709 23.813 13.5394 23.7373 13.7424 23.7373C13.9358 23.7373 14.0986 23.808 14.2327 23.9503C14.3673 24.0924 14.4377 24.3001 14.4437 24.5746H13.0359C13.0357 24.3154 13.1023 24.1106 13.2363 23.9618Z" fill="#AEB1CF"/>
<path d="M16.7944 26.6537L17.5235 25.5508L18.2474 26.6537H19.4021L18.0884 24.7852L19.2914 23.1016H18.1874L17.5235 24.0782L16.8974 23.1016H15.746L16.9758 24.8211L15.6953 26.6537H16.7944Z" fill="#AEB1CF"/>
<path d="M21.4092 26.7344C21.8012 26.7344 22.1265 26.6439 22.3852 26.4648C22.6441 26.2863 22.8333 26.0246 22.9558 25.6811L22.0209 25.5226C21.9677 25.7008 21.8913 25.8305 21.7922 25.9109C21.693 25.9908 21.5677 26.0309 21.4178 26.0309C21.2018 26.0309 21.0227 25.9549 20.8787 25.7977C20.7335 25.643 20.656 25.4263 20.6509 25.1487H23.0166C23.0166 24.4291 22.8668 23.8939 22.5637 23.5432C22.2606 23.1923 21.846 23.0176 21.3156 23.0176C20.8451 23.0176 20.4559 23.1843 20.15 23.5197C19.8431 23.8547 19.6882 24.3176 19.6882 24.9054C19.6882 25.3982 19.805 25.8079 20.0395 26.1311C20.3344 26.5332 20.7911 26.7344 21.4092 26.7344ZM20.8657 23.9618C21.0003 23.813 21.1688 23.7373 21.3709 23.7373C21.5637 23.7373 21.7277 23.808 21.8621 23.9503C21.9961 24.0924 22.066 24.3001 22.0727 24.5746H20.6649C20.6647 24.3154 20.7313 24.1106 20.8657 23.9618Z" fill="#AEB1CF"/>
<path d="M25.7581 25.8158C25.6441 25.9179 25.4962 25.9666 25.3168 25.9666C25.0793 25.9666 24.8892 25.8804 24.7481 25.708C24.6067 25.5353 24.5354 25.2375 24.5354 24.8118C24.5354 24.432 24.6038 24.1627 24.7442 24.0018C24.8825 23.8411 25.0678 23.7607 25.302 23.7607C25.4794 23.7607 25.6237 23.8079 25.7333 23.9009C25.8444 23.9952 25.9157 24.1346 25.9462 24.3188L26.8727 24.1499C26.7601 23.7689 26.5769 23.4855 26.3224 23.2983C26.0678 23.113 25.7255 23.0186 25.2914 23.0186C24.7619 23.0186 24.3414 23.1814 24.0315 23.5088C23.7216 23.8362 23.5657 24.2943 23.5657 24.8831C23.5657 25.464 23.7198 25.9157 24.0286 26.2431C24.3373 26.5705 24.7519 26.7352 25.2737 26.7352C25.7315 26.7352 26.0972 26.6265 26.3684 26.4096C26.6421 26.1928 26.8245 25.8736 26.9186 25.4488L25.9981 25.2936C25.952 25.5391 25.8716 25.714 25.7581 25.8158Z" fill="#AEB1CF"/>
<path d="M50.625 26.5681H45.0721V22.8571C45.0721 20.9256 43.5001 19.3555 41.571 19.3555H11.9955C10.063 19.3555 8.49316 20.9265 8.49316 22.8571V49.513C8.49316 51.4459 10.0637 53.0152 11.9955 53.0152H17.7835C17.704 53.0246 17.6274 53.0487 17.5484 53.0564V56.7251C17.5484 58.6572 19.1195 60.2272 21.05 60.2272H50.625C52.5572 60.2272 54.1262 58.6561 54.1262 56.7251V30.0697C54.1277 28.1388 52.5572 26.5681 50.625 26.5681ZM11.9955 51.8472C10.7073 51.8472 9.65879 50.8008 9.65879 49.513V22.8571C9.65879 21.5698 10.7062 20.5229 11.9955 20.5229H41.5701C42.8568 20.5229 43.9041 21.5698 43.9041 22.8571V49.513C43.9041 50.8008 42.8568 51.8472 41.5701 51.8472H11.9955ZM52.9612 56.7271C52.9612 58.014 51.9139 59.0612 50.625 59.0612H21.0502C19.7631 59.0612 18.7162 58.014 18.7162 56.7271V53.0161H41.5703C43.5003 53.0161 45.0723 51.4459 45.0723 49.5139V27.7355H50.6252C51.9132 27.7355 52.9613 28.7826 52.9613 30.0706V56.7271H52.9612Z" fill="#AEB1CF"/>
<path d="M24.4584 38.1912C23.9796 35.7823 26.2669 34.3688 26.2669 34.3688C26.2669 34.3688 25.3751 33.0806 23.8768 32.7478C22.3818 32.4166 21.6305 32.8326 20.8838 33.1432C20.1348 33.4538 19.7612 33.4538 19.7612 33.4538C18.6797 33.4538 17.8905 32.3104 15.834 32.8315C14.4152 33.1882 12.922 34.8244 12.6526 36.7785C12.384 38.7331 12.9652 41.2261 14.0878 43.1596C15.2104 45.0941 16.3534 45.8204 17.1635 45.841C17.975 45.8614 18.7849 45.2597 19.7614 45.1138C20.7379 44.9696 21.3387 45.4677 22.2966 45.738C23.2536 46.0066 23.5868 45.7567 24.6867 44.8213C25.7887 43.8855 26.7878 41.2046 26.7878 41.2046C26.7878 41.2046 24.9375 40.6036 24.4584 38.1912Z" fill="#AEB1CF"/>
<path d="M19.7197 32.4141C19.7197 32.4141 21.2775 32.2691 22.3373 31.1886C23.4001 30.1062 23.0381 28.4326 23.0381 28.4326C23.0381 28.4326 21.548 28.6945 20.5512 29.7327C19.5543 30.7732 19.7197 32.4141 19.7197 32.4141Z" fill="#AEB1CF"/>
</svg>
