<svg width="74" height="100" viewBox="0 0 74 100" fill="none" xmlns="http://www.w3.org/2000/svg">
<path d="M40.0046 75.8857H39.9433C39.6428 77.0853 39.344 78.6163 39.0137 79.7862L37.8142 84.0764H42.2842L41.0244 79.7862C40.6642 78.5867 40.3051 77.0854 40.0046 75.8857Z" fill="#AEB1CF"/>
<path d="M73.2749 23.9636C73.2691 23.505 73.1237 23.0521 72.8087 22.694L53.5272 0.67066C53.5233 0.665031 53.5175 0.66249 53.5119 0.656862C53.397 0.528503 53.265 0.422657 53.1232 0.329339C53.0811 0.302105 53.0388 0.277596 52.9948 0.252723C52.8703 0.186274 52.7419 0.131082 52.6079 0.0907769C52.5716 0.0802468 52.5391 0.0653594 52.5026 0.0559186C52.3554 0.0216049 52.206 0 52.0528 0H4.66668C2.50474 0 0.745117 1.7598 0.745117 3.92174V96.0784C0.745117 98.2413 2.50474 100 4.66668 100H69.3724C71.5362 100 73.2942 98.2413 73.2942 96.0784V24.1833C73.294 24.1096 73.2826 24.0374 73.2749 23.9636ZM24.555 92.687L24.2549 84.9474C24.1648 82.5164 24.0744 79.5763 24.0744 76.636H23.9844C23.354 79.2154 22.5138 82.0963 21.7344 84.4659L19.2734 92.3559H15.7057L13.5454 84.5262C12.8853 82.1554 12.1963 79.2756 11.7157 76.636H11.655C11.5354 79.3657 11.4454 82.487 11.2956 85.0058L10.9355 92.6863H6.70625L7.99547 72.4657H14.0855L16.0659 79.2155C16.6964 81.5565 17.3268 84.0763 17.7758 86.4459H17.8658C18.4364 84.1059 19.1267 81.4358 19.7865 79.1876L21.9464 72.4665H27.9168L29.027 92.687H24.555V92.687ZM44.5047 92.687L42.944 87.4969H37.1554L35.7146 92.687H30.9744L37.1554 72.4665H43.1535L49.4237 92.687H44.5047ZM62.054 92.687L60.2234 89.028C59.4727 87.6175 58.9932 86.5674 58.4235 85.3974H58.3641C57.9429 86.5674 57.4335 87.6177 56.8035 89.028L55.1232 92.687H49.9024L55.7523 82.4561L50.113 72.4665H55.3625L57.1328 76.1584C57.7332 77.3877 58.182 78.3777 58.6637 79.5169H58.7241C59.2038 78.2272 59.5934 77.3272 60.1038 76.1584L61.8136 72.4665H67.0335L61.3332 82.3355L67.3343 92.687H62.054ZM4.66668 66.5852V3.92174H50.092V23.9862C50.092 25.0684 50.9691 25.9469 52.0528 25.9469H69.3724L69.3744 66.5852H4.66668Z" fill="#AEB1CF"/>
<path d="M59.9822 35.4259C59.3992 30.9528 56.1641 27.6418 51.7714 27.1113C45.5423 26.3564 39.1699 26.3223 32.8884 26.6059C28.7656 26.7929 25.5843 29.2555 24.7724 33.6204C23.8207 38.7391 22.9619 43.988 26.894 48.3889C27.7246 49.3204 29.0587 49.9604 30.2832 50.352C37.8842 52.801 44.8255 51.6962 51.0659 46.2821C47.9217 42.1222 44.2538 39.7151 38.8513 40.4174C34.4601 40.9889 30.7079 39.47 27.4523 35.1396C30.7208 33.232 33.6511 30.8958 36.9906 29.6901C46.5748 26.2299 56.3939 31.1367 57.6884 40.0096C58.2111 43.5955 57.7774 47.382 57.3571 51.0279C56.9263 54.7656 54.5327 57.1993 50.8851 58.0973C42.4426 60.1757 33.9259 60.6948 25.3413 58.9303C21.5209 58.1432 18.5082 56.0446 17.8395 52.2389C16.7729 46.1772 15.5196 39.9366 15.9247 33.8793C16.5393 24.6928 19.3257 22.2137 28.6502 20.8929C35.6699 19.8995 42.8045 19.7461 49.8645 18.9968C51.092 18.8655 53.1006 18.9977 53.362 16.9011C53.6252 14.8029 53.2921 14.5812 52.2218 14.8312C42.728 16.2088 33.2115 17.4469 23.7493 19.0175C17.8503 19.9961 14.4993 23.8174 13.2858 29.6716C11.5888 37.8537 11.9846 45.85 14.9527 53.6955C16.6554 58.1933 19.7043 61.0218 24.5229 62.0183C33.5418 63.8863 42.4639 63.4085 51.3678 61.33C56.5742 60.1142 60.0036 56.7075 60.5159 51.6487C61.0584 46.3036 60.6811 40.7778 59.9822 35.4259ZM45.915 45.8528L41.0218 47.7799L40.6501 44.5185L45.915 45.8528Z" fill="#AEB1CF"/>
<path d="M40.2068 36.733L39.8354 33.4697L34.9421 35.398L40.2068 36.733Z" fill="#AEB1CF"/>
</svg>
