<svg width="74" height="100" viewBox="0 0 74 100" fill="none" xmlns="http://www.w3.org/2000/svg">
<path d="M40.1909 75.2188C39.1299 75.2188 38.4445 75.3126 38.0386 75.4054V89.1643C38.4445 89.2583 39.0996 89.2583 39.694 89.2583C43.9995 89.2899 46.8076 86.9174 46.8076 81.8947C46.8354 77.527 44.2791 75.2188 40.1909 75.2188Z" fill="#AEB1CF"/>
<path d="M73.3731 23.9636C73.3673 23.505 73.2218 23.0521 72.9069 22.694L53.6253 0.67066C53.6215 0.665031 53.6157 0.663034 53.61 0.656862C53.4951 0.528503 53.3631 0.422657 53.2213 0.329339C53.1792 0.302105 53.1369 0.277596 53.093 0.252723C52.9684 0.186274 52.8401 0.131626 52.7061 0.0913215C52.6698 0.0802468 52.6373 0.0653594 52.6008 0.0559186C52.4535 0.0216049 52.3041 0 52.1509 0H4.76482C2.60288 0 0.843262 1.7598 0.843262 3.92174V96.0784C0.843262 98.2413 2.60288 100 4.76482 100H69.4706C71.6343 100 73.3923 98.2413 73.3923 96.0784V24.1833C73.3921 24.1096 73.3807 24.0374 73.3731 23.9636ZM24.9629 92.7524L24.6511 84.7023C24.5567 82.1747 24.4636 79.1177 24.4636 76.0598H24.3697C23.7149 78.7415 22.8412 81.738 22.0313 84.2043L19.4707 92.4085H15.7579L13.5117 84.2649C12.8249 81.7996 12.1083 78.8058 11.609 76.06H11.5462C11.4217 78.8987 11.3274 82.1433 11.1728 84.7645L10.7969 92.7524H6.39899L7.7394 71.7228H14.0736L16.1344 78.7415C16.7893 81.1761 17.4442 83.7967 17.9128 86.262H18.0046C18.5978 83.8283 19.3164 81.0518 20.0017 78.7119L22.2477 71.7228H28.4556L29.6126 92.7524H24.9629V92.7524ZM48.3655 90.2553C46.152 92.0955 42.7798 92.9706 38.664 92.9706C36.199 92.9706 34.4509 92.8136 33.2657 92.6583V72.0042C35.0119 71.7228 37.2902 71.5667 39.6941 71.5667C43.6865 71.5667 46.2755 72.2847 48.3052 73.8138C50.489 75.4358 51.861 78.0255 51.861 81.7382C51.86 85.7633 50.3931 88.5398 48.3655 90.2553ZM67.8373 75.6242H59.7567V80.4274H67.3068V84.2965H59.7567V92.7524H54.985V71.7228H67.8373V75.6242ZM4.76482 66.5852V3.92174H50.1901V23.9862C50.1901 25.0689 51.0672 25.9469 52.1509 25.9469H69.4706L69.4726 66.5852H4.76482Z" fill="#AEB1CF"/>
<path d="M34.5021 13.7031C22.0079 13.7031 11.8765 23.8316 11.8765 36.324C11.8765 48.8196 22.0079 58.952 34.5021 58.952C47 58.952 57.1276 48.8196 57.1276 36.324C57.1276 23.8326 47 13.7031 34.5021 13.7031ZM41.315 16.4658L36.3993 26.4976C35.4452 26.1276 34.5012 26.3247 34.5012 26.3247L31.658 15.7914C31.6589 15.7914 35.4283 14.0982 41.315 16.4658ZM34.5001 45.2289C29.5843 45.2289 25.5981 41.2445 25.5981 36.3249C25.5981 31.4081 29.5843 27.4257 34.5001 27.4257C39.4193 27.4257 43.402 31.409 43.402 36.3249C43.4022 41.2438 39.4193 45.2289 34.5001 45.2289Z" fill="#AEB1CF"/>
<path d="M34.5022 28.4492C30.1589 28.4492 26.6284 31.9835 26.6284 36.3279C26.6284 40.6698 30.1598 44.203 34.5022 44.203C38.845 44.203 42.3778 40.6698 42.3778 36.3279C42.3778 31.9844 38.845 28.4492 34.5022 28.4492ZM34.5022 43.2945C30.6611 43.2945 27.5366 40.1691 27.5366 36.3288C27.5366 32.4839 30.662 29.3583 34.5022 29.3583C38.3452 29.3583 41.4703 32.4839 41.4703 36.3288C41.4703 40.17 38.3452 43.2945 34.5022 43.2945Z" fill="#AEB1CF"/>
<path d="M34.5018 32.5605C32.4261 32.5605 30.7373 34.2501 30.7373 36.3247C30.7373 38.3999 32.4261 40.0903 34.5018 40.0903C36.5793 40.0903 38.2682 38.3999 38.2682 36.3247C38.2682 34.2488 36.5795 32.5605 34.5018 32.5605ZM34.5018 39.182C32.9263 39.182 31.6449 37.901 31.6449 36.3245C31.6449 34.7501 32.9265 33.4696 34.5018 33.4696C36.0772 33.4696 37.3606 34.7501 37.3606 36.3245C37.3606 37.901 36.0772 39.182 34.5018 39.182Z" fill="#AEB1CF"/>
</svg>
