<svg width="73" height="100" viewBox="0 0 73 100" fill="none" xmlns="http://www.w3.org/2000/svg">
<path d="M52.0724 75.9404C51.0185 75.9404 50.3364 76.0342 49.9333 76.1261V89.7968C50.3364 89.8898 50.9875 89.8898 51.5765 89.8898C55.8552 89.9204 58.6441 87.5651 58.6441 82.5734C58.6758 78.2343 56.1326 75.9404 52.0724 75.9404Z" fill="#AEB1CF"/>
<path d="M72.9218 23.9636C72.9162 23.505 72.7706 23.0522 72.4556 22.6942L53.1745 0.670629C53.1706 0.664428 53.1648 0.662604 53.1591 0.65695C53.0442 0.528551 52.9122 0.422768 52.7703 0.329387C52.7283 0.302212 52.686 0.277772 52.6421 0.252968C52.5175 0.186397 52.3891 0.131317 52.2552 0.0910101C52.2188 0.0804317 52.1865 0.0656586 52.15 0.0561745C52.0026 0.0206095 51.8531 0 51.7001 0H4.31373C2.15192 0 0.39209 1.75983 0.39209 3.92164V96.0785C0.39209 98.2413 2.15192 100 4.31373 100H69.0193C71.183 100 72.9411 98.2413 72.9411 96.0785V24.1833C72.9413 24.1096 72.9295 24.0374 72.9218 23.9636ZM28.1115 93.3632L27.802 85.3649C27.7084 82.8527 27.6167 79.8147 27.6167 76.7767H27.5233C26.8722 79.4434 26.0038 82.4179 25.1977 84.867L22.6556 93.0212H18.9663L16.7341 84.9292C16.052 82.4812 15.3391 79.5036 14.8432 76.7767H14.781C14.6575 79.5973 14.5647 82.8219 14.4095 85.4251L14.037 93.363H9.66654L10.9996 72.4675H17.2928L19.3391 79.4434C19.9901 81.8607 20.6406 84.4657 21.1065 86.9141H21.1997C21.7891 84.4956 22.5013 81.7372 23.184 79.4126L25.4153 72.4675H31.585L32.732 93.363H28.1115V93.3632ZM41.0995 93.3632H36.3558V72.4675H41.0995V93.3632ZM60.1952 90.8824C57.9942 92.7119 54.6459 93.5806 50.5539 93.5806C48.1051 93.5806 46.3693 93.4245 45.1895 93.2704V72.7462C46.9261 72.4677 49.1897 72.3125 51.5773 72.3125C55.5449 72.3125 58.1182 73.0256 60.1346 74.5451C62.3043 76.1565 63.6674 78.7301 63.6674 82.4179C63.6665 86.4183 62.2105 89.1773 60.1952 90.8824ZM4.31373 66.5853V3.92164H49.7391V23.986C49.7391 25.0684 50.6163 25.9468 51.7001 25.9468H69.0195L69.0215 66.5851H4.31373V66.5853Z" fill="#AEB1CF"/>
<path d="M27.5118 41.2195H27.5195L27.5822 18.5197C27.5822 18.5197 32.5234 18.2558 37.3633 25.8401C37.3633 25.8401 37.375 21.9258 33.6536 19.0587C26.3951 13.9844 26.4137 12.791 26.4137 12.791C25.0303 12.9539 24.8889 14.0022 24.8889 14.0022V37.908C23.8497 37.547 22.6089 37.4834 21.3361 37.796C18.5186 38.4991 16.6774 40.8256 17.2158 42.9896C17.5312 44.9852 20.4792 46.3276 23.2978 45.619C25.7746 45.0036 27.5009 43.1342 27.5118 41.2195Z" fill="#AEB1CF"/>
<path d="M30.7758 30.5993V52.7977C29.809 52.459 28.6561 52.4003 27.4785 52.6935C24.859 53.3485 23.1452 55.5065 23.6475 57.5152C23.9404 59.3734 26.6803 60.6191 29.2941 59.9621C31.5962 59.3918 33.198 57.6491 33.2099 55.8721H33.2137L33.2756 37.1197L46.8018 34.6464V49.7218C45.8195 49.3747 44.642 49.3139 43.447 49.6092C40.8006 50.2724 39.0699 52.4482 39.5771 54.4829C40.0845 56.5107 42.6368 57.6176 45.2832 56.9626C47.694 56.3538 49.2375 54.6985 49.2375 52.6293V27.6045L30.7758 30.5993Z" fill="#AEB1CF"/>
</svg>
