<svg width="73" height="100" viewBox="0 0 73 100" fill="none" xmlns="http://www.w3.org/2000/svg">
<path d="M72.5297 23.9646C72.5241 23.5061 72.3785 23.0533 72.0635 22.6952L52.7824 0.670629C52.7785 0.664975 52.7727 0.662969 52.767 0.65695C52.6521 0.528551 52.5201 0.422768 52.3782 0.329387C52.3363 0.302212 52.2939 0.277772 52.25 0.252968C52.1254 0.186397 51.997 0.131682 51.8631 0.0915572C51.8267 0.0806141 51.7944 0.0656586 51.7579 0.0561745C51.6105 0.0215214 51.461 0 51.308 0H3.92164C1.75983 0 0 1.75983 0 3.92164V96.0785C0 98.2413 1.75983 100 3.92164 100H68.6272C70.7909 100 72.5491 98.2413 72.5491 96.0785V24.1833C72.5492 24.1102 72.5374 24.0374 72.5297 23.9646ZM24.6821 92.7445L24.3489 84.1777C24.2488 81.4876 24.1498 78.2331 24.1498 74.977H24.0496C23.3526 77.834 22.4224 81.0221 21.559 83.6454L18.836 92.3789H14.8842L12.4943 83.7123C11.7627 81.0881 10.9993 77.8999 10.4689 74.9768H10.4018C10.2697 78.0004 10.1687 81.4529 10.004 84.2427L9.60585 92.7444H4.92166L6.35009 70.3621H13.0921L15.2822 77.8338C15.9813 80.4246 16.6787 83.2133 17.1765 85.8378H17.2764C17.9089 83.2461 18.6706 80.2906 19.4019 77.8012L21.793 70.3623H28.4012L29.6304 92.7445H24.6821ZM38.601 92.7445H33.5187V70.3623H38.601V92.7445ZM62.247 92.7445L61.916 84.1777C61.8155 81.4876 61.7169 78.2331 61.7169 74.977H61.6171C60.9184 77.834 59.9897 81.0221 59.1261 83.6454L56.4042 92.3789H52.4508L50.0594 83.7123C49.328 81.0881 48.5667 77.8999 48.0343 74.9768H47.9672C47.835 78.0004 47.7365 81.4529 47.5698 84.2427L47.1715 92.7444H42.4898L43.9165 70.3621H50.6583L52.8508 77.8338C53.5478 80.4246 54.2451 83.2133 54.7448 85.8378H54.8442C55.4751 83.2461 56.2384 80.2906 56.9696 77.8012L59.3603 70.3623H65.9702L67.1975 92.7445H62.247ZM3.92164 66.5853V3.92164H49.347V23.986C49.347 25.0684 50.2242 25.9468 51.308 25.9468H68.6274L68.6294 66.5851H3.92164V66.5853Z" fill="#AEB1CF"/>
<path d="M50.1991 28.4786C50.1973 28.2789 50.1344 28.0797 49.9965 27.9238L41.5616 18.2911C41.5616 18.2893 41.5577 18.2882 41.5559 18.2855C41.5052 18.2299 41.4485 18.1835 41.3845 18.1423C41.3664 18.1299 41.3482 18.1199 41.3281 18.1093C41.2745 18.0796 41.2178 18.0551 41.1594 18.0374C41.1423 18.0325 41.1297 18.0269 41.1134 18.0225C41.0494 18.0072 40.9832 17.998 40.9163 17.998H20.1945C19.2481 17.998 18.4788 18.7677 18.4788 19.7126V60.0184C18.4788 60.9625 19.2481 61.7321 20.1945 61.7321H48.4913C49.4389 61.7321 50.2068 60.9623 50.2068 60.0184V28.5747C50.2068 28.5423 50.203 28.5113 50.1991 28.4786ZM20.1945 59.8751V19.713H40.0604V28.4888C40.0604 28.9612 40.4441 29.3457 40.9181 29.3457H48.492L48.494 59.8751H20.1945Z" fill="#AEB1CF"/>
<path d="M46.0248 33.8312C46.023 33.8107 46.0173 33.7925 46.0113 33.7713C46.0046 33.7489 45.9989 33.7245 45.9903 33.702C45.9829 33.6814 45.9752 33.6608 45.9635 33.6413C45.9579 33.6254 45.9522 33.6121 45.9446 33.5963C45.9407 33.5906 45.9371 33.5862 45.9333 33.5815C45.9189 33.5569 45.9026 33.5353 45.8844 33.5149C45.8765 33.502 45.8689 33.4923 45.8603 33.4823C45.7396 33.3444 45.5694 33.2568 45.3795 33.2568H23.305C23.116 33.2568 22.9449 33.3453 22.8244 33.4823C22.8147 33.4925 22.8091 33.5029 22.7998 33.5149C22.7822 33.5353 22.7658 33.5569 22.752 33.5815C22.7481 33.5862 22.7443 33.5904 22.7401 33.5963C22.7323 33.6121 22.7286 33.6254 22.7204 33.6413C22.7108 33.6608 22.7007 33.6805 22.6942 33.702C22.6845 33.7247 22.6783 33.7489 22.6735 33.7713C22.6679 33.7925 22.6639 33.8106 22.6597 33.8312C22.6559 33.858 22.652 33.8853 22.652 33.9116C22.6502 33.9273 22.6482 33.9404 22.6482 33.9537V48.5155C22.6482 48.8998 22.9431 49.2115 23.305 49.2115H45.3794C45.7432 49.2115 46.0381 48.8998 46.0381 48.5155V33.9537C46.0381 33.9404 46.0343 33.9273 46.0343 33.9116C46.0305 33.8853 46.0305 33.8591 46.0248 33.8312ZM42.9974 34.6523L34.3418 40.1326L25.6891 34.6523H42.9974ZM44.721 47.8177H23.9636V35.1837L34.0049 41.5415C34.1071 41.607 34.2238 41.6425 34.342 41.6425C34.4607 41.6425 34.5776 41.6081 34.6794 41.5415L44.721 35.1837V47.8177V47.8177Z" fill="#AEB1CF"/>
</svg>
