<svg width="74" height="100" viewBox="0 0 74 100" fill="none" xmlns="http://www.w3.org/2000/svg">
<path d="M40.3449 74.7188C37.3195 74.7188 35.5559 77.5986 35.5559 81.4457C35.5559 85.324 37.3769 88.0555 40.3736 88.0555C43.401 88.0555 45.134 85.1766 45.134 81.3288C45.134 77.7748 43.4297 74.7188 40.3449 74.7188Z" fill="#8AC44B"/>
<path d="M73.0789 23.9626C73.0731 23.5041 72.9257 23.0521 72.6107 22.6931L53.3311 0.668844C53.3255 0.663579 53.3199 0.660674 53.3159 0.655954C53.2009 0.526687 53.0669 0.421931 52.9253 0.328612C52.8832 0.301379 52.8411 0.275962 52.797 0.251997C52.6744 0.184459 52.5461 0.130537 52.4103 0.0902322C52.3738 0.0797021 52.3413 0.0639069 52.305 0.0561001C52.1594 0.0206971 52.0081 0 51.8549 0H4.47063C2.30869 0 0.549072 1.75889 0.549072 3.92174V96.0784C0.549072 98.2402 2.30869 100 4.47063 100H69.1764C71.3383 100 73.0981 98.2404 73.0981 96.0784V24.1824C73.098 24.1087 73.0865 24.0364 73.0789 23.9626ZM23.9196 91.2874L23.6246 83.7075C23.5361 81.3285 23.4479 78.4485 23.4479 75.5696H23.3599C22.7433 78.0961 21.9194 80.9187 21.1578 83.2393L18.7489 90.9657H15.2529L13.1371 83.296C12.4904 80.9752 11.8139 78.1556 11.3453 75.5696H11.2854C11.1685 78.2437 11.0806 81.2998 10.9332 83.766L10.5814 91.2876H6.43922L7.70302 71.4872H13.6658L15.6061 78.0961C16.2226 80.3882 16.8397 82.8564 17.2796 85.1772H17.3677C17.9269 82.8851 18.6031 80.2705 19.2486 78.0674L21.3638 71.4872H27.2099L28.2976 91.2876H23.9196V91.2874ZM40.14 91.6111C34.264 91.6111 30.8262 87.1743 30.8262 81.5352C30.8262 75.5993 34.6156 71.1636 40.4617 71.1636C46.543 71.1636 49.8634 75.7181 49.8634 81.181C49.8636 87.6741 45.9266 91.6111 40.14 91.6111ZM62.4994 91.2874H57.2701L50.9233 71.487H55.83L58.238 79.8595C58.9141 82.209 59.5304 84.4722 60.0027 86.9407H60.0905C60.5904 84.5605 61.2069 82.209 61.8828 79.9468L64.4084 71.487H69.1679L62.4994 91.2874ZM4.47063 66.5843V3.92174H49.8939V23.9852C49.8939 25.0677 50.773 25.946 51.8549 25.946H69.1764V66.5845H4.47063V66.5843Z" fill="#8AC44B"/>
<path d="M36.8236 19.8828C26.4087 19.8828 17.9648 28.3258 17.9648 38.7404C17.9648 49.1553 26.4087 57.5992 36.8236 57.5992C47.2382 57.5992 55.6826 49.1562 55.6826 38.7404C55.6826 28.3249 47.2384 19.8828 36.8236 19.8828ZM25.2087 42.9541C22.6021 42.7855 20.6237 40.5333 20.792 37.9285C20.9607 35.3196 23.211 33.3419 25.8203 33.511C28.4254 33.6785 30.4049 35.9314 30.2321 38.5404C30.0676 41.1449 27.8167 43.1226 25.2087 42.9541ZM35.4999 54.7057C32.8942 54.5391 30.9158 52.2883 31.0834 49.6792C31.2529 47.0745 33.5051 45.0961 36.1106 45.2664C38.7134 45.435 40.699 47.6843 40.5267 50.2929C40.3582 52.8982 38.1102 54.8753 35.4999 54.7057ZM34.1845 38.8697C34.1845 37.457 35.3296 36.3063 36.7451 36.3063C38.1582 36.3063 39.309 37.457 39.309 38.8697C39.309 40.2815 38.1582 41.4312 36.7451 41.4312C35.3296 41.4312 34.1845 40.2815 34.1845 38.8697ZM36.8446 32.2167C34.2382 32.0491 32.2602 29.7982 32.4229 27.1893C32.5943 24.5829 34.8434 22.6052 37.4536 22.7766C40.0605 22.9431 42.0376 25.1922 41.8691 27.8C41.7006 30.408 39.4486 32.3837 36.8446 32.2167ZM46.9012 44.3534C44.2952 44.1843 42.3172 41.9354 42.4819 39.3278C42.6542 36.7188 44.9002 34.7432 47.512 34.9136C50.118 35.0789 52.096 37.3287 51.9285 39.9391C51.7573 42.5453 49.5074 44.5227 46.9012 44.3534Z" fill="#8AC44B"/>
</svg>
