<svg width="73" height="100" viewBox="0 0 73 100" fill="none" xmlns="http://www.w3.org/2000/svg">
<path d="M41.0696 75.2041C40.074 75.2041 39.398 75.3007 39.0457 75.3947V81.7919C39.4632 81.8876 39.9783 81.9223 40.6847 81.9223C43.2889 81.9223 44.8973 80.603 44.8973 78.3847C44.8973 76.3931 43.5149 75.2041 41.0696 75.2041Z" fill="#8AC44B"/>
<path d="M72.626 23.9636C72.6222 23.5059 72.4756 23.0521 72.1608 22.694L52.8802 0.669752C52.8746 0.663397 52.8689 0.661582 52.8649 0.655772C52.75 0.527595 52.616 0.422657 52.4744 0.328431C52.4323 0.302105 52.3902 0.276688 52.346 0.251815C52.2235 0.185185 52.0933 0.131082 51.9593 0.0909584C51.9229 0.0795205 51.8903 0.0646331 51.854 0.0551923C51.7084 0.0206971 51.5572 0 51.404 0H4.01971C1.85595 0 0.0981445 1.7598 0.0981445 3.92174V96.0784C0.0981445 98.2402 1.85595 100 4.01971 100H68.7255C70.8874 100 72.6472 98.2404 72.6472 96.0784V24.1833C72.647 24.1087 72.6356 24.0364 72.626 23.9636ZM25.6362 93.3344L25.3149 85.0412C25.2168 82.437 25.1215 79.2853 25.1215 76.1353H25.0253C24.3497 78.9002 23.4498 81.987 22.6126 84.5282L19.9772 92.982H16.1519L13.8372 84.5892C13.1301 82.0501 12.3892 78.9654 11.8764 76.1353H11.8118C11.6831 79.0612 11.5872 82.4044 11.4264 85.1042L11.0391 93.3342H6.50699L7.88898 71.668H14.4146L16.5364 78.9002C17.2118 81.4085 17.8864 84.1086 18.3688 86.6467H18.4665C19.0772 84.1373 19.8165 81.2794 20.5235 78.8677L22.8381 71.666H29.2355L30.4247 93.3332H25.6362V93.3344ZM47.758 83.4002C46.0864 84.9771 43.6106 85.6847 40.7173 85.6847C40.0739 85.6847 39.4957 85.652 39.0456 85.5879V93.3333H34.1892V71.9574C35.7019 71.6978 37.8241 71.5055 40.813 71.5055C43.8346 71.5055 45.9888 72.0856 47.4363 73.2431C48.8188 74.3336 49.7513 76.1346 49.7513 78.258C49.7515 80.3788 49.0429 82.1805 47.758 83.4002ZM58.1767 93.6886C55.4748 93.6886 53.1925 92.9811 51.9706 92.2102L52.9682 88.5452C53.8357 88.9953 55.829 89.8301 57.8223 89.8301C60.3613 89.8301 61.6481 88.6084 61.6481 87.0345C61.6481 84.977 59.5897 84.0434 57.4355 84.0434H55.4423V80.5392H57.3399C58.9788 80.5086 61.0699 79.8978 61.0699 78.1286C61.0699 76.8744 60.0398 75.9429 57.9842 75.9429C56.2809 75.9429 54.4809 76.682 53.6108 77.197L52.614 73.6584C53.8682 72.8572 56.3747 72.0854 59.0777 72.0854C63.5448 72.0854 66.0207 74.433 66.0207 77.2938C66.0207 79.5113 64.7665 81.2479 62.195 82.1478V82.2128C64.7042 82.6629 66.7293 84.5585 66.7293 87.291C66.7284 90.9888 63.4807 93.6886 58.1767 93.6886ZM4.01971 66.5852V3.92174H49.443V23.9872C49.443 25.0697 50.3221 25.948 51.404 25.948H68.7255V66.5865H4.01971V66.5852Z" fill="#8AC44B"/>
<path d="M50.28 42.6045C45.0229 39.3857 45.0411 38.625 45.0411 38.625C44.0378 38.7279 43.9343 39.3968 43.9343 39.3968V54.5683C43.18 54.3367 42.2836 54.2944 41.3608 54.4973C39.3196 54.9398 37.9848 56.418 38.3755 57.7909C38.6036 59.0605 40.7423 59.9144 42.7816 59.4607C44.5739 59.0701 45.8225 57.883 45.8321 56.6678H45.8359L45.8819 42.6014C45.8819 42.6014 49.4626 42.0916 52.9666 46.9064C52.9664 46.9062 52.9761 44.4213 50.28 42.6045Z" fill="#8AC44B"/>
<path d="M30.5649 39.8291C30.5649 41.6074 32.0132 43.0555 33.7913 43.0555C35.5698 43.0555 37.0159 41.6072 37.0159 39.8291C37.0159 38.0506 35.5698 36.6045 33.7913 36.6045C32.0132 36.6045 30.5649 38.0506 30.5649 39.8291Z" fill="#8AC44B"/>
<path d="M27.6196 39.8298C27.6196 43.2328 30.3885 46.0011 33.7915 46.0011C37.1922 46.0011 39.9611 43.2328 39.9611 39.8298C39.9611 36.4271 37.1922 33.6582 33.7915 33.6582C30.3883 33.6593 27.6196 36.428 27.6196 39.8298ZM38.4388 39.8298C38.4388 42.3917 36.3549 44.477 33.7914 44.477C31.2295 44.477 29.1423 42.3918 29.1423 39.8298C29.1423 37.2682 31.2295 35.1823 33.7914 35.1823C36.3551 35.1823 38.4388 37.268 38.4388 39.8298Z" fill="#8AC44B"/>
<path d="M41.1386 53.2731C41.6345 53.1649 42.096 53.1047 42.6417 53.1123L42.6437 51.2866C40.1907 53.186 37.1252 54.3292 33.7913 54.3292C25.7952 54.3292 19.2923 47.8245 19.2923 39.8302C19.2923 31.8364 25.795 25.3311 33.7913 25.3311C41.759 25.3311 48.2406 31.7941 48.2846 39.7516C48.6867 40.0351 49.1827 40.3663 49.7648 40.7401C49.782 40.4371 49.8107 40.137 49.8107 39.83C49.8107 30.997 42.6245 23.8086 33.7913 23.8086C24.954 23.8086 17.7676 30.9969 17.7676 39.83C17.7676 48.6631 24.954 55.8514 33.7913 55.8514C35.1548 55.8514 36.4702 55.6618 37.734 55.3409C38.4694 54.334 39.6835 53.5881 41.1386 53.2731Z" fill="#8AC44B"/>
<path d="M47.3004 45.0521L47.2881 48.4256C47.9774 47.3432 48.5423 46.1776 48.9596 44.9401C48.4493 44.6266 47.9831 44.4198 47.58 44.2891C47.4958 44.5481 47.3961 44.7989 47.3004 45.0521Z" fill="#8AC44B"/>
</svg>
