<svg width="74" height="100" viewBox="0 0 74 100" fill="none" xmlns="http://www.w3.org/2000/svg">
<path d="M59.9173 79.7489L57.0278 84.4651V84.5301H61.874V79.7489C61.874 78.4544 61.941 77.1265 62.0407 75.7314H61.9085C61.2117 77.1263 60.6467 78.3874 59.9173 79.7489Z" fill="#478ECC"/>
<path d="M73.1773 23.9636C73.1715 23.505 73.0241 23.0521 72.7111 22.694L53.4295 0.67066C53.4257 0.664487 53.4199 0.66249 53.4142 0.656862C53.2993 0.528503 53.1673 0.422657 53.0255 0.329339C52.9834 0.302105 52.9411 0.277596 52.8972 0.252723C52.7726 0.186274 52.6443 0.131082 52.5103 0.0907769C52.474 0.0802468 52.4415 0.0653594 52.4032 0.0559186C52.2577 0.0206971 52.1065 0 51.9551 0H4.56902C2.40708 0 0.647461 1.7598 0.647461 3.92174V96.0784C0.647461 98.2413 2.40708 100 4.56902 100H69.2748C71.4367 100 73.1965 98.2413 73.1965 96.0784V24.1833C73.1963 24.1096 73.1849 24.0374 73.1773 23.9636ZM25.6129 93.4608L25.2816 84.8936C25.1796 82.2072 25.0824 78.9512 25.0824 75.6978H24.9824C24.2854 78.5538 23.3553 81.742 22.4911 84.3653L19.7687 93.097H15.819L13.4288 84.4305C12.6974 81.8072 11.9357 78.619 11.4034 75.6978H11.3364C11.2043 78.7184 11.1051 82.1729 10.9387 84.9608L10.5423 93.4608H5.85914L7.28761 71.0841H14.0278L16.2179 78.554C16.9149 81.1447 17.6124 83.9327 18.1122 86.5559H18.2122C18.8408 83.965 19.6062 81.0106 20.3357 78.5213L22.7268 71.0841H29.3324L30.5621 93.4608H25.6129ZM48.4587 83.201C46.7334 84.8286 44.1772 85.5581 41.1881 85.5581C40.5236 85.5581 39.9263 85.5254 39.4627 85.4595V93.4595H34.4484V71.3808C36.0091 71.1155 38.199 70.9145 41.2886 70.9145C44.4106 70.9145 46.6319 71.5129 48.1294 72.7088C49.5559 73.8356 50.519 75.6959 50.519 77.8873C50.5172 80.0819 49.7857 81.9401 48.4587 83.201ZM69.2459 88.3156H66.6551V93.4608H61.8737V88.3156H52.3131V85.0278L60.4798 71.8808H66.6551V84.5291H69.2459V88.3156V88.3156ZM4.56902 66.5852V3.92174H49.9943V23.9862C49.9943 25.0684 50.8714 25.9469 51.9551 25.9469H69.2748L69.2768 66.5852H4.56902Z" fill="#478ECC"/>
<path d="M41.552 74.7363C40.5237 74.7363 39.8267 74.836 39.4629 74.9337V81.5417C39.8917 81.6412 40.4242 81.6757 41.1555 81.6757C43.8441 81.6757 45.5052 80.3131 45.5052 78.0212C45.5043 75.9656 44.0758 74.7363 41.552 74.7363Z" fill="#478ECC"/>
<path d="M21.2031 50.1593H48.7824V29.9473H21.2031V50.1593ZM31.1199 34.0259C31.1199 33.9191 31.1826 33.8173 31.2788 33.7713C31.3788 33.7221 31.4952 33.735 31.5818 33.8024L41.0213 39.8278C41.0883 39.8848 41.1266 39.9663 41.1266 40.0513C41.1266 40.1375 41.0883 40.2199 41.0213 40.2759L31.5818 46.3043C31.5297 46.3445 31.4689 46.3661 31.4052 46.3661L31.2788 46.3368C31.1826 46.2915 31.1199 46.1898 31.1199 46.0827V34.0259Z" fill="#478ECC"/>
<path d="M21.2034 50.475V50.1602H20.2034V55.0964H49.8874V50.1602H48.7826V50.475H21.2034ZM49.2574 50.7909V54.4655H20.8357V50.7909H49.2574Z" fill="#478ECC"/>
<path d="M20.2031 29.9486H21.2031V29.6332H48.7824V29.9486H49.8872V25.0127H20.2031V29.9486ZM20.8357 25.6441H49.2573V29.3172H20.8357V25.6441Z" fill="#478ECC"/>
<path d="M26.1651 26.5166H21.9409V28.3058H26.1651V26.5166Z" fill="#478ECC"/>
<path d="M31.5756 26.5166H27.3511V28.3058H31.5756V26.5166Z" fill="#478ECC"/>
<path d="M36.9447 26.5166H32.7207V28.3058H36.9447V26.5166Z" fill="#478ECC"/>
<path d="M42.3543 26.5166H38.1301V28.3058H42.3543V26.5166Z" fill="#478ECC"/>
<path d="M47.9398 26.5859H43.7156V28.3759H47.9398V26.5859Z" fill="#478ECC"/>
<path d="M26.218 51.6748H21.9915V53.4651H26.218V51.6748Z" fill="#478ECC"/>
<path d="M31.6279 51.6748H27.4033V53.4651H31.6279V51.6748Z" fill="#478ECC"/>
<path d="M36.9975 51.6748H32.7729V53.4651H36.9975V51.6748Z" fill="#478ECC"/>
<path d="M42.4081 51.6748H38.1838V53.4651H42.4081V51.6748Z" fill="#478ECC"/>
<path d="M47.9916 51.7451H43.7676V53.5354H47.9916V51.7451Z" fill="#478ECC"/>
</svg>
