<svg width="73" height="100" viewBox="0 0 73 100" fill="none" xmlns="http://www.w3.org/2000/svg">
<path d="M41.0606 75.7412C40.1004 75.7412 39.4484 75.8351 39.1077 75.9271V82.0966C39.5098 82.1905 40.0077 82.2213 40.6893 82.2213C43.1997 82.2213 44.7507 80.9496 44.7507 78.81C44.7488 76.8884 43.416 75.7412 41.0606 75.7412Z" fill="#478ECC"/>
<path d="M58.388 75.8652H58.3254C58.0163 77.1062 57.7051 78.6867 57.3653 79.8959L56.1233 84.3279H60.7427L59.4427 79.8959C59.0695 78.655 58.6982 77.1062 58.388 75.8652Z" fill="#478ECC"/>
<path d="M72.726 23.9646C72.7204 23.5056 72.5748 23.0527 72.2598 22.6952L52.9787 0.670264C52.9748 0.664611 52.969 0.662604 52.9633 0.65695C52.8484 0.528551 52.7164 0.422221 52.5745 0.329387C52.5325 0.301665 52.4902 0.277225 52.4463 0.252968C52.3217 0.186397 52.1933 0.131317 52.0594 0.0910101C52.023 0.0804317 51.9907 0.0656586 51.9542 0.0556274C51.8068 0.0215214 51.6573 0 51.5043 0H4.11793C1.95612 0 0.196289 1.75983 0.196289 3.92164V96.0785C0.196289 98.2413 1.95612 100 4.11793 100H68.8235C70.9872 100 72.7453 98.2413 72.7453 96.0785V24.1833C72.7455 24.1096 72.7337 24.0369 72.726 23.9646ZM26.1825 93.2264L25.8728 85.2281C25.78 82.7168 25.6866 79.6799 25.6866 76.6401H25.5932C24.9426 79.3066 24.0738 82.2822 23.2682 84.7322L20.7266 92.8844H17.0363L14.804 84.7924C14.1228 82.3455 13.4101 79.3688 12.9142 76.6401H12.8514C12.7278 79.4616 12.6346 82.686 12.4794 85.2903L12.108 93.2266H7.73645L9.06877 72.3311H15.3632L17.4083 79.3068C18.0592 81.7252 18.7098 84.3293 19.1756 86.7786H19.2699C19.8592 84.3599 20.572 81.6006 21.2532 79.276L23.4845 72.3311H29.654L30.801 93.2266H26.1825V93.2264ZM40.7198 85.8475C40.0995 85.8475 39.5411 85.8168 39.1076 85.7556V93.2264H34.4257V72.6103C35.8824 72.3623 37.9277 72.1775 40.8118 72.1775C43.7261 72.1775 45.8035 72.7349 47.1996 73.8513C48.5321 74.9042 49.43 76.6411 49.43 78.6881C49.43 80.7343 48.7484 82.4697 47.5089 83.6475C45.8957 85.1661 43.5096 85.8475 40.7198 85.8475ZM63.0392 93.2264L61.4269 87.8619H55.4429L53.9542 93.2264H49.0559L55.443 72.3309H61.6421L68.1219 93.2264H63.0392ZM4.11793 66.5853V3.92164H49.5433V23.986C49.5433 25.0684 50.4205 25.9468 51.5043 25.9468H68.8237L68.8257 66.5851H4.11793V66.5853Z" fill="#478ECC"/>
<path d="M34.8728 18.6455C23.5285 18.6455 14.3005 27.874 14.3005 39.2183C14.3005 50.5618 23.5285 59.7912 34.8728 59.7912C46.2173 59.7912 55.4449 50.5618 55.4449 39.2183C55.4449 27.8738 46.2173 18.6455 34.8728 18.6455ZM34.8728 56.8502C25.1504 56.8502 17.2417 48.9418 17.2417 39.2194C17.2417 29.4969 25.1504 21.5876 34.8728 21.5876C44.5954 21.5876 52.5036 29.4969 52.5036 39.2194C52.5036 48.9418 44.5954 56.8502 34.8728 56.8502Z" fill="#478ECC"/>
<path d="M29.9474 45.3273C29.3357 45.1122 28.6062 45.0748 27.8599 45.2607C26.2031 45.6751 25.1188 47.0399 25.4356 48.3114C25.6211 49.4875 27.3552 50.2746 29.0092 49.8595C30.465 49.4986 31.4798 48.3966 31.4866 47.2711H31.4895L31.5278 35.4055L40.0862 33.8398V43.3779C39.4639 43.1587 38.7189 43.1204 37.9623 43.3075C36.2882 43.727 35.1932 45.1037 35.5149 46.3909C35.8355 47.6744 37.4515 48.3744 39.1256 47.9605C40.6507 47.5752 41.6275 46.5283 41.6275 45.2186V29.3857L29.9474 31.2809V45.3273V45.3273Z" fill="#478ECC"/>
</svg>
