<svg width="74" height="100" viewBox="0 0 74 100" fill="none" xmlns="http://www.w3.org/2000/svg">
<path d="M39.2674 75.1543C38.306 75.1543 37.655 75.2472 37.3142 75.3409V81.5125C37.7164 81.6043 38.2122 81.637 38.8959 81.637C41.4081 81.637 42.9591 80.3636 42.9591 78.2247C42.9591 76.3023 41.6247 75.1543 39.2674 75.1543Z" fill="#478ECC"/>
<path d="M73.2729 23.9636C73.2691 23.505 73.1226 23.0521 72.8078 22.694L53.5272 0.67066C53.5215 0.664487 53.5159 0.66249 53.5119 0.656862C53.397 0.528503 53.263 0.422657 53.1214 0.329339C53.0793 0.302105 53.0371 0.277596 52.993 0.252723C52.8705 0.186274 52.7403 0.131082 52.6063 0.0907769C52.5698 0.0802468 52.5373 0.0653594 52.501 0.0559186C52.3554 0.0206971 52.2042 0 52.0509 0H4.66668C2.50292 0 0.745117 1.7598 0.745117 3.92174V96.0784C0.745117 98.2413 2.50292 100 4.66668 100H69.3724C71.5344 100 73.2942 98.2413 73.2942 96.0784V24.1833C73.294 24.1096 73.2826 24.0374 73.2729 23.9636ZM24.3774 92.6471L24.0677 84.6449C23.9733 82.1327 23.8823 79.093 23.8823 76.0532H23.7899C23.1369 78.7204 22.2694 81.6981 21.4635 84.1482L18.9186 92.3041H15.2284L12.9962 84.2103C12.3144 81.7593 11.5999 78.7818 11.1039 76.0531H11.041C10.9165 78.8755 10.8243 82.1019 10.6696 84.7061L10.2981 92.6469H5.92466L7.25872 71.7426H13.5528L15.5997 78.7203C16.2507 81.1406 16.9018 83.7448 17.3695 86.1948H17.4613C18.0515 83.7754 18.7634 81.0153 19.447 78.6896L21.6792 71.7426H27.8507L28.9996 92.6469H24.3774V92.6471ZM45.7185 83.0634C44.1061 84.5817 41.7185 85.2655 38.9266 85.2655C38.3062 85.2655 37.749 85.2348 37.3133 85.1714V92.6471H32.6301V72.0213C34.0869 71.7735 36.1343 71.5876 39.0186 71.5876C41.9348 71.5876 44.0125 72.1447 45.4083 73.2631C46.741 74.3163 47.643 76.054 47.643 78.1008C47.643 80.148 46.9593 81.8838 45.7185 83.0634ZM68.1145 91.6857C66.6553 92.1816 63.8961 92.8633 61.135 92.8633C57.3205 92.8633 54.5613 91.9031 52.6368 90.0409C50.7143 88.2429 49.6593 85.5124 49.6918 82.4427C49.7225 75.4957 54.7777 71.5253 61.6308 71.5253C64.3287 71.5253 66.4082 72.0529 67.4307 72.5489L66.4389 76.3326C65.292 75.8366 63.8654 75.4327 61.5694 75.4327C57.6308 75.4327 54.6531 77.6653 54.6531 82.1928C54.6531 86.504 57.353 89.0479 61.2287 89.0479C62.3134 89.0479 63.1818 88.9234 63.5551 88.7388V84.3644H60.3287V80.6747H68.1134V91.6857H68.1145V91.6857ZM4.66668 66.5852V3.92174H50.09V23.9862C50.09 25.0684 50.9691 25.9469 52.0509 25.9469H69.3724V66.5852H4.66668Z" fill="#478ECC"/>
<path d="M28.5039 29.1526C28.3354 29.0213 28.1099 28.997 27.9176 29.0907C27.7305 29.1802 27.6079 29.377 27.6079 29.5838V52.9657C27.6079 53.1727 27.7305 53.3698 27.9176 53.4579L28.1607 53.5144C28.2833 53.5144 28.402 53.4724 28.5039 53.3947L46.8101 41.7057C46.9403 41.599 47.0187 41.4372 47.0187 41.2715C47.0187 41.1068 46.9401 40.9468 46.8101 40.8377L28.5039 29.1526Z" fill="#478ECC"/>
</svg>
