<svg width="74" height="100" viewBox="0 0 74 100" fill="none" xmlns="http://www.w3.org/2000/svg">
<path d="M73.3731 23.9636C73.3673 23.505 73.2218 23.0521 72.9069 22.694L53.6253 0.67066C53.6215 0.665031 53.6157 0.66249 53.61 0.656862C53.4951 0.528503 53.3631 0.422657 53.2213 0.329339C53.1792 0.302105 53.1369 0.277596 53.093 0.252723C52.9684 0.186274 52.8401 0.131082 52.7061 0.0907769C52.6698 0.0802468 52.6373 0.0653594 52.6008 0.0559186C52.4535 0.0216049 52.3041 0 52.1509 0H4.76482C2.60288 0 0.843262 1.7598 0.843262 3.92174V96.0784C0.843262 98.2413 2.60288 100 4.76482 100H69.4706C71.6343 100 73.3923 98.2413 73.3923 96.0784V24.1833C73.3921 24.1096 73.3807 24.0374 73.3731 23.9636ZM31.0707 93.6293L30.7384 85.0623C30.6384 82.372 30.5393 79.1177 30.5393 75.8615H30.4393C29.7423 78.7174 28.8116 81.9056 27.948 84.5298L25.2247 93.2633H21.2724L18.8823 84.5959C18.1508 81.9717 17.3883 78.7834 16.8568 75.8615H16.7902C16.6577 78.884 16.5575 82.3374 16.391 85.1273L15.9932 93.6291H11.3106L12.739 71.2457H19.4801L21.6726 78.7174C22.3695 81.309 23.0674 84.0981 23.5653 86.7213H23.6653C24.2967 84.1297 25.0598 81.175 25.7907 78.6847L28.1824 71.2455H34.7909L36.0193 93.6289H31.0707V93.6293ZM45.3878 93.9615C42.8316 93.9615 40.3069 93.297 39.0449 92.6L40.0741 88.4152C41.4356 89.1122 43.5284 89.8092 45.6874 89.8092C48.0111 89.8092 49.2413 88.847 49.2413 87.3849C49.2413 85.9899 48.1785 85.1925 45.4882 84.2293C41.7687 82.9349 39.3445 80.8755 39.3445 77.6213C39.3445 73.8012 42.5327 70.8791 47.8129 70.8791C50.3357 70.8791 52.1968 71.4105 53.5238 72.008L52.396 76.0934C51.4989 75.6614 49.9047 75.0305 47.7143 75.0305C45.5227 75.0305 44.459 76.0271 44.459 77.1885C44.459 78.617 45.7208 79.248 48.6102 80.3443C52.5616 81.8052 54.4218 83.8646 54.4218 87.0193C54.422 90.7733 51.5325 93.9615 45.3878 93.9615ZM62.9258 93.6293H57.8439V71.2459H62.9258V93.6293ZM4.76482 66.5852V3.92174H50.1901V23.9862C50.1901 25.0684 51.0672 25.9469 52.1509 25.9469H69.4706L69.4726 66.5852H4.76482Z" fill="#D62D30"/>
<path d="M48.7627 36.5117V30.0684L59.9386 25.9576L46.9551 21.0499L48.6527 18.0086L42.7502 16.0068L41.2729 19.0658C40.953 19.1343 40.4858 19.2497 40.4417 19.2586C32.0214 21.2496 19.2442 24.2234 18.5229 24.2674C18.3864 24.2683 18.2725 24.344 18.205 24.4518L18.1687 24.4302L18.0935 24.3776L18.0029 24.3609L14.6295 23.7154L11.6333 23.143L14.3461 24.537L16.4165 25.6021V60.9556L22.3568 62.6338V27.0558V26.995L22.1836 26.9458L20.3855 25.8164L19.0236 24.9643C22.0022 24.4057 37.3705 20.6107 40.8391 19.791L45.6022 21.4859L23.6411 27.1577L23.5483 27.1232L23.4539 27.0773V62.6355L39.6701 58.4487C37.6576 56.1153 36.4312 53.0863 36.4312 49.7711C36.4321 42.7646 41.8798 37.0173 48.7627 36.5117ZM20.1375 26.1793L16.7353 25.2721L14.5471 24.1486L17.9205 24.7929L20.1375 26.1793ZM43.0027 16.6094L47.9382 18.2841L46.6113 20.659L41.9056 18.8801L43.0027 16.6094ZM46.6648 21.7312L57.7527 25.9026L37.7714 31.7653L26.0374 27.3387L46.6648 21.7312Z" fill="#D62D30"/>
<path d="M50.307 38.1328C43.6318 38.1328 38.2197 43.5437 38.2197 50.2158C38.2197 56.8917 43.632 62.3031 50.307 62.3031C56.982 62.3031 62.3916 56.8908 62.3916 50.2158C62.3914 43.5437 56.982 38.1328 50.307 38.1328ZM53.9452 39.6081L51.3199 44.9672C50.8096 44.7701 50.307 44.8739 50.307 44.8739L48.7867 39.2477C48.7867 39.2477 50.8019 38.3434 53.9452 39.6081ZM50.305 54.9732C47.678 54.9732 45.5505 52.843 45.5505 50.2158C45.5505 47.5896 47.678 45.4612 50.305 45.4612C52.9323 45.4612 55.0605 47.5896 55.0605 50.2158C55.0605 52.8428 52.9323 54.9732 50.305 54.9732Z" fill="#D62D30"/>
<path d="M50.3071 46.0107C47.9863 46.0107 46.1001 47.8987 46.1001 50.2201C46.1001 52.538 47.9863 54.427 50.3071 54.427C52.6259 54.427 54.514 52.538 54.514 50.2201C54.514 47.8976 52.6259 46.0107 50.3071 46.0107ZM50.3071 53.9403C48.2542 53.9403 46.5856 52.2707 46.5856 50.2199C46.5856 48.1643 48.2542 46.4955 50.3071 46.4955C52.3588 46.4955 54.0275 48.1642 54.0275 50.2199C54.0285 52.2707 52.3588 53.9403 50.3071 53.9403Z" fill="#D62D30"/>
<path d="M50.307 48.2061C49.1964 48.2061 48.2944 49.1078 48.2944 50.2175C48.2944 51.3261 49.1964 52.228 50.307 52.228C51.4155 52.228 52.3184 51.3261 52.3184 50.2175C52.3184 49.108 51.4155 48.2061 50.307 48.2061ZM50.307 51.7418C49.4644 51.7418 48.7808 51.0592 48.7808 50.2157C48.7808 49.3751 49.4645 48.6906 50.307 48.6906C51.1475 48.6906 51.8331 49.3738 51.8331 50.2157C51.8331 51.0592 51.1475 51.7418 50.307 51.7418Z" fill="#D62D30"/>
</svg>
