<svg width="73" height="100" viewBox="0 0 73 100" fill="none" xmlns="http://www.w3.org/2000/svg">
<path d="M72.9224 23.9636C72.9168 23.505 72.7712 23.0521 72.4562 22.694L53.1737 0.67066C53.1699 0.665031 53.1641 0.663034 53.1576 0.656862C53.0435 0.528503 52.9105 0.422657 52.7698 0.329339C52.7276 0.302105 52.6853 0.277596 52.6414 0.252723C52.5168 0.186274 52.3885 0.131626 52.2536 0.0913215C52.2173 0.0802468 52.1857 0.0653594 52.1492 0.0559186C52.0029 0.0216049 51.8516 0 51.6993 0H4.31414C2.15238 0 0.392578 1.7598 0.392578 3.92174V96.0784C0.392578 98.2413 2.1522 100 4.31414 100H69.0199C71.1837 100 72.9415 98.2413 72.9415 96.0784V24.1833C72.9415 24.1102 72.93 24.0374 72.9224 23.9636ZM28.7063 93.5029H23.8847L19.5476 85.6712C18.3417 83.5008 17.0162 80.8804 16.022 78.5013L15.9319 78.5289C16.0527 81.2106 16.112 84.0714 16.112 87.3869V93.502H11.8936V73.1972H17.2577L21.4759 80.638C22.6808 82.7798 23.8847 85.3092 24.7885 87.5995H24.8791C24.5779 84.9178 24.4889 82.1767 24.4889 79.1331V73.1972H28.7073V93.5029H28.7063ZM45.6341 93.5029H32.6799V73.1972H45.2119V76.9626H37.2883V81.1809H44.7598V84.9176H37.2883V89.7373H45.634V93.5029H45.6341ZM53.7358 93.8056C51.417 93.8056 49.1269 93.2024 47.9818 92.5694L48.9163 88.7724C50.1514 89.4062 52.0488 90.0381 54.0078 90.0381C56.1149 90.0381 57.2303 89.1649 57.2303 87.839C57.2303 86.5752 56.2672 85.8524 53.8248 84.9782C50.4519 83.8023 48.2518 81.9354 48.2518 78.983C48.2518 75.518 51.1432 72.867 55.9341 72.867C58.2224 72.867 59.9101 73.3494 61.1154 73.8922L60.0909 77.5964C59.2772 77.2057 57.8315 76.6331 55.8438 76.6331C53.8544 76.6331 52.891 77.5371 52.891 78.591C52.891 79.8864 54.0343 80.459 56.6556 81.4528C60.2421 82.7798 61.929 84.6478 61.929 87.5093C61.9313 90.9121 59.309 93.8056 53.7358 93.8056ZM4.31414 66.5852V3.92174H49.7396V23.9862C49.7396 25.0689 50.6165 25.9469 51.7004 25.9469H69.0199L69.0219 66.5852H4.31414Z" fill="#AEB1CF"/>
<path d="M42.8771 32.7627H27.9261V34.8059H24.8624V35.459H23.2485V36.0314H24.8624V36.7667H27.9261V40.3609H24.8624V41.0962H23.2485V41.6686H24.8624V42.3217H27.9261V46.1617H24.8624V46.8558H23.2485V47.4284H24.8624V48.1225H27.9261V50.8999H42.8771V48.1225H45.6536V47.4284H47.2679V46.8558H45.6536V46.1617H42.8771V42.3217H45.6536V41.6686H47.2679V41.0962H45.6536V40.3609H42.8771V36.7667H45.6536V36.0314H47.2679V35.459H45.6536V34.8059H42.8771V32.7627ZM40.0181 37.6646C39.3863 37.6646 38.8731 37.153 38.8731 36.5205C38.8731 35.8883 39.3861 35.3763 40.0181 35.3763C40.6501 35.3763 41.1614 35.8881 41.1614 36.5205C41.1614 37.153 40.6501 37.6646 40.0181 37.6646Z" fill="#AEB1CF"/>
<path d="M44.6433 18.8096H19.3438V61.7824H51.1719V26.3945L44.6433 18.8096ZM45.3183 22.2634L48.4011 25.846H45.3183V22.2634ZM49.4314 60.041H21.0838V20.5525H43.5748V27.589H49.4314V60.041V60.041Z" fill="#AEB1CF"/>
</svg>
