<svg width="73" height="100" viewBox="0 0 73 100" fill="none" xmlns="http://www.w3.org/2000/svg">
<path d="M40.8299 84.1582H38.9534V91.0171C39.4942 91.089 40.1444 91.089 41.0826 91.089C43.5739 91.089 45.774 90.1507 45.774 87.5878C45.774 85.1328 43.5737 84.1582 40.8299 84.1582Z" fill="#14988B"/>
<path d="M72.5298 23.9636C72.524 23.505 72.3786 23.0521 72.0636 22.694L52.782 0.67066C52.7782 0.665031 52.7724 0.66249 52.7668 0.656862C52.6519 0.528503 52.5199 0.422657 52.3781 0.329339C52.336 0.302105 52.2937 0.277596 52.2497 0.252723C52.1252 0.186274 51.9968 0.131082 51.8628 0.0907769C51.8265 0.0802468 51.794 0.0653594 51.7575 0.0559186C51.6103 0.0216049 51.4609 0 51.3076 0H3.92156C1.75962 0 0 1.7598 0 3.92174V96.0784C0 98.2413 1.75962 100 3.92156 100H68.6273C70.7911 100 72.5491 98.2413 72.5491 96.0784V24.1833C72.5489 24.1096 72.5374 24.0374 72.5298 23.9636ZM17.9471 95.3143C10.7273 95.3143 6.50362 89.8628 6.50362 82.9321C6.50362 75.6395 11.1596 70.189 18.3429 70.189C25.8155 70.189 29.8941 75.784 29.8941 82.4986C29.8943 90.4766 25.0579 95.3143 17.9471 95.3143ZM49.0242 92.9668C47.255 94.3742 44.2957 95.1688 39.458 95.1688C36.7514 95.1688 34.7292 94.9869 33.5018 94.8079V70.9107C34.9469 70.6226 37.8696 70.4064 40.6134 70.4064C43.9701 70.4064 46.0275 70.7299 47.7969 71.7764C49.4925 72.6792 50.7199 74.3394 50.7199 76.5414C50.7199 78.7072 49.4562 80.7282 46.7141 81.7391V81.8119C49.4926 82.5692 51.5511 84.6622 51.5511 87.8025C51.5509 90.0064 50.54 91.7393 49.0242 92.9668ZM65.5551 85.9643C65.5551 92.8949 62.2337 95.3143 56.8913 95.3143C55.6286 95.3143 53.9676 95.097 52.8837 94.7351L53.4984 90.2956C54.2557 90.5485 55.2314 90.7284 56.3133 90.7284C58.6235 90.7284 60.0682 89.6828 60.0682 85.8915V70.5863H65.5552V85.9643H65.5551ZM3.92156 66.5852V3.92174H49.3469V23.9862C49.3469 25.0684 50.2239 25.9469 51.3076 25.9469H68.6273L68.6293 66.5852H3.92156Z" fill="#14988B"/>
<path d="M45.1977 77.2269C45.1977 75.3867 43.7903 74.4121 41.299 74.4121C40.1079 74.4121 39.4225 74.4849 38.9534 74.5557V80.2237H40.758C43.6467 80.2247 45.1977 79.0336 45.1977 77.2269Z" fill="#14988B"/>
<path d="M18.1989 74.5566C14.4812 74.5566 12.3157 78.0942 12.3157 82.8239C12.3157 87.5878 14.5531 90.9464 18.2354 90.9464C21.954 90.9464 24.0832 87.4088 24.0832 82.6792C24.0822 78.3115 21.9894 74.5566 18.1989 74.5566Z" fill="#14988B"/>
<path d="M55.411 29.921C55.3124 29.8543 55.187 29.8405 55.0779 29.8856L36.4962 37.363C36.3604 37.4181 36.2712 37.5482 36.2712 37.6957V60.0157C36.2712 60.1344 36.3317 60.2455 36.4292 60.3136C36.4886 60.3539 36.5585 60.3748 36.6285 60.3748C36.6745 60.3748 36.7204 60.3663 36.7625 60.3499L55.3449 52.8706C55.48 52.816 55.5699 52.6858 55.5699 52.5384V30.2175C55.5699 30.0985 55.5096 29.9876 55.411 29.921ZM52.2227 52.011L38.2329 57.6386V46.322L52.2227 52.011ZM38.2329 44.6426V38.779L53.6071 32.5927V50.8917L38.2329 44.6426Z" fill="#14988B"/>
<path d="M34.582 37.362L15.9996 29.8845C15.8909 29.8395 15.7654 29.8535 15.6665 29.9199C15.5675 29.9864 15.5085 30.0984 15.5085 30.2173V52.5365C15.5085 52.6832 15.5981 52.8141 15.7331 52.8687L34.3155 60.348C34.3576 60.3652 34.4036 60.373 34.4491 60.373C34.5196 60.373 34.5904 60.352 34.6489 60.3117C34.7478 60.2447 34.8068 60.1327 34.8068 60.0137V37.6948C34.8066 37.5483 34.7175 37.4172 34.582 37.362ZM17.4722 51.3734V32.5928L32.8449 38.779V44.6093L17.4722 51.3734ZM32.8449 46.3081V57.6385L19.3971 52.2271L32.8449 46.3081Z" fill="#14988B"/>
<path d="M55.0588 28.3124C55.0588 28.1654 54.9688 28.0328 54.8308 27.9784L35.7488 20.5292C35.6645 20.4962 35.5683 20.4971 35.485 20.5301L16.904 28.0076C16.7675 28.0628 16.6794 28.193 16.6794 28.3404C16.6794 28.4854 16.7675 28.6174 16.9029 28.6726L35.2498 36.1229C35.2929 36.1405 35.339 36.1483 35.3849 36.1483C35.4285 36.1483 35.4724 36.1407 35.5147 36.1249L54.831 28.6474C54.9668 28.5929 55.0588 28.4609 55.0588 28.3124ZM35.992 33.8353V22.7322L50.2736 28.3068L35.992 33.8353ZM34.4343 23.0686V33.6715L21.3187 28.3467L34.4343 23.0686Z" fill="#14988B"/>
</svg>
