<svg width="74" height="100" viewBox="0 0 74 100" fill="none" xmlns="http://www.w3.org/2000/svg">
<path d="M73.0767 23.9636C73.0728 23.5041 72.9263 23.0521 72.6115 22.694L53.3309 0.67066C53.3252 0.665031 53.3196 0.66249 53.3156 0.656862C53.2007 0.528503 53.0667 0.421749 52.9251 0.329339C52.883 0.301198 52.8408 0.277596 52.7967 0.252723C52.6742 0.186274 52.544 0.130174 52.41 0.0900507C52.3735 0.0804283 52.341 0.0655409 52.3047 0.0559186C52.1591 0.0216049 52.0079 0 51.8546 0H4.47039C2.30663 0 0.548828 1.7598 0.548828 3.92174V96.0784C0.548828 98.2402 2.30663 100 4.47039 100H69.1762C71.3381 100 73.0979 98.2404 73.0979 96.0784V24.1824C73.0977 24.1096 73.0863 24.0374 73.0767 23.9636ZM16.6056 93.1275C10.4332 93.1275 6.82224 88.4688 6.82224 82.5423C6.82224 76.3076 10.8046 71.6469 16.9459 71.6469C23.3342 71.6469 26.8211 76.432 26.8211 82.1729C26.8213 88.9935 22.686 93.1275 16.6056 93.1275ZM44.8483 90.3205C42.657 92.1413 39.324 93.0049 35.2499 93.0049C32.8127 93.0049 31.0833 92.8517 29.9108 92.6966V72.2655C31.639 71.9879 33.8932 71.8328 36.2684 71.8328C40.2183 71.8328 42.7813 72.5442 44.786 74.0569C46.9469 75.6614 48.3045 78.2235 48.3045 81.8942C48.3045 85.8762 46.8532 88.624 44.8483 90.3205ZM64.6649 91.1227C63.1522 92.3272 60.6208 93.0049 56.4846 93.0049C54.1696 93.0049 52.4423 92.8517 51.3931 92.6966V72.2655C52.6283 72.0204 55.127 71.8328 57.4726 71.8328C60.343 71.8328 62.1026 72.1122 63.6153 73.0066C65.0649 73.7782 66.1142 75.197 66.1142 77.0812C66.1142 78.9309 65.0344 80.6602 62.6887 81.5236V81.5859C65.065 82.2331 66.8247 84.0236 66.8247 86.7092C66.8247 88.5913 65.9612 90.0734 64.6649 91.1227ZM69.1762 66.5843H4.47039V3.92174H49.8937V23.9852C49.8937 25.0691 50.7728 25.946 51.8546 25.946H69.1762V66.5843Z" fill="#14988B"/>
<path d="M61.3924 77.6676C61.3924 76.0926 60.1879 75.2607 58.0605 75.2607C57.042 75.2607 56.4539 75.323 56.0547 75.3833V80.2297H57.5972C60.0654 80.2297 61.3924 79.211 61.3924 77.6676Z" fill="#14988B"/>
<path d="M36.7625 75.4443C35.7137 75.4443 35.0328 75.5384 34.6323 75.6301V89.2388C35.033 89.3345 35.6821 89.3345 36.2685 89.3345C40.5287 89.3632 43.3052 87.0175 43.3052 82.0485C43.3357 77.7288 40.8043 75.4443 36.7625 75.4443Z" fill="#14988B"/>
<path d="M16.8217 75.3828C13.643 75.3828 11.791 78.4082 11.791 82.4505C11.791 86.5251 13.704 89.3935 16.8529 89.3935C20.0325 89.3935 21.8531 86.3681 21.8531 82.3278C21.852 78.5921 20.0626 75.3828 16.8217 75.3828Z" fill="#14988B"/>
<path d="M57.6585 83.5918H56.054V89.4551C56.5175 89.5164 57.0708 89.5164 57.8749 89.5164C60.0042 89.5164 61.8866 88.7171 61.8866 86.5253C61.8866 84.4248 60.0042 83.5918 57.6585 83.5918Z" fill="#14988B"/>
<path d="M35.3722 49.9636C42.9822 49.9636 48.9363 47.245 48.9363 43.7744V39.8687C48.9363 39.3138 48.7754 38.7499 48.4519 38.1971L48.4385 38.1766C48.7544 37.6441 48.9363 37.0854 48.9363 36.503V32.5962C48.9363 32.0413 48.7754 31.4774 48.4519 30.9226L48.4098 30.8523C48.746 30.306 48.9363 29.7289 48.9363 29.1265V25.2207C48.9363 24.6922 48.7898 24.1541 48.4989 23.6218L48.4644 23.5601C48.5507 23.3226 48.6109 23.0795 48.6109 22.8204C48.6109 19.6648 41.7905 17.9609 35.3724 17.9609C28.9597 17.9609 22.141 19.6648 22.141 22.8204C22.141 23.0795 22.2009 23.3226 22.288 23.5601L22.2539 23.6218C21.9605 24.1541 21.8154 24.6922 21.8154 25.2207V29.1265C21.8154 29.7278 22.0046 30.304 22.3401 30.8498L22.2962 30.9244C21.9763 31.4794 21.8156 32.0413 21.8156 32.5962V36.5019C21.8156 37.0845 21.9941 37.6412 22.312 38.1737L22.2962 38.198C21.9763 38.751 21.8156 39.3147 21.8156 39.8677V43.7735C21.8143 47.2441 27.7704 49.9636 35.3722 49.9636ZM23.2662 25.8756C25.442 27.7196 30.487 28.6746 35.3722 28.6746C40.264 28.6746 45.3059 27.7187 47.484 25.8756V29.1265C47.484 31.3669 42.514 33.862 35.3722 33.862C28.2381 33.862 23.2662 31.3669 23.2662 29.1265V25.8756ZM23.2662 32.8273C25.4926 34.8665 30.0734 36.1686 35.3722 36.1686C40.6778 36.1686 45.258 34.8665 47.484 32.8253V36.5017C47.484 38.7421 42.514 41.239 35.3722 41.239C28.2381 41.239 23.2662 38.7421 23.2662 36.5017V32.8273ZM23.2662 40.0998C25.4926 42.139 30.0734 43.4411 35.3722 43.4411C40.6778 43.4411 45.258 42.139 47.484 40.0998V43.7744C47.484 46.0148 42.514 48.5117 35.3722 48.5117C28.2381 48.5117 23.2662 46.0148 23.2662 43.7744V40.0998Z" fill="#14988B"/>
<path d="M39.4381 55.7198H36.5174V52.4531H34.5566V55.7198H32.4116V56.6332H11.7756V58.5938H32.4116V59.1512H39.4381V58.5938H61.871V56.6332H39.4381V55.7198Z" fill="#14988B"/>
</svg>
