<svg width="73" height="100" viewBox="0 0 73 100" fill="none" xmlns="http://www.w3.org/2000/svg">
<path d="M35.4838 74.6221C34.411 74.6221 33.7169 74.7177 33.3071 74.8136V88.7172C33.7169 88.8129 34.3799 88.8129 34.9789 88.8129C39.3293 88.8436 42.1671 86.4461 42.1671 81.3699C42.1994 76.9563 39.6145 74.6221 35.4838 74.6221Z" fill="#AEB1CF"/>
<path d="M15.1101 74.5596C11.8621 74.5596 9.97119 77.652 9.97119 81.7822C9.97119 85.9452 11.9258 88.8748 15.1428 88.8748C18.3907 88.8748 20.2495 85.786 20.2495 81.6558C20.2504 77.8395 18.4218 74.5596 15.1101 74.5596Z" fill="#AEB1CF"/>
<path d="M72.6242 23.9636C72.6203 23.5041 72.4738 23.0521 72.1588 22.694L52.8793 0.67066C52.8717 0.665031 52.868 0.66249 52.864 0.656862C52.7491 0.528503 52.6142 0.421749 52.4735 0.329339C52.4314 0.301198 52.3893 0.277596 52.3451 0.252723C52.2206 0.186274 52.0906 0.130174 51.9573 0.0900507C51.923 0.0804283 51.8904 0.0655409 51.854 0.0559186C51.7084 0.0216049 51.5572 0 51.402 0H4.01971C1.85595 0 0.0981445 1.7598 0.0981445 3.92174V96.0784C0.0981445 98.2402 1.85595 100 4.01971 100H68.7227C70.8865 100 72.6443 98.2404 72.6443 96.0784V24.1824C72.6441 24.1096 72.6347 24.0374 72.6242 23.9636ZM14.8893 92.691C8.58288 92.691 4.89534 87.9307 4.89534 81.8762C4.89534 75.5055 8.96196 70.7451 15.2372 70.7451C21.765 70.7451 25.3274 75.6338 25.3274 81.4969C25.3265 88.4668 21.1019 92.691 14.8893 92.691ZM43.7428 89.8206C41.5044 91.6817 38.0999 92.5665 33.9374 92.5665C31.4461 92.5665 29.6809 92.4076 28.4826 92.2486V71.3751C30.2481 71.0917 32.5502 70.9347 34.9786 70.9347C39.0131 70.9347 41.6308 71.6605 43.6805 73.2057C45.8873 74.8448 47.2756 77.4625 47.2756 81.2135C47.2756 85.2825 45.7936 88.0877 43.7428 89.8206ZM61.3094 88.687C62.7589 88.687 64.3675 88.3731 65.3134 87.992L66.039 91.7471C65.1565 92.1876 63.1687 92.6603 60.5848 92.6603C53.2384 92.6603 49.453 88.0877 49.453 82.0331C49.453 74.7825 54.6258 70.7451 61.0588 70.7451C63.5481 70.7451 65.4399 71.2488 66.2919 71.691L65.3154 75.5055C64.3368 75.0977 62.9813 74.7185 61.2798 74.7185C57.4626 74.7185 54.4993 77.0202 54.4993 81.7498C54.4984 86.0064 57.0202 88.687 61.3094 88.687ZM68.7227 66.5843H4.0188V3.92174H49.4405V23.9852C49.4405 25.0691 50.3203 25.946 51.4012 25.946H68.7227V66.5843V66.5843Z" fill="#AEB1CF"/>
<path d="M24.3972 36.9775H12.6062V39.9187H24.3972V36.9775Z" fill="#AEB1CF"/>
<path d="M36.8972 28.2441H12.6062V31.1853H36.8972V28.2441Z" fill="#AEB1CF"/>
<path d="M45.5982 19.2822H12.6062V22.2234H45.5982V19.2822Z" fill="#AEB1CF"/>
<path d="M24.3972 45.9541H12.6062V48.8953H24.3972V45.9541Z" fill="#AEB1CF"/>
<path d="M24.3972 54.624H12.6062V57.5652H24.3972V54.624Z" fill="#AEB1CF"/>
<path d="M60.2264 54.624H33.3069V57.5652H60.2264V54.624Z" fill="#AEB1CF"/>
<path d="M37.1983 36.9775H33.8699V51.5532H37.1983V36.9775Z" fill="#AEB1CF"/>
<path d="M44.9557 30.4746H41.6267V51.5532H44.9557V30.4746Z" fill="#AEB1CF"/>
<path d="M52.6764 33.6602H49.3474V51.5523H52.6764V33.6602Z" fill="#AEB1CF"/>
<path d="M59.6883 41.0137H56.3594V51.5529H59.6883V41.0137Z" fill="#AEB1CF"/>
</svg>
