<svg width="74" height="100" viewBox="0 0 74 100" fill="none" xmlns="http://www.w3.org/2000/svg">
<path d="M38.3282 75.0234C37.189 75.0234 36.4493 75.1231 36.0142 75.2244V90.0279C36.4493 90.1276 37.1554 90.1276 37.7919 90.1276C42.425 90.1619 45.4455 87.6124 45.4455 82.2079C45.4784 77.5089 42.7268 75.0234 38.3282 75.0234Z" fill="#AEB1CF"/>
<path d="M73.1744 23.9636C73.1685 23.5041 73.0231 23.0521 72.7061 22.694L53.4248 0.67066C53.4228 0.665031 53.4169 0.66249 53.4113 0.656862C53.2944 0.528503 53.1644 0.421749 53.0226 0.329339C52.9805 0.301198 52.9382 0.277596 52.8943 0.252723C52.7697 0.186274 52.6413 0.130174 52.5074 0.0900507C52.471 0.0804283 52.4386 0.0655409 52.4021 0.0559186C52.2548 0.0216049 52.1054 0 51.9522 0H4.56609C2.40415 0 0.644531 1.7598 0.644531 3.92174V96.0784C0.644531 98.2402 2.40415 100 4.56609 100H69.2719C71.4356 100 73.1936 98.2404 73.1936 96.0784V24.1824C73.1934 24.1096 73.18 24.0374 73.1744 23.9636ZM16.4054 94.2573C9.69172 94.2573 5.76435 89.1888 5.76435 82.7435C5.76435 75.963 10.0957 70.8946 16.7741 70.8946C23.7231 70.8946 27.5163 76.0981 27.5163 82.3404C27.5172 89.7575 23.0189 94.2573 16.4054 94.2573ZM47.123 91.2032C44.739 93.1832 41.1141 94.1215 36.6848 94.1215C34.0328 94.1215 32.1534 93.9548 30.8767 93.7863V71.5665C32.7561 71.264 35.2071 71.0937 37.7921 71.0937C42.0891 71.0937 44.8752 71.8673 47.056 73.512C49.4053 75.2584 50.8828 78.0425 50.8828 82.0389C50.8828 86.3682 49.3049 89.3553 47.123 91.2032ZM68.0732 75.4576H59.3779V80.6295H67.5004V84.7903H59.3779V93.8876H54.2423V71.264H68.0732V75.4576ZM4.56609 66.5843V3.92174H49.9914V23.9852C49.9914 25.0691 50.8685 25.946 51.9522 25.946H69.2719L69.2738 66.5845H4.56609V66.5843Z" fill="#AEB1CF"/>
<path d="M16.6404 74.9551C13.1836 74.9551 11.1687 78.2448 11.1687 82.6413C11.1687 87.0722 13.25 90.1952 16.6747 90.1952C20.1315 90.1952 22.1109 86.9055 22.1109 82.509C22.1109 78.446 20.166 74.9551 16.6404 74.9551Z" fill="#AEB1CF"/>
<path d="M48.7775 27.7444C48.7775 26.9576 48.1399 26.3203 47.3511 26.3203H23.4061C22.8297 26.3203 22.3104 26.6674 22.0897 27.1987C21.8689 27.7299 21.9896 28.3457 22.3974 28.7535L34.1688 40.524L22.61 51.0401C22.1757 51.4366 22.0279 52.0588 22.2414 52.6095C22.4544 53.16 22.982 53.5211 23.5699 53.5211H47.3511C48.1381 53.5211 48.7757 52.8844 48.7757 52.0973C48.7757 51.3074 48.1381 50.6708 47.3511 50.6708H27.2554L37.1928 41.6262C37.482 41.3635 37.6505 40.9957 37.659 40.6075C37.6695 40.2173 37.5183 39.8421 37.2414 39.5654L26.8473 29.1693H47.3509C48.1379 29.1691 48.7775 28.5318 48.7775 27.7444Z" fill="#AEB1CF"/>
</svg>
