<svg width="73" height="100" viewBox="0 0 73 100" fill="none" xmlns="http://www.w3.org/2000/svg">
<path d="M14.7542 74.6094C11.5061 74.6094 9.61475 77.6999 9.61475 81.8302C9.61475 85.9929 11.5699 88.9266 14.7861 88.9266C18.0347 88.9266 19.8945 85.8361 19.8945 81.7056C19.8945 77.8894 18.0648 74.6094 14.7542 74.6094Z" fill="#AEB1CF"/>
<path d="M35.1275 74.6729C34.0562 74.6729 33.362 74.7668 32.9524 74.8605V88.7679C33.362 88.8617 34.0244 88.8617 34.6229 88.8617C38.9744 88.8945 41.813 86.499 41.813 81.4209C41.8445 77.007 39.2596 74.6729 35.1275 74.6729Z" fill="#AEB1CF"/>
<path d="M72.7231 23.9636C72.7174 23.5039 72.5701 23.0522 72.2551 22.6942L52.9757 0.670629C52.9701 0.664975 52.9644 0.662604 52.9604 0.65695C52.8455 0.528551 52.7114 0.421674 52.5697 0.329387C52.5276 0.3013 52.4853 0.277772 52.4413 0.252968C52.3188 0.186397 52.1904 0.130405 52.0545 0.0900981C52.018 0.0806141 51.9857 0.0656586 51.9493 0.0561745C51.8039 0.0215214 51.6523 0 51.4993 0H4.115C1.95319 0 0.193359 1.75983 0.193359 3.92164V96.0785C0.193359 98.2405 1.95319 100 4.115 100H68.8206C70.9824 100 72.7424 98.2405 72.7424 96.0785V24.1824C72.7426 24.1096 72.7307 24.0374 72.7231 23.9636ZM14.5336 92.7409C8.22559 92.7409 4.53758 87.9799 4.53758 81.9258C4.53758 75.5553 8.60513 70.7943 14.8806 70.7943C21.4084 70.7943 24.9718 75.6828 24.9718 81.5488C24.9707 88.5147 20.7461 92.7409 14.5336 92.7409ZM43.3901 89.8725C41.1517 91.7316 37.7449 92.6143 33.5837 92.6143C31.0925 92.6143 29.3255 92.4577 28.1278 92.3003V71.4248C29.8942 71.1416 32.1953 70.9827 34.6238 70.9827C38.6603 70.9827 41.2757 71.7085 43.3276 73.2507C45.5348 74.8929 46.922 77.5105 46.922 81.2634C46.9209 85.3304 45.4389 88.1375 43.3901 89.8725ZM67.8308 91.4177C66.3469 91.9214 63.5415 92.6145 60.7364 92.6145C56.8571 92.6145 54.052 91.638 52.0968 89.7461C50.1415 87.9155 49.0692 85.1409 49.099 82.0198C49.1316 74.9562 54.2719 70.9196 61.242 70.9196C63.9839 70.9196 66.0978 71.4557 67.1375 71.9612L66.1286 75.8094C64.9624 75.3027 63.5117 74.8931 61.1785 74.8931C57.173 74.8931 54.1465 77.1641 54.1465 81.7683C54.1465 86.1513 56.8892 88.7354 60.8301 88.7354C61.935 88.7354 62.8169 88.6108 63.1949 88.4211V83.9758H59.9167V80.2227H67.8308V91.4177ZM68.8208 66.5843H4.115V3.92164H49.5385V23.9851C49.5385 25.069 50.4174 25.9459 51.4993 25.9459H68.8208V66.5843V66.5843Z" fill="#AEB1CF"/>
<path d="M44.5369 47.6535C43.3977 52.194 47.4743 56.1866 47.4743 56.1866C53.7788 61.8554 58.2325 56.1866 58.2325 56.1866C55.9195 54.9726 55.8037 50.3462 55.8037 50.3462C55.7455 45.0801 48.1634 44.0273 48.1634 44.0273L44.5369 47.6535ZM45.2168 49.0292L46.1032 47.742C46.1032 47.742 44.6394 49.7947 50.2508 56.5734C50.2508 56.5734 46.1435 55.1065 45.2168 49.0292Z" fill="#AEB1CF"/>
<path d="M45.4112 39.6855C44.5122 38.7856 16.3972 15.3869 14.7991 13.7876C12.8226 12.3475 11.6776 13.82 13.2228 15.363C14.7645 16.9064 39.315 44.06 40.1758 44.9198C41.0347 45.7777 43.6501 46.8428 43.6501 46.8428L47.2768 43.2161C47.277 43.2168 46.3112 40.5837 45.4112 39.6855Z" fill="#AEB1CF"/>
</svg>
