<svg width="74" height="100" viewBox="0 0 74 100" fill="none" xmlns="http://www.w3.org/2000/svg">
<path d="M73.272 23.9636C73.2662 23.5041 73.1208 23.0521 72.8038 22.694L53.5224 0.67066C53.5204 0.665031 53.5128 0.66249 53.509 0.656862C53.3921 0.528503 53.2621 0.421749 53.1203 0.329339C53.0781 0.301198 53.0322 0.277596 52.9899 0.252723C52.8674 0.186274 52.7372 0.130174 52.6032 0.0900507C52.5687 0.0804283 52.5342 0.0655409 52.4979 0.0559186C52.3525 0.0216049 52.2031 0 52.0498 0H4.66375C2.50181 0 0.742188 1.7598 0.742188 3.92174V96.0784C0.742188 98.2402 2.50181 100 4.66375 100H69.3695C71.5295 100 73.2913 98.2404 73.2913 96.0784V24.1824C73.2911 24.1096 73.2776 24.0374 73.272 23.9636ZM19.5314 94.9697C12.4733 94.9697 8.34493 89.6425 8.34493 82.866C8.34493 75.7372 12.8979 70.4082 19.9204 70.4082C27.2254 70.4082 31.2136 75.8789 31.2136 82.4419C31.2129 90.242 26.4842 94.9697 19.5314 94.9697ZM51.824 91.7584C49.3184 93.8419 45.5079 94.8299 40.8501 94.8299C38.0622 94.8299 36.0862 94.6536 34.7443 94.4766V71.1148C36.7203 70.7969 39.2971 70.6206 42.0144 70.6206C46.5304 70.6206 49.4592 71.4325 51.7541 73.1616C54.2241 74.996 55.7771 77.9256 55.7771 82.1249C55.778 86.6785 54.1179 89.8188 51.824 91.7584ZM64.7079 94.5828H59.3091V70.7969H64.7079V94.5828ZM4.66375 66.5843V3.92174H50.089V23.9852C50.089 25.0691 50.9661 25.946 52.0498 25.946H69.3695L69.3715 66.5845H4.66375V66.5843Z" fill="#AEB1CF"/>
<path d="M42.5792 74.749C41.3795 74.749 40.603 74.8563 40.1455 74.9616V90.5233C40.6039 90.6306 41.345 90.6306 42.0144 90.6306C46.8857 90.6651 50.0603 87.9825 50.0603 82.3011C50.0957 77.3607 47.2036 74.749 42.5792 74.749Z" fill="#AEB1CF"/>
<path d="M19.7785 74.6777C16.1442 74.6777 14.0264 78.138 14.0264 82.7603C14.0264 87.4192 16.215 90.6993 19.8148 90.6993C23.4492 90.6993 25.5305 87.2422 25.5305 82.6187C25.5307 78.3486 23.484 74.6777 19.7785 74.6777Z" fill="#AEB1CF"/>
<path d="M48.2261 47.9875V22.3938C48.2261 22.053 47.9466 21.7734 47.6011 21.7734H18.0263C17.6792 21.7734 17.4001 22.053 17.4001 22.3938V47.9875C17.4001 48.332 17.6792 48.6116 18.0263 48.6116H47.6009C47.9466 48.6118 48.2261 48.3322 48.2261 47.9875ZM45.8908 41.3871H44.019C42.9275 38.589 41.5844 34.6698 39.545 35.193C37.1543 35.8039 35.9586 41.3871 35.9586 41.3871C35.9586 41.3871 34.736 35.0855 31.3625 31.7101C27.9891 28.3366 24.7206 41.3871 24.7206 41.3871H20.2547V24.6042H45.8919V41.3872H45.8908V41.3871Z" fill="#AEB1CF"/>
<path d="M24.3914 30.2974C25.5468 30.2974 26.4834 29.3607 26.4834 28.2053C26.4834 27.0499 25.5468 26.1133 24.3914 26.1133C23.236 26.1133 22.2993 27.0499 22.2993 28.2053C22.2993 29.3607 23.236 30.2974 24.3914 30.2974Z" fill="#AEB1CF"/>
<path d="M38.4258 29.6812C38.8961 29.6812 39.3365 29.6314 39.7299 29.5528C40.1858 29.7476 40.7381 29.8664 41.3412 29.8664C42.8817 29.8664 44.1312 29.1115 44.1312 28.1832C44.1312 27.2525 42.8817 26.5 41.3412 26.5C40.7621 26.5 40.2258 26.6048 39.7797 26.7872C39.5969 26.6106 39.3509 26.5 39.0789 26.5H38.6731C38.157 26.5 37.7492 26.892 37.6869 27.3918C36.4375 27.5225 35.5117 27.9744 35.5117 28.5143C35.5115 29.1589 36.8165 29.6812 38.4258 29.6812Z" fill="#AEB1CF"/>
<path d="M56.2923 33.9702L49.8575 32.5283V35.4294L54.0041 36.3575L50.3353 52.7351L48.5094 52.3251C48.4232 51.769 48.3382 51.1725 48.2433 50.5713H21.6244L21.0921 52.9475C21.0169 53.2837 21.2284 53.6187 21.5659 53.6933L50.4254 60.1597C50.7632 60.2343 51.0964 60.0217 51.171 59.6868L56.7661 34.7119C56.8409 34.378 56.6303 34.0457 56.2923 33.9702Z" fill="#AEB1CF"/>
<path d="M51.5041 39.467C51.6737 38.7121 50.9642 37.8934 49.8574 37.4434V40.5741C50.7173 40.4641 51.3701 40.0663 51.5041 39.467Z" fill="#AEB1CF"/>
</svg>
