<svg width="73" height="100" viewBox="0 0 73 100" fill="none" xmlns="http://www.w3.org/2000/svg">
<path d="M25.2915 35.6699H13.5005V38.6111H25.2915V35.6699Z" fill="#AEB1CF"/>
<path d="M37.7915 26.9365H13.5005V29.8777H37.7915V26.9365Z" fill="#AEB1CF"/>
<path d="M46.4924 17.9746H13.5005V20.9158H46.4924V17.9746Z" fill="#AEB1CF"/>
<path d="M25.2915 44.6455H13.5005V47.5867H25.2915V44.6455Z" fill="#AEB1CF"/>
<path d="M25.2915 53.3164H13.5005V56.2574H25.2915V53.3164Z" fill="#AEB1CF"/>
<path d="M43.1397 31.9062C35.7044 31.9062 29.679 37.9336 29.679 45.367C29.679 52.8007 35.7044 58.8268 43.1397 58.8268C50.5731 58.8268 56.599 52.8009 56.599 45.367H43.1397V31.9062Z" fill="#AEB1CF"/>
<path d="M44.9641 43.2447V43.2488H58.4263C58.4263 39.4614 56.8552 36.0468 54.339 33.5996L44.9641 43.2447Z" fill="#AEB1CF"/>
<path d="M44.8238 40.8792L54.3405 31.3607C51.6646 28.6837 48.3231 27.3769 44.8142 27.4272L44.8207 40.8749L44.8238 40.8792Z" fill="#AEB1CF"/>
<path d="M16.3025 75.7031C12.9103 75.7031 10.9329 78.9315 10.9329 83.2476C10.9329 87.5962 12.9759 90.6579 16.3359 90.6579C19.729 90.6579 21.671 87.4297 21.671 83.1165C21.6721 79.1289 19.7611 75.7031 16.3025 75.7031Z" fill="#AEB1CF"/>
<path d="M37.5847 75.7676C36.465 75.7676 35.7408 75.8691 35.3132 75.9667V90.4927C35.7415 90.5922 36.4323 90.5922 37.058 90.5922C41.6037 90.6249 44.5679 88.1201 44.5679 82.818C44.6004 78.2051 41.9006 75.7676 37.5847 75.7676Z" fill="#AEB1CF"/>
<path d="M60.2505 75.7031C59.2289 75.7031 58.5368 75.8028 58.1748 75.9005V82.4549C58.6036 82.5573 59.1303 82.588 59.8551 82.588C62.5232 82.588 64.171 81.24 64.171 78.9651C64.1712 76.921 62.7532 75.7031 60.2505 75.7031Z" fill="#AEB1CF"/>
<path d="M72.8193 23.9636C72.8155 23.5041 72.669 23.0521 72.3542 22.694L53.0735 0.67066C53.0679 0.665031 53.0623 0.66249 53.0583 0.656862C52.9434 0.528503 52.8094 0.421749 52.6678 0.329339C52.6256 0.301198 52.5835 0.277596 52.5394 0.252723C52.4169 0.186274 52.2867 0.130174 52.1527 0.0900507C52.1162 0.0804283 52.0837 0.0655409 52.0474 0.0559186C51.9018 0.0216049 51.7506 0 51.5973 0H4.21306C2.04931 0 0.291504 1.7598 0.291504 3.92174V96.0784C0.291504 98.2402 2.04931 100 4.21306 100H68.9188C71.0808 100 72.8406 98.2404 72.8406 96.0784V24.1824C72.8404 24.1096 72.829 24.0374 72.8193 23.9636ZM4.21306 3.92174H49.6364V23.9852C49.6364 25.0691 50.5154 25.946 51.5973 25.946H68.9188V66.5845H4.21306V3.92174ZM16.0722 94.6422C9.48375 94.6422 5.63064 89.6694 5.63064 83.3446C5.63064 76.6907 9.87972 71.7159 16.4354 71.7159C23.2542 71.7159 26.977 76.8227 26.977 82.9501C26.9756 90.2304 22.5609 94.6422 16.0722 94.6422ZM46.2148 91.6454C43.8768 93.5881 40.319 94.512 35.971 94.512C33.3686 94.512 31.5247 94.3473 30.2718 94.1807V72.3766C32.1168 72.0798 34.5207 71.9151 37.058 71.9151C41.2735 71.9151 44.0078 72.6723 46.1476 74.2874C48.455 75.9993 49.9043 78.7337 49.9043 82.6533C49.9045 86.9043 48.3555 89.8341 46.2148 91.6454ZM67.1017 84.103C65.388 85.7172 62.8528 86.441 59.8887 86.441C59.2289 86.441 58.6363 86.4083 58.175 86.3413V94.2821H53.2012V72.3766C54.7491 72.1122 56.9245 71.9151 59.9862 71.9151C63.0835 71.9151 65.2894 72.5079 66.7743 73.693C68.1884 74.8141 69.145 76.6562 69.145 78.8305C69.1429 81.0067 68.4192 82.8508 67.1017 84.103Z" fill="#AEB1CF"/>
</svg>
