<svg width="74" height="100" viewBox="0 0 74 100" fill="none" xmlns="http://www.w3.org/2000/svg">
<path d="M38.534 75.584C37.4541 75.584 36.7551 75.6778 36.3416 75.7735V89.7844C36.7551 89.8801 37.4234 89.8801 38.0266 89.8801C42.4114 89.9126 45.2704 87.4979 45.2704 82.3825C45.3029 77.9355 42.697 75.584 38.534 75.584Z" fill="#AEB1CF"/>
<path d="M18.0073 75.5186C14.7348 75.5186 12.8301 78.6318 12.8301 82.7949C12.8301 86.9884 14.7996 89.9428 18.0398 89.9428C21.3121 89.9428 23.1868 86.8294 23.1868 82.6685C23.1868 78.8234 21.3439 75.5186 18.0073 75.5186Z" fill="#AEB1CF"/>
<path d="M73.3686 23.9636C73.3648 23.5041 73.2183 23.0521 72.9035 22.694L53.6229 0.67066C53.6172 0.665031 53.6116 0.66249 53.6076 0.656862C53.4927 0.528503 53.3587 0.421749 53.2171 0.329339C53.175 0.301198 53.1328 0.277596 53.0887 0.252723C52.9662 0.186274 52.836 0.130174 52.702 0.0900507C52.6655 0.0804283 52.633 0.0655409 52.5967 0.0559186C52.4511 0.0216049 52.2999 0 52.1466 0H4.76238C2.59862 0 0.84082 1.7598 0.84082 3.92174V96.0784C0.84082 98.2402 2.59862 100 4.76238 100H69.4681C71.6301 100 73.3899 98.2404 73.3899 96.0784V24.1824C73.3897 24.1096 73.3783 24.0374 73.3686 23.9636ZM17.7851 93.7881C11.4321 93.7881 7.71463 88.9897 7.71463 82.8911C7.71463 76.4724 11.8132 71.676 18.136 71.676C24.7115 71.676 28.3012 76.601 28.3012 82.5091C28.3014 89.5296 24.0447 93.7881 17.7851 93.7881ZM46.8578 90.8967C44.6022 92.7714 41.1728 93.66 36.9778 93.66C34.4678 93.66 32.6895 93.5009 31.4827 93.3421V72.3116C33.2611 72.0262 35.5809 71.8653 38.0285 71.8653C42.0938 71.8653 44.7323 72.595 46.7955 74.1516C49.0196 75.8071 50.4173 78.4409 50.4173 82.2246C50.4175 86.3223 48.9239 89.1485 46.8578 90.8967ZM58.8391 93.7576C56.3928 93.7576 53.9773 93.1198 52.7708 92.4535L53.7552 88.4495C55.0582 89.1178 57.06 89.7843 59.1252 89.7843C61.3512 89.7843 62.5252 88.8633 62.5252 87.4655C62.5252 86.1307 61.5083 85.3688 58.9349 84.4477C55.377 83.2088 53.0573 81.2395 53.0573 78.1249C53.0573 74.4715 56.1076 71.676 61.1599 71.676C63.5745 71.676 65.3525 72.1843 66.6248 72.7569L65.544 76.6633C64.686 76.2506 63.161 75.6484 61.0633 75.6484C58.9665 75.6484 57.9498 76.6019 57.9498 77.7134C57.9498 79.0796 59.157 79.682 61.9222 80.7292C65.7029 82.1269 67.4829 84.0984 67.4829 87.1171C67.4805 90.7052 64.7156 93.7576 58.8391 93.7576ZM69.4681 66.5843H4.76238V3.92174H50.1857V23.9852C50.1857 25.0691 51.0648 25.946 52.1466 25.946H69.4681V66.5843Z" fill="#AEB1CF"/>
<path d="M14.2949 28.0947V59.1417H59.9363V28.0947H14.2949ZM57.1501 56.348H41.7262V53.1637H57.1501V56.348ZM40.9296 56.348H33.4679V53.1637H40.9296V56.348ZM32.6711 56.348H25.7054V53.1637H32.6711V56.348ZM24.9093 56.348H17.081V53.1637H24.9093V56.348ZM41.7262 36.7436H57.1501V40.3256H41.7262V36.7436ZM41.7262 41.1232H57.1501V44.3741H41.7262V41.1232ZM41.7262 45.1711H57.1501V48.7516H41.7262V45.1711ZM57.1501 49.5484V52.367H41.7262V49.5484H57.1501ZM33.4672 31.279H40.9298V35.9493H33.4672V31.279V31.279ZM33.4672 36.7436H40.9298V40.3256H33.4672V36.7436V36.7436ZM33.4672 41.1232H40.9298V44.3741H33.4672V41.1232V41.1232ZM33.4672 45.1711H40.9298V48.7516H33.4672V45.1711V45.1711ZM40.9296 49.5484V52.367H33.4679V49.5484H40.9296ZM25.7045 36.7436H32.6702V40.3256H25.7045V36.7436ZM25.7045 41.1232H32.6702V44.3741H25.7045V41.1232ZM25.7045 45.1711H32.6702V48.7516H25.7045V45.1711ZM32.6711 49.5484V52.367H25.7054V49.5484H32.6711ZM17.08 31.279H24.9082V35.9493H17.08V31.279ZM17.08 36.7436H24.9082V40.3256H17.08V36.7436ZM17.08 41.1232H24.9082V44.3741H17.08V41.1232ZM17.08 45.1711H24.9082V48.7516H17.08V45.1711ZM24.9093 49.5484V52.367H17.081V49.5484H24.9093Z" fill="#AEB1CF"/>
</svg>
