<svg width="73" height="100" viewBox="0 0 73 100" fill="none" xmlns="http://www.w3.org/2000/svg">
<path d="M37.5297 75.5205C36.3948 75.5205 35.6575 75.6222 35.2219 75.7215V90.4704C35.6566 90.5721 36.3594 90.5721 36.9955 90.5721C41.6123 90.6046 44.6204 88.0617 44.6204 82.6772C44.6547 77.9964 41.9127 75.5205 37.5297 75.5205Z" fill="#AEB1CF"/>
<path d="M15.9209 75.4541C12.4781 75.4541 10.469 78.7324 10.469 83.1135C10.469 87.5301 12.5427 90.6398 15.9554 90.6398C19.4007 90.6398 21.3718 87.3606 21.3718 82.9795C21.3718 78.9334 19.4327 75.4541 15.9209 75.4541Z" fill="#AEB1CF"/>
<path d="M72.9195 23.9626C72.9137 23.5041 72.7662 23.0521 72.4532 22.6931L53.1717 0.668844C53.1679 0.663579 53.1621 0.660674 53.1564 0.655954C53.0415 0.526687 52.9095 0.421931 52.7677 0.328612C52.7256 0.301379 52.6833 0.275962 52.6394 0.251997C52.5148 0.184459 52.3865 0.130537 52.2525 0.0902322C52.2162 0.0797021 52.1837 0.0639069 52.1454 0.0561001C51.9999 0.0206971 51.8487 0 51.6973 0H4.31121C2.14927 0 0.389648 1.75889 0.389648 3.92174V96.0784C0.389648 98.2402 2.14927 100 4.31121 100H69.017C71.1789 100 72.9387 98.2404 72.9387 96.0784V24.1824C72.9385 24.1087 72.9271 24.0364 72.9195 23.9626ZM15.6875 94.6843C8.99965 94.6843 5.08572 89.6367 5.08572 83.2134C5.08572 76.457 9.39925 71.4056 16.0572 71.4056C22.9797 71.4056 26.7591 76.5912 26.7591 82.8123C26.7582 90.2037 22.2761 94.6843 15.6875 94.6843ZM46.2937 91.6418C43.9193 93.6169 40.3079 94.5523 35.8923 94.5523C33.2503 94.5523 31.3776 94.3856 30.1062 94.2171V72.0759C31.9789 71.7755 34.4199 71.6079 36.9952 71.6079C41.2768 71.6079 44.0533 72.3766 46.2267 74.0158C48.5684 75.7544 50.0392 78.5309 50.0392 82.5118C50.0392 86.8259 48.4691 89.8036 46.2937 91.6418ZM68.0691 76.056H61.9168V94.3186H56.7986V76.056H50.7458V71.7755H68.0691V76.056ZM4.31121 66.5843V3.92174H49.7365V23.9852C49.7365 25.0677 50.6136 25.946 51.6973 25.946H69.017L69.019 66.5845H4.31121V66.5843Z" fill="#AEB1CF"/>
<path d="M29.313 36.869C29.5385 36.5435 29.7936 36.2404 30.0425 35.9316C30.2838 35.6163 30.5609 35.3367 30.8179 35.0326C31.0689 34.7246 31.3662 34.4639 31.6375 34.1776C31.9089 33.8866 32.2101 33.6339 32.5029 33.3692C32.7883 33.0934 33.0979 32.8521 33.4131 32.6143C33.7246 32.3759 34.022 32.1063 34.361 31.91C34.6921 31.7014 35.0202 31.4741 35.361 31.2748C35.7128 31.1025 36.0661 30.922 36.4142 30.7276C36.7617 30.5246 37.1429 30.4242 37.5104 30.2631L38.0716 30.0406C38.2611 29.9768 38.4594 29.9414 38.6516 29.8817C39.0394 29.7778 39.429 29.6533 39.8292 29.5609C40.2313 29.5053 40.6373 29.4532 41.047 29.3813C41.4624 29.2913 41.876 29.2837 42.2974 29.278L43.5784 29.211C43.1727 29.0789 42.7589 28.9658 42.3397 28.8434C41.9203 28.7228 41.4953 28.6132 41.0587 28.5816C40.6238 28.5242 40.1827 28.4859 39.7391 28.4438C39.2987 28.4394 38.8546 28.4692 38.4065 28.4839C37.9526 28.4825 37.5122 28.5629 37.0717 28.6562C36.6357 28.7544 36.1738 28.7995 35.748 28.9472C35.3176 29.0798 34.8864 29.2248 34.4579 29.3786C34.0405 29.5515 33.6366 29.7562 33.2204 29.9472C32.7992 30.1277 32.4254 30.3786 32.0315 30.605C31.6317 30.8247 31.2579 31.0838 30.9002 31.359C30.5384 31.6299 30.1611 31.8875 29.8312 32.1943C29.4961 32.4973 29.1386 32.7789 28.8283 33.1054C28.5129 33.4262 28.1772 33.7321 27.89 34.0785C27.5932 34.418 27.2911 34.7535 27.0168 35.1112C26.9187 35.229 26.8345 35.3583 26.743 35.4808L26.3274 35.0073C25.9962 34.6528 25.6903 34.2682 25.3274 33.9494L24.2265 33.0102C23.8588 32.6967 23.4352 32.4694 23.0431 32.1972L22.4423 31.808L21.8091 31.4868C21.3835 31.2838 20.9717 31.0446 20.5351 30.877L19.2177 30.3915C18.7773 30.2484 18.3274 30.1335 17.8835 30.0052C17.4431 29.8697 16.9892 29.7855 16.5373 29.703C16.0872 29.6112 15.635 29.5442 15.1811 29.4972C14.7292 29.4407 14.2791 29.3813 13.8254 29.3612C12.9173 29.3158 12.0135 29.296 11.1136 29.355C10.2154 29.4062 9.32125 29.5039 8.4458 29.703C9.33051 29.8367 10.1978 29.9903 11.0538 30.178C11.9097 30.3579 12.7581 30.5524 13.5852 30.8004C14.0032 30.9013 14.4129 31.0315 14.8207 31.1622C15.2305 31.2838 15.6341 31.4207 16.0286 31.5807C16.4207 31.7433 16.8285 31.8516 17.2076 32.0344C17.5948 32.2045 17.983 32.3599 18.3588 32.5386L19.4598 33.1192C19.8294 33.2993 20.1606 33.5442 20.5124 33.751C20.8666 33.955 21.1961 34.1885 21.5124 34.4403C21.824 34.6936 22.1754 34.9022 22.4565 35.1856L23.3319 35.9979C23.6212 36.2689 23.8427 36.6001 24.1074 36.8911L24.4957 37.3374C24.6144 37.4933 24.7107 37.6667 24.8192 37.8294L25.4685 38.8145L26.8566 40.9303L28.04 38.79C28.1947 38.5108 28.4191 38.1518 28.6302 37.8339C28.851 37.509 29.0756 37.1869 29.313 36.869Z" fill="#AEB1CF"/>
<path d="M61.1586 41.0703C60.724 41.0124 60.2826 40.9741 59.8393 40.932C59.3968 40.9282 58.9545 40.9574 58.5065 40.9721C58.0528 40.9712 57.6123 41.0516 57.1719 41.1444C56.7352 41.2426 56.2737 41.288 55.8487 41.436C55.4179 41.5681 54.985 41.713 54.5582 41.8672C54.1386 42.0395 53.7367 42.2444 53.3231 42.436C52.8999 42.6159 52.5264 42.8673 52.1319 43.0937C51.7318 43.3134 51.3583 43.5719 51.0003 43.8475C50.6385 44.1181 50.2612 44.3761 49.9319 44.6831C49.5967 44.9855 49.2367 45.2671 48.9266 45.5935C48.6127 45.9144 48.2775 46.2203 47.9903 46.5672C47.6935 46.9065 47.3908 47.2417 47.117 47.5993C47.0194 47.717 46.9351 47.8468 46.8431 47.9694L46.4257 47.4955C46.0963 47.1407 45.7919 46.7564 45.428 46.4381L44.3271 45.499C43.9596 45.1849 43.5335 44.9576 43.1419 44.6861L42.5426 44.2969L41.9088 43.9752C41.4836 43.7722 41.072 43.5329 40.6354 43.3653L39.3199 42.8779C38.8774 42.7348 38.4275 42.6204 37.9834 42.4915C37.543 42.3566 37.0891 42.2722 36.6378 42.19C36.1877 42.0976 35.7358 42.0311 35.2816 41.9841C34.8297 41.9273 34.3796 41.8683 33.9239 41.8477C33.0178 41.8027 32.1138 41.7831 31.2138 41.8419C30.3177 41.8928 29.4215 41.9908 28.5466 42.19C29.4308 42.323 30.2981 42.4772 31.1541 42.6644C32.01 42.8448 32.8584 43.0387 33.6855 43.2867C34.1035 43.3877 34.5132 43.5184 34.9212 43.6486C35.3309 43.7702 35.7343 43.9076 36.1289 44.0674C36.5208 44.2301 36.9282 44.3379 37.3084 44.5213C37.6951 44.6909 38.0829 44.8468 38.4593 45.0249L39.5602 45.6057C39.9297 45.7862 40.2608 46.0313 40.6123 46.2379C40.9665 46.4419 41.2979 46.6751 41.6129 46.9272C41.9252 47.1801 42.2763 47.3887 42.557 47.6722L43.433 48.485C43.722 48.7555 43.9433 49.0866 44.2084 49.3782L44.5962 49.8239C44.7147 49.9799 44.8117 50.1536 44.9197 50.3165L45.5688 51.3018L46.9569 53.4176L48.1403 51.2769C48.2946 50.9973 48.5195 50.6391 48.7291 50.3212C48.9513 49.9957 49.1753 49.6731 49.4119 49.3553C49.6368 49.0298 49.8923 48.7272 50.1414 48.418C50.3827 48.1026 50.6595 47.823 50.9152 47.5189C51.1679 47.2116 51.4656 46.9508 51.7385 46.6643C52.0074 46.373 52.3071 46.1201 52.602 45.8553C52.8874 45.5801 53.1966 45.3388 53.5126 45.1004C53.8238 44.8621 54.1216 44.5926 54.4605 44.3967C54.7937 44.1881 55.1192 43.9603 55.46 43.7611C55.8124 43.5888 56.1648 43.4084 56.5132 43.2145C56.8598 43.0115 57.2428 42.9106 57.6105 42.7497L58.1715 42.5271C58.3601 42.4634 58.5584 42.428 58.7517 42.3683C59.1385 42.2644 59.531 42.14 59.9293 42.048C60.3294 41.9919 60.7372 41.9398 61.149 41.8686C61.5626 41.7786 61.9763 41.7704 62.3964 41.7648L63.6786 41.6981C63.2744 41.5656 62.8579 41.453 62.4387 41.3305C62.0204 41.2114 61.5954 41.1014 61.1586 41.0703Z" fill="#AEB1CF"/>
</svg>
