<svg width="73" height="100" viewBox="0 0 73 100" fill="none" xmlns="http://www.w3.org/2000/svg">
<path d="M35.7543 75.1934C34.699 75.1934 34.0156 75.2873 33.6111 75.3809V89.0663C34.0145 89.16 34.6656 89.16 35.2558 89.16C39.5393 89.1909 42.3331 86.8315 42.3331 81.8358C42.3637 77.4909 39.8189 75.1934 35.7543 75.1934Z" fill="#AEB1CF"/>
<path d="M72.5277 23.9636C72.5239 23.5059 72.3776 23.0522 72.0626 22.6942L52.7824 0.669717C52.7767 0.663516 52.7711 0.661692 52.767 0.655856C52.6521 0.527457 52.5181 0.422586 52.3764 0.328475C52.3342 0.302029 52.2919 0.276678 52.248 0.251874C52.1254 0.185303 51.995 0.131135 51.8611 0.0910101C51.8247 0.0795198 51.7924 0.0645642 51.7559 0.0550802C51.6105 0.0206095 51.459 0 51.306 0H3.92164C1.75783 0 0 1.75983 0 3.92164V96.0785C0 98.2405 1.75783 100 3.92164 100H68.6272C70.789 100 72.5491 98.2405 72.5491 96.0785V24.1833C72.5492 24.1087 72.5374 24.0365 72.5277 23.9636ZM15.4852 92.9754C9.27737 92.9754 5.647 88.2909 5.647 82.3318C5.647 76.0618 9.64907 71.3743 15.8266 71.3743C22.251 71.3743 25.7569 76.1864 25.7569 81.9605C25.7558 88.8163 21.5989 92.9754 15.4852 92.9754ZM43.8842 90.1519C41.6802 91.9844 38.3293 92.8522 34.2315 92.8522C31.7806 92.8522 30.0423 92.6988 28.8619 92.5415V71.9973C30.6002 71.7179 32.8658 71.5629 35.255 71.5629C39.2292 71.5629 41.8044 72.2771 43.8222 73.7975C45.9933 75.4109 47.3579 77.9861 47.3579 81.6809C47.3595 85.6828 45.9023 88.445 43.8842 90.1519ZM60.4588 92.6357L58.5669 88.8481C57.7916 87.3908 57.2938 86.3033 56.704 85.0929H56.6425C56.2077 86.3033 55.6795 87.3908 55.0283 88.8481L53.2896 92.6357H47.8897L53.9427 82.0524L48.108 71.7181H53.5387L55.3691 75.5362C55.9896 76.8079 56.4558 77.8324 56.9517 79.0119H57.0139C57.512 77.6772 57.9141 76.7468 58.4423 75.5362L60.2118 71.7181H65.6117L59.7139 81.9297L65.9217 92.6357H60.4588ZM3.92164 66.5853V3.92164H49.3451V23.9869C49.3451 25.0694 50.2241 25.9477 51.306 25.9477H68.6274V66.5858H3.92164V66.5853Z" fill="#AEB1CF"/>
<path d="M15.7021 75.1309C12.5058 75.1309 10.6431 78.1745 10.6431 82.2388C10.6431 86.3357 12.5674 89.2185 15.7323 89.2185C18.9305 89.2185 20.7605 86.1766 20.7605 82.1144C20.7605 78.3572 18.9607 75.1309 15.7021 75.1309Z" fill="#AEB1CF"/>
<path d="M41.0809 36.338H42.4829L37.3201 38.7329C36.4623 37.3043 34.9148 36.338 33.1287 36.338C32.6711 36.338 32.2345 36.4221 31.8152 36.539L28.2709 29.0598H30.5974V23.9951H19.3229V29.0598H27.1866L30.8994 36.8968C29.3198 37.7105 28.2258 39.3401 28.2258 41.2402C28.2258 42.4813 28.7002 43.5986 29.4608 44.4627L23.9462 50.3913H15.9287V55.4563H27.2032V50.3913H25.2845L30.1764 45.1334C31.0005 45.7575 32.0147 46.1419 33.1278 46.1419C35.8353 46.1419 38.0298 43.948 38.0298 41.2402C38.0298 40.6695 37.9127 40.1313 37.7341 39.6226L44.8123 36.3382H52.3537V31.2734H41.0792V36.3382H41.0809V36.338Z" fill="#AEB1CF"/>
</svg>
