<svg width="74" height="100" viewBox="0 0 74 100" fill="none" xmlns="http://www.w3.org/2000/svg">
<path d="M15.2284 76.1162C11.9919 76.1162 10.1057 79.1972 10.1057 83.3141C10.1057 87.4608 12.0527 90.3856 15.2586 90.3856C18.4969 90.3856 20.3497 87.3036 20.3497 83.1895C20.3497 79.3869 18.5273 76.1162 15.2284 76.1162Z" fill="#AEB1CF"/>
<path d="M73.0767 23.9636C73.0728 23.5041 72.9263 23.0521 72.6115 22.694L53.3309 0.669752C53.3252 0.663397 53.3196 0.661582 53.3156 0.655772C53.2007 0.527595 53.0667 0.420842 52.9251 0.328431C52.883 0.300108 52.8408 0.276688 52.7967 0.251815C52.6742 0.185185 52.544 0.129266 52.41 0.0891429C52.3735 0.0795205 52.341 0.0648147 52.3047 0.0551923C52.1591 0.0206971 52.0079 0 51.8546 0H4.47039C2.30663 0 0.548828 1.7598 0.548828 3.92174V96.0784C0.548828 98.2402 2.30663 100 4.47039 100H69.1762C71.3381 100 73.0979 98.2404 73.0979 96.0784V24.1824C73.0977 24.1087 73.0863 24.0364 73.0767 23.9636ZM15.0076 94.1885C8.72129 94.1885 5.04483 89.4416 5.04483 83.4098C5.04483 77.0603 9.09892 72.3134 15.3547 72.3134C21.8592 72.3134 25.4113 77.1867 25.4113 83.0307C25.4104 89.9759 21.1998 94.1885 15.0076 94.1885ZM46.2519 92.8673C44.7735 93.3707 41.9759 94.0621 39.1786 94.0621C35.3126 94.0621 32.5164 93.0875 30.5675 91.2014C28.6201 89.3784 27.5497 86.6124 27.5824 83.5008C27.6125 76.4619 32.737 72.4398 39.6822 72.4398C42.4166 72.4398 44.5228 72.9739 45.5587 73.4777L44.5535 77.311C43.3913 76.8067 41.9456 76.3987 39.619 76.3987C35.6294 76.3987 32.6116 78.6631 32.6116 83.25C32.6116 87.6177 35.346 90.195 39.2752 90.195C40.3743 90.195 41.2561 90.0705 41.6314 89.8818V85.4501H38.3628V81.7086H46.2519V92.8673V92.8673ZM67.6865 92.8673C66.2101 93.3707 63.4125 94.0621 60.6152 94.0621C56.751 94.0621 53.9534 93.0875 52.0041 91.2014C50.0549 89.3784 48.9883 86.6124 49.019 83.5008C49.0496 76.4619 54.1736 72.4398 61.1188 72.4398C63.8532 72.4398 65.9594 72.9739 66.9973 73.4777L65.9901 77.311C64.8279 76.8067 63.3822 76.3987 61.0556 76.3987C57.0651 76.3987 54.0473 78.6631 54.0473 83.25C54.0473 87.6177 56.7817 90.195 60.7118 90.195C61.81 90.195 62.6927 90.0705 63.068 89.8818V85.4501H59.7994V81.7086H67.6865V92.8673V92.8673ZM4.47039 66.5843V3.92174H49.8937V23.9852C49.8937 25.0686 50.7728 25.946 51.8546 25.946H69.1762V66.5845H4.47039V66.5843Z" fill="#AEB1CF"/>
<path d="M27.9351 50.1544C26.9685 49.8149 25.8153 49.756 24.6377 50.0491C22.0182 50.7037 20.3046 52.8619 20.8065 54.8706C21.0996 56.7299 23.8396 57.9746 26.4534 57.3178C28.7555 56.747 30.3574 55.0046 30.3692 53.2277H30.373L30.4347 34.4757L43.9615 32.0023V47.0778C42.9793 46.7306 41.8018 46.6698 40.6066 46.9652C37.9605 47.6277 36.229 49.804 36.737 51.8385C37.2444 53.8653 39.7969 54.9732 42.4432 54.3181C44.8539 53.7092 46.3973 52.0538 46.3973 49.9844V24.96L27.9358 27.9552V50.1542H27.9351V50.1544Z" fill="#AEB1CF"/>
</svg>
