<svg width="73" height="100" viewBox="0 0 73 100" fill="none" xmlns="http://www.w3.org/2000/svg">
<path d="M72.6279 23.9626C72.6222 23.5041 72.4767 23.0522 72.1617 22.6932L52.8805 0.668805C52.8767 0.663516 52.8692 0.66078 52.8652 0.656038C52.7503 0.526728 52.6182 0.421856 52.4763 0.328658C52.4344 0.301482 52.3901 0.275766 52.3461 0.252056C52.2236 0.184574 52.0952 0.130405 51.9593 0.0900981C51.9248 0.0795198 51.8905 0.0638347 51.8541 0.0561745C51.7087 0.0206095 51.5571 0 51.4061 0H4.01979C1.85798 0 0.0981445 1.75892 0.0981445 3.92164V96.0785C0.0981445 98.2405 1.85798 100 4.01979 100H68.7254C70.8872 100 72.6472 98.2405 72.6472 96.0785V24.1824C72.6474 24.1087 72.6355 24.0365 72.6279 23.9626ZM17.9139 94.6959C10.8543 94.6959 6.72784 89.369 6.72784 82.5923C6.72784 75.4634 11.2794 70.1345 18.3029 70.1345C25.608 70.1345 29.5951 75.6049 29.5951 82.1691C29.5942 89.9683 24.8669 94.6959 17.9139 94.6959ZM48.6182 75.0401H42.1245V94.309H36.7269V75.0401H30.3385V70.5229H48.618V75.0401H48.6182ZM66.0182 74.9348H56.8786V80.369H65.4186V84.7444H56.8786V94.309H51.4787V70.5229H66.0184V74.9348H66.0182ZM4.01979 66.5843V3.92164H49.4451V23.9851C49.4451 25.0675 50.3224 25.9459 51.4061 25.9459H68.7256L68.7276 66.5842H4.01979V66.5843Z" fill="#AEB1CF"/>
<path d="M18.1609 74.4043C14.5265 74.4043 12.4072 77.8643 12.4072 82.4869C12.4072 87.1455 14.5973 90.4255 18.1972 90.4255C21.8316 90.4255 23.9112 86.9684 23.9112 82.3461C23.9112 78.075 21.8659 74.4043 18.1609 74.4043Z" fill="#AEB1CF"/>
<path d="M46.5156 49.7021C46.0135 48.6541 45.6271 46.4799 45.3551 43.1787L44.1641 28.9828L43.896 22.1406L39.7081 22.9004C38.3525 23.0101 37.3413 23.0857 36.6696 23.1268C33.3166 23.3593 30.757 23.8731 28.9915 24.6683C27.2275 25.4635 25.694 26.7995 24.3944 28.676C23.2169 30.3602 22.4983 32.4919 22.2384 35.0672L26.262 33.0728C26.262 30.416 27.0395 28.3711 28.5943 26.9397C30.1471 25.5084 32.3551 24.7927 35.2158 24.7927C36.2829 24.7927 37.5618 24.8808 39.0535 25.0595L30.2051 40.3518C27.7422 44.6214 25.6249 47.5955 23.8521 49.272C22.0786 50.9485 20.1876 51.7873 18.1747 51.7873C16.0688 51.7873 14.3637 50.7876 13.0621 48.7898L10.2913 51.5823C12.1395 53.2376 14.3296 54.0656 16.8609 54.0656C19.5303 54.0656 21.8297 53.3162 23.7578 51.8177C25.6902 50.3204 27.7355 47.6955 29.8971 43.9449H41.087L41.9276 54.0656L51.3525 52.5052L51.6177 51.1502C50.2494 51.2325 49.448 51.2739 49.2173 51.2739C47.9133 51.2728 47.0154 50.749 46.5156 49.7021ZM30.7776 42.4238L39.628 26.9908L40.9414 42.4247H30.7776V42.4238Z" fill="#AEB1CF"/>
</svg>
