<svg width="74" height="100" viewBox="0 0 74 100" fill="none" xmlns="http://www.w3.org/2000/svg">
<path d="M10.3877 77.5879C9.69566 77.5879 9.22508 77.6549 8.97998 77.7219V82.1643C9.2701 82.2304 9.62722 82.2524 10.1183 82.2524C11.927 82.2524 13.0419 81.3381 13.0419 79.7976C13.0428 78.4132 12.0829 77.5879 10.3877 77.5879Z" fill="#AEB1CF"/>
<path d="M22.8672 77.6768H22.8222C22.5976 78.5691 22.375 79.7076 22.1308 80.5796L21.2375 83.7717H24.5631L23.6257 80.5796C23.3574 79.6864 23.0907 78.5711 22.8672 77.6768Z" fill="#AEB1CF"/>
<path d="M73.1773 23.9636C73.1715 23.505 73.026 23.0521 72.7111 22.694L53.4295 0.67066C53.4257 0.664487 53.4199 0.66249 53.4142 0.656862C53.2993 0.528503 53.1673 0.422657 53.0255 0.329339C52.9834 0.302105 52.9411 0.277596 52.8972 0.252723C52.7726 0.186274 52.6443 0.131082 52.5103 0.0907769C52.474 0.0802468 52.4415 0.0653594 52.405 0.0559186C52.2577 0.0206971 52.1083 0 51.9551 0H4.56902C2.40708 0 0.647461 1.7598 0.647461 3.92174V96.0784C0.647461 98.2413 2.40708 100 4.56902 100H69.2748C71.4385 100 73.1965 98.2413 73.1965 96.0784V24.1833C73.1963 24.1096 73.1849 24.0374 73.1773 23.9636ZM10.1416 84.8651C9.69537 84.8651 9.29251 84.8452 8.97987 84.7992V90.1788H5.60933V75.3339C6.65707 75.1551 8.13074 75.0209 10.2063 75.0209C12.3054 75.0209 13.8003 75.4231 14.8052 76.2273C15.7651 76.9855 16.4112 78.2359 16.4112 79.7085C16.4112 81.1829 15.921 82.4332 15.0287 83.2825C13.8678 84.3749 12.1483 84.8651 10.1416 84.8651ZM26.2151 90.1787L25.0534 86.3167H20.7455L19.6727 90.1787H16.1474L20.7464 75.1329H25.2113L29.8769 90.1787H26.2151ZM43.8957 89.4857C42.8475 89.8419 40.8607 90.3339 38.8752 90.3339C36.1278 90.3339 34.1418 89.6425 32.7583 88.3023C31.374 87.0089 30.6142 85.0443 30.6376 82.8337C30.6601 77.8341 34.2977 74.9772 39.2313 74.9772C41.173 74.9772 42.6684 75.3564 43.4056 75.7125L42.6913 78.4363C41.8651 78.0792 40.8387 77.7883 39.1872 77.7883C36.3524 77.7883 34.21 79.3967 34.21 82.6558C34.21 85.7578 36.1512 87.5875 38.9421 87.5875C39.7233 87.5875 40.3484 87.4984 40.6156 87.3644V84.2164H38.2948V81.5607H43.8976V89.486H43.8957V89.4857ZM56.1544 90.1787H46.5564V75.134H55.8414V77.9238H49.9716V81.0498H55.5063V83.8167H49.9716V87.3889H56.1555V90.1787H56.1544ZM62.1611 90.402C60.4426 90.402 58.747 89.9548 57.897 89.4857L58.5883 86.6738C59.5056 87.142 60.9101 87.6111 62.3623 87.6111C63.9248 87.6111 64.7501 86.9648 64.7501 85.9824C64.7501 85.0441 64.0368 84.508 62.2301 83.8617C59.7294 82.9904 58.1 81.607 58.1 79.4192C58.1 76.8513 60.2427 74.8878 63.7919 74.8878C65.4894 74.8878 66.7387 75.245 67.631 75.6471L66.8726 78.392C66.2704 78.1019 65.198 77.6769 63.7247 77.6769C62.2512 77.6769 61.537 78.3481 61.537 79.1284C61.537 80.0875 62.3872 80.5118 64.3287 81.2491C66.9856 82.2304 68.235 83.6148 68.235 85.7355C68.233 88.2582 66.2915 90.402 62.1611 90.402ZM4.56902 66.5852V3.92174H49.9943V23.9862C49.9943 25.0684 50.8714 25.9469 51.9551 25.9469H69.2748L69.2768 66.5852H4.56902Z" fill="#AEB1CF"/>
<path d="M48.993 21.0259H46.7143V17.7309L41.0751 12.0898H17.6846V51.8895H25.6023V60.8261H54.632V26.6673L48.993 21.0259ZM49.4142 23.484L52.654 26.7249H49.4142V23.484V23.484ZM41.4974 14.5475L44.7363 17.789H41.4974V14.5475ZM19.125 13.5288H40.0584V19.228H45.2762V50.4514H19.125V13.5288ZM53.1921 59.3871H27.0413V51.8895H46.7143V22.4653H47.9741V28.1643H53.192V59.3871H53.1921Z" fill="#AEB1CF"/>
</svg>
