<svg width="73" height="100" viewBox="0 0 73 100" fill="none" xmlns="http://www.w3.org/2000/svg">
<path d="M15.6002 74.9404C14.545 74.9404 13.8323 75.0419 13.459 75.1434V81.9046C13.8994 82.0061 14.4432 82.0395 15.1905 82.0395C17.9426 82.0395 19.6405 80.6474 19.6405 78.3037C19.6414 76.1966 18.1794 74.9404 15.6002 74.9404Z" fill="#AEB1CF"/>
<path d="M72.7261 23.9636C72.7205 23.505 72.5749 23.0517 72.2599 22.694L52.9774 0.67066C52.9736 0.664487 52.9678 0.66249 52.9613 0.656862C52.8472 0.528503 52.7142 0.422294 52.5735 0.329339C52.5313 0.301561 52.489 0.277233 52.4451 0.252723C52.3206 0.186274 52.1922 0.131082 52.0573 0.0907769C52.021 0.0802468 51.9894 0.0653594 51.9529 0.0553739C51.8066 0.0216049 51.6553 0 51.503 0H4.11785C1.95609 0 0.196289 1.7598 0.196289 3.92174V96.0784C0.196289 98.2413 1.95591 100 4.11785 100H68.8236C70.9874 100 72.7452 98.2413 72.7452 96.0784V24.1833C72.7452 24.1096 72.7337 24.0374 72.7261 23.9636ZM22.6648 83.6031C20.8989 85.2662 18.2832 86.0138 15.2257 86.0138C14.5459 86.0138 13.9356 85.9795 13.4597 85.9123V94.0982H8.33026V71.5111C9.92539 71.2393 12.1694 71.0364 15.3295 71.0364C18.5216 71.0364 20.7957 71.6471 22.3242 72.8708C23.7872 74.0244 24.7714 75.9269 24.7714 78.1692C24.7714 80.4116 24.0234 82.3107 22.6648 83.6031ZM39.7826 90.1567C41.346 90.1567 43.0771 89.8168 44.0958 89.4091L44.877 93.453C43.9253 93.9259 41.7855 94.4374 39.0014 94.4374C31.0875 94.4374 27.0112 89.5124 27.0112 82.9904C27.0112 75.176 32.5838 70.8294 39.5118 70.8294C42.1955 70.8294 44.2329 71.3733 45.151 71.8481L44.0978 75.9594C43.0446 75.5169 41.5837 75.109 39.7483 75.109C35.6396 75.109 32.4457 77.5877 32.4457 82.685C32.4455 87.2702 35.163 90.1567 39.7826 90.1567ZM64.613 75.5514H58.361V94.0984H53.1661V75.5514H47.0166V71.2028H64.6119V75.5514H64.613ZM4.11785 66.5852V3.92174H49.5433V23.9862C49.5433 25.0684 50.4202 25.9469 51.5041 25.9469H68.8236L68.8256 66.5852H4.11785Z" fill="#AEB1CF"/>
<path d="M47.6496 33.8936C47.6153 33.8936 47.5826 33.8936 47.5474 33.8945L45.8241 19.6191L33.8384 28.6135H14.3904V49.474H35.25V47.9125C36.0058 54.082 41.2769 58.8767 47.6476 58.8767C54.5352 58.8767 60.1399 53.273 60.1399 46.3858C60.1419 39.4978 54.5363 33.8936 47.6496 33.8936ZM15.371 48.4945V29.5948H32.5222L23.8417 36.0218L34.2698 40.5514V48.4955H15.371V48.4945ZM35.2502 40.9769L36.2229 41.3996C35.7328 42.5142 35.3991 43.6917 35.2502 44.8907V40.9769ZM47.6496 57.8974C41.301 57.8974 36.1396 52.7342 36.1396 46.3871C36.1396 44.8164 36.4935 43.2496 37.1334 41.7948L48.8694 46.8931L47.4974 34.8813C47.549 34.8789 47.5998 34.8742 47.6496 34.8742C53.9983 34.8742 59.1615 40.0389 59.1615 46.386C59.1615 52.7331 53.9972 57.8974 47.6496 57.8974Z" fill="#AEB1CF"/>
</svg>
