<svg width="74" height="100" viewBox="0 0 74 100" fill="none" xmlns="http://www.w3.org/2000/svg">
<path d="M62.1125 77.5597C62.1125 75.7808 60.753 74.8398 58.346 74.8398C57.1951 74.8398 56.5337 74.9077 56.0798 74.9787V80.4551H57.8224C60.6123 80.4549 62.1125 79.3042 62.1125 77.5597Z" fill="#14988B"/>
<path d="M13.7422 74.9785C12.6607 74.9785 11.9283 75.0829 11.5454 75.1871V82.1283C11.9984 82.2327 12.5559 82.2672 13.3228 82.2672C16.1472 82.2672 17.892 80.8378 17.892 78.4308C17.8929 76.2692 16.3933 74.9785 13.7422 74.9785Z" fill="#14988B"/>
<path d="M34.2824 75.0479C33.0981 75.0479 32.3293 75.1512 31.8765 75.2574V90.6382C32.3294 90.7417 33.0618 90.7417 33.7249 90.7417C38.5373 90.777 41.6767 88.1281 41.6767 82.5097C41.7118 77.629 38.8521 75.0479 34.2824 75.0479Z" fill="#14988B"/>
<path d="M57.8932 84.2559H56.0798V90.8811C56.6027 90.9521 57.2307 90.9521 58.1383 90.9521C60.5453 90.9521 62.6717 90.0443 62.6717 87.5685C62.6708 85.1961 60.5442 84.2559 57.8932 84.2559Z" fill="#14988B"/>
<path d="M73.2749 23.9646C73.2693 23.5059 73.1246 23.053 72.8098 22.6951L53.5273 0.67066C53.5235 0.664487 53.5177 0.66249 53.5119 0.656862C53.397 0.528503 53.265 0.422657 53.1232 0.329339C53.0811 0.302105 53.039 0.277233 52.9948 0.252723C52.8703 0.186274 52.7421 0.131082 52.6081 0.0907769C52.5718 0.0802468 52.5391 0.0653594 52.5028 0.0559186C52.3554 0.0216049 52.2062 0 52.0529 0H4.66668C2.50492 0 0.745117 1.7598 0.745117 3.92174V96.0784C0.745117 98.2413 2.50474 100 4.66668 100H69.3724C71.5362 100 73.294 98.2413 73.294 96.0784V24.1842C73.294 24.1096 73.2826 24.0374 73.2749 23.9646ZM20.996 83.8724C19.1826 85.5803 16.4971 86.3473 13.3578 86.3473C12.6609 86.3473 12.0323 86.3128 11.5454 86.2439V94.6491H6.27779V71.4556C7.91685 71.178 10.2199 70.9681 13.4631 70.9681C16.7413 70.9681 19.0773 71.5952 20.647 72.8514C22.1474 74.0365 23.1588 75.9897 23.1588 78.2914C23.1587 80.595 22.3914 82.5463 20.996 83.8724ZM43.4208 91.86C40.944 93.9165 37.1775 94.894 32.5733 94.894C29.8173 94.894 27.8656 94.7188 26.5392 94.5445V71.4565C28.4927 71.1435 31.0381 70.9692 33.7245 70.9692C38.1875 70.9692 41.0846 71.7706 43.35 73.4795C45.7913 75.2938 47.3253 78.1889 47.3253 82.3394C47.3262 86.8355 45.6871 89.9412 43.4208 91.86ZM65.8091 92.7656C64.1001 94.1262 61.2414 94.894 56.5662 94.894C53.9525 94.894 51.9976 94.7188 50.8122 94.5445V71.4565C52.2082 71.178 55.0315 70.9692 57.6836 70.9692C60.9264 70.9692 62.914 71.2824 64.6241 72.2942C66.2632 73.1665 67.4485 74.7702 67.4485 76.8975C67.4485 78.9902 66.2278 80.9434 63.5778 81.92V81.989C66.2633 82.7223 68.2508 84.7444 68.2508 87.7774C68.2524 89.9058 67.2739 91.5804 65.8091 92.7656ZM4.66668 66.5863V3.92247H50.0922V23.9871C50.0922 25.0695 50.9691 25.9478 52.0529 25.9478H69.3724L69.3744 66.5863H4.66668V66.5863Z" fill="#14988B"/>
<path d="M51.737 31.7442H43.3251V31.1256C43.3251 30.5708 43.1642 30.0069 42.8407 29.4521L42.7986 29.3813C43.1337 28.8355 43.3251 28.2578 43.3251 27.6561V23.7504C43.3251 23.2219 43.1777 22.6834 42.8866 22.1511L42.8523 22.0893C42.9393 21.8524 42.9998 21.6091 42.9998 21.3502C42.9998 18.1945 36.1797 16.4902 29.7607 16.4902C23.3485 16.4902 16.5297 18.1945 16.5297 21.3502C16.5297 21.6091 16.5897 21.8524 16.6768 22.0893L16.6423 22.1511C16.3493 22.6834 16.2042 23.2219 16.2042 23.7504V27.6561C16.2042 28.2569 16.3934 28.8332 16.7284 29.3795L16.6843 29.4541C16.3649 30.0089 16.204 30.5708 16.204 31.1256V35.0316C16.204 35.6136 16.382 36.1708 16.6999 36.7031L16.6841 36.7277C16.3647 37.2805 16.2039 37.8444 16.2039 38.3972V42.3032C16.2039 45.7727 22.1585 48.4923 29.7603 48.4923C31.4478 48.4923 33.0457 48.3511 34.5234 48.106V60.1374H56.0776V36.2028L51.737 31.7442ZM52.0203 33.4401L54.5469 36.0341H52.0203V33.4401ZM34.5236 46.639C33.088 46.8941 31.49 47.0423 29.7605 47.0423C22.6263 47.0423 17.655 44.5454 17.655 42.305V38.6303C19.8814 40.6695 24.4618 41.9716 29.7605 41.9716C31.4433 41.9716 33.0392 41.8277 34.5236 41.5835V46.639ZM34.5236 39.3665C33.088 39.6216 31.49 39.7696 29.7605 39.7696C22.6263 39.7696 17.655 37.2727 17.655 35.0323V31.3578C19.8814 33.3971 24.4618 34.6992 29.7605 34.6992C31.4433 34.6992 33.0392 34.555 34.5236 34.3108V39.3665ZM34.5236 31.9021V31.9902C33.088 32.2444 31.49 32.3923 29.7605 32.3923C22.6263 32.3923 17.655 29.8969 17.655 27.6569V24.406C19.8302 26.25 24.8754 27.205 29.7605 27.205C34.6528 27.205 39.6947 26.2491 41.8718 24.406V27.6569C41.8718 29.1988 39.5079 30.86 35.706 31.7451H34.5236V31.9021ZM41.8718 31.3558V31.7442H41.3816C41.5559 31.6186 41.7243 31.4913 41.8718 31.3558ZM55.0976 59.1586H35.5041V32.7244H51.04V37.0147H55.0994V59.1586H55.0976Z" fill="#14988B"/>
<path d="M37.9458 47.9049L42.9995 50.9144V49.4837L39.1776 47.3381V47.3109L42.9995 45.1656V43.7354L37.9458 46.7446V47.9049Z" fill="#14988B"/>
<path d="M43.7791 51.4548H44.8437L47.0955 41.6709H46.0329L43.7791 51.4548Z" fill="#14988B"/>
<path d="M47.7063 45.1656L51.6113 47.3109V47.3381L47.7063 49.4837V50.9144L52.7595 47.945V46.7043L47.7063 43.7354V45.1656Z" fill="#14988B"/>
</svg>
