<svg width="73" height="100" viewBox="0 0 73 100" fill="none" xmlns="http://www.w3.org/2000/svg">
<path d="M35.1053 75.29C33.9047 75.29 33.1293 75.3962 32.6702 75.5016V91.0644C33.1302 91.1707 33.8713 91.1707 34.5409 91.1707C39.4098 91.2051 42.5864 88.5244 42.5864 82.8421C42.6209 77.901 39.7279 75.29 35.1053 75.29Z" fill="#D62D30"/>
<path d="M14.3167 75.2207C13.2234 75.2207 12.4823 75.326 12.093 75.4313V82.4549C12.5525 82.5602 13.1175 82.5965 13.8909 82.5965C16.7517 82.5965 18.5153 81.149 18.5153 78.7142C18.5155 76.5266 16.9971 75.2207 14.3167 75.2207Z" fill="#D62D30"/>
<path d="M72.8238 23.9636C72.818 23.505 72.6725 23.0521 72.3575 22.694L53.076 0.67066C53.0722 0.664487 53.0647 0.66249 53.0607 0.656862C52.9458 0.528503 52.8138 0.422657 52.672 0.329339C52.6299 0.302105 52.5858 0.277596 52.5417 0.252723C52.4191 0.186274 52.2908 0.131082 52.155 0.0907769C52.1205 0.0802468 52.086 0.0653594 52.0497 0.0559186C51.9042 0.0206971 51.753 0 51.6016 0H4.21551C2.05356 0 0.293945 1.7598 0.293945 3.92174V96.0784C0.293945 98.2413 2.05356 100 4.21551 100H68.9213C71.0832 100 72.843 98.2413 72.843 96.0784V24.1833C72.8428 24.1096 72.8314 24.0374 72.8238 23.9636ZM21.6557 84.2179C19.8213 85.9468 17.1038 86.7244 13.9272 86.7244C13.2224 86.7244 12.5853 86.6881 12.0931 86.6191V95.1229H6.76452V71.6547C8.42229 71.3733 10.7527 71.1607 14.0352 71.1607C17.3516 71.1607 19.7164 71.7963 21.3039 73.0659C22.8222 74.2664 23.8429 76.2426 23.8429 78.571C23.8429 80.9013 23.0684 82.8775 21.6557 84.2179ZM44.3483 92.3005C41.8456 94.3818 38.0343 95.3698 33.3774 95.3698C30.5889 95.3698 28.6138 95.1937 27.2705 95.0176V71.6547C29.2471 71.3388 31.8244 71.1607 34.541 71.1607C39.0557 71.1607 41.9854 71.9726 44.2804 73.7016C46.7514 75.5369 48.3044 78.4657 48.3044 82.6649C48.3024 87.2184 46.6441 90.3588 44.3483 92.3005ZM66.3744 75.7488H57.233V81.183H65.7731V85.5603H57.233V95.1229H51.8352V71.3388H66.3744V75.7488ZM4.21551 66.5852V3.92174H49.6408V23.9862C49.6408 25.0684 50.5179 25.9469 51.6016 25.9469H68.9213L68.9233 66.5852H4.21551Z" fill="#D62D30"/>
<path d="M56.6854 42.1457C56.5704 42.135 53.8074 41.8829 49.5661 41.8829C48.2373 41.8829 46.8989 41.9088 45.5775 41.9586C37.2019 35.6732 30.3417 29.3829 26.6691 25.8576C26.7361 25.4695 26.7822 25.1627 26.8036 24.927C27.288 19.8135 26.7495 16.3615 25.2085 14.6665C24.1994 13.5588 22.7174 13.1903 21.172 13.6124C20.2123 13.8638 18.4358 14.7949 17.867 16.6901C17.239 18.7845 18.2484 21.3264 20.9004 24.2741C20.9425 24.3188 21.8425 25.2618 23.4777 26.8596C22.4149 31.9274 19.6328 42.8632 18.2829 48.1147C15.1124 49.8088 12.4708 51.8494 10.4258 54.1904L10.2918 54.3436L10.2052 54.5275C9.99462 54.97 8.98791 57.2666 9.74372 59.1116C10.0889 59.9504 10.7355 60.5631 11.6141 60.8848L11.8496 60.9482C11.8496 60.9482 12.062 60.9941 12.4354 60.9941C14.0712 60.9941 18.109 60.1345 20.2747 52.1533L20.7994 50.1312C28.3592 46.4567 37.8088 45.2714 44.6583 44.9411C48.1816 47.5539 51.6875 49.954 55.0846 52.0795L55.1955 52.1437C55.3602 52.228 56.8498 52.9634 58.5944 52.9651C61.0875 52.9651 62.9085 51.4351 63.5864 48.7688L63.6207 48.5865C63.8103 47.0628 63.4274 45.6893 62.514 44.6156C60.5898 42.3538 57.0072 42.1566 56.6854 42.1457ZM12.4964 58.0515C12.4812 58.0333 12.4739 58.0163 12.4663 57.997C12.3036 57.6054 12.4988 56.6555 12.786 55.9596C14.0191 54.5809 15.4993 53.3153 17.2074 52.1759C15.544 57.5604 13.125 58.0259 12.4964 58.0515ZM23.0578 22.2765C20.5033 19.433 20.5416 18.0232 20.6791 17.5487C20.9046 16.7554 21.9223 16.4557 21.9311 16.453C22.4438 16.3135 22.7549 16.341 23.032 16.6451C23.6585 17.3333 24.1967 19.4105 23.9841 23.2206C23.3809 22.6146 23.0578 22.2765 23.0578 22.2765ZM21.7379 46.4909L21.782 46.3224L21.7762 46.3244C23.0552 41.3148 24.8998 33.9795 25.9605 29.2676L25.9988 29.3041L26.0026 29.2816C29.434 32.5129 34.6954 37.2393 40.9951 42.155L40.9243 42.1579L41.0285 42.2365C35.0939 42.7378 28.0057 43.9077 21.7379 46.4909ZM60.7124 48.1343C60.2605 49.7948 59.3912 50.0217 58.5946 50.0217C57.6697 50.0217 56.7794 49.6368 56.5764 49.5439C54.2632 48.094 51.8967 46.5141 49.5087 44.8238C49.5278 44.8238 49.545 44.8238 49.5661 44.8238C53.6599 44.8238 56.3867 45.0724 56.4938 45.08C57.1775 45.1054 59.3413 45.425 60.2738 46.5212C60.6394 46.9509 60.7794 47.4645 60.7124 48.1343Z" fill="#D62D30"/>
</svg>
