<svg width="74" height="100" viewBox="0 0 74 100" fill="none" xmlns="http://www.w3.org/2000/svg">
<path d="M21.7795 73.8633C20.6589 73.8633 19.9011 73.9726 19.5051 74.0806V81.2649C19.9746 81.3722 20.5521 81.4076 21.3454 81.4076C24.2687 81.4076 26.0745 79.9285 26.0745 77.4372C26.0734 75.1988 24.5206 73.8633 21.7795 73.8633Z" fill="#AEB1CF"/>
<path d="M73.3731 23.9636C73.3675 23.505 73.2228 23.0517 72.9079 22.694L53.6255 0.67066C53.6217 0.664487 53.6159 0.66249 53.61 0.656862C53.4951 0.528503 53.3631 0.422657 53.2213 0.329339C53.1792 0.302105 53.1371 0.277596 53.093 0.252723C52.9684 0.186274 52.8403 0.131082 52.7063 0.0907769C52.67 0.0802468 52.6373 0.0653594 52.601 0.0559186C52.4536 0.0216049 52.3043 0 52.1511 0H4.76482C2.60306 0 0.843262 1.7598 0.843262 3.92174V96.0784C0.843262 98.2413 2.60288 100 4.76482 100H69.4706C71.6343 100 73.3922 98.2413 73.3922 96.0784V24.1833C73.3922 24.1096 73.3807 24.0374 73.3731 23.9636ZM29.2871 83.069C27.4111 84.8383 24.6303 85.632 21.3814 85.632C20.6599 85.632 20.0108 85.5966 19.5054 85.5238V94.2228H14.0533V70.2177C15.7494 69.9294 18.1334 69.7132 21.4905 69.7132C24.8835 69.7132 27.302 70.3623 28.9258 71.6615C30.4788 72.8878 31.5257 74.91 31.5257 77.292C31.5255 79.6758 30.7305 81.697 29.2871 83.069ZM40.5482 94.2228H35.0235V69.8931H40.5482V94.2228ZM60.1819 74.4064H50.8337V79.965H59.5692V84.4399H50.8337V94.2228H45.3112V69.8931H60.1838V74.4064H60.1819V74.4064ZM4.76482 66.5852V3.92174H50.1903V23.9862C50.1903 25.0684 51.0672 25.9469 52.1511 25.9469H69.4706L69.4726 66.5852H4.76482Z" fill="#AEB1CF"/>
<path d="M35.9101 16.1309C24.1381 16.1309 14.5623 25.7078 14.5623 37.4787C14.5623 49.2492 24.1383 58.8265 35.9101 58.8265C47.6818 58.8265 57.2579 49.2492 57.2579 37.4787C57.2579 25.708 47.682 16.1309 35.9101 16.1309ZM35.9101 55.0823C26.2053 55.0823 18.3081 47.1856 18.3081 37.4798C18.3081 27.7739 26.2044 19.8778 35.9101 19.8778C45.6158 19.8778 53.5126 27.7741 53.5126 37.4798C53.5126 47.1854 45.6158 55.0823 35.9101 55.0823Z" fill="#AEB1CF"/>
<path d="M38.7796 32.166H33.041V51.1587H38.7796V32.166Z" fill="#AEB1CF"/>
<path d="M36.0648 23.7988C34.1423 23.7988 32.5779 25.3627 32.5779 27.2852C32.5779 29.2086 34.1423 30.773 36.0648 30.773C37.9873 30.773 39.5518 29.2086 39.5518 27.2852C39.5518 25.3627 37.9871 23.7988 36.0648 23.7988Z" fill="#AEB1CF"/>
</svg>
