<svg width="73" height="100" viewBox="0 0 73 100" fill="none" xmlns="http://www.w3.org/2000/svg">
<path d="M72.9219 23.9636C72.9161 23.505 72.7707 23.0517 72.4557 22.694L53.1741 0.67066C53.1703 0.664487 53.1645 0.66249 53.1589 0.656862C53.044 0.528503 52.912 0.422294 52.7702 0.329339C52.728 0.302105 52.6857 0.277233 52.6418 0.252723C52.5173 0.186274 52.3889 0.131082 52.2549 0.0907769C52.2186 0.0802468 52.1861 0.0653594 52.1496 0.0553739C52.0024 0.0216049 51.853 0 51.6997 0H4.31365C2.15171 0 0.39209 1.7598 0.39209 3.92174V96.0784C0.39209 98.2413 2.15171 100 4.31365 100H69.0194C71.1832 100 72.9412 98.2413 72.9412 96.0784V24.1833C72.941 24.1096 72.9295 24.0374 72.9219 23.9636ZM22.5921 83.4261C20.8654 85.0529 18.3076 85.7832 15.3196 85.7832C14.6546 85.7832 14.0576 85.7506 13.592 85.6827V93.6866H8.57762V71.6032C10.1383 71.3368 12.3302 71.1378 15.4188 71.1378C18.5404 71.1378 20.7655 71.7353 22.2599 72.9302C23.6883 74.06 24.6509 75.9192 24.6509 78.1117C24.6509 80.3041 23.9206 82.1634 22.5921 83.4261ZM40.2962 93.6886L34.8163 84.0236L32.89 86.3816V93.6866H27.8757V71.3043H32.89V81.2001H32.9901C33.4879 80.3365 34.0193 79.54 34.5177 78.7435L39.5992 71.3043H45.8089L38.4033 80.8354L46.2063 93.6866H40.2962V93.6886V93.6886ZM65.8714 92.6583C64.3108 93.1897 61.3544 93.9203 58.3989 93.9203C54.3136 93.9203 51.3571 92.89 49.2987 90.8978C47.2402 88.9715 46.1104 86.0505 46.144 82.7618C46.1776 75.3227 51.5908 71.0718 58.9303 71.0718C61.8197 71.0718 64.0439 71.6355 65.1402 72.168L64.0773 76.2188C62.8488 75.6874 61.3199 75.2557 58.8631 75.2557C54.6458 75.2557 51.4575 77.6473 51.4575 82.4966C51.4575 87.1133 54.347 89.8352 58.4993 89.8352C59.6616 89.8352 60.5904 89.7021 60.9906 89.5029V84.8212H57.5363V80.8689H65.8714V92.6583V92.6583ZM4.31365 66.5852V3.92174H49.7389V23.9862C49.7389 25.0684 50.616 25.9469 51.6997 25.9469H69.0194L69.0214 66.5852H4.31365Z" fill="#AEB1CF"/>
<path d="M15.6842 74.957C14.6544 74.957 13.9574 75.0576 13.5918 75.1562V81.7651C14.0232 81.8648 14.5546 81.8982 15.2861 81.8982C17.9763 81.8982 19.637 80.5358 19.637 78.2437C19.6359 76.1863 18.2084 74.957 15.6842 74.957Z" fill="#AEB1CF"/>
<path d="M31.7963 45.3433L21.3647 42.393V52.7948L36.8611 57.5627V34.0176L34.6686 39.0061L31.7963 45.3433Z" fill="#AEB1CF"/>
<path d="M39.6367 39.1026L37.7563 34.3174V57.5635L53.2541 52.7956V40.9499L41.9297 44.152L39.6367 39.1026Z" fill="#AEB1CF"/>
<path d="M38.2063 31.9793L42.7386 41.9781L55.9404 38.2448L52.1195 31.2613L52.1213 31.2244L52.0964 31.2221L52.0724 31.18L51.7632 31.1987L47.9421 30.9047V23.1348H25.3931V30.872L20.2891 31.1996L19.9501 31.18L19.9253 31.223L19.8951 31.2255L19.8971 31.2753L15.6284 39.0783L30.3784 43.2508L35.4468 32.0752L27.6923 31.628L37.4574 30.998L45.0572 31.5859L38.2063 31.9793ZM37.4632 30.0964L26.3726 30.8083V24.115H46.9608V30.8288L37.4632 30.0964Z" fill="#AEB1CF"/>
</svg>
