<svg width="73" height="100" viewBox="0 0 73 100" fill="none" xmlns="http://www.w3.org/2000/svg">
<path d="M72.5298 23.9636C72.524 23.505 72.3786 23.0521 72.0636 22.694L52.782 0.67066C52.7782 0.664487 52.7724 0.66249 52.7668 0.656862C52.6519 0.528503 52.5199 0.422657 52.3781 0.329339C52.336 0.302105 52.2937 0.277596 52.2497 0.252723C52.1252 0.186274 51.9968 0.131082 51.8628 0.0907769C51.8265 0.0802468 51.794 0.0653594 51.7575 0.0559186C51.6103 0.0206971 51.4609 0 51.3076 0H3.92156C1.75962 0 0 1.7598 0 3.92174V96.0784C0 98.2413 1.75962 100 3.92156 100H68.6273C70.7911 100 72.5491 98.2413 72.5491 96.0784V24.1833C72.5489 24.1096 72.5374 24.0374 72.5298 23.9636ZM33.6488 84.0149C31.9226 85.6405 29.3649 86.372 26.3763 86.372C25.7118 86.372 25.1149 86.3393 24.649 86.2714V94.2754H19.6341V72.192C21.1951 71.9267 23.3872 71.7266 26.4753 71.7266C29.5969 71.7266 31.8224 72.325 33.3164 73.5198C34.7448 74.6496 35.7076 76.5089 35.7076 78.7014C35.7076 80.8929 34.9771 82.7522 33.6488 84.0149ZM52.9144 94.2763H38.9322V71.8931H44.0141V90.0254H52.9142V94.2763H52.9144ZM3.92156 66.5852V3.92174H49.3469V23.9862C49.3469 25.0684 50.2239 25.9469 51.3076 25.9469H68.6273L68.6293 66.5852H3.92156Z" fill="#AEB1CF"/>
<path d="M26.741 75.5449C25.7118 75.5449 25.0148 75.6455 24.6492 75.7441V82.353C25.0805 82.4536 25.6119 82.4861 26.3434 82.4861C29.0333 82.4861 30.6944 81.1246 30.6944 78.8325C30.6942 76.7742 29.2657 75.5449 26.741 75.5449Z" fill="#AEB1CF"/>
<path d="M49.3785 42.8662L51.4457 35.9595C51.5167 35.7211 51.5299 35.4807 51.4992 35.2485L52.0326 33.6075C52.1151 33.3364 52.0039 33.0924 51.8048 32.8894C51.8326 32.8377 51.869 32.7956 51.8881 32.7378C52.0183 32.3232 51.7848 31.8818 51.3692 31.7516L50.6702 31.5318C50.2567 31.4054 49.8124 31.6347 49.6831 32.0494C49.6706 32.0906 49.6753 32.1327 49.6697 32.1739C49.4121 32.2131 49.2035 32.3233 49.1249 32.5788L48.6385 34.2836C48.4469 34.4751 48.2919 34.7106 48.2097 34.9896L46.1416 41.8963C46.0334 42.2545 46.0553 42.6183 46.1723 42.9457L43.3574 52.8247C43.1726 53.4346 42.8155 56.1441 43.4264 56.3309C44.0372 56.5157 45.3814 54.1107 45.5671 53.4998L48.7352 43.7496C49.033 43.5417 49.2656 43.2407 49.3785 42.8662Z" fill="#AEB1CF"/>
<path d="M12.9763 23.1763L37.8744 13.8994L46.0354 35.8035C46.1472 35.5201 46.2823 35.2478 46.4632 34.9989L46.8348 33.6977C46.9074 33.4622 47.0136 33.2496 47.1382 33.0534L39.0472 11.3379L10.4138 22.0044L24.3021 59.279L41.3566 52.9237L42.0343 50.5453L25.4715 56.7167L12.9763 23.1763Z" fill="#AEB1CF"/>
<path d="M51.2303 44.0371L50.9134 45.0999C50.7508 45.6413 50.471 46.1263 50.0937 46.5333L50.065 46.6175L50.3724 47.4385L49.7203 47.6811L48.9343 50.1005L52.9352 48.6099L51.2303 44.0371Z" fill="#AEB1CF"/>
<path d="M35.5282 33.9445C35.6983 33.7555 35.9227 33.6426 36.1649 33.6257L36.3339 33.6152L36.5293 33.6769C36.6834 33.733 36.8089 33.719 36.918 33.6631C37.0349 33.6052 37.1268 33.4984 37.1651 33.3777C37.276 33.0287 37.5737 32.7893 37.929 32.7424L37.8849 32.0756C37.8793 32.0062 37.8285 31.9434 37.7624 31.9209C37.0367 31.6925 36.4307 31.1718 36.0943 30.4924C35.7573 29.8112 35.7108 29.0088 35.9688 28.2951C35.9924 28.2304 35.9735 28.1529 35.922 28.1079L34.3092 26.6981C34.2197 26.6197 34.1622 26.6513 34.1139 26.6756C33.4476 27.0246 32.6433 27.0892 31.9238 26.8432C31.2052 26.6019 30.6084 26.0667 30.2838 25.3788C30.2542 25.3171 30.1867 25.2768 30.1148 25.2817L27.9808 25.4249C27.91 25.4278 27.8483 25.4775 27.8267 25.5427C27.5994 26.2679 27.077 26.8768 26.3973 27.2119C25.7199 27.5503 24.9142 27.5954 24.2005 27.3345C24.1564 27.321 24.0914 27.2971 24.0124 27.3857L22.6027 28.9973C22.5562 29.0509 22.5466 29.1295 22.581 29.1912C22.9309 29.8648 22.9937 30.6627 22.7504 31.3822C22.5073 32.1012 21.9741 32.6981 21.2848 33.0218C21.221 33.0511 21.1818 33.1181 21.1847 33.1903L21.328 35.3276C21.3318 35.3971 21.3801 35.4568 21.4476 35.4793C22.1733 35.7077 22.7798 36.2295 23.1183 36.9089C23.4534 37.5883 23.4983 38.3924 23.2388 39.1062C23.2174 39.1718 23.235 39.2484 23.2886 39.2934L24.9013 40.7052C24.9908 40.7818 25.0493 40.7502 25.0947 40.7257C25.4374 40.5461 25.8123 40.4414 26.2025 40.4151C26.573 40.3916 26.9378 40.4367 27.2867 40.5583C28.0062 40.8014 28.6032 41.3337 28.9267 42.0218C28.9565 42.0845 29.0249 42.1239 29.0952 42.12L31.2297 41.9779C31.3025 41.9732 31.3633 41.9252 31.384 41.8597C31.6133 41.134 32.1328 40.526 32.8143 40.1899C33.4779 39.8626 34.2524 39.8121 34.9485 40.046C34.9523 39.9565 34.969 39.8644 35.0006 39.7775C35.0476 39.6507 35.0398 39.5113 34.9819 39.3958C34.9249 39.2838 34.8199 39.1928 34.6967 39.1545C34.3261 39.0331 34.0728 38.7094 34.0485 38.3259L33.9819 37.3145C33.9552 36.932 34.1634 36.5781 34.508 36.4116C34.6306 36.3526 34.7248 36.2499 34.7651 36.1291C34.8052 36.0084 34.7943 35.8691 34.7368 35.7577C34.5601 35.4154 34.6122 34.9979 34.8613 34.7106L35.5282 33.9445ZM29.8815 37.8532C27.5914 38.0053 25.6052 36.2662 25.4521 33.9761C25.2984 31.6865 27.0367 29.6965 29.3278 29.5433C31.6199 29.3906 33.607 31.1317 33.7602 33.4218C33.9127 35.7119 32.1736 37.7005 29.8815 37.8532Z" fill="#AEB1CF"/>
<path d="M42.4171 36.4957C42.0743 36.3869 41.786 36.1395 41.6271 35.8183C41.4672 35.4948 41.4461 35.1161 41.5668 34.7773C41.5801 34.7466 41.5688 34.7107 41.5458 34.6878L40.7838 34.0195C40.7397 33.9821 40.711 33.999 40.6898 34.0075C40.3759 34.1731 39.9908 34.2047 39.65 34.0888C39.3092 33.973 39.0258 33.7203 38.8726 33.3938C38.8593 33.3646 38.8287 33.3448 38.794 33.3468L37.7831 33.4153C37.7495 33.4182 37.7199 33.4398 37.7112 33.4714C37.603 33.8147 37.3561 34.1046 37.0342 34.2637C36.7134 34.4231 36.3316 34.4447 35.9935 34.321C35.9721 34.3143 35.94 34.3029 35.9036 34.345L35.2339 35.1066C35.2134 35.132 35.2076 35.1713 35.2224 35.2005C35.39 35.5193 35.4173 35.8978 35.3032 36.2388C35.1878 36.5801 34.9356 36.8626 34.6106 37.0151C34.5799 37.0291 34.5594 37.061 34.5614 37.0955L34.629 38.1075C34.6313 38.1406 34.6538 38.1693 34.6869 38.1789C35.03 38.288 35.3192 38.5351 35.4772 38.8561C35.6371 39.1778 35.6605 39.5583 35.538 39.8973C35.5262 39.9289 35.536 39.9634 35.5594 39.9868L36.3239 40.656C36.3661 40.6925 36.3929 40.6771 36.416 40.6662C36.5768 40.5819 36.7559 40.5307 36.9407 40.5191C37.115 40.5073 37.2882 40.5314 37.4528 40.5866C37.7936 40.7005 38.0779 40.9552 38.2303 41.2807C38.2435 41.3114 38.2771 41.329 38.3098 41.3267L39.3207 41.2591C39.3533 41.2573 39.3829 41.2357 39.3935 41.2041C39.5017 40.859 39.7477 40.5708 40.0705 40.4123C40.392 40.2524 40.7731 40.2319 41.113 40.3535C41.134 40.3611 41.1647 40.3713 41.201 40.3319L41.8693 39.567C41.8904 39.5425 41.8944 39.5053 41.8808 39.4752C41.7141 39.1564 41.6836 38.7767 41.8003 38.436C41.9152 38.0935 42.168 37.8121 42.4955 37.6594C42.5242 37.6437 42.5434 37.6135 42.5434 37.5799L42.4753 36.5679C42.4726 36.5349 42.4497 36.5042 42.4171 36.4957ZM38.6832 39.3052C37.5994 39.3789 36.6575 38.5536 36.5845 37.4679C36.5126 36.3846 37.3352 35.4407 38.4207 35.3675C39.5057 35.2976 40.4467 36.121 40.5204 37.2067C40.5941 38.2918 39.7689 39.2341 38.6832 39.3052Z" fill="#AEB1CF"/>
</svg>
