<svg width="74" height="100" viewBox="0 0 74 100" fill="none" xmlns="http://www.w3.org/2000/svg">
<path d="M14.4107 75.1826C13.3801 75.1826 12.6813 75.2832 12.3154 75.3836V82.0089C12.7477 82.1094 13.28 82.1418 14.0133 82.1418C16.7096 82.1418 18.3753 80.7757 18.3753 78.4796C18.3764 76.4137 16.9441 75.1826 14.4107 75.1826Z" fill="#69A042"/>
<path d="M51.0334 25.7607L51.0412 25.7636V25.7607H51.0334Z" fill="#69A042"/>
<path d="M73.0789 23.9636C73.0731 23.505 72.9257 23.0521 72.6127 22.694L53.3311 0.67066C53.3273 0.664487 53.3215 0.66249 53.3159 0.656862C53.2009 0.528503 53.0689 0.422657 52.9272 0.329339C52.885 0.302105 52.8427 0.277596 52.7988 0.252723C52.6742 0.186274 52.5459 0.131082 52.4119 0.0907769C52.3756 0.0802468 52.3431 0.0653594 52.3048 0.0559186C52.1594 0.0206971 52.0081 0 51.8567 0H4.47063C2.30869 0 0.549072 1.7598 0.549072 3.92174V96.0784C0.549072 98.2413 2.30869 100 4.47063 100H69.1764C71.3383 100 73.0981 98.2413 73.0981 96.0784V24.1833C73.098 24.1096 73.0865 24.0374 73.0789 23.9636ZM21.3382 83.6721C19.6068 85.3036 17.0432 86.0369 14.0461 86.0369C13.3793 86.0369 12.7785 86.0026 12.3147 85.9363V93.9602H7.28635V71.8194C8.8508 71.5532 11.0491 71.3532 14.1453 71.3532C17.2734 71.3532 19.5067 71.9516 21.0036 73.1511C22.4345 74.282 23.4009 76.1469 23.4009 78.345C23.4029 80.5414 22.6705 82.4083 21.3382 83.6721ZM45.2142 93.9604H39.8872L35.092 85.3036C33.7578 82.9062 32.2939 80.0109 31.1928 77.3799L31.0951 77.4125C31.2291 80.3766 31.2938 83.5389 31.2938 87.201V93.9602H26.6331V71.5198H32.5595L37.2226 79.743C38.5524 82.1077 39.8861 84.9034 40.8829 87.4348H40.9835C40.6492 84.4717 40.5506 81.4414 40.5506 78.079V71.5207H45.2142V93.9604ZM68.3569 92.9285C66.7924 93.461 63.8284 94.1943 60.8641 94.1943C56.7701 94.1943 53.8041 93.1621 51.7409 91.1632C49.6777 89.2329 48.5432 86.3032 48.5766 83.0069C48.6093 75.5496 54.0377 71.2873 61.3945 71.2873C64.2917 71.2873 66.5243 71.8521 67.6225 72.3853L66.5578 76.4478C65.3238 75.9153 63.793 75.4826 61.3286 75.4826C57.1016 75.4826 53.9046 77.88 53.9046 82.7399C53.9046 87.3689 56.8017 90.0986 60.9647 90.0986C62.1297 90.0986 63.0624 89.9664 63.4616 89.7654V85.0703H59.9987V81.1086H68.356V92.9287H68.3569V92.9285ZM4.47063 66.5852V3.92174H49.8959V18.0267H51.1214V25.7607H58.775V25.9469H69.1762L69.1782 66.5852H4.47063Z" fill="#69A042"/>
<path d="M20.2889 48.9624H27.8869V41.2293H20.2333V33.4948H27.8869V25.7604H20.2333V18.0264H12.4988V25.7604H20.1529V33.4948H12.4988V41.2293H20.1529V48.9624H12.5567V56.6977H20.2108V64.4308H27.9419V56.6977H20.2889V48.9624Z" fill="#69A042"/>
<path d="M35.7342 48.9624H43.3319V41.2293H35.6783V33.4948H43.3319V25.7604H35.6783V18.0264H27.9419V25.7604H35.596V33.4948H27.9419V41.2293H35.596V48.9624H27.9998V56.6977H35.6538V64.4308H43.3874V56.6977H35.7342V48.9624Z" fill="#69A042"/>
<path d="M43.3874 25.7604H51.0332C50.363 25.4488 49.8957 24.7742 49.8957 23.9859V18.0264H43.3872V25.7604H43.3874Z" fill="#69A042"/>
<path d="M51.041 25.7637V33.4951H43.3875V41.2297H51.041V48.9628H43.4428V56.6973H51.0984V64.4314H58.8313V56.6973H51.1788V48.9628H58.775V41.2297H51.1215V33.4951H58.775V25.947H51.8568C51.5637 25.947 51.2899 25.8786 51.041 25.7637Z" fill="#69A042"/>
</svg>
