<svg width="73" height="100" viewBox="0 0 73 100" fill="none" xmlns="http://www.w3.org/2000/svg">
<path d="M18.3215 75.5879C17.3297 75.5879 16.657 75.6847 16.3037 75.7794V82.1529C16.7206 82.2496 17.2324 82.2821 17.9371 82.2821C20.5312 82.2821 22.1334 80.9686 22.1334 78.758C22.1343 76.7733 20.7556 75.5879 18.3215 75.5879Z" fill="#F57C1F"/>
<path d="M36.9338 75.5879C35.9414 75.5879 35.269 75.6847 34.916 75.7794V82.1529C35.3325 82.2496 35.8443 82.2821 36.5489 82.2821C39.1435 82.2821 40.7452 80.9686 40.7452 78.758C40.7463 76.7733 39.3695 75.5879 36.9338 75.5879Z" fill="#F57C1F"/>
<path d="M72.628 23.9651C72.6222 23.5059 72.4767 23.0532 72.1617 22.6955L52.8802 0.67066C52.8764 0.665031 52.8706 0.663034 52.8649 0.656862C52.75 0.528503 52.618 0.422657 52.4762 0.329339C52.4341 0.302105 52.3918 0.277596 52.3479 0.253268C52.2233 0.186274 52.095 0.131626 51.961 0.0913215C51.9247 0.0802468 51.8922 0.065904 51.8557 0.0559186C51.7084 0.0216049 51.559 0 51.4058 0H4.01971C1.85776 0 0.0981445 1.7598 0.0981445 3.92174V96.0784C0.0981445 98.2413 1.85776 100 4.01971 100H68.7255C70.8892 100 72.6472 98.2413 72.6472 96.0784V24.1842C72.647 24.1111 72.6356 24.0374 72.628 23.9651ZM24.9832 83.7564C23.3187 85.3257 20.8519 86.0294 17.9698 86.0294C17.3307 86.0294 16.7528 85.9988 16.3049 85.9338V93.6525H11.4689V72.3535C12.9734 72.097 15.0874 71.9055 18.0658 71.9055C21.0774 71.9055 23.2225 72.4819 24.6638 73.6355C26.0402 74.7241 26.9697 76.5182 26.9697 78.6313C26.9688 80.7444 26.2639 82.5385 24.9832 83.7564ZM43.5953 83.7564C41.9305 85.3257 39.4632 86.0294 36.5814 86.0294C35.9421 86.0294 35.365 85.9988 34.9169 85.9338V93.6525H30.0805V72.3535C31.5856 72.097 33.699 71.9055 36.6771 71.9055C39.689 71.9055 41.8335 72.4819 43.2756 73.6355C44.6523 74.7241 45.581 76.5182 45.581 78.6313C45.581 80.7444 44.8762 82.5385 43.5953 83.7564ZM53.9755 93.972C51.5111 93.972 49.0765 93.3317 47.8595 92.6585L48.8513 88.624C50.1649 89.2961 52.1832 89.9681 54.2645 89.9681C56.5069 89.9681 57.6921 89.0405 57.6921 87.6302C57.6921 86.286 56.6658 85.516 54.073 84.5874C50.4864 83.3379 48.1465 81.3513 48.1465 78.2141C48.1465 74.5289 51.2217 71.7123 56.3152 71.7123C58.7487 71.7123 60.541 72.2235 61.8221 72.8L60.7346 76.7406C59.8689 76.3232 58.3315 75.7143 56.2184 75.7143C54.1044 75.7143 53.0801 76.6756 53.0801 77.7978C53.0801 79.1745 54.2979 79.7825 57.0841 80.8404C60.8954 82.2498 62.6886 84.2353 62.6886 87.278C62.6881 90.8987 59.902 93.972 53.9755 93.972ZM4.01971 66.5863V3.92247H49.445V23.9876C49.445 25.0699 50.3221 25.9484 51.4058 25.9484H68.7255L68.7275 66.5863H4.01971V66.5863Z" fill="#F57C1F"/>
<path d="M30.1766 18.6846C20.8246 19.3169 13.4285 27.0825 13.4285 36.5963C13.4285 38.818 13.8508 40.9362 14.588 42.9004L30.1766 36.064V18.6846Z" fill="#F57C1F"/>
<path d="M46.073 46.9561L31.3208 37.7021L15.3728 44.6974C18.3365 50.5496 24.3931 54.5698 31.4024 54.5698C37.4659 54.5698 42.8177 51.5569 46.073 46.9561Z" fill="#F57C1F"/>
<path d="M49.7286 36.3745C49.7286 26.6961 42.073 18.8277 32.4902 18.4385V35.6785L47.4757 45.0793C48.9069 42.4993 49.7286 39.5347 49.7286 36.3745Z" fill="#F57C1F"/>
<path d="M61.8818 35.7994C61.4377 35.4598 60.799 35.5385 60.4553 35.9816C60.4237 36.0247 60.4114 36.0788 60.3854 36.1258C60.0579 36.0563 59.7563 36.0966 59.5457 36.368L58.193 38.2082C57.8762 38.3533 57.585 38.5668 57.3571 38.866L51.7562 46.271C51.465 46.6548 51.3283 47.104 51.3234 47.5512L43.485 58.208C42.9871 58.8601 41.3395 61.9687 41.9924 62.4696C42.6453 62.9674 45.349 60.6697 45.8477 60.0166L54.0546 49.6746C54.5056 49.555 54.923 49.2973 55.2275 48.8952L60.8284 41.4907C61.0218 41.2356 61.1443 40.9511 61.2113 40.6572L62.5928 38.9172C62.8141 38.6281 62.789 38.2839 62.6407 37.9484C62.6973 37.8994 62.7603 37.8642 62.8094 37.8033C63.153 37.3614 63.0706 36.7229 62.6263 36.3801L61.8818 35.7994Z" fill="#F57C1F"/>
</svg>
