<svg width="74" height="100" viewBox="0 0 74 100" fill="none" xmlns="http://www.w3.org/2000/svg">
<path d="M36.4299 75.3369C35.3365 75.3369 34.5955 75.4421 34.2063 75.5476V82.5712C34.6665 82.6764 35.2308 82.7127 36.0064 82.7127C38.8655 82.7127 40.6293 81.265 40.6293 78.8305C40.6292 76.6417 39.1126 75.3369 36.4299 75.3369Z" fill="#F57C1F"/>
<path d="M15.9239 75.3369C14.8305 75.3369 14.0895 75.4421 13.7004 75.5476V82.5712C14.1604 82.6764 14.7247 82.7127 15.5004 82.7127C18.3593 82.7127 20.1233 81.265 20.1233 78.8305C20.1231 76.6417 18.606 75.3369 15.9239 75.3369Z" fill="#F57C1F"/>
<path d="M73.1772 23.9636C73.1715 23.505 73.0242 23.0522 72.7092 22.6942L53.4298 0.670629C53.4242 0.664428 53.4185 0.662604 53.4145 0.65695C53.2996 0.528551 53.1655 0.422768 53.0238 0.329387C52.9817 0.302212 52.9394 0.277772 52.8954 0.252968C52.7729 0.186397 52.6445 0.131317 52.5086 0.0910101C52.4721 0.0804317 52.4398 0.0656586 52.4034 0.0561745C52.258 0.0206095 52.1064 0 51.9534 0H4.5691C2.40729 0 0.647461 1.75983 0.647461 3.92164V96.0785C0.647461 98.2413 2.40729 100 4.5691 100H69.2747C71.4365 100 73.1965 98.2413 73.1965 96.0785V24.1833C73.1967 24.1096 73.1848 24.0374 73.1772 23.9636ZM23.265 84.3348C21.4288 86.064 18.711 86.8413 15.535 86.8413C14.8297 86.8413 14.1945 86.8048 13.7006 86.7351V95.2397H8.3711V71.7716C10.0286 71.4901 12.3591 71.2775 15.6415 71.2775C18.9582 71.2775 21.3228 71.9135 22.9103 73.1829C24.4288 74.3835 25.4513 76.3585 25.4513 78.688C25.4511 81.0183 24.6765 82.9942 23.265 84.3348ZM43.7715 84.3348C41.9352 86.064 39.2168 86.8413 36.0407 86.8413C35.3356 86.8413 34.7004 86.8048 34.2063 86.7351V95.2397H28.877V71.7716C30.5347 71.4901 32.865 71.2775 36.1476 71.2775C39.4642 71.2775 41.8291 71.9135 43.4163 73.1829C44.9349 74.3835 45.9575 76.3585 45.9575 78.688C45.9572 81.0183 45.1827 82.9942 43.7715 84.3348ZM65.8645 75.9717H59.3714V95.2397H53.9715V75.9717H47.5827V71.4544H65.8628V75.9717H65.8645V75.9717ZM4.5691 66.5853V3.92164H49.9926V23.986C49.9926 25.0684 50.8715 25.9468 51.9534 25.9468H69.2749V66.5851H4.5691V66.5853Z" fill="#F57C1F"/>
<path d="M33.8719 25.4746C25.0055 25.4746 17.8201 32.6618 17.8201 41.5276C17.8201 50.3926 25.0053 57.5789 33.8719 57.5789C42.7371 57.5789 49.9238 50.3926 49.9238 41.5276H33.8719V25.4746Z" fill="#F57C1F"/>
<path d="M36.0493 38.994V38.9987H52.1027C52.1027 34.4832 50.2297 30.4099 47.2293 27.4932L36.0493 38.994Z" fill="#F57C1F"/>
<path d="M35.8808 36.1735L47.2295 24.8235C44.0376 21.6304 40.0546 20.0727 35.8689 20.1325L35.8769 36.1696L35.8808 36.1735Z" fill="#F57C1F"/>
</svg>
