<svg width="73" height="100" viewBox="0 0 73 100" fill="none" xmlns="http://www.w3.org/2000/svg">
<path d="M72.7261 23.9651C72.7203 23.5059 72.5749 23.0532 72.2599 22.6951L52.9783 0.67066C52.9745 0.665031 52.9687 0.663034 52.9631 0.656862C52.8481 0.528503 52.7162 0.422657 52.5744 0.329339C52.5322 0.302105 52.4899 0.277596 52.446 0.253268C52.3215 0.186274 52.1931 0.131626 52.0591 0.0913215C52.0228 0.0802468 51.9903 0.065904 51.9538 0.0559186C51.8066 0.0216049 51.6572 0 51.5039 0H4.11785C1.95591 0 0.196289 1.7598 0.196289 3.92174V96.0784C0.196289 98.2413 1.95591 100 4.11785 100H68.8236C70.9874 100 72.7454 98.2413 72.7454 96.0784V24.1842C72.7452 24.1111 72.7337 24.0374 72.7261 23.9651ZM18.2511 84.0619C16.8834 85.3497 14.8609 85.9278 12.4971 85.9278C11.972 85.9278 11.4971 85.9011 11.1295 85.8475V92.1797H7.16287V74.709C8.39834 74.4984 10.1313 74.3405 12.5755 74.3405C15.0461 74.3405 16.8048 74.8125 17.9882 75.7586C19.1166 76.6527 19.8796 78.1233 19.8796 79.8581C19.8798 81.5926 19.301 83.0634 18.2511 84.0619ZM33.5187 84.0619C32.1525 85.3497 30.1283 85.9278 27.765 85.9278C27.2394 85.9278 26.766 85.9011 26.3983 85.8475V92.1797H22.4317V74.709C23.6668 74.4984 25.4001 74.3405 27.8444 74.3405C30.315 74.3405 32.0748 74.8125 33.257 75.7586C34.3863 76.6527 35.1479 78.1233 35.1479 79.8581C35.1481 81.5926 34.5708 83.0634 33.5187 84.0619ZM49.9703 77.8359H45.1354V92.1797H41.1143V77.8359H36.3593V74.4724H49.9705V77.8359H49.9703ZM61.8997 92.1797L60.2969 88.9744C59.6412 87.7393 59.2198 86.8203 58.721 85.7958H58.6693C58.2998 86.8203 57.8536 87.7393 57.3022 88.9744L55.8298 92.1797H51.259L56.3832 83.2203L51.4429 74.4723H56.0404L57.5903 77.7036C58.1161 78.7816 58.5104 79.6482 58.9307 80.6467H58.9834C59.4046 79.5169 59.7456 78.7281 60.1916 77.7036L61.6891 74.4723H66.2617L61.2688 83.1168L66.5222 92.1796H61.8997V92.1797ZM4.11785 66.5863V3.92247H49.5431V23.9876C49.5431 25.0699 50.4202 25.9484 51.5039 25.9484H68.8236L68.8256 66.5863H4.11785V66.5863Z" fill="#F57C1F"/>
<path d="M12.7863 77.3613C11.9721 77.3613 11.4187 77.4409 11.1304 77.5193V82.7477C11.4726 82.8272 11.8925 82.8521 12.4708 82.8521C14.5991 82.8521 15.9141 81.7749 15.9141 79.9625C15.9127 78.3332 14.7825 77.3613 12.7863 77.3613Z" fill="#F57C1F"/>
<path d="M28.054 77.3613C27.2394 77.3613 26.6875 77.4409 26.3992 77.5193V82.7477C26.7416 82.8272 27.1608 82.8521 27.7381 82.8521C29.8679 82.8521 31.1815 81.7749 31.1815 79.9625C31.1806 78.3332 30.0502 77.3613 28.054 77.3613Z" fill="#F57C1F"/>
<path d="M22.7237 21.79C13.3717 22.4222 5.97559 30.188 5.97559 39.7018C5.97559 41.9234 6.39824 44.0418 7.13553 46.0059L22.7237 39.1695V21.79Z" fill="#F57C1F"/>
<path d="M7.91968 47.8029C10.8834 53.6549 16.9405 57.6752 23.9492 57.6752C30.0139 57.6752 35.3659 54.6622 38.621 50.0611L23.8677 40.8076L7.91968 47.8029Z" fill="#F57C1F"/>
<path d="M25.0374 21.5449V38.7851L40.0228 48.1859C41.4542 45.6057 42.2755 42.6409 42.2755 39.4812C42.2755 29.8025 34.6196 21.934 25.0374 21.5449Z" fill="#F57C1F"/>
<path d="M65.2294 31.9395H45.6216V34.8659H65.2294V31.9395Z" fill="#F57C1F"/>
<path d="M65.2294 39.3896H45.6216V42.3159H65.2294V39.3896Z" fill="#F57C1F"/>
<path d="M65.2294 46.7227H45.6216V49.6489H65.2294V46.7227Z" fill="#F57C1F"/>
</svg>
