<svg width="73" height="100" viewBox="0 0 73 100" fill="none" xmlns="http://www.w3.org/2000/svg">
<path d="M26.1561 73.8008C25.063 73.8008 24.3216 73.9069 23.9326 74.0131V81.0347C24.3924 81.1421 24.9571 81.1762 25.7324 81.1762C28.5913 81.1762 30.3571 79.7307 30.3571 77.2953C30.3571 75.1065 28.8388 73.8008 26.1561 73.8008Z" fill="#AEB1CF"/>
<path d="M72.8222 23.9626C72.8183 23.5041 72.672 23.0522 72.3571 22.6932L53.0768 0.668805C53.0711 0.663516 53.0655 0.66078 53.0615 0.656038C52.9466 0.526728 52.8125 0.421856 52.6708 0.328658C52.6287 0.301482 52.5864 0.275766 52.5424 0.252056C52.4199 0.184574 52.2894 0.130405 52.1556 0.0900981C52.1191 0.0795198 52.0868 0.0638347 52.0503 0.0561745C51.905 0.0206095 51.7534 0 51.6004 0H4.21607C2.05226 0 0.294434 1.75892 0.294434 3.92164V96.0785C0.294434 98.2405 2.05226 100 4.21607 100H68.9217C71.0835 100 72.8435 98.2405 72.8435 96.0785V24.1824C72.8437 24.1087 72.8318 24.0365 72.8222 23.9626ZM33.4974 82.8011C31.6612 84.5303 28.9436 85.3056 25.7689 85.3056C25.0621 85.3056 24.4271 85.2711 23.9326 85.2015V93.7072H18.6031V70.2379C20.2632 69.9565 22.5917 69.7438 25.8737 69.7438C29.1908 69.7438 31.5556 70.3794 33.1443 71.6492C34.6614 72.8495 35.6837 74.8256 35.6837 77.1543C35.6848 79.4846 34.9091 81.4606 33.4974 82.8011ZM44.9329 94.0581C42.2158 94.0581 39.5349 93.3508 38.1926 92.6098L39.2881 88.1636C40.7337 88.9053 42.9568 89.6465 45.2507 89.6465C47.7207 89.6465 49.0266 88.6241 49.0266 87.0711C49.0266 85.5879 47.8969 84.7426 45.04 83.7181C41.0879 82.3413 38.5104 80.1538 38.5104 76.6963C38.5104 72.6362 41.8977 69.5302 47.511 69.5302C50.1907 69.5302 52.1678 70.0953 53.5784 70.7318L52.3797 75.0727C51.426 74.6133 49.7333 73.9432 47.4032 73.9432C45.0747 73.9432 43.945 75.002 43.945 76.2371C43.945 77.7554 45.2873 78.4257 48.3565 79.59C52.5557 81.143 54.5328 83.3298 54.5328 86.6826C54.5317 90.671 51.4625 94.0581 44.9329 94.0581ZM4.21607 66.5843V3.92164H49.6396V23.9851C49.6396 25.0675 50.5185 25.9459 51.6004 25.9459H68.9218V66.5842H4.21607V66.5843Z" fill="#AEB1CF"/>
<path d="M35.3133 33.9629C32.171 33.9629 29.6138 36.5186 29.6138 39.6619C29.6138 42.8051 32.1701 45.3608 35.3133 45.3608C38.456 45.3608 41.0123 42.8051 41.0123 39.6619C41.0121 36.5186 38.4549 33.9629 35.3133 33.9629ZM35.3133 43.3178C33.2945 43.3178 31.6559 41.677 31.6559 39.6608C31.6559 37.644 33.2954 36.004 35.3133 36.004C37.329 36.004 38.9701 37.644 38.9701 39.6608C38.9701 41.677 37.329 43.3178 35.3133 43.3178Z" fill="#AEB1CF"/>
<path d="M36.3335 25.763V22.1406H34.2928V25.763C27.577 26.2574 22.1044 31.5975 21.4476 38.3014H17.7915V40.3425H21.3796C21.7246 47.3072 27.329 53.047 34.2911 53.5601V57.183H36.3324V53.5592C43.2955 53.0452 48.8991 47.3063 49.2449 40.3415H52.8322V38.3005H49.1763C48.5212 31.5975 43.0487 26.2574 36.3335 25.763ZM36.3335 51.5121V47.9966H34.2928V51.5121C28.4545 51.0058 23.765 46.1884 23.4261 40.3414H26.9777V38.3003H23.5005C24.142 32.7266 28.7016 28.2934 34.293 27.8104V31.3259H36.3337V27.8104C41.925 28.2943 46.4821 32.7266 47.1256 38.3003H43.6482V40.3414H47.2002C46.8613 46.1884 42.1716 51.0058 36.3335 51.5121Z" fill="#AEB1CF"/>
</svg>
