<svg width="74" height="100" viewBox="0 0 74 100" fill="none" xmlns="http://www.w3.org/2000/svg">
<path d="M55.0591 73.7246C53.8576 73.7246 53.082 73.8319 52.6235 73.9372V89.4989C53.083 89.6062 53.824 89.6062 54.4943 89.6062C59.3637 89.6407 62.5404 86.9581 62.5404 81.2767C62.5747 76.3364 59.6817 73.7246 55.0591 73.7246Z" fill="#2B74B9"/>
<path d="M73.2729 23.9626C73.2691 23.5041 73.1226 23.0521 72.8078 22.6931L53.5272 0.668844C53.5215 0.663579 53.5159 0.660674 53.5119 0.655954C53.397 0.526687 53.263 0.421931 53.1214 0.328612C53.0793 0.301379 53.0371 0.275962 52.993 0.251997C52.8705 0.184459 52.7403 0.130537 52.6063 0.0902322C52.5698 0.0797021 52.5373 0.0639069 52.501 0.0561001C52.3554 0.0206971 52.2042 0 52.0509 0H4.66668C2.50292 0 0.745117 1.75889 0.745117 3.92174V96.0784C0.745117 98.2402 2.50292 100 4.66668 100H69.3724C71.5344 100 73.2942 98.2404 73.2942 96.0784V24.1824C73.294 24.1087 73.2826 24.0364 73.2729 23.9626ZM22.553 82.6534C20.7168 84.3826 17.9991 85.1582 14.8242 85.1582C14.1176 85.1582 13.4824 85.1246 12.988 85.0538V93.5603H7.65868V70.0905C9.31881 69.8089 11.6472 69.5963 14.9292 69.5963C18.2462 69.5963 20.6109 70.231 22.1997 71.5015C23.7166 72.7021 24.7393 74.6772 24.7393 77.0057C24.7404 79.337 23.9648 81.313 22.553 82.6534ZM33.9883 93.9109C31.2717 93.9109 28.59 93.2041 27.2482 92.4632L28.3429 88.0169C29.7892 88.758 32.0118 89.4989 34.3057 89.4989C36.7763 89.4989 38.0824 88.4764 38.0824 86.9234C38.0824 85.4414 36.9529 84.5952 34.0962 83.5707C30.1439 82.1937 27.5666 80.0071 27.5666 76.5489C27.5666 72.4895 30.9538 69.3835 36.5666 69.3835C39.2465 69.3835 41.2234 69.9483 42.6357 70.5841L41.4351 74.9251C40.4816 74.4655 38.789 73.7953 36.4591 73.7953C34.1307 73.7953 33.0009 74.8541 33.0009 76.0892C33.0009 77.6086 34.3433 78.2778 37.4123 79.443C41.6114 80.996 43.5885 83.1818 43.5885 86.5347C43.5874 90.5234 40.5179 93.9109 33.9883 93.9109ZM64.304 90.734C61.7993 92.8175 57.9888 93.8056 53.3302 93.8056C50.5422 93.8056 48.5662 93.6293 47.2238 93.4514V70.0905C49.2018 69.7726 51.7772 69.5963 54.4943 69.5963C59.0115 69.5963 61.9413 70.4082 64.235 72.1373C66.7051 73.9717 68.2581 76.9013 68.2581 81.1006C68.2581 85.654 66.5978 88.7943 64.304 90.734ZM4.66668 66.5843V3.92174H50.09V23.9852C50.09 25.0677 50.9691 25.946 52.0509 25.946H69.3724V66.5845H4.66668V66.5843Z" fill="#2B74B9"/>
<path d="M15.2117 73.6543C14.1188 73.6543 13.3773 73.7616 12.988 73.8669V80.8887C13.4481 80.996 14.0129 81.0303 14.7885 81.0303C17.6474 81.0303 19.4128 79.5846 19.4128 77.1488C19.4127 74.9602 17.8943 73.6543 15.2117 73.6543Z" fill="#2B74B9"/>
<path d="M14.7419 34.7076L42.6883 40.0529C43.0109 40.1146 43.3976 40.0567 43.5432 39.9225L54.1877 30.1804C54.1877 30.1804 54.8809 29.7642 53.8958 29.5762C52.9107 29.3881 26.1793 24.2448 26.1793 24.2448C25.8517 24.1822 25.4674 24.241 25.3243 24.3741L14.4184 34.3517C14.2722 34.485 14.4164 34.645 14.7419 34.7076ZM27.0772 25.751L51.3023 30.3853L44.1485 36.9273L42.3829 36.5903C42.5409 35.3007 42.9412 33.5313 40.7918 33.3657C38.2738 33.1724 34.7648 35.1332 34.7648 35.1332C34.7648 35.1332 36.2936 32.4558 34.546 30.5302C32.794 28.6045 24.1469 33.1028 24.1469 33.1028L19.9253 32.2958L27.0772 25.751Z" fill="#2B74B9"/>
<path d="M42.0842 31.0148C42.5294 31.1016 42.9651 31.1613 43.3709 31.2014C43.7175 31.3599 44.1906 31.5059 44.7591 31.6139C46.2144 31.8912 47.7175 31.8236 48.112 31.4618C48.5085 31.0994 47.6485 30.5805 46.1933 30.3022C45.6448 30.1969 45.0942 30.1404 44.5964 30.1305C44.4987 30.0293 44.315 29.9413 44.0546 29.8924L43.6726 29.8187C43.1835 29.7254 42.6302 29.804 42.362 29.9883C41.1251 29.814 40.0564 29.8218 39.8286 30.0324C39.5535 30.2857 40.5637 30.7247 42.0842 31.0148Z" fill="#2B74B9"/>
<path d="M43.5412 48.3362L54.1877 38.5955C54.1877 38.5955 54.8808 38.1795 53.8939 37.9903C53.6594 37.9464 51.9533 37.618 49.5041 37.1465L44.6327 41.6024C44.0822 42.1063 43.346 42.1815 42.9571 42.1815C42.7656 42.1815 42.5684 42.1637 42.3809 42.1289L19.8299 37.8137L14.4172 42.7648C14.2713 42.8988 14.4172 43.0579 14.7428 43.1216L42.6873 48.4667C43.0109 48.5286 43.3958 48.4698 43.5412 48.3362Z" fill="#2B74B9"/>
<path d="M54.7038 46.5333C54.4683 46.4892 52.7632 46.1609 50.314 45.6895L45.4427 50.1439C44.8912 50.6493 44.1559 50.725 43.7672 50.725C43.5756 50.725 43.3783 50.706 43.1907 50.6704L20.638 46.3563L15.2253 51.308C15.0811 51.4411 15.2253 51.601 15.5508 51.6642L43.4952 57.0086C43.8207 57.0718 44.2047 57.0124 44.3532 56.8784L54.9966 47.1377C54.9977 47.1384 55.6907 46.7219 54.7038 46.5333Z" fill="#2B74B9"/>
</svg>
