<svg width="74" height="100" viewBox="0 0 74 100" fill="none" xmlns="http://www.w3.org/2000/svg">
<path d="M60.7415 77.69C60.7415 75.9819 59.4357 75.0781 57.1284 75.0781C56.0234 75.0781 55.384 75.1451 54.9512 75.2121V80.4683H56.6247C59.3034 80.4685 60.7415 79.3635 60.7415 77.69Z" fill="#AEB1CF"/>
<path d="M14.7664 75.2119C13.7281 75.2119 13.0259 75.3125 12.6562 75.4111V82.0747C13.0909 82.177 13.627 82.2097 14.3643 82.2097C17.0782 82.2097 18.7497 80.8386 18.7497 78.5275C18.7499 76.4517 17.3093 75.2119 14.7664 75.2119Z" fill="#AEB1CF"/>
<path d="M56.6895 84.1172H54.9509V90.4783C55.4536 90.5442 56.0559 90.5442 56.9261 90.5442C59.2363 90.5442 61.2795 89.6749 61.2795 87.2966C61.2793 85.0221 59.2363 84.1172 56.6895 84.1172Z" fill="#AEB1CF"/>
<path d="M73.3736 23.9636C73.3678 23.5059 73.2223 23.0521 72.9073 22.694L53.6258 0.669752C53.622 0.663397 53.6162 0.661582 53.6105 0.655772C53.4956 0.527595 53.3636 0.422657 53.2218 0.328431C53.1777 0.302105 53.1374 0.276688 53.0935 0.251815C52.9689 0.185185 52.8406 0.131082 52.7066 0.0909584C52.6703 0.0795205 52.6378 0.0646331 52.6013 0.0551923C52.454 0.0206971 52.3046 0 52.1514 0H4.76531C2.60337 0 0.84375 1.7598 0.84375 3.92174V96.0784C0.84375 98.2402 2.60337 100 4.76531 100H69.4711C71.6348 100 73.3928 98.2404 73.3928 96.0784V24.1833C73.3926 24.1087 73.3812 24.0364 73.3736 23.9636ZM21.7311 83.7478C19.9906 85.3916 17.4133 86.1269 14.3987 86.1269C13.7281 86.1269 13.127 86.0943 12.6562 86.0263V94.0942H7.60154V71.831C9.17507 71.5629 11.3848 71.3608 14.4988 71.3608C17.6467 71.3608 19.8886 71.963 21.3955 73.1685C22.8359 74.3078 23.8061 76.1825 23.8061 78.392C23.8061 80.6015 23.071 82.4762 21.7311 83.7478ZM45.4726 84.1852C45.4726 91.1494 41.957 94.4641 36.0621 94.4641C30.3713 94.4641 27.0222 91.3179 27.0222 84.1173V71.5293H32.1443V84.5175C32.1443 88.4025 33.6193 90.3796 36.2311 90.3796C38.9094 90.3796 40.382 88.5031 40.382 84.5175V71.5293H45.4706V84.1852H45.4726ZM64.2933 92.288C62.6505 93.5919 59.9065 94.329 55.4201 94.329C52.9077 94.329 51.0332 94.1625 49.894 93.9938V71.831C51.2324 71.5629 53.9457 71.3608 56.4905 71.3608C59.604 71.3608 61.5112 71.6614 63.1541 72.6324C64.7282 73.4701 65.8656 75.0106 65.8656 77.0538C65.8656 79.0632 64.6948 80.9381 62.1517 81.8733V81.9423C64.7291 82.6451 66.6354 84.5859 66.6354 87.4991C66.6352 89.542 65.6987 91.1496 64.2933 92.288ZM4.76531 66.5852V3.92174H50.1906V23.9872C50.1906 25.0697 51.0677 25.948 52.1514 25.948H69.4711L69.4731 66.5865H4.76531V66.5852Z" fill="#AEB1CF"/>
<path d="M50.9835 31.9456C49.5608 30.7239 47.3491 29.4543 44.4366 29.4543C41.5242 29.4543 39.3337 30.7277 37.9321 31.955C37.5031 32.3346 37.1413 32.7079 36.8406 33.0503C36.5338 32.7052 36.1574 32.3288 35.7132 31.9454C34.2847 30.7237 32.075 29.4541 29.1583 29.4541C26.2479 29.4541 24.0596 30.7275 22.6594 31.9548C21.2535 33.1865 20.5683 34.3858 20.5282 34.4543L20.377 35.0071V53.0256L22.6313 53.5781L22.6371 53.5819C22.6653 53.5185 23.2762 52.5191 24.3853 51.5866C25.508 50.6447 27.0656 49.7767 29.1585 49.7729C31.3147 49.7729 32.9575 50.703 34.1126 51.6852C34.6794 52.1734 35.1251 52.6638 35.4103 53.0294C35.5554 53.215 35.6598 53.3655 35.73 53.4603C35.7607 53.5118 35.7861 53.5501 35.8005 53.5761C35.8067 53.5868 35.8125 53.5944 35.8125 53.5971H35.8183L37.9112 53.5781L37.9132 53.5743V53.5705C37.9612 53.4882 38.5679 52.5058 39.6594 51.583C40.7854 50.6409 42.3479 49.7729 44.4368 49.7691C46.593 49.7691 48.2302 50.6992 49.3905 51.6816C49.963 52.1698 50.3958 52.66 50.683 53.0256C50.8304 53.2106 50.9357 53.3619 51.0045 53.4555C51.0408 53.5082 51.0619 53.5465 51.0773 53.5725C51.085 53.583 51.0906 53.5906 51.0906 53.5935H51.0926L53.3406 53.0209V35.0071L53.1797 34.4347C53.1358 34.3684 52.4196 33.1711 50.9835 31.9456ZM35.6514 49.9201C34.2311 48.7143 32.0376 47.473 29.1582 47.473H29.1562C26.3279 47.473 24.1858 48.6759 22.7836 49.8642V35.3321C23.0305 34.9703 23.573 34.2555 24.3848 33.5661C25.5075 32.6258 27.065 31.7584 29.158 31.7584C31.3141 31.7584 32.957 32.6885 34.112 33.6669C34.6789 34.1551 35.1246 34.6511 35.4098 35.0169C35.5118 35.1415 35.5941 35.2562 35.6511 35.3424V49.9201H35.6514ZM50.9317 49.9201C49.5013 48.7104 47.3108 47.473 44.4366 47.473C41.6104 47.4673 39.4639 48.6759 38.0583 49.8642V35.3321C38.3072 34.9739 38.8473 34.2555 39.6591 33.5661C40.785 32.6258 42.3475 31.7584 44.4365 31.7584C46.5926 31.7584 48.2298 32.6885 49.3902 33.6669C49.9626 34.1551 50.3954 34.6511 50.6826 35.0169C50.7859 35.1415 50.8682 35.2562 50.9315 35.3424V49.9201H50.9317Z" fill="#AEB1CF"/>
</svg>
