<svg width="73" height="100" viewBox="0 0 73 100" fill="none" xmlns="http://www.w3.org/2000/svg">
<path d="M25.6563 75.0781C24.6271 75.0781 23.9296 75.1777 23.564 75.2775V81.8853C23.9957 81.9861 24.5271 82.0193 25.2581 82.0193C27.9485 82.0193 29.6089 80.658 29.6089 78.3651C29.6082 76.3076 28.1796 75.0781 25.6563 75.0781Z" fill="#15499F"/>
<path d="M72.9223 23.9646C72.9166 23.5056 72.7711 23.0527 72.4561 22.6952L53.1749 0.670264C53.1711 0.664611 53.1653 0.662604 53.1596 0.65695C53.0447 0.528551 52.9127 0.422221 52.7708 0.329387C52.7288 0.301665 52.6865 0.277225 52.6426 0.252968C52.518 0.186397 52.3896 0.131317 52.2557 0.0910101C52.2192 0.0804317 52.187 0.0656586 52.1505 0.0556274C52.0031 0.0215214 51.8536 0 51.7005 0H4.31422C2.15241 0 0.392578 1.75983 0.392578 3.92164V96.0785C0.392578 98.2413 2.15241 100 4.31422 100H69.0198C71.1834 100 72.9416 98.2413 72.9416 96.0785V24.1833C72.9418 24.1096 72.93 24.0369 72.9223 23.9646ZM32.5631 83.5478C30.8368 85.1745 28.2787 85.9047 25.2905 85.9047C24.6257 85.9047 24.0287 85.8725 23.5629 85.8053V93.8093H18.5494V71.7236C20.11 71.4584 22.3025 71.2583 25.3906 71.2583C28.5121 71.2583 30.7378 71.8565 32.2317 73.0515C33.6601 74.1812 34.6228 76.0417 34.6228 78.2331C34.6229 80.4248 33.8916 82.2849 32.5631 83.5478ZM47.4112 84.4774V93.8093H42.3635V84.643L35.2897 71.427H41.0691L43.3604 76.8056C44.0572 78.4332 44.5235 79.6281 45.0874 81.0901H45.1548C45.6525 79.6949 46.1839 78.3998 46.848 76.8056L49.1058 71.427H54.7852L47.4112 84.4774ZM4.31422 66.5853V3.92164H49.7395V23.986C49.7395 25.0684 50.6168 25.9468 51.7005 25.9468H69.02L69.022 66.5851H4.31422V66.5853Z" fill="#15499F"/>
<path d="M39.7099 37.7122C42.044 37.6503 43.8478 35.7034 43.886 33.365C43.9109 31.8585 43.8898 30.3497 43.8907 28.8428C43.8916 27.3339 43.9005 25.8269 43.886 24.3198C43.8821 23.97 43.8476 23.6042 43.7444 23.272C43.103 21.1777 41.5461 20.0081 39.5049 19.7591C37.0702 19.462 34.5925 19.3964 32.1385 19.4399C30.7967 19.4644 29.4319 19.8219 28.1317 20.2103C26.327 20.7507 25.6201 21.7905 25.5506 23.6642C25.5112 24.7331 25.5524 25.8044 25.4897 26.871C25.4447 27.6456 25.7474 27.8428 26.4897 27.8307C29.011 27.7904 31.5338 27.8346 34.0552 27.8101C34.6472 27.8045 34.7933 28.0252 34.7933 28.58C34.7933 29.3416 34.275 29.2227 33.8298 29.2249C29.8828 29.2367 25.9336 29.3013 21.9874 29.2249C18.9749 29.1674 16.7719 31.2267 16.1678 33.8035C15.7279 35.6809 15.3943 37.5661 15.5632 39.4895C15.7394 41.5092 16.019 43.525 17.0291 45.3366C17.8113 46.7426 18.9946 47.6115 20.6375 47.7061C21.5662 47.7612 22.5011 47.6976 23.4328 47.7311C23.9876 47.7506 24.1408 47.5132 24.1287 46.9957C24.1025 45.8454 24.139 44.6928 24.1163 43.5428C24.0934 42.4297 24.4375 41.4363 25.0407 40.5307C26.3553 38.5575 28.2643 37.7428 30.5808 37.7439C33.6259 37.7428 36.6701 37.7924 39.7099 37.7122ZM29.4444 25.6425C28.4423 25.6416 27.6061 24.8285 27.5908 23.8396C27.574 22.8287 28.4485 21.9238 29.4444 21.9238C30.3869 21.9229 31.2835 22.8071 31.3074 23.7601C31.3339 24.7827 30.4788 25.6434 29.4444 25.6425Z" fill="#15499F"/>
<path d="M54.3371 37.8656C54.1609 35.8479 53.8815 33.8309 52.8724 32.018C52.0894 30.6131 50.9059 29.7448 49.2628 29.6496C48.3343 29.5959 47.3979 29.6596 46.4683 29.6251C45.9122 29.6056 45.7586 29.844 45.7721 30.3605C45.7973 31.5114 45.7608 32.6646 45.7838 33.8134C45.8066 34.9256 45.4617 35.9201 44.8589 36.8266C43.5454 38.7998 41.6362 39.6134 39.3192 39.6125C36.2763 39.6125 33.233 39.5629 30.1917 39.6433C27.8586 39.705 26.0543 41.6518 26.0166 43.989C25.9918 45.4959 26.0113 47.0048 26.0102 48.5118C26.0093 50.0192 26.0007 51.5261 26.0151 53.0351C26.0186 53.3853 26.0543 53.7495 26.1563 54.0824C26.7979 56.1773 28.3555 57.3454 30.3974 57.5951C32.8317 57.892 35.3082 57.9582 37.7632 57.9141C39.1045 57.8891 40.47 57.5329 41.7702 57.1441C43.5749 56.6042 44.2824 55.5635 44.3504 53.6899C44.3904 52.6215 44.3484 51.5502 44.4106 50.4845C44.4566 49.7086 44.154 49.5118 43.4113 49.5242C40.8893 49.5634 38.3677 49.5213 35.8458 49.5463C35.2536 49.551 35.1077 49.3294 35.1077 48.7766C35.1086 48.0133 35.6261 48.1323 36.0724 48.1314C40.0195 48.1199 43.9685 48.0547 47.9151 48.1295C50.9274 48.1883 53.1303 46.1284 53.7341 43.5529C54.1724 41.6751 54.5058 39.7891 54.3371 37.8656ZM40.4576 51.7127C41.4598 51.7127 42.2957 52.5255 42.311 53.5144C42.3271 54.5267 41.4533 55.4293 40.4576 55.4313C39.5141 55.4313 38.6161 54.5475 38.5944 53.5941C38.5685 52.5722 39.4222 51.7108 40.4576 51.7127Z" fill="#FCC02A"/>
</svg>
