<svg width="74" height="100" viewBox="0 0 74 100" fill="none" xmlns="http://www.w3.org/2000/svg">
<path d="M46.2838 74.4365H46.2176C45.8803 75.7798 45.5446 77.4926 45.1751 78.8023L43.8318 83.6057H48.8354L47.4259 78.8023C47.0219 77.459 46.6197 75.78 46.2838 74.4365Z" fill="#AEB1CF"/>
<path d="M73.4711 23.9646C73.4655 23.5056 73.3199 23.0527 73.005 22.6952L53.7238 0.670264C53.7199 0.664611 53.7141 0.662604 53.7084 0.65695C53.5935 0.528004 53.4615 0.422221 53.3196 0.329387C53.2777 0.301665 53.2353 0.277225 53.1914 0.252968C53.0668 0.186397 52.9384 0.131317 52.8046 0.0910101C52.7681 0.0804317 52.7358 0.0656586 52.6993 0.0556274C52.5519 0.0215214 52.4024 0 52.2494 0H4.86305C2.70124 0 0.941406 1.75983 0.941406 3.92164V96.0785C0.941406 98.2405 2.70124 100 4.86305 100H69.5686C71.7323 100 73.4905 98.2405 73.4905 96.0785V24.1833C73.4906 24.1096 73.4788 24.0369 73.4711 23.9646ZM29.46 93.2443C29.0894 92.6078 28.5523 90.7591 27.8818 87.9708C27.2767 85.1502 26.3035 84.3769 24.2212 84.3441H22.6758V93.2443H17.6034V70.9081C19.2501 70.6399 21.7019 70.4389 24.422 70.4389C27.7815 70.4389 30.1325 70.9428 31.7442 72.2178C33.0875 73.2937 33.8274 74.8719 33.8274 76.9551C33.8274 79.8428 31.7778 81.8246 29.8293 82.5303V82.6308C31.409 83.2693 32.2811 84.7802 32.8518 86.8626C33.5578 89.4151 34.2626 92.3716 34.7001 93.2445H29.46V93.2443ZM51.3205 93.2443L49.5762 87.4339H43.0935L41.4803 93.2443H36.1747L43.0935 70.6063H49.8116L56.8303 93.2443H51.3205ZM4.86305 66.5853V3.92164H50.2884V23.986C50.2884 25.0684 51.1656 25.9468 52.2494 25.9468H69.5688L69.5708 66.5851H4.86305V66.5853Z" fill="#AEB1CF"/>
<path d="M24.9923 74.2344C23.7483 74.2344 23.0439 74.3361 22.6746 74.4031V80.6492H24.6905C27.2435 80.6492 28.7553 79.3738 28.7553 77.3922C28.7542 75.3104 27.3432 74.2681 24.9923 74.2344Z" fill="#AEB1CF"/>
<path d="M40.1052 26.6877L30.648 33.7477C30.648 33.7477 29.7628 33.8376 28.748 34.0865V44.3327C29.7621 44.5516 30.648 44.6525 30.648 44.6525L39.9005 51.5183C39.9005 51.5183 41.5989 52.9398 41.5989 51.4724C41.5989 49.9987 41.5989 28.0563 41.5989 26.7164C41.5989 25.5631 40.1052 26.6877 40.1052 26.6877Z" fill="#AEB1CF"/>
<path d="M25.7461 36.1528C25.7461 38.0653 25.7461 41.4124 25.7461 42.7519C25.7461 43.2647 26.4689 43.6634 27.3589 43.9598V34.5254C26.4689 34.8958 25.7461 35.4196 25.7461 36.1528Z" fill="#AEB1CF"/>
<path d="M35.753 18.5156C24.409 18.5156 15.1807 27.7441 15.1807 39.0879C15.1807 50.4317 24.4092 59.6604 35.753 59.6604C47.0975 59.6604 56.326 50.4317 56.326 39.0879C56.326 27.7441 47.0975 18.5156 35.753 18.5156ZM35.753 56.7203C26.0306 56.7203 18.1218 48.8116 18.1218 39.0892C18.1218 29.3666 26.0306 21.458 35.753 21.458C45.4755 21.458 53.3847 29.3666 53.3847 39.0892C53.3845 48.8114 45.4754 56.7203 35.753 56.7203Z" fill="#AEB1CF"/>
</svg>
