<svg width="73" height="100" viewBox="0 0 73 100" fill="none" xmlns="http://www.w3.org/2000/svg">
<path d="M13.1033 74.9639C11.7974 74.9639 11.0558 75.0691 10.6677 75.1421V81.7041H12.7856C15.4679 81.7041 17.0552 80.3636 17.0552 78.2824C17.055 76.0936 15.5733 75 13.1033 74.9639Z" fill="#F57C1F"/>
<path d="M35.4784 75.1768H35.408C35.0556 76.5881 34.7027 78.388 34.3146 79.7648L32.9038 84.8105H38.1616L36.6795 79.7648C36.2539 78.3526 35.8302 76.5881 35.4784 75.1768Z" fill="#F57C1F"/>
<path d="M72.5297 23.9636C72.5241 23.505 72.3767 23.0522 72.0617 22.6942L52.7824 0.670629C52.7767 0.664428 52.7711 0.662604 52.767 0.65695C52.6521 0.528551 52.5181 0.422768 52.3764 0.329387C52.3342 0.302212 52.2919 0.277772 52.248 0.252968C52.1254 0.186397 51.997 0.131317 51.8611 0.0910101C51.8247 0.0804317 51.7924 0.0656586 51.7559 0.0561745C51.6105 0.0206095 51.459 0 51.306 0H3.92164C1.75983 0 0 1.75983 0 3.92164V96.0785C0 98.2413 1.75983 100 3.92164 100H68.6272C70.789 100 72.5491 98.2413 72.5491 96.0785V24.1833C72.5492 24.1096 72.5374 24.0374 72.5297 23.9636ZM17.796 94.9381C17.4077 94.2669 16.8423 92.3274 16.1383 89.3976C15.5031 86.4344 14.4804 85.6217 12.2915 85.587H10.6677V94.9381H5.33822V71.4712C7.06778 71.1876 9.64506 70.9769 12.5019 70.9769C16.0316 70.9769 18.5029 71.5053 20.1962 72.8458C21.607 73.9744 22.3845 75.6339 22.3845 77.8213C22.3845 80.8572 20.2327 82.939 18.1852 83.6797V83.7862C19.8435 84.4573 20.7607 86.0446 21.36 88.2323C22.101 90.9141 22.8421 94.0183 23.3011 94.9372H17.796V94.9381V94.9381ZM40.7703 94.9381L38.9359 88.8328H32.1255L30.4324 94.9381H24.8558L32.1245 71.1531H39.1821L46.5572 94.9381H40.7703ZM62.1954 94.9381C61.807 94.2669 61.241 92.3274 60.5352 89.3976C59.9014 86.4344 58.8769 85.6217 56.6901 85.587H55.0666V94.9381H49.7376V71.4712C51.4665 71.1876 54.0421 70.9769 56.901 70.9769C60.4301 70.9769 62.9002 71.5053 64.5947 72.8458C66.0058 73.9744 66.7835 75.6339 66.7835 77.8213C66.7835 80.8572 64.6292 82.939 62.5823 83.6797V83.7862C64.2425 84.4573 65.1596 86.0446 65.759 88.2323C66.4999 90.9141 67.2411 94.0183 67.7005 94.9372H62.1954V94.9381V94.9381ZM3.92164 66.5853V3.92164H49.3451V23.986C49.3451 25.0684 50.2241 25.9468 51.306 25.9468H68.6274V66.5851H3.92164V66.5853Z" fill="#F57C1F"/>
<path d="M57.5022 74.9639C56.1963 74.9639 55.4553 75.0691 55.0667 75.1421V81.7041H57.1843C59.865 81.7041 61.4545 80.3636 61.4545 78.2824C61.4545 76.0936 59.9724 75 57.5022 74.9639Z" fill="#F57C1F"/>
<path d="M42.9551 26.7461H13.2529V30.679H42.9551V26.7461Z" fill="#F57C1F"/>
<path d="M42.9552 35.716H47.9777V37.0109V38.4873V40.1657V41.6444V43.361V44.8384V46.8335H42.9552V51.6466H13.2529V55.5759H42.9552V51.8698H57.8066V46.8335H49.5079V44.8384H52.7841V43.361H49.5079V41.6444H52.7841V40.1657H49.5079V38.4873H52.7841V37.0109H49.5079V35.716H57.8066V30.6787H42.9552V35.716Z" fill="#F57C1F"/>
<path d="M39.1352 32.7012H17.0725V49.8504H39.1352V32.7012Z" fill="#F57C1F"/>
</svg>
