<svg width="74" height="100" viewBox="0 0 74 100" fill="none" xmlns="http://www.w3.org/2000/svg">
<path d="M32.3694 75.3711H32.3066C31.9931 76.6244 31.6801 78.2222 31.334 79.4441L30.082 83.9248H34.7509L33.435 79.4441C33.0568 78.1917 32.683 76.6245 32.3694 75.3711Z" fill="#69A042"/>
<path d="M73.0767 23.9636C73.0728 23.505 72.9263 23.0521 72.6115 22.694L53.3309 0.67066C53.3252 0.664487 53.3196 0.66249 53.3156 0.656862C53.2007 0.528503 53.0667 0.422657 52.9251 0.329339C52.883 0.302105 52.8408 0.277596 52.7967 0.252723C52.6742 0.186274 52.544 0.131082 52.41 0.0907769C52.3735 0.0802468 52.341 0.0653594 52.3047 0.0559186C52.1591 0.0206971 52.0079 0 51.8546 0H4.47039C2.30663 0 0.548828 1.7598 0.548828 3.92174V96.0784C0.548828 98.2413 2.30663 100 4.47039 100H69.1762C71.3381 100 73.0979 98.2413 73.0979 96.0784V24.1833C73.0977 24.1096 73.0863 24.0374 73.0767 23.9636ZM16.6712 92.915C16.326 92.3205 15.8253 90.597 15.1986 87.9948C14.6341 85.3628 13.726 84.6438 11.785 84.6142H10.3431V92.915H5.61345V72.0817C7.14867 71.8308 9.43316 71.6431 11.972 71.6431C15.1045 71.6431 17.2975 72.1142 18.8008 73.3034C20.0544 74.3058 20.7438 75.7784 20.7438 77.721C20.7438 80.4151 18.8329 82.2647 17.0152 82.9225V83.0155C18.4858 83.6108 19.3015 85.0222 19.8358 86.9628C20.4927 89.3439 21.1519 92.1013 21.5577 92.915H16.6712V92.915ZM37.0684 92.915L35.4387 87.496H29.3917L27.889 92.915H22.9388L29.3917 71.8002H35.6575L42.2067 92.915H37.0684ZM63.0736 92.915H57.9035L56.1168 83.8292C55.711 81.699 55.3643 79.7255 55.1163 77.3129H55.054C54.6778 79.6939 54.3341 81.6988 53.8323 83.8292L51.8274 92.915H46.5952L41.5832 71.8002H46.6882L48.2871 80.5087C48.7563 83.0155 49.1947 85.7409 49.5393 87.8713H49.6016C49.9472 85.585 50.4471 83.047 50.9794 80.4476L52.7659 71.8002H57.8401L59.5338 80.6965C60.0039 83.1723 60.3476 85.4281 60.6607 87.7785H60.7239C61.0362 85.4298 61.507 82.9541 61.9438 80.4476L63.6671 71.8002H68.5231L63.0736 92.915ZM4.47039 66.5852V3.92174H49.8937V23.9862C49.8937 25.0684 50.7728 25.9469 51.8546 25.9469H69.1762V66.5852H4.47039Z" fill="#69A042"/>
<path d="M12.5044 75.1836C11.3439 75.1836 10.6867 75.2782 10.343 75.3405V81.1674H12.2234C14.6035 81.1674 16.0124 79.9763 16.0124 78.1286C16.0124 76.185 14.6978 75.2152 12.5044 75.1836Z" fill="#69A042"/>
<path d="M41.1702 42.6043L54.17 39.2692C54.17 39.2692 54.0053 32.7984 48.8486 26.6104L41.1702 42.6043Z" fill="#69A042"/>
<path d="M20.2998 47.1767C20.2998 47.1767 23.284 52.9204 30.6331 56.2234L30.5244 38.4805L20.2998 47.1767Z" fill="#69A042"/>
<path d="M47.2771 25.2231C47.2771 25.2231 42.0774 21.3689 34.0242 21.6223L41.9012 37.521L47.2771 25.2231Z" fill="#69A042"/>
<path d="M32.6548 56.7802C32.6548 56.7802 39.0177 57.9643 46.1439 54.2056L32.0981 43.3701L32.6548 56.7802Z" fill="#69A042"/>
<path d="M31.9633 22.0078C31.9633 22.0078 25.7244 23.732 20.9675 30.2347L38.3426 33.8155L31.9633 22.0078Z" fill="#69A042"/>
<path d="M47.8296 52.9583C47.8296 52.9583 52.6798 48.6725 54.1045 40.7432L36.9189 45.142L47.8296 52.9583Z" fill="#69A042"/>
<path d="M20.0007 32.0938C20.0007 32.0938 17.5196 38.0723 19.7126 45.8245L33.2321 34.3359L20.0007 32.0938Z" fill="#69A042"/>
</svg>
