<svg width="73" height="100" viewBox="0 0 73 100" fill="none" xmlns="http://www.w3.org/2000/svg">
<path d="M19.4395 74.0391C18.0177 74.0391 17.2121 74.1541 16.7893 74.2315V81.3739H19.0943C22.013 81.3739 23.7407 79.9157 23.7407 77.6486C23.7407 75.2682 22.1281 74.0792 19.4395 74.0391Z" fill="#AEB1CF"/>
<path d="M72.6279 23.9636C72.6222 23.505 72.4767 23.0522 72.1617 22.6942L52.8805 0.670629C52.8767 0.664975 52.8708 0.662604 52.8652 0.65695C52.7503 0.528551 52.6182 0.422768 52.4763 0.329387C52.4344 0.302212 52.3921 0.277772 52.3481 0.252968C52.2236 0.186397 52.0952 0.131317 51.9613 0.0910101C51.9248 0.0804317 51.8925 0.0656586 51.8561 0.0561745C51.7087 0.0215214 51.5591 0 51.4061 0H4.01979C1.85798 0 0.0981445 1.75983 0.0981445 3.92164V96.0785C0.0981445 98.2413 1.85798 100 4.01979 100H68.7254C70.889 100 72.6472 98.2413 72.6472 96.0785V24.1833C72.6474 24.1096 72.6355 24.0374 72.6279 23.9636ZM24.5472 95.7741C24.1244 95.0457 23.5098 92.9333 22.7423 89.7461C22.0511 86.5205 20.9373 85.6368 18.557 85.5985H16.79V95.776H10.99V70.2379C12.8713 69.9313 15.6756 69.7017 18.7862 69.7017C22.6263 69.7017 25.3147 70.2762 27.1579 71.736C28.693 72.9645 29.538 74.7701 29.538 77.1503C29.538 80.4516 27.1962 82.7187 24.9687 83.525V83.6399C26.7736 84.3694 27.7716 86.0964 28.4245 88.4786C29.2301 91.3987 30.0372 94.7761 30.536 95.7741H24.5472ZM56.0321 95.7741L55.6484 85.8675C55.5324 82.7571 55.4177 78.9936 55.4177 75.2301H55.3026C54.4964 78.5327 53.4204 82.2191 52.4218 85.2533L49.2728 95.3528H44.7031L41.9381 85.3297C41.0926 82.2957 40.2101 78.6095 39.5963 75.2301H39.5195C39.3656 78.7237 39.2505 82.7188 39.0592 85.9443L38.598 95.7741H33.1835L34.8355 69.8923H42.6305L45.1645 78.5327C45.9718 81.5277 46.7779 84.7541 47.3542 87.7862H47.4693C48.1987 84.7915 49.0825 81.3736 49.9279 78.4924L52.693 69.8912H60.3346L61.7555 95.7741H56.0321V95.7741ZM4.01979 66.5853V3.92164H49.4451V23.986C49.4451 25.0684 50.3224 25.9468 51.4061 25.9468H68.7256L68.7276 66.5851H4.01979V66.5853Z" fill="#AEB1CF"/>
<path d="M32.1666 30.4141C32.0794 30.3448 31.9607 30.3316 31.8596 30.382C31.7586 30.4288 31.696 30.5319 31.696 30.6424V42.9625C31.696 43.0721 31.7588 43.1759 31.8596 43.2219L31.9869 43.2525C32.0515 43.2525 32.1146 43.2295 32.1675 43.1883L41.8135 37.0295C41.8822 36.9726 41.9235 36.8875 41.9235 36.8012C41.9235 36.7151 41.8822 36.6309 41.8135 36.5729L32.1666 30.4141Z" fill="#AEB1CF"/>
<path d="M34.5249 24.5068C23.5725 24.5068 14.6936 29.8952 14.6936 36.5421C14.6936 43.1894 23.5725 48.5773 34.5249 48.5773C35.3051 48.5773 36.0746 48.5472 36.8322 48.4939C36.2052 50.3426 33.9892 55.2215 32.016 60.9089L50.0657 45.1727C53.7411 41.6198 54.1309 38.5244 54.1309 36.5205C54.1309 29.8746 45.4776 24.5068 34.5249 24.5068ZM48.3981 43.3607L37.8915 52.5206C38.4631 51.1276 38.913 50.0245 39.1627 49.286C39.429 48.5058 39.2855 47.6442 38.7819 46.9922C38.3146 46.3843 37.5926 46.0323 36.8315 46.0323C36.7751 46.0323 36.7179 46.0341 36.6602 46.0379C35.9155 46.0903 35.2161 46.1156 34.5238 46.1156C25.1081 46.1156 17.1545 41.7311 17.1545 36.541C17.1545 31.3508 25.1081 26.9663 34.5238 26.9663C43.8168 26.9663 51.6689 31.3406 51.6689 36.5193C51.6685 38.2255 51.2948 40.5412 48.3981 43.3607Z" fill="#AEB1CF"/>
</svg>
