<svg width="74" height="100" viewBox="0 0 74 100" fill="none" xmlns="http://www.w3.org/2000/svg">
<path d="M55.5658 36.9416H52.939V35.3725C52.939 34.7362 52.6863 34.1258 52.2362 33.6756L41.4763 22.9157C41.0261 22.4656 40.416 22.2129 39.7794 22.2129H23.2334C21.9082 22.2129 20.8337 23.2873 20.8337 24.6126V24.811H18.2776C17.6495 24.811 17.1404 25.3201 17.1404 25.9482V26.9441C17.1404 27.5722 17.6495 28.0813 18.2776 28.0813H20.8337V30.876H18.2776C17.6495 30.876 17.1404 31.3851 17.1404 32.0132V33.0091C17.1404 33.6371 17.6495 34.1463 18.2776 34.1463H20.8337V36.9409H18.2776C17.6495 36.9409 17.1404 37.4501 17.1404 38.0781V39.074C17.1404 39.7021 17.6495 40.2113 18.2776 40.2113H20.8337V43.0059H18.2776C17.6495 43.0059 17.1404 43.515 17.1404 44.1431V45.139C17.1404 45.7671 17.6495 46.2762 18.2776 46.2762H20.8337V49.0709H18.2776C17.6495 49.0709 17.1404 49.58 17.1404 50.2081V51.204C17.1404 51.832 17.6495 52.3412 18.2776 52.3412H20.8337V58.1002C20.8337 59.4254 21.9082 60.4998 23.2334 60.4998H50.5393C51.8646 60.4998 52.939 59.4254 52.939 58.1002V52.3412H55.5658C56.1939 52.3412 56.703 51.832 56.703 51.204V50.2081C56.703 49.58 56.1939 49.0709 55.5658 49.0709H52.939V46.2775H55.5658C56.1939 46.2775 56.703 45.7683 56.703 45.1403V44.1444C56.703 43.5163 56.1939 43.0071 55.5658 43.0071H52.939V40.2125H55.5658C56.1939 40.2125 56.703 39.7034 56.703 39.0753V38.0794C56.703 37.451 56.1939 36.9416 55.5658 36.9416ZM49.6683 57.2305H24.1044V25.4839H26.9798V34.1425C26.5104 34.3075 26.1732 34.7535 26.1732 35.2794V38.0296C26.1732 38.6955 26.7129 39.2356 27.3791 39.2356H30.1293C30.7952 39.2356 31.3353 38.6958 31.3353 38.0296V35.2794C31.3353 34.6542 30.8596 34.1403 30.2504 34.0797V25.4839H34.0536V36.1703C33.5129 36.2895 33.1078 36.7706 33.1078 37.3472V40.0974C33.1078 40.7633 33.6476 41.3034 34.3138 41.3034H37.064C37.7299 41.3034 38.27 40.7636 38.27 40.0974V37.3472C38.27 36.7706 37.8649 36.2892 37.3242 36.1703V25.4839H39.4185L45.628 31.6933H41.6939C41.028 31.6933 40.4879 32.233 40.4879 32.8993V33.758C40.4879 34.4239 41.028 34.964 41.6939 34.964H48.4538C48.5876 34.964 48.7157 34.9412 48.8359 34.9012L49.668 35.7334V57.2305H49.6683Z" fill="#AEB1CF"/>
<path d="M18.2314 76.9883C17.356 76.9883 16.8591 77.0593 16.5989 77.1066V81.5069H18.0184C19.8162 81.5069 20.8809 80.6078 20.8809 79.2123C20.8809 77.7454 19.8875 77.0123 18.2314 76.9883Z" fill="#AEB1CF"/>
<path d="M33.8931 77.0352C31.4562 77.0352 30.0366 79.3538 30.0366 82.4528C30.0366 85.5755 31.5035 87.7758 33.9167 87.7758C36.3536 87.7758 37.7492 85.4572 37.7492 82.3582C37.7495 79.4954 36.3773 77.0352 33.8931 77.0352Z" fill="#AEB1CF"/>
<path d="M72.3554 22.2555L53.8523 1.15457C53.2088 0.420819 52.2804 0 51.3044 0H4.5689C2.40329 0 0.647461 1.75583 0.647461 3.92144V96.0786C0.647461 98.2445 2.40329 100 4.5689 100H69.2747C71.4406 100 73.1964 98.2442 73.1964 96.0782V24.4898C73.1964 23.6677 72.8977 22.8737 72.3554 22.2555ZM21.378 90.3786C21.1177 89.9291 20.7392 88.6278 20.266 86.6644C19.8401 84.677 19.1543 84.1332 17.6875 84.1092H16.5991V90.3786H13.0266V74.6458C14.1859 74.4565 15.9127 74.3146 17.8291 74.3146C20.195 74.3146 21.8512 74.6695 22.9868 75.5685C23.9332 76.3256 24.4534 77.4376 24.4534 78.9045C24.4534 80.9389 23.0105 82.3348 21.6382 82.8316V82.9026C22.7499 83.3521 23.3654 84.4168 23.7673 85.8836C24.2641 87.6814 24.761 89.7634 25.0685 90.3786H21.378ZM33.7275 90.6388C28.996 90.6388 26.2281 87.0663 26.2281 82.5237C26.2281 77.7449 29.2802 74.1723 33.9881 74.1723C38.8852 74.1723 41.5587 77.8395 41.5587 82.2398C41.5584 87.4685 38.388 90.6388 33.7275 90.6388ZM57.647 90.3786L57.4104 84.2745C57.3391 82.3584 57.2684 80.0398 57.2684 77.7215H57.1974C56.7006 79.7559 56.0381 82.0272 55.423 83.8963L53.4833 90.118H50.6678L48.9643 83.9433C48.4442 82.0742 47.8997 79.8032 47.5214 77.7212H47.4741C47.3795 79.8739 47.3088 82.3344 47.1905 84.3218L46.9066 90.3783H43.571L44.5883 74.4326H49.3912L50.9524 79.7556C51.4492 81.601 51.946 83.5881 52.3009 85.4571H52.3719C52.8214 83.6117 53.3656 81.5064 53.8861 79.7319L55.5892 74.4326H60.2974L61.1728 90.3783H57.647V90.3786ZM4.5689 66.5843V3.92175H49.9943V23.9851C49.9943 25.0674 50.8713 25.946 51.9552 25.946H69.275L69.2769 66.5843H4.5689Z" fill="#AEB1CF"/>
</svg>
