<svg width="73" height="100" viewBox="0 0 73 100" fill="none" xmlns="http://www.w3.org/2000/svg">
<path d="M31.9039 74.5957C30.8746 74.5957 30.1768 74.6954 29.812 74.7949V81.4038C30.2432 81.5044 30.7746 81.5369 31.5063 81.5369C34.1965 81.5369 35.8572 80.1754 35.8572 77.8835C35.857 75.825 34.4286 74.5957 31.9039 74.5957Z" fill="#AEB1CF"/>
<path d="M12.407 74.5293C11.1786 74.5293 10.4816 74.6299 10.116 74.696V80.8729H12.1089C14.6325 80.8729 16.1276 79.6111 16.1276 77.6513C16.1267 75.5919 14.7327 74.5636 12.407 74.5293Z" fill="#AEB1CF"/>
<path d="M72.7261 23.9636C72.7203 23.505 72.5749 23.0521 72.2599 22.694L52.9783 0.67066C52.9745 0.665031 52.9687 0.663034 52.9631 0.656862C52.8481 0.528503 52.7162 0.422657 52.5744 0.329339C52.5322 0.302105 52.4899 0.277596 52.446 0.252723C52.3215 0.186274 52.1931 0.131626 52.0591 0.0913215C52.0228 0.0802468 51.9903 0.0653594 51.9538 0.0559186C51.8066 0.0216049 51.6572 0 51.5039 0H4.11785C1.95591 0 0.196289 1.7598 0.196289 3.92174V96.0784C0.196289 98.2413 1.95591 100 4.11785 100H68.8236C70.9874 100 72.7454 98.2413 72.7454 96.0784V24.1833C72.7452 24.1096 72.7337 24.0374 72.7261 23.9636ZM16.8237 93.3268C16.4581 92.695 15.9267 90.868 15.2631 88.1126C14.6647 85.3228 13.7021 84.5598 11.6433 84.5262H10.1151V93.3277H5.10006V71.2421C6.72769 70.9768 9.15089 70.7758 11.8411 70.7758C15.1619 70.7758 17.4875 71.2746 19.0815 72.5374C20.4099 73.6003 21.14 75.1607 21.14 77.2192C21.14 80.0761 19.1146 82.0342 17.1883 82.7319V82.8325C18.7489 83.4635 19.6129 84.9579 20.1774 87.0164C20.8744 89.541 21.5728 92.4632 22.0042 93.3277H16.8235V93.3268H16.8237ZM38.8126 83.065C37.0844 84.6908 34.5276 85.4214 31.5396 85.4214C30.8745 85.4214 30.2778 85.3898 29.8119 85.3217V93.3248H24.797V71.2421C26.358 70.9768 28.5501 70.7758 31.6381 70.7758C34.7598 70.7758 36.9858 71.3751 38.4794 72.5701C39.9079 73.6988 40.871 75.559 40.871 77.7515C40.871 79.943 40.1405 81.8012 38.8126 83.065ZM62.8924 93.3268L62.5604 84.7589C62.4598 82.0687 62.361 78.8143 62.361 75.559H62.2615C61.5645 78.4142 60.6339 81.6022 59.7703 84.2275L57.0455 92.961H53.0942L50.7035 84.2925C49.972 81.6692 49.2091 78.481 48.6777 75.559H48.6107C48.4783 78.5816 48.379 82.0342 48.2124 84.825L47.8142 93.3268H43.1314L44.5599 70.9434H51.3011L53.4936 78.414C54.1906 81.0057 54.8885 83.7947 55.3863 86.418H55.4869C56.1179 83.8272 56.881 80.8726 57.6123 78.3824L60.003 70.9432H66.6119L67.8405 93.3266H62.8924V93.3268ZM4.11785 66.5852V3.92174H49.5431V23.9862C49.5431 25.0689 50.4202 25.9469 51.5039 25.9469H68.8236L68.8256 66.5852H4.11785Z" fill="#AEB1CF"/>
<path d="M56.5844 40.2247C56.5481 53.0167 46.8887 62.2882 35.4878 62.7966C29.4876 63.0638 24.1639 61.3336 19.6516 57.3663C14.6004 52.9257 12.0717 47.2302 12.0229 40.5532C11.9808 34.8059 13.9179 29.6736 17.8464 25.4276C22.464 20.4394 28.2171 18.0205 35.0406 18.1943C46.6902 18.4915 56.4148 28.0243 56.5844 40.2247ZM45.5626 37.1902C45.5626 36.9019 45.553 36.7168 45.5646 36.5325C45.5722 36.4343 45.6192 36.3391 45.6432 36.2409C46.0673 34.4811 46.1859 32.7402 45.4402 31.0169C44.7509 29.4266 44.1458 27.799 43.4317 26.2208C43.0775 25.4366 42.6944 24.5846 42.0893 24.0131C40.5766 22.5866 38.6367 22.5788 36.7355 22.8876C35.6703 23.0599 34.632 23.3816 33.5377 23.2649C32.1044 23.1131 30.6761 22.8896 29.2389 22.7972C28.0163 22.7195 26.7195 23.6808 26.3633 24.8504C25.9243 26.2947 25.5063 27.7476 25.1369 29.2101C24.776 30.6403 25.0603 31.46 26.3849 32.1603C27.7799 32.8994 29.3164 33.3805 30.8104 33.9199C31.9096 34.3168 33.0555 34.5835 34.1485 34.9913C34.8662 35.2589 35.4395 35.7068 35.4205 36.6414C35.4076 37.2454 35.6369 37.809 36.0762 38.2805C36.2596 38.4767 36.3262 38.7817 36.4468 39.0365C36.4056 39.1084 36.3645 39.1795 36.3231 39.2505C35.6692 39.2046 34.9856 39.2672 34.3664 39.0944C30.9172 38.1365 27.6721 36.6995 24.6739 34.7415C24.3575 34.5356 24.0995 34.0697 24.0329 33.6888C23.9308 33.1053 23.9299 32.4709 24.0572 31.8976C24.1759 31.3662 23.9729 31.3092 23.5819 31.3346C22.3798 31.4103 21.1759 31.4653 19.9791 31.587C18.6621 31.72 17.5975 32.3281 16.8613 33.4535C16.5247 33.9671 16.4032 34.521 16.7689 35.0514C17.2513 35.7503 17.7113 36.49 18.3179 37.0701C19.5554 38.2525 20.8101 39.4408 22.1935 40.4388C23.7952 41.5967 25.4994 42.6341 27.2425 43.5653C28.6064 44.293 30.0875 44.8095 31.5365 45.3682C33.4268 46.0967 35.3858 46.5802 37.4007 46.8133C38.3112 46.9183 39.2246 47.0479 40.1379 47.068C41.482 47.0985 42.834 47.1145 44.1704 47.0025C45.8355 46.8631 47.2821 46.0388 48.7412 45.2968C50.6456 44.3299 51.9676 42.919 52.4464 40.7587C52.7529 39.3762 52.7069 38.086 51.4871 37.2478C50.1477 36.3262 48.7289 35.4847 47.1192 35.0525C46.8569 35.9197 46.5869 36.7645 45.5626 37.1902ZM13.864 48.6733C17.5768 56.8923 23.7996 61.7721 32.7365 62.4614C40.4268 63.0551 46.8338 60.0602 51.7944 53.864C51.2037 53.864 50.7556 53.8736 50.3075 53.8621C49.015 53.8295 47.7225 53.7797 46.4292 53.7654C46.3259 53.7645 46.1093 54.023 46.1332 54.1111C46.2768 54.6461 46.007 54.9075 45.5771 55.1085C44.1525 55.775 42.8476 56.604 41.734 57.7358C41.3941 58.0813 40.9145 58.3198 40.4578 58.5056C40.2416 58.5934 39.9293 58.4451 39.6603 58.4039C39.7149 58.1637 39.7015 57.8736 39.8335 57.6897C40.7977 56.3625 41.7944 55.0577 42.7747 53.7441C42.9306 53.5346 43.1318 53.324 43.1902 53.0846C43.5014 51.7921 43.7799 50.4909 44.0575 49.1888C44.1245 48.879 44.0279 48.6546 43.6507 48.6684C43.4448 48.6772 43.24 48.689 43.035 48.69C42.5332 48.6939 42.0297 48.7164 41.529 48.69C40.5417 48.6359 39.5595 48.34 38.5773 48.7752C38.3667 48.8696 38.0699 48.7959 37.8179 48.7676C37.277 48.7049 36.7391 48.5579 36.2004 48.5579C34.949 48.5579 33.6944 48.7011 32.4493 48.633C31.8237 48.6009 31.1069 48.373 30.626 47.99C29.7198 47.2701 28.9424 46.3849 28.1367 45.5437C27.8279 45.2211 27.5447 45.1096 27.1142 45.3073C26.522 45.5811 26.1104 45.3213 25.724 44.8262C25.2031 44.1594 24.6202 43.5379 24.0189 42.9388C23.6541 42.5773 23.1868 42.4887 22.677 42.7084C22.0476 42.9778 21.4769 43.3097 21.4864 44.0862C21.4946 44.7955 21.675 45.4509 22.1552 46.035C22.7042 46.7038 23.1423 47.4515 23.9121 47.9322C24.0759 48.0343 24.161 48.4794 24.0817 48.688C24.0027 48.8967 23.6857 49.1036 23.4444 49.1467C22.8419 49.252 22.2789 49.1156 21.813 48.6565C21.3023 48.1528 20.779 47.6588 20.228 47.2017C19.9935 47.0069 19.6817 46.8039 19.3974 46.7899C18.474 46.7516 17.5463 46.8028 16.6209 46.8104C15.8689 46.8171 15.1182 46.8113 14.2375 46.8113C13.1335 46.7509 13.3188 47.2156 13.864 48.6733Z" fill="#AEB1CF"/>
<path d="M27.859 26.4482C28.2506 26.6933 28.5747 26.8306 28.8139 27.0581C29.4875 27.6962 30.319 27.7217 31.1102 27.5621C32.1032 27.362 32.9973 27.6287 33.9122 27.8756C34.0142 27.9029 34.1564 28.0882 34.1415 28.1777C34.116 28.3304 34.0113 28.5483 33.8878 28.5913C33.4363 28.7522 32.9692 28.8843 32.4971 28.9657C31.8394 29.0815 31.1711 29.1303 30.5109 29.2324C30.2974 29.266 30.0494 29.3275 29.8973 29.464C29.0452 30.2304 28.4296 29.4511 27.827 29.0982C27.1453 28.6999 27.1228 27.9206 27.2622 27.2237C27.319 26.9441 27.6418 26.7186 27.859 26.4482Z" fill="#AEB1CF"/>
<path d="M36.9077 24.1304C37.643 23.792 38.4108 23.7038 39.1987 23.8125C39.535 23.8585 39.8814 23.906 40.1926 24.0333C40.6588 24.2223 40.9767 24.5382 40.9883 25.1166C40.9969 25.6782 40.5747 25.839 40.2185 25.9256C39.6325 26.0654 39.0141 26.0701 38.409 26.1095C38.3171 26.1157 38.2174 25.9981 38.0491 25.8911C38.3995 25.589 38.7002 25.3301 39.043 25.0353C38.4874 24.2922 37.617 24.4451 36.9077 24.1304Z" fill="#AEB1CF"/>
<path d="M37.7173 53.0883C37.1171 52.8777 36.5149 52.6689 35.915 52.4583C35.8767 52.445 35.8431 52.4047 35.8057 52.4027C35.4521 52.3837 35.0479 52.418 35.1725 51.859C35.2778 51.386 35.801 51.0567 36.2377 51.1965C36.5243 51.2865 36.8155 51.3889 37.0701 51.544C37.5287 51.8245 37.9078 51.8742 38.3146 51.4263C38.4316 51.2971 38.9236 51.2771 38.9504 51.3383C39.0786 51.6264 39.2357 52.0057 39.1436 52.2669C38.9247 52.8815 38.3608 53.0367 37.7173 53.0883Z" fill="#AEB1CF"/>
</svg>
