<svg width="74" height="100" viewBox="0 0 74 100" fill="none" xmlns="http://www.w3.org/2000/svg">
<path d="M20.0011 75.6797C18.8862 75.6797 18.2539 75.7696 17.9216 75.8309V81.4337H19.7301C22.0193 81.4337 23.3755 80.2884 23.3755 78.5116C23.3757 76.6437 22.1099 75.7104 20.0011 75.6797Z" fill="#AEB1CF"/>
<path d="M73.2749 23.9636C73.2693 23.505 73.1246 23.0521 72.8098 22.694L53.5273 0.67066C53.5235 0.664487 53.5177 0.66249 53.5119 0.656862C53.397 0.528503 53.265 0.422657 53.1232 0.329339C53.0811 0.302105 53.039 0.277596 52.9948 0.252723C52.8703 0.186274 52.7421 0.131082 52.6081 0.0907769C52.5718 0.0802468 52.5391 0.0653594 52.5028 0.0559186C52.3554 0.0206971 52.2062 0 52.0529 0H4.66668C2.50492 0 0.745117 1.7598 0.745117 3.92174V96.0784C0.745117 98.2413 2.50474 100 4.66668 100H69.3724C71.5362 100 73.294 98.2413 73.294 96.0784V24.1833C73.294 24.1096 73.2826 24.0374 73.2749 23.9636ZM24.0078 92.7322C23.6766 92.1589 23.195 90.5026 22.5918 88.0017C22.0499 85.4702 21.1763 84.7789 19.3079 84.7484H17.9216V92.7331H13.3724V72.6963C14.8486 72.4561 17.0479 72.2742 19.4884 72.2742C22.5009 72.2742 24.6096 72.727 26.0557 73.8722C27.2607 74.8354 27.9235 76.2522 27.9235 78.1193C27.9235 80.7119 26.0853 82.489 24.3391 83.1209V83.2119C25.7536 83.7833 26.5372 85.1391 27.051 87.008C27.6833 89.2979 28.3148 91.9483 28.7069 92.7322H24.0078ZM36.2058 93.0338C33.8874 93.0338 31.5969 92.4317 30.4519 91.7978L31.3863 88.0017C32.6218 88.6355 34.5185 89.2674 36.4774 89.2674C38.586 89.2674 39.7006 88.3933 39.7006 87.0692C39.7006 85.8034 38.7374 85.0806 36.2961 84.2065C32.9217 83.0307 30.7229 81.1638 30.7229 78.2112C30.7229 74.7473 33.6138 72.0952 38.4052 72.0952C40.6942 72.0952 42.3805 72.5787 43.5856 73.1197L42.5611 76.8248C41.7474 76.4343 40.3017 75.8617 38.314 75.8617C36.3255 75.8617 35.3618 76.7646 35.3618 77.8196C35.3618 79.115 36.5059 79.6885 39.1278 80.6812C42.7122 82.0084 44.3992 83.8773 44.3992 86.7379C44.4014 90.1404 41.7799 93.0338 36.2058 93.0338ZM52.4723 93.0338C50.1515 93.0338 47.8632 92.4317 46.7183 91.7978L47.6519 88.0017C48.8879 88.6355 50.7855 89.2674 52.7425 89.2674C54.8525 89.2674 55.9671 88.3933 55.9671 87.0692C55.9671 85.8034 55.0021 85.0806 52.5626 84.2065C49.1886 83.0307 46.9874 81.1638 46.9874 78.2112C46.9874 74.7473 49.8808 72.0952 54.6706 72.0952C56.9598 72.0952 58.6477 72.5787 59.8521 73.1197L58.8276 76.8248C58.0148 76.4343 56.5682 75.8617 54.5796 75.8617C52.5922 75.8617 51.6279 76.7646 51.6279 77.8196C51.6279 79.115 52.7712 79.6885 55.3924 80.6812C58.977 82.0084 60.6649 83.8773 60.6649 86.7379C60.6668 90.1404 58.0464 93.0338 52.4723 93.0338ZM4.66668 66.5852V3.92174H50.0922V23.9862C50.0922 25.0684 50.9691 25.9469 52.0529 25.9469H69.3724L69.3744 66.5852H4.66668Z" fill="#AEB1CF"/>
<path d="M15.613 48.3672C11.9806 48.3672 9.02637 51.3209 9.02637 54.959C9.02637 58.5849 11.9813 61.5422 15.613 61.5422C19.2482 61.5422 22.2061 58.5849 22.2061 54.959C22.2061 51.3209 19.2482 48.3672 15.613 48.3672Z" fill="#AEB1CF"/>
<path d="M9.71191 31.6377C9.3341 31.6377 9.02637 31.9454 9.02637 32.3271V40.6885C9.02637 41.0681 9.33319 41.3741 9.71191 41.3741C20.4532 41.3741 29.1952 50.1151 29.1952 60.8593C29.1952 61.2328 29.5011 61.5429 29.8793 61.5429H38.246H38.2758C38.6577 61.5429 38.9651 61.2328 38.9651 60.8593L38.9288 60.6429C38.8101 44.6306 25.7442 31.6377 9.71191 31.6377Z" fill="#AEB1CF"/>
<path d="M53.4363 60.6428C53.3234 36.6247 33.7438 17.1289 9.71076 17.1289C9.33312 17.1289 9.02539 17.4357 9.02539 17.8168V26.4239C9.02539 26.803 9.33222 27.108 9.71076 27.108C28.3186 27.108 43.4572 42.2505 43.4572 60.8581C43.4572 61.2316 43.7637 61.541 44.1399 61.541H52.749H52.7826C53.1588 61.541 53.4737 61.2316 53.4737 60.8581L53.4363 60.6428Z" fill="#AEB1CF"/>
</svg>
