<svg width="73" height="100" viewBox="0 0 73 100" fill="none" xmlns="http://www.w3.org/2000/svg">
<path d="M72.8237 23.9636C72.818 23.505 72.6725 23.0516 72.3575 22.6942L53.0763 0.670629C53.0725 0.664428 53.0666 0.662604 53.061 0.65695C52.9461 0.528551 52.814 0.422768 52.6721 0.329387C52.6302 0.302212 52.5879 0.277772 52.5439 0.252968C52.4194 0.186397 52.291 0.131317 52.1571 0.0910101C52.1206 0.0804317 52.0883 0.0656586 52.0519 0.0561745C51.9045 0.0215214 51.7549 0 51.6019 0H4.21559C2.05378 0 0.293945 1.75983 0.293945 3.92164V96.0785C0.293945 98.2413 2.05378 100 4.21559 100H68.9212C71.0848 100 72.843 98.2413 72.843 96.0785V24.1833C72.8432 24.1096 72.8313 24.0374 72.8237 23.9636ZM24.4557 93.7214C24.1037 93.1122 23.5903 91.3508 22.9507 88.6929C22.3742 86.0025 21.446 85.2655 19.4586 85.2348H17.9851V93.7214H13.1488V72.4227C14.7184 72.1661 17.0558 71.9736 19.651 71.9736C22.854 71.9736 25.0957 72.4533 26.6325 73.6711C27.9145 74.6956 28.6185 76.2004 28.6185 78.1864C28.6185 80.9415 26.6644 82.8299 24.8067 83.5029V83.5994C26.3117 84.2082 27.1452 85.6499 27.688 87.6348C28.3615 90.0686 29.034 92.8872 29.4494 93.7201H24.4557V93.7214ZM47.1028 76.2341H41.21V93.7214H36.3097V76.2341H30.5113V72.1343H47.1027V76.2341H47.1028ZM62.8954 76.1375H54.6005V81.0701H62.3517V85.0413H54.6005V93.7214H49.7004V72.1343H62.8955V76.1375H62.8954ZM4.21559 66.5853V3.92164H49.6409V23.986C49.6409 25.0684 50.5182 25.9468 51.6019 25.9468H68.9214L68.9234 66.5851H4.21559V66.5853Z" fill="#AEB1CF"/>
<path d="M20.1949 75.5938C19.0105 75.5938 18.3369 75.6904 17.9851 75.7544V81.7108H19.9076C22.341 81.7108 23.7833 80.4937 23.7833 78.6038C23.7831 76.6182 22.4371 75.6251 20.1949 75.5938Z" fill="#AEB1CF"/>
<path d="M45.5557 22.4153H43.2772V19.1205L37.638 13.4795H14.2468V53.279H22.1647V62.2157H51.194V28.0568L45.5557 22.4153ZM45.978 24.8734L49.218 28.1144H45.978V24.8734ZM43.2772 49.5029C43.2876 49.6714 43.2876 49.8408 43.2772 50.0094V49.5029ZM38.0601 15.9369L41.2992 19.1781H38.0601V15.9369ZM15.6873 51.8401V14.9181H36.6202V20.6173H41.8382V51.8411H15.6873V51.8401ZM49.7551 60.7763H23.6037V53.279H43.2761V50.9804H47.8507V49.0196H43.2761V44.6086H47.8507V42.6479H43.2761V37.8479H47.8507V35.8873H43.2761V23.8548H44.536V29.5538H49.7541V60.7763H49.7551Z" fill="#AEB1CF"/>
<path d="M20.2322 25.1665H24.2418L24.7054 28.8315H26.1694L24.5681 17.2324H22.8821L16.8752 28.8315H18.3909L20.2322 25.1665ZM22.4872 20.6567C22.831 19.9511 23.1236 19.2283 23.4333 18.5403H23.4675C23.5192 19.2283 23.6054 20.0725 23.6744 20.6744L24.1214 24.0301H20.7486L22.4872 20.6567Z" fill="#AEB1CF"/>
<path d="M40.8173 23.2031H28.1536V25.1638H40.8173V23.2031Z" fill="#AEB1CF"/>
<path d="M40.8173 28.1875H28.1536V30.1483H40.8173V28.1875Z" fill="#AEB1CF"/>
<path d="M40.8175 33.0078H17.9851V34.9686H40.8175V33.0078Z" fill="#AEB1CF"/>
<path d="M27.8273 37.7461H17.9851V39.7067H27.8273V37.7461Z" fill="#AEB1CF"/>
<path d="M27.8273 42.6484H17.9851V44.6091H27.8273V42.6484Z" fill="#AEB1CF"/>
<path d="M40.5514 47.6523H17.9851V49.613H40.5514V47.6523Z" fill="#AEB1CF"/>
<path d="M47.8517 55.373H25.2854V57.3339H47.8517V55.373Z" fill="#AEB1CF"/>
<path d="M35.8127 44.1965L35.4158 42.9299C32.107 34.014 29.8892 43.9514 29.8892 43.9514L29.7444 44.564H39.531H40.0614C37.2829 39.1319 35.8127 44.1965 35.8127 44.1965Z" fill="#AEB1CF"/>
</svg>
