<svg width="74" height="100" viewBox="0 0 74 100" fill="none" xmlns="http://www.w3.org/2000/svg">
<path d="M35.7484 76.5088H35.6867C35.3856 77.7133 35.0854 79.2511 34.7522 80.4259L33.5474 84.7331H38.0377L36.7723 80.4259C36.4108 79.2203 36.0495 77.7133 35.7484 76.5088Z" fill="#AEB1CF"/>
<path d="M73.373 23.9652C73.3673 23.5059 73.222 23.0533 72.9068 22.6951L53.6245 0.670629C53.6207 0.664975 53.615 0.662969 53.6083 0.65695C53.4943 0.528551 53.3612 0.422768 53.2204 0.329387C53.1784 0.302212 53.1361 0.277772 53.0921 0.252968C52.9676 0.186397 52.8392 0.131682 52.7042 0.0915572C52.6679 0.0806141 52.6366 0.0656586 52.6001 0.0561745C52.4536 0.0215214 52.3022 0 52.1501 0H4.7649C2.60309 0 0.843262 1.75983 0.843262 3.92164V96.0785C0.843262 98.2413 2.60309 100 4.7649 100H69.4707C71.6341 100 73.3923 98.2413 73.3923 96.0785V24.1842C73.3923 24.1111 73.381 24.0374 73.373 23.9652ZM16.8598 93.6811C14.5415 93.6811 12.2507 93.0796 11.1057 92.446L12.0402 88.6498C13.2757 89.2831 15.1723 89.9148 17.1313 89.9148C19.2395 89.9148 20.3539 89.0407 20.3539 87.7167C20.3539 86.4508 19.3913 85.7289 16.9488 84.854C13.5752 83.6798 11.3743 81.8113 11.3743 78.8607C11.3743 75.3957 14.2677 72.7437 19.0591 72.7437C21.3473 72.7437 23.0342 73.2253 24.2401 73.7681L23.2159 77.4725C22.4021 77.0828 20.9561 76.5103 18.9668 76.5103C16.9796 76.5103 16.0142 77.4129 16.0142 78.4682C16.0142 79.7626 17.1592 80.3351 19.7806 81.3298C23.3669 82.6556 25.0539 84.5243 25.0539 87.3868C25.0559 90.7877 22.4344 93.6811 16.8598 93.6811ZM40.2667 93.3803L38.6993 88.1685H32.8846L31.4383 93.3803H26.6784L32.8845 73.0745H38.9099L45.206 93.3803H40.2667ZM56.2912 93.3803H50.9287L44.421 73.0745H49.4523L51.9234 81.6606C52.6165 84.0705 53.2486 86.3904 53.7309 88.921H53.8208C54.334 86.4803 54.966 84.0705 55.659 81.7517L58.2498 73.0745H63.1306L56.2912 93.3803ZM4.7649 66.586V3.92255H50.1902V23.9876C50.1902 25.0701 51.0673 25.9483 52.151 25.9483H69.4707L69.4725 66.586H4.7649Z" fill="#AEB1CF"/>
<path d="M27.0313 49.5019C24.3697 48.3195 22.5109 45.6578 22.5109 42.5569C22.5109 38.3595 25.9155 34.9569 30.1127 34.9569C33.2763 34.9569 35.9849 36.8898 37.1299 39.6391C37.2793 39.6323 37.4272 39.6165 37.5806 39.6165H41.942C42.0704 38.4213 42.4906 37.3115 43.1731 36.4193C43.7726 35.6332 44.5262 35.1411 45.1884 34.7065C45.4853 34.5126 45.5944 34.3647 45.6101 34.3293C45.6712 34.0185 45.1025 33.0626 44.8882 32.7026L44.7443 32.4608C43.4636 30.2878 42.6498 28.3496 42.1776 26.3478C41.9546 25.4028 42.1526 24.486 42.7299 23.7599C43.3257 23.0045 44.2734 22.5516 45.2616 22.5516C45.8645 22.5516 46.4106 22.7254 46.8682 23.0231V16.4736H13.3557V52.7476H27.3185C27.1156 51.9302 26.9968 51.0797 26.9968 50.199C26.997 49.9644 27.0165 49.733 27.0313 49.5019ZM16.9843 20.1016H41.8577V32.8839H16.9843V20.1016Z" fill="#AEB1CF"/>
<path d="M39.0959 21.8291H30.2854V30.6377H39.0959V21.8291Z" fill="#AEB1CF"/>
<path d="M30.1129 40.484C30.8136 40.484 31.4347 40.8134 31.8463 41.3185C32.7745 40.7177 33.8033 40.263 34.8982 39.9743C33.9441 38.3193 32.1598 37.2031 30.1129 37.2031C27.0607 37.2031 24.5845 39.6775 24.5845 42.7312C24.5845 44.7783 25.7012 46.5611 27.3553 47.5168C27.6423 46.4207 28.0981 45.3924 28.6994 44.4637C28.1953 44.0519 27.8659 43.4336 27.8659 42.731C27.8667 41.4894 28.8716 40.484 30.1129 40.484Z" fill="#AEB1CF"/>
<path d="M55.667 41.5757H46.9047L45.2253 41.5562C45.0989 41.2412 45.0464 40.9425 45.0394 40.6891C44.9747 38.9069 46.6864 37.3641 47.4252 36.7845C48.4037 36.0152 48.9153 35.2285 49.187 34.0715C49.368 33.308 48.9399 32.4473 48.4497 31.6306L48.0017 30.8861C46.8626 29.0039 45.7845 27.2255 45.2346 24.8979C45.1886 24.7069 45.0987 24.5098 44.7713 24.5098C44.5379 24.5098 44.2906 24.6228 44.1587 24.7912C44.0515 24.9269 44.0226 25.0852 44.0706 25.29C44.4863 27.0449 45.214 28.7686 46.3592 30.7118L46.5027 30.954C47.3048 32.302 48.6474 34.5559 46.0409 36.2648C45.4943 36.6223 44.9785 36.9617 44.63 37.4184C43.9807 38.2649 43.7283 39.4792 43.9347 40.7479C43.9807 41.0313 44.0516 41.3069 44.1377 41.5746H37.0907C32.5986 41.5746 28.958 45.2158 28.958 49.7068C28.958 54.1988 32.5986 57.8401 37.0907 57.8401C41.4579 57.8401 45.0206 54.3972 45.2131 50.0765H47.5416C47.7349 54.3972 51.2985 57.8401 55.6659 57.8401C60.1564 57.8401 63.7983 54.1988 63.7983 49.7068C63.7981 45.2168 60.1571 41.5757 55.667 41.5757ZM37.6167 45.5539C38.4488 45.2493 39.3669 45.6763 39.6724 46.5069C39.977 47.3383 39.5517 48.2579 38.7198 48.5629C37.8885 48.8678 36.9682 48.4412 36.6632 47.6099C36.361 46.7784 36.7867 45.8592 37.6167 45.5539ZM32.7306 49.0522C32.4257 48.2207 32.853 47.3002 33.6845 46.9951C34.5138 46.6903 35.4343 47.1178 35.7391 47.9484C36.044 48.7794 35.6167 49.6995 34.7876 50.0048C33.9561 50.3074 33.0354 49.8823 32.7306 49.0522ZM36.2022 53.8634C35.3707 54.1678 34.4502 53.7406 34.1452 52.9097C33.8403 52.0785 34.2676 51.1595 35.0974 50.854C35.9289 50.5485 36.8494 50.9757 37.1544 51.8066C37.4582 52.6379 37.0316 53.5579 36.2022 53.8634ZM40.1355 52.4214C39.3045 52.7258 38.3835 52.2987 38.0787 51.4688C37.7738 50.6368 38.2016 49.7176 39.0328 49.4117C39.8637 49.1067 40.7829 49.5343 41.0873 50.3648C41.3916 51.1958 40.9639 52.1159 40.1355 52.4214ZM59.8525 50.7821H57.0453V53.5903H54.8988V50.7821H52.0901V48.6353H54.8988V45.8275H57.0453V48.6353H59.8525V50.7821Z" fill="#AEB1CF"/>
</svg>
