<svg width="74" height="100" viewBox="0 0 74 100" fill="none" xmlns="http://www.w3.org/2000/svg">
<path d="M73.1748 23.9636C73.171 23.5041 73.0245 23.0521 72.7097 22.694L53.429 0.67066C53.4234 0.665031 53.4178 0.66249 53.4138 0.656862C53.2988 0.528503 53.1648 0.421749 53.0232 0.329339C52.9811 0.301198 52.939 0.277596 52.8949 0.252723C52.7723 0.186274 52.6422 0.130174 52.5082 0.0900507C52.4717 0.0804283 52.4392 0.0655409 52.4029 0.0559186C52.2573 0.0216049 52.106 0 51.9528 0H4.56853C2.40478 0 0.646973 1.7598 0.646973 3.92174V96.0784C0.646973 98.2402 2.40478 100 4.56853 100H69.2743C71.4362 100 73.196 98.2404 73.196 96.0784V24.1824C73.1959 24.1096 73.1844 24.0374 73.1748 23.9636ZM21.2007 91.1839C22.8234 91.1839 24.6235 90.8317 25.6823 90.4067L26.4928 94.6079C25.5048 95.1019 23.282 95.6304 20.3884 95.6304C12.1657 95.6304 7.93055 90.5138 7.93055 83.7373C7.93055 75.6204 13.7185 71.1034 20.9173 71.1034C23.7048 71.1034 25.8227 71.6682 26.7762 72.1622L25.6823 76.4314C24.5881 75.9737 23.0714 75.5514 21.1658 75.5514C16.8962 75.5514 13.5783 78.1269 13.5783 83.4185C13.5772 88.1836 16.4008 91.1839 21.2007 91.1839ZM35.8466 95.6302C33.13 95.6302 30.4478 94.9236 29.1064 94.1825L30.2007 89.7364C31.6478 90.4773 33.8704 91.2184 36.1645 91.2184C38.6351 91.2184 39.941 90.1959 39.941 88.6429C39.941 87.1609 38.8112 86.3145 35.9539 85.29C32.0017 83.9132 29.4252 81.7264 29.4252 78.2682C29.4252 74.2088 32.8127 71.103 38.4254 71.103C41.1053 71.103 43.0823 71.6678 44.4946 72.3034L43.294 76.6444C42.3404 76.1849 40.6476 75.5146 38.3174 75.5146C35.989 75.5146 34.8597 76.5734 34.8597 77.8096C34.8597 79.3279 36.201 79.9973 39.2709 81.1625C43.4702 82.7154 45.4463 84.9013 45.4463 88.254C45.4461 92.2429 42.3767 95.6302 35.8466 95.6302ZM54.9074 95.6302C52.1903 95.6302 49.5076 94.9236 48.1672 94.1825L49.2605 89.7364C50.7062 90.4773 52.9303 91.2184 55.2233 91.2184C57.6953 91.2184 58.9994 90.1959 58.9994 88.6429C58.9994 87.1609 57.8714 86.3145 55.0136 85.29C51.0614 83.9132 48.484 81.7264 48.484 78.2682C48.484 74.2088 51.8724 71.103 57.4847 71.103C60.1656 71.103 62.1414 71.6678 63.5537 72.3034L62.3522 76.6444C61.3996 76.1849 59.707 75.5146 57.3776 75.5146C55.0472 75.5146 53.9194 76.5734 53.9194 77.8096C53.9194 79.3279 55.2609 79.9973 58.3302 81.1625C62.5294 82.7154 64.5065 84.9013 64.5065 88.254C64.5063 92.2429 61.435 95.6302 54.9074 95.6302ZM69.2743 66.5843H4.56853V3.92174H49.9918V23.9852C49.9918 25.0691 50.8709 25.946 51.9528 25.946H69.2743V66.5843Z" fill="#EA1A65"/>
<rect x="4.37036" y="70.272" width="64.8147" height="26.6884" fill="#EA1A65"/>
<path d="M23.3868 28.1531C23.3868 29.3541 23.5597 30.5084 23.7311 31.707C23.9028 32.9024 24.0733 34.1006 24.0733 35.2993C24.0733 36.7987 23.6459 38.4659 20.6074 38.4659V40.6493C23.6468 40.6493 24.0733 42.4893 24.0733 43.8159C24.0733 44.975 23.903 46.1267 23.7311 47.2838C23.5597 48.4408 23.3868 49.6347 23.3868 50.7921C23.3868 55.1129 26.0408 56.6563 29.5938 56.6563H30.4927V54.3021H29.7234C27.326 54.3021 26.3409 52.9742 26.3409 50.5786C26.3409 49.5523 26.4702 48.5661 26.641 47.4948C26.8124 46.4699 26.9406 45.4014 26.9406 44.2453C26.9852 41.5051 25.785 40.0505 23.8581 39.5788V39.4966C25.785 38.9801 26.9836 37.6104 26.9406 34.8722C26.9406 33.7172 26.8124 32.6883 26.641 31.6208C26.4702 30.5925 26.3409 29.5642 26.3409 28.582C26.3409 26.2708 27.1958 24.9013 29.7234 24.9013H30.4927V22.5464H29.5938C25.9565 22.5464 23.3868 24.2163 23.3868 28.1531Z" fill="#EA1A65"/>
<path d="M48.1346 35.2993C48.1346 34.1006 48.3069 32.9024 48.4785 31.707C48.6498 30.5084 48.8223 29.3543 48.8223 28.1531C48.8223 24.2161 46.2103 22.5464 42.5722 22.5464H41.7163V24.9013H42.4859C44.9696 24.9433 45.8675 26.2699 45.8675 28.582C45.8675 29.5642 45.6952 30.5925 45.5687 31.6208C45.3946 32.6898 45.2232 33.7179 45.2232 34.8722C45.2232 37.6104 46.4227 38.9786 48.3069 39.4966V39.5788C46.4227 40.0494 45.2232 41.5051 45.2232 44.2453C45.2232 45.4023 45.3946 46.4708 45.5687 47.4948C45.6951 48.567 45.8675 49.5532 45.8675 50.5786C45.8675 52.974 44.8394 54.2598 42.444 54.3021H41.7163V56.6563H42.6143C46.1241 56.6563 48.8203 55.1129 48.8203 50.7921C48.8203 49.6347 48.6489 48.4408 48.4776 47.2838C48.3071 46.1267 48.1346 44.975 48.1346 43.8159C48.1346 42.4884 48.5636 40.6493 51.6025 40.6493V38.4659C48.5636 38.4659 48.1346 36.7985 48.1346 35.2993Z" fill="#EA1A65"/>
<path d="M16.4321 88.2759C16.4321 87.6493 16.2083 87.161 15.7607 86.811C15.3213 86.4611 14.5441 86.099 13.4292 85.7246C12.3143 85.3503 11.4028 84.9881 10.6948 84.6382C8.39176 83.507 7.24023 81.9526 7.24023 79.9751C7.24023 78.9904 7.52507 78.1237 8.09473 77.375C8.67253 76.6182 9.48633 76.0322 10.5361 75.6172C11.5859 75.194 12.766 74.9824 14.0762 74.9824C15.3538 74.9824 16.4972 75.2103 17.5063 75.666C18.5236 76.1217 19.313 76.7728 19.8745 77.6191C20.436 78.4574 20.7168 79.4176 20.7168 80.5H16.4443C16.4443 79.7757 16.2205 79.2142 15.7729 78.8154C15.3335 78.4167 14.7354 78.2173 13.9785 78.2173C13.2135 78.2173 12.6073 78.3882 12.1597 78.73C11.7202 79.0636 11.5005 79.4909 11.5005 80.0117C11.5005 80.4674 11.7446 80.8825 12.2329 81.2568C12.7212 81.623 13.5798 82.0055 14.8086 82.4043C16.0374 82.7949 17.0465 83.2181 17.8359 83.6738C19.7565 84.7806 20.7168 86.3065 20.7168 88.2515C20.7168 89.8058 20.1309 91.0265 18.959 91.9136C17.7871 92.8006 16.1799 93.2441 14.1372 93.2441C12.6968 93.2441 11.3906 92.9878 10.2188 92.4751C9.05501 91.9543 8.17611 91.2463 7.58203 90.3511C6.99609 89.4478 6.70312 88.4102 6.70312 87.2383H11C11 88.1904 11.2441 88.8944 11.7324 89.3501C12.2288 89.7977 13.0304 90.0215 14.1372 90.0215C14.8452 90.0215 15.4027 89.8709 15.8096 89.5698C16.2246 89.2606 16.4321 88.8293 16.4321 88.2759ZM37.2939 86.9819C37.237 88.2189 36.9033 89.3135 36.293 90.2656C35.6826 91.2096 34.8241 91.9421 33.7173 92.4629C32.6187 92.9837 31.3613 93.2441 29.9453 93.2441C27.6097 93.2441 25.7705 92.4832 24.4277 90.9614C23.085 89.4396 22.4136 87.2912 22.4136 84.5161V83.6372C22.4136 81.8957 22.7147 80.3739 23.3169 79.0718C23.9272 77.7616 24.8021 76.7524 25.9414 76.0444C27.0807 75.3283 28.3991 74.9702 29.8965 74.9702C32.0531 74.9702 33.7865 75.5399 35.0967 76.6792C36.4069 77.8104 37.1515 79.3729 37.3306 81.3667H33.0581C33.0256 80.2843 32.7529 79.5072 32.2402 79.0352C31.7275 78.5632 30.9463 78.3271 29.8965 78.3271C28.8304 78.3271 28.0492 78.7259 27.5527 79.5234C27.0563 80.321 26.7959 81.5946 26.7715 83.3442V84.6016C26.7715 86.4977 27.0075 87.8527 27.4795 88.6665C27.9596 89.4803 28.7816 89.8872 29.9453 89.8872C30.93 89.8872 31.6828 89.6553 32.2036 89.1914C32.7244 88.7275 33.0011 87.991 33.0337 86.9819H37.2939ZM48.4878 88.2759C48.4878 87.6493 48.264 87.161 47.8164 86.811C47.377 86.4611 46.5998 86.099 45.4849 85.7246C44.37 85.3503 43.4585 84.9881 42.7505 84.6382C40.4474 83.507 39.2959 81.9526 39.2959 79.9751C39.2959 78.9904 39.5807 78.1237 40.1504 77.375C40.7282 76.6182 41.542 76.0322 42.5918 75.6172C43.6416 75.194 44.8216 74.9824 46.1318 74.9824C47.4095 74.9824 48.5529 75.2103 49.562 75.666C50.5793 76.1217 51.3687 76.7728 51.9302 77.6191C52.4917 78.4574 52.7725 79.4176 52.7725 80.5H48.5C48.5 79.7757 48.2762 79.2142 47.8286 78.8154C47.3892 78.4167 46.791 78.2173 46.0342 78.2173C45.2692 78.2173 44.6629 78.3882 44.2153 78.73C43.7759 79.0636 43.5562 79.4909 43.5562 80.0117C43.5562 80.4674 43.8003 80.8825 44.2886 81.2568C44.7769 81.623 45.6354 82.0055 46.8643 82.4043C48.0931 82.7949 49.1022 83.2181 49.8916 83.6738C51.8122 84.7806 52.7725 86.3065 52.7725 88.2515C52.7725 89.8058 52.1865 91.0265 51.0146 91.9136C49.8428 92.8006 48.2355 93.2441 46.1929 93.2441C44.7524 93.2441 43.4463 92.9878 42.2744 92.4751C41.1107 91.9543 40.2318 91.2463 39.6377 90.3511C39.0518 89.4478 38.7588 88.4102 38.7588 87.2383H43.0557C43.0557 88.1904 43.2998 88.8944 43.7881 89.3501C44.2845 89.7977 45.0861 90.0215 46.1929 90.0215C46.9009 90.0215 47.4583 89.8709 47.8652 89.5698C48.2803 89.2606 48.4878 88.8293 48.4878 88.2759ZM64.1372 88.2759C64.1372 87.6493 63.9134 87.161 63.4658 86.811C63.0264 86.4611 62.2492 86.099 61.1343 85.7246C60.0194 85.3503 59.1079 84.9881 58.3999 84.6382C56.0968 83.507 54.9453 81.9526 54.9453 79.9751C54.9453 78.9904 55.2301 78.1237 55.7998 77.375C56.3776 76.6182 57.1914 76.0322 58.2412 75.6172C59.291 75.194 60.471 74.9824 61.7812 74.9824C63.0589 74.9824 64.2023 75.2103 65.2114 75.666C66.2287 76.1217 67.0181 76.7728 67.5796 77.6191C68.1411 78.4574 68.4219 79.4176 68.4219 80.5H64.1494C64.1494 79.7757 63.9256 79.2142 63.478 78.8154C63.0386 78.4167 62.4404 78.2173 61.6836 78.2173C60.9186 78.2173 60.3123 78.3882 59.8647 78.73C59.4253 79.0636 59.2056 79.4909 59.2056 80.0117C59.2056 80.4674 59.4497 80.8825 59.938 81.2568C60.4263 81.623 61.2848 82.0055 62.5137 82.4043C63.7425 82.7949 64.7516 83.2181 65.541 83.6738C67.4616 84.7806 68.4219 86.3065 68.4219 88.2515C68.4219 89.8058 67.8359 91.0265 66.6641 91.9136C65.4922 92.8006 63.8849 93.2441 61.8423 93.2441C60.4019 93.2441 59.0957 92.9878 57.9238 92.4751C56.7601 91.9543 55.8812 91.2463 55.2871 90.3511C54.7012 89.4478 54.4082 88.4102 54.4082 87.2383H58.7051C58.7051 88.1904 58.9492 88.8944 59.4375 89.3501C59.9339 89.7977 60.7355 90.0215 61.8423 90.0215C62.5503 90.0215 63.1077 89.8709 63.5146 89.5698C63.9297 89.2606 64.1372 88.8293 64.1372 88.2759Z" fill="white"/>
</svg>
