<svg width="73" height="100" viewBox="0 0 73 100" fill="none" xmlns="http://www.w3.org/2000/svg">
<path d="M35.4295 74.7705C34.2815 74.7705 33.5387 74.8723 33.0991 74.9737V89.8605C33.5387 89.961 34.2461 89.961 34.8887 89.961C39.5488 89.9955 42.5868 87.4295 42.5868 81.9953C42.6202 77.2675 39.8523 74.7705 35.4295 74.7705Z" fill="#AEB1CF"/>
<path d="M72.9223 23.9652C72.9166 23.5059 72.7711 23.0533 72.4561 22.6956L53.1749 0.670629C53.1711 0.664975 53.1653 0.662969 53.1596 0.65695C53.0447 0.528551 52.9127 0.422768 52.7708 0.329387C52.7288 0.302212 52.6865 0.277772 52.6426 0.25315C52.518 0.186397 52.3896 0.131682 52.2557 0.0913748C52.2192 0.0804317 52.187 0.0660233 52.1505 0.0559922C52.0031 0.0215214 51.8536 0 51.7005 0H4.31422C2.15241 0 0.392578 1.75983 0.392578 3.92164V96.0785C0.392578 98.2413 2.15241 100 4.31422 100H69.0198C71.1834 100 72.9416 98.2413 72.9416 96.0785V24.1842C72.9418 24.1111 72.93 24.0374 72.9223 23.9652ZM15.2741 94.0794C12.6747 94.0794 10.1084 93.4055 8.82606 92.6949L9.87203 88.4423C11.2565 89.1508 13.3839 89.8601 15.5768 89.8601C17.9398 89.8601 19.1886 88.8816 19.1886 87.3948C19.1886 85.9777 18.1084 85.1677 15.3744 84.1883C11.5936 82.8717 9.12918 80.7792 9.12918 77.4702C9.12918 73.5868 12.3711 70.6187 17.7367 70.6187C20.3035 70.6187 22.1925 71.1591 23.5425 71.7659L22.3966 75.919C21.4841 75.4796 19.8644 74.8362 17.6358 74.8362C15.4083 74.8362 14.3279 75.849 14.3279 77.0315C14.3279 78.4828 15.6115 79.1235 18.5495 80.239C22.5644 81.7239 24.4553 83.8159 24.4553 87.0229C24.4553 90.8373 21.5179 94.0794 15.2741 94.0794ZM44.2738 91.0423C41.8771 93.032 38.2316 93.978 33.7756 93.978C31.1091 93.978 29.2189 93.8093 27.9367 93.6408V71.295C29.8257 70.9895 32.2906 70.8208 34.8894 70.8208C39.2097 70.8208 42.0139 71.5981 44.2074 73.2516C46.5704 75.0078 48.0554 77.8079 48.0554 81.8253C48.0545 86.1796 46.4681 89.1853 44.2738 91.0423ZM65.3435 75.2097H56.5994V80.4075H64.7701V84.5943H56.5994V93.7422H51.4361V70.9895H65.3435V75.2097ZM4.31422 66.586V3.92255H49.7395V23.9876C49.7395 25.0701 50.6168 25.9483 51.7005 25.9483H69.02L69.022 66.586H4.31422Z" fill="#AEB1CF"/>
<path d="M31.2077 22.096L31.9431 8.73828H30.2451L30.9805 22.096H31.2077Z" fill="#AEB1CF"/>
<path d="M20.9772 39.168L11.0117 48.0946L12.2127 49.2947L21.1374 39.3288L20.9772 39.168Z" fill="#AEB1CF"/>
<path d="M39.0453 49.2939L38.3103 62.6525H40.0087L39.2722 49.2949L39.0453 49.2939Z" fill="#AEB1CF"/>
<path d="M61.0612 50.322L55.7822 46.8317V37.6247L47.7159 32.9688V23.8523L39.1586 18.9131L31.0919 23.5688L23.0252 18.9131L14.9762 23.5595L9.73096 20.0926L9.19092 20.9102L14.47 24.4005V33.7348L22.5367 38.3916V47.5072L22.5869 47.5358L18.5524 51.9496L19.2761 52.6102L23.4552 48.0376L31.0935 52.4462L39.1602 47.7894L47.2273 52.4462L55.3784 47.7407L60.5217 51.1403L61.0612 50.322ZM46.7356 24.42V32.9697L39.1597 37.3434L31.583 32.9697V24.42L39.1597 20.0455L46.7356 24.42ZM15.4505 24.42L23.0272 20.0455L30.6038 24.42V32.9697L22.8559 37.4427L15.4518 33.1679V24.42H15.4505V24.42ZM23.5173 46.9393V38.3905L31.0939 34.0171L38.6705 38.3905V46.9393L31.0939 51.3138L23.5173 46.9393ZM54.8017 46.9393L47.2258 51.3138L39.649 46.9393V38.3905L47.3964 33.9172L54.801 38.1915V46.9393H54.8017Z" fill="#AEB1CF"/>
</svg>
