<svg width="73" height="100" viewBox="0 0 73 100" fill="none" xmlns="http://www.w3.org/2000/svg">
<path d="M72.5298 23.9636C72.524 23.505 72.3786 23.0521 72.0636 22.694L52.782 0.67066C52.7782 0.665031 52.7724 0.663034 52.7668 0.656862C52.6519 0.528503 52.5199 0.422657 52.3781 0.329339C52.336 0.302105 52.2937 0.277596 52.2497 0.252723C52.1252 0.186274 51.9968 0.131626 51.8628 0.0913215C51.8265 0.0802468 51.794 0.0653594 51.7575 0.0559186C51.6103 0.0216049 51.4609 0 51.3076 0H3.92156C1.75962 0 0 1.7598 0 3.92174V96.0784C0 98.2413 1.75962 100 3.92156 100H68.6273C70.7911 100 72.5491 98.2413 72.5491 96.0784V24.1833C72.5489 24.1096 72.5374 24.0374 72.5298 23.9636ZM3.92156 3.92174H49.3469V23.9862C49.3469 25.0689 50.2239 25.9469 51.3076 25.9469H68.6273L68.6293 66.5852H3.92156V3.92174ZM10.3462 94.4087C7.78902 94.4087 5.2647 93.7442 4.0029 93.0472L5.03213 88.8613C6.39396 89.5583 8.48582 90.2571 10.6449 90.2571C12.9695 90.2571 14.1988 89.294 14.1988 87.8321C14.1988 86.437 13.136 85.6405 10.4457 84.6765C6.7262 83.382 4.30192 81.3225 4.30192 78.0685C4.30192 74.2493 7.49018 71.3263 12.7703 71.3263C15.2941 71.3263 17.1548 71.8577 18.4824 72.4552L17.3531 76.5414C16.456 76.1095 14.8618 75.4786 12.6705 75.4786C10.4795 75.4786 9.41574 76.4752 9.41574 77.6366C9.41574 79.065 10.6775 79.6961 13.5666 80.7923C17.5188 82.2533 19.3785 84.3128 19.3785 87.4675C19.3794 91.2204 16.4891 94.4087 10.3462 94.4087ZM27.8832 94.0764H22.8019V71.693H27.8832V94.0764ZM47.7768 75.9439H41.6666V94.0764H36.5847V75.9439H30.5746V71.693H47.7768V75.9439V75.9439ZM62.8561 94.0764L60.8312 90.0247C60.0012 88.4632 59.4698 87.3018 58.8389 86.0064H58.7728C58.3084 87.3009 57.7435 88.4632 57.0446 90.0247L55.1853 94.0764H49.4064L55.8822 82.7522L49.6388 71.693H55.4514L57.4102 75.7775C58.0747 77.1387 58.5734 78.235 59.1048 79.4969H59.1718C59.7023 78.0694 60.1341 77.0727 60.6989 75.7775L62.5917 71.693H68.3706L62.0603 82.6191L68.7028 94.0774H62.8559V94.0764H62.8561Z" fill="#AEB1CF"/>
<path d="M44.1751 22.1914H15.3667V26.9365H44.1751V22.1914Z" fill="#AEB1CF"/>
<path d="M58.5814 33.0108V26.9365H44.1751V33.0108H49.0513V34.5738V36.3523V38.3766V40.1616V42.2326V44.0129V46.42H44.1751V52.2233H15.3667V56.9644H44.1751V52.4942H58.5814V46.42H50.5315V44.0129H53.7109V42.2326H50.5315V40.1616H53.7109V38.3766H50.5315V36.3523H53.7109V34.5738H50.5315V33.0108H58.5814Z" fill="#AEB1CF"/>
<path d="M40.4718 29.376H19.0728V50.0589H40.4718V29.376Z" fill="#AEB1CF"/>
</svg>
