<svg width="74" height="100" viewBox="0 0 74 100" fill="none" xmlns="http://www.w3.org/2000/svg">
<path d="M37.1909 73.0059C33.522 73.0059 31.4047 76.6066 31.4047 81.0518C31.3684 85.5688 33.5567 89.0282 37.1565 89.0282C40.7909 89.0282 42.9087 85.6044 42.9087 80.9476C42.9085 76.6066 40.8617 73.0059 37.1909 73.0059Z" fill="#14988B"/>
<path d="M73.0786 23.9636C73.0728 23.505 72.9274 23.0521 72.6124 22.694L53.3309 0.67066C53.3271 0.664487 53.3196 0.66249 53.3156 0.656862C53.2007 0.528503 53.0687 0.422657 52.9269 0.329339C52.8848 0.302105 52.8407 0.277596 52.7966 0.252723C52.674 0.186274 52.5456 0.131082 52.4098 0.0907769C52.3753 0.0802468 52.3408 0.0653594 52.3045 0.0559186C52.1591 0.0206971 52.0079 0 51.8565 0H4.47039C2.30845 0 0.548828 1.7598 0.548828 3.92174V96.0784C0.548828 98.2413 2.30845 100 4.47039 100H69.1762C71.3381 100 73.0979 98.2413 73.0979 96.0784V24.1833C73.0977 24.1096 73.0863 24.0374 73.0786 23.9636ZM13.5811 93.2625C10.8625 93.2625 8.18135 92.5559 6.84094 91.8139L7.93425 87.3686C9.37997 88.1097 11.6045 88.8508 13.897 88.8508C16.3685 88.8508 17.6732 87.8263 17.6732 86.2734C17.6732 84.7903 16.5457 83.945 13.687 82.9225C9.73527 81.5458 7.15793 79.3561 7.15793 75.8987C7.15793 71.8403 10.5472 68.7344 16.1575 68.7344C18.8402 68.7344 20.8164 69.2993 22.2271 69.9351L21.0265 74.2749C20.0744 73.8172 18.3803 73.148 16.0519 73.148C13.7215 73.148 12.5942 74.205 12.5942 75.441C12.5942 76.9585 13.9341 77.6288 17.004 78.7931C21.2027 80.3459 23.1811 82.5345 23.1811 85.8875C23.1801 89.8733 20.1087 93.2625 13.5811 93.2625ZM47.1422 97.0013C43.755 96.0133 40.9324 94.9907 37.7557 93.6483C37.2272 93.4377 36.6624 93.3315 36.0974 93.2969C30.734 92.9454 25.7234 88.9913 25.7234 81.2268C25.7234 74.0988 30.24 68.7344 37.3323 68.7344C44.603 68.7344 48.5898 74.2395 48.5898 80.7328C48.5898 86.1326 46.0851 89.9439 42.9427 91.3544V91.4969C44.7791 92.0274 46.8262 92.4506 48.6951 92.8364L47.1422 97.0013ZM66.9779 92.9092H52.1208V69.1242H57.5206V88.3913H66.9779V92.9092ZM4.47039 66.5852V3.92174H49.8957V23.9862C49.8957 25.0684 50.7728 25.9469 51.8565 25.9469H69.1762L69.1781 66.5852H4.47039Z" fill="#14988B"/>
<path d="M47.4829 31.0774C47.5692 30.8399 47.6303 30.5968 47.6303 30.3398C47.6303 27.1833 40.8097 25.4805 34.3907 25.4805C27.9781 25.4805 21.1593 27.1833 21.1593 30.3398C21.1593 30.5968 21.2192 30.841 21.3063 31.0794L21.2722 31.1402C20.9788 31.6725 20.8337 32.2096 20.8337 32.7381V36.6438C20.8337 37.2451 21.0229 37.8225 21.3584 38.3682L21.3145 38.4429C20.9946 38.9977 20.8339 39.5596 20.8339 40.1146V44.0195C20.8339 44.6019 21.0124 45.1607 21.3297 45.6912L21.3145 45.7155C20.9946 46.2695 20.8339 46.8324 20.8339 47.3862V51.2914C20.8339 54.7631 26.7891 57.4811 34.3909 57.4811C42.0009 57.4811 47.956 54.7631 47.956 51.2914V47.3862C47.956 46.8314 47.7952 46.2675 47.4715 45.7144L47.4582 45.693C47.773 45.1616 47.956 44.603 47.956 44.0195V40.1146C47.956 39.5589 47.7952 38.995 47.4715 38.441L47.4295 38.3691C47.7647 37.8225 47.956 37.2461 47.956 36.6429V32.7372C47.956 32.2087 47.8086 31.6702 47.5176 31.1377L47.4829 31.0774ZM46.5027 51.2912C46.5027 53.5336 41.5318 56.0285 34.3909 56.0285C27.2567 56.0285 22.2849 53.5336 22.2849 51.2912V47.6182C24.5113 49.6574 29.0917 50.9581 34.3909 50.9581C39.6973 50.9581 44.2776 49.6565 46.5027 47.6162V51.2912ZM46.5027 44.0193C46.5027 46.2596 41.5318 48.7566 34.3909 48.7566C27.2567 48.7566 22.2849 46.2596 22.2849 44.0193V40.3457C24.5113 42.384 29.0917 43.6859 34.3909 43.6859C39.6973 43.6859 44.2776 42.3838 46.5027 40.3437V44.0193ZM46.5027 36.6428C46.5027 38.8831 41.5318 41.38 34.3909 41.38C27.2567 41.38 22.2849 38.884 22.2849 36.6428V33.3929C24.4606 35.2368 29.5056 36.1929 34.3909 36.1929C39.2827 36.1929 44.3255 35.2368 46.5027 33.3929V36.6428Z" fill="#14988B"/>
</svg>
