<svg width="73" height="100" viewBox="0 0 73 100" fill="none" xmlns="http://www.w3.org/2000/svg">
<path d="M72.6279 23.9636C72.6222 23.505 72.4767 23.0522 72.1617 22.6942L52.8805 0.670629C52.8767 0.664975 52.8708 0.662604 52.8652 0.65695C52.7503 0.528551 52.6182 0.422768 52.4763 0.329387C52.4344 0.302212 52.3921 0.277772 52.3481 0.252968C52.2236 0.186397 52.0952 0.131317 51.9613 0.0910101C51.9248 0.0804317 51.8925 0.0656586 51.8561 0.0561745C51.7087 0.0215214 51.5591 0 51.4061 0H4.01979C1.85798 0 0.0981445 1.75983 0.0981445 3.92164V96.0785C0.0981445 98.2413 1.85798 100 4.01979 100H68.7254C70.889 100 72.6472 98.2413 72.6472 96.0785V24.1833C72.6474 24.1096 72.6355 24.0374 72.6279 23.9636ZM14.8042 95.2819C12.1177 95.2819 9.46707 94.5848 8.1415 93.8534L9.22286 89.458C10.6522 90.1902 12.8499 90.9214 15.1177 90.9214C17.56 90.9214 18.85 89.9106 18.85 88.3748C18.85 86.9102 17.7342 86.0724 14.908 85.0621C11.0013 83.7008 8.45502 81.5381 8.45502 78.1191C8.45502 74.1086 11.804 71.0382 17.3503 71.0382C20.0009 71.0382 21.9541 71.5952 23.35 72.2242L22.1647 76.5143C21.2234 76.0616 19.548 75.399 17.2465 75.399C14.9434 75.399 13.8275 76.4439 13.8275 77.6673C13.8275 79.1667 15.1531 79.8291 18.1885 80.9798C22.3393 82.5146 24.2935 84.6775 24.2935 87.991C24.2911 91.9348 21.257 95.2819 14.8042 95.2819ZM40.1966 94.9343C39.8119 94.2707 39.2544 92.353 38.5556 89.4581C37.9286 86.5274 36.9165 85.7249 34.7542 85.6904H33.1492V94.9344H27.8816V71.7374C29.5916 71.4575 32.1377 71.249 34.9632 71.249C38.4513 71.249 40.894 71.7716 42.5672 73.0986C43.963 74.2141 44.7312 75.8542 44.7312 78.017C44.7312 81.0165 42.6037 83.0749 40.5797 83.8062V83.9109C42.2188 84.5741 43.1264 86.1431 43.7199 88.3064C44.4523 90.9583 45.1848 94.0269 45.6387 94.9344H40.1966V94.9343ZM64.8546 75.8873H58.4363V94.9343H53.0988V75.8873H46.7856V71.4228H64.8546V75.8873V75.8873ZM4.01979 66.5853V3.92164H49.4451V23.986C49.4451 25.0684 50.3224 25.9468 51.4061 25.9468H68.7256L68.7276 66.5851H4.01979V66.5853Z" fill="#AEB1CF"/>
<path d="M35.5559 75.1895C34.2648 75.1895 33.5334 75.2936 33.1489 75.3647V81.8531H35.2423C37.8929 81.8531 39.4633 80.526 39.4633 78.4684C39.4631 76.3067 37.9982 75.2241 35.5559 75.1895Z" fill="#AEB1CF"/>
<path d="M44.4985 18.1443H32.121V15.2031H29.3022V18.1443H15.8218V21.0856H44.4985V18.1443Z" fill="#AEB1CF"/>
<path d="M36.6391 46.3603C34.8749 44.8692 33.321 43.3329 31.9688 41.7914C39.7614 32.2945 40.8114 23.0227 40.8679 22.4575L37.9412 22.1641C37.9289 22.2895 36.9798 30.6592 30.0348 39.4199C23.6157 30.9368 22.6896 23.0189 22.6776 22.8965L19.7514 23.1929C19.8063 23.7435 20.8006 32.5398 28.0348 41.7622C24.723 45.3687 20.3255 48.9238 14.4768 51.8799L15.8042 54.5051C21.8729 51.4367 26.4708 47.786 29.9677 44.0645C31.602 45.8816 33.5101 47.6888 35.7022 49.4308L36.6391 46.3603Z" fill="#AEB1CF"/>
<path d="M50.1825 31.5146H42.2043L33.9873 58.4002H40.2894L42.2043 51.5H49.9028L51.9778 58.4002H58.5197L50.1825 31.5146ZM43.0823 46.953L44.6771 41.2493C45.1157 39.6921 45.5149 37.659 45.9142 36.0628H45.9946C46.3929 37.6588 46.8717 39.6541 47.3503 41.2493L49.026 46.953H43.0823Z" fill="#AEB1CF"/>
</svg>
