<svg width="74" height="100" viewBox="0 0 74 100" fill="none" xmlns="http://www.w3.org/2000/svg">
<path d="M73.1773 23.9636C73.1715 23.505 73.024 23.0521 72.7091 22.694L53.4295 0.67066C53.4239 0.664487 53.4182 0.66249 53.4142 0.656862C53.2993 0.528503 53.1653 0.422657 53.0237 0.329339C52.9816 0.302105 52.9395 0.277596 52.8954 0.252723C52.7728 0.186274 52.6445 0.131082 52.5087 0.0907769C52.4722 0.0802468 52.4397 0.0653594 52.4034 0.0559186C52.2577 0.0206971 52.1065 0 51.9533 0H4.56902C2.40708 0 0.647461 1.7598 0.647461 3.92174V96.0784C0.647461 98.2413 2.40708 100 4.56902 100H69.2748C71.4367 100 73.1965 98.2413 73.1965 96.0784V24.1833C73.1963 24.1096 73.1849 24.0374 73.1773 23.9636ZM12.6631 95.1763C9.94646 95.1763 7.26328 94.4697 5.92287 93.7288L7.01619 89.2825C8.46444 90.0236 10.687 90.7645 12.981 90.7645C15.4515 90.7645 16.7575 89.742 16.7575 88.189C16.7575 86.707 15.6276 85.8597 12.7689 84.8361C8.8172 83.4605 6.24168 81.2727 6.24168 77.8145C6.24168 73.7551 9.62911 70.6491 15.2395 70.6491C17.9221 70.6491 19.8987 71.2139 21.3096 71.8497L20.1104 76.1905C19.1563 75.731 17.4642 75.0607 15.1338 75.0607C12.8054 75.0607 11.6761 76.1197 11.6761 77.3548C11.6761 78.8731 13.0165 79.5434 16.0879 80.7086C20.287 82.2616 22.2633 84.4494 22.2633 87.8003C22.262 91.789 19.1926 95.1763 12.6631 95.1763ZM37.7912 94.8241H31.51L23.8876 71.0382H29.7814L32.6746 81.0957C33.4865 83.9191 34.2276 86.6362 34.7925 89.6004H34.8972C35.4962 86.7415 36.2373 83.9191 37.0492 81.2028L40.0851 71.0391H45.8028L37.7912 94.8241ZM67.9306 93.7289C66.2722 94.2938 63.1319 95.0712 59.9916 95.0712C55.6506 95.0712 52.5103 93.976 50.3217 91.86C48.133 89.8132 46.9344 86.7072 46.9687 83.2135C47.005 75.3083 52.7574 70.7911 60.5564 70.7911C63.6257 70.7911 65.9907 71.3906 67.1539 71.9554L66.0252 76.2627C64.7192 75.6979 63.0974 75.2382 60.4854 75.2382C56.003 75.2382 52.6154 77.7793 52.6154 82.9321C52.6154 87.8379 55.6849 90.7311 60.0967 90.7311C61.3318 90.7311 62.3207 90.5886 62.743 90.378V85.4033H59.0742V81.2041H67.9302V93.7289H67.9306ZM69.2748 66.5852H4.56902V3.92174H49.9923V23.8843C49.9923 23.8843 49.8621 25.9471 52.5833 25.9471C55.3051 25.9471 69.2748 25.9471 69.2748 25.9471V66.5852Z" fill="#69A042"/>
<path d="M19.9004 41.5158V40.6957H18.0558L15.8581 39.876V39.1173H14.2884C14.2424 39.0684 14.1994 39.0162 14.16 38.9626L14.1685 37.0171C14.2557 36.9103 14.363 36.8223 14.4894 36.7524V36.941H16.4668V36.7702C16.904 36.9506 17.2442 37.234 17.4893 37.6222L17.4803 39.5997H19.4568V39.1095L21.2746 38.8635V39.1563H23.2511V37.1788H22.7931C22.3699 35.4918 21.445 34.0926 20.0414 33.016C18.9826 32.2046 17.7815 31.7043 16.467 31.5254V31.0879H14.4895V31.5033C14.4785 31.5033 14.469 31.5044 14.457 31.5053C13.515 31.6068 12.5758 31.9586 11.6691 32.5498C10.4336 33.3468 9.57379 34.4488 9.11609 35.8241C8.98737 36.2086 8.8935 36.5966 8.83758 36.984H8.39804V38.9615H8.83178C8.96685 39.9936 9.32778 40.9486 9.90893 41.8056C10.516 42.7035 11.3111 43.4154 12.2737 43.9237V44.6926H14.1604L16.3457 45.4867V46.2986H17.5631V48.1258H17.5917C17.4572 48.3015 17.2858 48.437 17.0767 48.5356V48.3633H15.0986V48.6271C14.8799 48.5653 14.6945 48.48 14.5433 48.37C14.3178 48.21 14.1353 47.9526 13.9975 47.5993H14.0856V45.6222H12.1079V46.1781L10.2089 46.415V46.1489H8.23047V48.126H8.84321C9.26296 50.0628 10.1974 51.5495 11.6235 52.5503C12.6288 53.2549 13.7964 53.6741 15.097 53.7977V54.2171H17.0754V53.7739L17.3325 53.7433L17.4401 53.7126C18.6282 53.5143 19.6981 53.0328 20.6188 52.2803C21.5431 51.5239 22.2148 50.5655 22.6106 49.4348C22.76 49.0163 22.8715 48.5779 22.9423 48.1269H23.3316V46.1498H22.9463C22.662 44.144 21.6397 42.5881 19.9004 41.5158ZM17.0765 52.5323V52.2411H15.0985V52.5839C14.0473 52.4557 13.1172 52.1102 12.3287 51.5557C11.2472 50.7906 10.5033 49.6381 10.1088 48.1273H10.2098V47.6549L12.1088 47.4177V47.6022H12.7168C13.05 48.7382 13.6862 49.4648 14.6235 49.7707C14.7768 49.8137 14.9347 49.852 15.0985 49.8831V50.3426H17.0765V49.836C18.008 49.6154 18.6562 49.0323 18.9746 48.1271H19.5678V46.15H18.9708C18.8307 45.7843 18.6152 45.4653 18.3227 45.195V44.2941H16.6257L14.2795 43.4196V42.7162H12.5834C11.9042 42.3097 11.3354 41.7665 10.8908 41.0939C10.4561 40.4399 10.1747 39.7253 10.0482 38.9617H10.4044V36.9842H10.0789C10.1228 36.7184 10.1865 36.4613 10.2679 36.2171C10.603 35.2133 11.2052 34.3851 12.0593 33.7576C12.7797 33.2271 13.5954 32.8914 14.4895 32.7575V33.0643H16.467V32.7604C17.505 32.9174 18.457 33.329 19.3063 33.9868C20.4069 34.8317 21.1288 35.88 21.5011 37.1777H21.2747V37.6287L19.457 37.8811V37.6211H18.8227C18.398 36.4995 17.6086 35.7876 16.4679 35.4967V34.9633H14.4903V35.4535C13.6607 35.6565 13.087 36.1778 12.8085 36.9849H12.192V38.9626H12.8038C13.0021 39.5557 13.363 40.0243 13.8813 40.3604V41.0946H15.6511L17.9236 41.9419V42.6728H19.446C20.7197 43.5211 21.4646 44.6643 21.7097 46.1507H21.3579V48.1278H21.7127C21.66 48.439 21.5796 48.7367 21.4708 49.0201C20.7528 50.9836 19.3252 52.1307 17.0883 52.531C17.0847 52.5314 17.0809 52.5314 17.0765 52.5323Z" fill="#69A042"/>
<path d="M43.7654 33.7023V31.7246H41.7883V32.0574H39.9184V31.9826L43.1162 29.1089H44.4105V27.209H42.5099V28.6649L39.1045 31.7239H37.9393V32.7707L35.7411 34.7453H34.2187V36.6452H36.1187V35.3943L37.8204 33.8649L33.0793 46.2816L28.648 33.528V31.7237H26.6696V32.0563H24.7988V31.7237H22.8208V33.7012H23.516L29.7981 51.8077V53.6919H31.7756V53.3865H34.0893V53.6919H36.0677V52.206L36.0519 52.1189L43.0855 33.703H43.7652V33.7023H43.7654ZM31.0552 51.716L24.8014 33.6885V33.2878H26.6717V33.7024H27.4228L32.0721 47.1594V49.1251H34.0768V47.1474H34.0481L39.1832 33.7024H39.9186V33.2878H41.7894V33.632L34.909 51.716H34.0915V52.1592H31.7779V51.716H31.0552Z" fill="#69A042"/>
<path d="M66.2206 43.504V41.5263H64.2158V41.9413H55.8653V41.5263H53.8604V43.504H54.1926V45.403H53.8604V47.4077H55.8653V47.0482H58.815C57.96 47.8848 56.9682 48.4048 55.8097 48.6221V48.3384H53.8326V48.6501C52.5428 48.4778 51.4419 47.9382 50.4826 47.009C49.5291 46.0851 48.9602 45.0167 48.7555 43.7538H48.9986V41.7491H48.721C48.9125 40.4618 49.4793 39.3645 50.4463 38.4066C51.4141 37.4459 52.5258 36.8892 53.8326 36.714V37.0257H55.8097V36.761C56.7135 36.9208 57.5456 37.2866 58.2903 37.852V38.8807H60.2952V38.5247L63.0802 38.5454V38.882H65.0851V36.9043H64.21C63.2852 35.3843 62.0597 34.1398 60.5643 33.2006C59.1165 32.2915 57.5196 31.7511 55.8097 31.5946V31.1182H53.8315V31.5853C51.1287 31.7787 48.7763 32.8564 46.8328 34.7903C44.8893 36.7247 43.7978 39.0637 43.5872 41.7492H43.1162V43.7539H43.593C43.8381 46.4228 44.9466 48.7383 46.8902 50.6465C48.8319 52.5526 51.1641 53.6136 53.8306 53.8068V54.2204H55.8077V53.7933C57.4717 53.623 59.0285 53.0934 60.4473 52.2156V53.7216H62.4255V53.3338H64.214V53.7216H66.2189V51.7445H65.8053L65.8302 43.5049H66.2207V43.504H66.2206ZM53.8328 52.2412V52.5726C51.49 52.3839 49.443 51.44 47.7456 49.7654C46.0499 48.0942 45.0697 46.0726 44.8303 43.7518H45.0944V41.7471H44.8224C45.0312 39.4066 45.9984 37.3616 47.7053 35.6626C49.4143 33.9627 51.4728 32.9982 53.8328 32.7923V33.1196H55.8099V32.828C57.244 32.9804 58.5978 33.4437 59.8386 34.2097C61.1234 35.0009 62.1863 36.045 63.0038 37.3164H60.2954V36.9017H59.0363C58.0942 36.1684 57.0114 35.7046 55.8099 35.5194V35.019H53.8328V35.4733C52.1946 35.6585 50.7691 36.3489 49.5886 37.5303C48.408 38.7104 47.7101 40.1274 47.5091 41.7469H47.0216V43.7516H47.5147C47.7329 45.3556 48.4454 46.7469 49.6365 47.8928C50.8237 49.0352 52.2329 49.7047 53.8328 49.8867V50.3137H55.8099V49.8445C57.5639 49.5927 59.0383 48.7741 60.2024 47.4065H61.2097V45.4017H59.2307V45.8451H55.8635V45.4017H55.4221V43.5027H55.8635V43.1704H64.2149V43.5027H64.5989C64.5951 44.1792 64.5866 45.5477 64.5759 47.6085V51.7421H64.216V52.102H62.4275V49.8033H60.4493V50.7636C59.0477 51.7632 57.4909 52.3643 55.8097 52.5539V52.24H53.8326V52.2412H53.8328Z" fill="#69A042"/>
</svg>
