<svg width="73" height="100" viewBox="0 0 73 100" fill="none" xmlns="http://www.w3.org/2000/svg">
<path d="M72.7261 23.9636C72.7203 23.5041 72.5749 23.0521 72.2599 22.694L52.9783 0.67066C52.9745 0.665031 52.9671 0.66249 52.9631 0.656862C52.8481 0.528503 52.7162 0.421749 52.5744 0.329339C52.5322 0.301198 52.4881 0.277596 52.444 0.252723C52.3215 0.186274 52.1931 0.130174 52.0573 0.0900507C52.0228 0.0804283 51.9883 0.0655409 51.952 0.0559186C51.8066 0.0216049 51.6572 0 51.5039 0H4.11785C1.95591 0 0.196289 1.7598 0.196289 3.92174V96.0784C0.196289 98.2402 1.95591 100 4.11785 100H68.8236C70.9856 100 72.7454 98.2404 72.7454 96.0784V24.1824C72.7452 24.1096 72.7337 24.0374 72.7261 23.9636ZM12.0376 93.8072C9.50237 93.8072 6.99929 93.1505 5.74839 92.4592L6.76908 88.3107C8.11911 89.002 10.1932 89.6932 12.3335 89.6932C14.6385 89.6932 15.8564 88.7366 15.8564 87.2901C15.8564 85.9076 14.8032 85.1157 12.1358 84.1622C8.44827 82.8782 6.04432 80.8372 6.04432 77.6106C6.04432 73.823 9.20626 70.9269 14.4405 70.9269C16.9435 70.9269 18.7865 71.4527 20.1035 72.0451L18.9838 76.095C18.0944 75.668 16.5133 75.0418 14.3404 75.0418C12.1681 75.0418 11.1144 76.0298 11.1144 77.1827C11.1144 78.5997 12.3653 79.2239 15.2308 80.3096C19.1485 81.7591 20.9925 83.8021 20.9925 86.9292C20.9931 90.6478 18.1287 93.8072 12.0376 93.8072ZM45.2942 93.48H39.8609L37.9843 83.9307C37.5564 81.6932 37.1944 79.6175 36.9302 77.0823H36.8651C36.4707 79.5879 36.1078 81.693 35.5802 83.9307L33.4744 93.48H27.9755L22.7079 71.2871H28.0757L29.7549 80.4399C30.248 83.0757 30.7089 85.9392 31.0719 88.1776H31.1374C31.4992 85.7756 32.0254 83.1071 32.5864 80.3746L34.4629 71.2869H39.7966L41.5746 80.6389C42.0686 83.2391 42.4306 85.6099 42.7598 88.0799H42.824C43.1534 85.6099 43.6474 83.0075 44.1098 80.3746L45.9221 71.2869H51.025L45.2942 93.48ZM67.1922 75.402H58.6653V80.4724H66.633V84.5568H58.6653V93.4799H53.6276V71.2871H67.1922V75.402ZM4.11785 66.5843V3.92174H49.5431V23.9852C49.5431 25.0691 50.4202 25.946 51.5039 25.946H68.8236L68.8256 66.5845H4.11785V66.5843Z" fill="#AEB1CF"/>
<path d="M39.4714 28.7264C34.7218 32.2865 31.7149 41.9462 29.1826 47.2489C26.6483 52.5506 21.98 51.9215 21.98 51.9215V58.1695C21.98 58.1695 24.9074 58.2499 27.3583 57.2274C29.8169 56.1973 32.6642 53.8986 34.3307 51.0541C34.9778 49.9391 35.9698 47.651 37.0473 45.1138H44.542V38.7011H39.7884C40.5197 37.0715 41.1815 35.6915 41.6849 34.9039C43.5079 32.059 48.021 32.1312 48.021 32.1312V26.0345C48.0212 26.0345 44.2202 25.1629 39.4714 28.7264Z" fill="#AEB1CF"/>
</svg>
