<svg width="74" height="100" viewBox="0 0 74 100" fill="none" xmlns="http://www.w3.org/2000/svg">
<path d="M73.2748 23.9646C73.2692 23.5061 73.1236 23.0533 72.8087 22.6952L53.5275 0.670629C53.5237 0.664975 53.5178 0.662969 53.5122 0.65695C53.3973 0.528551 53.2652 0.422768 53.1233 0.329387C53.0814 0.302212 53.0391 0.277772 52.9951 0.252968C52.8705 0.186397 52.7421 0.131682 52.6083 0.0915572C52.5718 0.0806141 52.5395 0.0656586 52.503 0.0561745C52.3557 0.0215214 52.2061 0 52.0531 0H4.66676C2.50495 0 0.745117 1.75983 0.745117 3.92164V96.0785C0.745117 98.2413 2.50495 100 4.66676 100H69.3724C71.536 100 73.2942 98.2413 73.2942 96.0785V24.1833C73.2944 24.1102 73.2825 24.0374 73.2748 23.9646ZM17.1734 93.1927C14.6166 93.1927 12.0924 92.5273 10.8305 91.8304L11.8598 87.6454C13.2217 88.3425 15.3137 89.0394 17.4725 89.0394C19.7972 89.0394 21.0265 88.0775 21.0265 86.6153C21.0265 85.2213 19.9637 84.4229 17.2734 83.4599C13.5538 82.1653 11.1292 80.106 11.1292 76.8517C11.1292 73.0327 14.3175 70.1095 19.5981 70.1095C22.1217 70.1095 23.9826 70.6419 25.31 71.2381L24.1812 75.3235C23.2846 74.8927 21.69 74.2607 19.4988 74.2607C17.308 74.2607 16.2442 75.2584 16.2442 76.4187C16.2442 77.8472 17.5059 78.478 20.3951 79.5745C24.3472 81.0354 26.207 83.0947 26.207 86.2496C26.207 90.0048 23.3176 93.1927 17.1734 93.1927ZM39.8592 83.5286V92.8616H34.8108V83.6942L27.7374 70.477H33.5162L35.8079 75.857C36.505 77.4844 36.9706 78.6794 37.5343 80.141H37.6015C38.0992 78.7452 38.6316 77.4508 39.2962 75.857L41.5536 70.477H47.233L39.8592 83.5286ZM54.1753 93.1927C51.6181 93.1927 49.0946 92.5273 47.8327 91.8304L48.8621 87.6454C50.2234 88.3425 52.3155 89.0394 54.4752 89.0394C56.7987 89.0394 58.0289 88.0775 58.0289 86.6153C58.0289 85.2213 56.9663 84.4229 54.2762 83.4599C50.5553 82.1653 48.1313 80.106 48.1313 76.8517C48.1313 73.0327 51.3194 70.1095 56.6007 70.1095C59.1245 70.1095 60.9836 70.6419 62.3126 71.2381L61.1829 75.3235C60.2868 74.8927 58.6917 74.2607 56.5011 74.2607C54.3105 74.2607 53.2461 75.2584 53.2461 76.4187C53.2461 77.8472 54.5078 78.478 57.3971 79.5745C61.3496 81.0354 63.2087 83.0947 63.2087 86.2496C63.2087 90.0048 60.3193 93.1927 54.1753 93.1927ZM4.66676 66.5853V3.92164H50.0921V23.986C50.0921 25.0684 50.9694 25.9468 52.0531 25.9468H69.3725L69.3745 66.5851H4.66676V66.5853Z" fill="#15499F"/>
<path d="M52.3057 16.1729L17.3279 16.2219L17.3326 61.6846L52.3117 61.6635L52.3057 16.1729ZM19.6365 59.4021L19.6093 18.4952L49.9449 18.4798L49.9525 59.3875L19.6365 59.4021Z" fill="#15499F"/>
<path d="M46.7862 34.4627C45.7685 34.0697 44.9299 33.2532 44.5122 32.2344C44.0892 31.2199 44.1026 30.0582 44.5439 29.0472C44.5842 28.9571 44.5642 28.8451 44.4903 28.772L42.2969 26.5795C42.226 26.5071 42.1133 26.4865 42.0214 26.5259C41.013 26.9678 39.8517 26.9826 38.8347 26.56C37.8201 26.1425 37.0018 25.307 36.606 24.2809C36.5783 24.2191 36.5432 24.125 36.3714 24.123L33.2683 24.1221C33.1655 24.123 33.0716 24.1886 33.0343 24.2838C32.6342 25.3092 31.8248 26.1398 30.8049 26.5615C29.791 26.9819 28.6301 26.968 27.6197 26.5261C27.5252 26.4849 27.4156 26.5046 27.3419 26.5788L25.1471 28.7743C25.0754 28.8457 25.0548 28.9545 25.096 29.0496C25.5392 30.0605 25.5498 31.2187 25.1323 32.2358C24.7097 33.2506 23.8786 34.0664 22.8518 34.4642C22.758 34.5025 22.6942 34.5959 22.6942 34.6977L22.6924 37.8026C22.6942 37.9731 22.7843 38.0083 22.8536 38.0327C23.3774 38.2377 23.8498 38.5436 24.249 38.9447C24.6291 39.3257 24.9264 39.7681 25.1285 40.264C25.5498 41.2827 25.5381 42.4426 25.096 43.4514C25.0557 43.5428 25.0763 43.6544 25.15 43.7272L27.3421 45.9193C27.4167 45.9938 27.5265 46.0145 27.6181 45.9742C28.6287 45.5319 29.7873 45.5195 30.8052 45.9408C31.7952 46.3513 32.5875 47.15 32.9991 48.1314C33.1011 48.049 33.216 47.98 33.3422 47.9302C33.5228 47.8613 33.6689 47.7181 33.7382 47.5469C33.808 47.3783 33.8062 47.1753 33.7316 47.0043C33.508 46.4839 33.62 45.8986 34.0139 45.5083L35.0533 44.4682C35.4453 44.0741 36.0298 43.9623 36.5418 44.1809C36.7209 44.2586 36.9246 44.2625 37.0939 44.1912C37.2631 44.1211 37.405 43.9781 37.4709 43.8058C37.6749 43.2867 38.1822 42.944 38.7326 42.9416H40.2024C40.571 42.9449 40.909 43.0837 41.1578 43.3308L41.3301 43.5056L41.4507 43.7779C41.5369 43.9986 41.6728 44.1211 41.8377 44.1886C42.0106 44.2614 42.2147 44.2586 42.3832 44.1839C42.8716 43.9743 43.4133 44.0704 43.8062 44.4115L44.4905 43.7274C44.5603 43.6555 44.5824 43.542 44.5421 43.4468C44.1007 42.439 44.0885 41.2781 44.5085 40.2624C44.93 39.2456 45.7597 38.4309 46.7862 38.032C46.879 37.9957 46.9443 37.9018 46.9452 37.8008L46.9443 34.6967C46.9461 34.5255 46.8571 34.4905 46.7862 34.4627ZM39.0877 40.517C36.7342 42.8689 32.907 42.8689 30.5519 40.5139C28.2021 38.1615 28.2021 34.3353 30.5539 31.9834C32.9038 29.6325 36.7342 29.6295 39.0879 31.9816C41.441 34.3343 41.4383 38.1641 39.0877 40.517Z" fill="#15499F"/>
<path d="M45.061 48.6307C44.5784 48.4454 44.1792 48.0572 43.9819 47.5767C43.7809 47.0955 43.7885 46.5445 43.9974 46.0658C44.0183 46.0216 44.0059 45.9702 43.9733 45.9357L42.9346 44.8954C42.8992 44.8624 42.8465 44.8513 42.8024 44.871C42.3265 45.0815 41.7741 45.0855 41.2953 44.8887C40.8138 44.6895 40.4261 44.2945 40.2384 43.8073C40.2249 43.7774 40.2078 43.7335 40.1263 43.7335L38.6559 43.7314C38.6079 43.7335 38.5619 43.7641 38.5441 43.808C38.3564 44.2952 37.9714 44.6864 37.4888 44.8867C37.0077 45.0853 36.4592 45.0794 35.9814 44.8708C35.9372 44.8511 35.8833 44.8599 35.8473 44.8941L34.809 45.9343C34.7736 45.9699 34.766 46.0215 34.7857 46.0672C34.9943 46.5451 35.0011 47.0952 34.801 47.5743C34.6022 48.056 34.2086 48.445 33.7218 48.6332C33.6773 48.65 33.6472 48.695 33.6472 48.7425V50.2143C33.6472 50.2966 33.6903 50.3122 33.7236 50.3226C33.9706 50.4213 34.1942 50.5648 34.3844 50.7542C34.5639 50.9345 34.7041 51.1441 34.8001 51.3785C34.9991 51.8592 34.9952 52.4119 34.7847 52.8893C34.7652 52.9324 34.7756 52.986 34.8112 53.0207L35.8493 54.0593C35.8834 54.0936 35.9356 54.1033 35.9795 54.0843C36.4578 53.8746 37.0069 53.8698 37.4888 54.0692C37.9714 54.2682 38.3564 54.6618 38.5459 55.1471C38.5592 55.1805 38.5767 55.2215 38.656 55.2235L40.1264 55.2215C40.1744 55.2215 40.2194 55.1912 40.2368 55.1471C40.4263 54.6607 40.812 54.2682 41.2935 54.0692C41.7743 53.866 42.3236 53.8737 42.8024 54.0843C42.8463 54.1033 42.899 54.0956 42.9346 54.0593L43.9733 53.0207C44.0068 52.9862 44.0183 52.9326 43.9974 52.8893C43.7885 52.4097 43.7829 51.8592 43.9819 51.3785C44.1832 50.8981 44.5748 50.5112 45.061 50.3226C45.1052 50.3062 45.1345 50.2606 45.1365 50.2125V48.7425C45.1365 48.6613 45.0906 48.6447 45.061 48.6307ZM41.4122 51.4996C40.297 52.615 38.4846 52.615 37.3702 51.4996C36.2551 50.3832 36.2562 48.573 37.3702 47.457C38.4846 46.3436 40.2959 46.3397 41.4122 47.4559C42.5266 48.5701 42.5266 50.3832 41.4122 51.4996Z" fill="#15499F"/>
</svg>
