<svg width="73" height="100" viewBox="0 0 73 100" fill="none" xmlns="http://www.w3.org/2000/svg">
<path d="M56.4714 75.1689C55.1657 75.1689 54.4246 75.2742 54.0359 75.3461V81.9091H56.1535C58.8362 81.9091 60.4237 80.5696 60.4237 78.4863C60.4235 76.2997 58.9415 75.2034 56.4714 75.1689Z" fill="#F57C1F"/>
<path d="M72.8221 23.9636C72.8183 23.5041 72.6708 23.0521 72.356 22.694L53.0766 0.669752C53.0708 0.663397 53.0652 0.661582 53.0612 0.655772C52.9463 0.527595 52.8123 0.420842 52.6707 0.328431C52.6288 0.300108 52.5865 0.276688 52.5425 0.251815C52.418 0.185185 52.2896 0.129266 52.1556 0.0891429C52.1193 0.0795205 52.0866 0.0648147 52.0503 0.0551923C51.9045 0.0206971 51.7533 0 51.6003 0H4.21599C2.05224 0 0.294434 1.7598 0.294434 3.92174V96.0784C0.294434 98.2402 2.05224 100 4.21599 100H68.9199C71.0837 100 72.8415 98.2404 72.8415 96.0784V24.1824C72.8413 24.1087 72.8317 24.0364 72.8221 23.9636ZM18.7432 95.1429H13.3434V75.8769H6.9551V71.3599H25.2354V75.8769H18.7432V95.1429V95.1429ZM39.7417 95.1429L37.9073 89.0376H31.0963L29.4013 95.1429H23.8249L31.0954 71.359H38.1535L45.5284 95.1429H39.7417ZM61.1647 95.1429C60.7778 94.4719 60.213 92.5311 59.5064 89.6042C58.8717 86.6402 57.8492 85.8272 55.6596 85.7909H54.036V95.1429H48.7088V71.6778C50.4378 71.3942 53.0133 71.182 55.8722 71.182C59.4022 71.182 61.8713 71.7123 63.567 73.0527C64.9773 74.1816 65.7527 75.8406 65.7527 78.0284C65.7527 81.0643 63.6013 83.1458 61.5534 83.8869V83.9911C63.2117 84.6641 64.1318 86.2517 64.7302 88.4394C65.4712 91.1191 66.2123 94.225 66.6707 95.1431H61.1647V95.1429ZM4.21599 66.5843V3.92174H49.6395V23.9852C49.6395 25.0686 50.5184 25.946 51.6003 25.946H68.9198L68.9218 66.5845H4.21599V66.5843Z" fill="#F57C1F"/>
<path d="M34.449 75.3828H34.3785C34.0267 76.7931 33.6714 78.5931 33.2852 79.9689L31.8726 85.0153H37.1307L35.6481 79.9689C35.2246 78.5566 34.8014 76.7938 34.449 75.3828Z" fill="#F57C1F"/>
<path d="M43.6364 26.9258H15.106V30.7043H43.6364V26.9258Z" fill="#F57C1F"/>
<path d="M43.6364 35.5423H48.4656V36.7874V38.205V39.8168V41.2375V42.8867V44.305V46.2219H43.6364V50.8448H15.106V54.6198H43.6364V51.059H57.9038V46.2219H49.9314V44.305H53.0794V42.8867H49.9314V41.2375H53.0794V39.8168H49.9314V38.205H53.0794V36.7874H49.9314V35.5423H57.9038V30.7041H43.6364V35.5423Z" fill="#F57C1F"/>
<path d="M39.9669 32.6465H18.7769V49.1183H39.9669V32.6465Z" fill="#F57C1F"/>
</svg>
