<svg width="74" height="100" viewBox="0 0 74 100" fill="none" xmlns="http://www.w3.org/2000/svg">
<path d="M73.371 23.9636C73.3654 23.505 73.2198 23.0522 72.9049 22.6942L53.6237 0.670629C53.6198 0.664428 53.614 0.662604 53.6084 0.65695C53.4934 0.528551 53.3614 0.422768 53.2195 0.329387C53.1776 0.302212 53.1352 0.277772 53.0913 0.252968C52.9667 0.186397 52.8383 0.131317 52.7045 0.0910101C52.668 0.0804317 52.6357 0.0656586 52.5992 0.0561745C52.4519 0.0206095 52.3023 0 52.1493 0H4.76295C2.60114 0 0.841309 1.75983 0.841309 3.92164V96.0785C0.841309 98.2413 2.60114 100 4.76295 100H69.4685C71.6322 100 73.3904 98.2413 73.3904 96.0785V24.1833C73.3905 24.1096 73.3787 24.0374 73.371 23.9636ZM28.4225 76.3423H22.5287V93.8294H17.6287V76.3423H11.8326V72.2427H28.4225V76.3423V76.3423ZM44.7922 93.8294H31.02V72.2427H44.3441V76.2464H35.9196V80.7303H43.8639V84.7023H35.9196V89.8266H44.7922V93.8294V93.8294ZM59.4963 93.8294L57.5431 89.9223C56.7428 88.4171 56.2296 87.2962 55.6206 86.0466H55.5575C55.1094 87.2962 54.5637 88.4171 53.8916 89.9223L52.0984 93.8294H46.5251L52.7703 82.9063L46.7492 72.2427H52.3537L54.2438 76.1816C54.8843 77.495 55.3658 78.5521 55.877 79.769H55.9414C56.4536 78.3921 56.8688 77.43 57.4149 76.1816L59.2395 72.2427H64.8135L58.7283 82.7798L65.1333 93.8292H59.4963V93.8294ZM4.76295 66.5853V3.92164H50.1883V23.986C50.1883 25.0684 51.0655 25.9468 52.1493 25.9468H69.4687L69.4707 66.5851H4.76295V66.5853Z" fill="#AEB1CF"/>
<path d="M26.7963 32.9453V28.3818H10.7583V32.9453H11.2914C11.3345 32.263 11.451 31.7051 11.6423 31.2708C11.8344 30.8386 12.0943 30.4962 12.4217 30.2473C12.7483 29.9983 13.1364 29.8276 13.5844 29.7357C14.0325 29.6432 14.547 29.5962 15.1306 29.5962H17.4547V44.418C17.4547 45.058 17.4088 45.563 17.315 45.9325C17.2226 46.3021 17.0923 46.5827 16.9215 46.7737C16.7509 46.9672 16.537 47.0916 16.2824 47.1481C16.0278 47.205 15.7276 47.2333 15.3852 47.2333H14.7042V47.7659H22.915V47.2333H22.2538C21.9121 47.2333 21.6149 47.2089 21.3592 47.158C21.1012 47.1087 20.8896 46.9924 20.7178 46.8071C20.5482 46.623 20.4156 46.3414 20.3248 45.9656C20.2305 45.5875 20.1854 45.0737 20.1854 44.4189V29.5962H22.915C24.0097 29.5962 24.8375 29.8491 25.4 30.354C25.961 30.859 26.3196 31.7226 26.4766 32.9453H26.7963Z" fill="#AEB1CF"/>
<path d="M39.6559 50.4362C39.4136 50.664 39.1878 50.8539 38.9731 51.0013C38.7608 51.1505 38.5146 51.2685 38.2381 51.3538C37.9605 51.4381 37.6309 51.4972 37.2463 51.5243C36.8624 51.5528 36.3936 51.5663 35.8384 51.5663H32.5535C32.1413 51.5663 31.8287 51.546 31.6162 51.5028C31.4012 51.46 31.2456 51.3651 31.1466 51.2168C31.0465 51.0667 30.9905 50.8502 30.9766 50.5657C30.9615 50.2807 30.9551 49.8962 30.9551 49.4127V43.0157H35.1994C35.8251 43.0157 36.3229 43.0626 36.6916 43.1551C37.061 43.2479 37.3497 43.404 37.5558 43.6247C37.7613 43.8454 37.9109 44.1394 38.0028 44.51C38.0967 44.8797 38.1781 45.3424 38.2478 45.8954H38.7821V39.1561H38.2478C38.2202 39.6394 38.1615 40.0589 38.0772 40.414C37.993 40.7697 37.8379 41.0607 37.6176 41.2896C37.3975 41.5178 37.0965 41.6865 36.7121 41.8009C36.3285 41.9138 35.824 41.9718 35.1983 41.9718H30.954V34.3149H36.2649C36.9176 34.3149 37.4547 34.3464 37.8744 34.4112C38.2946 34.4757 38.6402 34.6218 38.9093 34.8482C39.1801 35.0756 39.3966 35.4003 39.56 35.8181C39.7238 36.2372 39.8754 36.7964 40.018 37.4924H40.3596V33.249H25.4307V33.7814H26.1128C26.9237 33.7814 27.4993 33.9735 27.8414 34.3579C28.0827 34.6423 28.2033 35.4021 28.2033 36.6394V49.2225C28.2033 50.1599 28.1464 50.7859 28.0324 51.0981C27.9755 51.2694 27.8768 51.4169 27.7345 51.546C27.5916 51.6744 27.4316 51.7769 27.2551 51.8554C27.0756 51.934 26.8885 51.9942 26.6897 52.0372C26.4896 52.0802 26.2981 52.1007 26.1128 52.1007H25.4307V52.6327H40.3596L42.0446 47.7716H41.4683C40.8287 48.995 40.2244 49.8829 39.6559 50.4362Z" fill="#AEB1CF"/>
<path d="M59.7787 46.0777C59.459 45.9857 59.1316 45.8039 58.7977 45.5334C58.4625 45.2629 58.1006 44.8699 57.7098 44.3501C57.3191 43.8318 56.825 43.1316 56.2288 42.249L52.0688 36.0436L55.9071 31.1172C56.7179 30.0942 57.3209 29.412 57.7211 29.0697C58.0909 28.7423 58.4774 28.4793 58.8845 28.2809C59.2885 28.0815 59.8179 27.961 60.4729 27.9179V27.3857H53.6043V27.9179C54.3725 27.9473 54.9105 28.0323 55.2156 28.1736C55.5231 28.3166 55.6745 28.5942 55.6745 29.0061C55.6745 29.121 55.6669 29.2211 55.6534 29.3052C55.6401 29.3903 55.6038 29.4866 55.5472 29.5933C55.4899 29.7 55.4046 29.8357 55.2915 29.9993C55.1779 30.1622 55.0141 30.3794 54.8013 30.6481L51.367 35.0211L48.382 30.5638C47.925 29.8957 47.7001 29.3825 47.7001 29.0287C47.7001 28.7591 47.8411 28.514 48.1263 28.2933C48.4098 28.0726 48.9286 27.9482 49.6832 27.9189V27.3867H40.7237V27.9189C41.2068 27.9482 41.6473 28.015 42.0467 28.1218C42.445 28.2285 42.8395 28.414 43.2302 28.6767C43.6207 28.9406 44.0265 29.3092 44.446 29.7845C44.8653 30.2612 45.3384 30.8835 45.8637 31.6514L49.6812 37.2384L45.1181 43.0187C44.7198 43.5157 44.3367 43.9598 43.9654 44.3501C43.5959 44.7411 43.2224 45.0685 42.847 45.333C42.4677 45.5952 42.0755 45.803 41.6635 45.9609C41.2499 46.118 40.8094 46.2099 40.3396 46.2385V46.7709H47.2069V46.2385C46.4812 46.2099 45.991 46.0964 45.7355 45.8955C45.4801 45.6972 45.3517 45.4493 45.3517 45.15C45.3517 45.0506 45.3556 44.9582 45.3623 44.8728C45.3689 44.7876 45.4015 44.6886 45.4579 44.5737C45.5164 44.4612 45.6047 44.318 45.7251 44.1462C45.8458 43.9766 46.02 43.7493 46.2478 43.4639L50.3197 38.261L53.6045 43.2295C53.8038 43.5427 53.9667 43.7905 54.0947 43.9768C54.2231 44.1612 54.3189 44.3144 54.3821 44.4349C54.4463 44.5566 54.4854 44.6476 54.4989 44.7112C54.5153 44.7758 54.5209 44.8447 54.5209 44.9142C54.5209 45.3279 54.3955 45.6476 54.1478 45.875C53.8986 46.1005 53.3834 46.2221 52.6022 46.2369V46.7693H60.9174V46.2369C60.4787 46.2228 60.0979 46.1705 59.7787 46.0777Z" fill="#AEB1CF"/>
</svg>
