<svg width="73" height="100" viewBox="0 0 73 100" fill="none" xmlns="http://www.w3.org/2000/svg">
<path d="M72.9205 23.9646C72.9148 23.5056 72.7701 23.0526 72.4553 22.6951L53.1728 0.670115C53.169 0.664487 53.1632 0.66249 53.1574 0.656862C53.0425 0.52814 52.9105 0.422294 52.7687 0.329339C52.7266 0.301561 52.6845 0.277233 52.6403 0.252723C52.5158 0.185729 52.3876 0.131082 52.2536 0.0907769C52.2173 0.0797021 52.1847 0.0653594 52.1483 0.0553739C52.0009 0.0210602 51.8517 0 51.6985 0H4.31219C2.15043 0 0.390625 1.7598 0.390625 3.92174V96.0784C0.390625 98.2402 2.15024 100 4.31219 100H69.018C71.1817 100 72.9395 98.2404 72.9395 96.0784V24.1833C72.9395 24.1096 72.9281 24.037 72.9205 23.9646ZM24.0661 75.2413H17.7907V93.8629H12.5729V75.2413H6.40042V70.8764H24.0661V75.2413ZM45.0405 92.8059C43.4379 93.3517 40.4029 94.1024 37.3668 94.1024C33.1729 94.1024 30.1364 93.0434 28.022 90.9984C25.908 89.0194 24.7481 86.0178 24.7826 82.6431C24.8161 75.0039 30.3759 70.638 37.9136 70.638C40.8797 70.638 43.1651 71.2183 44.29 71.762L43.1985 75.9229C41.9365 75.3782 40.3682 74.935 37.8446 74.935C33.5133 74.935 30.2384 77.3898 30.2384 82.3693C30.2384 87.1102 33.205 89.9071 37.4688 89.9071C38.6632 89.9071 39.6168 89.7711 40.0265 89.5661V84.7562H36.4799V80.6987H45.0396V92.8061H45.0405V92.8059ZM62.8074 93.8629L61.0334 87.9623H54.4521L52.8148 93.8629H47.4247L54.4521 70.8764H61.2727L68.4007 93.8629H62.8074ZM4.31219 66.5852V3.92174H49.7377V23.9862C49.7377 25.0684 50.6146 25.9469 51.6985 25.9469H69.018L69.0199 66.5852H4.31219Z" fill="#AEB1CF"/>
<path d="M57.692 74.7646H57.623C57.2822 76.1301 56.9412 77.8687 56.5651 79.1995L55.2007 84.0755H60.2836L58.8512 79.1995C58.4416 77.8351 58.0327 76.1299 57.692 74.7646Z" fill="#AEB1CF"/>
<path d="M46.1203 33.6531C45.9414 33.6531 45.7642 33.6622 45.5879 33.6736L43.9106 19.79L32.4749 28.3723H13.3511V48.2529H33.2327V39.1565L35.4912 40.1206C34.5921 41.8363 34.1197 43.7411 34.1197 45.656C34.1197 52.2733 39.5046 57.6567 46.1204 57.6567C52.7381 57.6567 58.1217 52.2733 58.1217 45.656C58.1215 39.0376 52.7381 33.6531 46.1203 33.6531ZM33.5807 29.2864L42.8154 22.3572L44.1577 33.4612C40.7877 34.003 37.8004 35.9198 35.8828 38.7729L33.5816 37.7896V29.2864H33.5807V29.2864ZM36.9925 39.6259C38.7386 36.9901 41.5613 35.2108 44.6698 34.7953L45.7029 43.3424L36.9925 39.6259ZM32.1867 29.8962V37.5738L25.6659 34.7905L32.1867 29.8962Z" fill="#AEB1CF"/>
</svg>
