<svg width="73" height="100" viewBox="0 0 73 100" fill="none" xmlns="http://www.w3.org/2000/svg">
<path d="M72.5298 23.9636C72.5242 23.505 72.3795 23.0517 72.0647 22.694L52.7822 0.67066C52.7784 0.664487 52.7726 0.66249 52.7668 0.656862C52.6519 0.528503 52.5199 0.422294 52.3781 0.329339C52.336 0.301561 52.2938 0.277233 52.2497 0.252723C52.1252 0.186274 51.997 0.131082 51.863 0.0907769C51.8267 0.0802468 51.794 0.0653594 51.7577 0.0553739C51.6103 0.0216049 51.4611 0 51.3078 0H3.92156C1.7598 0 0 1.7598 0 3.92174V96.0784C0 98.2413 1.75962 100 3.92156 100H68.6273C70.7911 100 72.5489 98.2413 72.5489 96.0784V24.1833C72.5489 24.1096 72.5375 24.0374 72.5298 23.9636ZM21.0666 76.034H15.3609V92.9648H10.6178V76.034H5.00598V72.0656H21.0666V76.034ZM40.8166 92.963H36.1041V84.2199H28.3213V92.963H23.5773V72.0656H28.3213V80.0955H36.1041V72.0656H40.8166V92.963ZM62.9233 92.963L62.613 84.9646C62.5211 82.4523 62.4282 79.4145 62.4282 76.3748H62.3352C61.6833 79.0422 60.8149 82.0178 60.0088 84.4668L57.4659 92.6211H53.778L51.5453 84.5291C50.8636 82.0801 50.1495 79.1033 49.6535 76.3748H49.5921C49.4676 79.1972 49.3739 82.422 49.2196 85.026L48.8472 92.963H44.4756L45.8084 72.0654H52.1025L54.1493 79.0422C54.8004 81.4604 55.4514 84.0647 55.9166 86.5147H56.0095C56.6003 84.0953 57.3127 81.3361 57.9943 79.0115L60.227 72.0654H66.3966L67.5435 92.963H62.9233ZM3.92156 66.5852V3.92174H49.347V23.9862C49.347 25.0684 50.2239 25.9469 51.3078 25.9469H68.6273L68.6293 66.5852H3.92156Z" fill="#AEB1CF"/>
<path d="M41.5468 33.6831C42.0035 33.6831 42.4631 33.6466 42.9148 33.5725C43.495 33.7831 44.1461 33.8928 44.8087 33.8928C47.0538 33.8928 48.8116 32.6783 48.8116 31.1291C48.8116 29.5781 47.0538 28.3643 44.8087 28.3643C44.2524 28.3643 43.6982 28.4409 43.1963 28.5892C42.9129 28.4409 42.5989 28.3643 42.2773 28.3643H41.8234C41.0767 28.3643 40.3979 28.7922 40.058 29.448C38.391 29.7419 37.4041 30.4988 37.4041 31.5017C37.4041 32.9999 39.5506 33.6831 41.5468 33.6831ZM44.8076 30.1233C46.1987 30.1233 47.0507 30.7749 47.0507 31.1282C47.0507 31.4821 46.1987 32.132 44.8076 32.132C44.2791 32.132 43.7748 32.0338 43.3505 31.8525L43.1007 31.7475L42.8345 31.7998C42.4122 31.882 41.9785 31.9243 41.5457 31.9243C40.4093 31.9243 39.6787 31.686 39.3351 31.5035C39.5829 31.3706 40.054 31.1969 40.8124 31.1173L41.5113 31.0431L41.5936 30.3461C41.609 30.2116 41.702 30.1226 41.8216 30.1226H42.2764C42.3387 30.1226 42.3979 30.1489 42.4467 30.1958L42.8585 30.595L43.3899 30.3791C43.8073 30.2125 44.2975 30.1233 44.8076 30.1233Z" fill="#AEB1CF"/>
<path d="M25.7253 32.0088C27.6483 32.0088 29.2136 30.4429 29.2136 28.5196C29.2136 26.5951 27.6492 25.0303 25.7253 25.0303C23.799 25.0303 22.2322 26.5953 22.2322 28.5196C22.2322 30.4429 23.799 32.0088 25.7253 32.0088ZM25.7253 30.249C24.7688 30.249 23.9909 29.4736 23.9909 28.5194C23.9909 27.5653 24.7688 26.7899 25.7253 26.7899C26.6784 26.7899 27.4538 27.5653 27.4538 28.5194C27.4538 29.4736 26.6784 30.249 25.7253 30.249Z" fill="#AEB1CF"/>
<path d="M18.3982 17.3809L18.3777 59.5064H54.1514L54.1724 17.3809H18.3982ZM20.1578 51.4011V19.1407H52.4116V51.4011H20.1578Z" fill="#AEB1CF"/>
<path d="M42.9913 37.9893C42.7674 37.9893 42.5412 38.0177 42.3144 38.0765C40.3411 38.5814 38.9855 41.0233 38.1122 43.3929C37.2404 40.6173 35.6229 36.6404 32.9494 33.9605C32.3161 33.3287 31.6247 33.0088 30.8924 33.0088C27.1044 33.0088 24.2756 42.2813 23.223 46.3359L23.0688 47.9252H49.3398L48.3106 44.7275C46.9789 41.3189 45.4682 37.9893 42.9913 37.9893ZM30.8936 34.7688C31.146 34.7688 31.4116 34.9118 31.7055 35.2052C35.0029 38.507 36.6028 44.2931 37.0518 46.1656H25.0783C26.8762 39.5324 29.2976 34.7688 30.8936 34.7688ZM46.9283 46.1656H39.0852C39.8339 43.2609 41.2433 40.1674 42.7504 39.7807C44.3272 39.3599 45.9749 43.5817 46.6556 45.3165L46.9283 46.1656Z" fill="#AEB1CF"/>
</svg>
