<svg width="74" height="100" viewBox="0 0 74 100" fill="none" xmlns="http://www.w3.org/2000/svg">
<path d="M73.0786 23.9626C73.0728 23.5041 72.9254 23.0521 72.6104 22.6931L53.3309 0.668844C53.3252 0.663579 53.3196 0.660674 53.3156 0.655954C53.2007 0.526687 53.0667 0.421931 52.9251 0.328612C52.883 0.301379 52.8408 0.275962 52.7967 0.251997C52.6742 0.184459 52.5458 0.130537 52.41 0.0902322C52.3735 0.0797021 52.341 0.0639069 52.3047 0.0561001C52.1591 0.0206971 52.0079 0 51.8546 0H4.47039C2.30845 0 0.548828 1.75889 0.548828 3.92174V96.0784C0.548828 98.2402 2.30845 100 4.47039 100H69.1762C71.3381 100 73.0979 98.2404 73.0979 96.0784V24.1824C73.0977 24.1087 73.0863 24.0364 73.0786 23.9626ZM22.9331 74.9674H16.4399V94.2364H11.0421V74.9674H4.65376V70.4503H22.9331V74.9674ZM31.1936 94.2364H25.7939V70.4503H31.1936V94.2364ZM50.3917 74.8621H41.2523V80.2965H49.7924V84.672H41.2523V94.2366H35.8525V70.4503H50.3917V74.8621V74.8621ZM68.9924 74.8621H59.8508V80.2965H68.392V84.672H59.8508V94.2366H54.453V70.4503H68.9924V74.8621V74.8621ZM4.47039 66.5843V3.92174H49.8937V23.9852C49.8937 25.0677 50.7728 25.946 51.8546 25.946H69.1762V66.5845H4.47039V66.5843Z" fill="#69A042"/>
<path d="M56.7231 29.5742H36.6135L35.1467 26.621C34.9103 26.2408 34.4684 25.834 33.7691 25.834H24.7733C24.3372 25.834 23.8007 26.1907 23.5214 26.621L22.1427 29.5742H16.9214C14.7466 29.5742 12.9832 31.3387 12.9832 33.5153V57.1591C12.9832 59.3363 14.7468 61.1008 16.9214 61.1008H56.7238C58.901 61.1008 60.6644 59.3363 60.6644 57.1591V33.5153C60.6628 31.3389 58.9012 29.5742 56.7231 29.5742ZM42.6347 55.386H36.7306C35.9183 53.5135 34.9241 50.5109 33.421 50.8575C31.7633 51.2348 30.8753 54.8769 30.7613 55.386H30.7329C30.6191 54.8366 29.6683 50.6373 27.3203 48.5309C24.9239 46.383 22.5955 54.6317 22.3867 55.386H17.219V35.4859H42.6365V55.386H42.6347ZM51.7147 52.3397C47.8028 52.3397 44.6203 49.1567 44.6203 45.2468C44.6203 41.3352 47.8028 38.1539 51.7147 38.1539C55.6238 38.1539 58.8044 41.3352 58.8044 45.2468C58.8055 49.1578 55.6249 52.3397 51.7147 52.3397Z" fill="#69A042"/>
<path d="M51.7148 38.9424C48.2357 38.9424 45.4075 41.7704 45.4075 45.247C45.4075 48.7238 48.2357 51.552 51.7148 51.552C55.1903 51.552 58.0186 48.724 58.0186 45.247C58.0186 41.7704 55.1901 38.9424 51.7148 38.9424ZM48.0691 47.3158L45.9992 45.2468L48.0691 43.1782V47.3158ZM51.7148 50.7316L49.6431 48.6617H53.7809L51.7148 50.7316ZM49.6431 41.8313L51.7148 39.7628L53.78 41.8313H49.6431ZM54.8993 47.3158V43.1775L56.9683 45.2459L54.8993 47.3158Z" fill="#69A042"/>
<path d="M30.3781 42.571C30.9186 42.571 31.4144 42.523 31.8568 42.4428C32.3792 42.6429 33.0077 42.7625 33.6951 42.7625C35.4471 42.7625 36.8646 41.9929 36.8646 41.0479C36.8646 40.1015 35.4471 39.335 33.6951 39.335C33.0384 39.335 32.4256 39.4399 31.9176 39.628C31.7118 39.4484 31.4322 39.335 31.1215 39.335H30.6577C30.0756 39.335 29.6088 39.7338 29.5389 40.2427C28.1213 40.3791 27.0654 40.835 27.0654 41.384C27.0654 42.0416 28.55 42.571 30.3781 42.571Z" fill="#69A042"/>
<path d="M23.7181 42.1604C24.5022 42.1604 25.1377 41.5249 25.1377 40.7409C25.1377 39.9569 24.5022 39.3213 23.7181 39.3213C22.9341 39.3213 22.2986 39.9569 22.2986 40.7409C22.2986 41.5249 22.9341 42.1604 23.7181 42.1604Z" fill="#69A042"/>
</svg>
