<svg width="73" height="100" viewBox="0 0 73 100" fill="none" xmlns="http://www.w3.org/2000/svg">
<path d="M72.6274 23.9636C72.6217 23.505 72.4762 23.0522 72.1612 22.6942L52.88 0.670629C52.8762 0.664975 52.8704 0.662604 52.8647 0.65695C52.7498 0.528551 52.6178 0.422768 52.4759 0.329387C52.4339 0.302212 52.3916 0.277772 52.3476 0.252968C52.2231 0.186397 52.0947 0.131317 51.9608 0.0910101C51.9243 0.0804317 51.892 0.0656586 51.8556 0.0561745C51.7082 0.0215214 51.5586 0 51.4056 0H4.0193C1.85749 0 0.0976562 1.75983 0.0976562 3.92164V96.0785C0.0976562 98.2413 1.85749 100 4.0193 100H68.7249C70.8885 100 72.6467 98.2413 72.6467 96.0785V24.1833C72.6469 24.1096 72.635 24.0374 72.6274 23.9636ZM22.4624 76.4457H16.7056V93.5279H11.9195V76.4457H6.25679V72.4416H22.4633V76.4457H22.4624ZM43.0183 93.5279L42.7071 85.4557C42.6132 82.9217 42.5186 79.8559 42.5186 76.7895H42.4248C41.768 79.4784 40.8931 82.4832 40.0773 84.9551L37.5123 93.1832H33.79L31.5368 85.018C30.8479 82.547 30.1288 79.5426 29.6281 76.7895H29.5654C29.4401 79.6356 29.3458 82.8899 29.1897 85.5181L28.8143 93.5277H24.4026L25.7477 72.4396H32.0998L34.1644 79.4784C34.8212 81.92 35.479 84.5491 35.9476 87.0193H36.0417C36.6366 84.5799 37.3556 81.7954 38.0439 79.448L40.2969 72.4396H46.523L47.6806 93.5277H43.0183V93.5279ZM64.5499 83.8609C62.9219 85.3937 60.5132 86.0811 57.6977 86.0811C57.0716 86.0811 56.5084 86.0507 56.0699 85.9872V93.5279H51.3463V72.7221C52.8167 72.4715 54.8821 72.285 57.7916 72.285C60.7326 72.285 62.8293 72.8478 64.2369 73.9746C65.582 75.0383 66.4905 76.7902 66.4905 78.8568C66.4905 80.9216 65.8011 82.6709 64.5499 83.8609ZM4.0193 66.5853V3.92164H49.4446V23.986C49.4446 25.0684 50.3219 25.9468 51.4056 25.9468H68.7251L68.7271 66.5851H4.0193V66.5853Z" fill="#AEB1CF"/>
<path d="M58.042 75.8809C57.0715 75.8809 56.4145 75.9757 56.0698 76.0684V82.2957C56.4765 82.3896 56.9774 82.4201 57.667 82.4201C60.2001 82.4201 61.7644 81.1383 61.7644 78.979C61.7644 77.0405 60.4184 75.8809 58.042 75.8809Z" fill="#AEB1CF"/>
<path d="M51.0552 27.9051C51.0531 27.7198 50.9941 27.5354 50.8677 27.3915L43.0568 18.4707C43.0568 18.4698 43.053 18.4678 43.0512 18.4659C43.0052 18.413 42.9518 18.3711 42.8945 18.3337C42.8759 18.3208 42.8601 18.3122 42.8429 18.302C42.7909 18.2757 42.7393 18.2531 42.6857 18.2374C42.6706 18.2327 42.6569 18.2255 42.6437 18.2217C42.5836 18.2082 42.523 18.2002 42.4608 18.2002H23.269C22.3939 18.2002 21.6812 18.9131 21.6812 19.7886V57.11C21.6812 57.9869 22.3939 58.6982 23.269 58.6982H49.4735C50.3504 58.6982 51.0628 57.9849 51.0628 57.11V27.9946C51.0628 27.9638 51.0572 27.9348 51.0552 27.9051ZM23.269 56.8782V19.7886H41.6665V27.9151C41.6665 28.3523 42.0207 28.7085 42.4604 28.7085H49.4755V56.8784H23.269V56.8782Z" fill="#AEB1CF"/>
</svg>
