<svg width="73" height="100" viewBox="0 0 73 100" fill="none" xmlns="http://www.w3.org/2000/svg">
<path d="M37.1543 79.0371C36.4996 79.0371 36.0788 79.0964 35.8767 79.1575V83.4182H37.1043C38.5023 83.4182 39.3776 82.5372 39.3776 81.1987C39.3774 79.7169 38.5021 79.0371 37.1543 79.0371Z" fill="#AEB1CF"/>
<path d="M27.5713 79.0371C26.9155 79.0371 26.4947 79.0964 26.2937 79.1575V83.4182H27.523C28.9193 83.4182 29.7951 82.5372 29.7951 81.1987C29.7959 79.7169 28.9193 79.0371 27.5713 79.0371Z" fill="#AEB1CF"/>
<path d="M17.1296 79.0371C15.0759 79.0371 13.9807 81.2983 13.9807 84.0788C13.9807 86.8209 15.1434 89.0017 17.1296 89.0017C19.1331 89.0017 20.2604 86.7997 20.2604 83.9792C20.2602 81.4382 19.1995 79.0371 17.1296 79.0371Z" fill="#AEB1CF"/>
<path d="M72.726 23.9643C72.7204 23.5041 72.5768 23.0524 72.2609 22.6943L52.9785 0.670629C52.9739 0.664975 52.9681 0.662969 52.9622 0.65695C52.8473 0.528551 52.7153 0.421674 52.5745 0.329387C52.5324 0.3013 52.4902 0.277772 52.4461 0.25315C52.3206 0.186397 52.1922 0.13077 52.0583 0.0904629C52.0202 0.0804317 51.9896 0.0656586 51.9531 0.0561745C51.8066 0.0215214 51.6562 0 51.5032 0H4.11793C1.95649 0 0.196289 1.75983 0.196289 3.92164V96.0785C0.196289 98.2405 1.95649 100 4.11793 100H68.8237C70.9872 100 72.7453 98.2405 72.7453 96.0785V24.1824C72.7444 24.1102 72.734 24.0365 72.726 23.9643ZM4.11793 3.92164H49.5423V23.9851C49.5423 25.069 50.4202 25.9459 51.5032 25.9459H68.8226L68.8255 60.9786C59.7138 60.9373 50.627 61.7971 41.7173 59.6145C38.6921 58.8735 35.6249 57.1977 33.2442 55.1681C28.6396 51.2388 28.6768 44.5169 32.7952 40.2905C36.8436 36.1396 43.9807 36.0126 48.1455 40.0371C48.8081 40.6766 49.3902 41.401 50.2038 42.3009C51.615 41.5699 53.0627 40.8208 54.495 40.0793C52.2889 34.5019 45.2136 30.7464 38.6603 31.7038C32.0221 32.6726 27.3169 36.3032 25.2241 42.7049C23.1613 49.0167 24.8062 54.6044 29.5827 59.2122C35.0152 64.4521 41.9032 65.8643 49.0512 66.1255C54.8915 66.3352 60.7451 66.2376 66.7137 66.5842H42.513C42.2661 66.567 42.0181 66.5575 41.77 66.54C37.1974 66.2147 32.9876 64.2806 29.4012 61.2627C22.3945 55.3691 20.5504 46.0529 24.9315 38.7272C29.3385 31.3627 38.7917 28.2704 47.098 31.4742C47.7838 31.739 48.4643 32.0168 49.4092 32.3947C50.2826 30.9892 51.1347 29.6144 51.9772 28.2605C43.9079 21.7175 28.7866 24.586 21.7649 33.8231C13.8582 44.2245 16.1322 56.2555 27.4263 66.584H25.1141C17.8123 61.1451 14.0302 51.5411 15.8788 42.6334C17.9321 32.7372 26.5398 25.0088 36.8104 23.7246C38.0758 23.5676 39.9438 24.3104 40.2146 21.9041C40.5955 18.5225 40.0669 17.8695 36.6399 18.3618C25.0568 20.0156 16.4222 25.9384 12.282 36.9734C8.20773 47.8343 10.2948 57.828 17.5391 66.5843H4.11793V3.92164ZM11.5193 79.3351H8.25351V90.7629H6.18398V79.3351H2.95212V77.2747H11.5193V79.3351ZM17.0124 90.9812C13.8131 90.9812 11.7945 88.0802 11.7945 84.1203C11.7945 79.9749 13.9808 77.0545 17.18 77.0545C20.4965 77.0545 22.4494 80.0341 22.4494 83.8772C22.4494 88.4 20.1417 90.9812 17.0124 90.9812ZM30.1308 90.7638C29.9624 90.3628 29.6938 89.2617 29.3731 87.5805C29.0541 85.8188 28.5152 85.2596 27.3366 85.2177H26.2945V90.7629H24.2408V77.4547C25.0145 77.296 26.1768 77.1771 27.372 77.1771C29.0034 77.1771 30.1142 77.497 30.872 78.259C31.4937 78.8776 31.8475 79.8197 31.8475 80.9592C31.8475 82.6975 30.8534 83.8794 29.795 84.3406V84.4012C30.6013 84.7592 31.0897 85.7012 31.3759 86.9994C31.7288 88.6825 32.0318 90.243 32.2683 90.764H30.1308V90.7638ZM39.7143 90.7638C39.5462 90.3628 39.2781 89.2617 38.9562 87.5805C38.6385 85.8188 38.0984 85.2596 36.9209 85.2177H35.8788V90.7629H33.8242V77.4547C34.5986 77.296 35.7595 77.1771 36.9554 77.1771C38.5867 77.1771 39.6972 77.497 40.4556 78.259C41.0779 78.8776 41.4302 79.8197 41.4302 80.9592C41.4302 82.6975 40.4366 83.8794 39.3775 84.3406V84.4012C40.1847 84.7592 40.673 85.7012 40.9582 86.9994C41.3095 88.6825 41.6152 90.243 41.8504 90.764H39.7143V90.7638ZM50.2557 90.7629H43.4045V77.2747H50.003V79.296H45.4744V82.7779H49.7504V84.7791H45.4742V88.741H50.2557V90.7629ZM61.0669 90.7629H58.9288L55.9676 84.8402C55.2419 83.3581 54.4846 81.6979 53.9302 80.1757L53.8785 80.1968C53.9628 81.9375 53.9799 83.7161 53.9799 85.9356V90.7609H52.0788V77.2747H54.4355L57.3637 83.0597C58.121 84.5569 58.7769 86.1176 59.2994 87.5787H59.3339C59.198 85.7765 59.15 84.0379 59.15 81.9775V77.2728H61.0689V90.7629H61.0669ZM67.7073 79.3351V90.7629H65.6356V79.3351H62.4025V77.2747H70.9684V79.3351H67.7073Z" fill="#AEB1CF"/>
</svg>
