<svg width="74" height="100" viewBox="0 0 74 100" fill="none" xmlns="http://www.w3.org/2000/svg">
<path d="M73.2749 23.9636C73.2693 23.505 73.1237 23.0521 72.8087 22.694L53.5262 0.67066C53.5224 0.664487 53.5166 0.66249 53.5101 0.656862C53.3961 0.528503 53.263 0.422657 53.1223 0.329339C53.0802 0.302105 53.0379 0.277596 52.9939 0.252723C52.8694 0.186274 52.741 0.131082 52.6061 0.0907769C52.5698 0.0802468 52.5382 0.0653594 52.5017 0.0559186C52.3554 0.0216049 52.2042 0 52.0519 0H4.66668C2.50492 0 0.745117 1.7598 0.745117 3.92174V96.0784C0.745117 98.2413 2.50474 100 4.66668 100H69.3724C71.5362 100 73.294 98.2413 73.294 96.0784V24.1833C73.294 24.1096 73.2826 24.0374 73.2749 23.9636ZM27.9678 76.821H21.858V94.9544H16.7756V76.821H10.7645V72.5701H27.9678V76.821V76.821ZM46.9001 76.821H40.7899V94.9544H35.708V76.821H29.697V72.5701H46.9003V76.821H46.9001ZM63.2759 76.7223H54.6735V81.8359H62.71V85.9548H54.6735V94.9544H49.5905V72.5701H63.2739V76.7223H63.2759ZM4.66668 66.5852V3.92174H50.0922V23.9862C50.0922 25.0684 50.9691 25.9469 52.0529 25.9469H69.3724L69.3744 66.5852H4.66668Z" fill="#999999"/>
<path d="M38.3103 29.0678C37.785 26.7868 37.3577 25.5981 36.787 24.8385C36.0272 23.6973 35.2188 23.365 31.6558 23.365H28.2814V46.7475C28.2814 50.5029 28.661 50.9768 33.1757 51.2631V52.5919H19.5374V51.2631C23.8611 50.9768 24.2422 50.5028 24.2422 46.7475V23.3648H21.2952C17.3512 23.3648 16.3991 23.7456 15.7824 24.8383C15.2117 25.6464 14.8303 26.9767 14.262 29.0676H12.8833C13.1208 26.216 13.3577 23.1265 13.4539 20.5117H14.4042C15.0705 21.605 15.687 21.7 17.0178 21.7H35.7903C37.0737 21.7 37.4539 21.4157 38.2144 20.5117H39.212C39.212 22.698 39.4495 26.1686 39.6868 28.9236L38.3103 29.0678Z" fill="#999999"/>
<path d="M55.5111 35.2971C54.9882 33.0155 54.5614 31.8274 53.9906 31.0678C53.2304 29.9266 52.4214 29.5943 48.8571 29.5943H45.4831V52.9768C45.4831 56.7328 45.8642 57.2067 50.3775 57.4919V58.8218H36.7372V57.4919C41.0627 57.2067 41.4438 56.7326 41.4438 52.9768V29.5943H38.495C34.5529 29.5943 33.6006 29.9749 32.9823 31.0678C32.4116 31.8759 32.0326 33.2062 31.4619 35.2971H30.0852C30.3227 32.4451 30.5578 29.3559 30.6538 26.7412H31.6061C32.2704 27.8345 32.8895 27.9298 34.2197 27.9298H52.9902C54.2762 27.9298 54.6532 27.6455 55.4145 26.7412H56.413C56.413 28.9275 56.6523 32.3981 56.89 35.1531L55.5111 35.2971Z" fill="#999999"/>
</svg>
