<svg width="73" height="100" viewBox="0 0 73 100" fill="none" xmlns="http://www.w3.org/2000/svg">
<path d="M72.8238 23.9636C72.818 23.505 72.6705 23.0521 72.3555 22.694L53.076 0.67066C53.0704 0.664487 53.0647 0.66249 53.0607 0.656862C52.9458 0.528503 52.8118 0.422657 52.6702 0.329339C52.6281 0.302105 52.586 0.277596 52.5418 0.252723C52.4193 0.186274 52.2909 0.131082 52.1551 0.0907769C52.1187 0.0802468 52.0861 0.0653594 52.0498 0.0559186C51.9042 0.0206971 51.753 0 51.5998 0H4.21551C2.05356 0 0.293945 1.7598 0.293945 3.92174V96.0784C0.293945 98.2413 2.05356 100 4.21551 100H68.9213C71.0832 100 72.843 98.2413 72.843 96.0784V24.1833C72.8428 24.1096 72.8314 24.0374 72.8238 23.9636ZM24.7961 75.9993H18.303V95.2672H12.9047V75.9993H6.51688V71.4833H24.7963V75.9993H24.7961ZM40.8193 95.2672L38.667 90.9619C37.7853 89.3036 37.2194 88.0685 36.5497 86.6917H36.4792C35.9847 88.0685 35.3859 89.3036 34.6448 90.9619L32.6682 95.2672H26.5268L33.4094 83.2337L26.7741 71.4823H32.9498L35.0334 75.8232C35.738 77.2689 36.2685 78.4341 36.8327 79.7754H36.9037C37.4667 78.258 37.9262 77.1992 38.5255 75.8232L40.5381 71.4823H46.6789L39.9731 83.0919L47.0311 95.2672H40.8193V95.2672ZM66.6197 75.9993H60.1264V95.2672H54.7267V75.9993H48.338V71.4833H66.6179V75.9993H66.6197ZM4.21551 66.5852V3.92174H49.6388V23.9862C49.6388 25.0684 50.5179 25.9469 51.5998 25.9469H68.9213V66.5852H4.21551Z" fill="#999999"/>
<path d="M18.2224 26.9184H39.9748C40.6948 26.9184 41.2825 26.3329 41.2825 25.6116C41.2825 24.8903 40.6948 24.3057 39.9748 24.3057H18.2224C17.5004 24.3057 16.9165 24.8903 16.9165 25.6116C16.9165 26.3329 17.5004 26.9184 18.2224 26.9184Z" fill="#999999"/>
<path d="M53.8882 34.7559H18.1882C17.4667 34.7559 16.8823 35.3399 16.8823 36.0616C16.8823 36.7831 17.4667 37.3684 18.1882 37.3684H53.8882C54.6101 37.3684 55.196 36.7829 55.196 36.0616C55.196 35.3397 54.6099 34.7559 53.8882 34.7559Z" fill="#999999"/>
<path d="M53.8882 45.1309H18.1882C17.4667 45.1309 16.8823 45.7149 16.8823 46.4377C16.8823 47.1592 17.4667 47.7445 18.1882 47.7445H53.8882C54.6101 47.7445 55.196 47.159 55.196 46.4377C55.196 45.7147 54.6099 45.1309 53.8882 45.1309Z" fill="#999999"/>
<path d="M53.8882 55.7549H18.1882C17.4667 55.7549 16.8823 56.34 16.8823 57.0617C16.8823 57.7837 17.4667 58.3676 18.1882 58.3676H53.8882C54.6101 58.3676 55.196 57.7836 55.196 57.0617C55.196 56.3398 54.6099 55.7549 53.8882 55.7549Z" fill="#999999"/>
</svg>
