<svg width="74" height="100" viewBox="0 0 74 100" fill="none" xmlns="http://www.w3.org/2000/svg">
<path d="M73.3731 23.9646C73.3673 23.5059 73.2218 23.053 72.9069 22.6951L53.6253 0.67066C53.6215 0.665031 53.6157 0.663034 53.61 0.656862C53.4951 0.528503 53.3631 0.422657 53.2213 0.329339C53.1792 0.302105 53.1369 0.277596 53.093 0.252723C52.9684 0.186274 52.8401 0.131626 52.7061 0.0913215C52.6698 0.0802468 52.6373 0.0653594 52.6008 0.0559186C52.4535 0.0216049 52.3041 0 52.1509 0H4.76482C2.60288 0 0.843262 1.7598 0.843262 3.92174V96.0784C0.843262 98.2413 2.60288 100 4.76482 100H69.4706C71.6343 100 73.3923 98.2413 73.3923 96.0784V24.1833C73.3921 24.1102 73.3807 24.0374 73.3731 23.9646ZM25.3913 84.5358C25.3913 91.4425 21.904 94.7311 16.0598 94.7311C10.413 94.7311 7.09325 91.6091 7.09325 84.4688V71.9823H12.1739V84.8671C12.1739 88.7208 13.6343 90.6807 16.2256 90.6807C18.8834 90.6807 20.3443 88.8214 20.3443 84.8671V71.9823H25.3913V84.5358V84.5358ZM48.0436 84.5358C48.0436 91.4425 44.5569 94.7311 38.7127 94.7311C33.0658 94.7311 29.7459 91.6091 29.7459 84.4688V71.9823H34.8265V84.8671C34.8265 88.7208 36.2869 90.6807 38.8782 90.6807C41.5362 90.6807 42.9971 88.8214 42.9971 84.8671V71.9823H48.0436V84.5358ZM66.7113 94.3657H52.4305V71.9823H66.246V76.1335H57.5125V80.7827H65.7482V84.8996H57.5125V90.2133H66.7115V94.3657H66.7113ZM4.76482 66.5852V3.92174H50.1901V23.9862C50.1901 25.0684 51.0672 25.9469 52.1509 25.9469H69.4706L69.4726 66.5852H4.76482Z" fill="#F57C1F"/>
<path d="M40.2542 5.18066H34.3066V7.63345H40.2542V5.18066Z" fill="#F57C1F"/>
<path d="M34.3056 1.85449H28.3586V3.69272H34.3056V1.85449Z" fill="#F57C1F"/>
<path d="M34.3056 8.85254H28.3586V11.3064H34.3056V8.85254Z" fill="#F57C1F"/>
<path d="M40.2542 12.8701H34.3066V15.3249H40.2542V12.8701Z" fill="#F57C1F"/>
<path d="M40.4495 20.1348H34.502V22.5896H40.4495V20.1348Z" fill="#F57C1F"/>
<path d="M34.3056 16.6836H28.3586V19.1384H34.3056V16.6836Z" fill="#F57C1F"/>
<path d="M34.5019 24.8945H28.5549V27.3473H34.5019V24.8945Z" fill="#F57C1F"/>
<path d="M40.4495 28.5664H34.502V31.0203H40.4495V28.5664Z" fill="#F57C1F"/>
<path d="M34.5019 32.585H28.5549V35.0397H34.5019V32.585Z" fill="#F57C1F"/>
<path d="M34.3066 37.0918C31.385 37.0918 29.9969 39.4594 29.9969 42.3819L29.0183 51.2432C29.0183 54.1653 31.385 56.534 34.3075 56.534C37.2305 56.534 39.5973 54.1653 39.5973 51.2432L38.6207 42.3819C38.6189 39.4603 37.2287 37.0918 34.3066 37.0918ZM36.0586 54.2103H32.557V46.8124H36.0586V54.2103Z" fill="#F57C1F"/>
</svg>
