<svg width="73" height="100" viewBox="0 0 73 100" fill="none" xmlns="http://www.w3.org/2000/svg">
<path d="M46.7599 83.9634H44.8833V90.8221C45.4233 90.894 46.0745 90.894 47.0128 90.894C49.504 90.894 51.7043 89.9558 51.7043 87.3929C51.7041 84.9399 49.504 83.9634 46.7599 83.9634Z" fill="#D62D30"/>
<path d="M51.1277 77.0337C51.1277 75.1934 49.7192 74.2188 47.2283 74.2188C46.0372 74.2188 45.3518 74.2897 44.8816 74.3623V80.0292H46.6865C49.5747 80.0301 51.1277 78.8391 51.1277 77.0337Z" fill="#D62D30"/>
<path d="M72.5297 23.9652C72.5241 23.5059 72.3796 23.0533 72.0646 22.6951L52.7822 0.670629C52.7784 0.664975 52.7727 0.662969 52.767 0.65695C52.652 0.528551 52.5199 0.422768 52.3782 0.329387C52.3361 0.302212 52.2939 0.277772 52.2498 0.252968C52.1252 0.186397 51.997 0.131682 51.863 0.0915572C51.8268 0.0806141 51.7942 0.0656586 51.7577 0.0561745C51.6104 0.0215214 51.4608 0 51.3078 0H3.92164C1.75983 0 0 1.75983 0 3.92164V96.0785C0 98.2413 1.75983 100 3.92164 100H68.6274C70.7909 100 72.5491 98.2413 72.5491 96.0785V24.1842C72.5491 24.1111 72.5377 24.0374 72.5297 23.9652ZM28.6403 94.7216H22.2159L14.4188 70.3929H20.4461L23.4069 80.679C24.2384 83.5677 24.9944 86.347 25.5725 89.3792H25.6811C26.2939 86.4561 27.0517 83.5677 27.8832 80.7883L30.987 70.3927H36.835L28.6403 94.7216ZM54.9537 92.7726C53.1845 94.1808 50.2261 94.9746 45.3874 94.9746C42.6815 94.9746 40.6596 94.7936 39.4323 94.6136V70.7166C40.8761 70.4283 43.7999 70.2118 46.5437 70.2118C49.9007 70.2118 51.9573 70.5364 53.7264 71.5821C55.4231 72.4858 56.6502 74.1449 56.6502 76.3472C56.6502 78.5127 55.3865 80.5339 52.6445 81.545V81.6174C55.4229 82.3758 57.4815 84.4686 57.4815 87.6089C57.4813 89.8112 56.47 91.545 54.9537 92.7726ZM3.92164 66.586V3.92255H49.347V23.9876C49.347 25.0701 50.2241 25.9483 51.3078 25.9483H68.6274L68.6292 66.586H3.92164Z" fill="#D62D30"/>
<path d="M48.5428 15.8081H18.4C16.9997 15.8081 15.8614 17.1112 15.8614 18.7139V51.6068H15.8696C15.8696 51.6145 15.8735 51.6181 15.8744 51.6258C14.4656 52.0719 13.4282 53.5483 13.4282 55.2994C13.4282 57.4048 14.9236 59.1169 16.7629 59.1169H39.8339C39.8334 59.1245 39.8333 59.1322 39.831 59.1407H44.3452C45.7463 59.1407 46.8843 57.8376 46.8843 56.2348V19.073C46.8957 17.7082 48.3456 17.7454 48.5099 17.7454H48.516C49.2331 17.7454 49.818 18.4122 49.818 19.2337C49.818 20.0542 49.2342 20.723 48.516 20.723C48.0494 20.723 47.6704 21.1553 47.6704 21.6904C47.6704 22.2257 48.0494 22.6592 48.516 22.6592C50.1673 22.6592 51.5094 21.1226 51.5094 19.2337C51.5096 17.3443 50.1673 15.8081 48.5428 15.8081ZM38.2362 57.1788H16.7629C15.8576 57.1788 15.1204 56.3353 15.1204 55.2984C15.1204 54.2625 15.8567 53.4199 16.7629 53.4199H38.2581C37.9364 53.9371 37.7124 54.5689 37.7124 55.3216C37.7124 56.0568 37.9271 56.6734 38.2362 57.1788ZM41.2587 37.4749H20.997V35.8409H41.2585V37.4749H41.2587ZM41.2587 41.779H20.997V40.1448H41.2585V41.779H41.2587ZM41.2587 33.3896H20.997V31.7553H41.2585V33.3896H41.2587ZM41.2587 28.7485H20.997V27.1143H41.2585V28.7485H41.2587ZM41.2587 24.6634H20.997V23.0291H41.2585V24.6634H41.2587Z" fill="#D62D30"/>
</svg>
