<svg width="74" height="100" viewBox="0 0 74 100" fill="none" xmlns="http://www.w3.org/2000/svg">
<path d="M55.6805 74.814C54.5527 74.814 53.8212 74.9136 53.3904 75.0131V89.6578C53.8203 89.7573 54.5173 89.7573 55.15 89.7573C59.7322 89.7909 62.7213 87.2662 62.7213 81.92C62.7556 77.2689 60.0311 74.814 55.6805 74.814Z" fill="#AEB1CF"/>
<path d="M73.0786 23.9636C73.0728 23.505 72.9274 23.0521 72.6124 22.694L53.3309 0.67066C53.3271 0.665031 53.3212 0.663034 53.3156 0.656862C53.2007 0.528503 53.0687 0.422657 52.9269 0.329339C52.8848 0.302105 52.8425 0.277596 52.7985 0.252723C52.674 0.186274 52.5456 0.131626 52.4117 0.0913215C52.3753 0.0802468 52.3428 0.0653594 52.3064 0.0559186C52.1591 0.0216049 52.0097 0 51.8565 0H4.47039C2.30845 0 0.548828 1.7598 0.548828 3.92174V96.0784C0.548828 98.2413 2.30845 100 4.47039 100H69.1762C71.3399 100 73.0979 98.2413 73.0979 96.0784V24.1833C73.0977 24.1096 73.0863 24.0374 73.0786 23.9636ZM18.8789 93.478H12.9664L5.79392 71.0937H11.3407L14.0637 80.5587C14.8271 83.2155 15.5241 85.7718 16.0546 88.5617H16.1546C16.7195 85.8724 17.4184 83.2155 18.1801 80.6583L21.037 71.0937H26.4177L18.8789 93.478ZM40.0037 89.6244C41.5319 89.6244 43.2245 89.2921 44.2221 88.894L44.9841 92.8462C44.0555 93.3114 41.9625 93.8094 39.2396 93.8094C31.5014 93.8094 27.517 88.9937 27.517 82.6173C27.517 74.9792 32.9633 70.7283 39.7374 70.7283C42.3607 70.7283 44.3541 71.2588 45.2501 71.7248L44.222 75.7431C43.1916 75.3123 41.7633 74.9131 39.971 74.9131C35.9513 74.9131 32.8311 77.3374 32.8311 82.3187C32.8313 86.8019 35.4872 89.6244 40.0037 89.6244ZM64.3813 90.8201C62.0242 92.7811 58.4369 93.7097 54.0547 93.7097C51.4295 93.7097 49.5702 93.543 48.3084 93.3775V71.3924C50.1677 71.0936 52.5919 70.9271 55.15 70.9271C59.4009 70.9271 62.1566 71.6901 64.3172 73.3178C66.642 75.044 68.1021 77.8012 68.1021 81.7535C68.1021 86.0389 66.5414 88.9935 64.3813 90.8201ZM4.47039 66.5852V3.92174H49.8957V23.9862C49.8957 25.0689 50.7728 25.9469 51.8565 25.9469H69.1762L69.1781 66.5852H4.47039Z" fill="#AEB1CF"/>
<path d="M47.008 28.9609C39.4732 28.9609 33.3635 35.0688 33.3635 42.6031C33.3635 50.1397 39.4732 56.2492 47.008 56.2492C54.5458 56.2492 60.653 50.1399 60.653 42.6031C60.653 35.0686 54.5449 28.9609 47.008 28.9609ZM51.1173 30.6267L48.1531 36.6766C47.5786 36.4531 47.008 36.5728 47.008 36.5728L45.2943 30.2207C45.2943 30.2198 47.567 29.1993 51.1173 30.6267ZM47.008 47.9727C44.0449 47.9727 41.6389 45.5697 41.6389 42.6031C41.6389 39.6385 44.0438 37.2354 47.008 37.2354C49.9741 37.2354 52.378 39.6376 52.378 42.6031C52.3771 45.5686 49.9741 47.9727 47.008 47.9727Z" fill="#AEB1CF"/>
<path d="M47.008 37.854C44.3904 37.854 42.2593 39.9853 42.2593 42.6047C42.2593 45.2233 44.3904 47.3551 47.008 47.3551C49.6275 47.3551 51.7587 45.2233 51.7587 42.6047C51.7587 39.9853 49.6275 37.854 47.008 37.854ZM47.008 46.8059C44.693 46.8059 42.8068 44.9217 42.8068 42.6047C42.8068 40.2859 44.693 38.4008 47.008 38.4008C49.3268 38.4008 51.211 40.2859 51.211 42.6047C51.211 44.9217 49.3268 46.8059 47.008 46.8059Z" fill="#AEB1CF"/>
<path d="M47.0081 40.3335C45.756 40.3335 44.74 41.3522 44.74 42.6029C44.74 43.8538 45.756 44.8734 47.0081 44.8734C48.2623 44.8734 49.281 43.8538 49.281 42.6029C49.281 41.3522 48.2623 40.3335 47.0081 40.3335ZM47.0081 44.3264C46.0584 44.3264 45.2868 43.5539 45.2868 42.6031C45.2868 41.6534 46.0584 40.8807 47.0081 40.8807C47.9597 40.8807 48.7334 41.6534 48.7334 42.6031C48.7334 43.5539 47.9597 44.3264 47.0081 44.3264Z" fill="#AEB1CF"/>
<path d="M33.1347 35.2194C31.892 35.5037 30.5211 35.6645 29.0734 35.6645C23.53 35.6645 19.0378 33.3481 19.0378 30.4872C19.0378 27.6275 23.53 25.3087 29.0734 25.3087C33.6705 25.3087 37.5374 26.906 38.7266 29.0823C40.7534 27.7744 43.0866 26.9071 45.5989 26.6217L44.9152 22.2577C44.898 22.1446 44.8003 22.0605 44.6854 22.0605H12.4556C12.3406 22.0605 12.2431 22.1448 12.2263 22.2577L9.77147 37.9185C9.75186 37.9516 9.74097 37.9917 9.74097 38.032V47.9565C9.74097 48.0848 9.84373 48.1892 9.97408 48.1892H32.345C32.1382 47.6329 31.9615 47.0643 31.8185 46.4821H11.4481V39.5064H31.6324C31.9288 37.9892 32.4439 36.5522 33.1347 35.2194Z" fill="#AEB1CF"/>
<path d="M14.4105 40.9004C14.2798 40.9004 14.177 41.0042 14.177 41.1324V44.0792C14.177 44.209 14.2798 44.312 14.4105 44.312H17.3575C17.4858 44.312 17.5886 44.209 17.5886 44.0792V41.1324C17.5886 41.0041 17.4856 40.9004 17.3575 40.9004H14.4105Z" fill="#AEB1CF"/>
<path d="M19.2725 40.9004C19.1438 40.9004 19.0388 41.0042 19.0388 41.1324V44.0792C19.0388 44.209 19.1436 44.312 19.2725 44.312H22.2155C22.3438 44.312 22.4466 44.209 22.4466 44.0792V41.1324C22.4466 41.0041 22.3438 40.9004 22.2155 40.9004H19.2725Z" fill="#AEB1CF"/>
<path d="M24.438 40.9004C24.3092 40.9004 24.2063 41.0042 24.2063 41.1324V44.0792C24.2063 44.209 24.3092 44.312 24.438 44.312H27.3849C27.5133 44.312 27.6181 44.209 27.6181 44.0792V41.1324C27.6181 41.0041 27.5133 40.9004 27.3849 40.9004H24.438Z" fill="#AEB1CF"/>
<path d="M20.8655 30.3652C20.8655 32.6827 24.5241 34.5629 29.0379 34.5629C30.9221 34.5629 32.6545 34.2317 34.0381 33.6816C34.9156 32.369 35.9784 31.1903 37.1937 30.1885C37.0109 27.9525 33.437 26.166 29.039 26.166C24.5241 26.1649 20.8655 28.0444 20.8655 30.3652Z" fill="#AEB1CF"/>
</svg>
