<svg width="74" height="100" viewBox="0 0 74 100" fill="none" xmlns="http://www.w3.org/2000/svg">
<path d="M73.4712 23.9651C73.4654 23.5059 73.32 23.0532 73.005 22.6955L53.7234 0.67066C53.7196 0.665031 53.7138 0.663034 53.7082 0.656862C53.5933 0.528503 53.4613 0.422657 53.3195 0.329339C53.2774 0.302105 53.2351 0.277596 53.1911 0.253268C53.0666 0.186274 52.9382 0.131626 52.8042 0.0913215C52.7679 0.0802468 52.7354 0.065904 52.6989 0.0559186C52.5517 0.0216049 52.4023 0 52.249 0H4.86297C2.70103 0 0.941406 1.7598 0.941406 3.92174V96.0784C0.941406 98.2413 2.70103 100 4.86297 100H69.5687C71.7325 100 73.4905 98.2413 73.4905 96.0784V24.1842C73.4903 24.1111 73.4789 24.0374 73.4712 23.9651ZM21.1079 93.1716H15.408L8.48969 71.5839H13.8383L16.465 80.7128C17.2023 83.2738 17.8747 85.7409 18.3865 88.4314H18.4837C19.028 85.8379 19.699 83.274 20.4363 80.8096L23.1914 71.5857H28.3794L21.1079 93.1716ZM41.482 89.4559C42.9564 89.4559 44.5897 89.1362 45.551 88.7513L46.2863 92.5626C45.3901 93.0118 43.372 93.4924 40.7467 93.4924C33.2832 93.4924 29.4401 88.8479 29.4401 82.6976C29.4401 75.3312 34.6919 71.2326 41.2262 71.2326C43.7567 71.2326 45.6781 71.7448 46.5426 72.1929L45.5508 76.0676C44.557 75.6511 43.1803 75.2682 41.4511 75.2682C37.5755 75.2682 34.5644 77.6062 34.5644 82.4105C34.5648 86.7339 37.1267 89.4559 41.482 89.4559ZM62.6887 75.5877H54.3937V80.5195H62.1439V84.4917H54.3937V93.1718H49.4938V71.5839H62.6889V75.5877H62.6887ZM4.86297 66.5863V3.92247H50.2883V23.9876C50.2883 25.0699 51.1654 25.9484 52.249 25.9484H69.5687L69.5707 66.5863H4.86297V66.5863Z" fill="#AEB1CF"/>
<path d="M30.0845 41.8467C28.7119 41.3637 28.7 40.8812 28.7 40.8812C28.5598 40.7468 28.4215 40.6352 28.2835 40.5293C28.9207 39.8496 29.3884 38.928 29.5071 38.0722C29.5943 38.0104 29.7344 37.8625 29.7862 37.5253C29.7862 37.5253 30.1146 36.3516 29.6803 36.4788C29.8292 36.028 30.3343 34.2682 29.363 33.1738C29.363 33.1738 28.9067 32.5515 27.8009 32.2223C27.8009 32.2223 26.1411 31.7005 24.8065 32.0379C23.4714 32.3763 23.4394 32.6517 23.0718 33.9202C23.0718 33.9202 22.796 34.5769 23.1607 36.5004C22.6442 36.2586 22.9961 37.5253 22.9961 37.5253C23.0487 37.8634 23.1909 38.0102 23.2751 38.0722C23.3813 38.9429 23.8147 39.8251 24.388 40.4837C24.1148 40.7083 23.9576 40.8955 23.9576 40.8955L20.995 42.4538C20.1851 42.7673 19.8427 43.235 19.8427 43.235C18.6431 45.0124 18.5017 48.9725 18.5017 48.9725C18.5175 49.8762 18.9086 49.9696 18.9086 49.9696C21.6664 51.2003 25.9906 51.4195 25.9906 51.4195C30.4349 51.5124 33.6691 50.1577 33.6691 50.1577C34.1368 49.8608 34.1517 49.6262 34.1517 49.6262C34.4772 46.7889 33.0761 43.595 33.0761 43.595C32.654 42.6577 30.0845 41.8467 30.0845 41.8467Z" fill="#AEB1CF"/>
<path d="M58.9032 27.1646H16.6239C15.8652 27.1646 15.2495 27.7802 15.2495 28.5404V54.8081C15.2495 55.5683 15.8652 56.1828 16.6239 56.1828H58.9032C59.6615 56.1828 60.2781 55.5681 60.2781 54.8081V28.5402C60.2781 27.7802 59.6634 27.1646 58.9032 27.1646ZM59.0276 54.8079C59.0276 54.8769 58.972 54.9332 58.903 54.9332H16.6239C16.5549 54.9332 16.4993 54.8767 16.4993 54.8079V28.5402C16.4993 28.4714 16.5549 28.4149 16.6239 28.4149H58.9032C58.9722 28.4149 59.0277 28.4714 59.0277 28.5402V54.8079H59.0276Z" fill="#AEB1CF"/>
<path d="M55.0256 38.0459H37.7634V39.5475H55.0256V38.0459Z" fill="#AEB1CF"/>
<path d="M55.0256 33.0439H37.7634V34.5443H55.0256V33.0439Z" fill="#AEB1CF"/>
<path d="M55.0256 43.0234H37.7634V44.5233H55.0256V43.0234Z" fill="#AEB1CF"/>
<path d="M50.7738 48.1782H37.7634V49.678H50.7738V48.1782Z" fill="#AEB1CF"/>
</svg>
