<svg width="73" height="100" viewBox="0 0 73 100" fill="none" xmlns="http://www.w3.org/2000/svg">
<path d="M72.628 23.9636C72.6222 23.505 72.4767 23.0521 72.1617 22.694L52.8802 0.67066C52.8764 0.665031 52.8706 0.66249 52.8649 0.656862C52.75 0.528503 52.618 0.422657 52.4762 0.329339C52.4341 0.302105 52.3918 0.277596 52.3479 0.252723C52.2233 0.186274 52.095 0.131082 51.961 0.0907769C51.9247 0.0802468 51.8922 0.0653594 51.8557 0.0559186C51.7084 0.0216049 51.559 0 51.4058 0H4.01971C1.85776 0 0.0981445 1.7598 0.0981445 3.92174V96.0784C0.0981445 98.2413 1.85776 100 4.01971 100H68.7255C70.8892 100 72.6472 98.2413 72.6472 96.0784V24.1833C72.647 24.1096 72.6356 24.0374 72.628 23.9636ZM18.1558 94.0381H12.4108L5.44036 72.2847H10.8291L13.4763 81.4837C14.2183 84.0657 14.8962 86.5512 15.4137 89.2627H15.5099C16.0584 86.648 16.7363 84.0657 17.4783 81.5805L20.2539 72.2849H25.4823L18.1558 94.0381ZM36.7765 94.3923C30.3218 94.3923 26.5462 89.518 26.5462 83.3226C26.5462 76.8036 30.7099 71.9294 37.1308 71.9294C43.8127 71.9294 47.4595 76.932 47.4595 82.9339C47.4595 90.0677 43.1338 94.3923 36.7765 94.3923ZM64.5606 92.2945C62.9791 93.5527 60.3328 94.2631 56.0073 94.2631C53.587 94.2631 51.7792 94.1022 50.6821 93.9423V72.5738C51.9737 72.3172 54.5875 72.1219 57.0412 72.1219C60.0416 72.1219 61.8818 72.4131 63.4635 73.3494C64.9802 74.1575 66.0781 75.6415 66.0781 77.6099C66.0781 79.5478 64.9493 81.3533 62.4964 82.2573V82.3205C64.98 82.9993 66.8199 84.8711 66.8199 87.6783C66.8201 89.6464 65.9165 91.1974 64.5606 92.2945ZM4.01971 66.5852V3.92174H49.445V23.9862C49.445 25.0684 50.3221 25.9469 51.4058 25.9469H68.7255L68.7275 66.5852H4.01971Z" fill="#0B7A6A"/>
<path d="M37.0026 75.8345C33.6775 75.8345 31.7412 78.9977 31.7412 83.2257C31.7412 87.4862 33.7421 90.4866 37.0342 90.4866C40.3592 90.4866 42.2626 87.3243 42.2626 83.0964C42.2626 79.1912 40.3919 75.8345 37.0026 75.8345Z" fill="#0B7A6A"/>
<path d="M61.1409 78.2225C61.1409 76.5776 59.8809 75.7065 57.6549 75.7065C56.5894 75.7065 55.9766 75.7708 55.5554 75.8349V80.9013H57.1696C59.7528 80.9012 61.1409 79.8367 61.1409 78.2225Z" fill="#0B7A6A"/>
<path d="M57.2348 84.4189H55.5554V90.5502C56.0418 90.6152 56.6221 90.6152 57.4606 90.6152C59.6876 90.6152 61.6569 89.7775 61.6569 87.4865C61.6569 85.2902 59.6874 84.4189 57.2348 84.4189Z" fill="#0B7A6A"/>
<path d="M32.7334 56.6112L32.8618 56.6419C32.9262 56.6419 32.9901 56.619 33.0432 56.5776L42.7356 50.3879C42.8046 50.3315 42.8465 50.2463 42.8465 50.1592C42.8465 50.072 42.8046 49.9878 42.7356 49.9299L33.0432 43.7425C32.9551 43.6726 32.8353 43.6601 32.7343 43.7098C32.6334 43.7568 32.5706 43.861 32.5706 43.9716V56.3507C32.5698 56.4609 32.6336 56.5646 32.7334 56.6112Z" fill="#0B7A6A"/>
<path d="M52.4657 33.7636C52.4657 33.7636 27.3572 33.7636 20.4403 33.7636L21.5108 33.003C29.4577 28.4126 47.0496 17.3776 47.0496 17.3776C47.7811 16.954 48.03 16.0187 47.6108 15.287L46.0808 11.5196C45.6556 10.7863 44.723 10.5392 43.9879 10.961L15.0511 28.5463C14.3207 28.9704 14.0745 29.9077 14.4944 30.639L17.2648 33.6419L17.2867 58.9122C17.2867 59.7597 17.9699 60.4412 18.8149 60.4412H52.4661C53.3096 60.4412 53.9951 59.7606 53.9951 58.9122V35.2948C53.9947 34.45 53.3094 33.7636 52.4657 33.7636ZM41.3704 34.8578L36.6493 39.4458H30.5315L35.1228 34.8578H41.3704ZM39.3789 15.1432L44.8074 11.6578L44.0145 16.7703L38.4586 20.3371L39.3789 15.1432ZM29.6998 21.0978L35.2235 17.6556L34.233 22.838L28.7165 26.2794L29.6998 21.0978ZM18.6922 32.553L19.6179 27.3556L25.0981 23.8538L24.1709 29.0421L18.6922 32.553ZM24.4135 34.8578H30.5304L25.942 39.4458H19.8256L24.4135 34.8578ZM51.3598 58.5791H19.8902V41.8349H51.3598V58.5791ZM47.4555 39.4449H41.2371L45.8279 34.8569H51.9007L47.4555 39.4449Z" fill="#0B7A6A"/>
</svg>
