<svg width="74" height="100" viewBox="0 0 74 100" fill="none" xmlns="http://www.w3.org/2000/svg">
<path d="M73.1773 23.9626C73.1715 23.5041 73.026 23.0521 72.7111 22.6931L53.4295 0.668844C53.4257 0.663579 53.4199 0.660674 53.4142 0.655954C53.2993 0.526687 53.1673 0.421931 53.0255 0.328612C52.9834 0.301379 52.9411 0.275962 52.8972 0.251997C52.7726 0.184459 52.6443 0.130537 52.5103 0.0902322C52.474 0.0797021 52.4415 0.0639069 52.405 0.0561001C52.2577 0.0206971 52.1083 0 51.9551 0H4.56902C2.40708 0 0.647461 1.75889 0.647461 3.92174V96.0784C0.647461 98.2402 2.40708 100 4.56902 100H69.2748C71.4385 100 73.1965 98.2404 73.1965 96.0784V24.1824C73.1963 24.1087 73.1849 24.0364 73.1773 23.9626ZM21.7987 91.6685L20.0806 82.935C19.6905 80.8853 19.3591 78.9886 19.1178 76.6678H19.0581C18.6966 78.9577 18.3649 80.8851 17.8827 82.935L15.9564 91.6685H10.9258L6.10624 71.3675H11.0164L12.5516 79.7411C13.0035 82.15 13.4252 84.7713 13.7565 86.8201H13.8183C14.1496 84.622 14.6302 82.1814 15.1438 79.6818L16.8595 71.3686H21.7409L23.3662 79.9249C23.8181 82.3039 24.1498 84.4726 24.4495 86.7311H24.5113C24.8125 84.4717 25.2642 82.0924 25.685 79.6818L27.3428 71.3695H32.0116L26.7703 91.6705H21.7988V91.6685H21.7987ZM44.8741 91.6685L43.3079 86.4583H37.4934L36.0474 91.6685H31.2885L37.4925 71.3675H43.5167L49.8126 91.6685H44.8741ZM60.9013 91.6685H55.5399L49.0334 71.3675H54.0655L56.5337 79.9517C57.2269 82.3606 57.8589 84.6814 58.3413 87.2117H58.4313C58.9444 84.7713 59.5764 82.3604 60.2695 80.0416L62.8612 71.3675H67.7412L60.9013 91.6685ZM4.56902 66.5843V3.92174H49.9943V23.9852C49.9943 25.0677 50.8714 25.946 51.9551 25.946H69.2748L69.2768 66.5845H4.56902V66.5843Z" fill="#0B7A6A"/>
<path d="M40.357 74.8027H40.2956C39.9941 76.0073 39.6943 77.5429 39.3632 78.7169L38.1567 83.0251H42.6451L41.3813 78.7169C41.0197 77.5122 40.6576 76.0072 40.357 74.8027Z" fill="#0B7A6A"/>
<path d="M28.1863 38.95C28.1863 37.8479 27.2945 36.9538 26.1916 36.9538H22.7315C21.6286 36.9538 20.7368 37.8479 20.7368 38.95V47.4667C20.7368 48.5696 21.6288 49.4628 22.7315 49.4628H26.1916C27.2945 49.4628 28.1863 48.5687 28.1863 47.4667V49.5912L47.7845 58.0863V28.1958L28.1863 36.8265V38.95V38.95Z" fill="#0B7A6A"/>
</svg>
