<svg width="73" height="100" viewBox="0 0 73 100" fill="none" xmlns="http://www.w3.org/2000/svg">
<path d="M72.7241 23.9636C72.7203 23.505 72.5738 23.0521 72.259 22.694L52.9783 0.67066C52.9727 0.664487 52.9671 0.66249 52.9631 0.656862C52.8481 0.528503 52.7142 0.422657 52.5726 0.329339C52.5304 0.302105 52.4883 0.277596 52.4442 0.252723C52.3216 0.186274 52.1915 0.131082 52.0575 0.0907769C52.021 0.0802468 51.9885 0.0653594 51.9522 0.0559186C51.8066 0.0206971 51.6553 0 51.5021 0H4.11785C1.95409 0 0.196289 1.7598 0.196289 3.92174V96.0784C0.196289 98.2413 1.95409 100 4.11785 100H68.8236C70.9856 100 72.7454 98.2413 72.7454 96.0784V24.1833C72.7452 24.1096 72.7337 24.0374 72.7241 23.9636ZM4.11785 3.92174H49.5411V23.9862C49.5411 25.0684 50.4202 25.9469 51.5021 25.9469H68.8236V66.5852H4.11785V3.92174ZM23.6759 91.0174H19.0933L17.5102 82.9617C17.1483 81.0737 16.8433 79.3247 16.6216 77.1865H16.5655C16.2324 79.2958 15.9265 81.0736 15.4822 82.9617L13.7048 91.0174H9.06755L4.62384 72.2972H9.14998L10.567 80.0187C10.9826 82.2399 11.3707 84.6563 11.6776 86.5443H11.7337C12.0405 84.5175 12.4828 82.2685 12.9553 79.963L14.5385 72.2971H19.0388L20.5378 80.185C20.9533 82.3795 21.2592 84.3786 21.5378 86.4619H21.5939C21.8709 84.3784 22.289 82.1841 22.6772 79.9628L24.2053 72.2969H28.5103L23.6759 91.0174ZM46.8146 91.0174L46.537 83.8521C46.4527 81.6021 46.3705 78.8793 46.3705 76.1584H46.2861C45.704 78.546 44.9266 81.2115 44.2047 83.4069L41.9261 90.711H38.6211L36.622 83.4623C36.0121 81.2689 35.3725 78.6017 34.9273 76.1584H34.8718C34.7607 78.6849 34.6764 81.5734 34.5383 83.9067L34.2051 91.0164H30.2894L31.4827 72.2962H37.122L38.9544 78.5452C39.5384 80.711 40.1205 83.0451 40.5381 85.2384H40.6203C41.1488 83.0728 41.7855 80.6008 42.3983 78.5184L44.3974 72.2962H49.9244L50.9527 91.0164H46.8148V91.0174H46.8146ZM65.2869 91.0174L63.8432 86.2132H58.4818L57.149 91.0174H52.7601L58.4818 72.2972H64.0366L69.8425 91.0174H65.2869Z" fill="#AEB1CF"/>
<path d="M61.1203 75.4634H61.0647C60.7871 76.5739 60.5094 77.991 60.2051 79.0758L59.0925 83.0471H63.2323L62.0662 79.0758C61.731 77.9643 61.3999 76.5741 61.1203 75.4634Z" fill="#AEB1CF"/>
<path d="M21.3708 24.8037H13.0273V27.2576H21.3708V24.8037Z" fill="#AEB1CF"/>
<path d="M21.3708 28.7305H13.0273V31.1843H21.3708V28.7305Z" fill="#AEB1CF"/>
<path d="M21.3708 32.5342H13.0273V34.9881H21.3708V32.5342Z" fill="#AEB1CF"/>
<path d="M21.3708 36.4604H13.0273V38.9134H21.3708V36.4604Z" fill="#AEB1CF"/>
<path d="M21.3708 40.1904H13.0273V42.6443H21.3708V40.1904Z" fill="#AEB1CF"/>
<path d="M21.3708 44.1167H13.0273V46.5706H21.3708V44.1167Z" fill="#AEB1CF"/>
<path d="M21.3708 47.9194H13.0273V50.3733H21.3708V47.9194Z" fill="#AEB1CF"/>
<path d="M21.3708 51.8447H13.0273V54.2986H21.3708V51.8447Z" fill="#AEB1CF"/>
<path d="M33.5188 32.5342H25.1738V34.9881H33.5188V32.5342Z" fill="#AEB1CF"/>
<path d="M33.5188 36.4604H25.1738V38.9134H33.5188V36.4604Z" fill="#AEB1CF"/>
<path d="M33.5188 40.1904H25.1738V42.6443H33.5188V40.1904Z" fill="#AEB1CF"/>
<path d="M33.5188 44.1167H25.1738V46.5706H33.5188V44.1167Z" fill="#AEB1CF"/>
<path d="M33.5188 47.9194H25.1738V50.3733H33.5188V47.9194Z" fill="#AEB1CF"/>
<path d="M33.5188 51.8447H25.1738V54.2986H33.5188V51.8447Z" fill="#AEB1CF"/>
<path d="M46.3991 24.8037H38.0562V27.2576H46.3991V24.8037Z" fill="#AEB1CF"/>
<path d="M46.3991 28.7305H38.0562V31.1843H46.3991V28.7305Z" fill="#AEB1CF"/>
<path d="M46.3991 32.5342H38.0562V34.9881H46.3991V32.5342Z" fill="#AEB1CF"/>
<path d="M46.3991 36.4604H38.0562V38.9134H46.3991V36.4604Z" fill="#AEB1CF"/>
<path d="M46.3991 40.1904H38.0562V42.6443H46.3991V40.1904Z" fill="#AEB1CF"/>
<path d="M46.3991 44.1167H38.0562V46.5706H46.3991V44.1167Z" fill="#AEB1CF"/>
<path d="M46.3991 47.9194H38.0562V50.3733H46.3991V47.9194Z" fill="#AEB1CF"/>
<path d="M46.3991 51.8447H38.0562V54.2986H46.3991V51.8447Z" fill="#AEB1CF"/>
<path d="M58.8227 44.1167H50.4797V46.5706H58.8227V44.1167Z" fill="#AEB1CF"/>
<path d="M58.8227 47.9194H50.4797V50.3733H58.8227V47.9194Z" fill="#AEB1CF"/>
<path d="M58.8227 51.8447H50.4797V54.2986H58.8227V51.8447Z" fill="#AEB1CF"/>
</svg>
