<svg width="74" height="100" viewBox="0 0 74 100" fill="none" xmlns="http://www.w3.org/2000/svg">
<path d="M73.2754 23.9627C73.2697 23.5041 73.1218 23.0521 72.8072 22.6931L53.5275 0.668721C53.5217 0.663472 53.5161 0.660672 53.5121 0.655773C53.3977 0.526473 53.2635 0.421669 53.1216 0.328412C53.0798 0.301117 53.0374 0.275747 52.9933 0.251776C52.8709 0.184239 52.7424 0.130175 52.6068 0.0899326C52.5701 0.0792597 52.5376 0.0636877 52.5015 0.0559892C52.3558 0.020471 52.2041 0 52.0512 0H4.66663C2.50493 0 0.745117 1.75859 0.745117 3.92134V96.0783C0.745117 98.24 2.50493 99.9998 4.66663 99.9998H69.3728C71.5343 99.9998 73.2941 98.24 73.2941 96.0783V24.1823C73.2941 24.1086 73.2828 24.0362 73.2754 23.9627ZM24.3227 90.9752H20.0332L18.553 83.4405C18.2139 81.6712 17.9303 80.0339 17.7217 78.034H17.6699C17.3578 80.0092 17.0709 81.6712 16.6571 83.4405L14.9937 90.9752H10.6521L6.49748 73.4622H10.7308L12.0563 80.6848C12.4463 82.7623 12.8111 85.0259 13.0963 86.7913H13.1499C13.4333 84.8959 13.8511 82.7893 14.2912 80.6342L15.7738 73.4622H19.9847L21.3885 80.8431C21.7768 82.8965 22.063 84.7664 22.3225 86.7157H22.3746C22.6357 84.7662 23.0237 82.7139 23.3896 80.6342L24.818 73.4622H28.8443L24.3227 90.9752ZM45.9714 90.9752L45.7111 84.2705C45.6327 82.1674 45.5559 79.6185 45.5559 77.0716H45.4775C44.9318 79.3062 44.2044 81.8032 43.528 83.8559L41.3968 90.6907H38.3044L36.4342 83.9066C35.8636 81.853 35.2668 79.3598 34.8513 77.0716H34.797C34.6942 79.4366 34.6147 82.1407 34.4873 84.3225L34.1757 90.9742H30.5105L31.6275 73.4622H36.9026L38.6164 79.3081C39.1621 81.3341 39.7078 83.5171 40.0985 85.5707H40.1751C40.6694 83.5448 41.2683 81.2305 41.8393 79.2823L43.7098 73.4622H48.8822L49.8431 90.9752H45.9714V90.9752ZM61.6444 90.9752H57.0183L51.4048 73.4622H55.747L57.876 80.8669C58.4724 82.9445 59.019 84.9473 59.4345 87.1312H59.5149C59.9558 85.0259 60.5015 82.9445 61.0987 80.9455L63.3323 73.4622H67.5414L61.6444 90.9752ZM4.66663 66.5843V3.92134H50.0905V23.9851C50.0905 25.0676 50.9695 25.9459 52.0512 25.9459H69.3728V66.5844H4.66663V66.5843Z" fill="#AEB1CF"/>
<path d="M36.0373 21.6001C25.82 21.6001 17.5081 29.9124 17.5081 40.1304C17.5081 50.3483 25.8207 58.6606 36.0373 58.6606C46.2568 58.6606 54.5691 50.3483 54.5691 40.1304C54.5691 29.9122 46.2568 21.6001 36.0373 21.6001ZM36.0373 55.2851C27.6836 55.2851 20.8833 48.4861 20.8833 40.1304C20.8833 31.7746 27.6836 24.9764 36.0373 24.9764C44.3941 24.9764 51.1933 31.7746 51.1933 40.1304C51.1933 48.4861 44.3941 55.2851 36.0373 55.2851Z" fill="#AEB1CF"/>
<path d="M30.4992 29.0984C30.3218 29.1798 30.21 29.364 30.21 29.5579V51.3126C30.21 51.507 30.3218 51.689 30.4992 51.7712L30.7238 51.823C30.8383 51.823 30.9485 51.7828 31.0411 51.7119L48.0744 40.8353C48.1968 40.7352 48.2696 40.5853 48.2696 40.4308C48.2696 40.2777 48.1968 40.1297 48.0744 40.0268L31.0411 29.1539C30.8867 29.0314 30.6764 29.0088 30.4992 29.0984Z" fill="#AEB1CF"/>
</svg>
