<svg width="73" height="100" viewBox="0 0 73 100" fill="none" xmlns="http://www.w3.org/2000/svg">
<path d="M56.5126 76.3184C55.5179 76.3184 54.8747 76.4073 54.4934 76.4956V89.3937C54.8747 89.4817 55.4874 89.4817 56.0426 89.4817C60.0809 89.5104 62.7127 87.2884 62.7127 82.5789C62.7425 78.483 60.3432 76.3184 56.5126 76.3184Z" fill="#AEB1CF"/>
<path d="M72.8243 23.9636C72.8184 23.505 72.673 23.0521 72.3571 22.694L53.0765 0.67066C53.0727 0.664487 53.0668 0.66249 53.0612 0.656862C52.9463 0.528503 52.8143 0.422657 52.6725 0.329339C52.6304 0.302105 52.5881 0.277596 52.5442 0.252723C52.4196 0.186274 52.2912 0.131082 52.1573 0.0907769C52.1209 0.0802468 52.0885 0.0653594 52.052 0.0559186C51.9047 0.0206971 51.7553 0 51.6021 0H4.21599C2.05405 0 0.294434 1.7598 0.294434 3.92174V96.0784C0.294434 98.2413 2.05405 100 4.21599 100H68.9218C71.0855 100 72.8435 98.2413 72.8435 96.0784V24.1833C72.8433 24.1096 72.8319 24.0374 72.8243 23.9636ZM25.617 92.756H20.7902L19.1237 84.2744C18.7432 82.2858 18.422 80.4428 18.1875 78.1899H18.1295C17.7786 80.4149 17.4562 82.2858 16.9883 84.2744L15.117 92.756H10.2329L5.55314 73.0429H10.3211L11.8122 81.1741C12.2503 83.5151 12.6599 86.0579 12.9816 88.0474H13.0404C13.3621 85.9123 13.8307 83.5427 14.3267 81.1177L15.9956 73.0447H20.7328L22.3131 81.3532C22.7503 83.6616 23.0718 85.7687 23.3652 87.9632H23.4226C23.716 85.7687 24.155 83.4575 24.5649 81.1197L26.1729 73.0467H30.7063L25.617 92.756ZM45.3657 83.7201C43.8434 85.1523 41.5916 85.7958 38.9607 85.7958C38.3746 85.7958 37.8481 85.7671 37.4383 85.7077V92.7562H33.0228V73.3054C34.3966 73.0718 36.3267 72.8957 39.0469 72.8957C41.7984 72.8957 43.7582 73.4222 45.0727 74.4743C46.3308 75.469 47.1772 77.1082 47.1772 79.0363C47.1771 80.9694 46.5345 82.6075 45.3657 83.7201ZM64.1749 90.418C62.0982 92.1433 58.9398 92.961 55.0785 92.961C52.7682 92.961 51.1311 92.8174 50.0186 92.6698V73.3072C51.6576 73.0429 53.7927 72.8973 56.0443 72.8973C59.7878 72.8973 62.2168 73.5714 64.1173 75.0028C66.1641 76.5242 67.4501 78.9512 67.4501 82.4314C67.4512 86.2054 66.0764 88.8078 64.1749 90.418ZM4.21599 66.5852V3.92174H49.6413V23.9862C49.6413 25.0684 50.5184 25.9469 51.6021 25.9469H68.9218L68.9238 66.5852H4.21599Z" fill="#AEB1CF"/>
<path d="M39.2821 76.2598C38.3745 76.2598 37.7598 76.3478 37.4382 76.4361V82.257C37.8193 82.346 38.2865 82.374 38.9299 82.374C41.2995 82.374 42.7614 81.1742 42.7614 79.1579C42.7614 77.3436 41.5032 76.2598 39.2821 76.2598Z" fill="#AEB1CF"/>
<path d="M45.199 19.5547H42.9203V16.2597L37.2811 10.6187H13.8906V50.4183H21.8078V59.3548H50.8379V25.1962L45.199 19.5547ZM45.6202 22.0128L48.8602 25.2537H45.6202V22.0128ZM42.9203 46.6422C42.9327 46.8107 42.9327 46.9801 42.9203 47.1487V46.6422ZM37.7034 13.0763L40.9423 16.3176H37.7034V13.0763ZM15.3305 48.9793V12.0576H36.2639V17.7566H41.4821V48.9802L15.3305 48.9793ZM49.3982 57.9158H23.2474V50.4183H42.9202V48.1195H47.4946V46.1587H42.9202V41.7479H47.4946V39.7871H42.9202V34.9872H47.4946V33.0264H42.9202V20.9941H44.1801V26.6931H49.396L49.3982 57.9158Z" fill="#AEB1CF"/>
<path d="M40.4615 20.3433H27.7974V22.304H40.4615V20.3433Z" fill="#AEB1CF"/>
<path d="M40.4615 25.3262H27.7974V27.287H40.4615V25.3262Z" fill="#AEB1CF"/>
<path d="M40.4616 30.147H17.6287V32.1078H40.4616V30.147Z" fill="#AEB1CF"/>
<path d="M27.4709 34.8848H17.6287V36.8455H27.4709V34.8848Z" fill="#AEB1CF"/>
<path d="M27.4709 39.7871H17.6287V41.7479H27.4709V39.7871Z" fill="#AEB1CF"/>
<path d="M40.1954 44.792H17.6287V46.7528H40.1954V44.792Z" fill="#AEB1CF"/>
<path d="M47.4947 52.5122H24.9287V54.473H47.4947V52.5122Z" fill="#AEB1CF"/>
<path d="M35.4551 41.3362L35.0582 40.0695C31.7494 31.1537 29.5315 41.0911 29.5315 41.0911L29.3865 41.7038H39.1731H39.7045C36.927 36.2714 35.4551 41.3362 35.4551 41.3362Z" fill="#AEB1CF"/>
<path d="M16.9817 20.2387H19.5216V20.4858C19.2847 20.4998 19.1295 20.5408 19.0572 20.6093C18.9844 20.6777 18.9479 20.7759 18.9479 20.9012C18.9412 20.974 18.949 21.049 18.9724 21.1276C18.9964 21.2071 19.0274 21.2966 19.0668 21.3948L20.3622 24.8836L21.6667 22.0464L21.3206 21.1474C21.282 21.0359 21.2375 20.9395 21.1876 20.8602C21.1373 20.7821 21.0788 20.716 21.0091 20.6634C20.9396 20.6103 20.8526 20.5689 20.7473 20.5399C20.6414 20.5101 20.5131 20.4916 20.3624 20.4849V20.238H23.2486V20.4849C22.978 20.4987 22.776 20.5417 22.6405 20.6132C22.5049 20.6859 22.4376 20.8142 22.4376 20.9994C22.4376 21.0918 22.4572 21.181 22.4975 21.2661L23.8709 24.7554L25.1456 21.3948C25.2375 21.1506 25.2834 20.96 25.2834 20.8208C25.2834 20.7356 25.2413 20.6614 25.1551 20.5982C25.0699 20.5354 24.9014 20.4976 24.6514 20.4847V20.2378H26.559V20.4847C26.1709 20.5446 25.8864 20.8041 25.7088 21.2659L23.6823 26.4943H23.4158L21.904 22.6201L20.1342 26.4943H19.8873L17.9414 21.3948C17.8817 21.2296 17.8226 21.0965 17.7629 20.9945C17.703 20.8925 17.6376 20.8082 17.5652 20.7427C17.4924 20.6768 17.4082 20.625 17.3128 20.5886C17.2172 20.5532 17.107 20.5192 16.9817 20.4856V20.2387Z" fill="#AEB1CF"/>
</svg>
