<svg width="74" height="100" viewBox="0 0 74 100" fill="none" xmlns="http://www.w3.org/2000/svg">
<path d="M42.7078 75.6943C41.714 75.6943 41.0419 75.791 40.6897 75.8868V82.2604C41.105 82.357 41.6171 82.3888 42.3228 82.3888C44.9165 82.3888 46.5184 81.076 46.5184 78.8644C46.5191 76.8798 45.1412 75.6943 42.7078 75.6943Z" fill="#AEB1CF"/>
<path d="M73.3735 23.9636C73.3678 23.505 73.2223 23.0522 72.9073 22.6942L53.6261 0.670629C53.6223 0.664428 53.6164 0.662604 53.6108 0.65695C53.4959 0.528551 53.3638 0.422768 53.222 0.329387C53.18 0.302212 53.1377 0.277772 53.0937 0.252968C52.9692 0.186397 52.8408 0.131317 52.7069 0.0910101C52.6704 0.0804317 52.6381 0.0656586 52.6017 0.0561745C52.4543 0.0206095 52.3047 0 52.1517 0H4.76539C2.60358 0 0.84375 1.75983 0.84375 3.92164V96.0785C0.84375 98.2413 2.60358 100 4.76539 100H69.471C71.6346 100 73.3928 98.2413 73.3928 96.0785V24.1833C73.393 24.1096 73.3811 24.0374 73.3735 23.9636ZM27.7448 93.7588H22.4593L20.634 84.4706C20.2174 82.2915 19.8652 80.2742 19.6086 77.8081H19.5459C19.1605 80.243 18.8087 82.2915 18.2963 84.4706L16.2467 93.7588H10.8986L5.77307 72.1719H10.9938L12.6273 81.0757C13.1073 83.6381 13.5554 86.424 13.9087 88.6022H13.9724C14.3242 86.264 14.8369 83.6694 15.3813 81.0117L17.2075 72.1719H22.3958L24.1263 81.2671C24.6054 83.7967 24.9587 86.1041 25.2789 88.5054H25.3417C25.6625 86.1043 26.1431 83.5737 26.5921 81.0108L28.3529 72.1708H33.3165L27.7448 93.7588ZM49.3694 83.8617C47.7032 85.432 45.2371 86.1345 42.3553 86.1345C41.7158 86.1345 41.1375 86.1041 40.6896 86.039V93.7577H35.8534V72.4601C37.3585 72.2023 39.4714 72.011 42.451 72.011C45.4609 72.011 47.6074 72.587 49.0484 73.7408C50.4253 74.8296 51.3549 76.6237 51.3549 78.7376C51.3551 80.8507 50.6501 82.6448 49.3694 83.8617ZM59.7497 94.0794C57.2835 94.0794 54.8496 93.4376 53.6336 92.7661L54.6254 88.7303C55.9402 89.4033 57.9574 90.0753 60.0388 90.0753C62.281 90.0753 63.4654 89.1468 63.4654 87.7375C63.4654 86.3924 62.44 85.6237 59.8473 84.6948C56.2588 83.4453 53.9207 81.4589 53.9207 78.3205C53.9207 74.6363 56.996 71.8186 62.0895 71.8186C64.5222 71.8186 66.3163 72.3311 67.5964 72.9074L66.5089 76.8473C65.6433 76.4306 64.1056 75.8218 61.9927 75.8218C59.8788 75.8218 58.8544 76.7829 58.8544 77.9041C58.8544 79.2809 60.0712 79.889 62.8581 80.9477C66.6694 82.3574 68.4639 84.3428 68.4639 87.3844C68.462 91.004 65.6759 94.0794 59.7497 94.0794ZM4.76539 66.5853V3.92164H50.1907V23.986C50.1907 25.0684 51.068 25.9468 52.1517 25.9468H69.4712L69.4732 66.5851H4.76539V66.5853Z" fill="#AEB1CF"/>
<path d="M41.3004 36.5923C41.8904 36.2295 42.4915 35.9011 43.0496 35.5206C43.6041 35.137 44.1516 34.7599 44.6896 34.3885C45.2049 34.0274 45.8023 33.6274 46.2196 33.3205C46.5492 33.0706 47.0334 32.8087 47.4775 32.6099C48.3988 32.2154 49.3521 31.9355 50.2677 31.8009C51.1847 31.6363 52.0561 31.6438 52.8468 31.6491C53.631 31.6931 54.3369 31.7578 54.9092 31.8656C55.5001 31.9291 55.9415 32.0724 56.2632 32.1235C56.5809 32.1881 56.7515 32.2236 56.7515 32.2236C56.7515 32.2236 56.6117 32.1215 56.3524 31.9291C56.0872 31.7429 55.7088 31.437 55.1678 31.149C54.6365 30.8364 53.9597 30.5052 53.1353 30.205C52.308 29.9137 51.3304 29.6644 50.2182 29.5557C49.1114 29.4755 47.8675 29.4911 46.5742 29.8019C45.9176 29.9655 45.2895 30.1499 44.5568 30.5008C44.0064 30.7704 43.4452 31.0469 42.8736 31.3276C42.3215 31.598 41.7587 31.8733 41.1898 32.151C40.6211 32.4257 40.0189 32.6422 39.428 32.893C38.8365 33.1343 38.241 33.3774 37.6419 33.6214L35.814 34.2452C34.6092 34.7068 33.3526 34.9461 32.1572 35.2941C30.9392 35.5253 29.7565 35.8359 28.5985 35.9384C27.4453 36.1194 26.3348 36.1442 25.2926 36.1987C24.2514 36.1781 23.2787 36.1595 22.3994 36.0705C21.9533 36.0519 21.5435 35.9704 21.1505 35.9173C20.7536 35.8695 20.3888 35.7973 20.0523 35.7167C19.3691 35.5832 18.8072 35.4017 18.3644 35.2594C17.9221 35.1206 14.6439 34.245 14.483 34.1762C14.324 34.0991 14.2388 34.0581 14.2388 34.0581L14.1719 40.9586C14.1719 40.9586 14.3964 41.054 14.8162 41.2314C15.2447 41.3925 15.7818 41.5787 16.4769 41.7609C17.1701 41.9362 18.0025 42.1166 18.9465 42.2305C19.4191 42.3019 19.9212 42.3599 20.4448 42.3843C20.9701 42.4158 21.524 42.4706 22.0927 42.4552C22.6613 42.4423 23.2592 42.4768 23.8662 42.4217C24.4702 42.3675 25.0945 42.313 25.7371 42.255C27.0008 42.0578 28.3332 41.8669 29.6585 41.5107C31.0086 41.2305 32.3268 40.7385 33.6821 40.312C34.9847 39.7569 36.3448 39.2794 37.5963 38.6069C38.2308 38.2905 38.8657 37.9737 39.4966 37.6582C40.1114 37.3165 40.704 36.9432 41.3004 36.5923Z" fill="#AEB1CF"/>
<path d="M58.0684 33.5755C57.3925 33.1097 54.8045 35.5373 54.3385 36.2126L38.6484 58.1092C38.4414 58.4082 38.4836 58.7498 38.6484 59.0782C38.5928 59.1298 38.5314 59.1682 38.4854 59.2313C38.1657 59.69 38.2808 60.3225 38.7384 60.6446L39.5099 61.1855C39.9696 61.5043 40.6034 61.3931 40.9241 60.9336C40.9558 60.8895 40.9644 60.835 40.9883 60.7872C41.3187 60.8417 41.618 60.7852 41.8145 60.5025L56.7853 37.9028C57.251 37.2296 58.7443 34.0423 58.0684 33.5755Z" fill="#AEB1CF"/>
</svg>
