<svg width="73" height="100" viewBox="0 0 73 100" fill="none" xmlns="http://www.w3.org/2000/svg">
<path d="M72.9224 23.9651C72.9168 23.5059 72.7721 23.0532 72.4573 22.6951L53.1748 0.67066C53.171 0.665031 53.1652 0.663034 53.1594 0.656862C53.0444 0.528503 52.9125 0.422657 52.7707 0.329339C52.7285 0.302105 52.6864 0.277596 52.6423 0.252723C52.5178 0.186274 52.3896 0.131626 52.2556 0.0913215C52.2193 0.0802468 52.1866 0.0653594 52.1503 0.0559186C52.0029 0.0216049 51.8536 0 51.7004 0H4.31414C2.15238 0 0.392578 1.7598 0.392578 3.92174V96.0784C0.392578 98.2413 2.1522 100 4.31414 100H69.0199C71.1837 100 72.9415 98.2413 72.9415 96.0784V24.1842C72.9415 24.1111 72.93 24.0374 72.9224 23.9651ZM28.7698 93.3391H23.6701L21.9071 84.3749C21.5055 82.2715 21.166 80.325 20.9181 77.9439H20.8564C20.4859 80.2925 20.1464 82.2715 19.6514 84.3749L17.672 93.3391H12.5091L7.56413 72.5039H12.6035L14.1789 81.0986C14.6427 83.5716 15.0759 86.2611 15.4149 88.3626H15.4775C15.817 86.1048 16.3119 83.6031 16.8366 81.0363L18.5992 72.5039H23.607L25.2767 81.2833C25.7406 83.7237 26.0801 85.9515 26.3907 88.2694H26.4515C26.7613 85.9514 27.2251 83.5091 27.6583 81.0362L29.3562 72.5037H34.1476L28.7698 93.3391ZM41.4426 93.6483C39.0626 93.6483 36.713 93.03 35.5398 92.3807L36.4976 88.4851C37.7652 89.1342 39.7137 89.7832 41.7222 89.7832C43.886 89.7832 45.0292 88.8871 45.0292 87.5265C45.0292 86.2284 44.0412 85.4864 41.5365 84.5903C38.0746 83.3847 35.817 81.4681 35.817 78.4389C35.817 74.8829 38.785 72.164 43.7013 72.164C46.0499 72.164 47.7808 72.6591 49.0178 73.2152L47.9666 77.018C47.1316 76.6159 45.6478 76.0271 43.6075 76.0271C41.5672 76.0271 40.579 76.9548 40.579 78.0367C40.579 79.3655 41.7529 79.9534 44.4412 80.9741C48.1196 82.3335 49.8506 84.2504 49.8506 87.1877C49.8507 90.6814 47.1623 93.6483 41.4426 93.6483ZM65.7705 76.3671H57.7628V81.1275H65.244V84.9608H57.7628V93.3382H53.0332V72.504H65.7705V76.3671ZM4.31414 66.5863V3.92247H49.7396V23.9876C49.7396 25.0699 50.6165 25.9484 51.7004 25.9484H69.0199L69.0219 66.5863H4.31414V66.5863Z" fill="#AEB1CF"/>
<path d="M36.733 57.218C36.7215 57.2056 36.7114 57.1913 36.6994 57.1788H18.2644C17.3597 57.1788 16.6219 56.3353 16.6219 55.2986C16.6219 54.2627 17.3586 53.4201 18.2644 53.4201H35.5418C34.7161 52.9395 34.2163 52.0853 34.2163 51.1403V48.8651C34.2163 47.7913 34.8582 46.8344 35.8515 46.4255C36.0249 46.358 36.1369 46.2489 36.1896 46.1205C36.2419 45.9932 36.2408 45.8333 36.1849 45.7049C35.7526 44.7609 35.9576 43.5824 36.7105 42.8077L37.7406 41.7785H22.4986V40.1441H42.0605C42.5029 39.2462 43.421 38.6568 44.4245 38.6568H46.6992C47.3359 38.6568 47.9247 38.885 48.3882 39.2743V19.073C48.3996 17.7081 49.8491 17.7455 50.0138 17.7455H50.0205C50.7375 17.7455 51.3215 18.4123 51.3215 19.2337C51.3215 20.0543 50.7375 20.7229 50.0205 20.7229C49.5543 20.7229 49.1741 21.1552 49.1741 21.6903C49.1741 22.2255 49.5543 22.6592 50.0205 22.6592C51.671 22.6592 53.0133 21.1225 53.0133 19.2337C53.0133 17.3442 51.6708 15.8081 50.0463 15.8081H19.9017C18.5015 15.8081 17.3635 17.1111 17.3635 18.7139V51.6067H17.3712C17.3712 51.6143 17.375 51.6181 17.3759 51.6258C15.967 52.072 14.9302 53.5482 14.9302 55.2993C14.9302 57.4048 16.4251 59.1165 18.2644 59.1165H38.6914C38.5727 59.0323 38.4586 58.9431 38.3524 58.8389L36.733 57.218ZM22.4986 23.0289H42.7604V24.663H22.4986V23.0289ZM22.4986 27.1142H42.7604V28.7485H22.4986V27.1142ZM22.4986 31.7552H42.7604V33.3896H22.4986V31.7552ZM22.4986 35.8406H42.7604V37.4747H22.4986V35.8406Z" fill="#AEB1CF"/>
<path d="M49.7767 52.3459C49.9097 52.2924 50.017 52.1889 50.0686 52.0644C50.1203 51.9398 50.1183 51.7926 50.0648 51.6689C49.901 51.2946 49.9853 50.8543 50.2707 50.568L51.0317 49.8055C51.2249 49.6159 51.4722 49.5121 51.7307 49.5121H51.9095L52.1136 49.5907C52.2725 49.6606 52.4065 49.6544 52.527 49.6045C52.6554 49.5504 52.7598 49.4456 52.8077 49.3193C52.9522 48.9563 53.2815 48.7261 53.6635 48.6983V47.9888C53.6635 47.9151 53.6156 47.8456 53.5459 47.816C52.7933 47.522 52.1855 46.9278 51.8761 46.1825C51.568 45.4358 51.5757 44.5827 51.9012 43.8447C51.9299 43.778 51.9144 43.6958 51.8629 43.6417L50.2525 42.0328C50.1645 41.9438 50.0993 41.9719 50.0495 41.9925C49.3162 42.3171 48.4582 42.3276 47.7135 42.017C46.9678 41.7101 46.3711 41.0992 46.0782 40.3478C46.0515 40.2799 45.9834 40.2319 45.9068 40.2319H43.633C43.5564 40.2319 43.4876 40.2799 43.4608 40.3478C43.1679 41.1003 42.5722 41.7101 41.8266 42.017C41.0846 42.3267 40.2276 42.3191 39.4885 41.9925C39.4426 41.9738 39.3756 41.9436 39.2856 42.0328L37.6763 43.6417C37.624 43.6958 37.6082 43.778 37.6383 43.8456C37.9615 44.5847 37.9711 45.4358 37.6628 46.1827C37.354 46.928 36.7456 47.5221 35.9927 47.8162C35.9228 47.8449 35.8767 47.9113 35.8767 47.989V50.2648C35.8767 50.3396 35.9226 50.4066 35.9927 50.4353C36.7465 50.729 37.3531 51.3238 37.6628 52.0685C37.9711 52.8153 37.9617 53.6675 37.6374 54.4075C37.6082 54.4736 37.624 54.5558 37.6763 54.6096L39.2856 56.2198C39.3756 56.3098 39.4397 56.28 39.4894 56.2562C39.8667 56.0916 40.2698 56.0053 40.6863 56.0053C41.0799 56.0053 41.4637 56.082 41.8255 56.2332C42.5722 56.5415 43.1679 57.1504 43.4608 57.9029C43.4876 57.9699 43.5564 58.0179 43.633 58.0179H45.9068C45.9845 58.0179 46.0495 57.9718 46.0782 57.9029C46.3711 57.1495 46.9667 56.5415 47.7135 56.2332C48.4391 55.9325 49.2645 55.9364 49.9865 56.2312C49.9962 56.1355 50.0208 56.0406 50.0611 55.9478C50.1185 55.8194 50.1194 55.6702 50.0679 55.5446C50.0172 55.4211 49.9099 55.3178 49.7835 55.2681C49.3967 55.113 49.1536 54.753 49.1536 54.345V53.267C49.1516 52.8583 49.3967 52.4963 49.7767 52.3459ZM44.7685 53.5495C42.3289 53.5495 40.3453 51.5665 40.3453 49.1237C40.3453 46.6867 42.3291 44.6985 44.7685 44.6985C47.2098 44.6985 49.1955 46.6856 49.1955 49.1237C49.1955 51.5665 47.21 53.5495 44.7685 53.5495Z" fill="#AEB1CF"/>
<path d="M58.5423 53.1836C58.1843 53.0448 57.8971 52.7615 57.7506 52.41C57.6061 52.0567 57.6081 51.6526 57.7631 51.3031C57.7764 51.2706 57.7687 51.2312 57.7448 51.2045L56.9837 50.4435C56.9407 50.4022 56.9091 50.4159 56.8851 50.4253C56.5376 50.5774 56.1317 50.5842 55.7793 50.4366C55.4251 50.2911 55.1426 50.0019 55.0039 49.6453C54.9904 49.6128 54.9597 49.5903 54.9234 49.5903H53.8454C53.8091 49.5903 53.7764 49.6118 53.7649 49.6453C53.626 50.001 53.3428 50.2902 52.9913 50.4366C52.6391 50.584 52.233 50.5793 51.8828 50.4253C51.8617 50.4157 51.829 50.4022 51.7871 50.4435L51.0249 51.2045C51.0001 51.2305 50.9924 51.2695 51.0059 51.3031C51.162 51.6526 51.1638 52.0566 51.0173 52.41C50.8717 52.7615 50.5827 53.0448 50.2274 53.1836C50.1938 53.198 50.1709 53.2287 50.1709 53.2659V54.3449C50.1709 54.3794 50.1938 54.4109 50.2274 54.4253C50.5827 54.5651 50.8717 54.8465 51.0173 55.1989C51.1638 55.5511 51.1609 55.9561 51.0059 56.3075C50.9926 56.3381 51.0002 56.3764 51.0249 56.4031L51.7871 57.1653C51.829 57.2072 51.8608 57.1929 51.8828 57.1835C52.0627 57.1048 52.2522 57.0638 52.4496 57.0638C52.6362 57.0638 52.817 57.1001 52.9895 57.1711C53.3428 57.3176 53.6262 57.6059 53.7649 57.9629C53.7773 57.9954 53.8109 58.0175 53.8454 58.0175H54.9234C54.9597 58.0175 54.9904 57.9974 55.0039 57.9629C55.1428 57.6076 55.4251 57.3185 55.7793 57.1711C56.1315 57.0255 56.5376 57.0304 56.886 57.1835C56.9091 57.1942 56.9398 57.2054 56.9817 57.1653L57.7439 56.4031C57.7687 56.3772 57.7764 56.3389 57.7611 56.3075C57.6079 55.9571 57.6041 55.5511 57.7497 55.1989C57.8953 54.8467 58.1845 54.5651 58.5404 54.4253C58.573 54.4109 58.5961 54.3794 58.5961 54.3449V53.2659C58.5968 53.2305 58.5739 53.198 58.5423 53.1836ZM54.3833 55.8999C53.2266 55.8999 52.2884 54.9596 52.2884 53.8031C52.2884 52.6484 53.2266 51.7063 54.3833 51.7063C55.5398 51.7063 56.4801 52.6482 56.4801 53.8031C56.4801 54.9596 55.54 55.8999 54.3833 55.8999Z" fill="#AEB1CF"/>
</svg>
