<svg width="73" height="100" viewBox="0 0 73 100" fill="none" xmlns="http://www.w3.org/2000/svg">
<path d="M72.5297 23.9646C72.5241 23.5056 72.3796 23.0527 72.0646 22.6952L52.7822 0.670264C52.7784 0.664611 52.7727 0.662604 52.767 0.65695C52.652 0.528551 52.5199 0.422221 52.3782 0.329387C52.3361 0.301665 52.2939 0.277225 52.2498 0.252968C52.1252 0.186397 51.997 0.131317 51.863 0.0910101C51.8268 0.0804317 51.7942 0.0656586 51.7577 0.0556274C51.6104 0.0215214 51.4608 0 51.3078 0H3.92164C1.75983 0 0 1.75983 0 3.92164V96.0785C0 98.2413 1.75983 100 3.92164 100H68.6274C70.7909 100 72.5491 98.2413 72.5491 96.0785V24.1833C72.5491 24.1096 72.5377 24.0369 72.5297 23.9646ZM13.6263 89.9882L12.4235 87.5825C11.9303 86.6556 11.615 85.9651 11.2391 85.1945H11.1999C10.9238 85.9646 10.5882 86.6547 10.1743 87.5825L9.06964 89.9882H5.63825L9.48328 83.2634L5.77576 76.6963H9.22667L10.3903 79.1237C10.7842 79.9329 11.0801 80.5837 11.395 81.3324H11.4353C11.75 80.4841 12.0068 79.8924 12.3409 79.1237L13.4655 76.6963H16.897L13.153 83.1837L17.0962 89.9882H13.6263ZM29.6775 89.9882H26.6793V84.4267H21.7295V89.9882H18.7127V76.6963H21.7295V81.8051H26.6793V76.6963H29.6775V89.9882ZM41.5068 79.2213H37.8782V89.9882H34.8609V79.2213H31.291V76.6963H41.5066V79.2213H41.5068ZM54.4603 89.9882L54.2642 84.9005C54.205 83.3036 54.1455 81.3707 54.1455 79.4387H54.0873C53.673 81.1339 53.1214 83.0271 52.6082 84.5857L50.9902 89.7729H48.6444L47.2238 84.6259C46.791 83.0672 46.3372 81.1731 46.0212 79.4387H45.9809C45.9023 81.2328 45.8432 83.2837 45.7445 84.9408L45.5078 89.9882H42.7275L43.5758 76.6963H47.5778L48.8799 81.1334C49.2953 82.6709 49.709 84.3271 50.0039 85.886H50.0632C50.4367 84.3463 50.8905 82.5932 51.3249 81.114L52.7448 76.6963H56.6693L57.3989 89.9882H54.4603ZM68.0069 89.9882H59.7046V76.6963H62.7222V87.4645H68.0071V89.9882H68.0069ZM3.92164 66.5853V3.92164H49.347V23.986C49.347 25.0684 50.2241 25.9468 51.3078 25.9468H68.6274L68.6292 66.5851H3.92164V66.5853Z" fill="#2B74B9"/>
<path d="M7.12744 42.513L18.4452 47.7721V45.2718L9.88528 41.523V41.4756L18.4452 37.7269V35.2266L7.12744 40.4847V42.513Z" fill="#2B74B9"/>
<path d="M54.1055 37.7269L62.8521 41.4756V41.523L54.1055 45.2718V47.7721L65.4217 42.5838V40.4149L54.1055 35.2266V37.7269Z" fill="#2B74B9"/>
<path d="M36.0501 27.9951C28.5922 27.9951 22.5461 34.041 22.5461 41.4993C22.5461 48.9563 28.5922 55.002 36.0501 55.002C43.508 55.002 49.553 48.9563 49.553 41.4993C49.553 34.041 43.508 27.9951 36.0501 27.9951ZM41.1248 33.354L42.09 32.7089C42.09 32.7089 41.684 31.6685 41.7527 31.1586C41.9875 31.0451 42.9381 31.544 43.7424 32.3902C43.2005 34.4036 41.9308 34.1634 41.9308 34.1634C41.9308 34.1634 41.0024 34.1402 41.1248 33.354ZM32.9855 45.2453C32.9255 45.5473 32.5618 46.2736 32.3205 46.756C32.0792 47.238 31.9592 47.4204 31.6552 47.6617C31.3522 47.9068 31.1726 48.3285 31.1726 48.3285L31.1119 49.3546C31.1119 49.3546 31.2306 50.2029 31.4121 50.5056C31.5937 50.8062 30.765 52.608 30.765 52.608C30.2393 52.5038 29.9473 51.8938 29.7649 51.413C29.5826 50.9266 29.3422 50.6703 29.4031 50.1272C29.4638 49.5831 28.9334 49.2957 28.7543 48.9946C28.574 48.6883 28.3307 48.2676 28.3307 47.9654C28.3307 47.6615 27.6666 47.2387 27.6666 47.2387C27.6666 47.2387 26.457 46.695 26.2756 46.4547C26.0941 46.2125 25.9108 45.1822 25.8524 44.7605C25.7906 44.3388 26.0324 43.2518 26.0324 43.2518C26.0324 43.2518 26.5207 42.8841 26.2139 42.5854C25.911 42.2832 25.8533 41.4958 25.8533 41.4958L25.3082 40.893C25.3082 40.893 24.8836 40.288 24.8238 39.9849C24.763 39.6833 24.8238 39.502 24.8845 39.1979C24.9443 38.8939 24.7638 38.3529 24.7638 38.0509C27.0228 32.5137 30.8098 31.2202 30.8098 31.2202L31.1128 32.4867C31.1128 32.4867 30.4482 32.6702 30.0872 32.5485C29.7224 32.428 29.5391 32.428 29.5391 32.428L29.058 33.092C29.058 33.092 28.8733 33.5166 28.814 33.7583C28.7542 34.0005 28.9342 34.3605 28.9342 34.3605C28.9342 34.3605 29.7795 34.4222 29.7795 34.18C29.7795 33.9378 29.6608 33.8187 29.6608 33.8187L29.5391 33.3941C29.5391 33.3941 30.0872 33.0911 31.5335 33.2108C32.9846 33.3332 32.4422 34.3596 33.0482 34.6038C33.6534 34.846 32.5618 35.691 32.3205 36.1734C32.0792 36.6575 31.7168 35.5685 31.7168 35.5685C31.7168 35.5685 32.079 35.151 31.4755 35.0251C30.8706 34.9079 30.4708 36.1136 30.7766 36.0549C31.0774 35.9949 31.4148 36.3804 31.3531 36.6825C31.2924 36.9851 31.2924 36.9606 30.9902 37.6254C30.6882 38.2898 30.0314 38.7819 30.0314 38.7819C30.0314 38.7819 29.7226 38.5948 29.9012 38.9586C30.0865 39.3205 29.8412 40.1655 29.8412 40.4086C29.8412 40.649 29.1155 39.9851 28.9975 39.3785C28.8738 38.7783 28.1658 39.3021 27.9247 39.3628C27.6825 39.4245 27.2415 39.2588 27.1247 38.9588C27.0011 38.6539 25.9122 39.562 25.6091 39.7425C25.308 39.9244 25.4306 40.4088 25.9117 40.1666C26.395 39.9244 26.8178 40.1058 26.6981 40.5932C26.5785 41.0738 26.0964 40.7736 26.1548 41.0738C26.2146 41.3758 26.6981 41.6784 26.8178 42.103C26.9394 42.5246 28.0903 42.1637 28.452 41.9813C28.8138 41.798 29.8421 41.6185 29.9619 42.103C30.0872 42.5865 31.2333 42.7659 31.6561 42.8852C32.0805 43.0078 32.9264 43.0678 33.4119 43.552C33.8921 44.0346 33.0482 44.9421 32.9855 45.2453ZM35.7049 31.0969C35.6432 31.7032 34.6788 32.4871 34.7993 32.7313C34.921 32.9744 34.7993 34.0089 33.9529 33.1008C33.1061 32.1931 32.2578 31.8852 32.3205 31.2793C32.3355 31.1586 33.196 30.9696 33.21 30.7581C34.4924 29.5656 36.5394 29.8108 36.6965 30.0931C36.3306 30.693 35.7667 30.4932 35.7049 31.0969ZM46.2106 35.1579C47.0273 36.5608 48.223 40.3012 47.7807 40.9709C47.5156 40.8511 47.2923 40.7511 47.2923 40.7511H45.68L46.6463 41.8803C46.6463 41.8803 47.1141 42.5659 47.7767 42.5226C47.3401 47.5783 43.1201 50.8253 43.1201 50.8253C42.4768 50.1802 42.7984 49.6185 42.7984 49.6185L42.9802 48.6502L43.0816 47.0188C43.0816 47.0188 43.0816 45.3277 41.4684 46.1313C39.7363 46.5736 40.4582 46.5736 38.708 46.6952C36.9558 46.8158 37.2455 43.1207 37.2455 43.1207C37.2455 37.5882 41.4886 41.7635 41.4886 41.7635C43.9091 43.3735 44.2304 40.4283 44.2304 40.4283L46.0036 39.7874L46.1644 38.9793L45.906 37.8539L43.3307 36.7912C43.3307 36.7912 43.0836 37.6283 43.7442 38.6557C43.7442 38.6557 43.5241 39.8246 42.9811 39.5237L41.4886 38.7726C41.4886 38.7726 40.9867 38.5558 40.1806 39.04C39.3733 39.5226 38.0075 39.0174 38.0075 39.0174C38.0075 39.0174 38.1174 38.2065 38.9666 37.7863L39.6601 37.3272C39.6601 37.3272 39.478 36.499 39.6369 35.8555C39.7959 35.2117 40.0803 35.7751 40.7245 35.2912C41.3679 34.8096 41.8122 36.238 42.779 36.0773C43.7453 35.9155 43.2636 35.7545 43.91 35.433C44.556 35.1109 45.0386 36.0773 45.0386 36.0773L46.3255 36.2382C46.3248 36.2364 46.1236 34.7802 46.2106 35.1579Z" fill="#2B74B9"/>
</svg>
