<svg width="74" height="100" viewBox="0 0 74 100" fill="none" xmlns="http://www.w3.org/2000/svg">
<path d="M56.7654 74.4844C55.4315 74.4844 54.6725 74.5926 54.2761 74.6654V81.3796H56.4417C59.1846 81.3796 60.8095 80.0096 60.8095 77.8783C60.8095 75.64 59.2939 74.5207 56.7654 74.4844Z" fill="#8AC44B"/>
<path d="M73.0787 23.9636C73.073 23.505 72.9274 23.0517 72.6124 22.694L53.33 0.67066C53.3261 0.664487 53.3203 0.66249 53.3138 0.656862C53.1998 0.528503 53.0667 0.422294 52.926 0.329339C52.8839 0.301561 52.8416 0.277233 52.7976 0.252723C52.6731 0.186274 52.5447 0.131082 52.4098 0.0907769C52.3735 0.0802468 52.3419 0.0653594 52.3055 0.0553739C52.1591 0.0216049 52.0079 0 51.8556 0H4.47039C2.30863 0 0.548828 1.7598 0.548828 3.92174V96.0784C0.548828 98.2413 2.30845 100 4.47039 100H69.1762C71.3399 100 73.0977 98.2413 73.0977 96.0784V24.1833C73.0977 24.1096 73.0863 24.0374 73.0787 23.9636ZM21.0697 94.9161L18.8676 90.512C17.9656 88.8154 17.3869 87.5516 16.7018 86.1442H16.629C16.1231 87.5525 15.5103 88.8154 14.7525 90.512L12.73 94.9161H6.44987L13.4887 82.6055L6.70259 70.5852H13.0192L15.1488 75.0247C15.8703 76.5049 16.4126 77.697 16.9909 79.067H17.0611C17.6399 77.516 18.1085 76.4321 18.7213 75.0247L20.7797 70.5852H27.0604L20.2015 82.4601L27.4222 94.9141H21.0693V94.9161H21.0697ZM45.5769 94.9161H30.379V70.5852H35.9037V90.2954H45.5769V94.9161ZM61.5685 94.9161C61.1704 94.2306 60.5939 92.2438 59.8721 89.2482C59.221 86.217 58.1754 85.386 55.9371 85.3495H54.2768V94.9159H48.8252V70.9098C50.5947 70.6206 53.2294 70.4044 56.1533 70.4044C59.7628 70.4044 62.2904 70.9461 64.0213 72.3172C65.467 73.4717 66.2597 75.1683 66.2597 77.4067C66.2597 80.5107 64.0576 82.6409 61.9648 83.3984V83.5066C63.6604 84.1919 64.5997 85.8168 65.2134 88.0552C65.9688 90.7992 66.7281 93.9759 67.1963 94.9141H61.5685V94.9161V94.9161ZM4.47039 66.5852V3.92174H49.8959V23.9862C49.8959 25.0684 50.7728 25.9469 51.8567 25.9469H69.1762L69.1782 66.5852H4.47039Z" fill="#8AC44B"/>
<path d="M13.6597 15.8057V59.996H56.8735V15.8057H13.6597ZM55.3204 58.443H15.2125V17.3585H55.3204V58.443Z" fill="#8AC44B"/>
<path d="M35.2667 20.4053H18.3186V22.7346H35.2667V20.4053Z" fill="#8AC44B"/>
<path d="M35.2667 27.5176H18.3186V29.8469H35.2667V27.5176Z" fill="#8AC44B"/>
<path d="M35.2667 34.2217H18.3186V36.551H35.2667V34.2217Z" fill="#8AC44B"/>
<path d="M52.6056 41.334H18.3186V43.6624H52.6056V41.334Z" fill="#8AC44B"/>
<path d="M52.6056 47.1865H18.3186V49.516H52.6056V47.1865Z" fill="#8AC44B"/>
<path d="M52.6056 53.543H18.3186V55.8734H52.6056V53.543Z" fill="#8AC44B"/>
<path d="M40.8308 20.4053H37.4661V35.3864H40.8308V20.4053Z" fill="#8AC44B"/>
<path d="M46.7823 25.8389H43.418V35.3866H46.7823V25.8389Z" fill="#8AC44B"/>
<path d="M52.6053 22.0859H49.241V35.3858H52.6053V22.0859Z" fill="#8AC44B"/>
</svg>
