<svg width="73" height="100" viewBox="0 0 73 100" fill="none" xmlns="http://www.w3.org/2000/svg">
<path d="M72.6275 23.9646C72.6219 23.5059 72.4772 23.053 72.1623 22.6951L52.8799 0.67066C52.8761 0.664487 52.8703 0.66249 52.8644 0.656862C52.7495 0.528503 52.6175 0.422657 52.4757 0.329339C52.4336 0.302105 52.3915 0.277233 52.3474 0.252723C52.2228 0.186274 52.0947 0.131082 51.9607 0.0907769C51.9244 0.0802468 51.8917 0.0653594 51.8554 0.0559186C51.7079 0.0216049 51.5587 0 51.4055 0H4.01922C1.85746 0 0.0976562 1.7598 0.0976562 3.92174V96.0784C0.0976562 98.2413 1.85728 100 4.01922 100H68.725C70.8887 100 72.6465 98.2413 72.6465 96.0784V24.1842C72.6465 24.1096 72.6351 24.0374 72.6275 23.9646ZM22.8994 94.9927L20.6973 90.5886C19.7955 88.892 19.2173 87.6282 18.5317 86.2208H18.4595C17.9535 87.6291 17.3407 88.892 16.5829 90.5886L14.5602 94.9927H8.27956L15.3189 82.6821L8.53283 70.6609H14.8494L16.9787 75.1013C17.7006 76.5816 18.2425 77.7726 18.8213 79.1436H18.8917C19.47 77.5926 19.9388 76.5088 20.5515 75.1013L22.6103 70.6609H28.891L22.033 82.5385L29.2534 94.9927H22.8994ZM47.4073 94.9927H32.2094V70.6629H37.7338V90.3722H47.4073V94.9927ZM56.6099 95.3526C53.8314 95.3526 51.0876 94.6305 49.7165 93.8726L50.8358 89.3248C52.3169 90.0812 54.5908 90.8393 56.9372 90.8393C59.4639 90.8393 60.7985 89.794 60.7985 88.2046C60.7985 86.6879 59.6429 85.8216 56.7199 84.7751C52.6776 83.3677 50.04 81.1293 50.04 77.5924C50.04 73.4412 53.5059 70.2635 59.2475 70.2635C61.9897 70.2635 64.0106 70.8419 65.4554 71.491L64.2279 75.9305C63.2533 75.4614 61.5193 74.7758 59.1393 74.7758C56.7573 74.7758 55.6026 75.8577 55.6026 77.1226C55.6026 78.6745 56.9737 79.3599 60.1141 80.551C64.4091 82.1404 66.4311 84.3767 66.4311 87.8063C66.4292 91.8887 63.2898 95.3526 56.6099 95.3526ZM4.01922 66.5863V3.92247H49.4447V23.9871C49.4447 25.0695 50.3216 25.9478 51.4055 25.9478H68.725L68.727 66.5863H4.01922V66.5863Z" fill="#8AC44B"/>
<path d="M42.1733 25.1221H26.8959H9.65649V32.475V33.4554V39.8279V40.8083V47.1809V48.1612V55.5142H25.9143H26.8947H42.1731H43.1533H59.4113V47.1809V40.8083V33.4554V32.475V25.1221H42.1733ZM42.1733 39.8279H26.8959V33.4554H42.1733V39.8279ZM10.6369 26.1025H25.9143V32.475H10.6369V26.1025ZM10.6369 33.4554H25.9143V39.8279H10.6369V33.4554ZM10.6369 40.8083H25.9143V47.1809H10.6369V40.8083ZM10.6369 54.5338V48.1612H25.9143V54.5338H10.6369ZM26.8957 54.5338V48.1612H42.1731V54.5338H26.8957ZM58.4309 54.5338H43.1535V48.1612H58.4309V54.5338ZM58.4309 39.8279H43.1535V33.4554H58.4309V39.8279ZM43.1535 32.475V26.1025H58.4309V32.475H43.1535Z" fill="#8AC44B"/>
</svg>
