<svg width="74" height="100" viewBox="0 0 74 100" fill="none" xmlns="http://www.w3.org/2000/svg">
<path d="M73.1767 23.9652C73.171 23.5059 73.0266 23.0533 72.7116 22.6956L53.4292 0.670629C53.4253 0.664975 53.4197 0.662969 53.414 0.657315C53.2989 0.528369 53.1669 0.422586 53.0252 0.329934C52.983 0.302212 52.9409 0.277772 52.8968 0.25315C52.7722 0.18658 52.644 0.131682 52.5099 0.0913748C52.4738 0.0804317 52.4412 0.0660233 52.4047 0.0559922C52.2573 0.0220686 52.1078 0 51.9548 0H4.56861C2.40681 0 0.646973 1.7602 0.646973 3.92164V96.0785C0.646973 98.2413 2.40681 100 4.56861 100H69.2744C71.4378 100 73.196 98.2413 73.196 96.0785V24.1842C73.196 24.1111 73.1847 24.0374 73.1767 23.9652ZM17.1145 92.6911L15.4088 89.28C14.7103 87.9651 14.2638 86.9867 13.7324 85.8973H13.6764C13.2852 86.9867 12.8102 87.9651 12.2235 89.28L10.6577 92.6911H5.79497L11.2461 83.1573L5.99121 73.8504H10.8831L12.5323 77.2903C13.0909 78.435 13.5106 79.3562 13.9587 80.4192H14.0134C14.4615 79.2165 14.8243 78.3786 15.2987 77.2903L16.8929 73.8504H21.7557L16.445 83.0451L22.0363 92.6913H17.1145V92.6911ZM36.0909 92.6911H24.3224V73.8504H28.5996V89.1105H36.0909V92.6911ZM43.2165 92.9687C41.0653 92.9687 38.9416 92.4099 37.8794 91.823L38.7444 88.3015C39.8911 88.8873 41.6529 89.4742 43.468 89.4742C45.4259 89.4742 46.459 88.6651 46.459 87.4329C46.459 86.2611 45.5647 85.5892 43.3008 84.7791C40.1709 83.6897 38.1294 81.9567 38.1294 79.2167C38.1294 76.0025 40.8121 73.5431 45.2583 73.5431C47.3811 73.5431 48.9483 73.9892 50.0647 74.4936L49.115 77.932C48.3596 77.569 47.0183 77.0368 45.1731 77.0368C43.3283 77.0368 42.435 77.8747 42.435 78.855C42.435 80.0564 43.4968 80.5877 45.9286 81.5089C49.2547 82.7404 50.819 84.4719 50.819 87.1273C50.8194 90.286 48.3875 92.9687 43.2165 92.9687ZM63.6199 92.6911L61.9139 89.28C61.2148 87.9651 60.7687 86.9867 60.2363 85.8973H60.1827C59.792 86.9867 59.3154 87.9651 58.7282 89.28L57.1628 92.6911H52.2995L57.75 83.1573L52.4948 73.8504H57.3869L59.0377 77.2903C59.596 78.435 60.0142 79.3562 60.4614 80.4192H60.5179C60.964 79.2165 61.3277 78.3786 61.8037 77.2903L63.397 73.8504H68.2605L62.95 83.0451L68.5401 92.6913H63.6199V92.6911ZM4.56861 66.586V3.92255H49.9939V23.9876C49.9939 25.0701 50.871 25.9483 51.9548 25.9483H69.2744L69.2762 66.586H4.56861Z" fill="#8AC44B"/>
<path d="M43.631 25.1699H28.3535H11.1152V32.523V33.5033V39.8758V40.8561V47.2285V48.2088V55.5624H27.3732H28.3535H43.631H44.6115H60.8693V47.2285V40.8561V33.5033V32.523V25.1699H43.631V25.1699ZM43.631 39.876H28.3535V33.5035H43.631V39.876ZM12.0957 26.1504H27.3732V32.523H12.0957V26.1504V26.1504ZM12.0957 33.5035H27.3732V39.876H12.0957V33.5035V33.5035ZM12.0957 40.8563H27.3732V47.2286H12.0957V40.8563V40.8563ZM12.0957 54.5822V48.2091H27.3732V54.5822H12.0957ZM28.3535 54.5822V48.2091H43.631V54.5822H28.3535ZM59.8897 54.5822H44.6113V48.2091H59.8886V54.5822H59.8897ZM59.8897 39.876H44.6113V33.5035H59.8886V39.876H59.8897ZM44.6115 32.523V26.1504H59.8888V32.523H44.6115Z" fill="#8AC44B"/>
</svg>
