<svg width="73" height="100" viewBox="0 0 73 100" fill="none" xmlns="http://www.w3.org/2000/svg">
<path d="M72.7236 23.9626C72.7198 23.5041 72.5733 23.0521 72.2585 22.6931L52.9778 0.668844C52.9722 0.663579 52.9666 0.660674 52.9626 0.655954C52.8477 0.526687 52.7137 0.421931 52.5721 0.328612C52.5299 0.301379 52.4878 0.275962 52.4437 0.251997C52.3212 0.184459 52.191 0.130537 52.057 0.0902322C52.0205 0.0797021 51.988 0.0639069 51.9517 0.0561001C51.8061 0.0206971 51.6549 0 51.5016 0H4.11736C1.9536 0 0.195801 1.75889 0.195801 3.92174V96.0784C0.195801 98.2402 1.9536 100 4.11736 100H68.8231C70.9851 100 72.7449 98.2404 72.7449 96.0784V24.1824C72.7447 24.1087 72.7332 24.0364 72.7236 23.9626ZM18.6969 92.691L16.7586 88.8183C15.9654 87.3275 15.4583 86.217 14.8557 84.9782H14.7931C14.3488 86.217 13.8083 87.3275 13.142 88.8183L11.3646 92.691H5.8443L12.0311 81.8684L6.06634 71.3025H11.6193L13.4901 75.2048C14.1253 76.5069 14.6006 77.5543 15.1095 78.7587H15.1724C15.6802 77.3955 16.0919 76.4438 16.6315 75.2048L18.441 71.3025H23.9619L17.9322 81.7431L24.2802 92.6912H18.6969V92.691ZM45.2918 92.691L44.9739 84.5031C44.8782 81.9316 44.7823 78.8219 44.7823 75.7121H44.6885C44.0221 78.4418 43.1338 81.4882 42.3085 83.9948L39.7063 92.3406H35.9278L33.644 84.059C32.947 81.5523 32.2175 78.506 31.7075 75.7121H31.6449C31.5185 78.5997 31.4223 81.9009 31.2635 84.5654L30.8842 92.6901H26.4094L27.7751 71.3005H34.2164L36.3112 78.4419C36.9777 80.9158 37.644 83.5814 38.1188 86.0888H38.2144C38.8175 83.6148 39.5472 80.7903 40.246 78.4104L42.5305 71.3005H48.8455L50.0192 92.6901H45.2916V92.691H45.2918ZM67.096 92.691H53.7342V71.3023H58.5902V88.6295H67.096V92.691V92.691ZM68.8231 66.5843H4.11736V3.92174H49.5407V23.9852C49.5407 25.0677 50.4197 25.946 51.5016 25.946H68.8231V66.5843Z" fill="#2B74B9"/>
<path d="M7.90771 42.6439L19.2252 47.9015V45.4026L10.6664 41.6533V41.6056L19.2252 37.8569V35.3574L7.90771 40.615V42.6439Z" fill="#2B74B9"/>
<path d="M54.885 37.8569L63.6339 41.6056V41.6533L54.885 45.4026V47.9015L66.2027 42.7142V40.5446L54.885 35.3574V37.8569Z" fill="#2B74B9"/>
<path d="M36.8303 28.126C29.372 28.126 23.3259 34.1721 23.3259 41.6298C23.3259 49.0874 29.372 55.1341 36.8303 55.1341C44.2885 55.1341 50.3337 49.0874 50.3337 41.6298C50.3337 34.1719 44.2885 28.126 36.8303 28.126ZM41.9054 33.4858L42.8715 32.8395C42.8715 32.8395 42.4655 31.7994 42.5345 31.2895C42.7682 31.1755 43.7197 31.6748 44.5231 32.5207C43.9822 34.5346 42.7126 34.2944 42.7126 34.2944C42.7126 34.2944 41.784 34.2721 41.9054 33.4858ZM33.7655 45.3761C33.7055 45.6777 33.3419 46.4044 33.1004 46.8868C32.8591 47.3699 32.7386 47.5522 32.4347 47.7935C32.132 48.0386 31.9526 48.4589 31.9526 48.4589L31.8918 49.4858C31.8918 49.4858 32.0106 50.3334 32.1919 50.6361C32.3728 50.9366 31.5447 52.7374 31.5447 52.7374C31.0191 52.6332 30.7271 52.0242 30.5447 51.5437C30.3622 51.0582 30.122 50.8006 30.1828 50.2588C30.2437 49.714 29.7132 49.4268 29.5336 49.1248C29.3537 48.8187 29.1104 48.3986 29.1104 48.0965C29.1104 47.7935 28.4465 47.3699 28.4465 47.3699C28.4465 47.3699 27.2368 46.826 27.0554 46.5858C26.8738 46.3436 26.6905 45.3129 26.6317 44.8926C26.5699 44.4709 26.8121 43.3828 26.8121 43.3828C26.8121 43.3828 27.3003 43.0161 26.9937 42.7171C26.6907 42.4155 26.6327 41.627 26.6327 41.627L26.0881 41.0239C26.0881 41.0239 25.6634 40.4193 25.6037 40.1161C25.5431 39.8142 25.6037 39.6327 25.6645 39.3302C25.7244 39.0263 25.5438 38.4838 25.5438 38.1828C27.8029 32.6447 31.5899 31.3525 31.5899 31.3525L31.8929 32.6192C31.8929 32.6192 31.2281 32.8015 30.8677 32.6819C30.5029 32.5604 30.3194 32.5604 30.3194 32.5604L29.8379 33.2244C29.8379 33.2244 29.6536 33.6485 29.5937 33.8907C29.5338 34.1329 29.7144 34.4938 29.7144 34.4938C29.7144 34.4938 30.5599 34.5546 30.5599 34.3133C30.5599 34.0711 30.4412 33.9504 30.4412 33.9504L30.3196 33.5272C30.3196 33.5272 30.8679 33.2242 32.3134 33.3435C33.7647 33.466 33.2224 34.4929 33.8284 34.7369C34.4332 34.9787 33.3421 35.824 33.1008 36.3066C32.8595 36.7906 32.4968 35.7015 32.4968 35.7015C32.4968 35.7015 32.8597 35.283 32.256 35.1581C31.6509 35.0399 31.2507 36.2467 31.5565 36.1877C31.8577 36.128 32.1952 36.5132 32.1333 36.8139C32.0726 37.1169 32.0726 37.0935 31.7704 37.7574C31.4682 38.4219 30.8116 38.9141 30.8116 38.9141C30.8116 38.9141 30.5027 38.7258 30.6814 39.0896C30.8668 39.4517 30.6215 40.2975 30.6215 40.5397C30.6215 40.7799 29.8958 40.116 29.7771 39.5099C29.6536 38.9092 28.9461 39.433 28.7048 39.4947C28.4626 39.5564 28.0213 39.3894 27.9049 39.0896C27.7814 38.7857 26.6919 39.6924 26.3887 39.8729C26.0881 40.0551 26.2106 40.5397 26.6918 40.2975C27.1752 40.0553 27.5979 40.2367 27.4782 40.7231C27.3586 41.2033 26.876 40.9044 26.9349 41.2033C26.9948 41.5054 27.4782 41.8084 27.5979 42.2331C27.7193 42.6543 28.8702 42.2939 29.2321 42.1114C29.5935 41.928 30.6222 41.7485 30.7419 42.2331C30.8673 42.7171 32.0133 42.8955 32.4356 43.0152C32.8602 43.1366 33.7064 43.1975 34.1914 43.6809C34.6732 44.1659 33.8294 45.0731 33.7655 45.3761ZM36.4855 31.2289C36.4241 31.8349 35.4597 32.6191 35.5797 32.8633C35.7012 33.1074 35.5797 34.1408 34.7339 33.2327C33.8869 32.326 33.0387 32.0183 33.1015 31.4112C33.1164 31.2905 33.977 31.1015 33.9908 30.8894C35.2729 29.6975 37.3203 29.9426 37.4771 30.2249C37.1099 30.8239 36.5469 30.6238 36.4855 31.2289ZM46.9904 35.2888C47.8079 36.6915 49.0029 40.433 48.5614 41.1013C48.2961 40.9816 48.0732 40.8819 48.0732 40.8819H46.4599L47.4259 42.0123C47.4259 42.0123 47.894 42.6982 48.5566 42.6543C48.1202 47.7104 43.9007 50.9578 43.9007 50.9578C43.2564 50.3124 43.5792 49.7505 43.5792 49.7505L43.76 48.7806L43.8624 47.1493C43.8624 47.1493 43.8624 45.4585 42.2491 46.2612C40.5162 46.7036 41.2382 46.7036 39.4889 46.8247C37.7358 46.9464 38.026 43.2507 38.026 43.2507C38.026 37.7182 42.2682 41.8936 42.2682 41.8936C44.6884 43.5034 45.0111 40.5584 45.0111 40.5584L46.7832 39.9161L46.9443 39.1085L46.6866 37.9822L44.1111 36.9193C44.1111 36.9193 43.8631 37.7559 44.5236 38.7848C44.5236 38.7848 44.3034 39.9533 43.7616 39.6512L42.2689 38.9015C42.2689 38.9015 41.7662 38.6837 40.9611 39.1692C40.1531 39.6512 38.7869 39.1452 38.7869 39.1452C38.7869 39.1452 38.8978 38.3347 39.746 37.9139L40.4392 37.4562C40.4392 37.4562 40.2573 36.6285 40.4161 35.9847C40.5752 35.3404 40.8604 35.9045 41.5038 35.4199C42.1481 34.939 42.5924 36.3669 43.5583 36.2066C44.5243 36.0448 44.0428 35.8839 44.6892 35.5622C45.3355 35.2396 45.8179 36.2066 45.8179 36.2066L47.1047 36.3669C47.1053 36.3678 46.9041 34.911 46.9904 35.2888Z" fill="#2B74B9"/>
</svg>
