<svg width="74" height="100" viewBox="0 0 74 100" fill="none" xmlns="http://www.w3.org/2000/svg">
<path d="M73.2749 23.9636C73.2693 23.505 73.1246 23.0517 72.8098 22.694L53.5273 0.67066C53.5235 0.664487 53.5177 0.66249 53.5119 0.656862C53.397 0.528503 53.265 0.422294 53.1232 0.329339C53.0811 0.301561 53.039 0.277233 52.9948 0.252723C52.8703 0.186274 52.7421 0.131082 52.6081 0.0907769C52.5718 0.0802468 52.5391 0.0653594 52.5028 0.0553739C52.3554 0.0216049 52.2062 0 52.0529 0H4.66668C2.50492 0 0.745117 1.7598 0.745117 3.92174V96.0784C0.745117 98.2413 2.50474 100 4.66668 100H69.3724C71.5362 100 73.294 98.2413 73.294 96.0784V24.1833C73.294 24.1096 73.2826 24.0374 73.2749 23.9636ZM18.1303 84.3156V93.3535H13.2422V84.4771L6.3909 71.6756H11.9869L14.2057 76.8858C14.8813 78.4617 15.3311 79.6193 15.8784 81.0351H15.9421C16.4256 79.6834 16.9392 78.43 17.5821 76.8858L19.7692 71.6756H25.2687L18.1303 84.3156ZM45.306 83.8341C45.306 90.5234 41.9284 93.7079 36.2687 93.7079C30.8008 93.7079 27.5853 90.6845 27.5853 83.768V71.6758H32.506V84.1556C32.506 87.8867 33.9204 89.7843 36.4293 89.7843C39.0014 89.7843 40.4175 87.9833 40.4175 84.1556V71.6758H45.306V83.8341V83.8341ZM60.3872 93.3535H54.6628L47.7158 71.6776H53.0869L55.7234 80.8428C56.4636 83.4163 57.1386 85.8931 57.6537 88.595H57.7494C58.2971 85.9897 58.971 83.4163 59.7121 80.9394L62.477 71.6774H67.6873L60.3872 93.3535ZM4.66668 66.5852V3.92174H50.0922V23.9862C50.0922 25.0684 50.9691 25.9469 52.0529 25.9469H69.3724L69.3744 66.5852H4.66668Z" fill="#AEB1CF"/>
<path d="M51.4333 32.0232C51.4669 31.6269 51.49 31.2478 51.49 30.8887C51.49 22.7075 44.834 16.0518 36.6529 16.0518C28.4713 16.0518 21.8152 22.7077 21.8152 30.8887C21.8152 31.3172 21.8479 31.7671 21.8956 32.2396C16.2832 34.4809 12.5603 39.9076 12.5603 45.9985C12.5603 54.1797 19.2162 60.8356 27.398 60.8356C30.9194 60.8356 34.273 59.5834 36.9548 57.3133C39.6351 59.5834 42.9889 60.8356 46.5112 60.8356C54.6931 60.8356 61.3472 54.1797 61.3472 45.9985C61.3472 39.7209 57.3071 34.0946 51.4333 32.0232ZM40.2727 45.9985C40.2727 49.2122 39.0951 52.2247 36.953 54.5953C34.8106 52.2247 33.6322 49.2131 33.6322 45.9985C33.6322 45.8115 33.644 45.6103 33.6547 45.4094C34.6489 45.6171 35.6527 45.7247 36.6518 45.7247C37.8565 45.7247 39.0606 45.5738 40.2431 45.2756C40.2612 45.5252 40.2727 45.7668 40.2727 45.9985ZM39.976 43.3202C37.9813 43.8593 35.9223 43.9085 33.8978 43.4613C34.3507 41.2071 35.4105 39.1013 36.953 37.3885C38.4584 39.0621 39.5087 41.1191 39.976 43.3202ZM32.0176 42.8899C27.982 41.3289 24.98 37.8161 24.0783 33.5733C25.1707 33.279 26.2832 33.1233 27.3981 33.1233C30.3842 33.1233 33.2344 34.1592 35.5332 36.0443C33.7819 37.978 32.5637 40.3466 32.0176 42.8899ZM41.838 42.6572C41.2683 40.2006 40.0659 37.9132 38.3713 36.0406C41.3843 33.5762 45.3832 32.5771 49.2627 33.4277C48.4395 37.5045 45.637 40.976 41.838 42.6572ZM36.6529 18.0125C43.7529 18.0125 49.529 23.7885 49.529 30.8887C49.529 31.0779 49.5234 31.2732 49.5128 31.476C45.0283 30.5416 40.4136 31.7513 36.9755 34.6474L36.9539 34.6269L36.9323 34.6474C34.2567 32.3947 30.9069 31.1634 27.3969 31.1634C26.1892 31.1634 24.9853 31.3133 23.8017 31.6125C23.7841 31.3622 23.776 31.1233 23.776 30.8898C23.7761 23.7885 29.5526 18.0125 36.6529 18.0125ZM27.3969 58.8748C20.2969 58.8748 14.5202 53.0989 14.5202 45.9985C14.5202 40.862 17.5672 36.263 22.2097 34.2229C23.3419 39.1436 26.9321 43.181 31.7059 44.868L31.703 44.8928L31.7226 44.8987C31.689 45.2868 31.6723 45.6477 31.6723 45.9978C31.6723 49.7269 33.0361 53.2282 35.533 55.9644C33.2329 57.8485 30.3803 58.8748 27.3969 58.8748ZM46.5094 58.8748C43.5259 58.8748 40.673 57.8485 38.3742 55.9653C40.8711 53.2282 42.2354 49.7278 42.2354 45.9987C42.2354 45.5751 42.2126 45.1437 42.1655 44.6761L42.1819 44.6704L42.179 44.6479C46.7294 42.8153 50.1207 38.7761 51.1488 33.9958C56.0499 35.8939 59.3865 40.6804 59.3865 45.9989C59.3866 53.0989 53.6094 58.8748 46.5094 58.8748Z" fill="#AEB1CF"/>
</svg>
