<svg width="73" height="100" viewBox="0 0 73 100" fill="none" xmlns="http://www.w3.org/2000/svg">
<path d="M72.8238 23.9636C72.818 23.505 72.6725 23.0521 72.3575 22.694L53.076 0.67066C53.0722 0.664487 53.0664 0.66249 53.0607 0.656862C52.9458 0.528503 52.8138 0.422657 52.672 0.329339C52.6299 0.302105 52.5876 0.277596 52.5437 0.252723C52.4191 0.186274 52.2908 0.131082 52.1568 0.0907769C52.1205 0.0802468 52.088 0.0653594 52.0515 0.0559186C51.9042 0.0206971 51.7548 0 51.6016 0H4.21551C2.05356 0 0.293945 1.7598 0.293945 3.92174V96.0784C0.293945 98.2413 2.05356 100 4.21551 100H68.9213C71.085 100 72.843 98.2413 72.843 96.0784V24.1833C72.8428 24.1096 72.8314 24.0374 72.8238 23.9636ZM30.7948 95.0423H12.3037V92.1491L23.6323 75.8461V75.7036H13.3627V71.2584H30.6196V74.3641L19.5379 90.4563V90.5962H30.7946V95.0423H30.7948ZM39.586 95.0423H34.1859V71.2584H39.586V95.0423V95.0423ZM59.1364 84.1393C57.302 85.8684 54.5851 86.644 51.4084 86.644C50.7016 86.644 50.068 86.6095 49.574 86.5387V95.0443H44.245V71.5761C45.9033 71.2927 48.2316 71.0821 51.5137 71.0821C54.832 71.0821 57.1949 71.7159 58.7842 72.9873C60.3009 74.1869 61.3252 76.162 61.3252 78.4924C61.3252 80.821 60.5478 82.7981 59.1364 84.1393ZM4.21551 66.5852V3.92174H27.6663V3.30519H33.6132V3.92174H49.6408V23.9862C49.6408 25.0684 50.5179 25.9469 51.6016 25.9469H68.9213L68.9233 66.5852H4.21551Z" fill="#F57C1F"/>
<path d="M51.7969 75.1396C50.7015 75.1396 49.9606 75.246 49.5737 75.3522V82.374C50.0314 82.4802 50.5962 82.5165 51.3737 82.5165C54.2306 82.5165 55.996 81.0679 55.996 78.6353C55.996 76.4456 54.4777 75.1396 51.7969 75.1396Z" fill="#F57C1F"/>
<path d="M39.5605 7.24707H33.6135V9.70095H39.5605V7.24707Z" fill="#F57C1F"/>
<path d="M33.6135 3.92188H27.6665V5.76011H33.6135V3.92188Z" fill="#F57C1F"/>
<path d="M33.6135 10.9189H27.6665V13.3728H33.6135V10.9189Z" fill="#F57C1F"/>
<path d="M39.5605 14.9365H33.6135V17.3908H39.5605V14.9365Z" fill="#F57C1F"/>
<path d="M39.5605 22.6904H33.6135V25.1443H39.5605V22.6904Z" fill="#F57C1F"/>
<path d="M33.6135 18.75H27.6665V21.2039H33.6135V18.75Z" fill="#F57C1F"/>
<path d="M33.6134 27.1484C29.4027 27.1484 27.3998 30.5602 27.3998 34.7719L25.99 47.5438C25.99 51.7555 29.4017 55.1696 33.6123 55.1696C37.8226 55.1696 41.2329 51.7555 41.2329 47.5438L39.8275 34.7719C39.8293 30.5611 37.8244 27.1484 33.6134 27.1484ZM36.1399 51.8205H31.0929V41.1582H36.1399V51.8205Z" fill="#F57C1F"/>
</svg>
